<?xml version="1.0" standalone="no"?>
<!DOCTYPE svg PUBLIC "-//W3C//DTD SVG 1.1//EN" "http://www.w3.org/Graphics/SVG/1.1/DTD/svg11.dtd" >
<svg xmlns="http://www.w3.org/2000/svg" xmlns:xlink="http://www.w3.org/1999/xlink" version="1.1">
<metadata>
Created by FontForge 20170731 at Tue Jan 31 13:40:44 2017
 By Aleksey,,,
Copyright 2012 The Encode Project Authors (impallari@gmail.com), with Reserved Font Name "Encode Sans".
</metadata>
<defs>
<font id="EncodeSansSemiExpanded-Thin" horiz-adv-x="1150" >
  <font-face 
    font-family="Encode Sans Semi Expanded Thin"
    font-weight="250"
    font-stretch="semi-expanded"
    units-per-em="2000"
    panose-1="0 0 3 5 0 0 0 0 0 0"
    ascent="1600"
    descent="-400"
    x-height="1080"
    cap-height="1480"
    bbox="-905 -460 2571 2117"
    underline-thickness="50"
    underline-position="-150"
    unicode-range="U+000D-FB02"
  />
<missing-glyph horiz-adv-x="1028" 
d="M843 1616v-2056h-652v2056h652zM685 1478h-340v-68h134v-76h-136v-68h342v68h-136v76h136v68zM549 1213h-206v-214h342v70h-136v144zM479 1143v-74h-68v74h68zM685 944h-342v-68h136v-76h-136v-68h206v144h136v68zM685 820h-68v-135h-274v-70h342v205zM685 569h-206v-115
h70v48h68v-97h-206v164h-68v-232h342v232zM685 214h-342v-233h342v233zM617 146v-97h-206v97h206zM685 -66h-342v-68h144l-144 -96v-68h342v68h-210l144 96h66v68z" />
    <glyph glyph-name="fi" unicode="fi" horiz-adv-x="1154" 
d="M340 1544q91 92 275 92q72 0 150 -13v-68q-76 15 -154 15q-101 0 -165.5 -29.5t-96.5 -95.5t-32 -176v-189h406v-64h-406v-1016h-68v1016h-230v64h230v184q0 188 91 280zM981.5 1468q17.5 -18 17.5 -46t-17.5 -45t-44.5 -17t-44.5 17t-17.5 45t17.5 46t44.5 18t44.5 -18z
M903 0v1080h68v-1080h-68z" />
    <glyph glyph-name="fl" unicode="fl" horiz-adv-x="1154" 
d="M340 1544q91 92 275 92q72 0 150 -13v-68q-76 15 -154 15q-101 0 -165.5 -29.5t-96.5 -95.5t-32 -176v-189h406v-64h-406v-1016h-68v1016h-230v64h230v184q0 188 91 280zM903 1616h68v-1616h-68v1616z" />
    <glyph glyph-name="f_j" unicode="fj" horiz-adv-x="1154" 
d="M317 1016v-1016h-68v1016h-230v64h230v184q0 188 91 280t275 92q72 0 150 -13v-68q-76 15 -154 15q-101 0 -165.5 -29.5t-96.5 -95.5t-32 -176v-189h406v-64h-406zM981.5 1477q17.5 -18 17.5 -46t-17.5 -45t-44.5 -17t-44.5 17t-17.5 45t17.5 46t44.5 18t44.5 -18z
M903 1080h68v-908q0 -189 -52.5 -336.5t-168.5 -295.5l-49 35q106 136 154 276t48 315v914z" />
    <glyph glyph-name=".notdef" horiz-adv-x="1028" 
d="M843 1616v-2056h-652v2056h652zM685 1478h-340v-68h134v-76h-136v-68h342v68h-136v76h136v68zM549 1213h-206v-214h342v70h-136v144zM479 1143v-74h-68v74h68zM685 944h-342v-68h136v-76h-136v-68h206v144h136v68zM685 820h-68v-135h-274v-70h342v205zM685 569h-206v-115
h70v48h68v-97h-206v164h-68v-232h342v232zM685 214h-342v-233h342v233zM617 146v-97h-206v97h206zM685 -66h-342v-68h144l-144 -96v-68h342v68h-210l144 96h66v68z" />
    <glyph glyph-name=".null" horiz-adv-x="0" 
 />
    <glyph glyph-name="nonmarkingreturn" unicode="&#xd;" horiz-adv-x="515" 
 />
    <glyph glyph-name="NULL" horiz-adv-x="0" 
 />
    <glyph glyph-name="NULL" horiz-adv-x="0" 
 />
    <glyph glyph-name="space" unicode=" " horiz-adv-x="515" 
 />
    <glyph glyph-name="exclam" unicode="!" horiz-adv-x="469" 
d="M211 316l-12 574v590h72v-590l-12 -574h-48zM190.5 7q-17.5 17 -17.5 45t17.5 46t44.5 18t44.5 -18t17.5 -46t-17.5 -45t-44.5 -17t-44.5 17z" />
    <glyph glyph-name="quotedbl" unicode="&#x22;" horiz-adv-x="702" 
d="M184 956l-20 660h80l-20 -660h-40zM479 956l-20 660h80l-20 -660h-40z" />
    <glyph glyph-name="numbersign" unicode="#" 
d="M1045 920h-229l-41 -360h270v-66h-278l-56 -494h-66l56 494h-308l-56 -494h-66l56 494h-222v66h230l41 360h-271v66h279l56 494h66l-56 -494h308l56 494h66l-56 -494h221v-66zM709 560l41 360h-308l-41 -360h308z" />
    <glyph glyph-name="dollar" unicode="$" horiz-adv-x="1082" 
d="M882 108q-107 -101 -308 -121v-227h-64v223q-11 -1 -35 -1q-88 0 -183 15.5t-181 45.5v68q188 -63 367 -63q218 0 328.5 84t110.5 248q0 92 -37 152.5t-116 100.5t-211 70l-67 15q-201 45 -296.5 139.5t-95.5 250.5q0 166 106 267.5t310 119.5v225h64v-222h19
q87 0 173.5 -12.5t162.5 -36.5v-68q-168 51 -340 51q-210 0 -316.5 -82t-106.5 -238q0 -91 33.5 -152t107 -102t199.5 -70l67 -15q147 -33 238 -84.5t134.5 -126.5t43.5 -180q0 -173 -107 -274z" />
    <glyph glyph-name="percent" unicode="%" horiz-adv-x="1778" 
d="M211.5 688.5q-85.5 110.5 -85.5 349.5q0 240 84 350t234 110q149 0 233 -110t84 -350q0 -239 -85 -349.5t-232 -110.5t-232.5 110.5zM502 0l702 1480h72l-702 -1480h-72zM628 733.5q66 91.5 66 302.5q0 212 -66 305.5t-184 93.5q-119 0 -184.5 -92.5t-65.5 -302.5
t65.5 -304t184.5 -94q118 0 184 91.5zM1102 92.5q-85 110.5 -85 349.5q0 240 84 350t233 110t233.5 -110t84.5 -350q0 -239 -85 -349.5t-233 -110.5q-147 0 -232 110.5zM1518.5 137.5q65.5 91.5 65.5 302.5q0 213 -65.5 306t-184.5 93q-250 0 -250 -395q0 -398 250 -398
q119 0 184.5 91.5z" />
    <glyph glyph-name="ampersand" unicode="&#x26;" horiz-adv-x="1527" 
d="M1489 -20l-283 215q-67 -105 -191.5 -159t-300.5 -54q-182 0 -305 53t-183 147t-60 219q0 140 70 245t205 169q-53 66 -76 132t-23 145q0 196 124 301t371 105q146 0 258 -32v-68q-115 34 -260 34q-217 0 -319 -86t-102 -253q0 -82 25.5 -146t92 -135t193.5 -168
l458 -349q31 78 31 185q0 67 -13 139.5t-37 140.5h70q46 -129 46 -281q0 -130 -43 -225l290 -221zM986.5 95q110.5 47 167.5 140l-467 356q-128 97 -199 171q-127 -56 -188.5 -144.5t-61.5 -210.5q0 -166 116 -262.5t362 -96.5q160 0 270.5 47z" />
    <glyph glyph-name="quotesingle" unicode="'" horiz-adv-x="407" 
d="M184 956l-20 660h80l-20 -660h-40z" />
    <glyph glyph-name="parenleft" unicode="(" horiz-adv-x="666" 
d="M236.5 39q-88.5 259 -88.5 549t88.5 549t273.5 479h83q-194 -228 -283.5 -484t-89.5 -544t89.5 -544t283.5 -484h-83q-185 220 -273.5 479z" />
    <glyph glyph-name="parenright" unicode=")" horiz-adv-x="666" 
d="M356.5 44q89.5 256 89.5 544t-89.5 544t-283.5 484h84q184 -220 272.5 -479.5t88.5 -548.5t-88.5 -548.5t-272.5 -479.5h-84q194 228 283.5 484z" />
    <glyph glyph-name="asterisk" unicode="*" horiz-adv-x="888" 
d="M470 1205l132 -156l111 -149l-52 -38l-111 149l-106 174l-106 -174l-110 -149l-52 38l110 149l132 156l-198 48l-190 61l20 60l188 -61l190 -78l-16 204v177h64v-177l-16 -204l190 78l188 61l20 -60l-190 -61z" />
    <glyph glyph-name="plus" unicode="+" horiz-adv-x="1085" 
d="M509 378v350h-330v64h330v350h68v-350h330v-64h-330v-350h-68z" />
    <glyph glyph-name="comma" unicode="," horiz-adv-x="429" 
d="M260 95.5q17 -20.5 17 -63.5q0 -164 -68 -332h-44q27 87 41.5 155.5t16.5 134.5h-8q-27 0 -44.5 18t-17.5 46q0 27 16.5 44.5t43.5 17.5q30 0 47 -20.5z" />
    <glyph glyph-name="hyphen" unicode="-" horiz-adv-x="859" 
d="M179 528v64h502v-64h-502z" />
    <glyph glyph-name="period" unicode="." horiz-adv-x="429" 
d="M170.5 7q-17.5 17 -17.5 45t17.5 46t44.5 18t44.5 -18t17.5 -46t-17.5 -45t-44.5 -17t-44.5 17z" />
    <glyph glyph-name="slash" unicode="/" horiz-adv-x="567" 
d="M0 -240l498 1856h69l-498 -1856h-69z" />
    <glyph glyph-name="zero" unicode="0" horiz-adv-x="1279" 
d="M268.5 160q-130.5 178 -130.5 580q0 403 129.5 580.5t372.5 177.5t372 -177.5t129 -580.5q0 -402 -130.5 -580t-370.5 -178q-241 0 -371.5 178zM870.5 112q94.5 64 146.5 216t52 408q0 260 -52 413.5t-146 218t-231 64.5q-136 0 -231 -64t-147 -216t-52 -408
q0 -260 52 -413.5t146.5 -218t231.5 -64.5q136 0 230.5 64z" />
    <glyph glyph-name="one" unicode="1" horiz-adv-x="734" 
d="M477 1484h44v-1484h-68v1386l-428 -308v79z" />
    <glyph glyph-name="two" unicode="2" horiz-adv-x="1002" 
d="M927 64v-64h-852v40l457 581q127 159 179 271t52 221q0 165 -90 242t-272 77q-187 0 -344 -60v68q70 28 158 43t186 15q209 0 320.5 -93.5t111.5 -286.5q0 -86 -24 -164.5t-78 -167.5t-151 -211l-405 -511h752z" />
    <glyph glyph-name="three" unicode="3" horiz-adv-x="1025" 
d="M860 644q86 -96 86 -245q0 -199 -132 -308t-392 -109q-91 0 -185 16t-176 46v68q91 -32 184 -48t180 -16q226 0 338.5 90t112.5 262q0 158 -104 243t-310 85h-179v66h65q232 0 354.5 86t122.5 253q0 144 -97 221.5t-278 77.5q-180 0 -342 -56v68q156 54 343 54
q140 0 240 -43t152 -125t52 -196q0 -133 -75.5 -225.5t-210.5 -135.5q165 -33 251 -129z" />
    <glyph glyph-name="four" unicode="4" horiz-adv-x="1195" 
d="M1147 448v-64h-230v-384h-68v384h-793v40l650 1056h77l-636 -1032h702l14 532h54v-532h230z" />
    <glyph glyph-name="five" unicode="5" horiz-adv-x="1038" 
d="M716 766.5q134 -49.5 195.5 -137t61.5 -220.5q0 -209 -133.5 -318t-389.5 -109q-91 0 -185.5 16.5t-176.5 45.5v68q183 -64 365 -64q450 0 450 360q0 114 -54 187.5t-175.5 114.5t-326.5 53l-194 11l50 706h708v-64h-645l-41 -579l140 -8q217 -13 351 -62.5z" />
    <glyph glyph-name="six" unicode="6" horiz-adv-x="1164" 
d="M967 720q126 -108 126 -316q0 -138 -55.5 -232.5t-154 -142t-226.5 -47.5q-246 0 -378 168.5t-132 542.5q0 409 153.5 607t454.5 198q162 0 272 -44v-68q-57 24 -129 35t-142 11q-270 0 -404.5 -176.5t-134.5 -551.5q75 57 182.5 90.5t216.5 33.5q225 0 351 -108z
M923.5 136q99.5 88 99.5 265q0 182 -106.5 271.5t-304.5 89.5q-104 0 -212 -33.5t-182 -99.5q10 -310 122 -445.5t318 -135.5q166 0 265.5 88z" />
    <glyph glyph-name="seven" unicode="7" horiz-adv-x="946" 
d="M14 1480h872v-40l-620 -1440h-75l611 1416h-788v64z" />
    <glyph glyph-name="eight" unicode="8" horiz-adv-x="1279" 
d="M1079.5 594q79.5 -88 79.5 -222q0 -120 -59.5 -208t-174 -135t-275.5 -47q-256 0 -393 101t-137 292q0 143 78.5 246t221.5 157q-128 56 -186.5 141t-58.5 206q0 115 55 199t158.5 129t245.5 45q146 0 251.5 -45t161.5 -129t56 -199q0 -136 -71.5 -234t-207.5 -155
q176 -54 255.5 -142zM288 963q41 -67 134.5 -113.5t253.5 -77.5q34 -6 60 -13q158 62 228.5 147.5t70.5 217.5q0 150 -105.5 229t-296.5 79q-188 0 -287 -80.5t-99 -224.5q0 -97 41 -164zM974.5 130.5q112.5 82.5 112.5 236.5q0 94 -41.5 157.5t-133.5 106.5t-248 75
q-92 18 -166 42q-149 -46 -228 -142.5t-79 -227.5q0 -161 117.5 -245.5t343.5 -84.5q210 0 322.5 82.5z" />
    <glyph glyph-name="nine" unicode="9" horiz-adv-x="1164" 
d="M885 1329.5q132 -168.5 132 -542.5q0 -409 -153.5 -607t-454.5 -198q-162 0 -272 44v68q57 -24 129 -35t142 -11q270 0 404.5 176.5t134.5 551.5q-75 -57 -182.5 -90.5t-216.5 -33.5q-225 0 -351 108t-126 316q0 138 55.5 232.5t154 142t226.5 47.5q246 0 378 -168.5z
M247.5 807.5q106.5 -89.5 304.5 -89.5q104 0 212 33.5t182 99.5q-10 310 -122 445.5t-318 135.5q-166 0 -265.5 -88t-99.5 -265q0 -182 106.5 -271.5z" />
    <glyph glyph-name="colon" unicode=":" horiz-adv-x="429" 
d="M170.5 7q-17.5 17 -17.5 45t17.5 46t44.5 18t44.5 -18t17.5 -46t-17.5 -45t-44.5 -17t-44.5 17zM170.5 981q-17.5 17 -17.5 45t17.5 46t44.5 18t44.5 -18t17.5 -46t-17.5 -45t-44.5 -17t-44.5 17z" />
    <glyph glyph-name="semicolon" unicode=";" horiz-adv-x="429" 
d="M260 95.5q17 -20.5 17 -63.5q0 -164 -68 -332h-44q27 87 41.5 155.5t16.5 134.5h-8q-27 0 -44.5 18t-17.5 46q0 27 16.5 44.5t43.5 17.5q30 0 47 -20.5zM170.5 981q-17.5 17 -17.5 45t17.5 46t44.5 18t44.5 -18t17.5 -46t-17.5 -45t-44.5 -17t-44.5 17z" />
    <glyph glyph-name="less" unicode="&#x3c;" horiz-adv-x="1085" 
d="M907 1114v-72l-637 -282l637 -282v-72l-728 328v52z" />
    <glyph glyph-name="equal" unicode="=" horiz-adv-x="1085" 
d="M179 910v64h728v-64h-728zM179 546v64h728v-64h-728z" />
    <glyph glyph-name="greater" unicode="&#x3e;" horiz-adv-x="1085" 
d="M179 1114l728 -328v-52l-728 -328v72l637 282l-637 282v72z" />
    <glyph glyph-name="question" unicode="?" horiz-adv-x="900" 
d="M375 727q147 51 231 107t121 127.5t37 171.5q0 144 -97.5 221.5t-278.5 77.5q-180 0 -342 -56v68q156 54 344 54q140 0 240 -43t152 -125t52 -196q0 -110 -36.5 -190t-121 -143.5t-231.5 -119.5l-10 -381h-48zM366.5 7.5q-17.5 17.5 -17.5 44.5q0 28 17.5 46t44.5 18
t44.5 -18t17.5 -46q0 -27 -17 -44.5t-45 -17.5q-27 0 -44.5 17.5z" />
    <glyph glyph-name="at" unicode="@" horiz-adv-x="1950" 
d="M1606.5 1261q215.5 -237 215.5 -698q0 -198 -42.5 -327.5t-115 -190.5t-164.5 -61q-85 0 -137 38.5t-68 105.5h-10q-62 -66 -157 -105t-200 -39q-154 0 -241.5 75t-87.5 209t87 207.5t273 96.5l327 40v131q0 111 -36 174t-104 88t-173 25q-69 0 -149 -13t-158 -40v68
q65 25 147 38t159 13q125 0 209 -33t128.5 -110.5t44.5 -208.5v-508q0 -101 36.5 -144.5t113.5 -43.5q70 0 126 52t90 165.5t34 288.5q0 443 -196 660.5t-577 217.5q-384 0 -582.5 -224.5t-198.5 -683.5q0 -472 205.5 -695t620.5 -223q99 0 192.5 14t196.5 44v-68
q-88 -27 -188 -41.5t-201 -14.5q-898 2 -898 980q0 488 219.5 733t633.5 245q410 0 625.5 -237zM1122.5 92q92.5 42 163.5 127v328l-328 -41q-149 -19 -217 -75t-68 -158q0 -108 64 -165.5t193 -57.5q100 0 192.5 42z" />
    <glyph glyph-name="A" unicode="A" horiz-adv-x="1364" 
d="M1246 0l-212 528h-706l-212 -528h-73l596 1480h86l597 -1480h-76zM354 594h654l-327 816z" />
    <glyph glyph-name="B" unicode="B" horiz-adv-x="1279" 
d="M1112 640q79 -96 79 -242q0 -137 -63.5 -226.5t-201.5 -135.5t-362 -46q-98 0 -179 5t-182 18v1444q99 19 189 28t206 9q287 0 418.5 -94.5t131.5 -291.5q0 -132 -67 -221.5t-212 -122.5q164 -28 243 -124zM418.5 1422q-76.5 -6 -147.5 -19v-609h376q224 0 328 76
t104 238q0 115 -48.5 185t-153.5 102.5t-279 32.5q-103 0 -179.5 -6zM895.5 93.5q121.5 37.5 173.5 112.5t52 194q0 169 -111 248.5t-343 79.5h-396v-653q124 -19 295 -19q208 0 329.5 37.5z" />
    <glyph glyph-name="C" unicode="C" horiz-adv-x="1187" 
d="M128 738q0 393 174 576.5t492 183.5q94 0 177.5 -12.5t170.5 -37.5v-68q-171 52 -352 52q-289 0 -439.5 -162.5t-150.5 -527.5q0 -256 70.5 -409.5t198 -219t309.5 -65.5q95 0 179.5 14.5t184.5 49.5v-68q-171 -62 -365 -62q-649 0 -649 756z" />
    <glyph glyph-name="D" unicode="D" horiz-adv-x="1437" 
d="M385 -5q-78 5 -182 18v1445q183 36 370 36q364 0 550 -188.5t186 -565.5q0 -380 -189 -565t-565 -185q-92 0 -170 5zM1068.5 222q168.5 166 168.5 518t-166 520t-504 168q-130 0 -296 -25v-1328q128 -19 286 -19q343 0 511.5 166z" />
    <glyph glyph-name="E" unicode="E" horiz-adv-x="1200" 
d="M271 66h839v-66h-907v1480h897v-66h-829v-620h732v-66h-732v-662z" />
    <glyph glyph-name="F" unicode="F" horiz-adv-x="1156" 
d="M1090 1414h-819v-620h722v-66h-722v-728h-68v1480h887v-66z" />
    <glyph glyph-name="G" unicode="G" horiz-adv-x="1399" 
d="M1215 720v-701q-99 -17 -175.5 -23t-164.5 -6q-371 0 -559 185t-188 566q0 262 88.5 431t244.5 247.5t363 78.5q89 0 175 -12.5t182 -37.5v-68q-102 29 -186.5 40.5t-169.5 11.5q-290 0 -457.5 -164.5t-167.5 -523.5q0 -354 168 -521t507 -167q159 0 272 22v642h68z" />
    <glyph glyph-name="H" unicode="H" horiz-adv-x="1487" 
d="M203 0v1480h68v-686h945v686h68v-1480h-68v728h-945v-728h-68z" />
    <glyph glyph-name="I" unicode="I" horiz-adv-x="474" 
d="M203 0v1480h68v-1480h-68z" />
    <glyph glyph-name="J" unicode="J" horiz-adv-x="474" 
d="M2 -305q105 136 153 276t48 315v1194h68v-1228q-9 -176 -59 -312.5t-162 -279.5z" />
    <glyph glyph-name="K" unicode="K" horiz-adv-x="1255" 
d="M1164 0l-608 728h-285v-728h-68v1480h68v-686h290l563 686h85l-593 -718l635 -762h-87z" />
    <glyph glyph-name="L" unicode="L" horiz-adv-x="1096" 
d="M203 0v1480h68v-1414h807v-66h-875z" />
    <glyph glyph-name="M" unicode="M" horiz-adv-x="1780" 
d="M1499 1480h74v-1480h-66v1350l-579 -1150h-76l-579 1146v-1346h-66v1480h75l610 -1216z" />
    <glyph glyph-name="N" unicode="N" horiz-adv-x="1517" 
d="M1248 1480h66v-1480h-75l-970 1377v-1377h-66v1480h75l970 -1377v1377z" />
    <glyph glyph-name="O" unicode="O" horiz-adv-x="1470" 
d="M289.5 167q-161.5 185 -161.5 573q0 262 76 431t211.5 248t319.5 79q284 0 445.5 -184.5t161.5 -573.5q0 -261 -76 -430t-211.5 -248.5t-319.5 -79.5q-284 0 -445.5 185zM1129 213q141 163 141 523q0 695 -535 695q-252 0 -393.5 -163.5t-141.5 -523.5q0 -694 535 -694
q253 0 394 163z" />
    <glyph glyph-name="P" unicode="P" horiz-adv-x="1249" 
d="M203 1458q98 19 184.5 27.5t182.5 8.5q285 0 431 -118.5t146 -366.5q0 -242 -152 -366.5t-476 -124.5q-118 0 -248 13v-531h-68v1458zM839.5 631q122.5 47 179 140t56.5 235q0 218 -125 320t-380 102q-158 0 -299 -25v-803q116 -16 250 -16q196 0 318.5 47z" />
    <glyph glyph-name="Q" unicode="Q" horiz-adv-x="1470" 
d="M1190.5 177q-151.5 -191 -440.5 -191l-33 1q118 -39 274.5 -64t321.5 -37l-9 -66q-458 42 -711 142.5t-359 284.5t-106 493q0 262 76 431t211.5 248t319.5 79q283 0 445 -182.5t162 -575.5q0 -372 -151.5 -563zM735 50q253 0 394 163t141 523q0 695 -535 695
q-252 0 -393.5 -163.5t-141.5 -523.5q0 -694 535 -694z" />
    <glyph glyph-name="R" unicode="R" horiz-adv-x="1338" 
d="M1171 0l-531 654q-51 -3 -106 -3q-72 0 -129 3t-134 9v-663h-68v1458q93 17 181 26.5t200 9.5q195 0 320 -43.5t186 -135.5t61 -238q1 -180 -107 -283.5t-328 -131.5l540 -662h-85zM406 718.5q51 -2.5 128 -2.5q194 0 315 39.5t177.5 118.5t56.5 200q0 130 -51.5 207.5
t-161 112t-289.5 34.5q-95 0 -164 -6.5t-146 -20.5v-673q84 -7 135 -9.5z" />
    <glyph glyph-name="S" unicode="S" horiz-adv-x="1082" 
d="M292 -2.5q-95 15.5 -181 45.5v68q188 -63 367 -63q218 0 328.5 84t110.5 248q0 92 -37 152.5t-116 100.5t-211 70l-67 15q-201 45 -296.5 139.5t-95.5 250.5q0 121 56.5 208.5t168 134.5t274.5 47q87 0 173.5 -12.5t162.5 -36.5v-68q-168 51 -340 51q-210 0 -316.5 -82
t-106.5 -238q0 -91 33.5 -152t107 -102t199.5 -70l67 -15q147 -33 238 -84.5t134.5 -126.5t43.5 -180q0 -193 -133.5 -296.5t-380.5 -103.5q-88 0 -183 15.5z" />
    <glyph glyph-name="T" unicode="T" horiz-adv-x="1178" 
d="M555 0v1414h-538v66h1144v-66h-538v-1414h-68z" />
    <glyph glyph-name="U" unicode="U" horiz-adv-x="1459" 
d="M429 41.5q-118 59.5 -176 184t-58 322.5v932h68v-942q0 -171 49.5 -279t152.5 -159.5t266 -51.5q162 0 265 51.5t152.5 159.5t49.5 279v942h66v-932q0 -198 -57.5 -322.5t-174.5 -184t-301 -59.5t-302 59.5z" />
    <glyph glyph-name="V" unicode="V" horiz-adv-x="1320" 
d="M1228 1480h72l-593 -1480h-94l-592 1480h75l567 -1420z" />
    <glyph glyph-name="W" unicode="W" horiz-adv-x="2146" 
d="M1999 1480h70l-459 -1480h-94l-443 1403l-443 -1403h-94l-460 1480h73l435 -1414l442 1414h94l444 -1414z" />
    <glyph glyph-name="X" unicode="X" horiz-adv-x="1295" 
d="M689 748l568 -748h-88l-523 690l-523 -690h-86l568 747l-558 733h87l514 -676l515 676h84z" />
    <glyph glyph-name="Y" unicode="Y" horiz-adv-x="1178" 
d="M1188 1480l-565 -801v-679h-68v679l-573 801h86l522 -736l516 736h82z" />
    <glyph glyph-name="Z" unicode="Z" horiz-adv-x="1180" 
d="M163 64h950v-64h-1046v40l936 1376h-923v64h1020v-40z" />
    <glyph glyph-name="bracketleft" unicode="[" horiz-adv-x="666" 
d="M223 -440v2056h483v-64h-415v-1928h415v-64h-483z" />
    <glyph glyph-name="backslash" unicode="\" horiz-adv-x="573" 
d="M501 -240l-501 1856h72l501 -1856h-72z" />
    <glyph glyph-name="bracketright" unicode="]" horiz-adv-x="666" 
d="M-40 -440v64h415v1928h-415v64h483v-2056h-483z" />
    <glyph glyph-name="asciicircum" unicode="^" 
d="M1036 740h-80l-381 688l-380 -688h-81l413 740h94z" />
    <glyph glyph-name="underscore" unicode="_" horiz-adv-x="1147" 
d="M98 -64v64h952v-64h-952z" />
    <glyph glyph-name="grave" unicode="`" horiz-adv-x="1100" 
d="M516 1264l-251 352h81l238 -352h-68z" />
    <glyph glyph-name="a" unicode="a" horiz-adv-x="1043" 
d="M702.5 1063q84.5 -33 129 -111t44.5 -210v-742h-60l-6 131h-8q-59 -67 -153 -107t-199 -40q-154 0 -241.5 75t-87.5 209q0 135 89.5 208.5t285.5 96.5l312 38v130q0 112 -36 175.5t-104.5 88.5t-175.5 25q-72 0 -152.5 -12.5t-158.5 -40.5v68q65 25 147.5 38t162.5 13
q127 0 211.5 -33zM644.5 92q92.5 42 163.5 127v326l-314 -38q-159 -18 -229 -74.5t-70 -159.5q0 -108 64 -165.5t193 -57.5q100 0 192.5 42z" />
    <glyph glyph-name="b" unicode="b" 
d="M183 27v1589h68v-657h6q60 64 146.5 100.5t191.5 36.5q198 0 317.5 -128t119.5 -408q0 -291 -136 -434.5t-401 -143.5q-163 0 -312 45zM845 170.5q115 122.5 115 381.5q0 257 -99 367.5t-270 110.5q-101 0 -190 -40.5t-150 -122.5v-785q52 -15 116.5 -24.5t133.5 -9.5
q229 0 344 122.5z" />
    <glyph glyph-name="c" unicode="c" horiz-adv-x="888" 
d="M234.5 117.5q-116.5 135.5 -116.5 422.5t126 421.5t374 134.5q127 0 229 -32v-68q-116 34 -228 34q-145 0 -239.5 -48.5t-142 -155.5t-47.5 -282q0 -262 97.5 -379t292.5 -117q121 0 267 53v-68q-134 -51 -274 -51q-222 0 -338.5 135.5z" />
    <glyph glyph-name="d" unicode="d" 
d="M238 112.5q-120 130.5 -120 405.5q0 292 138 435t411 143q111 0 232 -22v542h68v-1616h-60l-6 126h-8q-58 -67 -144 -105.5t-187 -38.5q-204 0 -324 130.5zM751 90.5q87 42.5 148 131.5v781q-48 13 -110.5 20t-125.5 7q-239 0 -356 -122t-117 -382q0 -255 98 -366.5
t277 -111.5q99 0 186 42.5z" />
    <glyph glyph-name="e" unicode="e" horiz-adv-x="1052" 
d="M954 510h-764q6 -242 114 -352t310 -110q125 0 289 53v-68q-152 -51 -293 -51q-492 0 -492 558q0 279 112.5 417.5t311.5 138.5t305.5 -137.5t106.5 -418.5v-30zM285.5 921q-90.5 -109 -95.5 -345h693q-5 236 -91 345t-250 109q-166 0 -256.5 -109z" />
    <glyph glyph-name="f" unicode="f" horiz-adv-x="720" 
d="M445.5 1540.5q-64.5 -29.5 -96.5 -95.5t-32 -176v-189h406v-64h-406v-1016h-68v1016h-230v64h230v184q0 188 91 280t275 92q72 0 150 -13v-68q-76 15 -154 15q-101 0 -165.5 -29.5z" />
    <glyph glyph-name="g" unicode="g" 
d="M342 -445.5q-87 14.5 -156 39.5v68q167 -56 319 -56q137 0 223 38.5t128.5 126t42.5 234.5v115h-6q-61 -64 -147 -101t-191 -37q-198 0 -317.5 128t-119.5 408q0 578 537 578q160 0 312 -45v-1040q0 -249 -114.5 -360t-349.5 -111q-74 0 -161 14.5zM748 89q90 41 151 123
v788q-113 30 -250 30q-229 0 -344 -122.5t-115 -381.5q0 -478 369 -478q99 0 189 41z" />
    <glyph glyph-name="h" unicode="h" horiz-adv-x="1166" 
d="M183 1616h68v-664h6q76 71 174 107.5t208 36.5q170 0 265 -88.5t95 -283.5v-724h-68v723q0 164 -76.5 234.5t-218.5 70.5q-106 0 -208.5 -43t-176.5 -132v-853h-68v1616z" />
    <glyph glyph-name="i" unicode="i" horiz-adv-x="434" 
d="M183 0v1080h68v-1080h-68zM172.5 1377q-17.5 17 -17.5 45t17.5 46t44.5 18t44.5 -18t17.5 -46t-17.5 -45t-44.5 -17t-44.5 17z" />
    <glyph glyph-name="j" unicode="j" horiz-adv-x="434" 
d="M-19 -425q106 136 154 276t48 315v914h68v-908q0 -189 -52.5 -336.5t-168.5 -295.5zM172.5 1386q-17.5 17 -17.5 45t17.5 46t44.5 18t44.5 -18t17.5 -46t-17.5 -45t-44.5 -17t-44.5 17z" />
    <glyph glyph-name="k" unicode="k" horiz-adv-x="1020" 
d="M945 0l-462 520h-232v-520h-68v1616h68v-1032h232l430 496h85l-456 -527l488 -553h-85z" />
    <glyph glyph-name="l" unicode="l" horiz-adv-x="434" 
d="M183 0v1616h68v-1616h-68z" />
    <glyph glyph-name="m" unicode="m" horiz-adv-x="1723" 
d="M1470 1007q86 -89 86 -283v-724h-68v722q0 164 -68 236t-191 72q-88 0 -178.5 -42t-155.5 -135q12 -57 12 -129v-724h-68v722q0 164 -66 236t-187 72q-92 0 -181 -44.5t-154 -136.5v-849h-68v1080h60l6 -132h8q67 73 153.5 110.5t181.5 37.5q208 0 280 -166
q78 88 172 127t188 39q152 0 238 -89z" />
    <glyph glyph-name="n" unicode="n" horiz-adv-x="1166" 
d="M183 1080h60l6 -131h8q77 71 175 109t205 38q362 0 362 -377v-719h-68v720q0 165 -76 237.5t-219 72.5q-103 0 -206.5 -42t-178.5 -133v-855h-68v1080z" />
    <glyph glyph-name="o" unicode="o" horiz-adv-x="1131" 
d="M236.5 118q-118.5 136 -118.5 422q0 283 119.5 419.5t328.5 136.5q211 0 329 -134.5t118 -421.5q0 -283 -119 -420.5t-328 -137.5q-211 0 -329.5 136zM843.5 163.5q97.5 115.5 97.5 374.5q0 261 -97 376.5t-278 115.5t-278.5 -114.5t-97.5 -372.5q0 -262 97.5 -378.5
t278.5 -116.5q180 0 277.5 115.5z" />
    <glyph glyph-name="p" unicode="p" 
d="M183 1080h60l8 -127h6q58 67 144 105t187 38q202 0 323 -128t121 -408q0 -292 -137.5 -435t-411.5 -143q-106 0 -232 21v-443h-68v1520zM843 170q117 122 117 382q0 258 -99.5 368t-275.5 110q-99 0 -186 -42t-148 -131v-781q49 -13 111.5 -20.5t124.5 -7.5
q239 0 356 122z" />
    <glyph glyph-name="q" unicode="q" 
d="M899 120h-6q-61 -64 -147 -101t-191 -37q-198 0 -317.5 128t-119.5 408q0 578 537 578q160 0 312 -45v-1491h-68v560zM748 89q90 41 151 123v788q-113 30 -250 30q-229 0 -344 -122.5t-115 -381.5q0 -478 369 -478q99 0 189 41z" />
    <glyph glyph-name="r" unicode="r" horiz-adv-x="727" 
d="M183 1080h60l6 -147h8q64 72 161 113.5t195 41.5q54 0 99 -8v-68q-38 6 -99 6q-95 0 -196 -45.5t-166 -132.5v-840h-68v1080z" />
    <glyph glyph-name="s" unicode="s" horiz-adv-x="922" 
d="M273.5 -8q-71.5 10 -140.5 33v68q84 -25 153.5 -35t146.5 -10q170 0 250 58t80 168q0 62 -21 103.5t-69 68.5t-130 43l-147 29q-147 31 -212.5 101t-65.5 183q0 86 43 152t133.5 104t225.5 38q131 0 255 -34v-68q-71 20 -129.5 28t-125.5 8q-172 0 -251 -61t-79 -165
q0 -84 47 -137t163 -77l148 -29q153 -31 219.5 -98.5t66.5 -181.5q0 -141 -102 -220t-304 -79q-83 0 -154.5 10z" />
    <glyph glyph-name="t" unicode="t" horiz-adv-x="745" 
d="M738 69v-68q-43 -11 -79.5 -15t-79.5 -4q-163 0 -250.5 84.5t-87.5 259.5v690h-230v64h230l8 400h60v-400h406v-64h-406v-678q0 -153 69 -221.5t205 -68.5q68 0 155 21z" />
    <glyph glyph-name="u" unicode="u" horiz-adv-x="1156" 
d="M261 71q-94 89 -94 284v725h68v-725q0 -163 76 -235t213 -72q103 0 205 44t176 133v855h68v-1080h-60l-6 126h-8q-76 -70 -173.5 -107t-203.5 -37q-167 0 -261 89z" />
    <glyph glyph-name="v" unicode="v" horiz-adv-x="1064" 
d="M961 1080h71l-454 -1080h-92l-454 1080h76l426 -1024z" />
    <glyph glyph-name="w" unicode="w" horiz-adv-x="1714" 
d="M1564 1080h71l-350 -1080h-94l-333 1007l-333 -1007h-94l-352 1080h74l326 -1015l332 1015h94l334 -1015z" />
    <glyph glyph-name="x" unicode="x" horiz-adv-x="1019" 
d="M554 546l433 -546h-89l-389 492l-385 -492h-88l431 544l-423 536h89l378 -481l380 481h85z" />
    <glyph glyph-name="y" unicode="y" horiz-adv-x="1064" 
d="M961 1080h71l-638 -1520h-72l185 440h-21l-454 1080h76l425 -1025z" />
    <glyph glyph-name="z" unicode="z" horiz-adv-x="927" 
d="M161 64h705v-64h-801v40l691 976h-678v64h775v-40z" />
    <glyph glyph-name="braceleft" unicode="{" horiz-adv-x="706" 
d="M300.5 702q-30.5 -57 -95.5 -80q65 -23 95.5 -80t30.5 -158v-504q0 -145 71.5 -209.5t219.5 -64.5h124v-56q-50 -10 -120 -10q-181 0 -272 86t-91 261v512q0 101 -46 146t-143 45h-20v64h20q97 0 143 45t46 146v444q0 175 91 261t272 86q70 0 120 -10v-56h-124
q-148 0 -219.5 -64.5t-71.5 -209.5v-436q0 -101 -30.5 -158z" />
    <glyph glyph-name="bar" unicode="|" horiz-adv-x="474" 
d="M203 -440v2056h68v-2056h-68z" />
    <glyph glyph-name="braceright" unicode="}" horiz-adv-x="706" 
d="M653 654v-64h-21q-97 0 -143 -45t-46 -146v-512q0 -175 -91 -261t-272 -86q-70 0 -120 10v56h124q149 0 220 64.5t71 209.5v504q0 101 30.5 158t95.5 80q-65 23 -95.5 80t-30.5 158v436q0 145 -71 209.5t-220 64.5h-124v56q50 10 120 10q181 0 272 -86t91 -261v-444
q0 -101 46 -146t143 -45h21z" />
    <glyph glyph-name="asciitilde" unicode="~" horiz-adv-x="1085" 
d="M626.5 680q-42.5 16 -102.5 47q-54 28 -86 40.5t-65 12.5q-113 0 -194 -108v82q33 43 83 66.5t109 23.5q46 0 88.5 -16t102.5 -47q54 -28 86 -40.5t65 -12.5q113 0 194 108v-82q-33 -43 -83 -66.5t-109 -23.5q-46 0 -88.5 16z" />
    <glyph glyph-name="uni00A0" unicode="&#xa0;" horiz-adv-x="515" 
 />
    <glyph glyph-name="exclamdown" unicode="&#xa1;" horiz-adv-x="469" 
d="M279.5 1073q17.5 -17 17.5 -45t-17.5 -46t-44.5 -18t-44.5 18t-17.5 46t17.5 45t44.5 17t44.5 -17zM211 764h48l12 -574v-570h-72v570z" />
    <glyph glyph-name="cent" unicode="&#xa2;" horiz-adv-x="899" 
d="M376.5 981.5q-93.5 -48.5 -140 -155.5t-46.5 -282q0 -262 97.5 -379t292.5 -117q121 0 267 53v-68q-119 -45 -242 -50v-223h-64v223q-207 9 -315 145t-108 412q0 264 106 398.5t317 154.5v227h64v-224h13q118 0 229 -32v-68q-121 34 -231 34q-146 0 -239.5 -48.5z" />
    <glyph glyph-name="sterling" unicode="&#xa3;" horiz-adv-x="1309" 
d="M1214 64v-64h-1134v64h247v654h-247v64h247v269q0 228 128.5 337.5t380.5 109.5q87 0 174 -12.5t162 -36.5v-68q-166 51 -340 51q-219 0 -328 -88.5t-109 -292.5v-269h592v-64h-592v-654h819z" />
    <glyph glyph-name="currency" unicode="&#xa4;" 
d="M920 447l100 -96l-56 -56l-96 100l-74 97q-42 -40 -97.5 -61t-121.5 -21q-67 0 -122.5 21t-96.5 61l-74 -97l-96 -100l-56 56l100 96l100 75q-67 87 -67 218q0 130 67 217l-100 76l-102 96l56 56l96 -100l76 -99q41 40 96.5 61.5t122.5 21.5q66 0 121.5 -21.5t97.5 -61.5
l76 99l96 100l56 -56l-102 -96l-100 -77q68 -85 68 -216q0 -129 -68 -218zM706.5 503.5q56.5 31.5 88 92t31.5 144.5q0 79 -29 140t-85 95t-135 34q-75 0 -132 -32t-88.5 -93t-31.5 -144t31 -143.5t87.5 -92.5t131.5 -32t131.5 31.5z" />
    <glyph glyph-name="yen" unicode="&#xa5;" horiz-adv-x="1228" 
d="M1217 1480l-534 -752h295v-64h-330v-280h330v-64h-330v-320h-68v320h-330v64h330v280h-330v64h295l-533 752h85l519 -736l519 736h82z" />
    <glyph glyph-name="brokenbar" unicode="&#xa6;" horiz-adv-x="474" 
d="M203 836v780h68v-780h-68zM203 -440v780h68v-780h-68z" />
    <glyph glyph-name="section" unicode="&#xa7;" horiz-adv-x="1032" 
d="M864 281q0 -141 -102 -220t-304 -79q-83 0 -154.5 10t-140.5 33v68q84 -25 153.5 -35t146.5 -10q170 0 250 58t80 168q0 62 -21 103.5t-69 68.5t-130 43l-147 29q-147 30 -212.5 100t-65.5 184q0 61 25 114t72 92q-77 70 -77 194q0 86 43 152t133.5 104t225.5 38
q131 0 255 -34v-68q-71 20 -129.5 28t-125.5 8q-172 0 -251 -61t-79 -165q0 -84 47 -137t163 -77l148 -29q153 -31 219.5 -98.5t66.5 -181.5q0 -64 -24.5 -117t-71.5 -93q76 -67 76 -190zM578 559q95 -19 156 -52q83 58 83 167q0 92 -51.5 142.5t-172.5 74.5l-147 29
q-85 17 -146 50q-84 -62 -84 -166q0 -84 49 -138t165 -78z" />
    <glyph glyph-name="dieresis" unicode="&#xa8;" horiz-adv-x="1100" 
d="M285.5 1377q-17.5 17 -17.5 45t17.5 46t44.5 18t44.5 -18t17.5 -46t-17.5 -45t-44.5 -17t-44.5 17zM725.5 1377q-17.5 17 -17.5 45t17.5 46t44.5 18t44.5 -18t17.5 -46t-17.5 -45t-44.5 -17t-44.5 17z" />
    <glyph glyph-name="copyright" unicode="&#xa9;" horiz-adv-x="1744" 
d="M482.5 73q-168.5 95 -261.5 267.5t-93 399.5t93 399.5t261.5 267.5t389.5 95t389.5 -95t261.5 -267.5t93 -399.5t-93 -399.5t-261.5 -267.5t-389.5 -95t-389.5 95zM1226.5 132.5q153.5 86.5 237.5 243.5t84 364t-84 364t-237.5 243.5t-354.5 86.5t-354.5 -86.5
t-237.5 -243.5t-84 -364t84 -364t237.5 -243.5t354.5 -86.5t354.5 86.5zM703.5 370.5q-86.5 46.5 -134 138.5t-47.5 225q0 197 106 303.5t304 106.5q102 0 192 -28v-66q-96 28 -190 28q-166 0 -253 -84.5t-87 -255.5q0 -174 83.5 -261t234.5 -87q104 0 212 42v-66
q-95 -42 -218 -42q-116 0 -202.5 46.5z" />
    <glyph glyph-name="ordfeminine" unicode="&#xaa;" horiz-adv-x="884" 
d="M594.5 1464.5q72.5 -27.5 110.5 -91.5t38 -173v-590h-56l-6 104h-6q-52 -54 -131.5 -86t-167.5 -32q-130 0 -204.5 62t-74.5 170q0 109 76 169t242 78l264 29v97q0 88 -30.5 138.5t-89.5 70.5t-150 20q-130 0 -259 -44v64q56 21 125 31.5t137 10.5q110 0 182.5 -27.5z
M542 691q77 33 137 98v257l-263 -29q-133 -15 -192 -59.5t-59 -124.5q0 -85 54 -130t163 -45q83 0 160 33z" />
    <glyph glyph-name="guillemotleft" unicode="&#xab;" horiz-adv-x="969" 
d="M427 140l-290 420l290 420h77l-290 -420l290 -420h-77zM795 140l-290 420l290 420h77l-290 -420l290 -420h-77z" />
    <glyph glyph-name="logicalnot" unicode="&#xac;" horiz-adv-x="1381" 
d="M1146 192v536h-967v64h1035v-600h-68z" />
    <glyph glyph-name="uni00AD" unicode="&#xad;" horiz-adv-x="859" 
d="M179 528v64h502v-64h-502z" />
    <glyph glyph-name="registered" unicode="&#xae;" horiz-adv-x="1566" 
d="M1100.5 1420q138.5 -78 215.5 -218t77 -320t-77 -319.5t-215.5 -217t-317.5 -77.5t-317.5 77.5t-215.5 217t-77 319.5t77 320t215.5 218t317.5 78t317.5 -78zM1068 401.5q123 67.5 190 192t67 288.5t-67 289t-190 193t-285 68t-285 -68t-190 -193t-67 -289t67 -288.5
t190 -192t285 -67.5t285 67.5zM978.5 899q-34.5 -43 -102.5 -61l161 -238h-76l-155 227q-12 -1 -37 -1h-128v-226h-66v592h194q119 0 181.5 -48t62.5 -136q0 -66 -34.5 -109zM781 888q85 0 125.5 29t40.5 91t-41 92t-125 30h-140v-242h140z" />
    <glyph glyph-name="macron" unicode="&#xaf;" horiz-adv-x="1100" 
d="M251 1394v60h599v-60h-599z" />
    <glyph glyph-name="degree" unicode="&#xb0;" horiz-adv-x="1020" 
d="M336 865.5q-77 43.5 -120 120.5t-43 173t43 173t120 120.5t174 43.5t174 -43.5t120 -120.5t43 -173t-43 -173t-120 -120.5t-174 -43.5t-174 43.5zM650.5 919.5q61.5 33.5 96 95.5t34.5 144t-34.5 144t-96 95.5t-140.5 33.5t-140 -33.5t-95.5 -95.5t-34.5 -144t34.5 -144
t95.5 -95.5t140 -33.5t140.5 33.5z" />
    <glyph glyph-name="plusminus" unicode="&#xb1;" horiz-adv-x="1085" 
d="M509 316v350h-330v64h330v350h68v-350h330v-64h-330v-350h-68zM179 0v64h728v-64h-728z" />
    <glyph glyph-name="uni00B2" unicode="&#xb2;" horiz-adv-x="784" 
d="M702 -74v-62h-607v38l319 389q89 105 126 177t37 141q0 106 -63 155.5t-187 49.5q-134 0 -244 -41v64q98 39 246 39q153 0 233.5 -64.5t80.5 -197.5q-1 -84 -40.5 -163t-139.5 -197l-273 -328h512z" />
    <glyph glyph-name="uni00B3" unicode="&#xb3;" horiz-adv-x="784" 
d="M643.5 299.5q59.5 -64.5 59.5 -164.5q0 -136 -94.5 -209.5t-280.5 -73.5q-66 0 -132.5 10t-124.5 30v64q126 -44 258 -44q155 0 232.5 58t77.5 168q0 101 -71.5 155.5t-213.5 54.5h-131v61h55q159 0 242.5 54t83.5 161q0 92 -67 142t-193 50q-129 0 -241 -40v64
q52 18 115 27t129 9q153 0 237 -65.5t84 -183.5q0 -87 -52 -149t-144 -91q112 -23 171.5 -87.5z" />
    <glyph glyph-name="acute" unicode="&#xb4;" horiz-adv-x="1100" 
d="M516 1264l238 352h81l-251 -352h-68z" />
    <glyph glyph-name="uni00B5" unicode="&#xb5;" horiz-adv-x="1156" 
d="M973 1080v-1080h-60l-6 126h-8q-76 -70 -173.5 -107t-203.5 -37q-103 0 -175 33.5t-112 106.5v-562h-68v1520h68v-725q0 -163 76 -235t213 -72q103 0 205 44t176 133v855h68z" />
    <glyph glyph-name="paragraph" unicode="&#xb6;" horiz-adv-x="1249" 
d="M780 530q-90 -12 -182 -12q-256 0 -375.5 124.5t-119.5 366.5q0 248 115 366.5t339 118.5q142 0 291 -14v-1480h-68v530zM978 0v1480h68v-1480h-68z" />
    <glyph glyph-name="periodcentered" unicode="&#xb7;" horiz-adv-x="429" 
d="M170.5 513q-17.5 17 -17.5 45t17.5 46t44.5 18t44.5 -18t17.5 -46t-17.5 -45t-44.5 -17t-44.5 17z" />
    <glyph glyph-name="cedilla" unicode="&#xb8;" horiz-adv-x="1100" 
d="M699 -155q42 -37 42 -102q0 -68 -48 -105.5t-133 -37.5q-46 0 -93.5 10t-79.5 28v56q84 -42 174 -42q63 0 93.5 22.5t30.5 68.5q0 48 -31 70.5t-95 22.5h-35v184h56v-133q77 -5 119 -42z" />
    <glyph glyph-name="uni00B9" unicode="&#xb9;" horiz-adv-x="784" 
d="M468 -74h244v-62h-565v62h257v854l-260 -190v73l281 205h43v-942z" />
    <glyph glyph-name="ordmasculine" unicode="&#xba;" horiz-adv-x="974" 
d="M207 707.5q-103 111.5 -103 338.5q0 226 103 336t280 110q178 0 280.5 -110t102.5 -336q0 -227 -103 -338.5t-280 -111.5t-280 111.5zM720 751.5q82 91.5 82 294.5t-82 293t-233 90t-233 -90.5t-82 -292.5q0 -386 315 -386q151 0 233 91.5z" />
    <glyph glyph-name="guillemotright" unicode="&#xbb;" horiz-adv-x="969" 
d="M97 140l290 420l-290 420h77l290 -420l-290 -420h-77zM465 140l290 420l-290 420h77l290 -420l-290 -420h-77z" />
    <glyph glyph-name="onequarter" unicode="&#xbc;" horiz-adv-x="1811" 
d="M468 678h244v-62h-565v62h257v854l-260 -190v73l281 205h43v-942zM461 -136l822 1752h66l-822 -1752h-66zM1785 176v-60h-153v-252h-62v252h-510v40l410 708h68l-398 -688h430l12 350h50v-350h153z" />
    <glyph glyph-name="onehalf" unicode="&#xbd;" horiz-adv-x="1811" 
d="M468 678h244v-62h-565v62h257v854l-260 -190v73l281 205h43v-942zM461 -136l822 1752h66l-822 -1752h-66zM1729 -74v-62h-607v38l319 389q89 105 126 177t37 141q0 106 -63 155.5t-187 49.5q-134 0 -244 -41v64q98 39 246 39q153 0 233.5 -64.5t80.5 -197.5
q-1 -84 -40.5 -163t-139.5 -197l-273 -328h512z" />
    <glyph glyph-name="threequarters" unicode="&#xbe;" horiz-adv-x="1811" 
d="M643.5 1051.5q59.5 -64.5 59.5 -164.5q0 -136 -94.5 -209.5t-280.5 -73.5q-65 0 -132 10.5t-125 30.5v64q122 -44 258 -44q155 0 232.5 57.5t77.5 167.5q0 101 -71.5 155.5t-213.5 54.5h-131v61h55q159 0 242.5 54t83.5 161q0 92 -67 142t-193 50q-129 0 -241 -40v64
q52 18 115 27t129 9q153 0 237 -65.5t84 -183.5q0 -87 -52 -149t-144 -91q112 -23 171.5 -87.5zM461 -136l822 1752h66l-822 -1752h-66zM1785 176v-60h-153v-252h-62v252h-510v40l410 708h68l-398 -688h430l12 350h50v-350h153z" />
    <glyph glyph-name="questiondown" unicode="&#xbf;" horiz-adv-x="900" 
d="M533.5 1072.5q17.5 -17.5 17.5 -44.5q0 -28 -17.5 -46t-44.5 -18t-44.5 18t-17.5 46q0 27 17 44.5t45 17.5q27 0 44.5 -17.5zM525 353q-146 -50 -230.5 -106t-121.5 -126t-37 -166q0 -137 98 -213t278 -76t342 56v-68q-156 -54 -344 -54q-140 0 -239.5 42.5t-152 122.5
t-52.5 189q0 107 36.5 185t121 141.5t231.5 119.5l10 380h48z" />
    <glyph glyph-name="Agrave" unicode="&#xc0;" horiz-adv-x="1364" 
d="M1246 0l-212 528h-706l-212 -528h-73l596 1480h86l597 -1480h-76zM354 594h654l-327 816zM649 1616l-213 272h83l198 -272h-68z" />
    <glyph glyph-name="Aacute" unicode="&#xc1;" horiz-adv-x="1364" 
d="M1246 0l-212 528h-706l-212 -528h-73l596 1480h86l597 -1480h-76zM354 594h654l-327 816zM649 1616l199 272h82l-213 -272h-68z" />
    <glyph glyph-name="Acircumflex" unicode="&#xc2;" horiz-adv-x="1364" 
d="M1246 0l-212 528h-706l-212 -528h-73l596 1480h86l597 -1480h-76zM354 594h654l-327 816zM983 1616h-86l-213 227l-214 -227h-87l262 272h76z" />
    <glyph glyph-name="Atilde" unicode="&#xc3;" horiz-adv-x="1364" 
d="M1246 0l-212 528h-706l-212 -528h-73l596 1480h86l597 -1480h-76zM354 594h654l-327 816zM758 1708q-36 10 -90 30q-47 18 -76.5 26.5t-60.5 8.5q-52 0 -91.5 -17t-73.5 -54v68q57 60 165 60q41 0 77 -10t90 -30q47 -18 76.5 -26.5t60.5 -8.5q52 0 91.5 17t74.5 54v-68
q-58 -60 -166 -60q-41 0 -77 10z" />
    <glyph glyph-name="Adieresis" unicode="&#xc4;" horiz-adv-x="1364" 
d="M1246 0l-212 528h-706l-212 -528h-73l596 1480h86l597 -1480h-76zM354 594h654l-327 816zM398.5 1707q-17.5 17 -17.5 45t17.5 46t44.5 18t44.5 -18t17.5 -46t-17.5 -45t-44.5 -17t-44.5 17zM878.5 1707q-17.5 17 -17.5 45t17.5 46t44.5 18t44.5 -18t17.5 -46t-17.5 -45
t-44.5 -17t-44.5 17z" />
    <glyph glyph-name="Aring" unicode="&#xc5;" horiz-adv-x="1364" 
d="M1034 528h-706l-212 -528h-73l581 1442q-55 18 -88.5 65t-33.5 109q0 52 24 94t66 66t94 24t94 -24t66 -66t24 -94q0 -65 -35.5 -112t-93.5 -64l581 -1440h-76zM592 1519.5q36 -35.5 94 -35.5t94 35.5t36 96.5t-36 96.5t-94 35.5t-94 -35.5t-36 -96.5t36 -96.5zM354 594
h654l-327 816z" />
    <glyph glyph-name="AE" unicode="&#xc6;" horiz-adv-x="1860" 
d="M1033 66h737v-66h-802l-39 528h-598l-215 -528h-73l607 1480h1110v-66h-829l47 -620h685v-66h-680zM358 594h566l-60 820h-171z" />
    <glyph glyph-name="Ccedilla" unicode="&#xc7;" horiz-adv-x="1187" 
d="M350.5 1269.5q-150.5 -162.5 -150.5 -527.5q0 -256 70.5 -409.5t198 -219t309.5 -65.5q95 0 179.5 14.5t184.5 49.5v-68q-171 -62 -365 -62h-14v-94q85 -2 134 -38.5t49 -105.5q0 -71 -53 -107.5t-146 -36.5q-49 0 -101 10t-93 29v56q55 -23 101 -33t93 -10q143 0 143 92
t-145 92h-38v148q-579 41 -579 754q0 393 174 576.5t492 183.5q94 0 177.5 -12.5t170.5 -37.5v-68q-171 52 -352 52q-289 0 -439.5 -162.5z" />
    <glyph glyph-name="Egrave" unicode="&#xc8;" horiz-adv-x="1200" 
d="M271 66h839v-66h-907v1480h897v-66h-829v-620h732v-66h-732v-662zM639 1616l-213 272h83l198 -272h-68z" />
    <glyph glyph-name="Eacute" unicode="&#xc9;" horiz-adv-x="1200" 
d="M271 66h839v-66h-907v1480h897v-66h-829v-620h732v-66h-732v-662zM639 1616l199 272h82l-213 -272h-68z" />
    <glyph glyph-name="Ecircumflex" unicode="&#xca;" horiz-adv-x="1200" 
d="M271 66h839v-66h-907v1480h897v-66h-829v-620h732v-66h-732v-662zM973 1616h-86l-213 227l-214 -227h-87l262 272h76z" />
    <glyph glyph-name="Edieresis" unicode="&#xcb;" horiz-adv-x="1200" 
d="M271 66h839v-66h-907v1480h897v-66h-829v-620h732v-66h-732v-662zM388.5 1707q-17.5 17 -17.5 45t17.5 46t44.5 18t44.5 -18t17.5 -46t-17.5 -45t-44.5 -17t-44.5 17zM868.5 1707q-17.5 17 -17.5 45t17.5 46t44.5 18t44.5 -18t17.5 -46t-17.5 -45t-44.5 -17t-44.5 17z
" />
    <glyph glyph-name="Igrave" unicode="&#xcc;" horiz-adv-x="474" 
d="M203 0v1480h68v-1480h-68zM203 1616l-213 272h83l198 -272h-68z" />
    <glyph glyph-name="Iacute" unicode="&#xcd;" horiz-adv-x="474" 
d="M203 0v1480h68v-1480h-68zM203 1616l199 272h82l-213 -272h-68z" />
    <glyph glyph-name="Icircumflex" unicode="&#xce;" horiz-adv-x="474" 
d="M203 0v1480h68v-1480h-68zM537 1616h-86l-213 227l-214 -227h-87l262 272h76z" />
    <glyph glyph-name="Idieresis" unicode="&#xcf;" horiz-adv-x="474" 
d="M203 0v1480h68v-1480h-68zM-47.5 1707q-17.5 17 -17.5 45t17.5 46t44.5 18t44.5 -18t17.5 -46t-17.5 -45t-44.5 -17t-44.5 17zM432.5 1707q-17.5 17 -17.5 45t17.5 46t44.5 18t44.5 -18t17.5 -46t-17.5 -45t-44.5 -17t-44.5 17z" />
    <glyph glyph-name="Eth" unicode="&#xd0;" horiz-adv-x="1437" 
d="M1123 1305.5q186 -188.5 186 -565.5q0 -380 -189 -565t-565 -185q-92 0 -170 5t-182 18v719h-198v60h198v666q183 36 370 36q364 0 550 -188.5zM1068.5 222q168.5 166 168.5 518t-166 520t-504 168q-130 0 -296 -25v-611h396v-60h-396v-657q128 -19 286 -19
q343 0 511.5 166z" />
    <glyph glyph-name="Ntilde" unicode="&#xd1;" horiz-adv-x="1517" 
d="M1248 1480h66v-1480h-75l-970 1377v-1377h-66v1480h75l970 -1377v1377zM834 1708q-36 10 -90 30q-47 18 -76.5 26.5t-60.5 8.5q-52 0 -91.5 -17t-73.5 -54v68q57 60 165 60q41 0 77 -10t90 -30q47 -18 76.5 -26.5t60.5 -8.5q52 0 91.5 17t74.5 54v-68q-58 -60 -166 -60
q-41 0 -77 10z" />
    <glyph glyph-name="Ograve" unicode="&#xd2;" horiz-adv-x="1470" 
d="M289.5 167q-161.5 185 -161.5 573q0 262 76 431t211.5 248t319.5 79q284 0 445.5 -184.5t161.5 -573.5q0 -261 -76 -430t-211.5 -248.5t-319.5 -79.5q-284 0 -445.5 185zM1129 213q141 163 141 523q0 695 -535 695q-252 0 -393.5 -163.5t-141.5 -523.5q0 -694 535 -694
q253 0 394 163zM701 1616l-213 272h83l198 -272h-68z" />
    <glyph glyph-name="Oacute" unicode="&#xd3;" horiz-adv-x="1470" 
d="M289.5 167q-161.5 185 -161.5 573q0 262 76 431t211.5 248t319.5 79q284 0 445.5 -184.5t161.5 -573.5q0 -261 -76 -430t-211.5 -248.5t-319.5 -79.5q-284 0 -445.5 185zM1129 213q141 163 141 523q0 695 -535 695q-252 0 -393.5 -163.5t-141.5 -523.5q0 -694 535 -694
q253 0 394 163zM701 1616l199 272h82l-213 -272h-68z" />
    <glyph glyph-name="Ocircumflex" unicode="&#xd4;" horiz-adv-x="1470" 
d="M289.5 167q-161.5 185 -161.5 573q0 262 76 431t211.5 248t319.5 79q284 0 445.5 -184.5t161.5 -573.5q0 -261 -76 -430t-211.5 -248.5t-319.5 -79.5q-284 0 -445.5 185zM1129 213q141 163 141 523q0 695 -535 695q-252 0 -393.5 -163.5t-141.5 -523.5q0 -694 535 -694
q253 0 394 163zM1035 1616h-86l-213 227l-214 -227h-87l262 272h76z" />
    <glyph glyph-name="Otilde" unicode="&#xd5;" horiz-adv-x="1470" 
d="M289.5 167q-161.5 185 -161.5 573q0 262 76 431t211.5 248t319.5 79q284 0 445.5 -184.5t161.5 -573.5q0 -261 -76 -430t-211.5 -248.5t-319.5 -79.5q-284 0 -445.5 185zM1129 213q141 163 141 523q0 695 -535 695q-252 0 -393.5 -163.5t-141.5 -523.5q0 -694 535 -694
q253 0 394 163zM810 1708q-36 10 -90 30q-47 18 -76.5 26.5t-60.5 8.5q-52 0 -91.5 -17t-73.5 -54v68q57 60 165 60q41 0 77 -10t90 -30q47 -18 76.5 -26.5t60.5 -8.5q52 0 91.5 17t74.5 54v-68q-58 -60 -166 -60q-41 0 -77 10z" />
    <glyph glyph-name="Odieresis" unicode="&#xd6;" horiz-adv-x="1470" 
d="M289.5 167q-161.5 185 -161.5 573q0 262 76 431t211.5 248t319.5 79q284 0 445.5 -184.5t161.5 -573.5q0 -261 -76 -430t-211.5 -248.5t-319.5 -79.5q-284 0 -445.5 185zM1129 213q141 163 141 523q0 695 -535 695q-252 0 -393.5 -163.5t-141.5 -523.5q0 -694 535 -694
q253 0 394 163zM450.5 1707q-17.5 17 -17.5 45t17.5 46t44.5 18t44.5 -18t17.5 -46t-17.5 -45t-44.5 -17t-44.5 17zM930.5 1707q-17.5 17 -17.5 45t17.5 46t44.5 18t44.5 -18t17.5 -46t-17.5 -45t-44.5 -17t-44.5 17z" />
    <glyph glyph-name="multiply" unicode="&#xd7;" horiz-adv-x="990" 
d="M187 408l-44 44l308 308l-308 308l44 44l308 -308l308 308l44 -44l-308 -308l308 -308l-44 -44l-308 308z" />
    <glyph glyph-name="Oslash" unicode="&#xd8;" horiz-adv-x="1470" 
d="M1342 740q0 -261 -76 -430t-211.5 -248.5t-319.5 -79.5q-272 0 -426 163l-126 -161l-49 38l135 172q-141 191 -141 546q0 262 76 431t211.5 248t319.5 79q272 0 426 -163l126 161l50 -38l-135 -172q140 -193 140 -546zM314 252l804 1027q-134 152 -383 152
q-252 0 -393.5 -163.5t-141.5 -523.5q0 -320 114 -492zM1129 213q141 163 141 523q0 319 -113 492l-804 -1027q133 -151 382 -151q253 0 394 163z" />
    <glyph glyph-name="Ugrave" unicode="&#xd9;" horiz-adv-x="1459" 
d="M429 41.5q-118 59.5 -176 184t-58 322.5v932h68v-942q0 -171 49.5 -279t152.5 -159.5t266 -51.5q162 0 265 51.5t152.5 159.5t49.5 279v942h66v-932q0 -198 -57.5 -322.5t-174.5 -184t-301 -59.5t-302 59.5zM697 1616l-213 272h83l198 -272h-68z" />
    <glyph glyph-name="Uacute" unicode="&#xda;" horiz-adv-x="1459" 
d="M429 41.5q-118 59.5 -176 184t-58 322.5v932h68v-942q0 -171 49.5 -279t152.5 -159.5t266 -51.5q162 0 265 51.5t152.5 159.5t49.5 279v942h66v-932q0 -198 -57.5 -322.5t-174.5 -184t-301 -59.5t-302 59.5zM697 1616l199 272h82l-213 -272h-68z" />
    <glyph glyph-name="Ucircumflex" unicode="&#xdb;" horiz-adv-x="1459" 
d="M429 41.5q-118 59.5 -176 184t-58 322.5v932h68v-942q0 -171 49.5 -279t152.5 -159.5t266 -51.5q162 0 265 51.5t152.5 159.5t49.5 279v942h66v-932q0 -198 -57.5 -322.5t-174.5 -184t-301 -59.5t-302 59.5zM1031 1616h-86l-213 227l-214 -227h-87l262 272h76z" />
    <glyph glyph-name="Udieresis" unicode="&#xdc;" horiz-adv-x="1459" 
d="M429 41.5q-118 59.5 -176 184t-58 322.5v932h68v-942q0 -171 49.5 -279t152.5 -159.5t266 -51.5q162 0 265 51.5t152.5 159.5t49.5 279v942h66v-932q0 -198 -57.5 -322.5t-174.5 -184t-301 -59.5t-302 59.5zM446.5 1707q-17.5 17 -17.5 45t17.5 46t44.5 18t44.5 -18
t17.5 -46t-17.5 -45t-44.5 -17t-44.5 17zM926.5 1707q-17.5 17 -17.5 45t17.5 46t44.5 18t44.5 -18t17.5 -46t-17.5 -45t-44.5 -17t-44.5 17z" />
    <glyph glyph-name="Yacute" unicode="&#xdd;" horiz-adv-x="1178" 
d="M1188 1480l-565 -801v-679h-68v679l-573 801h86l522 -736l516 736h82zM555 1616l199 272h82l-213 -272h-68z" />
    <glyph glyph-name="Thorn" unicode="&#xde;" horiz-adv-x="1259" 
d="M203 1482h68v-259q141 25 299 25q285 0 431 -118.5t146 -366.5q0 -242 -152 -366.5t-476 -124.5q-118 0 -248 13v-285h-68v1482zM839.5 385q122.5 47 179 140t56.5 235q0 218 -125 320t-380 102q-158 0 -299 -25v-803q116 -16 250 -16q196 0 318.5 47z" />
    <glyph glyph-name="germandbls" unicode="&#xdf;" horiz-adv-x="1368" 
d="M1214.5 462.5q65.5 -66.5 65.5 -181.5q0 -141 -102 -220t-303 -79q-83 0 -155 10t-141 32v68q83 -25 152.5 -34.5t147.5 -9.5q170 0 250 58t80 168q0 62 -21 103.5t-69 68.5t-130 43l-147 29q-147 30 -212.5 99.5t-65.5 181.5q0 88 43 154t133 103.5t226 37.5
q43 0 100 -5q12 60 12 119q0 192 -98.5 277t-268.5 85q-194 0 -294 -103t-100 -331v-1136h-68v1014h-230v66h230v62q0 249 119.5 371.5t343.5 122.5q127 0 223.5 -45t152 -140.5t55.5 -241.5q0 -44 -7 -99t-18 -94q-72 14 -152 14q-172 0 -251 -61t-79 -165q0 -84 48 -137
t162 -77l148 -29q155 -32 220.5 -98.5z" />
    <glyph glyph-name="agrave" unicode="&#xe0;" horiz-adv-x="1043" 
d="M702.5 1063q84.5 -33 129 -111t44.5 -210v-742h-60l-6 131h-8q-59 -67 -153 -107t-199 -40q-154 0 -241.5 75t-87.5 209q0 135 89.5 208.5t285.5 96.5l312 38v130q0 112 -36 175.5t-104.5 88.5t-175.5 25q-72 0 -152.5 -12.5t-158.5 -40.5v68q65 25 147.5 38t162.5 13
q127 0 211.5 -33zM644.5 92q92.5 42 163.5 127v326l-314 -38q-159 -18 -229 -74.5t-70 -159.5q0 -108 64 -165.5t193 -57.5q100 0 192.5 42zM484 1264l-251 352h81l238 -352h-68z" />
    <glyph glyph-name="aacute" unicode="&#xe1;" horiz-adv-x="1043" 
d="M702.5 1063q84.5 -33 129 -111t44.5 -210v-742h-60l-6 131h-8q-59 -67 -153 -107t-199 -40q-154 0 -241.5 75t-87.5 209q0 135 89.5 208.5t285.5 96.5l312 38v130q0 112 -36 175.5t-104.5 88.5t-175.5 25q-72 0 -152.5 -12.5t-158.5 -40.5v68q65 25 147.5 38t162.5 13
q127 0 211.5 -33zM644.5 92q92.5 42 163.5 127v326l-314 -38q-159 -18 -229 -74.5t-70 -159.5q0 -108 64 -165.5t193 -57.5q100 0 192.5 42zM484 1264l238 352h81l-251 -352h-68z" />
    <glyph glyph-name="acircumflex" unicode="&#xe2;" horiz-adv-x="1043" 
d="M702.5 1063q84.5 -33 129 -111t44.5 -210v-742h-60l-6 131h-8q-59 -67 -153 -107t-199 -40q-154 0 -241.5 75t-87.5 209q0 135 89.5 208.5t285.5 96.5l312 38v130q0 112 -36 175.5t-104.5 88.5t-175.5 25q-72 0 -152.5 -12.5t-158.5 -40.5v68q65 25 147.5 38t162.5 13
q127 0 211.5 -33zM644.5 92q92.5 42 163.5 127v326l-314 -38q-159 -18 -229 -74.5t-70 -159.5q0 -108 64 -165.5t193 -57.5q100 0 192.5 42zM795 1264h-74l-202 305l-203 -305h-75l239 352h76z" />
    <glyph glyph-name="atilde" unicode="&#xe3;" horiz-adv-x="1043" 
d="M702.5 1063q84.5 -33 129 -111t44.5 -210v-742h-60l-6 131h-8q-59 -67 -153 -107t-199 -40q-154 0 -241.5 75t-87.5 209q0 135 89.5 208.5t285.5 96.5l312 38v130q0 112 -36 175.5t-104.5 88.5t-175.5 25q-72 0 -152.5 -12.5t-158.5 -40.5v68q65 25 147.5 38t162.5 13
q127 0 211.5 -33zM644.5 92q92.5 42 163.5 127v326l-314 -38q-159 -18 -229 -74.5t-70 -159.5q0 -108 64 -165.5t193 -57.5q100 0 192.5 42zM586.5 1390.5q-35.5 10.5 -83.5 30.5q-46 18 -73 26t-54 8q-47 0 -85 -17t-72 -53v67q56 61 157 61q38 0 73.5 -10.5t83.5 -30.5
q46 -18 73 -26t54 -8q47 0 85 17t73 53v-67q-58 -61 -158 -61q-38 0 -73.5 10.5z" />
    <glyph glyph-name="adieresis" unicode="&#xe4;" horiz-adv-x="1043" 
d="M702.5 1063q84.5 -33 129 -111t44.5 -210v-742h-60l-6 131h-8q-59 -67 -153 -107t-199 -40q-154 0 -241.5 75t-87.5 209q0 135 89.5 208.5t285.5 96.5l312 38v130q0 112 -36 175.5t-104.5 88.5t-175.5 25q-72 0 -152.5 -12.5t-158.5 -40.5v68q65 25 147.5 38t162.5 13
q127 0 211.5 -33zM644.5 92q92.5 42 163.5 127v326l-314 -38q-159 -18 -229 -74.5t-70 -159.5q0 -108 64 -165.5t193 -57.5q100 0 192.5 42zM253.5 1377q-17.5 17 -17.5 45t17.5 46t44.5 18t44.5 -18t17.5 -46t-17.5 -45t-44.5 -17t-44.5 17zM693.5 1377q-17.5 17 -17.5 45
t17.5 46t44.5 18t44.5 -18t17.5 -46t-17.5 -45t-44.5 -17t-44.5 17z" />
    <glyph glyph-name="aring" unicode="&#xe5;" horiz-adv-x="1043" 
d="M702.5 1063q84.5 -33 129 -111t44.5 -210v-742h-60l-6 131h-8q-59 -67 -153 -107t-199 -40q-154 0 -241.5 75t-87.5 209q0 135 89.5 208.5t285.5 96.5l312 38v130q0 112 -36 175.5t-104.5 88.5t-175.5 25q-72 0 -152.5 -12.5t-158.5 -40.5v68q65 25 147.5 38t162.5 13
q127 0 211.5 -33zM644.5 92q92.5 42 163.5 127v326l-314 -38q-159 -18 -229 -74.5t-70 -159.5q0 -108 64 -165.5t193 -57.5q100 0 192.5 42zM424 1284q-42 24 -66 66t-24 94t24 94t66 66t94 24t94 -24t66 -66t24 -94t-24 -94t-66 -66t-94 -24t-94 24zM612 1347.5
q36 35.5 36 96.5t-36 96.5t-94 35.5t-94 -35.5t-36 -96.5t36 -96.5t94 -35.5t94 35.5z" />
    <glyph glyph-name="ae" unicode="&#xe6;" horiz-adv-x="1730" 
d="M1631 510h-755q6 -241 113 -351.5t307 -110.5q127 0 284 53v-68q-147 -51 -288 -51q-302 0 -415 217q-98 -118 -203.5 -166.5t-221.5 -48.5q-101 0 -175.5 33.5t-115 97.5t-40.5 153q0 142 98.5 225t309.5 83h279v167q0 111 -36 174t-104.5 88t-175.5 25
q-72 0 -152.5 -12.5t-158.5 -40.5v68q65 25 147.5 38t162.5 13q160 0 252.5 -56t117.5 -187q47 123 138.5 183.5t222.5 60.5q197 0 303 -137.5t106 -416.5v-33zM970 921.5q-89 -109.5 -94 -345.5h685q-5 238 -90.5 346.5t-248.5 108.5t-252 -109.5zM665.5 101.5
q102.5 51.5 181.5 167.5q-35 102 -39 241h-285q-174 0 -251 -63.5t-77 -173.5q0 -108 65.5 -165.5t193.5 -57.5q109 0 211.5 51.5z" />
    <glyph glyph-name="ccedilla" unicode="&#xe7;" horiz-adv-x="888" 
d="M379.5 981.5q-94.5 -48.5 -142 -155.5t-47.5 -282q0 -262 97.5 -379t292.5 -117q121 0 267 53v-68q-134 -51 -274 -51h-10v-95q77 -5 119 -42t42 -102q0 -68 -48 -105.5t-133 -37.5q-46 0 -93.5 10t-79.5 28v56q84 -42 174 -42q63 0 93.5 22.5t30.5 68.5q0 48 -31 70.5
t-95 22.5h-35v149q-389 39 -389 555q0 287 126 421.5t374 134.5q127 0 229 -32v-68q-116 34 -228 34q-145 0 -239.5 -48.5z" />
    <glyph glyph-name="egrave" unicode="&#xe8;" horiz-adv-x="1052" 
d="M954 510h-764q6 -242 114 -352t310 -110q125 0 289 53v-68q-152 -51 -293 -51q-492 0 -492 558q0 279 112.5 417.5t311.5 138.5t305.5 -137.5t106.5 -418.5v-30zM285.5 921q-90.5 -109 -95.5 -345h693q-5 236 -91 345t-250 109q-166 0 -256.5 -109zM511 1264l-251 352h81
l238 -352h-68z" />
    <glyph glyph-name="eacute" unicode="&#xe9;" horiz-adv-x="1052" 
d="M954 510h-764q6 -242 114 -352t310 -110q125 0 289 53v-68q-152 -51 -293 -51q-492 0 -492 558q0 279 112.5 417.5t311.5 138.5t305.5 -137.5t106.5 -418.5v-30zM285.5 921q-90.5 -109 -95.5 -345h693q-5 236 -91 345t-250 109q-166 0 -256.5 -109zM511 1264l238 352h81
l-251 -352h-68z" />
    <glyph glyph-name="ecircumflex" unicode="&#xea;" horiz-adv-x="1052" 
d="M954 510h-764q6 -242 114 -352t310 -110q125 0 289 53v-68q-152 -51 -293 -51q-492 0 -492 558q0 279 112.5 417.5t311.5 138.5t305.5 -137.5t106.5 -418.5v-30zM285.5 921q-90.5 -109 -95.5 -345h693q-5 236 -91 345t-250 109q-166 0 -256.5 -109zM822 1264h-74
l-202 305l-203 -305h-75l239 352h76z" />
    <glyph glyph-name="edieresis" unicode="&#xeb;" horiz-adv-x="1052" 
d="M954 510h-764q6 -242 114 -352t310 -110q125 0 289 53v-68q-152 -51 -293 -51q-492 0 -492 558q0 279 112.5 417.5t311.5 138.5t305.5 -137.5t106.5 -418.5v-30zM285.5 921q-90.5 -109 -95.5 -345h693q-5 236 -91 345t-250 109q-166 0 -256.5 -109zM280.5 1377
q-17.5 17 -17.5 45t17.5 46t44.5 18t44.5 -18t17.5 -46t-17.5 -45t-44.5 -17t-44.5 17zM720.5 1377q-17.5 17 -17.5 45t17.5 46t44.5 18t44.5 -18t17.5 -46t-17.5 -45t-44.5 -17t-44.5 17z" />
    <glyph glyph-name="igrave" unicode="&#xec;" horiz-adv-x="434" 
d="M183 0v1080h68v-1080h-68zM183 1264l-251 352h81l238 -352h-68z" />
    <glyph glyph-name="iacute" unicode="&#xed;" horiz-adv-x="434" 
d="M183 0v1080h68v-1080h-68zM183 1264l238 352h81l-251 -352h-68z" />
    <glyph glyph-name="icircumflex" unicode="&#xee;" horiz-adv-x="434" 
d="M183 0v1080h68v-1080h-68zM494 1264h-74l-202 305l-203 -305h-75l239 352h76z" />
    <glyph glyph-name="idieresis" unicode="&#xef;" horiz-adv-x="434" 
d="M183 0v1080h68v-1080h-68zM-47.5 1377q-17.5 17 -17.5 45t17.5 46t44.5 18t44.5 -18t17.5 -46t-17.5 -45t-44.5 -17t-44.5 17zM392.5 1377q-17.5 17 -17.5 45t17.5 46t44.5 18t44.5 -18t17.5 -46t-17.5 -45t-44.5 -17t-44.5 17z" />
    <glyph glyph-name="eth" unicode="&#xf0;" horiz-adv-x="1131" 
d="M943.5 962.5q67.5 -197.5 67.5 -392.5q0 -199 -54.5 -330.5t-154 -194.5t-234.5 -63q-212 0 -331 135.5t-119 422.5q0 283 119.5 419.5t328.5 136.5q94 0 170.5 -29.5t134.5 -97.5q-66 188 -184 346l-458 -73l-8 58l424 68q-115 136 -273 248h99q132 -91 247 -237l263 42
l9 -58l-232 -37q118 -166 185.5 -363.5zM842.5 167.5q98.5 119.5 98.5 370.5q0 261 -97 376.5t-278 115.5t-278.5 -114.5t-97.5 -372.5q0 -262 98 -378.5t280 -116.5q176 0 274.5 119.5z" />
    <glyph glyph-name="ntilde" unicode="&#xf1;" horiz-adv-x="1166" 
d="M183 1080h60l6 -131h8q77 71 175 109t205 38q362 0 362 -377v-719h-68v720q0 165 -76 237.5t-219 72.5q-103 0 -206.5 -42t-178.5 -133v-855h-68v1080zM660.5 1390.5q-35.5 10.5 -83.5 30.5q-46 18 -73 26t-54 8q-47 0 -85 -17t-72 -53v67q56 61 157 61q38 0 73.5 -10.5
t83.5 -30.5q46 -18 73 -26t54 -8q47 0 85 17t73 53v-67q-58 -61 -158 -61q-38 0 -73.5 10.5z" />
    <glyph glyph-name="ograve" unicode="&#xf2;" horiz-adv-x="1131" 
d="M236.5 118q-118.5 136 -118.5 422q0 283 119.5 419.5t328.5 136.5q211 0 329 -134.5t118 -421.5q0 -283 -119 -420.5t-328 -137.5q-211 0 -329.5 136zM843.5 163.5q97.5 115.5 97.5 374.5q0 261 -97 376.5t-278 115.5t-278.5 -114.5t-97.5 -372.5q0 -262 97.5 -378.5
t278.5 -116.5q180 0 277.5 115.5zM532 1264l-251 352h81l238 -352h-68z" />
    <glyph glyph-name="oacute" unicode="&#xf3;" horiz-adv-x="1131" 
d="M236.5 118q-118.5 136 -118.5 422q0 283 119.5 419.5t328.5 136.5q211 0 329 -134.5t118 -421.5q0 -283 -119 -420.5t-328 -137.5q-211 0 -329.5 136zM843.5 163.5q97.5 115.5 97.5 374.5q0 261 -97 376.5t-278 115.5t-278.5 -114.5t-97.5 -372.5q0 -262 97.5 -378.5
t278.5 -116.5q180 0 277.5 115.5zM532 1264l238 352h81l-251 -352h-68z" />
    <glyph glyph-name="ocircumflex" unicode="&#xf4;" horiz-adv-x="1131" 
d="M236.5 118q-118.5 136 -118.5 422q0 283 119.5 419.5t328.5 136.5q211 0 329 -134.5t118 -421.5q0 -283 -119 -420.5t-328 -137.5q-211 0 -329.5 136zM843.5 163.5q97.5 115.5 97.5 374.5q0 261 -97 376.5t-278 115.5t-278.5 -114.5t-97.5 -372.5q0 -262 97.5 -378.5
t278.5 -116.5q180 0 277.5 115.5zM843 1264h-74l-202 305l-203 -305h-75l239 352h76z" />
    <glyph glyph-name="otilde" unicode="&#xf5;" horiz-adv-x="1131" 
d="M236.5 118q-118.5 136 -118.5 422q0 283 119.5 419.5t328.5 136.5q211 0 329 -134.5t118 -421.5q0 -283 -119 -420.5t-328 -137.5q-211 0 -329.5 136zM843.5 163.5q97.5 115.5 97.5 374.5q0 261 -97 376.5t-278 115.5t-278.5 -114.5t-97.5 -372.5q0 -262 97.5 -378.5
t278.5 -116.5q180 0 277.5 115.5zM634.5 1390.5q-35.5 10.5 -83.5 30.5q-46 18 -73 26t-54 8q-47 0 -85 -17t-72 -53v67q56 61 157 61q38 0 73.5 -10.5t83.5 -30.5q46 -18 73 -26t54 -8q47 0 85 17t73 53v-67q-58 -61 -158 -61q-38 0 -73.5 10.5z" />
    <glyph glyph-name="odieresis" unicode="&#xf6;" horiz-adv-x="1131" 
d="M236.5 118q-118.5 136 -118.5 422q0 283 119.5 419.5t328.5 136.5q211 0 329 -134.5t118 -421.5q0 -283 -119 -420.5t-328 -137.5q-211 0 -329.5 136zM843.5 163.5q97.5 115.5 97.5 374.5q0 261 -97 376.5t-278 115.5t-278.5 -114.5t-97.5 -372.5q0 -262 97.5 -378.5
t278.5 -116.5q180 0 277.5 115.5zM301.5 1377q-17.5 17 -17.5 45t17.5 46t44.5 18t44.5 -18t17.5 -46t-17.5 -45t-44.5 -17t-44.5 17zM741.5 1377q-17.5 17 -17.5 45t17.5 46t44.5 18t44.5 -18t17.5 -46t-17.5 -45t-44.5 -17t-44.5 17z" />
    <glyph glyph-name="divide" unicode="&#xf7;" horiz-adv-x="1085" 
d="M498.5 1043q-17.5 17 -17.5 45t17.5 46t44.5 18t44.5 -18t17.5 -46t-17.5 -45t-44.5 -17t-44.5 17zM179 728v64h728v-64h-728zM498.5 385q-17.5 17 -17.5 45t17.5 46t44.5 18t44.5 -18t17.5 -46t-17.5 -45t-44.5 -17t-44.5 17z" />
    <glyph glyph-name="oslash" unicode="&#xf8;" horiz-adv-x="1131" 
d="M1013 540q0 -283 -119 -420.5t-328 -137.5q-189 0 -300 105l-76 -103l-50 38l84 112q-106 140 -106 406q0 283 119.5 419.5t328.5 136.5q187 0 299 -103l76 103l49 -38l-83 -112q106 -140 106 -406zM287.5 915.5q-97.5 -114.5 -97.5 -372.5q0 -226 77 -350l556 745
q-91 92 -257 92q-181 0 -278.5 -114.5zM843.5 163.5q97.5 115.5 97.5 374.5q0 228 -78 350l-556 -746q93 -94 259 -94q180 0 277.5 115.5z" />
    <glyph glyph-name="ugrave" unicode="&#xf9;" horiz-adv-x="1156" 
d="M261 71q-94 89 -94 284v725h68v-725q0 -163 76 -235t213 -72q103 0 205 44t176 133v855h68v-1080h-60l-6 126h-8q-76 -70 -173.5 -107t-203.5 -37q-167 0 -261 89zM536 1264l-251 352h81l238 -352h-68z" />
    <glyph glyph-name="uacute" unicode="&#xfa;" horiz-adv-x="1156" 
d="M261 71q-94 89 -94 284v725h68v-725q0 -163 76 -235t213 -72q103 0 205 44t176 133v855h68v-1080h-60l-6 126h-8q-76 -70 -173.5 -107t-203.5 -37q-167 0 -261 89zM536 1264l238 352h81l-251 -352h-68z" />
    <glyph glyph-name="ucircumflex" unicode="&#xfb;" horiz-adv-x="1156" 
d="M261 71q-94 89 -94 284v725h68v-725q0 -163 76 -235t213 -72q103 0 205 44t176 133v855h68v-1080h-60l-6 126h-8q-76 -70 -173.5 -107t-203.5 -37q-167 0 -261 89zM847 1264h-74l-202 305l-203 -305h-75l239 352h76z" />
    <glyph glyph-name="udieresis" unicode="&#xfc;" horiz-adv-x="1156" 
d="M261 71q-94 89 -94 284v725h68v-725q0 -163 76 -235t213 -72q103 0 205 44t176 133v855h68v-1080h-60l-6 126h-8q-76 -70 -173.5 -107t-203.5 -37q-167 0 -261 89zM305.5 1377q-17.5 17 -17.5 45t17.5 46t44.5 18t44.5 -18t17.5 -46t-17.5 -45t-44.5 -17t-44.5 17z
M745.5 1377q-17.5 17 -17.5 45t17.5 46t44.5 18t44.5 -18t17.5 -46t-17.5 -45t-44.5 -17t-44.5 17z" />
    <glyph glyph-name="yacute" unicode="&#xfd;" horiz-adv-x="1064" 
d="M961 1080h71l-638 -1520h-72l185 440h-21l-454 1080h76l425 -1025zM500 1264l238 352h81l-251 -352h-68z" />
    <glyph glyph-name="thorn" unicode="&#xfe;" 
d="M183 1616h68v-660h6q60 65 146 102.5t191 37.5q199 0 318.5 -128t119.5 -408q0 -292 -137.5 -435t-411.5 -143q-106 0 -232 21v-443h-68v2056zM843 170q117 122 117 382q0 257 -99 367.5t-272 110.5q-99 0 -188 -42t-150 -129v-783q49 -13 111.5 -20.5t124.5 -7.5
q239 0 356 122z" />
    <glyph glyph-name="ydieresis" unicode="&#xff;" horiz-adv-x="1064" 
d="M961 1080h71l-638 -1520h-72l185 440h-21l-454 1080h76l425 -1025zM269.5 1377q-17.5 17 -17.5 45t17.5 46t44.5 18t44.5 -18t17.5 -46t-17.5 -45t-44.5 -17t-44.5 17zM709.5 1377q-17.5 17 -17.5 45t17.5 46t44.5 18t44.5 -18t17.5 -46t-17.5 -45t-44.5 -17t-44.5 17z
" />
    <glyph glyph-name="Amacron" unicode="&#x100;" horiz-adv-x="1364" 
d="M1246 0l-212 528h-706l-212 -528h-73l596 1480h86l597 -1480h-76zM354 594h654l-327 816zM398 1723v59h570v-59h-570z" />
    <glyph glyph-name="amacron" unicode="&#x101;" horiz-adv-x="1043" 
d="M702.5 1063q84.5 -33 129 -111t44.5 -210v-742h-60l-6 131h-8q-59 -67 -153 -107t-199 -40q-154 0 -241.5 75t-87.5 209q0 135 89.5 208.5t285.5 96.5l312 38v130q0 112 -36 175.5t-104.5 88.5t-175.5 25q-72 0 -152.5 -12.5t-158.5 -40.5v68q65 25 147.5 38t162.5 13
q127 0 211.5 -33zM644.5 92q92.5 42 163.5 127v326l-314 -38q-159 -18 -229 -74.5t-70 -159.5q0 -108 64 -165.5t193 -57.5q100 0 192.5 42zM219 1394v60h599v-60h-599z" />
    <glyph glyph-name="Abreve" unicode="&#x102;" horiz-adv-x="1364" 
d="M1246 0l-212 528h-706l-212 -528h-73l596 1480h86l597 -1480h-76zM354 594h654l-327 816zM467.5 1691q-76.5 63 -86.5 169h59q13 -85 69.5 -128.5t175.5 -43.5q120 0 175 43.5t66 128.5h59q-10 -107 -84.5 -169.5t-215.5 -62.5t-217.5 63z" />
    <glyph glyph-name="abreve" unicode="&#x103;" horiz-adv-x="1043" 
d="M702.5 1063q84.5 -33 129 -111t44.5 -210v-742h-60l-6 131h-8q-59 -67 -153 -107t-199 -40q-154 0 -241.5 75t-87.5 209q0 135 89.5 208.5t285.5 96.5l312 38v130q0 112 -36 175.5t-104.5 88.5t-175.5 25q-72 0 -152.5 -12.5t-158.5 -40.5v68q65 25 147.5 38t162.5 13
q127 0 211.5 -33zM644.5 92q92.5 42 163.5 127v326l-314 -38q-159 -18 -229 -74.5t-70 -159.5q0 -108 64 -165.5t193 -57.5q100 0 192.5 42zM315.5 1360q-73.5 84 -79.5 228h59q16 -254 225 -254q108 0 161 65.5t60 188.5h59q-5 -145 -77.5 -228.5t-202.5 -83.5
q-131 0 -204.5 84z" />
    <glyph glyph-name="Aogonek" unicode="&#x104;" horiz-adv-x="1364" 
d="M1355 -338.5q41 9.5 99 31.5v-54q-88 -39 -178 -39q-103 0 -158.5 44t-55.5 125q0 71 41 130.5t136 116.5l-205 512h-706l-212 -528h-73l596 1480h86l597 -1480q-114 -57 -159 -110.5t-45 -117.5q0 -59 39.5 -89.5t115.5 -30.5q41 0 82 9.5zM354 594h654l-327 816z" />
    <glyph glyph-name="aogonek" unicode="&#x105;" horiz-adv-x="1043" 
d="M989 -303v-56q-34 -19 -77 -30t-82 -11q-90 0 -142 45.5t-52 123.5q0 74 43 136.5t136 120.5l-5 105h-8q-59 -67 -153 -107t-199 -40q-154 0 -241.5 75t-87.5 209q0 135 89.5 208.5t285.5 96.5l312 38v130q0 112 -36 175.5t-104.5 88.5t-175.5 25q-72 0 -152.5 -12.5
t-158.5 -40.5v68q65 25 147.5 38t162.5 13q127 0 211.5 -33t129 -111t44.5 -210v-742q-98 -57 -141 -110t-43 -118q0 -56 36 -88t99 -32q82 0 162 45zM644.5 92q92.5 42 163.5 127v326l-314 -38q-159 -18 -229 -74.5t-70 -159.5q0 -108 64 -165.5t193 -57.5q100 0 192.5 42z
" />
    <glyph glyph-name="Cacute" unicode="&#x106;" horiz-adv-x="1187" 
d="M128 738q0 393 174 576.5t492 183.5q94 0 177.5 -12.5t170.5 -37.5v-68q-171 52 -352 52q-289 0 -439.5 -162.5t-150.5 -527.5q0 -256 70.5 -409.5t198 -219t309.5 -65.5q95 0 179.5 14.5t184.5 49.5v-68q-171 -62 -365 -62q-649 0 -649 756zM683 1616l199 272h82
l-213 -272h-68z" />
    <glyph glyph-name="cacute" unicode="&#x107;" horiz-adv-x="888" 
d="M234.5 117.5q-116.5 135.5 -116.5 422.5t126 421.5t374 134.5q127 0 229 -32v-68q-116 34 -228 34q-145 0 -239.5 -48.5t-142 -155.5t-47.5 -282q0 -262 97.5 -379t292.5 -117q121 0 267 53v-68q-134 -51 -274 -51q-222 0 -338.5 135.5zM503 1264l238 352h81l-251 -352
h-68z" />
    <glyph glyph-name="Ccircumflex" unicode="&#x108;" horiz-adv-x="1187" 
d="M128 738q0 393 174 576.5t492 183.5q94 0 177.5 -12.5t170.5 -37.5v-68q-171 52 -352 52q-289 0 -439.5 -162.5t-150.5 -527.5q0 -256 70.5 -409.5t198 -219t309.5 -65.5q95 0 179.5 14.5t184.5 49.5v-68q-171 -62 -365 -62q-649 0 -649 756zM1017 1616h-86l-213 227
l-214 -227h-87l262 272h76z" />
    <glyph glyph-name="ccircumflex" unicode="&#x109;" horiz-adv-x="888" 
d="M234.5 117.5q-116.5 135.5 -116.5 422.5t126 421.5t374 134.5q127 0 229 -32v-68q-116 34 -228 34q-145 0 -239.5 -48.5t-142 -155.5t-47.5 -282q0 -262 97.5 -379t292.5 -117q121 0 267 53v-68q-134 -51 -274 -51q-222 0 -338.5 135.5zM814 1264h-74l-202 305l-203 -305
h-75l239 352h76z" />
    <glyph glyph-name="Cdotaccent" unicode="&#x10a;" horiz-adv-x="1187" 
d="M128 738q0 393 174 576.5t492 183.5q94 0 177.5 -12.5t170.5 -37.5v-68q-171 52 -352 52q-289 0 -439.5 -162.5t-150.5 -527.5q0 -256 70.5 -409.5t198 -219t309.5 -65.5q95 0 179.5 14.5t184.5 49.5v-68q-171 -62 -365 -62q-649 0 -649 756zM672.5 1707
q-17.5 17 -17.5 45t17.5 46t44.5 18t44.5 -18t17.5 -46t-17.5 -45t-44.5 -17t-44.5 17z" />
    <glyph glyph-name="cdotaccent" unicode="&#x10b;" horiz-adv-x="888" 
d="M234.5 117.5q-116.5 135.5 -116.5 422.5t126 421.5t374 134.5q127 0 229 -32v-68q-116 34 -228 34q-145 0 -239.5 -48.5t-142 -155.5t-47.5 -282q0 -262 97.5 -379t292.5 -117q121 0 267 53v-68q-134 -51 -274 -51q-222 0 -338.5 135.5zM492.5 1377q-17.5 17 -17.5 45
t17.5 46t44.5 18t44.5 -18t17.5 -46t-17.5 -45t-44.5 -17t-44.5 17z" />
    <glyph glyph-name="Ccaron" unicode="&#x10c;" horiz-adv-x="1187" 
d="M128 738q0 393 174 576.5t492 183.5q94 0 177.5 -12.5t170.5 -37.5v-68q-171 52 -352 52q-289 0 -439.5 -162.5t-150.5 -527.5q0 -256 70.5 -409.5t198 -219t309.5 -65.5q95 0 179.5 14.5t184.5 49.5v-68q-171 -62 -365 -62q-649 0 -649 756zM931 1888h86l-262 -272h-76
l-262 272h87l214 -227z" />
    <glyph glyph-name="ccaron" unicode="&#x10d;" horiz-adv-x="888" 
d="M234.5 117.5q-116.5 135.5 -116.5 422.5t126 421.5t374 134.5q127 0 229 -32v-68q-116 34 -228 34q-145 0 -239.5 -48.5t-142 -155.5t-47.5 -282q0 -262 97.5 -379t292.5 -117q121 0 267 53v-68q-134 -51 -274 -51q-222 0 -338.5 135.5zM746 1616h74l-245 -352h-76
l-245 352h75l209 -306z" />
    <glyph glyph-name="Dcaron" unicode="&#x10e;" horiz-adv-x="1437" 
d="M385 -5q-78 5 -182 18v1445q183 36 370 36q364 0 550 -188.5t186 -565.5q0 -380 -189 -565t-565 -185q-92 0 -170 5zM1068.5 222q168.5 166 168.5 518t-166 520t-504 168q-130 0 -296 -25v-1328q128 -19 286 -19q343 0 511.5 166zM873 1888h86l-262 -272h-76l-262 272h87
l214 -227z" />
    <glyph glyph-name="dcaron" unicode="&#x10f;" 
d="M238 112.5q-120 130.5 -120 405.5q0 292 138 435t411 143q111 0 232 -22v542h68v-1616h-60l-6 126h-8q-58 -67 -144 -105.5t-187 -38.5q-204 0 -324 130.5zM751 90.5q87 42.5 148 131.5v781q-48 13 -110.5 20t-125.5 7q-239 0 -356 -122t-117 -382q0 -255 98 -366.5
t277 -111.5q99 0 186 42.5zM1097 1616h64q0 -253 -36 -436h-46q18 158 18 436z" />
    <glyph glyph-name="Dcroat" unicode="&#x110;" horiz-adv-x="1437" 
d="M1123 1305.5q186 -188.5 186 -565.5q0 -380 -189 -565t-565 -185q-92 0 -170 5t-182 18v719h-198v60h198v666q183 36 370 36q364 0 550 -188.5zM1068.5 222q168.5 166 168.5 518t-166 520t-504 168q-130 0 -296 -25v-611h396v-60h-396v-657q128 -19 286 -19
q343 0 511.5 166z" />
    <glyph glyph-name="dcroat" unicode="&#x111;" 
d="M1137 1326h-170v-1326h-60l-6 126h-8q-58 -67 -144 -105.5t-187 -38.5q-204 0 -324 130.5t-120 405.5q0 292 138 435t411 143q111 0 232 -22v252h-396v60h396v230h68v-230h170v-60zM899 1003q-48 13 -110.5 20t-125.5 7q-239 0 -356 -122t-117 -382q0 -255 98 -366.5
t277 -111.5q99 0 186 42.5t148 131.5v781z" />
    <glyph glyph-name="Emacron" unicode="&#x112;" horiz-adv-x="1200" 
d="M271 66h839v-66h-907v1480h897v-66h-829v-620h732v-66h-732v-662zM388 1723v59h570v-59h-570z" />
    <glyph glyph-name="emacron" unicode="&#x113;" horiz-adv-x="1052" 
d="M954 510h-764q6 -242 114 -352t310 -110q125 0 289 53v-68q-152 -51 -293 -51q-492 0 -492 558q0 279 112.5 417.5t311.5 138.5t305.5 -137.5t106.5 -418.5v-30zM285.5 921q-90.5 -109 -95.5 -345h693q-5 236 -91 345t-250 109q-166 0 -256.5 -109zM246 1394v60h599v-60
h-599z" />
    <glyph glyph-name="Ebreve" unicode="&#x114;" horiz-adv-x="1200" 
d="M271 66h839v-66h-907v1480h897v-66h-829v-620h732v-66h-732v-662zM457.5 1691q-76.5 63 -86.5 169h59q13 -85 69.5 -128.5t175.5 -43.5q120 0 175 43.5t66 128.5h59q-10 -107 -84.5 -169.5t-215.5 -62.5t-217.5 63z" />
    <glyph glyph-name="ebreve" unicode="&#x115;" horiz-adv-x="1052" 
d="M954 510h-764q6 -242 114 -352t310 -110q125 0 289 53v-68q-152 -51 -293 -51q-492 0 -492 558q0 279 112.5 417.5t311.5 138.5t305.5 -137.5t106.5 -418.5v-30zM285.5 921q-90.5 -109 -95.5 -345h693q-5 236 -91 345t-250 109q-166 0 -256.5 -109zM342.5 1360
q-73.5 84 -79.5 228h59q16 -254 225 -254q108 0 161 65.5t60 188.5h59q-5 -145 -77.5 -228.5t-202.5 -83.5q-131 0 -204.5 84z" />
    <glyph glyph-name="Edotaccent" unicode="&#x116;" horiz-adv-x="1200" 
d="M271 66h839v-66h-907v1480h897v-66h-829v-620h732v-66h-732v-662zM628.5 1707q-17.5 17 -17.5 45t17.5 46t44.5 18t44.5 -18t17.5 -46t-17.5 -45t-44.5 -17t-44.5 17z" />
    <glyph glyph-name="edotaccent" unicode="&#x117;" horiz-adv-x="1052" 
d="M954 510h-764q6 -242 114 -352t310 -110q125 0 289 53v-68q-152 -51 -293 -51q-492 0 -492 558q0 279 112.5 417.5t311.5 138.5t305.5 -137.5t106.5 -418.5v-30zM285.5 921q-90.5 -109 -95.5 -345h693q-5 236 -91 345t-250 109q-166 0 -256.5 -109zM500.5 1377
q-17.5 17 -17.5 45t17.5 46t44.5 18t44.5 -18t17.5 -46t-17.5 -45t-44.5 -17t-44.5 17z" />
    <glyph glyph-name="Eogonek" unicode="&#x118;" horiz-adv-x="1200" 
d="M1063 -338.5q41 9.5 99 31.5v-54q-88 -39 -178 -39q-103 0 -158.5 44t-55.5 125q0 66 35 122t116 109h-718v1480h897v-66h-829v-620h732v-66h-732v-662h839v-66h-80q-114 -57 -159 -110.5t-45 -117.5q0 -59 39.5 -89.5t115.5 -30.5q41 0 82 9.5z" />
    <glyph glyph-name="eogonek" unicode="&#x119;" horiz-adv-x="1052" 
d="M954 510h-764q6 -242 114 -352t310 -110q125 0 289 53v-68q-298 -93 -298 -260q0 -57 36 -89t99 -32q83 0 163 45v-56q-35 -19 -78 -30t-81 -11q-91 0 -143 45.5t-52 123.5q0 64 33.5 120t94.5 96q-33 -3 -67 -3q-492 0 -492 558q0 279 112.5 417.5t311.5 138.5
t305.5 -137.5t106.5 -418.5v-30zM285.5 921q-90.5 -109 -95.5 -345h693q-5 236 -91 345t-250 109q-166 0 -256.5 -109z" />
    <glyph glyph-name="Ecaron" unicode="&#x11a;" horiz-adv-x="1200" 
d="M271 66h839v-66h-907v1480h897v-66h-829v-620h732v-66h-732v-662zM887 1888h86l-262 -272h-76l-262 272h87l214 -227z" />
    <glyph glyph-name="ecaron" unicode="&#x11b;" horiz-adv-x="1052" 
d="M954 510h-764q6 -242 114 -352t310 -110q125 0 289 53v-68q-152 -51 -293 -51q-492 0 -492 558q0 279 112.5 417.5t311.5 138.5t305.5 -137.5t106.5 -418.5v-30zM285.5 921q-90.5 -109 -95.5 -345h693q-5 236 -91 345t-250 109q-166 0 -256.5 -109zM754 1616h74
l-245 -352h-76l-245 352h75l209 -306z" />
    <glyph glyph-name="Gcircumflex" unicode="&#x11c;" horiz-adv-x="1399" 
d="M1215 720v-701q-99 -17 -175.5 -23t-164.5 -6q-371 0 -559 185t-188 566q0 262 88.5 431t244.5 247.5t363 78.5q89 0 175 -12.5t182 -37.5v-68q-102 29 -186.5 40.5t-169.5 11.5q-290 0 -457.5 -164.5t-167.5 -523.5q0 -354 168 -521t507 -167q159 0 272 22v642h68z
M1055 1616h-86l-213 227l-214 -227h-87l262 272h76z" />
    <glyph glyph-name="gcircumflex" unicode="&#x11d;" 
d="M342 -445.5q-87 14.5 -156 39.5v68q167 -56 319 -56q137 0 223 38.5t128.5 126t42.5 234.5v115h-6q-61 -64 -147 -101t-191 -37q-198 0 -317.5 128t-119.5 408q0 578 537 578q160 0 312 -45v-1040q0 -249 -114.5 -360t-349.5 -111q-74 0 -161 14.5zM748 89q90 41 151 123
v788q-113 30 -250 30q-229 0 -344 -122.5t-115 -381.5q0 -478 369 -478q99 0 189 41zM869 1264h-74l-202 305l-203 -305h-75l239 352h76z" />
    <glyph glyph-name="Gbreve" unicode="&#x11e;" horiz-adv-x="1399" 
d="M1215 720v-701q-99 -17 -175.5 -23t-164.5 -6q-371 0 -559 185t-188 566q0 262 88.5 431t244.5 247.5t363 78.5q89 0 175 -12.5t182 -37.5v-68q-102 29 -186.5 40.5t-169.5 11.5q-290 0 -457.5 -164.5t-167.5 -523.5q0 -354 168 -521t507 -167q159 0 272 22v642h68z
M539.5 1691q-76.5 63 -86.5 169h59q13 -85 69.5 -128.5t175.5 -43.5q120 0 175 43.5t66 128.5h59q-10 -107 -84.5 -169.5t-215.5 -62.5t-217.5 63z" />
    <glyph glyph-name="gbreve" unicode="&#x11f;" 
d="M342 -445.5q-87 14.5 -156 39.5v68q167 -56 319 -56q137 0 223 38.5t128.5 126t42.5 234.5v115h-6q-61 -64 -147 -101t-191 -37q-198 0 -317.5 128t-119.5 408q0 578 537 578q160 0 312 -45v-1040q0 -249 -114.5 -360t-349.5 -111q-74 0 -161 14.5zM748 89q90 41 151 123
v788q-113 30 -250 30q-229 0 -344 -122.5t-115 -381.5q0 -478 369 -478q99 0 189 41zM389.5 1360q-73.5 84 -79.5 228h59q16 -254 225 -254q108 0 161 65.5t60 188.5h59q-5 -145 -77.5 -228.5t-202.5 -83.5q-131 0 -204.5 84z" />
    <glyph glyph-name="Gdotaccent" unicode="&#x120;" horiz-adv-x="1399" 
d="M1215 720v-701q-99 -17 -175.5 -23t-164.5 -6q-371 0 -559 185t-188 566q0 262 88.5 431t244.5 247.5t363 78.5q89 0 175 -12.5t182 -37.5v-68q-102 29 -186.5 40.5t-169.5 11.5q-290 0 -457.5 -164.5t-167.5 -523.5q0 -354 168 -521t507 -167q159 0 272 22v642h68z
M710.5 1707q-17.5 17 -17.5 45t17.5 46t44.5 18t44.5 -18t17.5 -46t-17.5 -45t-44.5 -17t-44.5 17z" />
    <glyph glyph-name="gdotaccent" unicode="&#x121;" 
d="M342 -445.5q-87 14.5 -156 39.5v68q167 -56 319 -56q137 0 223 38.5t128.5 126t42.5 234.5v115h-6q-61 -64 -147 -101t-191 -37q-198 0 -317.5 128t-119.5 408q0 578 537 578q160 0 312 -45v-1040q0 -249 -114.5 -360t-349.5 -111q-74 0 -161 14.5zM748 89q90 41 151 123
v788q-113 30 -250 30q-229 0 -344 -122.5t-115 -381.5q0 -478 369 -478q99 0 189 41zM547.5 1377q-17.5 17 -17.5 45t17.5 46t44.5 18t44.5 -18t17.5 -46t-17.5 -45t-44.5 -17t-44.5 17z" />
    <glyph glyph-name="Gcommaaccent" unicode="&#x122;" horiz-adv-x="1399" 
d="M1215 720v-701q-99 -17 -175.5 -23t-164.5 -6q-371 0 -559 185t-188 566q0 262 88.5 431t244.5 247.5t363 78.5q89 0 175 -12.5t182 -37.5v-68q-102 29 -186.5 40.5t-169.5 11.5q-290 0 -457.5 -164.5t-167.5 -523.5q0 -354 168 -521t507 -167q159 0 272 22v642h68z
M799.5 -206q17.5 -22 17.5 -64q0 -38 -11 -86t-33 -92h-44q28 71 33 138h-7q-27 0 -44.5 18t-17.5 46q0 27 16.5 44.5t41.5 17.5q31 0 48.5 -22z" />
    <glyph glyph-name="gcommaaccent" unicode="&#x123;" 
d="M342 -445.5q-87 14.5 -156 39.5v68q167 -56 319 -56q137 0 223 38.5t128.5 126t42.5 234.5v115h-6q-61 -64 -147 -101t-191 -37q-198 0 -317.5 128t-119.5 408q0 578 537 578q160 0 312 -45v-1040q0 -249 -114.5 -360t-349.5 -111q-74 0 -161 14.5zM748 89q90 41 151 123
v788q-113 30 -250 30q-229 0 -344 -122.5t-115 -381.5q0 -478 369 -478q99 0 189 41zM636.5 1468q17.5 -18 17.5 -46q0 -27 -16.5 -44.5t-41.5 -17.5q-31 0 -48.5 22t-17.5 64q0 38 11 86t33 92h44q-28 -71 -33 -138h7q27 0 44.5 -18z" />
    <glyph glyph-name="Hcircumflex" unicode="&#x124;" horiz-adv-x="1487" 
d="M203 0v1480h68v-686h945v686h68v-1480h-68v728h-945v-728h-68zM1044 1616h-86l-213 227l-214 -227h-87l262 272h76z" />
    <glyph glyph-name="hcircumflex" unicode="&#x125;" horiz-adv-x="1166" 
d="M183 1616h68v-664h6q76 71 174 107.5t208 36.5q170 0 265 -88.5t95 -283.5v-724h-68v723q0 164 -76.5 234.5t-218.5 70.5q-106 0 -208.5 -43t-176.5 -132v-853h-68v1616zM892 1712h-86l-213 227l-214 -227h-87l262 272h76z" />
    <glyph glyph-name="Hbar" unicode="&#x126;" horiz-adv-x="1487" 
d="M1482 1170v-60h-198v-1110h-68v728h-945v-728h-68v1110h-198v60h198v310h68v-310h945v310h68v-310h198zM1216 794v316h-945v-316h945z" />
    <glyph glyph-name="hbar" unicode="&#x127;" horiz-adv-x="1166" 
d="M904 1007.5q95 -88.5 95 -283.5v-724h-68v723q0 164 -76.5 234.5t-218.5 70.5q-106 0 -208.5 -43t-176.5 -132v-853h-68v1326h-169v60h169v230h68v-230h396v-60h-396v-374h6q76 71 174 107.5t208 36.5q170 0 265 -88.5z" />
    <glyph glyph-name="Itilde" unicode="&#x128;" horiz-adv-x="474" 
d="M203 0v1480h68v-1480h-68zM312 1708q-36 10 -90 30q-47 18 -76.5 26.5t-60.5 8.5q-52 0 -91.5 -17t-73.5 -54v68q57 60 165 60q41 0 77 -10t90 -30q47 -18 76.5 -26.5t60.5 -8.5q52 0 91.5 17t74.5 54v-68q-58 -60 -166 -60q-41 0 -77 10z" />
    <glyph glyph-name="itilde" unicode="&#x129;" horiz-adv-x="434" 
d="M183 0v1080h68v-1080h-68zM285.5 1390.5q-35.5 10.5 -83.5 30.5q-46 18 -73 26t-54 8q-47 0 -85 -17t-72 -53v67q56 61 157 61q38 0 73.5 -10.5t83.5 -30.5q46 -18 73 -26t54 -8q47 0 85 17t73 53v-67q-58 -61 -158 -61q-38 0 -73.5 10.5z" />
    <glyph glyph-name="Imacron" unicode="&#x12a;" horiz-adv-x="474" 
d="M203 0v1480h68v-1480h-68zM-48 1723v59h570v-59h-570z" />
    <glyph glyph-name="imacron" unicode="&#x12b;" horiz-adv-x="434" 
d="M183 0v1080h68v-1080h-68zM-82 1394v60h599v-60h-599z" />
    <glyph glyph-name="Ibreve" unicode="&#x12c;" horiz-adv-x="474" 
d="M203 0v1480h68v-1480h-68zM21.5 1691q-76.5 63 -86.5 169h59q13 -85 69.5 -128.5t175.5 -43.5q120 0 175 43.5t66 128.5h59q-10 -107 -84.5 -169.5t-215.5 -62.5t-217.5 63z" />
    <glyph glyph-name="ibreve" unicode="&#x12d;" horiz-adv-x="434" 
d="M183 0v1080h68v-1080h-68zM14.5 1360q-73.5 84 -79.5 228h59q16 -254 225 -254q108 0 161 65.5t60 188.5h59q-5 -145 -77.5 -228.5t-202.5 -83.5q-131 0 -204.5 84z" />
    <glyph glyph-name="Iogonek" unicode="&#x12e;" horiz-adv-x="474" 
d="M304 -338.5q41 9.5 99 31.5v-54q-88 -39 -178 -39q-103 0 -158.5 44t-55.5 125q0 74 44.5 135.5t147.5 120.5v1455h68v-1480q-114 -57 -159 -110.5t-45 -117.5q0 -59 39.5 -89.5t115.5 -30.5q41 0 82 9.5z" />
    <glyph glyph-name="iogonek" unicode="&#x12f;" horiz-adv-x="434" 
d="M172.5 1377q-17.5 17 -17.5 45t17.5 46t44.5 18t44.5 -18t17.5 -46t-17.5 -45t-44.5 -17t-44.5 17zM364 -303v-56q-34 -19 -77 -30t-82 -11q-90 0 -142 45.5t-52 123.5q0 73 41.5 134t130.5 119v1058h68v-1080q-98 -57 -141 -110t-43 -118q0 -56 36 -88t99 -32
q82 0 162 45z" />
    <glyph glyph-name="Idotaccent" unicode="&#x130;" horiz-adv-x="474" 
d="M203 0v1480h68v-1480h-68zM192.5 1707q-17.5 17 -17.5 45t17.5 46t44.5 18t44.5 -18t17.5 -46t-17.5 -45t-44.5 -17t-44.5 17z" />
    <glyph glyph-name="dotlessi" unicode="&#x131;" horiz-adv-x="434" 
d="M183 0v1080h68v-1080h-68z" />
    <glyph glyph-name="Jcircumflex" unicode="&#x134;" horiz-adv-x="474" 
d="M2 -305q105 136 153 276t48 315v1194h68v-1228q-9 -176 -59 -312.5t-162 -279.5zM537 1616h-86l-213 227l-214 -227h-87l262 272h76z" />
    <glyph glyph-name="jcircumflex" unicode="&#x135;" horiz-adv-x="434" 
d="M-19 -425q106 136 154 276t48 315v914h68v-908q0 -189 -52.5 -336.5t-168.5 -295.5zM494 1273h-74l-202 305l-203 -305h-75l239 352h76z" />
    <glyph glyph-name="Kcommaaccent" unicode="&#x136;" horiz-adv-x="1255" 
d="M1164 0l-608 728h-285v-728h-68v1480h68v-686h290l563 686h85l-593 -718l635 -762h-87zM690.5 -206q17.5 -22 17.5 -64q0 -38 -11 -86t-33 -92h-44q28 71 33 138h-7q-27 0 -44.5 18t-17.5 46q0 27 16.5 44.5t41.5 17.5q31 0 48.5 -22z" />
    <glyph glyph-name="kcommaaccent" unicode="&#x137;" horiz-adv-x="1020" 
d="M945 0l-462 520h-232v-520h-68v1616h68v-1032h232l430 496h85l-456 -527l488 -553h-85zM592.5 -206q17.5 -22 17.5 -64q0 -38 -11 -86t-33 -92h-44q28 71 33 138h-7q-27 0 -44.5 18t-17.5 46q0 27 16.5 44.5t41.5 17.5q31 0 48.5 -22z" />
    <glyph glyph-name="kgreenlandic" unicode="&#x138;" horiz-adv-x="1020" 
d="M945 0l-462 520h-232v-520h-68v1080h68v-496h232l430 496h85l-456 -527l488 -553h-85z" />
    <glyph glyph-name="Lacute" unicode="&#x139;" horiz-adv-x="1096" 
d="M203 0v1480h68v-1414h807v-66h-875zM203 1616l199 272h82l-213 -272h-68z" />
    <glyph glyph-name="lacute" unicode="&#x13a;" horiz-adv-x="434" 
d="M183 0v1616h68v-1616h-68zM183 1712l199 272h82l-213 -272h-68z" />
    <glyph glyph-name="Lcommaaccent" unicode="&#x13b;" horiz-adv-x="1096" 
d="M203 0v1480h68v-1414h807v-66h-875zM686.5 -206q17.5 -22 17.5 -64q0 -38 -11 -86t-33 -92h-44q28 71 33 138h-7q-27 0 -44.5 18t-17.5 46q0 27 16.5 44.5t41.5 17.5q31 0 48.5 -22z" />
    <glyph glyph-name="lcommaaccent" unicode="&#x13c;" horiz-adv-x="434" 
d="M183 0v1616h68v-1616h-68zM261.5 -206q17.5 -22 17.5 -64q0 -38 -11 -86t-33 -92h-44q28 71 33 138h-7q-27 0 -44.5 18t-17.5 46q0 27 16.5 44.5t41.5 17.5q31 0 48.5 -22z" />
    <glyph glyph-name="Lcaron" unicode="&#x13d;" horiz-adv-x="1096" 
d="M203 0v1480h68v-1414h807v-66h-875zM706.5 1350.5q3.5 115.5 3.5 265.5h64q0 -293 -36 -476h-46q11 95 14.5 210.5z" />
    <glyph glyph-name="lcaron" unicode="&#x13e;" horiz-adv-x="434" 
d="M183 0v1616h68v-1616h-68zM381 1616h64q0 -253 -36 -436h-46q18 158 18 436z" />
    <glyph glyph-name="Ldot" unicode="&#x13f;" horiz-adv-x="1096" 
d="M203 0v1480h68v-1414h807v-66h-875zM727.5 727q-17.5 17 -17.5 45t17.5 46t44.5 18t44.5 -18t17.5 -46t-17.5 -45t-44.5 -17t-44.5 17z" />
    <glyph glyph-name="ldot" unicode="&#x140;" horiz-adv-x="434" 
d="M183 0v1616h68v-1616h-68zM376.5 747q-17.5 17 -17.5 45t17.5 46t44.5 18t44.5 -18t17.5 -46t-17.5 -45t-44.5 -17t-44.5 17z" />
    <glyph glyph-name="Lslash" unicode="&#x141;" horiz-adv-x="1096" 
d="M271 66h807v-66h-875v701l-161 -133l-38 47l199 164v701h68v-644l296 244l39 -46l-335 -277v-691z" />
    <glyph glyph-name="lslash" unicode="&#x142;" horiz-adv-x="434" 
d="M422 843l-171 -141v-702h-68v646l-129 -107l-39 46l168 138v893h68v-837l133 110z" />
    <glyph glyph-name="Nacute" unicode="&#x143;" horiz-adv-x="1517" 
d="M1248 1480h66v-1480h-75l-970 1377v-1377h-66v1480h75l970 -1377v1377zM725 1616l199 272h82l-213 -272h-68z" />
    <glyph glyph-name="nacute" unicode="&#x144;" horiz-adv-x="1166" 
d="M183 1080h60l6 -131h8q77 71 175 109t205 38q362 0 362 -377v-719h-68v720q0 165 -76 237.5t-219 72.5q-103 0 -206.5 -42t-178.5 -133v-855h-68v1080zM558 1264l238 352h81l-251 -352h-68z" />
    <glyph glyph-name="Ncommaaccent" unicode="&#x145;" horiz-adv-x="1517" 
d="M1248 1480h66v-1480h-75l-970 1377v-1377h-66v1480h75l970 -1377v1377zM803.5 -206q17.5 -22 17.5 -64q0 -38 -11 -86t-33 -92h-44q28 71 33 138h-7q-27 0 -44.5 18t-17.5 46q0 27 16.5 44.5t41.5 17.5q31 0 48.5 -22z" />
    <glyph glyph-name="ncommaaccent" unicode="&#x146;" horiz-adv-x="1166" 
d="M183 1080h60l6 -131h8q77 71 175 109t205 38q362 0 362 -377v-719h-68v720q0 165 -76 237.5t-219 72.5q-103 0 -206.5 -42t-178.5 -133v-855h-68v1080zM636.5 -206q17.5 -22 17.5 -64q0 -38 -11 -86t-33 -92h-44q28 71 33 138h-7q-27 0 -44.5 18t-17.5 46q0 27 16.5 44.5
t41.5 17.5q31 0 48.5 -22z" />
    <glyph glyph-name="Ncaron" unicode="&#x147;" horiz-adv-x="1517" 
d="M1248 1480h66v-1480h-75l-970 1377v-1377h-66v1480h75l970 -1377v1377zM973 1888h86l-262 -272h-76l-262 272h87l214 -227z" />
    <glyph glyph-name="ncaron" unicode="&#x148;" horiz-adv-x="1166" 
d="M183 1080h60l6 -131h8q77 71 175 109t205 38q362 0 362 -377v-719h-68v720q0 165 -76 237.5t-219 72.5q-103 0 -206.5 -42t-178.5 -133v-855h-68v1080zM801 1616h74l-245 -352h-76l-245 352h75l209 -306z" />
    <glyph glyph-name="napostrophe" unicode="&#x149;" horiz-adv-x="1166" 
d="M183 1080h60l6 -131h8q77 71 175 109t205 38q362 0 362 -377v-719h-68v720q0 165 -76 237.5t-219 72.5q-103 0 -206.5 -42t-178.5 -133v-855h-68v1080zM121.5 1602q17.5 -22 17.5 -64q0 -38 -11 -86t-33 -92h-44q28 71 33 138h-7q-27 0 -44.5 18t-17.5 46q0 27 16.5 44.5
t41.5 17.5q31 0 48.5 -22z" />
    <glyph glyph-name="Eng" unicode="&#x14a;" horiz-adv-x="1517" 
d="M1314 1480v-1308q0 -188 -52.5 -335.5t-168.5 -296.5l-49 35q80 103 127 207t65 221l-967 1372v-1375h-66v1480h75l969 -1373q1 19 1 59v1314h66z" />
    <glyph glyph-name="eng" unicode="&#x14b;" horiz-adv-x="1166" 
d="M729 -425q106 136 154 276t48 315v557q0 164 -77 235.5t-218 71.5q-106 0 -208.5 -43.5t-176.5 -133.5v-853h-68v1080h60l6 -131h8q76 73 174 110t208 37q170 0 265 -88.5t95 -283.5v-592q-10 -177 -59.5 -313t-161.5 -279z" />
    <glyph glyph-name="Omacron" unicode="&#x14c;" horiz-adv-x="1470" 
d="M289.5 167q-161.5 185 -161.5 573q0 262 76 431t211.5 248t319.5 79q284 0 445.5 -184.5t161.5 -573.5q0 -261 -76 -430t-211.5 -248.5t-319.5 -79.5q-284 0 -445.5 185zM1129 213q141 163 141 523q0 695 -535 695q-252 0 -393.5 -163.5t-141.5 -523.5q0 -694 535 -694
q253 0 394 163zM450 1723v59h570v-59h-570z" />
    <glyph glyph-name="omacron" unicode="&#x14d;" horiz-adv-x="1131" 
d="M236.5 118q-118.5 136 -118.5 422q0 283 119.5 419.5t328.5 136.5q211 0 329 -134.5t118 -421.5q0 -283 -119 -420.5t-328 -137.5q-211 0 -329.5 136zM843.5 163.5q97.5 115.5 97.5 374.5q0 261 -97 376.5t-278 115.5t-278.5 -114.5t-97.5 -372.5q0 -262 97.5 -378.5
t278.5 -116.5q180 0 277.5 115.5zM267 1394v60h599v-60h-599z" />
    <glyph glyph-name="Obreve" unicode="&#x14e;" horiz-adv-x="1470" 
d="M289.5 167q-161.5 185 -161.5 573q0 262 76 431t211.5 248t319.5 79q284 0 445.5 -184.5t161.5 -573.5q0 -261 -76 -430t-211.5 -248.5t-319.5 -79.5q-284 0 -445.5 185zM1129 213q141 163 141 523q0 695 -535 695q-252 0 -393.5 -163.5t-141.5 -523.5q0 -694 535 -694
q253 0 394 163zM519.5 1691q-76.5 63 -86.5 169h59q13 -85 69.5 -128.5t175.5 -43.5q120 0 175 43.5t66 128.5h59q-10 -107 -84.5 -169.5t-215.5 -62.5t-217.5 63z" />
    <glyph glyph-name="obreve" unicode="&#x14f;" horiz-adv-x="1131" 
d="M236.5 118q-118.5 136 -118.5 422q0 283 119.5 419.5t328.5 136.5q211 0 329 -134.5t118 -421.5q0 -283 -119 -420.5t-328 -137.5q-211 0 -329.5 136zM843.5 163.5q97.5 115.5 97.5 374.5q0 261 -97 376.5t-278 115.5t-278.5 -114.5t-97.5 -372.5q0 -262 97.5 -378.5
t278.5 -116.5q180 0 277.5 115.5zM363.5 1360q-73.5 84 -79.5 228h59q16 -254 225 -254q108 0 161 65.5t60 188.5h59q-5 -145 -77.5 -228.5t-202.5 -83.5q-131 0 -204.5 84z" />
    <glyph glyph-name="Ohungarumlaut" unicode="&#x150;" horiz-adv-x="1470" 
d="M289.5 167q-161.5 185 -161.5 573q0 262 76 431t211.5 248t319.5 79q284 0 445.5 -184.5t161.5 -573.5q0 -261 -76 -430t-211.5 -248.5t-319.5 -79.5q-284 0 -445.5 185zM1129 213q141 163 141 523q0 695 -535 695q-252 0 -393.5 -163.5t-141.5 -523.5q0 -694 535 -694
q253 0 394 163zM545 1616l142 272h70l-147 -272h-65zM861 1616l141 272h70l-147 -272h-64z" />
    <glyph glyph-name="ohungarumlaut" unicode="&#x151;" horiz-adv-x="1131" 
d="M236.5 118q-118.5 136 -118.5 422q0 283 119.5 419.5t328.5 136.5q211 0 329 -134.5t118 -421.5q0 -283 -119 -420.5t-328 -137.5q-211 0 -329.5 136zM843.5 163.5q97.5 115.5 97.5 374.5q0 261 -97 376.5t-278 115.5t-278.5 -114.5t-97.5 -372.5q0 -262 97.5 -378.5
t278.5 -116.5q180 0 277.5 115.5zM380 1264l158 352h68l-165 -352h-61zM692 1264l158 352h68l-165 -352h-61z" />
    <glyph glyph-name="OE" unicode="&#x152;" horiz-adv-x="2090" 
d="M2001 66v-66h-800q-57 0 -149 -5q-158 -5 -189 -5q-363 0 -549 186t-186 564q0 376 183.5 565t538.5 189q47 0 104 -3t74 -4q98 -7 157 -7h806v-66h-793v-620h695v-66h-695v-662h803zM1130 1413q-135 15 -274 15q-328 0 -492 -168.5t-164 -519.5t165.5 -517.5
t495.5 -166.5q173 0 269 12v1345z" />
    <glyph glyph-name="oe" unicode="&#x153;" horiz-adv-x="1859" 
d="M1761 510h-756q6 -241 113.5 -351.5t306.5 -110.5q126 0 285 53v-68q-147 -51 -289 -51q-360 0 -453 312q-44 -158 -148.5 -235t-257.5 -77q-208 0 -326 136t-118 422q0 283 119 419.5t325 136.5q155 0 259 -75t148 -234q40 156 137.5 233t245.5 77q197 0 303 -137.5
t106 -416.5v-33zM1099.5 921.5q-89.5 -109.5 -94.5 -345.5h685q-5 238 -90.5 346.5t-247.5 108.5q-163 0 -252.5 -109.5zM836.5 163.5q96.5 115.5 96.5 374.5q0 261 -96.5 376.5t-274.5 115.5t-275 -115t-97 -372q0 -262 97 -378.5t275 -116.5t274.5 115.5z" />
    <glyph glyph-name="Racute" unicode="&#x154;" horiz-adv-x="1338" 
d="M1171 0l-531 654q-51 -3 -106 -3q-72 0 -129 3t-134 9v-663h-68v1458q93 17 181 26.5t200 9.5q195 0 320 -43.5t186 -135.5t61 -238q1 -180 -107 -283.5t-328 -131.5l540 -662h-85zM406 718.5q51 -2.5 128 -2.5q194 0 315 39.5t177.5 118.5t56.5 200q0 130 -51.5 207.5
t-161 112t-289.5 34.5q-95 0 -164 -6.5t-146 -20.5v-673q84 -7 135 -9.5zM606 1616l199 272h82l-213 -272h-68z" />
    <glyph glyph-name="racute" unicode="&#x155;" horiz-adv-x="727" 
d="M183 1080h60l6 -147h8q64 72 161 113.5t195 41.5q54 0 99 -8v-68q-38 6 -99 6q-95 0 -196 -45.5t-166 -132.5v-840h-68v1080zM407 1264l238 352h81l-251 -352h-68z" />
    <glyph glyph-name="Rcommaaccent" unicode="&#x156;" horiz-adv-x="1338" 
d="M1171 0l-531 654q-51 -3 -106 -3q-72 0 -129 3t-134 9v-663h-68v1458q93 17 181 26.5t200 9.5q195 0 320 -43.5t186 -135.5t61 -238q1 -180 -107 -283.5t-328 -131.5l540 -662h-85zM406 718.5q51 -2.5 128 -2.5q194 0 315 39.5t177.5 118.5t56.5 200q0 130 -51.5 207.5
t-161 112t-289.5 34.5q-95 0 -164 -6.5t-146 -20.5v-673q84 -7 135 -9.5zM736.5 -206q17.5 -22 17.5 -64q0 -38 -11 -86t-33 -92h-44q28 71 33 138h-7q-27 0 -44.5 18t-17.5 46q0 27 16.5 44.5t41.5 17.5q31 0 48.5 -22z" />
    <glyph glyph-name="rcommaaccent" unicode="&#x157;" horiz-adv-x="727" 
d="M183 1080h60l6 -147h8q64 72 161 113.5t195 41.5q54 0 99 -8v-68q-38 6 -99 6q-95 0 -196 -45.5t-166 -132.5v-840h-68v1080zM261.5 -206q17.5 -22 17.5 -64q0 -38 -11 -86t-33 -92h-44q28 71 33 138h-7q-27 0 -44.5 18t-17.5 46q0 27 16.5 44.5t41.5 17.5q31 0 48.5 -22
z" />
    <glyph glyph-name="Rcaron" unicode="&#x158;" horiz-adv-x="1338" 
d="M1171 0l-531 654q-51 -3 -106 -3q-72 0 -129 3t-134 9v-663h-68v1458q93 17 181 26.5t200 9.5q195 0 320 -43.5t186 -135.5t61 -238q1 -180 -107 -283.5t-328 -131.5l540 -662h-85zM406 718.5q51 -2.5 128 -2.5q194 0 315 39.5t177.5 118.5t56.5 200q0 130 -51.5 207.5
t-161 112t-289.5 34.5q-95 0 -164 -6.5t-146 -20.5v-673q84 -7 135 -9.5zM854 1888h86l-262 -272h-76l-262 272h87l214 -227z" />
    <glyph glyph-name="rcaron" unicode="&#x159;" horiz-adv-x="727" 
d="M183 1080h60l6 -147h8q64 72 161 113.5t195 41.5q54 0 99 -8v-68q-38 6 -99 6q-95 0 -196 -45.5t-166 -132.5v-840h-68v1080zM650 1616h74l-245 -352h-76l-245 352h75l209 -306z" />
    <glyph glyph-name="Sacute" unicode="&#x15a;" horiz-adv-x="1082" 
d="M292 -2.5q-95 15.5 -181 45.5v68q188 -63 367 -63q218 0 328.5 84t110.5 248q0 92 -37 152.5t-116 100.5t-211 70l-67 15q-201 45 -296.5 139.5t-95.5 250.5q0 121 56.5 208.5t168 134.5t274.5 47q87 0 173.5 -12.5t162.5 -36.5v-68q-168 51 -340 51q-210 0 -316.5 -82
t-106.5 -238q0 -91 33.5 -152t107 -102t199.5 -70l67 -15q147 -33 238 -84.5t134.5 -126.5t43.5 -180q0 -193 -133.5 -296.5t-380.5 -103.5q-88 0 -183 15.5zM514 1616l199 272h82l-213 -272h-68z" />
    <glyph glyph-name="sacute" unicode="&#x15b;" horiz-adv-x="922" 
d="M273.5 -8q-71.5 10 -140.5 33v68q84 -25 153.5 -35t146.5 -10q170 0 250 58t80 168q0 62 -21 103.5t-69 68.5t-130 43l-147 29q-147 31 -212.5 101t-65.5 183q0 86 43 152t133.5 104t225.5 38q131 0 255 -34v-68q-71 20 -129.5 28t-125.5 8q-172 0 -251 -61t-79 -165
q0 -84 47 -137t163 -77l148 -29q153 -31 219.5 -98.5t66.5 -181.5q0 -141 -102 -220t-304 -79q-83 0 -154.5 10zM432 1264l238 352h81l-251 -352h-68z" />
    <glyph glyph-name="Scircumflex" unicode="&#x15c;" horiz-adv-x="1082" 
d="M292 -2.5q-95 15.5 -181 45.5v68q188 -63 367 -63q218 0 328.5 84t110.5 248q0 92 -37 152.5t-116 100.5t-211 70l-67 15q-201 45 -296.5 139.5t-95.5 250.5q0 121 56.5 208.5t168 134.5t274.5 47q87 0 173.5 -12.5t162.5 -36.5v-68q-168 51 -340 51q-210 0 -316.5 -82
t-106.5 -238q0 -91 33.5 -152t107 -102t199.5 -70l67 -15q147 -33 238 -84.5t134.5 -126.5t43.5 -180q0 -193 -133.5 -296.5t-380.5 -103.5q-88 0 -183 15.5zM848 1616h-86l-213 227l-214 -227h-87l262 272h76z" />
    <glyph glyph-name="scircumflex" unicode="&#x15d;" horiz-adv-x="922" 
d="M273.5 -8q-71.5 10 -140.5 33v68q84 -25 153.5 -35t146.5 -10q170 0 250 58t80 168q0 62 -21 103.5t-69 68.5t-130 43l-147 29q-147 31 -212.5 101t-65.5 183q0 86 43 152t133.5 104t225.5 38q131 0 255 -34v-68q-71 20 -129.5 28t-125.5 8q-172 0 -251 -61t-79 -165
q0 -84 47 -137t163 -77l148 -29q153 -31 219.5 -98.5t66.5 -181.5q0 -141 -102 -220t-304 -79q-83 0 -154.5 10zM743 1264h-74l-202 305l-203 -305h-75l239 352h76z" />
    <glyph glyph-name="Scedilla" unicode="&#x15e;" horiz-adv-x="1082" 
d="M882.5 108.5q-106.5 -101.5 -306.5 -121.5v-99q85 -2 134 -38.5t49 -105.5q0 -71 -53 -107.5t-146 -36.5q-49 0 -101 10t-93 29v56q55 -23 101 -33t93 -10q143 0 143 92t-145 92h-38v147q-15 -1 -45 -1q-88 0 -183 15.5t-181 45.5v68q188 -63 367 -63q218 0 328.5 84
t110.5 248q0 92 -37 152.5t-116 100.5t-211 70l-67 15q-201 45 -296.5 139.5t-95.5 250.5q0 121 56.5 208.5t168 134.5t274.5 47q87 0 173.5 -12.5t162.5 -36.5v-68q-168 51 -340 51q-210 0 -316.5 -82t-106.5 -238q0 -91 33.5 -152t107 -102t199.5 -70l67 -15
q147 -33 238 -84.5t134.5 -126.5t43.5 -180q0 -172 -106.5 -273.5z" />
    <glyph glyph-name="scedilla" unicode="&#x15f;" horiz-adv-x="922" 
d="M749 75q-85 -78 -253 -90v-98q77 -5 119 -42t42 -102q0 -68 -48 -105.5t-133 -37.5q-46 0 -93.5 10t-79.5 28v56q84 -42 174 -42q63 0 93.5 22.5t30.5 68.5q0 48 -31 70.5t-95 22.5h-35v146h-12q-83 0 -154.5 10t-140.5 33v68q84 -25 153.5 -35t146.5 -10q170 0 250 58
t80 168q0 62 -21 103.5t-69 68.5t-130 43l-147 29q-147 31 -212.5 101t-65.5 183q0 86 43 152t133.5 104t225.5 38q131 0 255 -34v-68q-71 20 -129.5 28t-125.5 8q-172 0 -251 -61t-79 -165q0 -84 47 -137t163 -77l148 -29q153 -31 219.5 -98.5t66.5 -181.5q0 -128 -85 -206
z" />
    <glyph glyph-name="Scaron" unicode="&#x160;" horiz-adv-x="1082" 
d="M292 -2.5q-95 15.5 -181 45.5v68q188 -63 367 -63q218 0 328.5 84t110.5 248q0 92 -37 152.5t-116 100.5t-211 70l-67 15q-201 45 -296.5 139.5t-95.5 250.5q0 121 56.5 208.5t168 134.5t274.5 47q87 0 173.5 -12.5t162.5 -36.5v-68q-168 51 -340 51q-210 0 -316.5 -82
t-106.5 -238q0 -91 33.5 -152t107 -102t199.5 -70l67 -15q147 -33 238 -84.5t134.5 -126.5t43.5 -180q0 -193 -133.5 -296.5t-380.5 -103.5q-88 0 -183 15.5zM762 1888h86l-262 -272h-76l-262 272h87l214 -227z" />
    <glyph glyph-name="scaron" unicode="&#x161;" horiz-adv-x="922" 
d="M273.5 -8q-71.5 10 -140.5 33v68q84 -25 153.5 -35t146.5 -10q170 0 250 58t80 168q0 62 -21 103.5t-69 68.5t-130 43l-147 29q-147 31 -212.5 101t-65.5 183q0 86 43 152t133.5 104t225.5 38q131 0 255 -34v-68q-71 20 -129.5 28t-125.5 8q-172 0 -251 -61t-79 -165
q0 -84 47 -137t163 -77l148 -29q153 -31 219.5 -98.5t66.5 -181.5q0 -141 -102 -220t-304 -79q-83 0 -154.5 10zM675 1616h74l-245 -352h-76l-245 352h75l209 -306z" />
    <glyph glyph-name="uni0162" unicode="&#x162;" horiz-adv-x="1178" 
d="M617 0v-112q85 -2 134 -38.5t49 -105.5q0 -71 -53 -107.5t-146 -36.5q-49 0 -101 10t-93 29v56q55 -23 101 -33t93 -10q143 0 143 92t-145 92h-38v164h-6v1414h-538v66h1144v-66h-538v-1414h-6z" />
    <glyph glyph-name="uni0163" unicode="&#x163;" horiz-adv-x="745" 
d="M520 -15v-98q77 -5 119 -42t42 -102q0 -68 -48 -105.5t-133 -37.5q-46 0 -93.5 10t-79.5 28v56q84 -42 174 -42q63 0 93.5 22.5t30.5 68.5q0 48 -31 70.5t-95 22.5h-35v158q-223 55 -223 332v690h-230v64h230l8 400h60v-400h406v-64h-406v-678q0 -153 69 -221.5
t205 -68.5q68 0 155 21v-68q-43 -11 -79.5 -15t-79.5 -4q-30 0 -59 3z" />
    <glyph glyph-name="Tcaron" unicode="&#x164;" horiz-adv-x="1178" 
d="M555 0v1414h-538v66h1144v-66h-538v-1414h-68zM803 1888h86l-262 -272h-76l-262 272h87l214 -227z" />
    <glyph glyph-name="tcaron" unicode="&#x165;" horiz-adv-x="745" 
d="M738 69v-68q-43 -11 -79.5 -15t-79.5 -4q-163 0 -250.5 84.5t-87.5 259.5v690h-230v64h230l8 400h60v-400h406v-64h-406v-678q0 -153 69 -221.5t205 -68.5q68 0 155 21zM510 1616h64q0 -253 -36 -436h-46q18 158 18 436z" />
    <glyph glyph-name="Tbar" unicode="&#x166;" horiz-adv-x="1178" 
d="M1161 1414h-538v-584h358v-60h-358v-770h-68v770h-358v60h358v584h-538v66h1144v-66z" />
    <glyph glyph-name="tbar" unicode="&#x167;" horiz-adv-x="745" 
d="M738 69v-68q-43 -11 -79.5 -15t-79.5 -4q-163 0 -250.5 84.5t-87.5 259.5v304h-169v60h169v326h-230v64h230l8 400h60v-400h406v-64h-406v-326h356v-60h-356v-292q0 -153 69 -221.5t205 -68.5q68 0 155 21z" />
    <glyph glyph-name="Utilde" unicode="&#x168;" horiz-adv-x="1459" 
d="M429 41.5q-118 59.5 -176 184t-58 322.5v932h68v-942q0 -171 49.5 -279t152.5 -159.5t266 -51.5q162 0 265 51.5t152.5 159.5t49.5 279v942h66v-932q0 -198 -57.5 -322.5t-174.5 -184t-301 -59.5t-302 59.5zM806 1708q-36 10 -90 30q-47 18 -76.5 26.5t-60.5 8.5
q-52 0 -91.5 -17t-73.5 -54v68q57 60 165 60q41 0 77 -10t90 -30q47 -18 76.5 -26.5t60.5 -8.5q52 0 91.5 17t74.5 54v-68q-58 -60 -166 -60q-41 0 -77 10z" />
    <glyph glyph-name="utilde" unicode="&#x169;" horiz-adv-x="1156" 
d="M261 71q-94 89 -94 284v725h68v-725q0 -163 76 -235t213 -72q103 0 205 44t176 133v855h68v-1080h-60l-6 126h-8q-76 -70 -173.5 -107t-203.5 -37q-167 0 -261 89zM638.5 1390.5q-35.5 10.5 -83.5 30.5q-46 18 -73 26t-54 8q-47 0 -85 -17t-72 -53v67q56 61 157 61
q38 0 73.5 -10.5t83.5 -30.5q46 -18 73 -26t54 -8q47 0 85 17t73 53v-67q-58 -61 -158 -61q-38 0 -73.5 10.5z" />
    <glyph glyph-name="Umacron" unicode="&#x16a;" horiz-adv-x="1459" 
d="M429 41.5q-118 59.5 -176 184t-58 322.5v932h68v-942q0 -171 49.5 -279t152.5 -159.5t266 -51.5q162 0 265 51.5t152.5 159.5t49.5 279v942h66v-932q0 -198 -57.5 -322.5t-174.5 -184t-301 -59.5t-302 59.5zM446 1723v59h570v-59h-570z" />
    <glyph glyph-name="umacron" unicode="&#x16b;" horiz-adv-x="1156" 
d="M261 71q-94 89 -94 284v725h68v-725q0 -163 76 -235t213 -72q103 0 205 44t176 133v855h68v-1080h-60l-6 126h-8q-76 -70 -173.5 -107t-203.5 -37q-167 0 -261 89zM271 1394v60h599v-60h-599z" />
    <glyph glyph-name="Ubreve" unicode="&#x16c;" horiz-adv-x="1459" 
d="M429 41.5q-118 59.5 -176 184t-58 322.5v932h68v-942q0 -171 49.5 -279t152.5 -159.5t266 -51.5q162 0 265 51.5t152.5 159.5t49.5 279v942h66v-932q0 -198 -57.5 -322.5t-174.5 -184t-301 -59.5t-302 59.5zM515.5 1691q-76.5 63 -86.5 169h59q13 -85 69.5 -128.5
t175.5 -43.5q120 0 175 43.5t66 128.5h59q-10 -107 -84.5 -169.5t-215.5 -62.5t-217.5 63z" />
    <glyph glyph-name="ubreve" unicode="&#x16d;" horiz-adv-x="1156" 
d="M261 71q-94 89 -94 284v725h68v-725q0 -163 76 -235t213 -72q103 0 205 44t176 133v855h68v-1080h-60l-6 126h-8q-76 -70 -173.5 -107t-203.5 -37q-167 0 -261 89zM367.5 1360q-73.5 84 -79.5 228h59q16 -254 225 -254q108 0 161 65.5t60 188.5h59q-5 -145 -77.5 -228.5
t-202.5 -83.5q-131 0 -204.5 84z" />
    <glyph glyph-name="Uring" unicode="&#x16e;" horiz-adv-x="1459" 
d="M429 41.5q-118 59.5 -176 184t-58 322.5v932h68v-942q0 -171 49.5 -279t152.5 -159.5t266 -51.5q162 0 265 51.5t152.5 159.5t49.5 279v942h66v-932q0 -198 -57.5 -322.5t-174.5 -184t-301 -59.5t-302 59.5zM637 1636q-42 24 -66 66t-24 94t24 94t66 66t94 24t94 -24
t66 -66t24 -94t-24 -94t-66 -66t-94 -24t-94 24zM825 1699.5q36 35.5 36 96.5t-36 96.5t-94 35.5t-94 -35.5t-36 -96.5t36 -96.5t94 -35.5t94 35.5z" />
    <glyph glyph-name="uring" unicode="&#x16f;" horiz-adv-x="1156" 
d="M261 71q-94 89 -94 284v725h68v-725q0 -163 76 -235t213 -72q103 0 205 44t176 133v855h68v-1080h-60l-6 126h-8q-76 -70 -173.5 -107t-203.5 -37q-167 0 -261 89zM476 1284q-42 24 -66 66t-24 94t24 94t66 66t94 24t94 -24t66 -66t24 -94t-24 -94t-66 -66t-94 -24
t-94 24zM664 1347.5q36 35.5 36 96.5t-36 96.5t-94 35.5t-94 -35.5t-36 -96.5t36 -96.5t94 -35.5t94 35.5z" />
    <glyph glyph-name="Uhungarumlaut" unicode="&#x170;" horiz-adv-x="1459" 
d="M429 41.5q-118 59.5 -176 184t-58 322.5v932h68v-942q0 -171 49.5 -279t152.5 -159.5t266 -51.5q162 0 265 51.5t152.5 159.5t49.5 279v942h66v-932q0 -198 -57.5 -322.5t-174.5 -184t-301 -59.5t-302 59.5zM541 1616l142 272h70l-147 -272h-65zM857 1616l141 272h70
l-147 -272h-64z" />
    <glyph glyph-name="uhungarumlaut" unicode="&#x171;" horiz-adv-x="1156" 
d="M261 71q-94 89 -94 284v725h68v-725q0 -163 76 -235t213 -72q103 0 205 44t176 133v855h68v-1080h-60l-6 126h-8q-76 -70 -173.5 -107t-203.5 -37q-167 0 -261 89zM384 1264l158 352h68l-165 -352h-61zM696 1264l158 352h68l-165 -352h-61z" />
    <glyph glyph-name="Uogonek" unicode="&#x172;" horiz-adv-x="1459" 
d="M1264 1480v-932q0 -232 -79.5 -365t-251.5 -178q-137 -38 -200 -96t-63 -131q0 -61 39.5 -92t115.5 -31q41 0 82 9.5t99 31.5v-54q-88 -39 -178 -39q-105 0 -159.5 45t-54.5 130q0 59 32 112.5t102 91.5h-17q-184 0 -302 59.5t-176 184t-58 322.5v932h68v-942
q0 -171 49.5 -279t152.5 -159.5t266 -51.5q162 0 265 51.5t152.5 159.5t49.5 279v942h66z" />
    <glyph glyph-name="uogonek" unicode="&#x173;" horiz-adv-x="1156" 
d="M1086 -303v-56q-34 -19 -77 -30t-82 -11q-90 0 -142 45.5t-52 123.5q0 74 43 136.5t136 120.5l-5 100h-8q-76 -70 -173.5 -107t-203.5 -37q-167 0 -261 89t-94 284v725h68v-725q0 -163 76 -235t213 -72q103 0 205 44t176 133v855h68v-1080q-98 -57 -141 -110t-43 -118
q0 -56 36 -88t99 -32q82 0 162 45z" />
    <glyph glyph-name="Wcircumflex" unicode="&#x174;" horiz-adv-x="2146" 
d="M1999 1480h70l-459 -1480h-94l-443 1403l-443 -1403h-94l-460 1480h73l435 -1414l442 1414h94l444 -1414zM1374 1616h-86l-213 227l-214 -227h-87l262 272h76z" />
    <glyph glyph-name="wcircumflex" unicode="&#x175;" horiz-adv-x="1714" 
d="M1564 1080h71l-350 -1080h-94l-333 1007l-333 -1007h-94l-352 1080h74l326 -1015l332 1015h94l334 -1015zM1136 1264h-74l-202 305l-203 -305h-75l239 352h76z" />
    <glyph glyph-name="Ycircumflex" unicode="&#x176;" horiz-adv-x="1178" 
d="M1188 1480l-565 -801v-679h-68v679l-573 801h86l522 -736l516 736h82zM889 1616h-86l-213 227l-214 -227h-87l262 272h76z" />
    <glyph glyph-name="ycircumflex" unicode="&#x177;" horiz-adv-x="1064" 
d="M961 1080h71l-638 -1520h-72l185 440h-21l-454 1080h76l425 -1025zM811 1264h-74l-202 305l-203 -305h-75l239 352h76z" />
    <glyph glyph-name="Ydieresis" unicode="&#x178;" horiz-adv-x="1178" 
d="M1188 1480l-565 -801v-679h-68v679l-573 801h86l522 -736l516 736h82zM304.5 1707q-17.5 17 -17.5 45t17.5 46t44.5 18t44.5 -18t17.5 -46t-17.5 -45t-44.5 -17t-44.5 17zM784.5 1707q-17.5 17 -17.5 45t17.5 46t44.5 18t44.5 -18t17.5 -46t-17.5 -45t-44.5 -17t-44.5 17
z" />
    <glyph glyph-name="Zacute" unicode="&#x179;" horiz-adv-x="1180" 
d="M163 64h950v-64h-1046v40l936 1376h-923v64h1020v-40zM556 1616l199 272h82l-213 -272h-68z" />
    <glyph glyph-name="zacute" unicode="&#x17a;" horiz-adv-x="927" 
d="M161 64h705v-64h-801v40l691 976h-678v64h775v-40zM432 1264l238 352h81l-251 -352h-68z" />
    <glyph glyph-name="Zdotaccent" unicode="&#x17b;" horiz-adv-x="1180" 
d="M163 64h950v-64h-1046v40l936 1376h-923v64h1020v-40zM545.5 1707q-17.5 17 -17.5 45t17.5 46t44.5 18t44.5 -18t17.5 -46t-17.5 -45t-44.5 -17t-44.5 17z" />
    <glyph glyph-name="zdotaccent" unicode="&#x17c;" horiz-adv-x="927" 
d="M161 64h705v-64h-801v40l691 976h-678v64h775v-40zM421.5 1377q-17.5 17 -17.5 45t17.5 46t44.5 18t44.5 -18t17.5 -46t-17.5 -45t-44.5 -17t-44.5 17z" />
    <glyph glyph-name="Zcaron" unicode="&#x17d;" horiz-adv-x="1180" 
d="M163 64h950v-64h-1046v40l936 1376h-923v64h1020v-40zM804 1888h86l-262 -272h-76l-262 272h87l214 -227z" />
    <glyph glyph-name="zcaron" unicode="&#x17e;" horiz-adv-x="927" 
d="M161 64h705v-64h-801v40l691 976h-678v64h775v-40zM675 1616h74l-245 -352h-76l-245 352h75l209 -306z" />
    <glyph glyph-name="uni018F" unicode="&#x18f;" horiz-adv-x="1472" 
d="M1344 739q0 -392 -160.5 -574.5t-443.5 -182.5q-294 0 -458 180t-164 563v55h1153q-6 234 -86 378.5t-225.5 209t-359.5 64.5q-99 0 -205 -12.5t-201 -39.5v68q185 50 406 50q744 0 744 -759zM1126.5 207.5q140.5 157.5 145.5 506.5h-1082q5 -351 147 -507.5t403 -156.5
q246 0 386.5 157.5z" />
    <glyph glyph-name="florin" unicode="&#x192;" horiz-adv-x="720" 
d="M388.5 1505.5q-71.5 -64.5 -71.5 -209.5v-216h406v-66h-406v-1127q0 -175 -91 -261t-273 -86q-83 0 -153 13v68q90 -15 157 -15q149 0 220.5 64.5t71.5 209.5v1134h-230v66h230v209q0 175 91 261t272 86q83 0 153 -13v-68q-90 15 -157 15q-148 0 -219.5 -64.5z" />
    <glyph glyph-name="Ohorn" unicode="&#x1a0;" horiz-adv-x="1470" 
d="M1273.5 1157q68.5 -165 68.5 -417q0 -393 -161 -575.5t-446 -182.5q-283 0 -445 185t-162 573q0 262 76 431t211.5 248t319.5 79q37 0 76 -3.5t76 -8.5q41 -5 87.5 -9t92.5 -4q100 0 154.5 40.5t54.5 120.5q0 39 -6 71t-19 71h66q13 -36 19 -68.5t6 -75.5
q0 -101 -68.5 -161t-195.5 -65q127 -84 195.5 -249zM1129 213q141 163 141 523q0 695 -535 695q-252 0 -393.5 -163.5t-141.5 -523.5q0 -694 535 -694q253 0 394 163z" />
    <glyph glyph-name="ohorn" unicode="&#x1a1;" horiz-adv-x="1131" 
d="M967 836.5q46 -119.5 46 -296.5q0 -283 -119 -420.5t-328 -137.5q-211 0 -329.5 136t-118.5 422q0 283 119.5 419.5t328.5 136.5q47 0 117 -6q54 -4 74 -4q101 0 155 41.5t54 126.5q0 39 -6 71t-19 71h66q13 -36 19 -68.5t6 -75.5q0 -95 -53.5 -154.5t-151.5 -74.5
q94 -67 140 -186.5zM843.5 163.5q97.5 115.5 97.5 374.5q0 261 -97 376.5t-278 115.5t-278.5 -114.5t-97.5 -372.5q0 -262 97.5 -378.5t278.5 -116.5q180 0 277.5 115.5z" />
    <glyph glyph-name="Uhorn" unicode="&#x1af;" horiz-adv-x="1459" 
d="M429 41.5q-118 59.5 -176 184t-58 322.5v932h68v-942q0 -171 49.5 -279t152.5 -159.5t266 -51.5q162 0 265 51.5t152.5 159.5t49.5 279v942h34q209 0 209 154q0 39 -6 71t-19 71h66q13 -36 19 -68.5t6 -75.5q0 -98 -64 -154t-179 -61v-869q0 -198 -57.5 -322.5
t-174.5 -184t-301 -59.5t-302 59.5z" />
    <glyph glyph-name="uhorn" unicode="&#x1b0;" horiz-adv-x="1176" 
d="M1151 1083q-63 -61 -178 -69v-1014h-60l-6 126h-8q-76 -70 -173.5 -107t-203.5 -37q-167 0 -261 89t-94 284v725h68v-725q0 -163 76 -235t213 -72q103 0 205 44t176 133v855h33q101 0 155.5 42t54.5 127q0 39 -6.5 71.5t-19.5 70.5h66q14 -36 20 -68t6 -76
q0 -103 -63 -164z" />
    <glyph glyph-name="uni01C4" unicode="&#x1c4;" horiz-adv-x="2563" 
d="M385 -5q-78 5 -182 18v1445q183 36 370 36q364 0 550 -188.5t186 -565.5q0 -380 -189 -565t-565 -185q-92 0 -170 5zM1068.5 222q168.5 166 168.5 518t-166 520t-504 168q-130 0 -296 -25v-1328q128 -19 286 -19q343 0 511.5 166zM1546 64h950v-64h-1046v40l936 1376
h-923v64h1020v-40zM2187 1888h86l-262 -272h-76l-262 272h87l214 -227z" />
    <glyph glyph-name="uni01C5" unicode="&#x1c5;" horiz-adv-x="2364" 
d="M385 -5q-78 5 -182 18v1445q183 36 370 36q364 0 550 -188.5t186 -565.5q0 -380 -189 -565t-565 -185q-92 0 -170 5zM1068.5 222q168.5 166 168.5 518t-166 520t-504 168q-130 0 -296 -25v-1328q128 -19 286 -19q343 0 511.5 166zM1598 64h705v-64h-801v40l691 976h-678
v64h775v-40zM2117 1568h86l-262 -272h-76l-262 272h87l214 -227z" />
    <glyph glyph-name="uni01C6" unicode="&#x1c6;" horiz-adv-x="2077" 
d="M238 112.5q-120 130.5 -120 405.5q0 292 138 435t411 143q111 0 232 -22v542h68v-1616h-60l-6 126h-8q-58 -67 -144 -105.5t-187 -38.5q-204 0 -324 130.5zM751 90.5q87 42.5 148 131.5v781q-48 13 -110.5 20t-125.5 7q-239 0 -356 -122t-117 -382q0 -255 98 -366.5
t277 -111.5q99 0 186 42.5zM1311 64h705v-64h-801v40l691 976h-678v64h775v-40zM1825 1616h74l-245 -352h-76l-245 352h75l209 -306z" />
    <glyph glyph-name="uni01C7" unicode="&#x1c7;" horiz-adv-x="1570" 
d="M203 0v1480h68v-1414h807v-66h-875zM1098 -305q105 136 153 276t48 315v1194h68v-1228q-9 -176 -59 -312.5t-162 -279.5z" />
    <glyph glyph-name="uni01C8" unicode="&#x1c8;" horiz-adv-x="1530" 
d="M203 0v1480h68v-1414h807v-66h-875zM1077 -425q106 136 154 276t48 315v914h68v-908q0 -189 -52.5 -336.5t-168.5 -295.5zM1268.5 1386q-17.5 17 -17.5 45t17.5 46t44.5 18t44.5 -18t17.5 -46t-17.5 -45t-44.5 -17t-44.5 17z" />
    <glyph glyph-name="uni01C9" unicode="&#x1c9;" horiz-adv-x="868" 
d="M183 0v1616h68v-1616h-68zM415 -425q106 136 154 276t48 315v914h68v-908q0 -189 -52.5 -336.5t-168.5 -295.5zM606.5 1386q-17.5 17 -17.5 45t17.5 46t44.5 18t44.5 -18t17.5 -46t-17.5 -45t-44.5 -17t-44.5 17z" />
    <glyph glyph-name="uni01CA" unicode="&#x1ca;" horiz-adv-x="1991" 
d="M1248 1480h66v-1480h-75l-970 1377v-1377h-66v1480h75l970 -1377v1377zM1519 -305q105 136 153 276t48 315v1194h68v-1228q-9 -176 -59 -312.5t-162 -279.5z" />
    <glyph glyph-name="uni01CB" unicode="&#x1cb;" horiz-adv-x="1951" 
d="M1248 1480h66v-1480h-75l-970 1377v-1377h-66v1480h75l970 -1377v1377zM1498 -425q106 136 154 276t48 315v914h68v-908q0 -189 -52.5 -336.5t-168.5 -295.5zM1689.5 1386q-17.5 17 -17.5 45t17.5 46t44.5 18t44.5 -18t17.5 -46t-17.5 -45t-44.5 -17t-44.5 17z" />
    <glyph glyph-name="uni01CC" unicode="&#x1cc;" horiz-adv-x="1600" 
d="M183 1080h60l6 -131h8q77 71 175 109t205 38q362 0 362 -377v-719h-68v720q0 165 -76 237.5t-219 72.5q-103 0 -206.5 -42t-178.5 -133v-855h-68v1080zM1147 -425q106 136 154 276t48 315v914h68v-908q0 -189 -52.5 -336.5t-168.5 -295.5zM1338.5 1386q-17.5 17 -17.5 45
t17.5 46t44.5 18t44.5 -18t17.5 -46t-17.5 -45t-44.5 -17t-44.5 17z" />
    <glyph glyph-name="Gcaron" unicode="&#x1e6;" horiz-adv-x="1399" 
d="M1215 720v-701q-99 -17 -175.5 -23t-164.5 -6q-371 0 -559 185t-188 566q0 262 88.5 431t244.5 247.5t363 78.5q89 0 175 -12.5t182 -37.5v-68q-102 29 -186.5 40.5t-169.5 11.5q-290 0 -457.5 -164.5t-167.5 -523.5q0 -354 168 -521t507 -167q159 0 272 22v642h68z
M969 1888h86l-262 -272h-76l-262 272h87l214 -227z" />
    <glyph glyph-name="gcaron" unicode="&#x1e7;" 
d="M342 -445.5q-87 14.5 -156 39.5v68q167 -56 319 -56q137 0 223 38.5t128.5 126t42.5 234.5v115h-6q-61 -64 -147 -101t-191 -37q-198 0 -317.5 128t-119.5 408q0 578 537 578q160 0 312 -45v-1040q0 -249 -114.5 -360t-349.5 -111q-74 0 -161 14.5zM748 89q90 41 151 123
v788q-113 30 -250 30q-229 0 -344 -122.5t-115 -381.5q0 -478 369 -478q99 0 189 41zM801 1616h74l-245 -352h-76l-245 352h75l209 -306z" />
    <glyph glyph-name="uni01EA" unicode="&#x1ea;" horiz-adv-x="1470" 
d="M759.5 -95q-58.5 -61 -58.5 -133q0 -59 39.5 -89.5t115.5 -30.5q41 0 82 9.5t99 31.5v-54q-88 -39 -178 -39q-103 0 -159.5 44.5t-56.5 124.5q0 63 31.5 115.5t104.5 97.5h-38q-288 0 -450.5 185t-162.5 573q0 262 76 431t211.5 248t319.5 79q283 0 445 -182.5
t162 -575.5q0 -309 -100.5 -484t-275.5 -238q-148 -52 -206.5 -113zM1129 213q141 163 141 523q0 695 -535 695q-252 0 -393.5 -163.5t-141.5 -523.5q0 -694 535 -694q253 0 394 163z" />
    <glyph glyph-name="uni01EB" unicode="&#x1eb;" horiz-adv-x="1131" 
d="M525 -97q-53 -61 -53 -131q0 -57 36.5 -88.5t98.5 -31.5q74 0 143 35l19 -48q-36 -19 -78 -29t-81 -10q-88 0 -141 45t-53 124q0 133 129 213q-202 7 -314.5 143t-112.5 415q0 283 119.5 419.5t328.5 136.5q211 0 329 -134.5t118 -421.5q0 -232 -80 -365.5t-228 -174.5
q-127 -36 -180 -97zM287.5 164.5q97.5 -116.5 278.5 -116.5q180 0 277.5 115.5t97.5 374.5q0 261 -97 376.5t-278 115.5t-278.5 -114.5t-97.5 -372.5q0 -262 97.5 -378.5z" />
    <glyph glyph-name="uni01F1" unicode="&#x1f1;" horiz-adv-x="2563" 
d="M385 -5q-78 5 -182 18v1445q183 36 370 36q364 0 550 -188.5t186 -565.5q0 -380 -189 -565t-565 -185q-92 0 -170 5zM1068.5 222q168.5 166 168.5 518t-166 520t-504 168q-130 0 -296 -25v-1328q128 -19 286 -19q343 0 511.5 166zM1546 64h950v-64h-1046v40l936 1376
h-923v64h1020v-40z" />
    <glyph glyph-name="uni01F2" unicode="&#x1f2;" horiz-adv-x="2364" 
d="M385 -5q-78 5 -182 18v1445q183 36 370 36q364 0 550 -188.5t186 -565.5q0 -380 -189 -565t-565 -185q-92 0 -170 5zM1068.5 222q168.5 166 168.5 518t-166 520t-504 168q-130 0 -296 -25v-1328q128 -19 286 -19q343 0 511.5 166zM1598 64h705v-64h-801v40l691 976h-678
v64h775v-40z" />
    <glyph glyph-name="uni01F3" unicode="&#x1f3;" horiz-adv-x="2077" 
d="M238 112.5q-120 130.5 -120 405.5q0 292 138 435t411 143q111 0 232 -22v542h68v-1616h-60l-6 126h-8q-58 -67 -144 -105.5t-187 -38.5q-204 0 -324 130.5zM751 90.5q87 42.5 148 131.5v781q-48 13 -110.5 20t-125.5 7q-239 0 -356 -122t-117 -382q0 -255 98 -366.5
t277 -111.5q99 0 186 42.5zM1311 64h705v-64h-801v40l691 976h-678v64h775v-40z" />
    <glyph glyph-name="uni01F4" unicode="&#x1f4;" horiz-adv-x="1399" 
d="M1215 720v-701q-99 -17 -175.5 -23t-164.5 -6q-371 0 -559 185t-188 566q0 262 88.5 431t244.5 247.5t363 78.5q89 0 175 -12.5t182 -37.5v-68q-102 29 -186.5 40.5t-169.5 11.5q-290 0 -457.5 -164.5t-167.5 -523.5q0 -354 168 -521t507 -167q159 0 272 22v642h68z
M721 1616l199 272h82l-213 -272h-68z" />
    <glyph glyph-name="uni01F5" unicode="&#x1f5;" 
d="M342 -445.5q-87 14.5 -156 39.5v68q167 -56 319 -56q137 0 223 38.5t128.5 126t42.5 234.5v115h-6q-61 -64 -147 -101t-191 -37q-198 0 -317.5 128t-119.5 408q0 578 537 578q160 0 312 -45v-1040q0 -249 -114.5 -360t-349.5 -111q-74 0 -161 14.5zM748 89q90 41 151 123
v788q-113 30 -250 30q-229 0 -344 -122.5t-115 -381.5q0 -478 369 -478q99 0 189 41zM558 1264l238 352h81l-251 -352h-68z" />
    <glyph glyph-name="Aringacute" unicode="&#x1fa;" horiz-adv-x="1364" 
d="M1034 528h-706l-212 -528h-73l581 1442q-55 18 -88.5 65t-33.5 109q0 52 24 94t66 66t94 24q56 0 103 -29l139 137h80l-179 -173q20 -23 30.5 -54t10.5 -65q0 -65 -35.5 -112t-93.5 -64l581 -1440h-76zM592 1519.5q36 -35.5 94 -35.5t94 35.5t36 96.5t-36 96.5t-94 35.5
t-94 -35.5t-36 -96.5t36 -96.5zM354 594h654l-327 816z" />
    <glyph glyph-name="aringacute" unicode="&#x1fb;" horiz-adv-x="1043" 
d="M702.5 1063q84.5 -33 129 -111t44.5 -210v-742h-60l-6 131h-8q-59 -67 -153 -107t-199 -40q-154 0 -241.5 75t-87.5 209q0 135 89.5 208.5t285.5 96.5l312 38v130q0 112 -36 175.5t-104.5 88.5t-175.5 25q-72 0 -152.5 -12.5t-158.5 -40.5v68q65 25 147.5 38t162.5 13
q127 0 211.5 -33zM644.5 92q92.5 42 163.5 127v326l-314 -38q-159 -18 -229 -74.5t-70 -159.5q0 -108 64 -165.5t193 -57.5q100 0 192.5 42zM658 1566q44 -50 44 -122q0 -52 -24 -94t-66 -66t-94 -24t-94 24t-66 66t-24 94t24 94t66 66t94 24q56 0 100 -27l154 179h79z
M612 1347.5q36 35.5 36 96.5t-36 96.5t-94 35.5t-94 -35.5t-36 -96.5t36 -96.5t94 -35.5t94 35.5z" />
    <glyph glyph-name="AEacute" unicode="&#x1fc;" horiz-adv-x="1860" 
d="M1033 66h737v-66h-802l-39 528h-598l-215 -528h-73l607 1480h1110v-66h-829l47 -620h685v-66h-680zM358 594h566l-60 820h-171zM861 1616l199 272h82l-213 -272h-68z" />
    <glyph glyph-name="aeacute" unicode="&#x1fd;" horiz-adv-x="1730" 
d="M1631 510h-755q6 -241 113 -351.5t307 -110.5q127 0 284 53v-68q-147 -51 -288 -51q-302 0 -415 217q-98 -118 -203.5 -166.5t-221.5 -48.5q-101 0 -175.5 33.5t-115 97.5t-40.5 153q0 142 98.5 225t309.5 83h279v167q0 111 -36 174t-104.5 88t-175.5 25
q-72 0 -152.5 -12.5t-158.5 -40.5v68q65 25 147.5 38t162.5 13q160 0 252.5 -56t117.5 -187q47 123 138.5 183.5t222.5 60.5q197 0 303 -137.5t106 -416.5v-33zM970 921.5q-89 -109.5 -94 -345.5h685q-5 238 -90.5 346.5t-248.5 108.5t-252 -109.5zM665.5 101.5
q102.5 51.5 181.5 167.5q-35 102 -39 241h-285q-174 0 -251 -63.5t-77 -173.5q0 -108 65.5 -165.5t193.5 -57.5q109 0 211.5 51.5zM808 1264l238 352h81l-251 -352h-68z" />
    <glyph glyph-name="Oslashacute" unicode="&#x1fe;" horiz-adv-x="1470" 
d="M1342 740q0 -261 -76 -430t-211.5 -248.5t-319.5 -79.5q-272 0 -426 163l-126 -161l-49 38l135 172q-141 191 -141 546q0 262 76 431t211.5 248t319.5 79q272 0 426 -163l126 161l50 -38l-135 -172q140 -193 140 -546zM314 252l804 1027q-134 152 -383 152
q-252 0 -393.5 -163.5t-141.5 -523.5q0 -320 114 -492zM1129 213q141 163 141 523q0 319 -113 492l-804 -1027q133 -151 382 -151q253 0 394 163zM694 1616l199 272h82l-213 -272h-68z" />
    <glyph glyph-name="oslashacute" unicode="&#x1ff;" horiz-adv-x="1131" 
d="M1013 540q0 -283 -119 -420.5t-328 -137.5q-189 0 -300 105l-76 -103l-50 38l84 112q-106 140 -106 406q0 283 119.5 419.5t328.5 136.5q187 0 299 -103l76 103l49 -38l-83 -112q106 -140 106 -406zM287.5 915.5q-97.5 -114.5 -97.5 -372.5q0 -226 77 -350l556 745
q-91 92 -257 92q-181 0 -278.5 -114.5zM843.5 163.5q97.5 115.5 97.5 374.5q0 228 -78 350l-556 -746q93 -94 259 -94q180 0 277.5 115.5zM523 1264l238 352h81l-251 -352h-68z" />
    <glyph glyph-name="uni0200" unicode="&#x200;" horiz-adv-x="1364" 
d="M1246 0l-212 528h-706l-212 -528h-73l596 1480h86l597 -1480h-76zM354 594h654l-327 816zM493 1616l-147 272h70l142 -272h-65zM809 1616l-147 272h70l141 -272h-64z" />
    <glyph glyph-name="uni0201" unicode="&#x201;" horiz-adv-x="1043" 
d="M702.5 1063q84.5 -33 129 -111t44.5 -210v-742h-60l-6 131h-8q-59 -67 -153 -107t-199 -40q-154 0 -241.5 75t-87.5 209q0 135 89.5 208.5t285.5 96.5l312 38v130q0 112 -36 175.5t-104.5 88.5t-175.5 25q-72 0 -152.5 -12.5t-158.5 -40.5v68q65 25 147.5 38t162.5 13
q127 0 211.5 -33zM644.5 92q92.5 42 163.5 127v326l-314 -38q-159 -18 -229 -74.5t-70 -159.5q0 -108 64 -165.5t193 -57.5q100 0 192.5 42zM328 1264l-165 352h72l158 -352h-65zM644 1264l-165 352h72l157 -352h-64z" />
    <glyph glyph-name="uni0202" unicode="&#x202;" horiz-adv-x="1364" 
d="M1246 0l-212 528h-706l-212 -528h-73l596 1480h86l597 -1480h-76zM354 594h654l-327 816zM465.5 1814q74.5 62 215.5 62t217.5 -63t86.5 -169h-59q-12 86 -68.5 129.5t-176.5 43.5q-119 0 -174 -43.5t-67 -129.5h-59q10 108 84.5 170z" />
    <glyph glyph-name="uni0203" unicode="&#x203;" horiz-adv-x="1043" 
d="M702.5 1063q84.5 -33 129 -111t44.5 -210v-742h-60l-6 131h-8q-59 -67 -153 -107t-199 -40q-154 0 -241.5 75t-87.5 209q0 135 89.5 208.5t285.5 96.5l312 38v130q0 112 -36 175.5t-104.5 88.5t-175.5 25q-72 0 -152.5 -12.5t-158.5 -40.5v68q65 25 147.5 38t162.5 13
q127 0 211.5 -33zM644.5 92q92.5 42 163.5 127v326l-314 -38q-159 -18 -229 -74.5t-70 -159.5q0 -108 64 -165.5t193 -57.5q100 0 192.5 42zM313.5 1521q71.5 83 202.5 83t205 -83.5t79 -228.5h-59q-8 122 -63 187.5t-162 65.5q-206 0 -221 -253h-59q6 146 77.5 229z" />
    <glyph glyph-name="uni0204" unicode="&#x204;" horiz-adv-x="1200" 
d="M271 66h839v-66h-907v1480h897v-66h-829v-620h732v-66h-732v-662zM483 1616l-147 272h70l142 -272h-65zM799 1616l-147 272h70l141 -272h-64z" />
    <glyph glyph-name="uni0205" unicode="&#x205;" horiz-adv-x="1052" 
d="M954 510h-764q6 -242 114 -352t310 -110q125 0 289 53v-68q-152 -51 -293 -51q-492 0 -492 558q0 279 112.5 417.5t311.5 138.5t305.5 -137.5t106.5 -418.5v-30zM285.5 921q-90.5 -109 -95.5 -345h693q-5 236 -91 345t-250 109q-166 0 -256.5 -109zM355 1264l-165 352h72
l158 -352h-65zM671 1264l-165 352h72l157 -352h-64z" />
    <glyph glyph-name="uni0206" unicode="&#x206;" horiz-adv-x="1200" 
d="M271 66h839v-66h-907v1480h897v-66h-829v-620h732v-66h-732v-662zM455.5 1814q74.5 62 215.5 62t217.5 -63t86.5 -169h-59q-12 86 -68.5 129.5t-176.5 43.5q-119 0 -174 -43.5t-67 -129.5h-59q10 108 84.5 170z" />
    <glyph glyph-name="uni0207" unicode="&#x207;" horiz-adv-x="1052" 
d="M954 510h-764q6 -242 114 -352t310 -110q125 0 289 53v-68q-152 -51 -293 -51q-492 0 -492 558q0 279 112.5 417.5t311.5 138.5t305.5 -137.5t106.5 -418.5v-30zM285.5 921q-90.5 -109 -95.5 -345h693q-5 236 -91 345t-250 109q-166 0 -256.5 -109zM340.5 1521
q71.5 83 202.5 83t205 -83.5t79 -228.5h-59q-8 122 -63 187.5t-162 65.5q-206 0 -221 -253h-59q6 146 77.5 229z" />
    <glyph glyph-name="uni0208" unicode="&#x208;" horiz-adv-x="474" 
d="M203 0v1480h68v-1480h-68zM47 1616l-147 272h70l142 -272h-65zM363 1616l-147 272h70l141 -272h-64z" />
    <glyph glyph-name="uni0209" unicode="&#x209;" horiz-adv-x="434" 
d="M183 0v1080h68v-1080h-68zM27 1264l-165 352h72l158 -352h-65zM343 1264l-165 352h72l157 -352h-64z" />
    <glyph glyph-name="uni020A" unicode="&#x20a;" horiz-adv-x="474" 
d="M203 0v1480h68v-1480h-68zM19.5 1814q74.5 62 215.5 62t217.5 -63t86.5 -169h-59q-12 86 -68.5 129.5t-176.5 43.5q-119 0 -174 -43.5t-67 -129.5h-59q10 108 84.5 170z" />
    <glyph glyph-name="uni020B" unicode="&#x20b;" horiz-adv-x="434" 
d="M183 0v1080h68v-1080h-68zM12.5 1521q71.5 83 202.5 83t205 -83.5t79 -228.5h-59q-8 122 -63 187.5t-162 65.5q-206 0 -221 -253h-59q6 146 77.5 229z" />
    <glyph glyph-name="uni020C" unicode="&#x20c;" horiz-adv-x="1470" 
d="M289.5 167q-161.5 185 -161.5 573q0 262 76 431t211.5 248t319.5 79q284 0 445.5 -184.5t161.5 -573.5q0 -261 -76 -430t-211.5 -248.5t-319.5 -79.5q-284 0 -445.5 185zM1129 213q141 163 141 523q0 695 -535 695q-252 0 -393.5 -163.5t-141.5 -523.5q0 -694 535 -694
q253 0 394 163zM545 1616l-147 272h70l142 -272h-65zM861 1616l-147 272h70l141 -272h-64z" />
    <glyph glyph-name="uni020D" unicode="&#x20d;" horiz-adv-x="1131" 
d="M236.5 118q-118.5 136 -118.5 422q0 283 119.5 419.5t328.5 136.5q211 0 329 -134.5t118 -421.5q0 -283 -119 -420.5t-328 -137.5q-211 0 -329.5 136zM843.5 163.5q97.5 115.5 97.5 374.5q0 261 -97 376.5t-278 115.5t-278.5 -114.5t-97.5 -372.5q0 -262 97.5 -378.5
t278.5 -116.5q180 0 277.5 115.5zM376 1264l-165 352h72l158 -352h-65zM692 1264l-165 352h72l157 -352h-64z" />
    <glyph glyph-name="uni020E" unicode="&#x20e;" horiz-adv-x="1470" 
d="M289.5 167q-161.5 185 -161.5 573q0 262 76 431t211.5 248t319.5 79q284 0 445.5 -184.5t161.5 -573.5q0 -261 -76 -430t-211.5 -248.5t-319.5 -79.5q-284 0 -445.5 185zM1129 213q141 163 141 523q0 695 -535 695q-252 0 -393.5 -163.5t-141.5 -523.5q0 -694 535 -694
q253 0 394 163zM517.5 1814q74.5 62 215.5 62t217.5 -63t86.5 -169h-59q-12 86 -68.5 129.5t-176.5 43.5q-119 0 -174 -43.5t-67 -129.5h-59q10 108 84.5 170z" />
    <glyph glyph-name="uni020F" unicode="&#x20f;" horiz-adv-x="1131" 
d="M236.5 118q-118.5 136 -118.5 422q0 283 119.5 419.5t328.5 136.5q211 0 329 -134.5t118 -421.5q0 -283 -119 -420.5t-328 -137.5q-211 0 -329.5 136zM843.5 163.5q97.5 115.5 97.5 374.5q0 261 -97 376.5t-278 115.5t-278.5 -114.5t-97.5 -372.5q0 -262 97.5 -378.5
t278.5 -116.5q180 0 277.5 115.5zM361.5 1521q71.5 83 202.5 83t205 -83.5t79 -228.5h-59q-8 122 -63 187.5t-162 65.5q-206 0 -221 -253h-59q6 146 77.5 229z" />
    <glyph glyph-name="uni0210" unicode="&#x210;" horiz-adv-x="1338" 
d="M1171 0l-531 654q-51 -3 -106 -3q-72 0 -129 3t-134 9v-663h-68v1458q93 17 181 26.5t200 9.5q195 0 320 -43.5t186 -135.5t61 -238q1 -180 -107 -283.5t-328 -131.5l540 -662h-85zM406 718.5q51 -2.5 128 -2.5q194 0 315 39.5t177.5 118.5t56.5 200q0 130 -51.5 207.5
t-161 112t-289.5 34.5q-95 0 -164 -6.5t-146 -20.5v-673q84 -7 135 -9.5zM450 1616l-147 272h70l142 -272h-65zM766 1616l-147 272h70l141 -272h-64z" />
    <glyph glyph-name="uni0211" unicode="&#x211;" horiz-adv-x="727" 
d="M183 1080h60l6 -147h8q64 72 161 113.5t195 41.5q54 0 99 -8v-68q-38 6 -99 6q-95 0 -196 -45.5t-166 -132.5v-840h-68v1080zM251 1264l-165 352h72l158 -352h-65zM567 1264l-165 352h72l157 -352h-64z" />
    <glyph glyph-name="uni0212" unicode="&#x212;" horiz-adv-x="1338" 
d="M1171 0l-531 654q-51 -3 -106 -3q-72 0 -129 3t-134 9v-663h-68v1458q93 17 181 26.5t200 9.5q195 0 320 -43.5t186 -135.5t61 -238q1 -180 -107 -283.5t-328 -131.5l540 -662h-85zM406 718.5q51 -2.5 128 -2.5q194 0 315 39.5t177.5 118.5t56.5 200q0 130 -51.5 207.5
t-161 112t-289.5 34.5q-95 0 -164 -6.5t-146 -20.5v-673q84 -7 135 -9.5zM422.5 1814q74.5 62 215.5 62t217.5 -63t86.5 -169h-59q-12 86 -68.5 129.5t-176.5 43.5q-119 0 -174 -43.5t-67 -129.5h-59q10 108 84.5 170z" />
    <glyph glyph-name="uni0213" unicode="&#x213;" horiz-adv-x="727" 
d="M183 1080h60l6 -147h8q64 72 161 113.5t195 41.5q54 0 99 -8v-68q-38 6 -99 6q-95 0 -196 -45.5t-166 -132.5v-840h-68v1080zM236.5 1521q71.5 83 202.5 83t205 -83.5t79 -228.5h-59q-8 122 -63 187.5t-162 65.5q-206 0 -221 -253h-59q6 146 77.5 229z" />
    <glyph glyph-name="uni0214" unicode="&#x214;" horiz-adv-x="1459" 
d="M429 41.5q-118 59.5 -176 184t-58 322.5v932h68v-942q0 -171 49.5 -279t152.5 -159.5t266 -51.5q162 0 265 51.5t152.5 159.5t49.5 279v942h66v-932q0 -198 -57.5 -322.5t-174.5 -184t-301 -59.5t-302 59.5zM541 1616l-147 272h70l142 -272h-65zM857 1616l-147 272h70
l141 -272h-64z" />
    <glyph glyph-name="uni0215" unicode="&#x215;" horiz-adv-x="1156" 
d="M261 71q-94 89 -94 284v725h68v-725q0 -163 76 -235t213 -72q103 0 205 44t176 133v855h68v-1080h-60l-6 126h-8q-76 -70 -173.5 -107t-203.5 -37q-167 0 -261 89zM380 1264l-165 352h72l158 -352h-65zM696 1264l-165 352h72l157 -352h-64z" />
    <glyph glyph-name="uni0216" unicode="&#x216;" horiz-adv-x="1459" 
d="M429 41.5q-118 59.5 -176 184t-58 322.5v932h68v-942q0 -171 49.5 -279t152.5 -159.5t266 -51.5q162 0 265 51.5t152.5 159.5t49.5 279v942h66v-932q0 -198 -57.5 -322.5t-174.5 -184t-301 -59.5t-302 59.5zM513.5 1814q74.5 62 215.5 62t217.5 -63t86.5 -169h-59
q-12 86 -68.5 129.5t-176.5 43.5q-119 0 -174 -43.5t-67 -129.5h-59q10 108 84.5 170z" />
    <glyph glyph-name="uni0217" unicode="&#x217;" horiz-adv-x="1156" 
d="M261 71q-94 89 -94 284v725h68v-725q0 -163 76 -235t213 -72q103 0 205 44t176 133v855h68v-1080h-60l-6 126h-8q-76 -70 -173.5 -107t-203.5 -37q-167 0 -261 89zM365.5 1521q71.5 83 202.5 83t205 -83.5t79 -228.5h-59q-8 122 -63 187.5t-162 65.5q-206 0 -221 -253
h-59q6 146 77.5 229z" />
    <glyph glyph-name="Scommaaccent" unicode="&#x218;" horiz-adv-x="1082" 
d="M292 -2.5q-95 15.5 -181 45.5v68q188 -63 367 -63q218 0 328.5 84t110.5 248q0 92 -37 152.5t-116 100.5t-211 70l-67 15q-201 45 -296.5 139.5t-95.5 250.5q0 121 56.5 208.5t168 134.5t274.5 47q87 0 173.5 -12.5t162.5 -36.5v-68q-168 51 -340 51q-210 0 -316.5 -82
t-106.5 -238q0 -91 33.5 -152t107 -102t199.5 -70l67 -15q147 -33 238 -84.5t134.5 -126.5t43.5 -180q0 -193 -133.5 -296.5t-380.5 -103.5q-88 0 -183 15.5zM592.5 -206q17.5 -22 17.5 -64q0 -38 -11 -86t-33 -92h-44q28 71 33 138h-7q-27 0 -44.5 18t-17.5 46
q0 27 16.5 44.5t41.5 17.5q31 0 48.5 -22z" />
    <glyph glyph-name="scommaaccent" unicode="&#x219;" horiz-adv-x="922" 
d="M273.5 -8q-71.5 10 -140.5 33v68q84 -25 153.5 -35t146.5 -10q170 0 250 58t80 168q0 62 -21 103.5t-69 68.5t-130 43l-147 29q-147 31 -212.5 101t-65.5 183q0 86 43 152t133.5 104t225.5 38q131 0 255 -34v-68q-71 20 -129.5 28t-125.5 8q-172 0 -251 -61t-79 -165
q0 -84 47 -137t163 -77l148 -29q153 -31 219.5 -98.5t66.5 -181.5q0 -141 -102 -220t-304 -79q-83 0 -154.5 10zM510.5 -206q17.5 -22 17.5 -64q0 -38 -11 -86t-33 -92h-44q28 71 33 138h-7q-27 0 -44.5 18t-17.5 46q0 27 16.5 44.5t41.5 17.5q31 0 48.5 -22z" />
    <glyph glyph-name="uni021A" unicode="&#x21a;" horiz-adv-x="1178" 
d="M555 0v1414h-538v66h1144v-66h-538v-1414h-68zM633.5 -206q17.5 -22 17.5 -64q0 -38 -11 -86t-33 -92h-44q28 71 33 138h-7q-27 0 -44.5 18t-17.5 46q0 27 16.5 44.5t41.5 17.5q31 0 48.5 -22z" />
    <glyph glyph-name="uni021B" unicode="&#x21b;" horiz-adv-x="745" 
d="M738 69v-68q-43 -11 -79.5 -15t-79.5 -4q-163 0 -250.5 84.5t-87.5 259.5v690h-230v64h230l8 400h60v-400h406v-64h-406v-678q0 -153 69 -221.5t205 -68.5q68 0 155 21zM534.5 -206q17.5 -22 17.5 -64q0 -38 -11 -86t-33 -92h-44q28 71 33 138h-7q-27 0 -44.5 18
t-17.5 46q0 27 16.5 44.5t41.5 17.5q31 0 48.5 -22z" />
    <glyph glyph-name="uni022A" unicode="&#x22a;" horiz-adv-x="1470" 
d="M289.5 167q-161.5 185 -161.5 573q0 262 76 431t211.5 248t319.5 79q284 0 445.5 -184.5t161.5 -573.5q0 -261 -76 -430t-211.5 -248.5t-319.5 -79.5q-284 0 -445.5 185zM1129 213q141 163 141 523q0 695 -535 695q-252 0 -393.5 -163.5t-141.5 -523.5q0 -694 535 -694
q253 0 394 163zM450.5 1707q-17.5 17 -17.5 45t17.5 46t44.5 18t44.5 -18t17.5 -46t-17.5 -45t-44.5 -17t-44.5 17zM930.5 1707q-17.5 17 -17.5 45t17.5 46t44.5 18t44.5 -18t17.5 -46t-17.5 -45t-44.5 -17t-44.5 17zM450 1951v59h570v-59h-570z" />
    <glyph glyph-name="uni022B" unicode="&#x22b;" horiz-adv-x="1131" 
d="M236.5 118q-118.5 136 -118.5 422q0 283 119.5 419.5t328.5 136.5q211 0 329 -134.5t118 -421.5q0 -283 -119 -420.5t-328 -137.5q-211 0 -329.5 136zM843.5 163.5q97.5 115.5 97.5 374.5q0 261 -97 376.5t-278 115.5t-278.5 -114.5t-97.5 -372.5q0 -262 97.5 -378.5
t278.5 -116.5q180 0 277.5 115.5zM301.5 1377q-17.5 17 -17.5 45t17.5 46t44.5 18t44.5 -18t17.5 -46t-17.5 -45t-44.5 -17t-44.5 17zM741.5 1377q-17.5 17 -17.5 45t17.5 46t44.5 18t44.5 -18t17.5 -46t-17.5 -45t-44.5 -17t-44.5 17zM267 1658v60h599v-60h-599z" />
    <glyph glyph-name="uni022C" unicode="&#x22c;" horiz-adv-x="1470" 
d="M289.5 167q-161.5 185 -161.5 573q0 262 76 431t211.5 248t319.5 79q284 0 445.5 -184.5t161.5 -573.5q0 -261 -76 -430t-211.5 -248.5t-319.5 -79.5q-284 0 -445.5 185zM1129 213q141 163 141 523q0 695 -535 695q-252 0 -393.5 -163.5t-141.5 -523.5q0 -694 535 -694
q253 0 394 163zM810 1708q-36 10 -90 30q-47 18 -76.5 26.5t-60.5 8.5q-52 0 -91.5 -17t-73.5 -54v68q57 60 165 60q41 0 77 -10t90 -30q47 -18 76.5 -26.5t60.5 -8.5q52 0 91.5 17t74.5 54v-68q-58 -60 -166 -60q-41 0 -77 10zM450 1951v59h570v-59h-570z" />
    <glyph glyph-name="uni022D" unicode="&#x22d;" horiz-adv-x="1131" 
d="M236.5 118q-118.5 136 -118.5 422q0 283 119.5 419.5t328.5 136.5q211 0 329 -134.5t118 -421.5q0 -283 -119 -420.5t-328 -137.5q-211 0 -329.5 136zM843.5 163.5q97.5 115.5 97.5 374.5q0 261 -97 376.5t-278 115.5t-278.5 -114.5t-97.5 -372.5q0 -262 97.5 -378.5
t278.5 -116.5q180 0 277.5 115.5zM634.5 1390.5q-35.5 10.5 -83.5 30.5q-46 18 -73 26t-54 8q-47 0 -85 -17t-72 -53v67q56 61 157 61q38 0 73.5 -10.5t83.5 -30.5q46 -18 73 -26t54 -8q47 0 85 17t73 53v-67q-58 -61 -158 -61q-38 0 -73.5 10.5zM267 1658v60h599v-60h-599z
" />
    <glyph glyph-name="uni0230" unicode="&#x230;" horiz-adv-x="1470" 
d="M289.5 167q-161.5 185 -161.5 573q0 262 76 431t211.5 248t319.5 79q284 0 445.5 -184.5t161.5 -573.5q0 -261 -76 -430t-211.5 -248.5t-319.5 -79.5q-284 0 -445.5 185zM1129 213q141 163 141 523q0 695 -535 695q-252 0 -393.5 -163.5t-141.5 -523.5q0 -694 535 -694
q253 0 394 163zM690.5 1707q-17.5 17 -17.5 45t17.5 46t44.5 18t44.5 -18t17.5 -46t-17.5 -45t-44.5 -17t-44.5 17zM450 1951v59h570v-59h-570z" />
    <glyph glyph-name="uni0231" unicode="&#x231;" horiz-adv-x="1131" 
d="M236.5 118q-118.5 136 -118.5 422q0 283 119.5 419.5t328.5 136.5q211 0 329 -134.5t118 -421.5q0 -283 -119 -420.5t-328 -137.5q-211 0 -329.5 136zM843.5 163.5q97.5 115.5 97.5 374.5q0 261 -97 376.5t-278 115.5t-278.5 -114.5t-97.5 -372.5q0 -262 97.5 -378.5
t278.5 -116.5q180 0 277.5 115.5zM521.5 1377q-17.5 17 -17.5 45t17.5 46t44.5 18t44.5 -18t17.5 -46t-17.5 -45t-44.5 -17t-44.5 17zM267 1658v60h599v-60h-599z" />
    <glyph glyph-name="uni0232" unicode="&#x232;" horiz-adv-x="1178" 
d="M1188 1480l-565 -801v-679h-68v679l-573 801h86l522 -736l516 736h82zM304 1723v59h570v-59h-570z" />
    <glyph glyph-name="uni0233" unicode="&#x233;" horiz-adv-x="1064" 
d="M961 1080h71l-638 -1520h-72l185 440h-21l-454 1080h76l425 -1025zM235 1394v60h599v-60h-599z" />
    <glyph glyph-name="uni0237" unicode="&#x237;" horiz-adv-x="434" 
d="M-19 -425q106 136 154 276t48 315v914h68v-908q0 -189 -52.5 -336.5t-168.5 -295.5z" />
    <glyph glyph-name="uni0259" unicode="&#x259;" horiz-adv-x="1052" 
d="M934 540q0 -279 -112.5 -417.5t-311.5 -138.5t-305.5 137.5t-106.5 418.5v30h764q-6 242 -114 352t-310 110q-125 0 -289 -53v68q152 51 293 51q492 0 492 -558zM766.5 159q90.5 109 95.5 345h-693q5 -236 91 -345t250 -109q166 0 256.5 109z" />
    <glyph glyph-name="uni02BB" unicode="&#x2bb;" horiz-adv-x="1100" 
d="M594.5 1468q17.5 -18 17.5 -46q0 -27 -16.5 -44.5t-41.5 -17.5q-31 0 -48.5 22t-17.5 64q0 38 11 86t33 92h44q-28 -71 -33 -138h7q27 0 44.5 -18z" />
    <glyph glyph-name="uni02BC" unicode="&#x2bc;" horiz-adv-x="1100" 
d="M656.5 1602q17.5 -22 17.5 -64q0 -38 -11 -86t-33 -92h-44q28 71 33 138h-7q-27 0 -44.5 18t-17.5 46q0 27 16.5 44.5t41.5 17.5q31 0 48.5 -22z" />
    <glyph glyph-name="uni02BE" unicode="&#x2be;" horiz-adv-x="1100" 
d="M550 1312q58 0 94 35.5t36 96.5t-36 96.5t-94 35.5v52q52 0 94 -24t66 -66t24 -94t-24 -94t-66 -66t-94 -24v52z" />
    <glyph glyph-name="uni02BF" unicode="&#x2bf;" horiz-adv-x="1100" 
d="M456 1284q-42 24 -66 66t-24 94t24 94t66 66t94 24v-52q-58 0 -94 -35.5t-36 -96.5t36 -96.5t94 -35.5v-52q-52 0 -94 24z" />
    <glyph glyph-name="circumflex" unicode="&#x2c6;" horiz-adv-x="1100" 
d="M827 1264h-74l-202 305l-203 -305h-75l239 352h76z" />
    <glyph glyph-name="caron" unicode="&#x2c7;" horiz-adv-x="1100" 
d="M759 1616h74l-245 -352h-76l-245 352h75l209 -306z" />
    <glyph glyph-name="uni02C8" unicode="&#x2c8;" horiz-adv-x="1100" 
d="M520 1218v400h60v-400h-60z" />
    <glyph glyph-name="uni02C9" unicode="&#x2c9;" horiz-adv-x="1100" 
d="M251 1394v60h599v-60h-599z" />
    <glyph glyph-name="uni02CA" unicode="&#x2ca;" horiz-adv-x="1100" 
d="M516 1264l238 352h81l-251 -352h-68z" />
    <glyph glyph-name="uni02CB" unicode="&#x2cb;" horiz-adv-x="1100" 
d="M516 1264l-251 352h81l238 -352h-68z" />
    <glyph glyph-name="uni02CC" unicode="&#x2cc;" horiz-adv-x="1100" 
d="M520 -440v400h60v-400h-60z" />
    <glyph glyph-name="breve" unicode="&#x2d8;" horiz-adv-x="1100" 
d="M347.5 1360q-73.5 84 -79.5 228h59q16 -254 225 -254q108 0 161 65.5t60 188.5h59q-5 -145 -77.5 -228.5t-202.5 -83.5q-131 0 -204.5 84z" />
    <glyph glyph-name="dotaccent" unicode="&#x2d9;" horiz-adv-x="1100" 
d="M505.5 1377q-17.5 17 -17.5 45t17.5 46t44.5 18t44.5 -18t17.5 -46t-17.5 -45t-44.5 -17t-44.5 17z" />
    <glyph glyph-name="ring" unicode="&#x2da;" horiz-adv-x="1100" 
d="M456 1284q-42 24 -66 66t-24 94t24 94t66 66t94 24t94 -24t66 -66t24 -94t-24 -94t-66 -66t-94 -24t-94 24zM644 1347.5q36 35.5 36 96.5t-36 96.5t-94 35.5t-94 -35.5t-36 -96.5t36 -96.5t94 -35.5t94 35.5z" />
    <glyph glyph-name="ogonek" unicode="&#x2db;" horiz-adv-x="1100" 
d="M362 -354.5q-52 45.5 -52 123.5q0 81 51.5 148t163.5 131l25 -48q-98 -57 -141 -110t-43 -118q0 -56 36 -88t99 -32q82 0 162 45v-56q-34 -19 -77 -30t-82 -11q-90 0 -142 45.5z" />
    <glyph glyph-name="tilde" unicode="&#x2dc;" horiz-adv-x="1100" 
d="M618.5 1390.5q-35.5 10.5 -83.5 30.5q-46 18 -73 26t-54 8q-47 0 -85 -17t-72 -53v67q56 61 157 61q38 0 73.5 -10.5t83.5 -30.5q46 -18 73 -26t54 -8q47 0 85 17t73 53v-67q-58 -61 -158 -61q-38 0 -73.5 10.5z" />
    <glyph glyph-name="hungarumlaut" unicode="&#x2dd;" horiz-adv-x="1100" 
d="M364 1264l158 352h68l-165 -352h-61zM676 1264l158 352h68l-165 -352h-61z" />
    <glyph glyph-name="gravecomb" unicode="&#x300;" horiz-adv-x="0" 
d="M-584 1264l-251 352h81l238 -352h-68z" />
    <glyph glyph-name="acutecomb" unicode="&#x301;" horiz-adv-x="0" 
d="M-584 1264l238 352h81l-251 -352h-68z" />
    <glyph glyph-name="uni0302" unicode="&#x302;" horiz-adv-x="0" 
d="M-273 1264h-74l-202 305l-203 -305h-75l239 352h76z" />
    <glyph glyph-name="tildecomb" unicode="&#x303;" horiz-adv-x="0" 
d="M-481.5 1390.5q-35.5 10.5 -83.5 30.5q-46 18 -73 26t-54 8q-47 0 -85 -17t-72 -53v67q56 61 157 61q38 0 73.5 -10.5t83.5 -30.5q46 -18 73 -26t54 -8q47 0 85 17t73 53v-67q-58 -61 -158 -61q-38 0 -73.5 10.5z" />
    <glyph glyph-name="uni0304" unicode="&#x304;" horiz-adv-x="0" 
d="M-849 1394v60h599v-60h-599z" />
    <glyph glyph-name="uni0306" unicode="&#x306;" horiz-adv-x="0" 
d="M-752.5 1360q-73.5 84 -79.5 228h59q16 -254 225 -254q108 0 161 65.5t60 188.5h59q-5 -145 -77.5 -228.5t-202.5 -83.5q-131 0 -204.5 84z" />
    <glyph glyph-name="uni0307" unicode="&#x307;" horiz-adv-x="0" 
d="M-594.5 1377q-17.5 17 -17.5 45t17.5 46t44.5 18t44.5 -18t17.5 -46t-17.5 -45t-44.5 -17t-44.5 17z" />
    <glyph glyph-name="uni0308" unicode="&#x308;" horiz-adv-x="0" 
d="M-814.5 1377q-17.5 17 -17.5 45t17.5 46t44.5 18t44.5 -18t17.5 -46t-17.5 -45t-44.5 -17t-44.5 17zM-374.5 1377q-17.5 17 -17.5 45t17.5 46t44.5 18t44.5 -18t17.5 -46t-17.5 -45t-44.5 -17t-44.5 17z" />
    <glyph glyph-name="hookabovecomb" unicode="&#x309;" horiz-adv-x="0" 
d="M-564.5 1328.5q14.5 26.5 34 43.5t50.5 38q36 23 52.5 40.5t16.5 44.5q0 40 -33 58.5t-103 18.5q-40 0 -83.5 -6t-76.5 -18v56q31 11 73 17.5t82 6.5q101 0 150.5 -34.5t49.5 -98.5q0 -44 -21.5 -69t-63.5 -52q-39 -26 -59.5 -48.5t-21.5 -61.5h-62q1 38 15.5 64.5z" />
    <glyph glyph-name="uni030A" unicode="&#x30a;" horiz-adv-x="0" 
d="M-644 1284q-42 24 -66 66t-24 94t24 94t66 66t94 24t94 -24t66 -66t24 -94t-24 -94t-66 -66t-94 -24t-94 24zM-456 1347.5q36 35.5 36 96.5t-36 96.5t-94 35.5t-94 -35.5t-36 -96.5t36 -96.5t94 -35.5t94 35.5z" />
    <glyph glyph-name="uni030B" unicode="&#x30b;" horiz-adv-x="0" 
d="M-736 1264l158 352h68l-165 -352h-61zM-424 1264l158 352h68l-165 -352h-61z" />
    <glyph glyph-name="uni030C" unicode="&#x30c;" horiz-adv-x="0" 
d="M-341 1616h74l-245 -352h-76l-245 352h75l209 -306z" />
    <glyph glyph-name="uni030F" unicode="&#x30f;" horiz-adv-x="0" 
d="M-740 1264l-165 352h72l158 -352h-65zM-424 1264l-165 352h72l157 -352h-64z" />
    <glyph glyph-name="uni0311" unicode="&#x311;" horiz-adv-x="0" 
d="M-754.5 1521q71.5 83 202.5 83t205 -83.5t79 -228.5h-59q-8 122 -63 187.5t-162 65.5q-206 0 -221 -253h-59q6 146 77.5 229z" />
    <glyph glyph-name="uni0312" unicode="&#x312;" horiz-adv-x="0" 
d="M-505.5 1468q17.5 -18 17.5 -46q0 -27 -16.5 -44.5t-41.5 -17.5q-31 0 -48.5 22t-17.5 64q0 38 11 86t33 92h44q-28 -71 -33 -138h7q27 0 44.5 -18z" />
    <glyph glyph-name="uni031B" unicode="&#x31b;" horiz-adv-x="0" 
d="M-550 1480h34q101 0 155 42t54 127q0 39 -6 71t-19 71h66q13 -36 19 -68.5t6 -75.5q0 -111 -72 -172.5t-202 -61.5h-35v67z" />
    <glyph glyph-name="dotbelowcomb" unicode="&#x323;" horiz-adv-x="0" 
d="M-594.5 -293q-17.5 17 -17.5 45t17.5 46t44.5 18t44.5 -18t17.5 -46t-17.5 -45t-44.5 -17t-44.5 17z" />
    <glyph glyph-name="uni0324" unicode="&#x324;" horiz-adv-x="0" 
d="M-814.5 -293q-17.5 17 -17.5 45t17.5 46t44.5 18t44.5 -18t17.5 -46t-17.5 -45t-44.5 -17t-44.5 17zM-374.5 -293q-17.5 17 -17.5 45t17.5 46t44.5 18t44.5 -18t17.5 -46t-17.5 -45t-44.5 -17t-44.5 17z" />
    <glyph glyph-name="uni0326" unicode="&#x326;" horiz-adv-x="0" 
d="M-505.5 -206q17.5 -22 17.5 -64q0 -38 -11 -86t-33 -92h-44q28 71 33 138h-7q-27 0 -44.5 18t-17.5 46q0 27 16.5 44.5t41.5 17.5q31 0 48.5 -22z" />
    <glyph glyph-name="uni0327" unicode="&#x327;" horiz-adv-x="0" 
d="M-401 -155q42 -37 42 -102q0 -68 -48 -105.5t-133 -37.5q-46 0 -93.5 10t-79.5 28v56q84 -42 174 -42q63 0 93.5 22.5t30.5 68.5q0 48 -31 70.5t-95 22.5h-35v184h56v-133q77 -5 119 -42z" />
    <glyph glyph-name="uni0328" unicode="&#x328;" horiz-adv-x="0" 
d="M-738 -354.5q-52 45.5 -52 123.5q0 81 51.5 148t163.5 131l25 -48q-98 -57 -141 -110t-43 -118q0 -56 36 -88t99 -32q82 0 162 45v-56q-34 -19 -77 -30t-82 -11q-90 0 -142 45.5z" />
    <glyph glyph-name="uni032E" unicode="&#x32e;" horiz-adv-x="0" 
d="M-701.5 -369q-63.5 31 -96.5 85t-34 124h59q5 -87 60 -134t165 -47q213 0 221 181h59q-2 -109 -74 -174.5t-206 -65.5q-90 0 -153.5 31z" />
    <glyph glyph-name="uni0331" unicode="&#x331;" horiz-adv-x="0" 
d="M-815 -279v59h530v-59h-530z" />
    <glyph glyph-name="uni0394" unicode="&#x394;" horiz-adv-x="1364" 
d="M725 1480l597 -1480h-1279l596 1480h86zM681 1410l-539 -1344h1078z" />
    <glyph glyph-name="uni03A9" unicode="&#x3a9;" horiz-adv-x="1470" 
d="M971 66h371v-66h-487v64q211 129 313 305.5t102 423.5q0 314 -137 476t-398 162q-260 0 -397.5 -162.5t-137.5 -475.5q0 -247 102 -423.5t314 -305.5v-64h-488v66h372q-372 252 -372 729q0 225 71 382.5t207 239t329 81.5t329 -81.5t207 -239t71 -382.5q0 -477 -371 -729
z" />
    <glyph glyph-name="uni03BC" unicode="&#x3bc;" horiz-adv-x="1156" 
d="M973 1080v-1080h-60l-6 126h-8q-76 -70 -173.5 -107t-203.5 -37q-103 0 -175 33.5t-112 106.5v-562h-68v1520h68v-725q0 -163 76 -235t213 -72q103 0 205 44t176 133v855h68z" />
    <glyph glyph-name="pi" unicode="&#x3c0;" horiz-adv-x="1315" 
d="M1308 64v-68q-63 -14 -120 -14q-130 0 -198.5 70.5t-69.5 225.5l-4 738h-607v-1018h-68v1018h-230v64h1207v-64h-230v-726q0 -133 49.5 -187.5t154.5 -54.5q52 0 116 16z" />
    <glyph glyph-name="uni1E08" unicode="&#x1e08;" horiz-adv-x="1187" 
d="M964 1888l-213 -272h-68l199 272h82zM350.5 1269.5q-150.5 -162.5 -150.5 -527.5q0 -256 70.5 -409.5t198 -219t309.5 -65.5q95 0 179.5 14.5t184.5 49.5v-68q-171 -62 -365 -62h-14v-94q85 -2 134 -38.5t49 -105.5q0 -71 -53 -107.5t-146 -36.5q-49 0 -101 10t-93 29v56
q55 -23 101 -33t93 -10q143 0 143 92t-145 92h-38v148q-579 41 -579 754q0 393 174 576.5t492 183.5q94 0 177.5 -12.5t170.5 -37.5v-68q-171 52 -352 52q-289 0 -439.5 -162.5z" />
    <glyph glyph-name="uni1E09" unicode="&#x1e09;" horiz-adv-x="888" 
d="M822 1616l-251 -352h-68l238 352h81zM379.5 981.5q-94.5 -48.5 -142 -155.5t-47.5 -282q0 -262 97.5 -379t292.5 -117q121 0 267 53v-68q-134 -51 -274 -51h-10v-95q77 -5 119 -42t42 -102q0 -68 -48 -105.5t-133 -37.5q-46 0 -93.5 10t-79.5 28v56q84 -42 174 -42
q63 0 93.5 22.5t30.5 68.5q0 48 -31 70.5t-95 22.5h-35v149q-389 39 -389 555q0 287 126 421.5t374 134.5q127 0 229 -32v-68q-116 34 -228 34q-145 0 -239.5 -48.5z" />
    <glyph glyph-name="uni1E0C" unicode="&#x1e0c;" horiz-adv-x="1437" 
d="M385 -5q-78 5 -182 18v1445q183 36 370 36q364 0 550 -188.5t186 -565.5q0 -380 -189 -565t-565 -185q-92 0 -170 5zM1068.5 222q168.5 166 168.5 518t-166 520t-504 168q-130 0 -296 -25v-1328q128 -19 286 -19q343 0 511.5 166zM614.5 -293q-17.5 17 -17.5 45t17.5 46
t44.5 18t44.5 -18t17.5 -46t-17.5 -45t-44.5 -17t-44.5 17z" />
    <glyph glyph-name="uni1E0D" unicode="&#x1e0d;" 
d="M238 112.5q-120 130.5 -120 405.5q0 292 138 435t411 143q111 0 232 -22v542h68v-1616h-60l-6 126h-8q-58 -67 -144 -105.5t-187 -38.5q-204 0 -324 130.5zM751 90.5q87 42.5 148 131.5v781q-48 13 -110.5 20t-125.5 7q-239 0 -356 -122t-117 -382q0 -255 98 -366.5
t277 -111.5q99 0 186 42.5zM528.5 -293q-17.5 17 -17.5 45t17.5 46t44.5 18t44.5 -18t17.5 -46t-17.5 -45t-44.5 -17t-44.5 17z" />
    <glyph glyph-name="uni1E0E" unicode="&#x1e0e;" horiz-adv-x="1437" 
d="M385 -5q-78 5 -182 18v1445q183 36 370 36q364 0 550 -188.5t186 -565.5q0 -380 -189 -565t-565 -185q-92 0 -170 5zM1068.5 222q168.5 166 168.5 518t-166 520t-504 168q-130 0 -296 -25v-1328q128 -19 286 -19q343 0 511.5 166zM374 -279v59h570v-59h-570z" />
    <glyph glyph-name="uni1E0F" unicode="&#x1e0f;" 
d="M238 112.5q-120 130.5 -120 405.5q0 292 138 435t411 143q111 0 232 -22v542h68v-1616h-60l-6 126h-8q-58 -67 -144 -105.5t-187 -38.5q-204 0 -324 130.5zM751 90.5q87 42.5 148 131.5v781q-48 13 -110.5 20t-125.5 7q-239 0 -356 -122t-117 -382q0 -255 98 -366.5
t277 -111.5q99 0 186 42.5zM308 -279v59h530v-59h-530z" />
    <glyph glyph-name="uni1E14" unicode="&#x1e14;" horiz-adv-x="1200" 
d="M271 66h839v-66h-907v1480h897v-66h-829v-620h732v-66h-732v-662zM639 1884l-213 232h83l198 -232h-68zM388 1723v59h570v-59h-570z" />
    <glyph glyph-name="uni1E15" unicode="&#x1e15;" horiz-adv-x="1052" 
d="M954 510h-764q6 -242 114 -352t310 -110q125 0 289 53v-68q-152 -51 -293 -51q-492 0 -492 558q0 279 112.5 417.5t311.5 138.5t305.5 -137.5t106.5 -418.5v-30zM285.5 921q-90.5 -109 -95.5 -345h693q-5 236 -91 345t-250 109q-166 0 -256.5 -109zM246 1394v60h599v-60
h-599zM511 1596l-213 272h83l198 -272h-68z" />
    <glyph glyph-name="uni1E16" unicode="&#x1e16;" horiz-adv-x="1200" 
d="M271 66h839v-66h-907v1480h897v-66h-829v-620h732v-66h-732v-662zM639 1884l197 232h84l-211 -232h-70zM388 1723v59h570v-59h-570z" />
    <glyph glyph-name="uni1E17" unicode="&#x1e17;" horiz-adv-x="1052" 
d="M954 510h-764q6 -242 114 -352t310 -110q125 0 289 53v-68q-152 -51 -293 -51q-492 0 -492 558q0 279 112.5 417.5t311.5 138.5t305.5 -137.5t106.5 -418.5v-30zM285.5 921q-90.5 -109 -95.5 -345h693q-5 236 -91 345t-250 109q-166 0 -256.5 -109zM246 1394v60h599v-60
h-599zM511 1596l199 272h82l-213 -272h-68z" />
    <glyph glyph-name="uni1E1C" unicode="&#x1e1c;" horiz-adv-x="1200" 
d="M457.5 1691q-76.5 63 -86.5 169h59q13 -85 69.5 -128.5t175.5 -43.5q120 0 175 43.5t66 128.5h59q-10 -107 -84.5 -169.5t-215.5 -62.5t-217.5 63zM704 0v-112q85 -2 134 -38.5t49 -105.5q0 -71 -53 -107.5t-146 -36.5q-49 0 -101 10t-93 29v56q55 -23 101 -33t93 -10
q143 0 143 92t-145 92h-38v164h-445v1480h897v-66h-829v-620h732v-66h-732v-662h839v-66h-406z" />
    <glyph glyph-name="uni1E1D" unicode="&#x1e1d;" horiz-adv-x="1052" 
d="M342.5 1360q-73.5 84 -79.5 228h59q16 -254 225 -254q108 0 161 65.5t60 188.5h59q-5 -145 -77.5 -228.5t-202.5 -83.5q-131 0 -204.5 84zM954 510h-764q6 -242 114 -352t310 -110q125 0 289 53v-68q-152 -51 -293 -51q-24 0 -35 1v-96q77 -5 119 -42t42 -102
q0 -68 -48 -105.5t-133 -37.5q-46 0 -93.5 10t-79.5 28v56q84 -42 174 -42q63 0 93.5 22.5t30.5 68.5q0 48 -31 70.5t-95 22.5h-35v151q-401 49 -401 553q0 279 112.5 417.5t311.5 138.5t305.5 -137.5t106.5 -418.5v-30zM285.5 921q-90.5 -109 -95.5 -345h693
q-5 236 -91 345t-250 109q-166 0 -256.5 -109z" />
    <glyph glyph-name="uni1E20" unicode="&#x1e20;" horiz-adv-x="1399" 
d="M1215 720v-701q-99 -17 -175.5 -23t-164.5 -6q-371 0 -559 185t-188 566q0 262 88.5 431t244.5 247.5t363 78.5q89 0 175 -12.5t182 -37.5v-68q-102 29 -186.5 40.5t-169.5 11.5q-290 0 -457.5 -164.5t-167.5 -523.5q0 -354 168 -521t507 -167q159 0 272 22v642h68z
M470 1723v59h570v-59h-570z" />
    <glyph glyph-name="uni1E21" unicode="&#x1e21;" 
d="M342 -445.5q-87 14.5 -156 39.5v68q167 -56 319 -56q137 0 223 38.5t128.5 126t42.5 234.5v115h-6q-61 -64 -147 -101t-191 -37q-198 0 -317.5 128t-119.5 408q0 578 537 578q160 0 312 -45v-1040q0 -249 -114.5 -360t-349.5 -111q-74 0 -161 14.5zM748 89q90 41 151 123
v788q-113 30 -250 30q-229 0 -344 -122.5t-115 -381.5q0 -478 369 -478q99 0 189 41zM293 1394v60h599v-60h-599z" />
    <glyph glyph-name="uni1E24" unicode="&#x1e24;" horiz-adv-x="1487" 
d="M203 0v1480h68v-686h945v686h68v-1480h-68v728h-945v-728h-68zM699.5 -293q-17.5 17 -17.5 45t17.5 46t44.5 18t44.5 -18t17.5 -46t-17.5 -45t-44.5 -17t-44.5 17z" />
    <glyph glyph-name="uni1E25" unicode="&#x1e25;" horiz-adv-x="1166" 
d="M183 1616h68v-664h6q76 71 174 107.5t208 36.5q170 0 265 -88.5t95 -283.5v-724h-68v723q0 164 -76.5 234.5t-218.5 70.5q-106 0 -208.5 -43t-176.5 -132v-853h-68v1616zM547.5 -293q-17.5 17 -17.5 45t17.5 46t44.5 18t44.5 -18t17.5 -46t-17.5 -45t-44.5 -17t-44.5 17z
" />
    <glyph glyph-name="uni1E2A" unicode="&#x1e2a;" horiz-adv-x="1487" 
d="M203 0v1480h68v-686h945v686h68v-1480h-68v728h-945v-728h-68zM521 -334q-77 66 -79 174h59q5 -87 63 -134t182 -47t180.5 46.5t60.5 134.5h59q-2 -110 -77 -175t-223 -65t-225 66z" />
    <glyph glyph-name="uni1E2B" unicode="&#x1e2b;" horiz-adv-x="1166" 
d="M183 1616h68v-664h6q76 71 174 107.5t208 36.5q170 0 265 -88.5t95 -283.5v-724h-68v723q0 164 -76.5 234.5t-218.5 70.5q-106 0 -208.5 -43t-176.5 -132v-853h-68v1616zM440.5 -369q-63.5 31 -96.5 85t-34 124h59q5 -87 60 -134t165 -47q213 0 221 181h59
q-2 -109 -74 -174.5t-206 -65.5q-90 0 -153.5 31z" />
    <glyph glyph-name="uni1E2E" unicode="&#x1e2e;" horiz-adv-x="474" 
d="M203 0v1480h68v-1480h-68zM203 1884l197 232h84l-211 -232h-70zM-47.5 1707q-17.5 17 -17.5 45t17.5 46t44.5 18t44.5 -18t17.5 -46t-17.5 -45t-44.5 -17t-44.5 17zM432.5 1707q-17.5 17 -17.5 45t17.5 46t44.5 18t44.5 -18t17.5 -46t-17.5 -45t-44.5 -17t-44.5 17z" />
    <glyph glyph-name="uni1E2F" unicode="&#x1e2f;" horiz-adv-x="434" 
d="M183 0v1080h68v-1080h-68zM-47.5 1377q-17.5 17 -17.5 45t17.5 46t44.5 18t44.5 -18t17.5 -46t-17.5 -45t-44.5 -17t-44.5 17zM392.5 1377q-17.5 17 -17.5 45t17.5 46t44.5 18t44.5 -18t17.5 -46t-17.5 -45t-44.5 -17t-44.5 17zM183 1596l199 272h82l-213 -272h-68z" />
    <glyph glyph-name="uni1E36" unicode="&#x1e36;" horiz-adv-x="1096" 
d="M203 0v1480h68v-1414h807v-66h-875zM597.5 -293q-17.5 17 -17.5 45t17.5 46t44.5 18t44.5 -18t17.5 -46t-17.5 -45t-44.5 -17t-44.5 17z" />
    <glyph glyph-name="uni1E37" unicode="&#x1e37;" horiz-adv-x="434" 
d="M183 0v1616h68v-1616h-68zM172.5 -293q-17.5 17 -17.5 45t17.5 46t44.5 18t44.5 -18t17.5 -46t-17.5 -45t-44.5 -17t-44.5 17z" />
    <glyph glyph-name="uni1E3A" unicode="&#x1e3a;" horiz-adv-x="1096" 
d="M203 0v1480h68v-1414h807v-66h-875zM357 -279v59h570v-59h-570z" />
    <glyph glyph-name="uni1E3B" unicode="&#x1e3b;" horiz-adv-x="434" 
d="M183 0v1616h68v-1616h-68zM-48 -279v59h530v-59h-530z" />
    <glyph glyph-name="uni1E42" unicode="&#x1e42;" horiz-adv-x="1780" 
d="M1499 1480h74v-1480h-66v1350l-579 -1150h-76l-579 1146v-1346h-66v1480h75l610 -1216zM845.5 -293q-17.5 17 -17.5 45t17.5 46t44.5 18t44.5 -18t17.5 -46t-17.5 -45t-44.5 -17t-44.5 17z" />
    <glyph glyph-name="uni1E43" unicode="&#x1e43;" horiz-adv-x="1723" 
d="M1470 1007q86 -89 86 -283v-724h-68v722q0 164 -68 236t-191 72q-88 0 -178.5 -42t-155.5 -135q12 -57 12 -129v-724h-68v722q0 164 -66 236t-187 72q-92 0 -181 -44.5t-154 -136.5v-849h-68v1080h60l6 -132h8q67 73 153.5 110.5t181.5 37.5q208 0 280 -166
q78 88 172 127t188 39q152 0 238 -89zM828.5 -293q-17.5 17 -17.5 45t17.5 46t44.5 18t44.5 -18t17.5 -46t-17.5 -45t-44.5 -17t-44.5 17z" />
    <glyph glyph-name="uni1E44" unicode="&#x1e44;" horiz-adv-x="1517" 
d="M1248 1480h66v-1480h-75l-970 1377v-1377h-66v1480h75l970 -1377v1377zM714.5 1707q-17.5 17 -17.5 45t17.5 46t44.5 18t44.5 -18t17.5 -46t-17.5 -45t-44.5 -17t-44.5 17z" />
    <glyph glyph-name="uni1E45" unicode="&#x1e45;" horiz-adv-x="1166" 
d="M183 1080h60l6 -131h8q77 71 175 109t205 38q362 0 362 -377v-719h-68v720q0 165 -76 237.5t-219 72.5q-103 0 -206.5 -42t-178.5 -133v-855h-68v1080zM547.5 1377q-17.5 17 -17.5 45t17.5 46t44.5 18t44.5 -18t17.5 -46t-17.5 -45t-44.5 -17t-44.5 17z" />
    <glyph glyph-name="uni1E46" unicode="&#x1e46;" horiz-adv-x="1517" 
d="M1248 1480h66v-1480h-75l-970 1377v-1377h-66v1480h75l970 -1377v1377zM714.5 -293q-17.5 17 -17.5 45t17.5 46t44.5 18t44.5 -18t17.5 -46t-17.5 -45t-44.5 -17t-44.5 17z" />
    <glyph glyph-name="uni1E47" unicode="&#x1e47;" horiz-adv-x="1166" 
d="M183 1080h60l6 -131h8q77 71 175 109t205 38q362 0 362 -377v-719h-68v720q0 165 -76 237.5t-219 72.5q-103 0 -206.5 -42t-178.5 -133v-855h-68v1080zM547.5 -293q-17.5 17 -17.5 45t17.5 46t44.5 18t44.5 -18t17.5 -46t-17.5 -45t-44.5 -17t-44.5 17z" />
    <glyph glyph-name="uni1E48" unicode="&#x1e48;" horiz-adv-x="1517" 
d="M1248 1480h66v-1480h-75l-970 1377v-1377h-66v1480h75l970 -1377v1377zM474 -279v59h570v-59h-570z" />
    <glyph glyph-name="uni1E49" unicode="&#x1e49;" horiz-adv-x="1166" 
d="M183 1080h60l6 -131h8q77 71 175 109t205 38q362 0 362 -377v-719h-68v720q0 165 -76 237.5t-219 72.5q-103 0 -206.5 -42t-178.5 -133v-855h-68v1080zM327 -279v59h530v-59h-530z" />
    <glyph glyph-name="uni1E4C" unicode="&#x1e4c;" horiz-adv-x="1470" 
d="M289.5 167q-161.5 185 -161.5 573q0 262 76 431t211.5 248t319.5 79q284 0 445.5 -184.5t161.5 -573.5q0 -261 -76 -430t-211.5 -248.5t-319.5 -79.5q-284 0 -445.5 185zM1129 213q141 163 141 523q0 695 -535 695q-252 0 -393.5 -163.5t-141.5 -523.5q0 -694 535 -694
q253 0 394 163zM701 1884l197 232h84l-211 -232h-70zM810 1708q-36 10 -90 30q-47 18 -76.5 26.5t-60.5 8.5q-52 0 -91.5 -17t-73.5 -54v68q57 60 165 60q41 0 77 -10t90 -30q47 -18 76.5 -26.5t60.5 -8.5q52 0 91.5 17t74.5 54v-68q-58 -60 -166 -60q-41 0 -77 10z" />
    <glyph glyph-name="uni1E4D" unicode="&#x1e4d;" horiz-adv-x="1131" 
d="M236.5 118q-118.5 136 -118.5 422q0 283 119.5 419.5t328.5 136.5q211 0 329 -134.5t118 -421.5q0 -283 -119 -420.5t-328 -137.5q-211 0 -329.5 136zM843.5 163.5q97.5 115.5 97.5 374.5q0 261 -97 376.5t-278 115.5t-278.5 -114.5t-97.5 -372.5q0 -262 97.5 -378.5
t278.5 -116.5q180 0 277.5 115.5zM634.5 1390.5q-35.5 10.5 -83.5 30.5q-46 18 -73 26t-54 8q-47 0 -85 -17t-72 -53v67q56 61 157 61q38 0 73.5 -10.5t83.5 -30.5q46 -18 73 -26t54 -8q47 0 85 17t73 53v-67q-58 -61 -158 -61q-38 0 -73.5 10.5zM532 1596l199 272h82
l-213 -272h-68z" />
    <glyph glyph-name="uni1E4E" unicode="&#x1e4e;" horiz-adv-x="1470" 
d="M289.5 167q-161.5 185 -161.5 573q0 262 76 431t211.5 248t319.5 79q284 0 445.5 -184.5t161.5 -573.5q0 -261 -76 -430t-211.5 -248.5t-319.5 -79.5q-284 0 -445.5 185zM1129 213q141 163 141 523q0 695 -535 695q-252 0 -393.5 -163.5t-141.5 -523.5q0 -694 535 -694
q253 0 394 163zM810 1708q-36 10 -90 30q-47 18 -76.5 26.5t-60.5 8.5q-52 0 -91.5 -17t-73.5 -54v68q57 60 165 60q41 0 77 -10t90 -30q47 -18 76.5 -26.5t60.5 -8.5q52 0 91.5 17t74.5 54v-68q-58 -60 -166 -60q-41 0 -77 10zM450.5 1935q-17.5 17 -17.5 45t17.5 46
t44.5 18t44.5 -18t17.5 -46t-17.5 -45t-44.5 -17t-44.5 17zM930.5 1935q-17.5 17 -17.5 45t17.5 46t44.5 18t44.5 -18t17.5 -46t-17.5 -45t-44.5 -17t-44.5 17z" />
    <glyph glyph-name="uni1E4F" unicode="&#x1e4f;" horiz-adv-x="1131" 
d="M236.5 118q-118.5 136 -118.5 422q0 283 119.5 419.5t328.5 136.5q211 0 329 -134.5t118 -421.5q0 -283 -119 -420.5t-328 -137.5q-211 0 -329.5 136zM843.5 163.5q97.5 115.5 97.5 374.5q0 261 -97 376.5t-278 115.5t-278.5 -114.5t-97.5 -372.5q0 -262 97.5 -378.5
t278.5 -116.5q180 0 277.5 115.5zM634.5 1390.5q-35.5 10.5 -83.5 30.5q-46 18 -73 26t-54 8q-47 0 -85 -17t-72 -53v67q56 61 157 61q38 0 73.5 -10.5t83.5 -30.5q46 -18 73 -26t54 -8q47 0 85 17t73 53v-67q-58 -61 -158 -61q-38 0 -73.5 10.5zM301.5 1641
q-17.5 17 -17.5 45t17.5 46t44.5 18t44.5 -18t17.5 -46t-17.5 -45t-44.5 -17t-44.5 17zM741.5 1641q-17.5 17 -17.5 45t17.5 46t44.5 18t44.5 -18t17.5 -46t-17.5 -45t-44.5 -17t-44.5 17z" />
    <glyph glyph-name="uni1E50" unicode="&#x1e50;" horiz-adv-x="1470" 
d="M289.5 167q-161.5 185 -161.5 573q0 262 76 431t211.5 248t319.5 79q284 0 445.5 -184.5t161.5 -573.5q0 -261 -76 -430t-211.5 -248.5t-319.5 -79.5q-284 0 -445.5 185zM1129 213q141 163 141 523q0 695 -535 695q-252 0 -393.5 -163.5t-141.5 -523.5q0 -694 535 -694
q253 0 394 163zM701 1884l-213 232h83l198 -232h-68zM450 1723v59h570v-59h-570z" />
    <glyph glyph-name="uni1E51" unicode="&#x1e51;" horiz-adv-x="1131" 
d="M236.5 118q-118.5 136 -118.5 422q0 283 119.5 419.5t328.5 136.5q211 0 329 -134.5t118 -421.5q0 -283 -119 -420.5t-328 -137.5q-211 0 -329.5 136zM843.5 163.5q97.5 115.5 97.5 374.5q0 261 -97 376.5t-278 115.5t-278.5 -114.5t-97.5 -372.5q0 -262 97.5 -378.5
t278.5 -116.5q180 0 277.5 115.5zM267 1394v60h599v-60h-599zM532 1596l-213 272h83l198 -272h-68z" />
    <glyph glyph-name="uni1E52" unicode="&#x1e52;" horiz-adv-x="1470" 
d="M289.5 167q-161.5 185 -161.5 573q0 262 76 431t211.5 248t319.5 79q284 0 445.5 -184.5t161.5 -573.5q0 -261 -76 -430t-211.5 -248.5t-319.5 -79.5q-284 0 -445.5 185zM1129 213q141 163 141 523q0 695 -535 695q-252 0 -393.5 -163.5t-141.5 -523.5q0 -694 535 -694
q253 0 394 163zM701 1884l197 232h84l-211 -232h-70zM450 1723v59h570v-59h-570z" />
    <glyph glyph-name="uni1E53" unicode="&#x1e53;" horiz-adv-x="1131" 
d="M236.5 118q-118.5 136 -118.5 422q0 283 119.5 419.5t328.5 136.5q211 0 329 -134.5t118 -421.5q0 -283 -119 -420.5t-328 -137.5q-211 0 -329.5 136zM843.5 163.5q97.5 115.5 97.5 374.5q0 261 -97 376.5t-278 115.5t-278.5 -114.5t-97.5 -372.5q0 -262 97.5 -378.5
t278.5 -116.5q180 0 277.5 115.5zM267 1394v60h599v-60h-599zM532 1596l199 272h82l-213 -272h-68z" />
    <glyph glyph-name="uni1E5A" unicode="&#x1e5a;" horiz-adv-x="1338" 
d="M1171 0l-531 654q-51 -3 -106 -3q-72 0 -129 3t-134 9v-663h-68v1458q93 17 181 26.5t200 9.5q195 0 320 -43.5t186 -135.5t61 -238q1 -180 -107 -283.5t-328 -131.5l540 -662h-85zM406 718.5q51 -2.5 128 -2.5q194 0 315 39.5t177.5 118.5t56.5 200q0 130 -51.5 207.5
t-161 112t-289.5 34.5q-95 0 -164 -6.5t-146 -20.5v-673q84 -7 135 -9.5zM647.5 -293q-17.5 17 -17.5 45t17.5 46t44.5 18t44.5 -18t17.5 -46t-17.5 -45t-44.5 -17t-44.5 17z" />
    <glyph glyph-name="uni1E5B" unicode="&#x1e5b;" horiz-adv-x="727" 
d="M183 1080h60l6 -147h8q64 72 161 113.5t195 41.5q54 0 99 -8v-68q-38 6 -99 6q-95 0 -196 -45.5t-166 -132.5v-840h-68v1080zM172.5 -293q-17.5 17 -17.5 45t17.5 46t44.5 18t44.5 -18t17.5 -46t-17.5 -45t-44.5 -17t-44.5 17z" />
    <glyph glyph-name="uni1E5E" unicode="&#x1e5e;" horiz-adv-x="1338" 
d="M1171 0l-531 654q-51 -3 -106 -3q-72 0 -129 3t-134 9v-663h-68v1458q93 17 181 26.5t200 9.5q195 0 320 -43.5t186 -135.5t61 -238q1 -180 -107 -283.5t-328 -131.5l540 -662h-85zM406 718.5q51 -2.5 128 -2.5q194 0 315 39.5t177.5 118.5t56.5 200q0 130 -51.5 207.5
t-161 112t-289.5 34.5q-95 0 -164 -6.5t-146 -20.5v-673q84 -7 135 -9.5zM407 -279v59h570v-59h-570z" />
    <glyph glyph-name="uni1E5F" unicode="&#x1e5f;" horiz-adv-x="727" 
d="M183 1080h60l6 -147h8q64 72 161 113.5t195 41.5q54 0 99 -8v-68q-38 6 -99 6q-95 0 -196 -45.5t-166 -132.5v-840h-68v1080zM-48 -279v59h530v-59h-530z" />
    <glyph glyph-name="uni1E60" unicode="&#x1e60;" horiz-adv-x="1082" 
d="M292 -2.5q-95 15.5 -181 45.5v68q188 -63 367 -63q218 0 328.5 84t110.5 248q0 92 -37 152.5t-116 100.5t-211 70l-67 15q-201 45 -296.5 139.5t-95.5 250.5q0 121 56.5 208.5t168 134.5t274.5 47q87 0 173.5 -12.5t162.5 -36.5v-68q-168 51 -340 51q-210 0 -316.5 -82
t-106.5 -238q0 -91 33.5 -152t107 -102t199.5 -70l67 -15q147 -33 238 -84.5t134.5 -126.5t43.5 -180q0 -193 -133.5 -296.5t-380.5 -103.5q-88 0 -183 15.5zM503.5 1707q-17.5 17 -17.5 45t17.5 46t44.5 18t44.5 -18t17.5 -46t-17.5 -45t-44.5 -17t-44.5 17z" />
    <glyph glyph-name="uni1E61" unicode="&#x1e61;" horiz-adv-x="922" 
d="M273.5 -8q-71.5 10 -140.5 33v68q84 -25 153.5 -35t146.5 -10q170 0 250 58t80 168q0 62 -21 103.5t-69 68.5t-130 43l-147 29q-147 31 -212.5 101t-65.5 183q0 86 43 152t133.5 104t225.5 38q131 0 255 -34v-68q-71 20 -129.5 28t-125.5 8q-172 0 -251 -61t-79 -165
q0 -84 47 -137t163 -77l148 -29q153 -31 219.5 -98.5t66.5 -181.5q0 -141 -102 -220t-304 -79q-83 0 -154.5 10zM421.5 1377q-17.5 17 -17.5 45t17.5 46t44.5 18t44.5 -18t17.5 -46t-17.5 -45t-44.5 -17t-44.5 17z" />
    <glyph glyph-name="uni1E62" unicode="&#x1e62;" horiz-adv-x="1082" 
d="M292 -2.5q-95 15.5 -181 45.5v68q188 -63 367 -63q218 0 328.5 84t110.5 248q0 92 -37 152.5t-116 100.5t-211 70l-67 15q-201 45 -296.5 139.5t-95.5 250.5q0 121 56.5 208.5t168 134.5t274.5 47q87 0 173.5 -12.5t162.5 -36.5v-68q-168 51 -340 51q-210 0 -316.5 -82
t-106.5 -238q0 -91 33.5 -152t107 -102t199.5 -70l67 -15q147 -33 238 -84.5t134.5 -126.5t43.5 -180q0 -193 -133.5 -296.5t-380.5 -103.5q-88 0 -183 15.5zM503.5 -293q-17.5 17 -17.5 45t17.5 46t44.5 18t44.5 -18t17.5 -46t-17.5 -45t-44.5 -17t-44.5 17z" />
    <glyph glyph-name="uni1E63" unicode="&#x1e63;" horiz-adv-x="922" 
d="M273.5 -8q-71.5 10 -140.5 33v68q84 -25 153.5 -35t146.5 -10q170 0 250 58t80 168q0 62 -21 103.5t-69 68.5t-130 43l-147 29q-147 31 -212.5 101t-65.5 183q0 86 43 152t133.5 104t225.5 38q131 0 255 -34v-68q-71 20 -129.5 28t-125.5 8q-172 0 -251 -61t-79 -165
q0 -84 47 -137t163 -77l148 -29q153 -31 219.5 -98.5t66.5 -181.5q0 -141 -102 -220t-304 -79q-83 0 -154.5 10zM421.5 -293q-17.5 17 -17.5 45t17.5 46t44.5 18t44.5 -18t17.5 -46t-17.5 -45t-44.5 -17t-44.5 17z" />
    <glyph glyph-name="uni1E64" unicode="&#x1e64;" horiz-adv-x="1082" 
d="M292 -2.5q-95 15.5 -181 45.5v68q188 -63 367 -63q218 0 328.5 84t110.5 248q0 92 -37 152.5t-116 100.5t-211 70l-67 15q-201 45 -296.5 139.5t-95.5 250.5q0 121 56.5 208.5t168 134.5t274.5 47q87 0 173.5 -12.5t162.5 -36.5v-68q-168 51 -340 51q-210 0 -316.5 -82
t-106.5 -238q0 -91 33.5 -152t107 -102t199.5 -70l67 -15q147 -33 238 -84.5t134.5 -126.5t43.5 -180q0 -193 -133.5 -296.5t-380.5 -103.5q-88 0 -183 15.5zM463.5 1865q-17.5 17 -17.5 45t17.5 46t44.5 18t44.5 -18t17.5 -46t-17.5 -45t-44.5 -17t-44.5 17zM514 1616
l199 272h82l-213 -272h-68z" />
    <glyph glyph-name="uni1E65" unicode="&#x1e65;" horiz-adv-x="922" 
d="M273.5 -8q-71.5 10 -140.5 33v68q84 -25 153.5 -35t146.5 -10q170 0 250 58t80 168q0 62 -21 103.5t-69 68.5t-130 43l-147 29q-147 31 -212.5 101t-65.5 183q0 86 43 152t133.5 104t225.5 38q131 0 255 -34v-68q-71 20 -129.5 28t-125.5 8q-172 0 -251 -61t-79 -165
q0 -84 47 -137t163 -77l148 -29q153 -31 219.5 -98.5t66.5 -181.5q0 -141 -102 -220t-304 -79q-83 0 -154.5 10zM381.5 1593q-17.5 17 -17.5 45t17.5 46t44.5 18t44.5 -18t17.5 -46t-17.5 -45t-44.5 -17t-44.5 17zM432 1264l238 352h81l-251 -352h-68z" />
    <glyph glyph-name="uni1E66" unicode="&#x1e66;" horiz-adv-x="1082" 
d="M292 -2.5q-95 15.5 -181 45.5v68q188 -63 367 -63q218 0 328.5 84t110.5 248q0 92 -37 152.5t-116 100.5t-211 70l-67 15q-201 45 -296.5 139.5t-95.5 250.5q0 121 56.5 208.5t168 134.5t274.5 47q87 0 173.5 -12.5t162.5 -36.5v-68q-168 51 -340 51q-210 0 -316.5 -82
t-106.5 -238q0 -91 33.5 -152t107 -102t199.5 -70l67 -15q147 -33 238 -84.5t134.5 -126.5t43.5 -180q0 -193 -133.5 -296.5t-380.5 -103.5q-88 0 -183 15.5zM503.5 1905q-17.5 17 -17.5 45t17.5 46t44.5 18t44.5 -18t17.5 -46t-17.5 -45t-44.5 -17t-44.5 17zM762 1888h86
l-262 -272h-76l-262 272h87l214 -227z" />
    <glyph glyph-name="uni1E67" unicode="&#x1e67;" horiz-adv-x="922" 
d="M273.5 -8q-71.5 10 -140.5 33v68q84 -25 153.5 -35t146.5 -10q170 0 250 58t80 168q0 62 -21 103.5t-69 68.5t-130 43l-147 29q-147 31 -212.5 101t-65.5 183q0 86 43 152t133.5 104t225.5 38q131 0 255 -34v-68q-71 20 -129.5 28t-125.5 8q-172 0 -251 -61t-79 -165
q0 -84 47 -137t163 -77l148 -29q153 -31 219.5 -98.5t66.5 -181.5q0 -141 -102 -220t-304 -79q-83 0 -154.5 10zM421.5 1631q-17.5 17 -17.5 45t17.5 46t44.5 18t44.5 -18t17.5 -46t-17.5 -45t-44.5 -17t-44.5 17zM675 1616h74l-245 -352h-76l-245 352h75l209 -306z" />
    <glyph glyph-name="uni1E68" unicode="&#x1e68;" horiz-adv-x="1082" 
d="M292 -2.5q-95 15.5 -181 45.5v68q188 -63 367 -63q218 0 328.5 84t110.5 248q0 92 -37 152.5t-116 100.5t-211 70l-67 15q-201 45 -296.5 139.5t-95.5 250.5q0 121 56.5 208.5t168 134.5t274.5 47q87 0 173.5 -12.5t162.5 -36.5v-68q-168 51 -340 51q-210 0 -316.5 -82
t-106.5 -238q0 -91 33.5 -152t107 -102t199.5 -70l67 -15q147 -33 238 -84.5t134.5 -126.5t43.5 -180q0 -193 -133.5 -296.5t-380.5 -103.5q-88 0 -183 15.5zM503.5 -293q-17.5 17 -17.5 45t17.5 46t44.5 18t44.5 -18t17.5 -46t-17.5 -45t-44.5 -17t-44.5 17zM503.5 1707
q-17.5 17 -17.5 45t17.5 46t44.5 18t44.5 -18t17.5 -46t-17.5 -45t-44.5 -17t-44.5 17z" />
    <glyph glyph-name="uni1E69" unicode="&#x1e69;" horiz-adv-x="922" 
d="M273.5 -8q-71.5 10 -140.5 33v68q84 -25 153.5 -35t146.5 -10q170 0 250 58t80 168q0 62 -21 103.5t-69 68.5t-130 43l-147 29q-147 31 -212.5 101t-65.5 183q0 86 43 152t133.5 104t225.5 38q131 0 255 -34v-68q-71 20 -129.5 28t-125.5 8q-172 0 -251 -61t-79 -165
q0 -84 47 -137t163 -77l148 -29q153 -31 219.5 -98.5t66.5 -181.5q0 -141 -102 -220t-304 -79q-83 0 -154.5 10zM421.5 -293q-17.5 17 -17.5 45t17.5 46t44.5 18t44.5 -18t17.5 -46t-17.5 -45t-44.5 -17t-44.5 17zM421.5 1377q-17.5 17 -17.5 45t17.5 46t44.5 18t44.5 -18
t17.5 -46t-17.5 -45t-44.5 -17t-44.5 17z" />
    <glyph glyph-name="uni1E6C" unicode="&#x1e6c;" horiz-adv-x="1178" 
d="M555 0v1414h-538v66h1144v-66h-538v-1414h-68zM544.5 -293q-17.5 17 -17.5 45t17.5 46t44.5 18t44.5 -18t17.5 -46t-17.5 -45t-44.5 -17t-44.5 17z" />
    <glyph glyph-name="uni1E6D" unicode="&#x1e6d;" horiz-adv-x="745" 
d="M738 69v-68q-43 -11 -79.5 -15t-79.5 -4q-163 0 -250.5 84.5t-87.5 259.5v690h-230v64h230l8 400h60v-400h406v-64h-406v-678q0 -153 69 -221.5t205 -68.5q68 0 155 21zM445.5 -293q-17.5 17 -17.5 45t17.5 46t44.5 18t44.5 -18t17.5 -46t-17.5 -45t-44.5 -17t-44.5 17z
" />
    <glyph glyph-name="uni1E6E" unicode="&#x1e6e;" horiz-adv-x="1178" 
d="M555 0v1414h-538v66h1144v-66h-538v-1414h-68zM304 -279v59h570v-59h-570z" />
    <glyph glyph-name="uni1E6F" unicode="&#x1e6f;" horiz-adv-x="745" 
d="M738 69v-68q-43 -11 -79.5 -15t-79.5 -4q-163 0 -250.5 84.5t-87.5 259.5v690h-230v64h230l8 400h60v-400h406v-64h-406v-678q0 -153 69 -221.5t205 -68.5q68 0 155 21zM225 -279v59h530v-59h-530z" />
    <glyph glyph-name="uni1E78" unicode="&#x1e78;" horiz-adv-x="1459" 
d="M429 41.5q-118 59.5 -176 184t-58 322.5v932h68v-942q0 -171 49.5 -279t152.5 -159.5t266 -51.5q162 0 265 51.5t152.5 159.5t49.5 279v942h66v-932q0 -198 -57.5 -322.5t-174.5 -184t-301 -59.5t-302 59.5zM697 1884l197 232h84l-211 -232h-70zM806 1708q-36 10 -90 30
q-47 18 -76.5 26.5t-60.5 8.5q-52 0 -91.5 -17t-73.5 -54v68q57 60 165 60q41 0 77 -10t90 -30q47 -18 76.5 -26.5t60.5 -8.5q52 0 91.5 17t74.5 54v-68q-58 -60 -166 -60q-41 0 -77 10z" />
    <glyph glyph-name="uni1E79" unicode="&#x1e79;" horiz-adv-x="1156" 
d="M261 71q-94 89 -94 284v725h68v-725q0 -163 76 -235t213 -72q103 0 205 44t176 133v855h68v-1080h-60l-6 126h-8q-76 -70 -173.5 -107t-203.5 -37q-167 0 -261 89zM638.5 1390.5q-35.5 10.5 -83.5 30.5q-46 18 -73 26t-54 8q-47 0 -85 -17t-72 -53v67q56 61 157 61
q38 0 73.5 -10.5t83.5 -30.5q46 -18 73 -26t54 -8q47 0 85 17t73 53v-67q-58 -61 -158 -61q-38 0 -73.5 10.5zM536 1596l199 272h82l-213 -272h-68z" />
    <glyph glyph-name="uni1E7A" unicode="&#x1e7a;" horiz-adv-x="1459" 
d="M429 41.5q-118 59.5 -176 184t-58 322.5v932h68v-942q0 -171 49.5 -279t152.5 -159.5t266 -51.5q162 0 265 51.5t152.5 159.5t49.5 279v942h66v-932q0 -198 -57.5 -322.5t-174.5 -184t-301 -59.5t-302 59.5zM446 1723v59h570v-59h-570zM446.5 1935q-17.5 17 -17.5 45
t17.5 46t44.5 18t44.5 -18t17.5 -46t-17.5 -45t-44.5 -17t-44.5 17zM926.5 1935q-17.5 17 -17.5 45t17.5 46t44.5 18t44.5 -18t17.5 -46t-17.5 -45t-44.5 -17t-44.5 17z" />
    <glyph glyph-name="uni1E7B" unicode="&#x1e7b;" horiz-adv-x="1156" 
d="M261 71q-94 89 -94 284v725h68v-725q0 -163 76 -235t213 -72q103 0 205 44t176 133v855h68v-1080h-60l-6 126h-8q-76 -70 -173.5 -107t-203.5 -37q-167 0 -261 89zM271 1394v60h599v-60h-599zM305.5 1641q-17.5 17 -17.5 45t17.5 46t44.5 18t44.5 -18t17.5 -46t-17.5 -45
t-44.5 -17t-44.5 17zM745.5 1641q-17.5 17 -17.5 45t17.5 46t44.5 18t44.5 -18t17.5 -46t-17.5 -45t-44.5 -17t-44.5 17z" />
    <glyph glyph-name="Wgrave" unicode="&#x1e80;" horiz-adv-x="2146" 
d="M1999 1480h70l-459 -1480h-94l-443 1403l-443 -1403h-94l-460 1480h73l435 -1414l442 1414h94l444 -1414zM1040 1616l-213 272h83l198 -272h-68z" />
    <glyph glyph-name="wgrave" unicode="&#x1e81;" horiz-adv-x="1714" 
d="M1564 1080h71l-350 -1080h-94l-333 1007l-333 -1007h-94l-352 1080h74l326 -1015l332 1015h94l334 -1015zM825 1264l-251 352h81l238 -352h-68z" />
    <glyph glyph-name="Wacute" unicode="&#x1e82;" horiz-adv-x="2146" 
d="M1999 1480h70l-459 -1480h-94l-443 1403l-443 -1403h-94l-460 1480h73l435 -1414l442 1414h94l444 -1414zM1040 1616l199 272h82l-213 -272h-68z" />
    <glyph glyph-name="wacute" unicode="&#x1e83;" horiz-adv-x="1714" 
d="M1564 1080h71l-350 -1080h-94l-333 1007l-333 -1007h-94l-352 1080h74l326 -1015l332 1015h94l334 -1015zM825 1264l238 352h81l-251 -352h-68z" />
    <glyph glyph-name="Wdieresis" unicode="&#x1e84;" horiz-adv-x="2146" 
d="M1999 1480h70l-459 -1480h-94l-443 1403l-443 -1403h-94l-460 1480h73l435 -1414l442 1414h94l444 -1414zM789.5 1707q-17.5 17 -17.5 45t17.5 46t44.5 18t44.5 -18t17.5 -46t-17.5 -45t-44.5 -17t-44.5 17zM1269.5 1707q-17.5 17 -17.5 45t17.5 46t44.5 18t44.5 -18
t17.5 -46t-17.5 -45t-44.5 -17t-44.5 17z" />
    <glyph glyph-name="wdieresis" unicode="&#x1e85;" horiz-adv-x="1714" 
d="M1564 1080h71l-350 -1080h-94l-333 1007l-333 -1007h-94l-352 1080h74l326 -1015l332 1015h94l334 -1015zM594.5 1377q-17.5 17 -17.5 45t17.5 46t44.5 18t44.5 -18t17.5 -46t-17.5 -45t-44.5 -17t-44.5 17zM1034.5 1377q-17.5 17 -17.5 45t17.5 46t44.5 18t44.5 -18
t17.5 -46t-17.5 -45t-44.5 -17t-44.5 17z" />
    <glyph glyph-name="uni1E8E" unicode="&#x1e8e;" horiz-adv-x="1178" 
d="M1188 1480l-565 -801v-679h-68v679l-573 801h86l522 -736l516 736h82zM544.5 1707q-17.5 17 -17.5 45t17.5 46t44.5 18t44.5 -18t17.5 -46t-17.5 -45t-44.5 -17t-44.5 17z" />
    <glyph glyph-name="uni1E8F" unicode="&#x1e8f;" horiz-adv-x="1064" 
d="M961 1080h71l-638 -1520h-72l185 440h-21l-454 1080h76l425 -1025zM489.5 1377q-17.5 17 -17.5 45t17.5 46t44.5 18t44.5 -18t17.5 -46t-17.5 -45t-44.5 -17t-44.5 17z" />
    <glyph glyph-name="uni1E92" unicode="&#x1e92;" horiz-adv-x="1180" 
d="M163 64h950v-64h-1046v40l936 1376h-923v64h1020v-40zM545.5 -293q-17.5 17 -17.5 45t17.5 46t44.5 18t44.5 -18t17.5 -46t-17.5 -45t-44.5 -17t-44.5 17z" />
    <glyph glyph-name="uni1E93" unicode="&#x1e93;" horiz-adv-x="927" 
d="M161 64h705v-64h-801v40l691 976h-678v64h775v-40zM421.5 -293q-17.5 17 -17.5 45t17.5 46t44.5 18t44.5 -18t17.5 -46t-17.5 -45t-44.5 -17t-44.5 17z" />
    <glyph glyph-name="uni1E97" unicode="&#x1e97;" horiz-adv-x="745" 
d="M738 69v-68q-43 -11 -79.5 -15t-79.5 -4q-163 0 -250.5 84.5t-87.5 259.5v690h-230v64h230l8 400h60v-400h406v-64h-406v-678q0 -153 69 -221.5t205 -68.5q68 0 155 21zM10.5 1657q-17.5 17 -17.5 45t17.5 46t44.5 18t44.5 -18t17.5 -46t-17.5 -45t-44.5 -17t-44.5 17z
M450.5 1657q-17.5 17 -17.5 45t17.5 46t44.5 18t44.5 -18t17.5 -46t-17.5 -45t-44.5 -17t-44.5 17z" />
    <glyph glyph-name="uni1E9E" unicode="&#x1e9e;" horiz-adv-x="1734" 
d="M1463 688.5q91 -51.5 134.5 -126.5t43.5 -180q0 -193 -133.5 -296.5t-380.5 -103.5q-88 0 -183 15.5t-181 45.5v68q188 -63 367 -63q218 0 328.5 84t110.5 248q0 92 -37 152.5t-116 100.5t-211 70l-67 15q-201 45 -296.5 139.5t-95.5 250.5q0 101 39.5 179t117.5 129
q-70 16 -164 16q-163 0 -266 -51.5t-152.5 -159t-49.5 -278.5v-943h-68v933q0 197 58 322t176 184t302 59q152 0 251 -40q108 40 255 40q87 0 173.5 -12.5t162.5 -36.5v-68q-168 51 -340 51q-210 0 -316.5 -82t-106.5 -238q0 -91 33.5 -152t107 -102t199.5 -70l67 -15
q147 -33 238 -84.5z" />
    <glyph glyph-name="uni1EA0" unicode="&#x1ea0;" horiz-adv-x="1364" 
d="M1246 0l-212 528h-706l-212 -528h-73l596 1480h86l597 -1480h-76zM354 594h654l-327 816zM638.5 -293q-17.5 17 -17.5 45t17.5 46t44.5 18t44.5 -18t17.5 -46t-17.5 -45t-44.5 -17t-44.5 17z" />
    <glyph glyph-name="uni1EA1" unicode="&#x1ea1;" horiz-adv-x="1043" 
d="M702.5 1063q84.5 -33 129 -111t44.5 -210v-742h-60l-6 131h-8q-59 -67 -153 -107t-199 -40q-154 0 -241.5 75t-87.5 209q0 135 89.5 208.5t285.5 96.5l312 38v130q0 112 -36 175.5t-104.5 88.5t-175.5 25q-72 0 -152.5 -12.5t-158.5 -40.5v68q65 25 147.5 38t162.5 13
q127 0 211.5 -33zM644.5 92q92.5 42 163.5 127v326l-314 -38q-159 -18 -229 -74.5t-70 -159.5q0 -108 64 -165.5t193 -57.5q100 0 192.5 42zM492.5 -293q-17.5 17 -17.5 45t17.5 46t44.5 18t44.5 -18t17.5 -46t-17.5 -45t-44.5 -17t-44.5 17z" />
    <glyph glyph-name="uni1EA2" unicode="&#x1ea2;" horiz-adv-x="1364" 
d="M1246 0l-212 528h-706l-212 -528h-73l596 1480h86l597 -1480h-76zM354 594h654l-327 816zM666 1664q15 19 34.5 30t52.5 25q37 14 55 27t18 35q0 26 -27.5 39.5t-97.5 13.5q-58 0 -105 -8t-102 -28v54q88 36 207 36q93 0 138.5 -29.5t45.5 -77.5q0 -39 -23.5 -58.5
t-68.5 -38.5q-38 -16 -56.5 -29.5t-21.5 -38.5h-65q1 29 16 48z" />
    <glyph glyph-name="uni1EA3" unicode="&#x1ea3;" horiz-adv-x="1043" 
d="M702.5 1063q84.5 -33 129 -111t44.5 -210v-742h-60l-6 131h-8q-59 -67 -153 -107t-199 -40q-154 0 -241.5 75t-87.5 209q0 135 89.5 208.5t285.5 96.5l312 38v130q0 112 -36 175.5t-104.5 88.5t-175.5 25q-72 0 -152.5 -12.5t-158.5 -40.5v68q65 25 147.5 38t162.5 13
q127 0 211.5 -33zM644.5 92q92.5 42 163.5 127v326l-314 -38q-159 -18 -229 -74.5t-70 -159.5q0 -108 64 -165.5t193 -57.5q100 0 192.5 42zM503.5 1328.5q14.5 26.5 34 43.5t50.5 38q36 23 52.5 40.5t16.5 44.5q0 40 -33 58.5t-103 18.5q-40 0 -83.5 -6t-76.5 -18v56
q31 11 73 17.5t82 6.5q101 0 150.5 -34.5t49.5 -98.5q0 -44 -21.5 -69t-63.5 -52q-39 -26 -59.5 -48.5t-21.5 -61.5h-62q1 38 15.5 64.5z" />
    <glyph glyph-name="uni1EA4" unicode="&#x1ea4;" horiz-adv-x="1364" 
d="M1246 0l-212 528h-706l-212 -528h-73l596 1480h86l597 -1480h-76zM354 594h654l-327 816zM1114 2064h82l-213 -272h-68zM645 1888h76l262 -272h-86l-213 227l-214 -227h-87z" />
    <glyph glyph-name="uni1EA5" unicode="&#x1ea5;" horiz-adv-x="1043" 
d="M702.5 1063q84.5 -33 129 -111t44.5 -210v-742h-60l-6 131h-8q-59 -67 -153 -107t-199 -40q-154 0 -241.5 75t-87.5 209q0 135 89.5 208.5t285.5 96.5l312 38v130q0 112 -36 175.5t-104.5 88.5t-175.5 25q-72 0 -152.5 -12.5t-158.5 -40.5v68q65 25 147.5 38t162.5 13
q127 0 211.5 -33zM644.5 92q92.5 42 163.5 127v326l-314 -38q-159 -18 -229 -74.5t-70 -159.5q0 -108 64 -165.5t193 -57.5q100 0 192.5 42zM929 1868h83l-213 -272h-68zM480 1616h76l239 -352h-74l-202 305l-203 -305h-75z" />
    <glyph glyph-name="uni1EA6" unicode="&#x1ea6;" horiz-adv-x="1364" 
d="M1246 0l-212 528h-706l-212 -528h-73l596 1480h86l597 -1480h-76zM354 594h654l-327 816zM1003 1792h-68l-213 272h83zM645 1888h76l262 -272h-86l-213 227l-214 -227h-87z" />
    <glyph glyph-name="uni1EA7" unicode="&#x1ea7;" horiz-adv-x="1043" 
d="M702.5 1063q84.5 -33 129 -111t44.5 -210v-742h-60l-6 131h-8q-59 -67 -153 -107t-199 -40q-154 0 -241.5 75t-87.5 209q0 135 89.5 208.5t285.5 96.5l312 38v130q0 112 -36 175.5t-104.5 88.5t-175.5 25q-72 0 -152.5 -12.5t-158.5 -40.5v68q65 25 147.5 38t162.5 13
q127 0 211.5 -33zM644.5 92q92.5 42 163.5 127v326l-314 -38q-159 -18 -229 -74.5t-70 -159.5q0 -108 64 -165.5t193 -57.5q100 0 192.5 42zM818 1596h-68l-213 272h83zM480 1616h76l239 -352h-74l-202 305l-203 -305h-75z" />
    <glyph glyph-name="uni1EA8" unicode="&#x1ea8;" horiz-adv-x="1364" 
d="M1246 0l-212 528h-706l-212 -528h-73l596 1480h86l597 -1480h-76zM354 594h654l-327 816zM1105.5 2034.5q45.5 -29.5 45.5 -77.5q0 -39 -23.5 -58.5t-68.5 -38.5q-38 -16 -56.5 -29.5t-21.5 -38.5h-65q1 29 16 48t34.5 30t52.5 25q37 14 55 27t18 35q0 26 -27.5 39.5
t-97.5 13.5q-58 0 -105 -8t-102 -28v54q88 36 207 36q93 0 138.5 -29.5zM645 1888h76l262 -272h-86l-213 227l-214 -227h-87z" />
    <glyph glyph-name="uni1EA9" unicode="&#x1ea9;" horiz-adv-x="1043" 
d="M702.5 1063q84.5 -33 129 -111t44.5 -210v-742h-60l-6 131h-8q-59 -67 -153 -107t-199 -40q-154 0 -241.5 75t-87.5 209q0 135 89.5 208.5t285.5 96.5l312 38v130q0 112 -36 175.5t-104.5 88.5t-175.5 25q-72 0 -152.5 -12.5t-158.5 -40.5v68q65 25 147.5 38t162.5 13
q127 0 211.5 -33zM644.5 92q92.5 42 163.5 127v326l-314 -38q-159 -18 -229 -74.5t-70 -159.5q0 -108 64 -165.5t193 -57.5q100 0 192.5 42zM919.5 1839q45.5 -29 45.5 -78q0 -39 -23.5 -58.5t-68.5 -38.5q-38 -16 -56.5 -29.5t-21.5 -38.5h-64q1 29 16 48t34.5 30t52.5 25
q37 14 55 27t18 35q0 25 -28 39t-98 14q-58 0 -104.5 -8t-101.5 -28v54q87 36 206 36q93 0 138.5 -29zM480 1616h76l239 -352h-74l-202 305l-203 -305h-75z" />
    <glyph glyph-name="uni1EAA" unicode="&#x1eaa;" horiz-adv-x="1364" 
d="M1246 0l-212 528h-706l-212 -528h-73l596 1480h86l597 -1480h-76zM354 594h654l-327 816zM910.5 2009q38.5 17 72.5 53v-67q-56 -61 -158 -61q-38 0 -73.5 10.5t-84.5 30.5q-47 18 -73 26t-52 8q-48 0 -86.5 -17t-72.5 -53v67q56 61 159 61q38 0 73.5 -10.5t84.5 -30.5
q45 -18 71.5 -26t53.5 -8q47 0 85.5 17zM645 1888h76l262 -272h-86l-213 227l-214 -227h-87z" />
    <glyph glyph-name="uni1EAB" unicode="&#x1eab;" horiz-adv-x="1043" 
d="M702.5 1063q84.5 -33 129 -111t44.5 -210v-742h-60l-6 131h-8q-59 -67 -153 -107t-199 -40q-154 0 -241.5 75t-87.5 209q0 135 89.5 208.5t285.5 96.5l312 38v130q0 112 -36 175.5t-104.5 88.5t-175.5 25q-72 0 -152.5 -12.5t-158.5 -40.5v68q65 25 147.5 38t162.5 13
q127 0 211.5 -33zM644.5 92q92.5 42 163.5 127v326l-314 -38q-159 -18 -229 -74.5t-70 -159.5q0 -108 64 -165.5t193 -57.5q100 0 192.5 42zM745 1751q38 17 73 53v-67q-58 -61 -158 -61q-38 0 -73.5 10.5t-83.5 30.5q-46 18 -73 26t-54 8q-47 0 -85 -17t-72 -53v67
q56 61 157 61q38 0 73.5 -10.5t83.5 -30.5q46 -18 73 -26t54 -8q47 0 85 17zM480 1616h76l239 -352h-74l-202 305l-203 -305h-75z" />
    <glyph glyph-name="uni1EAC" unicode="&#x1eac;" horiz-adv-x="1364" 
d="M1246 0l-212 528h-706l-212 -528h-73l596 1480h86l597 -1480h-76zM354 594h654l-327 816zM638.5 -293q-17.5 17 -17.5 45t17.5 46t44.5 18t44.5 -18t17.5 -46t-17.5 -45t-44.5 -17t-44.5 17zM983 1616h-86l-213 227l-214 -227h-87l262 272h76z" />
    <glyph glyph-name="uni1EAD" unicode="&#x1ead;" horiz-adv-x="1043" 
d="M702.5 1063q84.5 -33 129 -111t44.5 -210v-742h-60l-6 131h-8q-59 -67 -153 -107t-199 -40q-154 0 -241.5 75t-87.5 209q0 135 89.5 208.5t285.5 96.5l312 38v130q0 112 -36 175.5t-104.5 88.5t-175.5 25q-72 0 -152.5 -12.5t-158.5 -40.5v68q65 25 147.5 38t162.5 13
q127 0 211.5 -33zM644.5 92q92.5 42 163.5 127v326l-314 -38q-159 -18 -229 -74.5t-70 -159.5q0 -108 64 -165.5t193 -57.5q100 0 192.5 42zM492.5 -293q-17.5 17 -17.5 45t17.5 46t44.5 18t44.5 -18t17.5 -46t-17.5 -45t-44.5 -17t-44.5 17zM795 1264h-74l-202 305
l-203 -305h-75l239 352h76z" />
    <glyph glyph-name="uni1EAE" unicode="&#x1eae;" horiz-adv-x="1364" 
d="M1246 0l-212 528h-706l-212 -528h-73l596 1480h86l597 -1480h-76zM354 594h654l-327 816zM649 1845l199 252h82l-213 -252h-68zM467.5 1691q-76.5 63 -86.5 169h59q12 -85 68.5 -128.5t176.5 -43.5q119 0 174 43.5t67 128.5h59q-10 -107 -84.5 -169.5t-215.5 -62.5
t-217.5 63z" />
    <glyph glyph-name="uni1EAF" unicode="&#x1eaf;" horiz-adv-x="1043" 
d="M702.5 1063q84.5 -33 129 -111t44.5 -210v-742h-60l-6 131h-8q-59 -67 -153 -107t-199 -40q-154 0 -241.5 75t-87.5 209q0 135 89.5 208.5t285.5 96.5l312 38v130q0 112 -36 175.5t-104.5 88.5t-175.5 25q-72 0 -152.5 -12.5t-158.5 -40.5v68q65 25 147.5 38t162.5 13
q127 0 211.5 -33zM644.5 92q92.5 42 163.5 127v326l-314 -38q-159 -18 -229 -74.5t-70 -159.5q0 -108 64 -165.5t193 -57.5q100 0 192.5 42zM484 1596l199 272h82l-213 -272h-68zM315.5 1360q-73.5 84 -79.5 228h59q16 -254 225 -254q108 0 161 65.5t60 188.5h59
q-5 -145 -77.5 -228.5t-202.5 -83.5q-131 0 -204.5 84z" />
    <glyph glyph-name="uni1EB0" unicode="&#x1eb0;" horiz-adv-x="1364" 
d="M1246 0l-212 528h-706l-212 -528h-73l596 1480h86l597 -1480h-76zM354 594h654l-327 816zM649 1845l-213 252h83l198 -252h-68zM466 1690.5q-75 62.5 -85 169.5h59q12 -85 67 -128.5t175 -43.5t176 43.5t68 128.5h59q-10 -106 -86.5 -169t-216.5 -63q-141 0 -216 62.5z
" />
    <glyph glyph-name="uni1EB1" unicode="&#x1eb1;" horiz-adv-x="1043" 
d="M702.5 1063q84.5 -33 129 -111t44.5 -210v-742h-60l-6 131h-8q-59 -67 -153 -107t-199 -40q-154 0 -241.5 75t-87.5 209q0 135 89.5 208.5t285.5 96.5l312 38v130q0 112 -36 175.5t-104.5 88.5t-175.5 25q-72 0 -152.5 -12.5t-158.5 -40.5v68q65 25 147.5 38t162.5 13
q127 0 211.5 -33zM644.5 92q92.5 42 163.5 127v326l-314 -38q-159 -18 -229 -74.5t-70 -159.5q0 -108 64 -165.5t193 -57.5q100 0 192.5 42zM484 1596l-213 272h83l198 -272h-68zM315.5 1360q-73.5 84 -79.5 228h59q16 -254 225 -254q108 0 161 65.5t60 188.5h59
q-5 -145 -77.5 -228.5t-202.5 -83.5q-131 0 -204.5 84z" />
    <glyph glyph-name="uni1EB2" unicode="&#x1eb2;" horiz-adv-x="1364" 
d="M1246 0l-212 528h-706l-212 -528h-73l596 1480h86l597 -1480h-76zM354 594h654l-327 816zM666 1893q15 19 34.5 30t52.5 25q37 14 55 27t18 35q0 26 -27.5 39.5t-97.5 13.5q-58 0 -105 -8t-102 -28v54q88 36 207 36q93 0 138.5 -29.5t45.5 -77.5q0 -39 -23.5 -58.5
t-68.5 -38.5q-38 -16 -56.5 -29.5t-21.5 -38.5h-65q1 29 16 48zM465.5 1690.5q-74.5 62.5 -84.5 169.5h59q12 -85 67 -128.5t174 -43.5q120 0 176.5 43.5t68.5 128.5h59q-10 -106 -86.5 -169t-217.5 -63t-215.5 62.5z" />
    <glyph glyph-name="uni1EB3" unicode="&#x1eb3;" horiz-adv-x="1043" 
d="M702.5 1063q84.5 -33 129 -111t44.5 -210v-742h-60l-6 131h-8q-59 -67 -153 -107t-199 -40q-154 0 -241.5 75t-87.5 209q0 135 89.5 208.5t285.5 96.5l312 38v130q0 112 -36 175.5t-104.5 88.5t-175.5 25q-72 0 -152.5 -12.5t-158.5 -40.5v68q65 25 147.5 38t162.5 13
q127 0 211.5 -33zM644.5 92q92.5 42 163.5 127v326l-314 -38q-159 -18 -229 -74.5t-70 -159.5q0 -108 64 -165.5t193 -57.5q100 0 192.5 42zM501 1644q15 19 34.5 30t52.5 25q37 14 55 27t18 35q0 26 -27.5 39.5t-97.5 13.5q-58 0 -105 -8t-102 -28v54q88 36 207 36
q93 0 138.5 -29.5t45.5 -77.5q0 -39 -23.5 -58.5t-68.5 -38.5q-38 -16 -56.5 -29.5t-21.5 -38.5h-65q1 29 16 48zM315.5 1360q-73.5 84 -79.5 228h59q16 -254 225 -254q108 0 161 65.5t60 188.5h59q-5 -145 -77.5 -228.5t-202.5 -83.5q-131 0 -204.5 84z" />
    <glyph glyph-name="uni1EB4" unicode="&#x1eb4;" horiz-adv-x="1364" 
d="M1246 0l-212 528h-706l-212 -528h-73l596 1480h86l597 -1480h-76zM354 594h654l-327 816zM751.5 1944.5q-35.5 10.5 -84.5 30.5q-46 18 -73 26t-53 8q-48 0 -87 -17t-73 -53v67q58 61 160 61q38 0 73.5 -10.5t84.5 -30.5q46 -18 73 -26t54 -8q48 0 86.5 17t72.5 53v-67
q-56 -61 -159 -61q-39 0 -74.5 10.5zM465.5 1690.5q-74.5 62.5 -84.5 169.5h59q12 -85 67 -128.5t174 -43.5q120 0 176.5 43.5t68.5 128.5h59q-10 -106 -86.5 -169t-217.5 -63t-215.5 62.5z" />
    <glyph glyph-name="uni1EB5" unicode="&#x1eb5;" horiz-adv-x="1043" 
d="M702.5 1063q84.5 -33 129 -111t44.5 -210v-742h-60l-6 131h-8q-59 -67 -153 -107t-199 -40q-154 0 -241.5 75t-87.5 209q0 135 89.5 208.5t285.5 96.5l312 38v130q0 112 -36 175.5t-104.5 88.5t-175.5 25q-72 0 -152.5 -12.5t-158.5 -40.5v68q65 25 147.5 38t162.5 13
q127 0 211.5 -33zM644.5 92q92.5 42 163.5 127v326l-314 -38q-159 -18 -229 -74.5t-70 -159.5q0 -108 64 -165.5t193 -57.5q100 0 192.5 42zM586.5 1686.5q-35.5 10.5 -83.5 30.5q-46 18 -73 26t-54 8q-47 0 -85 -17t-72 -53v67q56 61 157 61q38 0 73.5 -10.5t83.5 -30.5
q46 -18 73 -26t54 -8q47 0 85 17t73 53v-67q-58 -61 -158 -61q-38 0 -73.5 10.5zM315.5 1360q-73.5 84 -79.5 228h59q16 -254 225 -254q108 0 161 65.5t60 188.5h59q-5 -145 -77.5 -228.5t-202.5 -83.5q-131 0 -204.5 84z" />
    <glyph glyph-name="uni1EB6" unicode="&#x1eb6;" horiz-adv-x="1364" 
d="M1246 0l-212 528h-706l-212 -528h-73l596 1480h86l597 -1480h-76zM354 594h654l-327 816zM638.5 -293q-17.5 17 -17.5 45t17.5 46t44.5 18t44.5 -18t17.5 -46t-17.5 -45t-44.5 -17t-44.5 17zM467.5 1691q-76.5 63 -86.5 169h59q13 -85 69.5 -128.5t175.5 -43.5
q120 0 175 43.5t66 128.5h59q-10 -107 -84.5 -169.5t-215.5 -62.5t-217.5 63z" />
    <glyph glyph-name="uni1EB7" unicode="&#x1eb7;" horiz-adv-x="1043" 
d="M702.5 1063q84.5 -33 129 -111t44.5 -210v-742h-60l-6 131h-8q-59 -67 -153 -107t-199 -40q-154 0 -241.5 75t-87.5 209q0 135 89.5 208.5t285.5 96.5l312 38v130q0 112 -36 175.5t-104.5 88.5t-175.5 25q-72 0 -152.5 -12.5t-158.5 -40.5v68q65 25 147.5 38t162.5 13
q127 0 211.5 -33zM644.5 92q92.5 42 163.5 127v326l-314 -38q-159 -18 -229 -74.5t-70 -159.5q0 -108 64 -165.5t193 -57.5q100 0 192.5 42zM492.5 -293q-17.5 17 -17.5 45t17.5 46t44.5 18t44.5 -18t17.5 -46t-17.5 -45t-44.5 -17t-44.5 17zM315.5 1360q-73.5 84 -79.5 228
h59q16 -254 225 -254q108 0 161 65.5t60 188.5h59q-5 -145 -77.5 -228.5t-202.5 -83.5q-131 0 -204.5 84z" />
    <glyph glyph-name="uni1EB8" unicode="&#x1eb8;" horiz-adv-x="1200" 
d="M271 66h839v-66h-907v1480h897v-66h-829v-620h732v-66h-732v-662zM631.5 -293q-17.5 17 -17.5 45t17.5 46t44.5 18t44.5 -18t17.5 -46t-17.5 -45t-44.5 -17t-44.5 17z" />
    <glyph glyph-name="uni1EB9" unicode="&#x1eb9;" horiz-adv-x="1052" 
d="M954 510h-764q6 -242 114 -352t310 -110q125 0 289 53v-68q-152 -51 -293 -51q-492 0 -492 558q0 279 112.5 417.5t311.5 138.5t305.5 -137.5t106.5 -418.5v-30zM285.5 921q-90.5 -109 -95.5 -345h693q-5 236 -91 345t-250 109q-166 0 -256.5 -109zM500.5 -293
q-17.5 17 -17.5 45t17.5 46t44.5 18t44.5 -18t17.5 -46t-17.5 -45t-44.5 -17t-44.5 17z" />
    <glyph glyph-name="uni1EBA" unicode="&#x1eba;" horiz-adv-x="1200" 
d="M271 66h839v-66h-907v1480h897v-66h-829v-620h732v-66h-732v-662zM656 1664q15 19 34.5 30t52.5 25q37 14 55 27t18 35q0 26 -27.5 39.5t-97.5 13.5q-58 0 -105 -8t-102 -28v54q88 36 207 36q93 0 138.5 -29.5t45.5 -77.5q0 -39 -23.5 -58.5t-68.5 -38.5
q-38 -16 -56.5 -29.5t-21.5 -38.5h-65q1 29 16 48z" />
    <glyph glyph-name="uni1EBB" unicode="&#x1ebb;" horiz-adv-x="1052" 
d="M954 510h-764q6 -242 114 -352t310 -110q125 0 289 53v-68q-152 -51 -293 -51q-492 0 -492 558q0 279 112.5 417.5t311.5 138.5t305.5 -137.5t106.5 -418.5v-30zM285.5 921q-90.5 -109 -95.5 -345h693q-5 236 -91 345t-250 109q-166 0 -256.5 -109zM530.5 1328.5
q14.5 26.5 34 43.5t50.5 38q36 23 52.5 40.5t16.5 44.5q0 40 -33 58.5t-103 18.5q-40 0 -83.5 -6t-76.5 -18v56q31 11 73 17.5t82 6.5q101 0 150.5 -34.5t49.5 -98.5q0 -44 -21.5 -69t-63.5 -52q-39 -26 -59.5 -48.5t-21.5 -61.5h-62q1 38 15.5 64.5z" />
    <glyph glyph-name="uni1EBC" unicode="&#x1ebc;" horiz-adv-x="1200" 
d="M271 66h839v-66h-907v1480h897v-66h-829v-620h732v-66h-732v-662zM748 1708q-36 10 -90 30q-47 18 -76.5 26.5t-60.5 8.5q-52 0 -91.5 -17t-73.5 -54v68q57 60 165 60q41 0 77 -10t90 -30q47 -18 76.5 -26.5t60.5 -8.5q52 0 91.5 17t74.5 54v-68q-58 -60 -166 -60
q-41 0 -77 10z" />
    <glyph glyph-name="uni1EBD" unicode="&#x1ebd;" horiz-adv-x="1052" 
d="M954 510h-764q6 -242 114 -352t310 -110q125 0 289 53v-68q-152 -51 -293 -51q-492 0 -492 558q0 279 112.5 417.5t311.5 138.5t305.5 -137.5t106.5 -418.5v-30zM285.5 921q-90.5 -109 -95.5 -345h693q-5 236 -91 345t-250 109q-166 0 -256.5 -109zM613.5 1390.5
q-35.5 10.5 -83.5 30.5q-46 18 -73 26t-54 8q-47 0 -85 -17t-72 -53v67q56 61 157 61q38 0 73.5 -10.5t83.5 -30.5q46 -18 73 -26t54 -8q47 0 85 17t73 53v-67q-58 -61 -158 -61q-38 0 -73.5 10.5z" />
    <glyph glyph-name="uni1EBE" unicode="&#x1ebe;" horiz-adv-x="1200" 
d="M271 66h839v-66h-907v1480h897v-66h-829v-620h732v-66h-732v-662zM1104 2064h82l-213 -272h-68zM635 1888h76l262 -272h-86l-213 227l-214 -227h-87z" />
    <glyph glyph-name="uni1EBF" unicode="&#x1ebf;" horiz-adv-x="1052" 
d="M954 510h-764q6 -242 114 -352t310 -110q125 0 289 53v-68q-152 -51 -293 -51q-492 0 -492 558q0 279 112.5 417.5t311.5 138.5t305.5 -137.5t106.5 -418.5v-30zM285.5 921q-90.5 -109 -95.5 -345h693q-5 236 -91 345t-250 109q-166 0 -256.5 -109zM956 1868h83
l-213 -272h-68zM507 1616h76l239 -352h-74l-202 305l-203 -305h-75z" />
    <glyph glyph-name="uni1EC0" unicode="&#x1ec0;" horiz-adv-x="1200" 
d="M271 66h839v-66h-907v1480h897v-66h-829v-620h732v-66h-732v-662zM993 1792h-68l-213 272h83zM635 1888h76l262 -272h-86l-213 227l-214 -227h-87z" />
    <glyph glyph-name="uni1EC1" unicode="&#x1ec1;" horiz-adv-x="1052" 
d="M954 510h-764q6 -242 114 -352t310 -110q125 0 289 53v-68q-152 -51 -293 -51q-492 0 -492 558q0 279 112.5 417.5t311.5 138.5t305.5 -137.5t106.5 -418.5v-30zM285.5 921q-90.5 -109 -95.5 -345h693q-5 236 -91 345t-250 109q-166 0 -256.5 -109zM845 1596h-68
l-213 272h83zM507 1616h76l239 -352h-74l-202 305l-203 -305h-75z" />
    <glyph glyph-name="uni1EC2" unicode="&#x1ec2;" horiz-adv-x="1200" 
d="M271 66h839v-66h-907v1480h897v-66h-829v-620h732v-66h-732v-662zM1095.5 2034.5q45.5 -29.5 45.5 -77.5q0 -39 -23.5 -58.5t-68.5 -38.5q-38 -16 -56.5 -29.5t-21.5 -38.5h-65q1 29 16 48t34.5 30t52.5 25q37 14 55 27t18 35q0 26 -27.5 39.5t-97.5 13.5q-58 0 -105 -8
t-102 -28v54q88 36 207 36q93 0 138.5 -29.5zM635 1888h76l262 -272h-86l-213 227l-214 -227h-87z" />
    <glyph glyph-name="uni1EC3" unicode="&#x1ec3;" horiz-adv-x="1052" 
d="M954 510h-764q6 -242 114 -352t310 -110q125 0 289 53v-68q-152 -51 -293 -51q-492 0 -492 558q0 279 112.5 417.5t311.5 138.5t305.5 -137.5t106.5 -418.5v-30zM285.5 921q-90.5 -109 -95.5 -345h693q-5 236 -91 345t-250 109q-166 0 -256.5 -109zM946.5 1839
q45.5 -29 45.5 -78q0 -39 -23.5 -58.5t-68.5 -38.5q-38 -16 -56.5 -29.5t-21.5 -38.5h-64q1 29 16 48t34.5 30t52.5 25q37 14 55 27t18 35q0 25 -28 39t-98 14q-58 0 -104.5 -8t-101.5 -28v54q87 36 206 36q93 0 138.5 -29zM507 1616h76l239 -352h-74l-202 305l-203 -305
h-75z" />
    <glyph glyph-name="uni1EC4" unicode="&#x1ec4;" horiz-adv-x="1200" 
d="M271 66h839v-66h-907v1480h897v-66h-829v-620h732v-66h-732v-662zM900.5 2009q38.5 17 72.5 53v-67q-56 -61 -158 -61q-38 0 -73.5 10.5t-84.5 30.5q-47 18 -73 26t-52 8q-48 0 -86.5 -17t-72.5 -53v67q56 61 159 61q38 0 73.5 -10.5t84.5 -30.5q45 -18 71.5 -26t53.5 -8
q47 0 85.5 17zM635 1888h76l262 -272h-86l-213 227l-214 -227h-87z" />
    <glyph glyph-name="uni1EC5" unicode="&#x1ec5;" horiz-adv-x="1052" 
d="M954 510h-764q6 -242 114 -352t310 -110q125 0 289 53v-68q-152 -51 -293 -51q-492 0 -492 558q0 279 112.5 417.5t311.5 138.5t305.5 -137.5t106.5 -418.5v-30zM285.5 921q-90.5 -109 -95.5 -345h693q-5 236 -91 345t-250 109q-166 0 -256.5 -109zM772 1751q38 17 73 53
v-67q-58 -61 -158 -61q-38 0 -73.5 10.5t-83.5 30.5q-46 18 -73 26t-54 8q-47 0 -85 -17t-72 -53v67q56 61 157 61q38 0 73.5 -10.5t83.5 -30.5q46 -18 73 -26t54 -8q47 0 85 17zM507 1616h76l239 -352h-74l-202 305l-203 -305h-75z" />
    <glyph glyph-name="uni1EC6" unicode="&#x1ec6;" horiz-adv-x="1200" 
d="M271 66h839v-66h-907v1480h897v-66h-829v-620h732v-66h-732v-662zM631.5 -293q-17.5 17 -17.5 45t17.5 46t44.5 18t44.5 -18t17.5 -46t-17.5 -45t-44.5 -17t-44.5 17zM973 1616h-86l-213 227l-214 -227h-87l262 272h76z" />
    <glyph glyph-name="uni1EC7" unicode="&#x1ec7;" horiz-adv-x="1052" 
d="M954 510h-764q6 -242 114 -352t310 -110q125 0 289 53v-68q-152 -51 -293 -51q-492 0 -492 558q0 279 112.5 417.5t311.5 138.5t305.5 -137.5t106.5 -418.5v-30zM285.5 921q-90.5 -109 -95.5 -345h693q-5 236 -91 345t-250 109q-166 0 -256.5 -109zM500.5 -293
q-17.5 17 -17.5 45t17.5 46t44.5 18t44.5 -18t17.5 -46t-17.5 -45t-44.5 -17t-44.5 17zM822 1264h-74l-202 305l-203 -305h-75l239 352h76z" />
    <glyph glyph-name="uni1EC8" unicode="&#x1ec8;" horiz-adv-x="474" 
d="M203 0v1480h68v-1480h-68zM220 1664q15 19 34.5 30t52.5 25q37 14 55 27t18 35q0 26 -27.5 39.5t-97.5 13.5q-58 0 -105 -8t-102 -28v54q88 36 207 36q93 0 138.5 -29.5t45.5 -77.5q0 -39 -23.5 -58.5t-68.5 -38.5q-38 -16 -56.5 -29.5t-21.5 -38.5h-65q1 29 16 48z" />
    <glyph glyph-name="uni1EC9" unicode="&#x1ec9;" horiz-adv-x="434" 
d="M183 0v1080h68v-1080h-68zM202.5 1328.5q14.5 26.5 34 43.5t50.5 38q36 23 52.5 40.5t16.5 44.5q0 40 -33 58.5t-103 18.5q-40 0 -83.5 -6t-76.5 -18v56q31 11 73 17.5t82 6.5q101 0 150.5 -34.5t49.5 -98.5q0 -44 -21.5 -69t-63.5 -52q-39 -26 -59.5 -48.5t-21.5 -61.5
h-62q1 38 15.5 64.5z" />
    <glyph glyph-name="uni1ECA" unicode="&#x1eca;" horiz-adv-x="474" 
d="M203 0v1480h68v-1480h-68zM192.5 -293q-17.5 17 -17.5 45t17.5 46t44.5 18t44.5 -18t17.5 -46t-17.5 -45t-44.5 -17t-44.5 17z" />
    <glyph glyph-name="uni1ECB" unicode="&#x1ecb;" horiz-adv-x="434" 
d="M183 0v1080h68v-1080h-68zM172.5 1377q-17.5 17 -17.5 45t17.5 46t44.5 18t44.5 -18t17.5 -46t-17.5 -45t-44.5 -17t-44.5 17zM172.5 -293q-17.5 17 -17.5 45t17.5 46t44.5 18t44.5 -18t17.5 -46t-17.5 -45t-44.5 -17t-44.5 17z" />
    <glyph glyph-name="uni1ECC" unicode="&#x1ecc;" horiz-adv-x="1470" 
d="M289.5 167q-161.5 185 -161.5 573q0 262 76 431t211.5 248t319.5 79q284 0 445.5 -184.5t161.5 -573.5q0 -261 -76 -430t-211.5 -248.5t-319.5 -79.5q-284 0 -445.5 185zM1129 213q141 163 141 523q0 695 -535 695q-252 0 -393.5 -163.5t-141.5 -523.5q0 -694 535 -694
q253 0 394 163zM690.5 -293q-17.5 17 -17.5 45t17.5 46t44.5 18t44.5 -18t17.5 -46t-17.5 -45t-44.5 -17t-44.5 17z" />
    <glyph glyph-name="uni1ECD" unicode="&#x1ecd;" horiz-adv-x="1131" 
d="M236.5 118q-118.5 136 -118.5 422q0 283 119.5 419.5t328.5 136.5q211 0 329 -134.5t118 -421.5q0 -283 -119 -420.5t-328 -137.5q-211 0 -329.5 136zM843.5 163.5q97.5 115.5 97.5 374.5q0 261 -97 376.5t-278 115.5t-278.5 -114.5t-97.5 -372.5q0 -262 97.5 -378.5
t278.5 -116.5q180 0 277.5 115.5zM521.5 -293q-17.5 17 -17.5 45t17.5 46t44.5 18t44.5 -18t17.5 -46t-17.5 -45t-44.5 -17t-44.5 17z" />
    <glyph glyph-name="uni1ECE" unicode="&#x1ece;" horiz-adv-x="1470" 
d="M289.5 167q-161.5 185 -161.5 573q0 262 76 431t211.5 248t319.5 79q284 0 445.5 -184.5t161.5 -573.5q0 -261 -76 -430t-211.5 -248.5t-319.5 -79.5q-284 0 -445.5 185zM1129 213q141 163 141 523q0 695 -535 695q-252 0 -393.5 -163.5t-141.5 -523.5q0 -694 535 -694
q253 0 394 163zM718 1664q15 19 34.5 30t52.5 25q37 14 55 27t18 35q0 26 -27.5 39.5t-97.5 13.5q-58 0 -105 -8t-102 -28v54q88 36 207 36q93 0 138.5 -29.5t45.5 -77.5q0 -39 -23.5 -58.5t-68.5 -38.5q-38 -16 -56.5 -29.5t-21.5 -38.5h-65q1 29 16 48z" />
    <glyph glyph-name="uni1ECF" unicode="&#x1ecf;" horiz-adv-x="1131" 
d="M236.5 118q-118.5 136 -118.5 422q0 283 119.5 419.5t328.5 136.5q211 0 329 -134.5t118 -421.5q0 -283 -119 -420.5t-328 -137.5q-211 0 -329.5 136zM843.5 163.5q97.5 115.5 97.5 374.5q0 261 -97 376.5t-278 115.5t-278.5 -114.5t-97.5 -372.5q0 -262 97.5 -378.5
t278.5 -116.5q180 0 277.5 115.5zM551.5 1328.5q14.5 26.5 34 43.5t50.5 38q36 23 52.5 40.5t16.5 44.5q0 40 -33 58.5t-103 18.5q-40 0 -83.5 -6t-76.5 -18v56q31 11 73 17.5t82 6.5q101 0 150.5 -34.5t49.5 -98.5q0 -44 -21.5 -69t-63.5 -52q-39 -26 -59.5 -48.5
t-21.5 -61.5h-62q1 38 15.5 64.5z" />
    <glyph glyph-name="uni1ED0" unicode="&#x1ed0;" horiz-adv-x="1470" 
d="M289.5 167q-161.5 185 -161.5 573q0 262 76 431t211.5 248t319.5 79q284 0 445.5 -184.5t161.5 -573.5q0 -261 -76 -430t-211.5 -248.5t-319.5 -79.5q-284 0 -445.5 185zM1129 213q141 163 141 523q0 695 -535 695q-252 0 -393.5 -163.5t-141.5 -523.5q0 -694 535 -694
q253 0 394 163zM1166 2064h82l-213 -272h-68zM697 1888h76l262 -272h-86l-213 227l-214 -227h-87z" />
    <glyph glyph-name="uni1ED1" unicode="&#x1ed1;" horiz-adv-x="1131" 
d="M236.5 118q-118.5 136 -118.5 422q0 283 119.5 419.5t328.5 136.5q211 0 329 -134.5t118 -421.5q0 -283 -119 -420.5t-328 -137.5q-211 0 -329.5 136zM843.5 163.5q97.5 115.5 97.5 374.5q0 261 -97 376.5t-278 115.5t-278.5 -114.5t-97.5 -372.5q0 -262 97.5 -378.5
t278.5 -116.5q180 0 277.5 115.5zM977 1868h83l-213 -272h-68zM528 1616h76l239 -352h-74l-202 305l-203 -305h-75z" />
    <glyph glyph-name="uni1ED2" unicode="&#x1ed2;" horiz-adv-x="1470" 
d="M289.5 167q-161.5 185 -161.5 573q0 262 76 431t211.5 248t319.5 79q284 0 445.5 -184.5t161.5 -573.5q0 -261 -76 -430t-211.5 -248.5t-319.5 -79.5q-284 0 -445.5 185zM1129 213q141 163 141 523q0 695 -535 695q-252 0 -393.5 -163.5t-141.5 -523.5q0 -694 535 -694
q253 0 394 163zM1055 1792h-68l-213 272h83zM697 1888h76l262 -272h-86l-213 227l-214 -227h-87z" />
    <glyph glyph-name="uni1ED3" unicode="&#x1ed3;" horiz-adv-x="1131" 
d="M236.5 118q-118.5 136 -118.5 422q0 283 119.5 419.5t328.5 136.5q211 0 329 -134.5t118 -421.5q0 -283 -119 -420.5t-328 -137.5q-211 0 -329.5 136zM843.5 163.5q97.5 115.5 97.5 374.5q0 261 -97 376.5t-278 115.5t-278.5 -114.5t-97.5 -372.5q0 -262 97.5 -378.5
t278.5 -116.5q180 0 277.5 115.5zM866 1596h-68l-213 272h83zM528 1616h76l239 -352h-74l-202 305l-203 -305h-75z" />
    <glyph glyph-name="uni1ED4" unicode="&#x1ed4;" horiz-adv-x="1470" 
d="M289.5 167q-161.5 185 -161.5 573q0 262 76 431t211.5 248t319.5 79q284 0 445.5 -184.5t161.5 -573.5q0 -261 -76 -430t-211.5 -248.5t-319.5 -79.5q-284 0 -445.5 185zM1129 213q141 163 141 523q0 695 -535 695q-252 0 -393.5 -163.5t-141.5 -523.5q0 -694 535 -694
q253 0 394 163zM1157.5 2034.5q45.5 -29.5 45.5 -77.5q0 -39 -23.5 -58.5t-68.5 -38.5q-38 -16 -56.5 -29.5t-21.5 -38.5h-65q1 29 16 48t34.5 30t52.5 25q37 14 55 27t18 35q0 26 -27.5 39.5t-97.5 13.5q-58 0 -105 -8t-102 -28v54q88 36 207 36q93 0 138.5 -29.5z
M697 1888h76l262 -272h-86l-213 227l-214 -227h-87z" />
    <glyph glyph-name="uni1ED5" unicode="&#x1ed5;" horiz-adv-x="1131" 
d="M236.5 118q-118.5 136 -118.5 422q0 283 119.5 419.5t328.5 136.5q211 0 329 -134.5t118 -421.5q0 -283 -119 -420.5t-328 -137.5q-211 0 -329.5 136zM843.5 163.5q97.5 115.5 97.5 374.5q0 261 -97 376.5t-278 115.5t-278.5 -114.5t-97.5 -372.5q0 -262 97.5 -378.5
t278.5 -116.5q180 0 277.5 115.5zM967.5 1839q45.5 -29 45.5 -78q0 -39 -23.5 -58.5t-68.5 -38.5q-38 -16 -56.5 -29.5t-21.5 -38.5h-64q1 29 16 48t34.5 30t52.5 25q37 14 55 27t18 35q0 25 -28 39t-98 14q-58 0 -104.5 -8t-101.5 -28v54q87 36 206 36q93 0 138.5 -29z
M528 1616h76l239 -352h-74l-202 305l-203 -305h-75z" />
    <glyph glyph-name="uni1ED6" unicode="&#x1ed6;" horiz-adv-x="1470" 
d="M289.5 167q-161.5 185 -161.5 573q0 262 76 431t211.5 248t319.5 79q284 0 445.5 -184.5t161.5 -573.5q0 -261 -76 -430t-211.5 -248.5t-319.5 -79.5q-284 0 -445.5 185zM1129 213q141 163 141 523q0 695 -535 695q-252 0 -393.5 -163.5t-141.5 -523.5q0 -694 535 -694
q253 0 394 163zM962.5 2009q38.5 17 72.5 53v-67q-56 -61 -158 -61q-38 0 -73.5 10.5t-84.5 30.5q-47 18 -73 26t-52 8q-48 0 -86.5 -17t-72.5 -53v67q56 61 159 61q38 0 73.5 -10.5t84.5 -30.5q45 -18 71.5 -26t53.5 -8q47 0 85.5 17zM697 1888h76l262 -272h-86l-213 227
l-214 -227h-87z" />
    <glyph glyph-name="uni1ED7" unicode="&#x1ed7;" horiz-adv-x="1131" 
d="M236.5 118q-118.5 136 -118.5 422q0 283 119.5 419.5t328.5 136.5q211 0 329 -134.5t118 -421.5q0 -283 -119 -420.5t-328 -137.5q-211 0 -329.5 136zM843.5 163.5q97.5 115.5 97.5 374.5q0 261 -97 376.5t-278 115.5t-278.5 -114.5t-97.5 -372.5q0 -262 97.5 -378.5
t278.5 -116.5q180 0 277.5 115.5zM793 1751q38 17 73 53v-67q-58 -61 -158 -61q-38 0 -73.5 10.5t-83.5 30.5q-46 18 -73 26t-54 8q-47 0 -85 -17t-72 -53v67q56 61 157 61q38 0 73.5 -10.5t83.5 -30.5q46 -18 73 -26t54 -8q47 0 85 17zM528 1616h76l239 -352h-74l-202 305
l-203 -305h-75z" />
    <glyph glyph-name="uni1ED8" unicode="&#x1ed8;" horiz-adv-x="1470" 
d="M289.5 167q-161.5 185 -161.5 573q0 262 76 431t211.5 248t319.5 79q284 0 445.5 -184.5t161.5 -573.5q0 -261 -76 -430t-211.5 -248.5t-319.5 -79.5q-284 0 -445.5 185zM1129 213q141 163 141 523q0 695 -535 695q-252 0 -393.5 -163.5t-141.5 -523.5q0 -694 535 -694
q253 0 394 163zM690.5 -293q-17.5 17 -17.5 45t17.5 46t44.5 18t44.5 -18t17.5 -46t-17.5 -45t-44.5 -17t-44.5 17zM1035 1616h-86l-213 227l-214 -227h-87l262 272h76z" />
    <glyph glyph-name="uni1ED9" unicode="&#x1ed9;" horiz-adv-x="1131" 
d="M236.5 118q-118.5 136 -118.5 422q0 283 119.5 419.5t328.5 136.5q211 0 329 -134.5t118 -421.5q0 -283 -119 -420.5t-328 -137.5q-211 0 -329.5 136zM843.5 163.5q97.5 115.5 97.5 374.5q0 261 -97 376.5t-278 115.5t-278.5 -114.5t-97.5 -372.5q0 -262 97.5 -378.5
t278.5 -116.5q180 0 277.5 115.5zM521.5 -293q-17.5 17 -17.5 45t17.5 46t44.5 18t44.5 -18t17.5 -46t-17.5 -45t-44.5 -17t-44.5 17zM843 1264h-74l-202 305l-203 -305h-75l239 352h76z" />
    <glyph glyph-name="uni1EDA" unicode="&#x1eda;" horiz-adv-x="1470" 
d="M1273.5 1157q68.5 -165 68.5 -417q0 -393 -161 -575.5t-446 -182.5q-283 0 -445 185t-162 573q0 262 76 431t211.5 248t319.5 79q37 0 76 -3.5t76 -8.5q41 -5 87.5 -9t92.5 -4q100 0 154.5 40.5t54.5 120.5q0 39 -6 71t-19 71h66q13 -36 19 -68.5t6 -75.5
q0 -101 -68.5 -161t-195.5 -65q127 -84 195.5 -249zM1129 213q141 163 141 523q0 695 -535 695q-252 0 -393.5 -163.5t-141.5 -523.5q0 -694 535 -694q253 0 394 163zM701 1616l199 272h82l-213 -272h-68z" />
    <glyph glyph-name="uni1EDB" unicode="&#x1edb;" horiz-adv-x="1131" 
d="M967 836.5q46 -119.5 46 -296.5q0 -283 -119 -420.5t-328 -137.5q-211 0 -329.5 136t-118.5 422q0 283 119.5 419.5t328.5 136.5q47 0 117 -6q54 -4 74 -4q101 0 155 41.5t54 126.5q0 39 -6 71t-19 71h66q13 -36 19 -68.5t6 -75.5q0 -95 -53.5 -154.5t-151.5 -74.5
q94 -67 140 -186.5zM843.5 163.5q97.5 115.5 97.5 374.5q0 261 -97 376.5t-278 115.5t-278.5 -114.5t-97.5 -372.5q0 -262 97.5 -378.5t278.5 -116.5q180 0 277.5 115.5zM527 1264l238 352h81l-251 -352h-68z" />
    <glyph glyph-name="uni1EDC" unicode="&#x1edc;" horiz-adv-x="1470" 
d="M1273.5 1157q68.5 -165 68.5 -417q0 -393 -161 -575.5t-446 -182.5q-283 0 -445 185t-162 573q0 262 76 431t211.5 248t319.5 79q37 0 76 -3.5t76 -8.5q41 -5 87.5 -9t92.5 -4q100 0 154.5 40.5t54.5 120.5q0 39 -6 71t-19 71h66q13 -36 19 -68.5t6 -75.5
q0 -101 -68.5 -161t-195.5 -65q127 -84 195.5 -249zM1129 213q141 163 141 523q0 695 -535 695q-252 0 -393.5 -163.5t-141.5 -523.5q0 -694 535 -694q253 0 394 163zM701 1616l-213 272h83l198 -272h-68z" />
    <glyph glyph-name="uni1EDD" unicode="&#x1edd;" horiz-adv-x="1131" 
d="M967 836.5q46 -119.5 46 -296.5q0 -283 -119 -420.5t-328 -137.5q-211 0 -329.5 136t-118.5 422q0 283 119.5 419.5t328.5 136.5q47 0 117 -6q54 -4 74 -4q101 0 155 41.5t54 126.5q0 39 -6 71t-19 71h66q13 -36 19 -68.5t6 -75.5q0 -95 -53.5 -154.5t-151.5 -74.5
q94 -67 140 -186.5zM843.5 163.5q97.5 115.5 97.5 374.5q0 261 -97 376.5t-278 115.5t-278.5 -114.5t-97.5 -372.5q0 -262 97.5 -378.5t278.5 -116.5q180 0 277.5 115.5zM527 1264l-251 352h81l238 -352h-68z" />
    <glyph glyph-name="uni1EDE" unicode="&#x1ede;" horiz-adv-x="1470" 
d="M1273.5 1157q68.5 -165 68.5 -417q0 -393 -161 -575.5t-446 -182.5q-283 0 -445 185t-162 573q0 262 76 431t211.5 248t319.5 79q37 0 76 -3.5t76 -8.5q41 -5 87.5 -9t92.5 -4q100 0 154.5 40.5t54.5 120.5q0 39 -6 71t-19 71h66q13 -36 19 -68.5t6 -75.5
q0 -101 -68.5 -161t-195.5 -65q127 -84 195.5 -249zM1129 213q141 163 141 523q0 695 -535 695q-252 0 -393.5 -163.5t-141.5 -523.5q0 -694 535 -694q253 0 394 163zM718 1664q15 19 34.5 30t52.5 25q37 14 55 27t18 35q0 26 -27.5 39.5t-97.5 13.5q-58 0 -105 -8t-102 -28
v54q88 36 207 36q93 0 138.5 -29.5t45.5 -77.5q0 -39 -23.5 -58.5t-68.5 -38.5q-38 -16 -56.5 -29.5t-21.5 -38.5h-65q1 29 16 48z" />
    <glyph glyph-name="uni1EDF" unicode="&#x1edf;" horiz-adv-x="1131" 
d="M967 836.5q46 -119.5 46 -296.5q0 -283 -119 -420.5t-328 -137.5q-211 0 -329.5 136t-118.5 422q0 283 119.5 419.5t328.5 136.5q47 0 117 -6q54 -4 74 -4q101 0 155 41.5t54 126.5q0 39 -6 71t-19 71h66q13 -36 19 -68.5t6 -75.5q0 -95 -53.5 -154.5t-151.5 -74.5
q94 -67 140 -186.5zM843.5 163.5q97.5 115.5 97.5 374.5q0 261 -97 376.5t-278 115.5t-278.5 -114.5t-97.5 -372.5q0 -262 97.5 -378.5t278.5 -116.5q180 0 277.5 115.5zM546.5 1328.5q14.5 26.5 34 43.5t50.5 38q36 23 52.5 40.5t16.5 44.5q0 40 -33 58.5t-103 18.5
q-40 0 -83.5 -6t-76.5 -18v56q31 11 73 17.5t82 6.5q101 0 150.5 -34.5t49.5 -98.5q0 -44 -21.5 -69t-63.5 -52q-39 -26 -59.5 -48.5t-21.5 -61.5h-62q1 38 15.5 64.5z" />
    <glyph glyph-name="uni1EE0" unicode="&#x1ee0;" horiz-adv-x="1470" 
d="M491.5 1756q-39.5 -17 -73.5 -54v68q57 60 165 60q41 0 77 -10t90 -30q47 -18 76.5 -26.5t60.5 -8.5q52 0 91.5 17t74.5 54v-68q-58 -60 -166 -60q-41 0 -77 10t-90 30q-47 18 -76.5 26.5t-60.5 8.5q-52 0 -91.5 -17zM1273.5 1157q68.5 -165 68.5 -417
q0 -393 -161 -575.5t-446 -182.5q-283 0 -445 185t-162 573q0 262 76 431t211.5 248t319.5 79q37 0 76 -3.5t76 -8.5q41 -5 87.5 -9t92.5 -4q100 0 154.5 40.5t54.5 120.5q0 39 -6 71t-19 71h66q13 -36 19 -68.5t6 -75.5q0 -101 -68.5 -161t-195.5 -65q127 -84 195.5 -249z
M1129 213q141 163 141 523q0 695 -535 695q-252 0 -393.5 -163.5t-141.5 -523.5q0 -694 535 -694q253 0 394 163z" />
    <glyph glyph-name="uni1EE1" unicode="&#x1ee1;" horiz-adv-x="1131" 
d="M334 1438q-38 -17 -72 -53v67q56 61 157 61q38 0 73.5 -10.5t83.5 -30.5q46 -18 73 -26t54 -8q47 0 85 17t73 53v-67q-58 -61 -158 -61q-38 0 -73.5 10.5t-83.5 30.5q-46 18 -73 26t-54 8q-47 0 -85 -17zM967 836.5q46 -119.5 46 -296.5q0 -283 -119 -420.5t-328 -137.5
q-211 0 -329.5 136t-118.5 422q0 283 119.5 419.5t328.5 136.5q47 0 117 -6q54 -4 74 -4q101 0 155 41.5t54 126.5q0 39 -6 71t-19 71h66q13 -36 19 -68.5t6 -75.5q0 -95 -53.5 -154.5t-151.5 -74.5q94 -67 140 -186.5zM843.5 163.5q97.5 115.5 97.5 374.5q0 261 -97 376.5
t-278 115.5t-278.5 -114.5t-97.5 -372.5q0 -262 97.5 -378.5t278.5 -116.5q180 0 277.5 115.5z" />
    <glyph glyph-name="uni1EE2" unicode="&#x1ee2;" horiz-adv-x="1470" 
d="M1273.5 1157q68.5 -165 68.5 -417q0 -393 -161 -575.5t-446 -182.5q-283 0 -445 185t-162 573q0 262 76 431t211.5 248t319.5 79q37 0 76 -3.5t76 -8.5q41 -5 87.5 -9t92.5 -4q100 0 154.5 40.5t54.5 120.5q0 39 -6 71t-19 71h66q13 -36 19 -68.5t6 -75.5
q0 -101 -68.5 -161t-195.5 -65q127 -84 195.5 -249zM1129 213q141 163 141 523q0 695 -535 695q-252 0 -393.5 -163.5t-141.5 -523.5q0 -694 535 -694q253 0 394 163zM690.5 -293q-17.5 17 -17.5 45t17.5 46t44.5 18t44.5 -18t17.5 -46t-17.5 -45t-44.5 -17t-44.5 17z" />
    <glyph glyph-name="uni1EE3" unicode="&#x1ee3;" horiz-adv-x="1131" 
d="M967 836.5q46 -119.5 46 -296.5q0 -283 -119 -420.5t-328 -137.5q-211 0 -329.5 136t-118.5 422q0 283 119.5 419.5t328.5 136.5q47 0 117 -6q54 -4 74 -4q101 0 155 41.5t54 126.5q0 39 -6 71t-19 71h66q13 -36 19 -68.5t6 -75.5q0 -95 -53.5 -154.5t-151.5 -74.5
q94 -67 140 -186.5zM843.5 163.5q97.5 115.5 97.5 374.5q0 261 -97 376.5t-278 115.5t-278.5 -114.5t-97.5 -372.5q0 -262 97.5 -378.5t278.5 -116.5q180 0 277.5 115.5zM516.5 -293q-17.5 17 -17.5 45t17.5 46t44.5 18t44.5 -18t17.5 -46t-17.5 -45t-44.5 -17t-44.5 17z
" />
    <glyph glyph-name="uni1EE4" unicode="&#x1ee4;" horiz-adv-x="1459" 
d="M429 41.5q-118 59.5 -176 184t-58 322.5v932h68v-942q0 -171 49.5 -279t152.5 -159.5t266 -51.5q162 0 265 51.5t152.5 159.5t49.5 279v942h66v-932q0 -198 -57.5 -322.5t-174.5 -184t-301 -59.5t-302 59.5zM686.5 -293q-17.5 17 -17.5 45t17.5 46t44.5 18t44.5 -18
t17.5 -46t-17.5 -45t-44.5 -17t-44.5 17z" />
    <glyph glyph-name="uni1EE5" unicode="&#x1ee5;" horiz-adv-x="1156" 
d="M261 71q-94 89 -94 284v725h68v-725q0 -163 76 -235t213 -72q103 0 205 44t176 133v855h68v-1080h-60l-6 126h-8q-76 -70 -173.5 -107t-203.5 -37q-167 0 -261 89zM525.5 -293q-17.5 17 -17.5 45t17.5 46t44.5 18t44.5 -18t17.5 -46t-17.5 -45t-44.5 -17t-44.5 17z" />
    <glyph glyph-name="uni1EE6" unicode="&#x1ee6;" horiz-adv-x="1459" 
d="M429 41.5q-118 59.5 -176 184t-58 322.5v932h68v-942q0 -171 49.5 -279t152.5 -159.5t266 -51.5q162 0 265 51.5t152.5 159.5t49.5 279v942h66v-932q0 -198 -57.5 -322.5t-174.5 -184t-301 -59.5t-302 59.5zM714 1664q15 19 34.5 30t52.5 25q37 14 55 27t18 35
q0 26 -27.5 39.5t-97.5 13.5q-58 0 -105 -8t-102 -28v54q88 36 207 36q93 0 138.5 -29.5t45.5 -77.5q0 -39 -23.5 -58.5t-68.5 -38.5q-38 -16 -56.5 -29.5t-21.5 -38.5h-65q1 29 16 48z" />
    <glyph glyph-name="uni1EE7" unicode="&#x1ee7;" horiz-adv-x="1156" 
d="M261 71q-94 89 -94 284v725h68v-725q0 -163 76 -235t213 -72q103 0 205 44t176 133v855h68v-1080h-60l-6 126h-8q-76 -70 -173.5 -107t-203.5 -37q-167 0 -261 89zM555.5 1328.5q14.5 26.5 34 43.5t50.5 38q36 23 52.5 40.5t16.5 44.5q0 40 -33 58.5t-103 18.5
q-40 0 -83.5 -6t-76.5 -18v56q31 11 73 17.5t82 6.5q101 0 150.5 -34.5t49.5 -98.5q0 -44 -21.5 -69t-63.5 -52q-39 -26 -59.5 -48.5t-21.5 -61.5h-62q1 38 15.5 64.5z" />
    <glyph glyph-name="uni1EE8" unicode="&#x1ee8;" horiz-adv-x="1459" 
d="M429 41.5q-118 59.5 -176 184t-58 322.5v932h68v-942q0 -171 49.5 -279t152.5 -159.5t266 -51.5q162 0 265 51.5t152.5 159.5t49.5 279v942h34q209 0 209 154q0 39 -6 71t-19 71h66q13 -36 19 -68.5t6 -75.5q0 -98 -64 -154t-179 -61v-869q0 -198 -57.5 -322.5
t-174.5 -184t-301 -59.5t-302 59.5zM697 1616l199 272h82l-213 -272h-68z" />
    <glyph glyph-name="uni1EE9" unicode="&#x1ee9;" horiz-adv-x="1176" 
d="M1151 1083q-63 -61 -178 -69v-1014h-60l-6 126h-8q-76 -70 -173.5 -107t-203.5 -37q-167 0 -261 89t-94 284v725h68v-725q0 -163 76 -235t213 -72q103 0 205 44t176 133v855h33q101 0 155.5 42t54.5 127q0 39 -6.5 71.5t-19.5 70.5h66q14 -36 20 -68t6 -76
q0 -103 -63 -164zM536 1264l238 352h81l-251 -352h-68z" />
    <glyph glyph-name="uni1EEA" unicode="&#x1eea;" horiz-adv-x="1459" 
d="M429 41.5q-118 59.5 -176 184t-58 322.5v932h68v-942q0 -171 49.5 -279t152.5 -159.5t266 -51.5q162 0 265 51.5t152.5 159.5t49.5 279v942h34q209 0 209 154q0 39 -6 71t-19 71h66q13 -36 19 -68.5t6 -75.5q0 -98 -64 -154t-179 -61v-869q0 -198 -57.5 -322.5
t-174.5 -184t-301 -59.5t-302 59.5zM697 1616l-213 272h83l198 -272h-68z" />
    <glyph glyph-name="uni1EEB" unicode="&#x1eeb;" horiz-adv-x="1176" 
d="M1151 1083q-63 -61 -178 -69v-1014h-60l-6 126h-8q-76 -70 -173.5 -107t-203.5 -37q-167 0 -261 89t-94 284v725h68v-725q0 -163 76 -235t213 -72q103 0 205 44t176 133v855h33q101 0 155.5 42t54.5 127q0 39 -6.5 71.5t-19.5 70.5h66q14 -36 20 -68t6 -76
q0 -103 -63 -164zM536 1264l-251 352h81l238 -352h-68z" />
    <glyph glyph-name="uni1EEC" unicode="&#x1eec;" horiz-adv-x="1459" 
d="M429 41.5q-118 59.5 -176 184t-58 322.5v932h68v-942q0 -171 49.5 -279t152.5 -159.5t266 -51.5q162 0 265 51.5t152.5 159.5t49.5 279v942h34q209 0 209 154q0 39 -6 71t-19 71h66q13 -36 19 -68.5t6 -75.5q0 -98 -64 -154t-179 -61v-869q0 -198 -57.5 -322.5
t-174.5 -184t-301 -59.5t-302 59.5zM714 1664q15 19 34.5 30t52.5 25q37 14 55 27t18 35q0 26 -27.5 39.5t-97.5 13.5q-58 0 -105 -8t-102 -28v54q88 36 207 36q93 0 138.5 -29.5t45.5 -77.5q0 -39 -23.5 -58.5t-68.5 -38.5q-38 -16 -56.5 -29.5t-21.5 -38.5h-65q1 29 16 48
z" />
    <glyph glyph-name="uni1EED" unicode="&#x1eed;" horiz-adv-x="1176" 
d="M1151 1083q-63 -61 -178 -69v-1014h-60l-6 126h-8q-76 -70 -173.5 -107t-203.5 -37q-167 0 -261 89t-94 284v725h68v-725q0 -163 76 -235t213 -72q103 0 205 44t176 133v855h33q101 0 155.5 42t54.5 127q0 39 -6.5 71.5t-19.5 70.5h66q14 -36 20 -68t6 -76
q0 -103 -63 -164zM555.5 1328.5q14.5 26.5 34 43.5t50.5 38q36 23 52.5 40.5t16.5 44.5q0 40 -33 58.5t-103 18.5q-40 0 -83.5 -6t-76.5 -18v56q31 11 73 17.5t82 6.5q101 0 150.5 -34.5t49.5 -98.5q0 -44 -21.5 -69t-63.5 -52q-39 -26 -59.5 -48.5t-21.5 -61.5h-62
q1 38 15.5 64.5z" />
    <glyph glyph-name="uni1EEE" unicode="&#x1eee;" horiz-adv-x="1459" 
d="M429 41.5q-118 59.5 -176 184t-58 322.5v932h68v-942q0 -171 49.5 -279t152.5 -159.5t266 -51.5q162 0 265 51.5t152.5 159.5t49.5 279v942h34q209 0 209 154q0 39 -6 71t-19 71h66q13 -36 19 -68.5t6 -75.5q0 -98 -64 -154t-179 -61v-869q0 -198 -57.5 -322.5
t-174.5 -184t-301 -59.5t-302 59.5zM806 1708q-36 10 -90 30q-47 18 -76.5 26.5t-60.5 8.5q-52 0 -91.5 -17t-73.5 -54v68q57 60 165 60q41 0 77 -10t90 -30q47 -18 76.5 -26.5t60.5 -8.5q52 0 91.5 17t74.5 54v-68q-58 -60 -166 -60q-41 0 -77 10z" />
    <glyph glyph-name="uni1EEF" unicode="&#x1eef;" horiz-adv-x="1176" 
d="M343 1438q-38 -17 -72 -53v67q56 61 157 61q38 0 73.5 -10.5t83.5 -30.5q46 -18 73 -26t54 -8q47 0 85 17t73 53v-67q-58 -61 -158 -61q-38 0 -73.5 10.5t-83.5 30.5q-46 18 -73 26t-54 8q-47 0 -85 -17zM1151 1083q-63 -61 -178 -69v-1014h-60l-6 126h-8
q-76 -70 -173.5 -107t-203.5 -37q-167 0 -261 89t-94 284v725h68v-725q0 -163 76 -235t213 -72q103 0 205 44t176 133v855h33q101 0 155.5 42t54.5 127q0 39 -6.5 71.5t-19.5 70.5h66q14 -36 20 -68t6 -76q0 -103 -63 -164z" />
    <glyph glyph-name="uni1EF0" unicode="&#x1ef0;" horiz-adv-x="1459" 
d="M429 41.5q-118 59.5 -176 184t-58 322.5v932h68v-942q0 -171 49.5 -279t152.5 -159.5t266 -51.5q162 0 265 51.5t152.5 159.5t49.5 279v942h34q209 0 209 154q0 39 -6 71t-19 71h66q13 -36 19 -68.5t6 -75.5q0 -98 -64 -154t-179 -61v-869q0 -198 -57.5 -322.5
t-174.5 -184t-301 -59.5t-302 59.5zM686.5 -293q-17.5 17 -17.5 45t17.5 46t44.5 18t44.5 -18t17.5 -46t-17.5 -45t-44.5 -17t-44.5 17z" />
    <glyph glyph-name="uni1EF1" unicode="&#x1ef1;" horiz-adv-x="1176" 
d="M1151 1083q-63 -61 -178 -69v-1014h-60l-6 126h-8q-76 -70 -173.5 -107t-203.5 -37q-167 0 -261 89t-94 284v725h68v-725q0 -163 76 -235t213 -72q103 0 205 44t176 133v855h33q101 0 155.5 42t54.5 127q0 39 -6.5 71.5t-19.5 70.5h66q14 -36 20 -68t6 -76
q0 -103 -63 -164zM525.5 -293q-17.5 17 -17.5 45t17.5 46t44.5 18t44.5 -18t17.5 -46t-17.5 -45t-44.5 -17t-44.5 17z" />
    <glyph glyph-name="Ygrave" unicode="&#x1ef2;" horiz-adv-x="1178" 
d="M1188 1480l-565 -801v-679h-68v679l-573 801h86l522 -736l516 736h82zM555 1616l-213 272h83l198 -272h-68z" />
    <glyph glyph-name="ygrave" unicode="&#x1ef3;" horiz-adv-x="1064" 
d="M961 1080h71l-638 -1520h-72l185 440h-21l-454 1080h76l425 -1025zM500 1264l-251 352h81l238 -352h-68z" />
    <glyph glyph-name="uni1EF4" unicode="&#x1ef4;" horiz-adv-x="1178" 
d="M1188 1480l-565 -801v-679h-68v679l-573 801h86l522 -736l516 736h82zM544.5 -293q-17.5 17 -17.5 45t17.5 46t44.5 18t44.5 -18t17.5 -46t-17.5 -45t-44.5 -17t-44.5 17z" />
    </font>
</defs>
</svg>
