<?xml version="1.0" standalone="no"?>
<!DOCTYPE svg PUBLIC "-//W3C//DTD SVG 1.1//EN" "http://www.w3.org/Graphics/SVG/1.1/DTD/svg11.dtd" >
<svg xmlns="http://www.w3.org/2000/svg" xmlns:xlink="http://www.w3.org/1999/xlink" version="1.1">
<metadata>
Created by FontForge 20170731 at Tue Jan 31 13:40:46 2017
 By Aleksey,,,
Copyright 2012 The Encode Project Authors (impallari@gmail.com), with Reserved Font Name "Encode Sans".
</metadata>
<defs>
<font id="EncodeSansSemiExpanded-Light" horiz-adv-x="1183" >
  <font-face 
    font-family="Encode Sans Semi Expanded Light"
    font-weight="300"
    font-stretch="semi-expanded"
    units-per-em="2000"
    panose-1="0 0 4 5 0 0 0 0 0 0"
    ascent="1600"
    descent="-400"
    x-height="1083"
    cap-height="1480"
    bbox="-958 -462 2673 2132"
    underline-thickness="50"
    underline-position="-150"
    unicode-range="U+000D-FB02"
  />
<missing-glyph horiz-adv-x="1028" 
d="M843 1616v-2056h-652v2056h652zM685 1478h-340v-68h134v-76h-136v-68h342v68h-136v76h136v68zM549 1213h-206v-214h342v70h-136v144zM479 1143v-74h-68v74h68zM685 944h-342v-68h136v-76h-136v-68h206v144h136v68zM685 820h-68v-135h-274v-70h342v205zM685 569h-206v-115
h70v48h68v-97h-206v164h-68v-232h342v232zM685 214h-342v-233h342v233zM617 146v-97h-206v97h206zM685 -66h-342v-68h144l-144 -96v-68h342v68h-210l144 96h66v68z" />
    <glyph glyph-name="fi" unicode="fi" horiz-adv-x="1215" 
d="M340.5 1536.5q99.5 99.5 294.5 99.5q77 0 152 -14v-107q-72 15 -145 15q-144 0 -211.5 -65.5t-67.5 -216.5v-165h389v-104h-389v-979h-122v979h-221v104h221v156q0 198 99.5 297.5zM1048.5 1484.5q24.5 -23.5 24.5 -63.5q0 -39 -24 -61.5t-67 -22.5t-67 22.5t-24 61.5
q0 40 24.5 63.5t66.5 23.5t66.5 -23.5zM921 0v1083h122v-1083h-122z" />
    <glyph glyph-name="fl" unicode="fl" horiz-adv-x="1215" 
d="M340.5 1536.5q99.5 99.5 294.5 99.5q77 0 152 -14v-107q-72 15 -145 15q-144 0 -211.5 -65.5t-67.5 -216.5v-165h389v-104h-389v-979h-122v979h-221v104h221v156q0 198 99.5 297.5zM921 1616h122v-1616h-122v1616z" />
    <glyph glyph-name="f_j" unicode="fj" horiz-adv-x="1215" 
d="M363 979v-979h-122v979h-221v104h221v156q0 198 99.5 297.5t294.5 99.5q77 0 152 -14v-107q-72 15 -145 15q-144 0 -211.5 -65.5t-67.5 -216.5v-165h389v-104h-389zM1047.5 1492.5q24.5 -23.5 24.5 -63.5q0 -39 -24 -61.5t-67 -22.5t-67 22.5t-24 61.5q0 40 24.5 63.5
t66.5 23.5t66.5 -23.5zM921 1083h122v-908q0 -189 -55 -338.5t-179 -298.5l-82 57q102 131 148 266.5t46 306.5v915z" />
    <glyph glyph-name=".notdef" horiz-adv-x="1028" 
d="M843 1616v-2056h-652v2056h652zM685 1478h-340v-68h134v-76h-136v-68h342v68h-136v76h136v68zM549 1213h-206v-214h342v70h-136v144zM479 1143v-74h-68v74h68zM685 944h-342v-68h136v-76h-136v-68h206v144h136v68zM685 820h-68v-135h-274v-70h342v205zM685 569h-206v-115
h70v48h68v-97h-206v164h-68v-232h342v232zM685 214h-342v-233h342v233zM617 146v-97h-206v97h206zM685 -66h-342v-68h144l-144 -96v-68h342v68h-210l144 96h66v68z" />
    <glyph glyph-name=".null" horiz-adv-x="0" 
 />
    <glyph glyph-name="nonmarkingreturn" unicode="&#xd;" horiz-adv-x="519" 
 />
    <glyph glyph-name="NULL" horiz-adv-x="0" 
 />
    <glyph glyph-name="NULL" horiz-adv-x="0" 
 />
    <glyph glyph-name="space" unicode=" " horiz-adv-x="519" 
 />
    <glyph glyph-name="exclam" unicode="!" horiz-adv-x="501" 
d="M211 349l-25 557v574h129v-574l-24 -557h-80zM183 12.5q-26 24.5 -26 64.5t26 65t68 25q41 0 67 -25t26 -65t-25.5 -64.5t-67.5 -24.5t-68 24.5z" />
    <glyph glyph-name="quotedbl" unicode="&#x22;" horiz-adv-x="755" 
d="M176 932l-28 684h130l-28 -684h-74zM504 932l-28 684h130l-28 -684h-74z" />
    <glyph glyph-name="numbersign" unicode="#" 
d="M1078 904h-221l-37 -328h258v-104h-270l-54 -472h-105l54 472h-284l-54 -472h-104l54 472h-210v104h222l37 328h-259v104h271l54 472h104l-54 -472h284l54 472h105l-54 -472h209v-104zM715 576l37 328h-284l-37 -328h284z" />
    <glyph glyph-name="dollar" unicode="$" horiz-adv-x="1113" 
d="M920 119q-106 -104 -305 -129v-230h-115v222h-13q-93 0 -192 15.5t-187 45.5v110q97 -32 194.5 -47.5t185.5 -15.5q207 0 309.5 75.5t102.5 222.5q0 82 -34 136t-106.5 90.5t-196.5 64.5l-78 17q-203 45 -300.5 142t-97.5 256q0 167 105 270.5t308 127.5v228h115v-222h3
q91 0 179.5 -12t164.5 -36v-111q-163 51 -342 51q-204 0 -305.5 -74.5t-101.5 -214.5q0 -81 30 -135.5t98 -91.5t184 -63l78 -18q221 -49 322 -144.5t101 -254.5q0 -171 -106 -275z" />
    <glyph glyph-name="percent" unicode="%" horiz-adv-x="1861" 
d="M209.5 688q-90.5 112 -90.5 349t90 349t248 112t248 -112t90 -349t-90.5 -349t-247.5 -112t-247.5 112zM520 0l708 1480h113l-708 -1480h-113zM627.5 754.5q60.5 85.5 60.5 281.5t-61 282.5t-170 86.5q-110 0 -170.5 -86t-60.5 -280q0 -370 231 -370q110 0 170.5 85.5z
M1156.5 94q-90.5 112 -90.5 349t90 349t248 112t248 -112t90 -349t-90.5 -349t-247.5 -112t-247.5 112zM1574.5 160q60.5 85 60.5 281q0 197 -61 283.5t-170 86.5q-231 0 -231 -366q0 -370 231 -370q110 0 170.5 85z" />
    <glyph glyph-name="ampersand" unicode="&#x26;" horiz-adv-x="1564" 
d="M1502 -20l-280 204q-73 -99 -200.5 -150.5t-302.5 -51.5q-188 0 -314.5 53t-188.5 147t-62 220q0 136 69.5 239.5t199.5 164.5q-53 66 -76 131.5t-23 143.5q0 201 132.5 309t395.5 108q146 0 265 -31v-111q-119 34 -262 34q-210 0 -307 -79t-97 -231q0 -73 23.5 -131
t84 -121t175.5 -149l453 -331q22 69 22 159q0 65 -12.5 136.5t-35.5 138.5h110q44 -129 44 -275q0 -126 -39 -224l288 -210zM1137 246l-465 339q-111 81 -181 148q-211 -101 -211 -319q0 -153 109 -242t339 -89q293 0 409 163z" />
    <glyph glyph-name="quotesingle" unicode="'" horiz-adv-x="426" 
d="M176 932l-28 684h130l-28 -684h-74z" />
    <glyph glyph-name="parenleft" unicode="(" horiz-adv-x="686" 
d="M229.5 35q-88.5 259 -88.5 553t88.5 553t272.5 475h138q-194 -226 -283 -481.5t-89 -546.5t89 -546.5t283 -481.5h-138q-184 216 -272.5 475z" />
    <glyph glyph-name="parenright" unicode=")" horiz-adv-x="686" 
d="M329 42q89 255 89 546t-89 546t-283 482h138q184 -216 272.5 -475t88.5 -553t-88.5 -553t-272.5 -475h-138q194 227 283 482z" />
    <glyph glyph-name="asterisk" unicode="*" horiz-adv-x="918" 
d="M505 1190l134 -151l107 -146l-78 -57l-107 146l-102 176l-102 -176l-107 -146l-78 57l107 146l134 151l-196 43l-187 60l30 91l185 -61l186 -81l-20 201v173h96v-173l-20 -201l186 81l185 61l30 -91l-187 -60z" />
    <glyph glyph-name="plus" unicode="+" horiz-adv-x="1093" 
d="M492 366v343h-324v102h324v343h109v-343h324v-102h-324v-343h-109z" />
    <glyph glyph-name="comma" unicode="," horiz-adv-x="461" 
d="M299 141.5q25 -29.5 25 -90.5q0 -95 -23.5 -187.5t-64.5 -172.5h-73q31 89 47.5 159t19.5 138q-41 0 -67 25.5t-26 67.5q0 41 25 65.5t66 24.5q46 0 71 -29.5z" />
    <glyph glyph-name="hyphen" unicode="-" horiz-adv-x="882" 
d="M168 509v106h546v-106h-546z" />
    <glyph glyph-name="period" unicode="." horiz-adv-x="461" 
d="M163 12.5q-26 24.5 -26 66.5t26 67t68 25q41 0 67 -25.5t26 -66.5t-26 -66t-67 -25q-42 0 -68 24.5z" />
    <glyph glyph-name="slash" unicode="/" horiz-adv-x="625" 
d="M0 -240l504 1856h121l-504 -1856h-121z" />
    <glyph glyph-name="zero" unicode="0" horiz-adv-x="1309" 
d="M267 162q-136 180 -136 578q0 399 135 578.5t389 179.5q253 0 388.5 -179.5t135.5 -578.5q0 -398 -136.5 -578t-387.5 -180q-252 0 -388 180zM869.5 151q87.5 60 135.5 202.5t48 383.5q0 244 -48 387.5t-135.5 204t-214.5 60.5q-128 0 -215.5 -60t-135.5 -202.5
t-48 -383.5q0 -244 48 -387.5t135.5 -204t215.5 -60.5q127 0 214.5 60z" />
    <glyph glyph-name="one" unicode="1" horiz-adv-x="767" 
d="M487 1484h79v-1484h-123v1323l-418 -296v128z" />
    <glyph glyph-name="two" unicode="2" horiz-adv-x="1032" 
d="M960 108v-108h-890v69l452 561q122 151 172.5 257t50.5 208q0 152 -85.5 223.5t-260.5 71.5q-189 0 -346 -60v110q71 27 163 42.5t190 15.5q463 0 463 -394q-1 -85 -24.5 -162.5t-77 -165.5t-147.5 -203l-378 -465h718z" />
    <glyph glyph-name="three" unicode="3" horiz-adv-x="1050" 
d="M890.5 645q84.5 -94 84.5 -242q0 -202 -137.5 -311.5t-409.5 -109.5q-94 0 -190.5 15t-180.5 44v106q93 -30 188 -45.5t183 -15.5q215 0 320.5 82t105.5 240q0 145 -97.5 222.5t-294.5 77.5h-192v105h90q218 0 330 77t112 229q0 133 -91 204t-264 71q-181 0 -346 -56v106
q79 26 170 40t185 14q149 0 254 -44t159.5 -127.5t54.5 -199.5q0 -131 -74 -223t-205 -133q161 -32 245.5 -126z" />
    <glyph glyph-name="four" unicode="4" horiz-adv-x="1226" 
d="M1181 471v-104h-224v-367h-116v367h-789v70l631 1043h128l-609 -1009h639l18 509h98v-509h224z" />
    <glyph glyph-name="five" unicode="5" horiz-adv-x="1064" 
d="M740.5 780.5q136.5 -50.5 199 -139.5t61.5 -224q0 -213 -138.5 -324t-407.5 -111q-94 0 -190 15.5t-180 44.5v106q90 -30 185.5 -46t184.5 -16q425 0 425 329q0 105 -51 171.5t-168.5 104t-319.5 49.5l-194 12l51 728h742v-104h-631l-37 -526l109 -6q223 -13 359.5 -63.5
z" />
    <glyph glyph-name="six" unicode="6" horiz-adv-x="1198" 
d="M1001 732q128 -109 128 -320q0 -139 -58 -235.5t-161 -145.5t-239 -49q-532 0 -532 711q0 406 162.5 605.5t476.5 199.5q170 0 282 -45v-107q-59 24 -132.5 35.5t-145.5 11.5q-259 0 -389 -162.5t-131 -503.5q73 53 176.5 83.5t208.5 30.5q226 0 354 -109zM919 165
q92 81 92 243q0 167 -98.5 249t-282.5 82q-95 0 -195.5 -29.5t-171.5 -88.5q10 -287 113.5 -412t294.5 -125q156 0 248 81z" />
    <glyph glyph-name="seven" unicode="7" horiz-adv-x="974" 
d="M14 1480h900v-69l-599 -1411h-130l587 1372h-758v108z" />
    <glyph glyph-name="eight" unicode="8" horiz-adv-x="1309" 
d="M1119 600.5q76 -88.5 76 -220.5q0 -121 -61.5 -211t-181 -138.5t-288.5 -48.5q-268 0 -409 102t-141 291q0 137 76 237t216 155q-126 58 -183 143.5t-57 205.5q0 118 58 204t168 132t262 46t261.5 -45t167.5 -129t58 -199q0 -130 -68 -225.5t-200 -154.5
q170 -56 246 -144.5zM328 969.5q39 -61.5 129.5 -105t247.5 -75.5q20 -4 50 -11q143 59 208 139t65 200q0 137 -98.5 209t-277.5 72q-178 0 -270.5 -73.5t-92.5 -204.5q0 -89 39 -150.5zM968.5 157q104.5 75 104.5 216q0 86 -40 144.5t-128.5 99t-241.5 71.5q-76 15 -151 38
q-135 -45 -206.5 -134.5t-71.5 -206.5q0 -149 110 -226t321 -77q199 0 303.5 75z" />
    <glyph glyph-name="nine" unicode="9" horiz-adv-x="1198" 
d="M1059 787q0 -406 -162.5 -605.5t-476.5 -199.5q-170 0 -282 45v107q59 -24 132.5 -35.5t145.5 -11.5q259 0 389 162.5t131 503.5q-73 -53 -176.5 -83.5t-208.5 -30.5q-226 0 -354 109t-128 320q0 139 58 235.5t161 145.5t239 49q532 0 532 -711zM285.5 823
q98.5 -82 282.5 -82q95 0 195.5 29.5t171.5 88.5q-10 287 -113.5 412t-294.5 125q-156 0 -248 -81t-92 -243q0 -167 98.5 -249z" />
    <glyph glyph-name="colon" unicode=":" horiz-adv-x="461" 
d="M163 12.5q-26 24.5 -26 66.5t26 67t68 25q41 0 67 -25.5t26 -66.5t-26 -66t-67 -25q-42 0 -68 24.5zM163 935.5q-26 24.5 -26 66.5t26 67t68 25q41 0 67 -25.5t26 -66.5t-26 -66t-67 -25q-42 0 -68 24.5z" />
    <glyph glyph-name="semicolon" unicode=";" horiz-adv-x="461" 
d="M299 141.5q25 -29.5 25 -90.5q0 -95 -23.5 -187.5t-64.5 -172.5h-73q31 89 47.5 159t19.5 138q-41 0 -67 25.5t-26 67.5q0 41 25 65.5t66 24.5q46 0 71 -29.5zM163 935.5q-26 24.5 -26 66.5t26 67t68 25q41 0 67 -25.5t26 -66.5t-26 -66t-67 -25q-42 0 -68 24.5z" />
    <glyph glyph-name="less" unicode="&#x3c;" horiz-adv-x="1093" 
d="M925 1141v-109l-637 -272l637 -272v-109l-757 328v106z" />
    <glyph glyph-name="equal" unicode="=" horiz-adv-x="1093" 
d="M168 899v103h757v-103h-757zM168 518v103h757v-103h-757z" />
    <glyph glyph-name="greater" unicode="&#x3e;" horiz-adv-x="1093" 
d="M168 1141l757 -328v-106l-757 -328v109l636 272l-636 272v109z" />
    <glyph glyph-name="question" unicode="?" horiz-adv-x="929" 
d="M363 749q144 45 227 96.5t118.5 117t35.5 156.5q0 132 -91.5 203t-264.5 71q-180 0 -345 -56v107q79 26 170 40t184 14q149 0 254.5 -44t160 -127.5t54.5 -200.5q0 -110 -38 -190.5t-123 -142.5t-229 -114l-13 -343h-79zM356.5 12.5q-26.5 24.5 -26.5 64.5t26 65t68 25
q41 0 67 -25t26 -65q0 -39 -25.5 -64t-67.5 -25q-41 0 -67.5 24.5z" />
    <glyph glyph-name="at" unicode="@" horiz-adv-x="2010" 
d="M1492 1392.5q196 -105.5 297 -313.5t101 -512q0 -201 -46 -331.5t-125.5 -191.5t-183.5 -61q-92 0 -150 38t-81 108h-11q-57 -68 -150 -107t-198 -39t-181 35t-116.5 100.5t-40.5 155.5q0 138 92 214t290 98l302 36v102q0 104 -34 162.5t-99.5 82t-167.5 23.5
q-70 0 -150.5 -13t-157.5 -41v106q68 25 153.5 38.5t165.5 13.5q137 0 226.5 -35t136.5 -117.5t47 -221.5v-468q0 -95 35 -135.5t107 -40.5q67 0 120 48.5t84 156t31 275.5q0 426 -195 635t-581 209q-388 0 -585.5 -216.5t-197.5 -662.5q0 -306 91 -502t274 -290.5
t462 -94.5q103 0 201.5 14t207.5 44v-98q-93 -27 -198.5 -41.5t-210.5 -14.5q-462 1 -698.5 244.5t-236.5 735.5q0 487 229.5 732.5t661.5 245.5q284 0 480 -105.5zM1142.5 120.5q84.5 36.5 148.5 109.5v303l-296 -36q-137 -16 -199.5 -67.5t-62.5 -144.5q0 -98 59 -149.5
t176 -51.5q90 0 174.5 36.5z" />
    <glyph glyph-name="A" unicode="A" horiz-adv-x="1400" 
d="M1234 0l-193 499h-685l-193 -499h-126l578 1480h170l578 -1480h-129zM398 607h601l-300 777z" />
    <glyph glyph-name="B" unicode="B" horiz-adv-x="1304" 
d="M1145 642q78 -94 78 -240q0 -138 -66 -229.5t-210 -138t-378 -46.5q-186 0 -378 26v1440q103 21 201 31t217 10q297 0 434 -96.5t137 -295.5q0 -130 -66.5 -218.5t-205.5 -120.5q159 -28 237 -122zM451 1386q-72 -6 -139 -19v-555h350q206 0 302.5 69.5t96.5 217.5
q0 105 -45 169t-141.5 94t-255.5 30q-96 0 -168 -6zM895.5 126.5q112.5 34.5 160 103t47.5 177.5q0 156 -102 228.5t-318 72.5h-371v-599q115 -17 277 -17q194 0 306.5 34.5z" />
    <glyph glyph-name="C" unicode="C" horiz-adv-x="1216" 
d="M121 738q0 388 182 574t517 186q94 0 178.5 -12t169.5 -36v-111q-165 49 -344 49q-283 0 -428.5 -152.5t-145.5 -493.5q0 -239 67.5 -382.5t191 -205.5t302.5 -62q92 0 176 14t181 47v-111q-166 -60 -365 -60q-682 0 -682 756z" />
    <glyph glyph-name="D" unicode="D" horiz-adv-x="1470" 
d="M381.5 -5.5q-85.5 5.5 -190.5 18.5v1441q95 20 198.5 30.5t198.5 10.5q377 0 569 -188t192 -567q0 -381 -196.5 -566t-590.5 -185q-95 0 -180.5 5.5zM1063 253q158 155 158 487q0 331 -157 488.5t-475 157.5q-120 0 -275 -24v-1247q109 -17 268 -17q323 0 481 155z" />
    <glyph glyph-name="E" unicode="E" horiz-adv-x="1230" 
d="M313 108h827v-108h-949v1480h939v-108h-817v-558h717v-108h-717v-598z" />
    <glyph glyph-name="F" unicode="F" horiz-adv-x="1186" 
d="M1121 1371h-807v-564h708v-109h-708v-698h-123v1480h930v-109z" />
    <glyph glyph-name="G" unicode="G" horiz-adv-x="1426" 
d="M1250 720v-702q-102 -16 -183.5 -23t-170.5 -7q-384 0 -579 185t-196 565q-1 260 90.5 429.5t256 250t387.5 80.5q91 0 177 -12t181 -36v-111q-99 27 -182.5 38t-167.5 11q-290 0 -451.5 -154.5t-161.5 -491.5q0 -330 159.5 -487t481.5 -157q131 0 241 16v606h118z" />
    <glyph glyph-name="H" unicode="H" horiz-adv-x="1514" 
d="M191 0v1480h123v-663h886v663h124v-1480h-124v703h-886v-703h-123z" />
    <glyph glyph-name="I" unicode="I" horiz-adv-x="505" 
d="M191 0v1480h123v-1480h-123z" />
    <glyph glyph-name="J" unicode="J" horiz-adv-x="505" 
d="M-3 -284q102 130 148 265.5t46 307.5v1191h123v-1218q-8 -180 -61 -319.5t-174 -284.5z" />
    <glyph glyph-name="K" unicode="K" horiz-adv-x="1286" 
d="M1146 0l-567 703h-265v-703h-123v1480h123v-663h268l525 663h141l-570 -718l612 -762h-144z" />
    <glyph glyph-name="L" unicode="L" horiz-adv-x="1121" 
d="M191 0v1480h123v-1370h791v-110h-914z" />
    <glyph glyph-name="M" unicode="M" horiz-adv-x="1820" 
d="M1481 1480h144v-1480h-117v1288l-540 -1085h-117l-539 1075v-1278h-117v1480h143l574 -1156z" />
    <glyph glyph-name="N" unicode="N" horiz-adv-x="1541" 
d="M1233 1480h118v-1480h-129l-914 1294v-1294h-117v1480h128l914 -1294v1294z" />
    <glyph glyph-name="O" unicode="O" horiz-adv-x="1512" 
d="M420 62.5q-142 80.5 -220.5 249.5t-78.5 428t79 428t221.5 249.5t334.5 80.5q194 0 336 -80.5t220.5 -249.5t78.5 -428t-79 -428t-221.5 -249.5t-334.5 -80.5q-194 0 -336 80.5zM1129.5 245.5q133.5 153.5 133.5 489.5q0 653 -507 653q-240 0 -373.5 -153.5
t-133.5 -489.5q0 -653 507 -653q240 0 373.5 153.5z" />
    <glyph glyph-name="P" unicode="P" horiz-adv-x="1278" 
d="M191 1456q102 20 194.5 29.5t195.5 9.5q298 0 449 -121t151 -375q0 -247 -155 -373.5t-481 -126.5q-117 0 -231 11v-510h-123v1456zM840 646.5q112 43.5 164 130t52 220.5q0 203 -115.5 298t-352.5 95q-148 0 -274 -23v-749q111 -15 233 -15q181 0 293 43.5z" />
    <glyph glyph-name="Q" unicode="Q" horiz-adv-x="1512" 
d="M1239.5 189.5q-151.5 -190.5 -440.5 -197.5q226 -68 564 -95l-19 -106q-473 49 -737.5 158t-375 297t-110.5 493q0 259 79 428.5t221.5 250t334.5 80.5q296 0 465.5 -185t169.5 -573q0 -360 -151.5 -550.5zM756 92q240 0 373.5 153.5t133.5 489.5q0 653 -507 653
q-240 0 -373.5 -153.5t-133.5 -489.5q0 -653 507 -653z" />
    <glyph glyph-name="R" unicode="R" horiz-adv-x="1362" 
d="M1147 0l-500 629q-56 -2 -88 -2q-65 0 -126 3t-120 8v-638h-122v1454q96 19 192 30t211 11q202 0 332 -45t193.5 -140t63.5 -245q2 -353 -408 -422l515 -643h-143zM433.5 733.5q50.5 -2.5 127.5 -2.5q264 0 383.5 81t119.5 250q0 121 -48 192.5t-149.5 104t-266.5 32.5
q-86 0 -150 -6t-137 -19v-623q70 -7 120.5 -9.5z" />
    <glyph glyph-name="S" unicode="S" horiz-adv-x="1113" 
d="M296 -2.5q-99 15.5 -188 46.5v110q97 -33 195 -48.5t188 -15.5q205 0 307 75.5t102 222.5q0 82 -34 136t-106.5 90.5t-196.5 64.5l-78 17q-203 45 -300.5 142t-97.5 256q0 126 59.5 216.5t178 139t291.5 48.5q91 0 180 -12.5t166 -36.5v-110q-168 51 -345 51
q-202 0 -303 -74.5t-101 -214.5q0 -81 30 -135.5t98 -91.5t184 -63l78 -18q221 -49 322 -144.5t101 -254.5q0 -131 -62.5 -223.5t-183 -140.5t-291.5 -48q-94 0 -193 15.5z" />
    <glyph glyph-name="T" unicode="T" horiz-adv-x="1215" 
d="M546 0v1370h-529v110h1181v-110h-529v-1370h-123z" />
    <glyph glyph-name="U" unicode="U" horiz-adv-x="1485" 
d="M427.5 43.5q-123.5 61.5 -184 190.5t-60.5 332v914h123v-929q0 -162 47 -263t143.5 -149t247.5 -48t247.5 48t143.5 149t47 263v929h120v-914q0 -204 -60 -332.5t-183 -190t-315 -61.5q-193 0 -316.5 61.5z" />
    <glyph glyph-name="V" unicode="V" horiz-adv-x="1359" 
d="M1218 1480h124l-574 -1480h-177l-574 1480h132l535 -1385z" />
    <glyph glyph-name="W" unicode="W" horiz-adv-x="2200" 
d="M2010 1480h121l-449 -1480h-164l-417 1345l-419 -1345h-164l-451 1480h129l410 -1369l421 1369h151l419 -1370z" />
    <glyph glyph-name="X" unicode="X" horiz-adv-x="1328" 
d="M738 753l566 -753h-147l-495 656l-495 -656h-145l567 751l-551 729h147l479 -632l481 632h142z" />
    <glyph glyph-name="Y" unicode="Y" horiz-adv-x="1215" 
d="M1231 1480l-561 -813v-667h-124v666l-571 814h142l494 -703l487 703h133z" />
    <glyph glyph-name="Z" unicode="Z" horiz-adv-x="1209" 
d="M234 109h909v-109h-1078v70l897 1301h-884v109h1053v-70z" />
    <glyph glyph-name="bracketleft" unicode="[" horiz-adv-x="686" 
d="M211 -440v2056h513v-104h-391v-1848h389v-104h-511z" />
    <glyph glyph-name="backslash" unicode="\" horiz-adv-x="630" 
d="M506 -240l-506 1856h124l506 -1856h-124z" />
    <glyph glyph-name="bracketright" unicode="]" horiz-adv-x="686" 
d="M-37 -440v104h390v1848h-391v104h513v-2056h-512z" />
    <glyph glyph-name="asciicircum" unicode="^" 
d="M1080 740h-130l-358 641l-359 -641h-130l419 740h138z" />
    <glyph glyph-name="underscore" unicode="_" horiz-adv-x="1177" 
d="M96 -104v104h985v-104h-985z" />
    <glyph glyph-name="grave" unicode="`" horiz-adv-x="1134" 
d="M509 1257l-263 359h137l242 -359h-116z" />
    <glyph glyph-name="a" unicode="a" horiz-adv-x="1072" 
d="M730.5 1063.5q90.5 -35.5 137.5 -118t47 -223.5v-722h-104l-9 127h-10q-57 -67 -148.5 -105.5t-194.5 -38.5q-105 0 -181 35t-116.5 100.5t-40.5 155.5q0 139 94 215.5t301 98.5l289 33v104q0 105 -34 164t-100.5 82.5t-171.5 23.5q-72 0 -153 -12.5t-158 -39.5v106
q68 24 154.5 37t168.5 13q139 0 229.5 -35.5zM646.5 119.5q83.5 36.5 148.5 110.5v300l-283 -32q-146 -17 -210.5 -68.5t-64.5 -145.5q0 -97 59 -149t176 -52q91 0 174.5 36.5z" />
    <glyph glyph-name="b" unicode="b" 
d="M172 31v1585h122v-653h8q59 64 144 100t188 36q128 0 227 -55t156 -174.5t57 -307.5q0 -290 -140.5 -435t-416.5 -145q-183 0 -345 49zM842.5 197.5q105.5 112.5 105.5 352.5q0 237 -91.5 339t-251.5 102q-92 0 -173 -35t-138 -107v-733q108 -31 231 -31
q212 0 317.5 112.5z" />
    <glyph glyph-name="c" unicode="c" horiz-adv-x="917" 
d="M110 541q0 286 133.5 422t392.5 136q130 0 236 -31v-108q-113 32 -226 32q-139 0 -229 -45.5t-135 -144t-45 -257.5q0 -241 93 -348.5t280 -107.5q119 0 262 50v-108q-136 -50 -278 -50q-484 0 -484 560z" />
    <glyph glyph-name="d" unicode="d" 
d="M326 38q-101 56 -158.5 176t-57.5 305q0 580 565 580q99 0 215 -19v536h122v-1616h-105l-9 125h-10q-57 -67 -141.5 -105t-186.5 -38q-133 0 -234 56zM754 127q80 37 136 115v728q-45 12 -102.5 18.5t-115.5 6.5q-222 0 -329.5 -112t-107.5 -352q0 -236 91 -338.5
t258 -102.5q90 0 170 37z" />
    <glyph glyph-name="e" unicode="e" horiz-adv-x="1079" 
d="M988 498h-753q7 -217 108.5 -315t300.5 -98q126 0 290 50v-105q-160 -49 -303 -49q-257 0 -389 136.5t-132 424.5q0 276 117.5 416.5t329.5 140.5q209 0 320 -140t111 -419v-42zM321.5 905q-81.5 -99 -86.5 -315h634q-4 215 -83 314.5t-230 99.5q-153 0 -234.5 -99z" />
    <glyph glyph-name="f" unicode="f" horiz-adv-x="749" 
d="M432 1464q-69 -66 -69 -219v-162h389v-104h-389v-979h-122v979h-221v104h221v154q0 399 400 399q74 0 154 -13v-107q-76 14 -147 14q-147 0 -216 -66z" />
    <glyph glyph-name="g" unicode="g" 
d="M344 -446q-90 14 -164 39v107q172 -55 328 -55q133 0 216.5 36.5t124.5 118t41 218.5v103h-8q-59 -64 -144 -100.5t-189 -36.5q-127 0 -225.5 55t-156 174.5t-57.5 306.5q0 290 141 434.5t419 144.5q180 0 342 -49v-1015q0 -175 -55.5 -284.5t-165.5 -160t-278 -50.5
q-79 0 -169 14zM750.5 127.5q81.5 35.5 139.5 107.5v733q-101 27 -231 27q-212 0 -318 -112t-106 -351q0 -237 91.5 -338.5t252.5 -101.5q90 0 171.5 35.5z" />
    <glyph glyph-name="h" unicode="h" horiz-adv-x="1195" 
d="M172 1616h122v-658h8q73 69 167.5 105t203.5 36q171 0 267.5 -92.5t96.5 -295.5v-711h-122v706q0 150 -70 215.5t-199 65.5q-97 0 -191 -39t-161 -117v-831h-122v1616z" />
    <glyph glyph-name="i" unicode="i" horiz-adv-x="466" 
d="M172 0v1083h122v-1083h-122zM166 1359.5q-24 22.5 -24 61.5q0 40 24.5 63.5t66.5 23.5t66.5 -23.5t24.5 -63.5q0 -39 -24 -61.5t-67 -22.5t-67 22.5z" />
    <glyph glyph-name="j" unicode="j" horiz-adv-x="466" 
d="M-22 -405q102 131 148 266.5t46 306.5v915h122v-908q0 -189 -55 -338.5t-179 -298.5zM165 1367.5q-24 22.5 -24 61.5q0 40 24.5 63.5t66.5 23.5t66.5 -23.5t24.5 -63.5q0 -39 -24 -61.5t-67 -22.5t-67 22.5z" />
    <glyph glyph-name="k" unicode="k" horiz-adv-x="1067" 
d="M939 0l-429 502h-216v-502h-122v1616h122v-1009h216l399 476h140l-436 -527l468 -556h-142z" />
    <glyph glyph-name="l" unicode="l" horiz-adv-x="466" 
d="M172 0v1616h122v-1616h-122z" />
    <glyph glyph-name="m" unicode="m" horiz-adv-x="1759" 
d="M1512.5 1006q89.5 -93 89.5 -295v-711h-122v706q0 150 -62.5 216t-174.5 66q-81 0 -162 -37t-140 -116q10 -51 10 -121v-714h-121v706q0 150 -60.5 216t-170.5 66q-84 0 -165 -40t-140 -121v-827h-122v1083h104l9 -128h10q66 71 151 107.5t181 36.5q206 0 282 -161
q78 84 171 122.5t186 38.5q157 0 246.5 -93z" />
    <glyph glyph-name="n" unicode="n" horiz-adv-x="1195" 
d="M172 1083h104l9 -128h10q74 70 170.5 107t202.5 37q174 0 271.5 -93.5t97.5 -298.5v-707h-122v704q0 151 -69 217.5t-200 66.5q-95 0 -189.5 -38t-162.5 -118v-832h-122v1083z" />
    <glyph glyph-name="o" unicode="o" horiz-adv-x="1162" 
d="M234.5 118.5q-124.5 137.5 -124.5 422.5q0 282 125 420t346 138q223 0 347 -136.5t124 -421.5q0 -282 -125.5 -421t-345.5 -139q-222 0 -346.5 137.5zM837.5 192q89.5 107 89.5 347q0 243 -89.5 350t-256.5 107t-256.5 -106t-89.5 -347q0 -243 89.5 -350.5t256.5 -107.5
t256.5 107z" />
    <glyph glyph-name="p" unicode="p" 
d="M172 1083h105l10 -127h8q57 67 141.5 105t186.5 38q132 0 233 -54.5t159.5 -174.5t58.5 -308q0 -580 -566 -580q-92 0 -214 18v-440h-122v1523zM840.5 198q107.5 112 107.5 352q0 238 -92 339.5t-256 101.5q-90 0 -169.5 -37t-136.5 -115v-728q44 -12 102 -18.5t116 -6.5
q221 0 328.5 112z" />
    <glyph glyph-name="q" unicode="q" 
d="M890 118h-8q-59 -64 -144 -100t-189 -36q-128 0 -226.5 55t-155.5 174.5t-57 307.5q0 580 560 580q180 0 342 -49v-1490h-122v558zM750.5 125.5q81.5 35.5 139.5 106.5v736q-101 27 -231 27q-212 0 -318 -112.5t-106 -351.5q0 -237 91.5 -339t252.5 -102q90 0 171.5 35.5
z" />
    <glyph glyph-name="r" unicode="r" horiz-adv-x="757" 
d="M172 1083h103l10 -146h10q61 73 155 114.5t192 41.5q49 0 100 -9v-116q-44 8 -104 8q-91 0 -187 -41.5t-157 -119.5v-815h-122v1083z" />
    <glyph glyph-name="s" unicode="s" horiz-adv-x="948" 
d="M127 25v105q83 -25 157 -35.5t157 -10.5q159 0 232.5 51t73.5 149q0 81 -44 124t-153 64l-158 30q-148 29 -215.5 101t-67.5 190q0 91 46 159.5t142.5 107.5t241.5 39q143 0 268 -35v-104q-72 20 -134 28.5t-132 8.5q-165 0 -238.5 -54t-73.5 -147q0 -74 42.5 -120.5
t146.5 -66.5l158 -30q153 -30 222 -98.5t69 -188.5q0 -146 -109 -228.5t-320 -82.5q-172 0 -311 44z" />
    <glyph glyph-name="t" unicode="t" horiz-adv-x="777" 
d="M764 109v-108q-83 -19 -171 -19q-175 0 -267.5 88.5t-92.5 273.5v635h-221v104h221l19 397h103v-397h389v-104h-389v-615q0 -146 64.5 -210t195.5 -64q60 0 149 19z" />
    <glyph glyph-name="u" unicode="u" horiz-adv-x="1185" 
d="M254 74.5q-97 92.5 -97 294.5v714h122v-708q0 -150 69.5 -216t195.5 -66q94 0 187 39.5t160 117.5v833h122v-1083h-104l-9 123h-9q-74 -69 -169 -105t-200 -36q-171 0 -268 92.5z" />
    <glyph glyph-name="v" unicode="v" horiz-adv-x="1100" 
d="M950 1083h124l-445 -1083h-159l-444 1083h131l397 -978z" />
    <glyph glyph-name="w" unicode="w" horiz-adv-x="1753" 
d="M1562 1083h118l-342 -1083h-149l-311 962l-312 -962h-149l-344 1083h123l300 -959l308 959h150l307 -957z" />
    <glyph glyph-name="x" unicode="x" horiz-adv-x="1059" 
d="M605 548l430 -548h-147l-359 458l-358 -458h-143l427 546l-419 537h146l350 -447l350 447h141z" />
    <glyph glyph-name="y" unicode="y" horiz-adv-x="1100" 
d="M950 1083h124l-625 -1523h-124l181 440h-36l-444 1083h131l393 -986z" />
    <glyph glyph-name="z" unicode="z" horiz-adv-x="957" 
d="M225 104h674v-104h-834v75l661 904h-648v104h808v-75z" />
    <glyph glyph-name="braceleft" unicode="{" horiz-adv-x="726" 
d="M337.5 705.5q-35.5 -59.5 -111.5 -81.5q76 -23 111.5 -82.5t35.5 -164.5v-479q0 -133 65.5 -192t201.5 -59h124v-96q-55 -11 -132 -11q-381 0 -381 361v491q0 94 -43.5 136.5t-134.5 42.5h-29v105h29q91 0 134.5 42.5t43.5 136.5v420q0 361 381 361q77 0 132 -11v-96
h-124q-136 0 -201.5 -59t-65.5 -192v-408q0 -105 -35.5 -164.5z" />
    <glyph glyph-name="bar" unicode="|" horiz-adv-x="496" 
d="M191 -440v2056h115v-2056h-115z" />
    <glyph glyph-name="braceright" unicode="}" horiz-adv-x="726" 
d="M681 676v-105h-29q-90 0 -133.5 -42.5t-43.5 -136.5v-491q0 -361 -381 -361q-79 0 -132 11v96h123q137 0 202.5 59t65.5 192v479q0 105 35.5 164.5t111.5 82.5q-76 22 -111.5 81.5t-35.5 164.5v408q0 133 -65.5 192t-202.5 59h-123v96q53 11 132 11q381 0 381 -361v-420
q0 -94 43.5 -136.5t133.5 -42.5h29z" />
    <glyph glyph-name="asciitilde" unicode="~" horiz-adv-x="1093" 
d="M630.5 662q-44.5 16 -103.5 47q-54 27 -88.5 40t-68.5 13q-59 0 -108.5 -26.5t-93.5 -81.5v118q35 45 87 68.5t114 23.5q48 0 90.5 -15.5t107.5 -47.5q53 -27 87 -40t68 -13q117 0 203 108v-118q-36 -45 -87.5 -68.5t-114.5 -23.5q-48 0 -92.5 16z" />
    <glyph glyph-name="uni00A0" unicode="&#xa0;" horiz-adv-x="519" 
 />
    <glyph glyph-name="exclamdown" unicode="&#xa1;" horiz-adv-x="501" 
d="M318 1070q26 -25 26 -66t-26 -66.5t-67 -25.5q-42 0 -68 25t-26 67t26 66.5t68 24.5q41 0 67 -25zM211 730h80l24 -555v-555h-129v555z" />
    <glyph glyph-name="cent" unicode="&#xa2;" horiz-adv-x="927" 
d="M414.5 946.5q-89.5 -45.5 -133.5 -143.5t-44 -258q0 -241 93 -348.5t280 -107.5q119 0 262 50v-108q-115 -42 -230 -49v-222h-109v223q-423 34 -423 558q0 256 107 391.5t316 160.5v230h109v-224q114 0 230 -31v-108q-117 32 -228 32q-140 0 -229.5 -45.5z" />
    <glyph glyph-name="sterling" unicode="&#xa3;" horiz-adv-x="1335" 
d="M1244 106v-106h-1166v106h239v593h-239v102h239v236q0 234 135.5 347.5t404.5 113.5q91 0 179.5 -12t164.5 -36v-111q-163 51 -342 51q-214 0 -317.5 -81t-103.5 -269v-239h574v-102h-574v-593h806z" />
    <glyph glyph-name="currency" unicode="&#xa4;" 
d="M955 451l103 -99l-78 -78l-99 102l-77 98q-42 -36 -95.5 -54.5t-116.5 -18.5t-117 18.5t-96 53.5l-77 -97l-99 -102l-78 78l103 99l100 78q-61 88 -61 211q0 122 61 210l-100 79l-104 99l77 78l99 -102l79 -99q42 35 96 53.5t117 18.5q62 0 116 -18.5t96 -53.5l79 99
l99 102l78 -78l-105 -99l-100 -79q61 -88 61 -210q0 -123 -61 -211zM715 518q53 30 82.5 86.5t29.5 135.5q0 74 -27.5 131t-80 89t-125.5 32q-71 0 -124.5 -30t-83 -87t-29.5 -135t29.5 -135t82.5 -87t123 -30t123 30z" />
    <glyph glyph-name="yen" unicode="&#xa5;" horiz-adv-x="1257" 
d="M1255 1480l-513 -740h277v-91h-329v-250h329v-91h-329v-308h-123v308h-328v91h328v250h-328v91h275l-515 740h142l491 -704l490 704h133z" />
    <glyph glyph-name="brokenbar" unicode="&#xa6;" horiz-adv-x="496" 
d="M191 836v780h115v-780h-115zM191 -440v780h115v-780h-115z" />
    <glyph glyph-name="section" unicode="&#xa7;" horiz-adv-x="1064" 
d="M899 291q0 -146 -108.5 -228t-322.5 -82q-167 0 -307 43v101q83 -24 157 -34t154 -10q162 0 235.5 51t73.5 149q0 55 -19 91t-61.5 59.5t-115.5 38.5l-166 32q-145 29 -212.5 100t-67.5 189q0 63 25.5 116t73.5 93q-75 69 -75 190q0 91 46 159.5t142.5 107.5t243.5 39
q136 0 264 -33v-101q-71 19 -131.5 27t-127.5 8q-169 0 -244 -54.5t-75 -147.5q0 -74 43 -120.5t146 -66.5l168 -32q151 -30 219 -98t68 -186q0 -130 -100 -214q74 -67 74 -187zM611 569q77 -15 131 -39q73 57 73 152q0 82 -46.5 127.5t-157.5 67.5l-165 32q-69 13 -126 38
q-72 -59 -72 -151q0 -76 45 -125t152 -70z" />
    <glyph glyph-name="dieresis" unicode="&#xa8;" horiz-adv-x="1134" 
d="M274.5 1360.5q-23.5 22.5 -23.5 60.5q0 39 23.5 62.5t62.5 23.5t62.5 -23.5t23.5 -62.5q0 -38 -23.5 -60.5t-62.5 -22.5t-62.5 22.5zM734.5 1360.5q-23.5 22.5 -23.5 60.5q0 39 23.5 62.5t62.5 23.5t62.5 -23.5t23.5 -62.5q0 -38 -23.5 -60.5t-62.5 -22.5t-62.5 22.5z
" />
    <glyph glyph-name="copyright" unicode="&#xa9;" horiz-adv-x="1731" 
d="M476 73q-169 95 -262 267.5t-93 399.5t93 399.5t262 267.5t390 95t389.5 -95t261.5 -267.5t93 -399.5t-93 -399.5t-261.5 -267.5t-389.5 -95t-390 95zM1209.5 151q147.5 83 228.5 235.5t81 353.5t-81 353.5t-228.5 235.5t-343.5 83t-344 -83t-229 -235.5t-81 -353.5
t81 -353.5t229 -235.5t344 -83t343.5 83zM697.5 370.5q-88.5 46.5 -137 139t-48.5 224.5q0 196 108.5 303t308.5 107q102 0 192 -27v-94q-95 26 -186 26q-156 0 -236.5 -77.5t-80.5 -234.5q0 -158 77.5 -238t218.5 -80q100 0 207 39v-94q-93 -40 -216 -40
q-119 0 -207.5 46.5z" />
    <glyph glyph-name="ordfeminine" unicode="&#xaa;" horiz-adv-x="907" 
d="M618.5 1464.5q78.5 -29.5 118.5 -98.5t40 -185v-571h-97l-9 101h-8q-50 -54 -127.5 -85t-163.5 -31q-89 0 -153 29t-98 82.5t-34 125.5q0 113 79 175t254 79l243 25v78q0 80 -28.5 125.5t-84.5 64.5t-145 19q-128 0 -261 -43v97q60 20 132.5 31t142.5 11
q121 0 199.5 -29.5zM542 715q68 28 121 83v235l-233 -24q-121 -13 -174 -53t-53 -112q0 -76 48.5 -116.5t148.5 -40.5q74 0 142 28z" />
    <glyph glyph-name="guillemotleft" unicode="&#xab;" horiz-adv-x="1043" 
d="M417 138l-289 424l289 423h131l-290 -423l290 -424h-131zM825 138l-289 424l289 423h131l-290 -423l290 -424h-131z" />
    <glyph glyph-name="logicalnot" unicode="&#xac;" horiz-adv-x="1381" 
d="M1115 193v516h-947v102h1056v-618h-109z" />
    <glyph glyph-name="uni00AD" unicode="&#xad;" horiz-adv-x="882" 
d="M168 509v106h546v-106h-546z" />
    <glyph glyph-name="registered" unicode="&#xae;" horiz-adv-x="1544" 
d="M1089.5 1420q138.5 -78 215.5 -218t77 -320t-77 -319.5t-215.5 -217t-317.5 -77.5t-317.5 77.5t-215.5 217t-77 319.5t77 320t215.5 218t317.5 78t317.5 -78zM1049.5 414q119.5 66 184.5 187t65 281q0 161 -65 282t-184.5 187.5t-277.5 66.5t-277.5 -66.5t-184.5 -187.5
t-65 -282q0 -160 65 -281t184.5 -187t277.5 -66t277.5 66zM972.5 896q-33.5 -43 -99.5 -62l158 -234h-92l-151 221q-9 -1 -29 -1h-115l-1 -220h-81v592h197q121 0 184 -48.5t63 -138.5q0 -66 -33.5 -109zM773 893q78 0 115 27t37 85t-37.5 86t-114.5 28h-129v-226h129z" />
    <glyph glyph-name="macron" unicode="&#xaf;" horiz-adv-x="1134" 
d="M252 1379v88h630v-88h-630z" />
    <glyph glyph-name="degree" unicode="&#xb0;" horiz-adv-x="1017" 
d="M330 849.5q-79 44.5 -123.5 123.5t-44.5 178t44.5 178t123.5 123.5t179 44.5t179 -44.5t123.5 -123.5t44.5 -178t-44.5 -178t-123.5 -123.5t-179 -44.5t-179 44.5zM639.5 926.5q57.5 31.5 89.5 89.5t32 135t-32 135t-89.5 89t-130.5 31t-130.5 -31t-89.5 -89t-32 -135
t32 -135t89 -89.5t131 -31.5q73 0 130.5 31.5z" />
    <glyph glyph-name="plusminus" unicode="&#xb1;" horiz-adv-x="1093" 
d="M492 328v339h-324v103h324v339h109v-339h324v-103h-324v-339h-109zM168 0v103h757v-103h-757z" />
    <glyph glyph-name="uni00B2" unicode="&#xb2;" horiz-adv-x="806" 
d="M728 -43v-93h-636v59l315 374q85 100 120.5 167.5t35.5 132.5q0 97 -59 142.5t-180 45.5q-133 0 -244 -41v93q100 39 254 39q335 0 335 -268q0 -84 -39.5 -163t-136.5 -192l-253 -296h488z" />
    <glyph glyph-name="uni00B3" unicode="&#xb3;" horiz-adv-x="806" 
d="M667 300q58 -64 58 -163q0 -137 -98 -211t-293 -74q-141 0 -264 39v90q126 -42 263 -42q290 0 290 205q0 189 -265 189h-143v88h76q147 0 222 48.5t75 144.5q0 84 -63 129.5t-183 45.5q-132 0 -243 -39v90q53 18 119 27t134 9q163 0 250.5 -66.5t87.5 -187.5
q0 -87 -50.5 -147.5t-139.5 -88.5q109 -22 167 -86z" />
    <glyph glyph-name="acute" unicode="&#xb4;" horiz-adv-x="1134" 
d="M509 1257l242 359h137l-263 -359h-116z" />
    <glyph glyph-name="uni00B5" unicode="&#xb5;" horiz-adv-x="1185" 
d="M1013 1083v-1083h-104l-9 123h-9q-71 -69 -162.5 -105t-192.5 -36q-176 0 -257 108v-530h-122v1523h122v-708q0 -150 69.5 -216t195.5 -66q94 0 187 39.5t160 117.5v833h122z" />
    <glyph glyph-name="paragraph" unicode="&#xb6;" horiz-adv-x="1278" 
d="M753 509q-79 -10 -168 -10q-251 0 -369.5 126.5t-118.5 373.5q0 254 116.5 375t347.5 121q151 0 294 -15v-1480h-102v509zM985 0v1480h102v-1480h-102z" />
    <glyph glyph-name="periodcentered" unicode="&#xb7;" horiz-adv-x="461" 
d="M163 492.5q-26 24.5 -26 65.5q0 42 26 67.5t68 25.5q41 0 67 -26t26 -67t-25.5 -65.5t-67.5 -24.5t-68 24.5z" />
    <glyph glyph-name="cedilla" unicode="&#xb8;" horiz-adv-x="1134" 
d="M729.5 -152q42.5 -39 42.5 -106q0 -72 -51.5 -111.5t-146.5 -39.5q-47 0 -94.5 9.5t-81.5 27.5v71q82 -41 174 -41q61 0 91 21t30 66t-30.5 66.5t-92.5 21.5h-38v187h77v-127q78 -6 120.5 -45z" />
    <glyph glyph-name="uni00B9" unicode="&#xb9;" horiz-adv-x="806" 
d="M499 -43h238v-93h-594v93h251v780l-251 -178v105l287 204h69v-911z" />
    <glyph glyph-name="ordmasculine" unicode="&#xba;" horiz-adv-x="996" 
d="M202 708q-108 113 -108 338q0 224 108 336t296 112t296 -112t108 -336t-108 -337.5t-296 -113.5t-296 113zM710.5 776q74.5 84 74.5 270t-74.5 268.5t-212.5 82.5q-137 0 -212 -82.5t-75 -268.5q0 -354 287 -354q138 0 212.5 84z" />
    <glyph glyph-name="guillemotright" unicode="&#xbb;" horiz-adv-x="1043" 
d="M88 138l289 424l-289 423h130l290 -423l-290 -424h-130zM496 138l289 424l-289 423h130l290 -423l-290 -424h-130z" />
    <glyph glyph-name="onequarter" unicode="&#xbc;" horiz-adv-x="1886" 
d="M499 709h238v-93h-594v93h251v780l-251 -178v105l287 204h69v-911zM476 -136l825 1752h109l-825 -1752h-109zM1862 192v-88h-148v-240h-97v240h-506v61l394 699h104l-377 -672h385l20 334h77v-334h148z" />
    <glyph glyph-name="onehalf" unicode="&#xbd;" horiz-adv-x="1886" 
d="M499 709h238v-93h-594v93h251v780l-251 -178v105l287 204h69v-911zM476 -136l825 1752h109l-825 -1752h-109zM1808 -43v-93h-636v59l315 374q85 100 120.5 167.5t35.5 132.5q0 97 -59 142.5t-180 45.5q-133 0 -244 -41v93q100 39 254 39q335 0 335 -268q0 -84 -39.5 -163
t-136.5 -192l-253 -296h488z" />
    <glyph glyph-name="threequarters" unicode="&#xbe;" horiz-adv-x="1886" 
d="M667 1052q58 -64 58 -163q0 -137 -98 -211t-293 -74q-141 0 -264 39v90q126 -42 263 -42q290 0 290 205q0 189 -265 189h-143v88h76q147 0 222 48.5t75 144.5q0 84 -63 129.5t-183 45.5q-132 0 -243 -39v90q53 18 119 27t134 9q163 0 250.5 -66.5t87.5 -187.5
q0 -87 -50.5 -147.5t-139.5 -88.5q109 -22 167 -86zM476 -136l825 1752h109l-825 -1752h-109zM1862 192v-88h-148v-240h-97v240h-506v61l394 699h104l-377 -672h385l20 334h77v-334h148z" />
    <glyph glyph-name="questiondown" unicode="&#xbf;" horiz-adv-x="929" 
d="M572 1070.5q26 -24.5 26 -64.5q0 -41 -25.5 -65.5t-67.5 -24.5q-41 0 -67 25t-26 65q0 39 25.5 64t67.5 25q41 0 67 -24.5zM566 334q-144 -45 -227 -96t-118.5 -115t-35.5 -152q0 -126 92 -195.5t264 -69.5q179 0 345 55v-107q-79 -26 -170 -40t-185 -14
q-148 0 -253.5 43.5t-160 125.5t-54.5 195q0 107 38 185.5t123 140.5t229 114l13 344h79z" />
    <glyph glyph-name="Agrave" unicode="&#xc0;" horiz-adv-x="1400" 
d="M1234 0l-193 499h-685l-193 -499h-126l578 1480h170l578 -1480h-129zM398 607h601l-300 777zM643 1611l-222 279h138l200 -279h-116z" />
    <glyph glyph-name="Aacute" unicode="&#xc1;" horiz-adv-x="1400" 
d="M1234 0l-193 499h-685l-193 -499h-126l578 1480h170l578 -1480h-129zM398 607h601l-300 777zM643 1611l200 279h138l-222 -279h-116z" />
    <glyph glyph-name="Acircumflex" unicode="&#xc2;" horiz-adv-x="1400" 
d="M1234 0l-193 499h-685l-193 -499h-126l578 1480h170l578 -1480h-129zM398 607h601l-300 777zM1025 1611h-121l-203 219l-203 -219h-121l265 279h118z" />
    <glyph glyph-name="Atilde" unicode="&#xc3;" horiz-adv-x="1400" 
d="M1234 0l-193 499h-685l-193 -499h-126l578 1480h170l578 -1480h-129zM398 607h601l-300 777zM778.5 1691q-37.5 10 -93.5 30q-47 18 -78.5 26.5t-64.5 8.5q-55 0 -96.5 -17t-79.5 -54v93q32 32 75 47.5t102 15.5q43 0 80.5 -10t93.5 -30q47 -18 78.5 -26.5t64.5 -8.5
q55 0 96.5 16.5t79.5 53.5v-93q-32 -32 -75 -47t-102 -15q-43 0 -80.5 10z" />
    <glyph glyph-name="Adieresis" unicode="&#xc4;" horiz-adv-x="1400" 
d="M1234 0l-193 499h-685l-193 -499h-126l578 1480h170l578 -1480h-129zM398 607h601l-300 777zM390 1693.5q-23 21.5 -23 58.5t23 59t63 22q39 0 62 -22t23 -59t-23 -58.5t-62 -21.5q-40 0 -63 21.5zM887 1693.5q-23 21.5 -23 58.5t23 59t62 22q40 0 63 -22t23 -59
t-23 -58.5t-63 -21.5q-39 0 -62 21.5z" />
    <glyph glyph-name="Aring" unicode="&#xc5;" horiz-adv-x="1400" 
d="M1041 499h-685l-193 -499h-126l576 1474q-47 23 -74 67.5t-27 101.5q0 54 25 97t68.5 67.5t97.5 24.5t97.5 -24.5t68.5 -67.5t25 -97q0 -58 -28.5 -103.5t-77.5 -68.5l575 -1471h-129zM615 1733.5q-34 -33.5 -34 -90.5t34 -91t88 -34t88 34t34 91t-34 90.5t-88 33.5
t-88 -33.5zM398 607h601l-300 777z" />
    <glyph glyph-name="AE" unicode="&#xc6;" horiz-adv-x="1913" 
d="M1096 108h727v-108h-842l-38 499h-582l-197 -499h-127l587 1480h1189v-108h-817l44 -558h674v-108h-665zM403 607h532l-59 765h-171z" />
    <glyph glyph-name="Ccedilla" unicode="&#xc7;" horiz-adv-x="1216" 
d="M395.5 1235.5q-145.5 -152.5 -145.5 -493.5q0 -239 67.5 -382.5t191 -205.5t302.5 -62q92 0 176 14t181 47v-111q-166 -60 -365 -60h-20v-88q87 -4 136 -42.5t49 -108.5q0 -75 -56.5 -113.5t-159.5 -38.5q-51 0 -103.5 10t-94.5 28v70q100 -41 194 -41q140 0 140 88
q0 87 -142 87h-40v153q-585 52 -585 752q0 388 182 574t517 186q94 0 178.5 -12t169.5 -36v-111q-165 49 -344 49q-283 0 -428.5 -152.5z" />
    <glyph glyph-name="Egrave" unicode="&#xc8;" horiz-adv-x="1230" 
d="M313 108h827v-108h-949v1480h939v-108h-817v-558h717v-108h-717v-598zM624 1611l-222 279h138l200 -279h-116z" />
    <glyph glyph-name="Eacute" unicode="&#xc9;" horiz-adv-x="1230" 
d="M313 108h827v-108h-949v1480h939v-108h-817v-558h717v-108h-717v-598zM624 1611l200 279h138l-222 -279h-116z" />
    <glyph glyph-name="Ecircumflex" unicode="&#xca;" horiz-adv-x="1230" 
d="M313 108h827v-108h-949v1480h939v-108h-817v-558h717v-108h-717v-598zM1006 1611h-121l-203 219l-203 -219h-121l265 279h118z" />
    <glyph glyph-name="Edieresis" unicode="&#xcb;" horiz-adv-x="1230" 
d="M313 108h827v-108h-949v1480h939v-108h-817v-558h717v-108h-717v-598zM371 1693.5q-23 21.5 -23 58.5t23 59t63 22q39 0 62 -22t23 -59t-23 -58.5t-62 -21.5q-40 0 -63 21.5zM868 1693.5q-23 21.5 -23 58.5t23 59t62 22q40 0 63 -22t23 -59t-23 -58.5t-63 -21.5
q-39 0 -62 21.5z" />
    <glyph glyph-name="Igrave" unicode="&#xcc;" horiz-adv-x="505" 
d="M191 0v1480h123v-1480h-123zM194 1611l-222 279h138l200 -279h-116z" />
    <glyph glyph-name="Iacute" unicode="&#xcd;" horiz-adv-x="505" 
d="M191 0v1480h123v-1480h-123zM194 1611l200 279h138l-222 -279h-116z" />
    <glyph glyph-name="Icircumflex" unicode="&#xce;" horiz-adv-x="505" 
d="M191 0v1480h123v-1480h-123zM576 1611h-121l-203 219l-203 -219h-121l265 279h118z" />
    <glyph glyph-name="Idieresis" unicode="&#xcf;" horiz-adv-x="505" 
d="M191 0v1480h123v-1480h-123zM-59 1693.5q-23 21.5 -23 58.5t23 59t63 22q39 0 62 -22t23 -59t-23 -58.5t-62 -21.5q-40 0 -63 21.5zM438 1693.5q-23 21.5 -23 58.5t23 59t62 22q40 0 63 -22t23 -59t-23 -58.5t-63 -21.5q-39 0 -62 21.5z" />
    <glyph glyph-name="Eth" unicode="&#xd0;" horiz-adv-x="1470" 
d="M1157 1307q192 -188 192 -567q0 -381 -196.5 -566t-590.5 -185q-95 0 -180.5 5.5t-190.5 18.5v703h-186v92h186v646q95 20 198.5 30.5t198.5 10.5q377 0 569 -188zM1063 253q158 155 158 487q0 331 -157 488.5t-475 157.5q-120 0 -275 -24v-554h377v-92h-377v-601
q109 -17 268 -17q323 0 481 155z" />
    <glyph glyph-name="Ntilde" unicode="&#xd1;" horiz-adv-x="1541" 
d="M1233 1480h118v-1480h-129l-914 1294v-1294h-117v1480h128l914 -1294v1294zM848.5 1691q-37.5 10 -93.5 30q-47 18 -78.5 26.5t-64.5 8.5q-55 0 -96.5 -17t-79.5 -54v93q32 32 75 47.5t102 15.5q43 0 80.5 -10t93.5 -30q47 -18 78.5 -26.5t64.5 -8.5q55 0 96.5 16.5
t79.5 53.5v-93q-32 -32 -75 -47t-102 -15q-43 0 -80.5 10z" />
    <glyph glyph-name="Ograve" unicode="&#xd2;" horiz-adv-x="1512" 
d="M420 62.5q-142 80.5 -220.5 249.5t-78.5 428t79 428t221.5 249.5t334.5 80.5q194 0 336 -80.5t220.5 -249.5t78.5 -428t-79 -428t-221.5 -249.5t-334.5 -80.5q-194 0 -336 80.5zM1129.5 245.5q133.5 153.5 133.5 489.5q0 653 -507 653q-240 0 -373.5 -153.5
t-133.5 -489.5q0 -653 507 -653q240 0 373.5 153.5zM698 1611l-222 279h138l200 -279h-116z" />
    <glyph glyph-name="Oacute" unicode="&#xd3;" horiz-adv-x="1512" 
d="M420 62.5q-142 80.5 -220.5 249.5t-78.5 428t79 428t221.5 249.5t334.5 80.5q194 0 336 -80.5t220.5 -249.5t78.5 -428t-79 -428t-221.5 -249.5t-334.5 -80.5q-194 0 -336 80.5zM1129.5 245.5q133.5 153.5 133.5 489.5q0 653 -507 653q-240 0 -373.5 -153.5
t-133.5 -489.5q0 -653 507 -653q240 0 373.5 153.5zM698 1611l200 279h138l-222 -279h-116z" />
    <glyph glyph-name="Ocircumflex" unicode="&#xd4;" horiz-adv-x="1512" 
d="M420 62.5q-142 80.5 -220.5 249.5t-78.5 428t79 428t221.5 249.5t334.5 80.5q194 0 336 -80.5t220.5 -249.5t78.5 -428t-79 -428t-221.5 -249.5t-334.5 -80.5q-194 0 -336 80.5zM1129.5 245.5q133.5 153.5 133.5 489.5q0 653 -507 653q-240 0 -373.5 -153.5
t-133.5 -489.5q0 -653 507 -653q240 0 373.5 153.5zM1080 1611h-121l-203 219l-203 -219h-121l265 279h118z" />
    <glyph glyph-name="Otilde" unicode="&#xd5;" horiz-adv-x="1512" 
d="M420 62.5q-142 80.5 -220.5 249.5t-78.5 428t79 428t221.5 249.5t334.5 80.5q194 0 336 -80.5t220.5 -249.5t78.5 -428t-79 -428t-221.5 -249.5t-334.5 -80.5q-194 0 -336 80.5zM1129.5 245.5q133.5 153.5 133.5 489.5q0 653 -507 653q-240 0 -373.5 -153.5
t-133.5 -489.5q0 -653 507 -653q240 0 373.5 153.5zM833.5 1691q-37.5 10 -93.5 30q-47 18 -78.5 26.5t-64.5 8.5q-55 0 -96.5 -17t-79.5 -54v93q32 32 75 47.5t102 15.5q43 0 80.5 -10t93.5 -30q47 -18 78.5 -26.5t64.5 -8.5q55 0 96.5 16.5t79.5 53.5v-93q-32 -32 -75 -47
t-102 -15q-43 0 -80.5 10z" />
    <glyph glyph-name="Odieresis" unicode="&#xd6;" horiz-adv-x="1512" 
d="M420 62.5q-142 80.5 -220.5 249.5t-78.5 428t79 428t221.5 249.5t334.5 80.5q194 0 336 -80.5t220.5 -249.5t78.5 -428t-79 -428t-221.5 -249.5t-334.5 -80.5q-194 0 -336 80.5zM1129.5 245.5q133.5 153.5 133.5 489.5q0 653 -507 653q-240 0 -373.5 -153.5
t-133.5 -489.5q0 -653 507 -653q240 0 373.5 153.5zM445 1693.5q-23 21.5 -23 58.5t23 59t63 22q39 0 62 -22t23 -59t-23 -58.5t-62 -21.5q-40 0 -63 21.5zM942 1693.5q-23 21.5 -23 58.5t23 59t62 22q40 0 63 -22t23 -59t-23 -58.5t-63 -21.5q-39 0 -62 21.5z" />
    <glyph glyph-name="multiply" unicode="&#xd7;" horiz-adv-x="1004" 
d="M204 391l-72 71l298 298l-298 298l72 71l298 -297l298 297l71 -71l-298 -298l298 -298l-71 -71l-298 297z" />
    <glyph glyph-name="Oslash" unicode="&#xd8;" horiz-adv-x="1512" 
d="M1391 740q0 -259 -79 -428t-221.5 -249.5t-334.5 -80.5q-270 0 -429 149l-122 -154l-68 53l131 165q-147 192 -147 545q0 259 79 428t221.5 249.5t334.5 80.5q270 0 429 -149l122 154l68 -53l-131 -165q147 -192 147 -545zM348 296l762 959q-126 133 -354 133
q-240 0 -373.5 -153.5t-133.5 -489.5q0 -287 99 -449zM1129.5 245.5q133.5 153.5 133.5 489.5q0 287 -99 449l-762 -959q126 -133 354 -133q240 0 373.5 153.5z" />
    <glyph glyph-name="Ugrave" unicode="&#xd9;" horiz-adv-x="1485" 
d="M427.5 43.5q-123.5 61.5 -184 190.5t-60.5 332v914h123v-929q0 -162 47 -263t143.5 -149t247.5 -48t247.5 48t143.5 149t47 263v929h120v-914q0 -204 -60 -332.5t-183 -190t-315 -61.5q-193 0 -316.5 61.5zM686 1611l-222 279h138l200 -279h-116z" />
    <glyph glyph-name="Uacute" unicode="&#xda;" horiz-adv-x="1485" 
d="M427.5 43.5q-123.5 61.5 -184 190.5t-60.5 332v914h123v-929q0 -162 47 -263t143.5 -149t247.5 -48t247.5 48t143.5 149t47 263v929h120v-914q0 -204 -60 -332.5t-183 -190t-315 -61.5q-193 0 -316.5 61.5zM686 1611l200 279h138l-222 -279h-116z" />
    <glyph glyph-name="Ucircumflex" unicode="&#xdb;" horiz-adv-x="1485" 
d="M427.5 43.5q-123.5 61.5 -184 190.5t-60.5 332v914h123v-929q0 -162 47 -263t143.5 -149t247.5 -48t247.5 48t143.5 149t47 263v929h120v-914q0 -204 -60 -332.5t-183 -190t-315 -61.5q-193 0 -316.5 61.5zM1068 1611h-121l-203 219l-203 -219h-121l265 279h118z" />
    <glyph glyph-name="Udieresis" unicode="&#xdc;" horiz-adv-x="1485" 
d="M427.5 43.5q-123.5 61.5 -184 190.5t-60.5 332v914h123v-929q0 -162 47 -263t143.5 -149t247.5 -48t247.5 48t143.5 149t47 263v929h120v-914q0 -204 -60 -332.5t-183 -190t-315 -61.5q-193 0 -316.5 61.5zM433 1693.5q-23 21.5 -23 58.5t23 59t63 22q39 0 62 -22t23 -59
t-23 -58.5t-62 -21.5q-40 0 -63 21.5zM930 1693.5q-23 21.5 -23 58.5t23 59t62 22q40 0 63 -22t23 -59t-23 -58.5t-63 -21.5q-39 0 -62 21.5z" />
    <glyph glyph-name="Yacute" unicode="&#xdd;" horiz-adv-x="1215" 
d="M1231 1480l-561 -813v-667h-124v666l-571 814h142l494 -703l487 703h133zM550 1611l200 279h138l-222 -279h-116z" />
    <glyph glyph-name="Thorn" unicode="&#xde;" horiz-adv-x="1288" 
d="M191 1481h123v-245q132 22 268 22q297 0 448 -121t151 -375q0 -246 -155 -373t-480 -127q-118 0 -232 11v-273h-123v1481zM840 410.5q112 43.5 164 130t52 219.5q0 203 -115.5 298t-352.5 95q-148 0 -274 -23v-748q101 -15 233 -15q181 0 293 43.5z" />
    <glyph glyph-name="germandbls" unicode="&#xdf;" horiz-adv-x="1427" 
d="M1278 480q68 -68 68 -188q0 -146 -109 -228.5t-322 -82.5q-169 0 -309 43v104q82 -24 156.5 -34t154.5 -10q162 0 235.5 51t73.5 149q0 81 -44 124t-152 64l-158 30q-149 29 -216.5 100.5t-67.5 187.5q0 92 46 160.5t142 107t239 38.5q45 0 82 -4q8 58 8 103
q0 180 -95.5 260.5t-259.5 80.5q-192 0 -289.5 -101t-97.5 -321v-1114h-122v976h-221v107h221v35q0 257 131 387.5t374 130.5q136 0 239 -47.5t162 -147.5t59 -253q0 -46 -7.5 -103t-19.5 -101q-82 13 -155 13q-167 0 -241.5 -54t-74.5 -147q0 -73 43.5 -120t145.5 -67
l158 -30q155 -31 223 -99z" />
    <glyph glyph-name="agrave" unicode="&#xe0;" horiz-adv-x="1072" 
d="M730.5 1063.5q90.5 -35.5 137.5 -118t47 -223.5v-722h-104l-9 127h-10q-57 -67 -148.5 -105.5t-194.5 -38.5q-105 0 -181 35t-116.5 100.5t-40.5 155.5q0 139 94 215.5t301 98.5l289 33v104q0 105 -34 164t-100.5 82.5t-171.5 23.5q-72 0 -153 -12.5t-158 -39.5v106
q68 24 154.5 37t168.5 13q139 0 229.5 -35.5zM646.5 119.5q83.5 36.5 148.5 110.5v300l-283 -32q-146 -17 -210.5 -68.5t-64.5 -145.5q0 -97 59 -149t176 -52q91 0 174.5 36.5zM475 1257l-263 359h137l242 -359h-116z" />
    <glyph glyph-name="aacute" unicode="&#xe1;" horiz-adv-x="1072" 
d="M730.5 1063.5q90.5 -35.5 137.5 -118t47 -223.5v-722h-104l-9 127h-10q-57 -67 -148.5 -105.5t-194.5 -38.5q-105 0 -181 35t-116.5 100.5t-40.5 155.5q0 139 94 215.5t301 98.5l289 33v104q0 105 -34 164t-100.5 82.5t-171.5 23.5q-72 0 -153 -12.5t-158 -39.5v106
q68 24 154.5 37t168.5 13q139 0 229.5 -35.5zM646.5 119.5q83.5 36.5 148.5 110.5v300l-283 -32q-146 -17 -210.5 -68.5t-64.5 -145.5q0 -97 59 -149t176 -52q91 0 174.5 36.5zM475 1257l242 359h137l-263 -359h-116z" />
    <glyph glyph-name="acircumflex" unicode="&#xe2;" horiz-adv-x="1072" 
d="M730.5 1063.5q90.5 -35.5 137.5 -118t47 -223.5v-722h-104l-9 127h-10q-57 -67 -148.5 -105.5t-194.5 -38.5q-105 0 -181 35t-116.5 100.5t-40.5 155.5q0 139 94 215.5t301 98.5l289 33v104q0 105 -34 164t-100.5 82.5t-171.5 23.5q-72 0 -153 -12.5t-158 -39.5v106
q68 24 154.5 37t168.5 13q139 0 229.5 -35.5zM646.5 119.5q83.5 36.5 148.5 110.5v300l-283 -32q-146 -17 -210.5 -68.5t-64.5 -145.5q0 -97 59 -149t176 -52q91 0 174.5 36.5zM833 1257h-108l-192 290l-192 -290h-108l242 359h116z" />
    <glyph glyph-name="atilde" unicode="&#xe3;" horiz-adv-x="1072" 
d="M730.5 1063.5q90.5 -35.5 137.5 -118t47 -223.5v-722h-104l-9 127h-10q-57 -67 -148.5 -105.5t-194.5 -38.5q-105 0 -181 35t-116.5 100.5t-40.5 155.5q0 139 94 215.5t301 98.5l289 33v104q0 105 -34 164t-100.5 82.5t-171.5 23.5q-72 0 -153 -12.5t-158 -39.5v106
q68 24 154.5 37t168.5 13q139 0 229.5 -35.5zM646.5 119.5q83.5 36.5 148.5 110.5v300l-283 -32q-146 -17 -210.5 -68.5t-64.5 -145.5q0 -97 59 -149t176 -52q91 0 174.5 36.5zM604 1370q-36 11 -88 32q-47 19 -75 27.5t-56 8.5q-50 0 -90 -18t-77 -56v97q62 64 168 64
q40 0 76 -11t88 -32q47 -19 74.5 -27.5t56.5 -8.5q50 0 90 18t77 56v-97q-62 -64 -168 -64q-40 0 -76 11z" />
    <glyph glyph-name="adieresis" unicode="&#xe4;" horiz-adv-x="1072" 
d="M730.5 1063.5q90.5 -35.5 137.5 -118t47 -223.5v-722h-104l-9 127h-10q-57 -67 -148.5 -105.5t-194.5 -38.5q-105 0 -181 35t-116.5 100.5t-40.5 155.5q0 139 94 215.5t301 98.5l289 33v104q0 105 -34 164t-100.5 82.5t-171.5 23.5q-72 0 -153 -12.5t-158 -39.5v106
q68 24 154.5 37t168.5 13q139 0 229.5 -35.5zM646.5 119.5q83.5 36.5 148.5 110.5v300l-283 -32q-146 -17 -210.5 -68.5t-64.5 -145.5q0 -97 59 -149t176 -52q91 0 174.5 36.5zM240.5 1360.5q-23.5 22.5 -23.5 60.5q0 39 23.5 62.5t62.5 23.5t62.5 -23.5t23.5 -62.5
q0 -38 -23.5 -60.5t-62.5 -22.5t-62.5 22.5zM700.5 1360.5q-23.5 22.5 -23.5 60.5q0 39 23.5 62.5t62.5 23.5t62.5 -23.5t23.5 -62.5q0 -38 -23.5 -60.5t-62.5 -22.5t-62.5 22.5z" />
    <glyph glyph-name="aring" unicode="&#xe5;" horiz-adv-x="1072" 
d="M730.5 1063.5q90.5 -35.5 137.5 -118t47 -223.5v-722h-104l-9 127h-10q-57 -67 -148.5 -105.5t-194.5 -38.5q-105 0 -181 35t-116.5 100.5t-40.5 155.5q0 139 94 215.5t301 98.5l289 33v104q0 105 -34 164t-100.5 82.5t-171.5 23.5q-72 0 -153 -12.5t-158 -39.5v106
q68 24 154.5 37t168.5 13q139 0 229.5 -35.5zM646.5 119.5q83.5 36.5 148.5 110.5v300l-283 -32q-146 -17 -210.5 -68.5t-64.5 -145.5q0 -97 59 -149t176 -52q91 0 174.5 36.5zM435.5 1277.5q-43.5 24.5 -68.5 67.5t-25 97t25 97.5t68.5 68t97.5 24.5t97.5 -24.5t68.5 -68
t25 -97.5t-25 -97t-68.5 -67.5t-97.5 -24.5t-97.5 24.5zM621 1351.5q34 33.5 34 90.5q0 58 -34 91.5t-88 33.5t-88 -33.5t-34 -91.5q0 -57 34 -90.5t88 -33.5t88 33.5z" />
    <glyph glyph-name="ae" unicode="&#xe6;" horiz-adv-x="1751" 
d="M1660 498h-745q7 -216 108 -314.5t296 -98.5q126 0 288 50v-105q-157 -49 -300 -49q-311 0 -432 203q-96 -110 -199.5 -155.5t-218.5 -45.5q-107 0 -185 35t-119.5 100.5t-41.5 156.5q0 146 102.5 230.5t321.5 84.5h260v135q0 105 -34.5 164t-100.5 82.5t-171 23.5
q-72 0 -152.5 -12.5t-158.5 -39.5v106q69 25 153.5 37.5t166.5 12.5q155 0 249 -48.5t130 -158.5q52 104 142.5 156t215.5 52q204 0 314.5 -140t110.5 -418v-44zM1000.5 905q-80.5 -99 -85.5 -315h626q-5 216 -83 315t-227 99q-150 0 -230.5 -99zM666.5 128
q92.5 45 167.5 146q-34 96 -38 225h-260q-299 0 -299 -215q0 -97 60 -149t178 -52q99 0 191.5 45z" />
    <glyph glyph-name="ccedilla" unicode="&#xe7;" horiz-adv-x="917" 
d="M417 946.5q-90 -45.5 -135 -144t-45 -257.5q0 -241 93 -348.5t280 -107.5q119 0 262 50v-108q-136 -50 -278 -50h-8v-88q78 -6 120.5 -45t42.5 -106q0 -72 -51.5 -111.5t-146.5 -39.5q-47 0 -94.5 9.5t-81.5 27.5v71q82 -41 174 -41q61 0 91 21t30 66t-30.5 66.5
t-92.5 21.5h-38v153q-399 47 -399 555q0 286 133.5 422t392.5 136q130 0 236 -31v-108q-113 32 -226 32q-139 0 -229 -45.5z" />
    <glyph glyph-name="egrave" unicode="&#xe8;" horiz-adv-x="1079" 
d="M988 498h-753q7 -217 108.5 -315t300.5 -98q126 0 290 50v-105q-160 -49 -303 -49q-257 0 -389 136.5t-132 424.5q0 276 117.5 416.5t329.5 140.5q209 0 320 -140t111 -419v-42zM321.5 905q-81.5 -99 -86.5 -315h634q-4 215 -83 314.5t-230 99.5q-153 0 -234.5 -99z
M501 1257l-263 359h137l242 -359h-116z" />
    <glyph glyph-name="eacute" unicode="&#xe9;" horiz-adv-x="1079" 
d="M988 498h-753q7 -217 108.5 -315t300.5 -98q126 0 290 50v-105q-160 -49 -303 -49q-257 0 -389 136.5t-132 424.5q0 276 117.5 416.5t329.5 140.5q209 0 320 -140t111 -419v-42zM321.5 905q-81.5 -99 -86.5 -315h634q-4 215 -83 314.5t-230 99.5q-153 0 -234.5 -99z
M501 1257l242 359h137l-263 -359h-116z" />
    <glyph glyph-name="ecircumflex" unicode="&#xea;" horiz-adv-x="1079" 
d="M988 498h-753q7 -217 108.5 -315t300.5 -98q126 0 290 50v-105q-160 -49 -303 -49q-257 0 -389 136.5t-132 424.5q0 276 117.5 416.5t329.5 140.5q209 0 320 -140t111 -419v-42zM321.5 905q-81.5 -99 -86.5 -315h634q-4 215 -83 314.5t-230 99.5q-153 0 -234.5 -99z
M859 1257h-108l-192 290l-192 -290h-108l242 359h116z" />
    <glyph glyph-name="edieresis" unicode="&#xeb;" horiz-adv-x="1079" 
d="M988 498h-753q7 -217 108.5 -315t300.5 -98q126 0 290 50v-105q-160 -49 -303 -49q-257 0 -389 136.5t-132 424.5q0 276 117.5 416.5t329.5 140.5q209 0 320 -140t111 -419v-42zM321.5 905q-81.5 -99 -86.5 -315h634q-4 215 -83 314.5t-230 99.5q-153 0 -234.5 -99z
M266.5 1360.5q-23.5 22.5 -23.5 60.5q0 39 23.5 62.5t62.5 23.5t62.5 -23.5t23.5 -62.5q0 -38 -23.5 -60.5t-62.5 -22.5t-62.5 22.5zM726.5 1360.5q-23.5 22.5 -23.5 60.5q0 39 23.5 62.5t62.5 23.5t62.5 -23.5t23.5 -62.5q0 -38 -23.5 -60.5t-62.5 -22.5t-62.5 22.5z" />
    <glyph glyph-name="igrave" unicode="&#xec;" horiz-adv-x="466" 
d="M172 0v1083h122v-1083h-122zM175 1257l-263 359h137l242 -359h-116z" />
    <glyph glyph-name="iacute" unicode="&#xed;" horiz-adv-x="466" 
d="M172 0v1083h122v-1083h-122zM175 1257l242 359h137l-263 -359h-116z" />
    <glyph glyph-name="icircumflex" unicode="&#xee;" horiz-adv-x="466" 
d="M172 0v1083h122v-1083h-122zM533 1257h-108l-192 290l-192 -290h-108l242 359h116z" />
    <glyph glyph-name="idieresis" unicode="&#xef;" horiz-adv-x="466" 
d="M172 0v1083h122v-1083h-122zM-59.5 1360.5q-23.5 22.5 -23.5 60.5q0 39 23.5 62.5t62.5 23.5t62.5 -23.5t23.5 -62.5q0 -38 -23.5 -60.5t-62.5 -22.5t-62.5 22.5zM400.5 1360.5q-23.5 22.5 -23.5 60.5q0 39 23.5 62.5t62.5 23.5t62.5 -23.5t23.5 -62.5q0 -38 -23.5 -60.5
t-62.5 -22.5t-62.5 22.5z" />
    <glyph glyph-name="eth" unicode="&#xf0;" horiz-adv-x="1162" 
d="M984 962.5q67 -193.5 67 -384.5q0 -301 -124.5 -449t-343.5 -148q-224 0 -348.5 137.5t-124.5 422.5q0 189 57.5 313.5t161.5 184t246 59.5q170 0 274 -96q-64 161 -169 300l-457 -74l-14 83l410 67q-117 131 -268 238h158q127 -89 233 -218l271 44l14 -83l-227 -37
q117 -166 184 -359.5zM837 194.5q90 109.5 90 343.5q0 243 -89.5 350t-256.5 107t-256.5 -106t-89.5 -346q0 -244 89.5 -351t258.5 -107q164 0 254 109.5z" />
    <glyph glyph-name="ntilde" unicode="&#xf1;" horiz-adv-x="1195" 
d="M172 1083h104l9 -128h10q74 70 170.5 107t202.5 37q174 0 271.5 -93.5t97.5 -298.5v-707h-122v704q0 151 -69 217.5t-200 66.5q-95 0 -189.5 -38t-162.5 -118v-832h-122v1083zM677 1370q-36 11 -88 32q-47 19 -75 27.5t-56 8.5q-50 0 -90 -18t-77 -56v97q62 64 168 64
q40 0 76 -11t88 -32q47 -19 74.5 -27.5t56.5 -8.5q50 0 90 18t77 56v-97q-62 -64 -168 -64q-40 0 -76 11z" />
    <glyph glyph-name="ograve" unicode="&#xf2;" horiz-adv-x="1162" 
d="M234.5 118.5q-124.5 137.5 -124.5 422.5q0 282 125 420t346 138q223 0 347 -136.5t124 -421.5q0 -282 -125.5 -421t-345.5 -139q-222 0 -346.5 137.5zM837.5 192q89.5 107 89.5 347q0 243 -89.5 350t-256.5 107t-256.5 -106t-89.5 -347q0 -243 89.5 -350.5t256.5 -107.5
t256.5 107zM523 1257l-263 359h137l242 -359h-116z" />
    <glyph glyph-name="oacute" unicode="&#xf3;" horiz-adv-x="1162" 
d="M234.5 118.5q-124.5 137.5 -124.5 422.5q0 282 125 420t346 138q223 0 347 -136.5t124 -421.5q0 -282 -125.5 -421t-345.5 -139q-222 0 -346.5 137.5zM837.5 192q89.5 107 89.5 347q0 243 -89.5 350t-256.5 107t-256.5 -106t-89.5 -347q0 -243 89.5 -350.5t256.5 -107.5
t256.5 107zM523 1257l242 359h137l-263 -359h-116z" />
    <glyph glyph-name="ocircumflex" unicode="&#xf4;" horiz-adv-x="1162" 
d="M234.5 118.5q-124.5 137.5 -124.5 422.5q0 282 125 420t346 138q223 0 347 -136.5t124 -421.5q0 -282 -125.5 -421t-345.5 -139q-222 0 -346.5 137.5zM837.5 192q89.5 107 89.5 347q0 243 -89.5 350t-256.5 107t-256.5 -106t-89.5 -347q0 -243 89.5 -350.5t256.5 -107.5
t256.5 107zM881 1257h-108l-192 290l-192 -290h-108l242 359h116z" />
    <glyph glyph-name="otilde" unicode="&#xf5;" horiz-adv-x="1162" 
d="M234.5 118.5q-124.5 137.5 -124.5 422.5q0 282 125 420t346 138q223 0 347 -136.5t124 -421.5q0 -282 -125.5 -421t-345.5 -139q-222 0 -346.5 137.5zM837.5 192q89.5 107 89.5 347q0 243 -89.5 350t-256.5 107t-256.5 -106t-89.5 -347q0 -243 89.5 -350.5t256.5 -107.5
t256.5 107zM652 1370q-36 11 -88 32q-47 19 -75 27.5t-56 8.5q-50 0 -90 -18t-77 -56v97q62 64 168 64q40 0 76 -11t88 -32q47 -19 74.5 -27.5t56.5 -8.5q50 0 90 18t77 56v-97q-62 -64 -168 -64q-40 0 -76 11z" />
    <glyph glyph-name="odieresis" unicode="&#xf6;" horiz-adv-x="1162" 
d="M234.5 118.5q-124.5 137.5 -124.5 422.5q0 282 125 420t346 138q223 0 347 -136.5t124 -421.5q0 -282 -125.5 -421t-345.5 -139q-222 0 -346.5 137.5zM837.5 192q89.5 107 89.5 347q0 243 -89.5 350t-256.5 107t-256.5 -106t-89.5 -347q0 -243 89.5 -350.5t256.5 -107.5
t256.5 107zM288.5 1360.5q-23.5 22.5 -23.5 60.5q0 39 23.5 62.5t62.5 23.5t62.5 -23.5t23.5 -62.5q0 -38 -23.5 -60.5t-62.5 -22.5t-62.5 22.5zM748.5 1360.5q-23.5 22.5 -23.5 60.5q0 39 23.5 62.5t62.5 23.5t62.5 -23.5t23.5 -62.5q0 -38 -23.5 -60.5t-62.5 -22.5
t-62.5 22.5z" />
    <glyph glyph-name="divide" unicode="&#xf7;" horiz-adv-x="1093" 
d="M482 1041q-25 24 -25 63q0 40 24.5 64t64.5 24t64.5 -24t24.5 -64t-24.5 -63.5t-64.5 -23.5q-39 0 -64 24zM168 709v102h757v-102h-757zM481.5 351.5q-24.5 23.5 -24.5 62.5q0 40 24.5 64.5t64.5 24.5t64.5 -24.5t24.5 -64.5q0 -39 -24.5 -62.5t-64.5 -23.5t-64.5 23.5z
" />
    <glyph glyph-name="oslash" unicode="&#xf8;" horiz-adv-x="1162" 
d="M1052 541q0 -282 -125.5 -421t-345.5 -139q-185 0 -299 92l-73 -98l-67 51l80 107q-112 142 -112 408q0 282 125 420t346 138q185 0 297 -89l74 98l67 -51l-80 -107q113 -143 113 -409zM323 890.5q-90 -106.5 -90 -347.5q0 -201 65 -314l515 689q-83 79 -232 79
q-168 0 -258 -106.5zM839 191q90 107 90 348q0 204 -66 315l-516 -689q84 -81 234 -81q168 0 258 107z" />
    <glyph glyph-name="ugrave" unicode="&#xf9;" horiz-adv-x="1185" 
d="M254 74.5q-97 92.5 -97 294.5v714h122v-708q0 -150 69.5 -216t195.5 -66q94 0 187 39.5t160 117.5v833h122v-1083h-104l-9 123h-9q-74 -69 -169 -105t-200 -36q-171 0 -268 92.5zM527 1257l-263 359h137l242 -359h-116z" />
    <glyph glyph-name="uacute" unicode="&#xfa;" horiz-adv-x="1185" 
d="M254 74.5q-97 92.5 -97 294.5v714h122v-708q0 -150 69.5 -216t195.5 -66q94 0 187 39.5t160 117.5v833h122v-1083h-104l-9 123h-9q-74 -69 -169 -105t-200 -36q-171 0 -268 92.5zM527 1257l242 359h137l-263 -359h-116z" />
    <glyph glyph-name="ucircumflex" unicode="&#xfb;" horiz-adv-x="1185" 
d="M254 74.5q-97 92.5 -97 294.5v714h122v-708q0 -150 69.5 -216t195.5 -66q94 0 187 39.5t160 117.5v833h122v-1083h-104l-9 123h-9q-74 -69 -169 -105t-200 -36q-171 0 -268 92.5zM885 1257h-108l-192 290l-192 -290h-108l242 359h116z" />
    <glyph glyph-name="udieresis" unicode="&#xfc;" horiz-adv-x="1185" 
d="M254 74.5q-97 92.5 -97 294.5v714h122v-708q0 -150 69.5 -216t195.5 -66q94 0 187 39.5t160 117.5v833h122v-1083h-104l-9 123h-9q-74 -69 -169 -105t-200 -36q-171 0 -268 92.5zM292.5 1360.5q-23.5 22.5 -23.5 60.5q0 39 23.5 62.5t62.5 23.5t62.5 -23.5t23.5 -62.5
q0 -38 -23.5 -60.5t-62.5 -22.5t-62.5 22.5zM752.5 1360.5q-23.5 22.5 -23.5 60.5q0 39 23.5 62.5t62.5 23.5t62.5 -23.5t23.5 -62.5q0 -38 -23.5 -60.5t-62.5 -22.5t-62.5 22.5z" />
    <glyph glyph-name="yacute" unicode="&#xfd;" horiz-adv-x="1100" 
d="M950 1083h124l-625 -1523h-124l181 440h-36l-444 1083h131l393 -986zM493 1257l242 359h137l-263 -359h-116z" />
    <glyph glyph-name="thorn" unicode="&#xfe;" 
d="M172 1616h122v-656h8q59 66 143.5 102.5t186.5 36.5q129 0 228 -55t156.5 -174.5t57.5 -307.5q0 -580 -566 -580q-92 0 -214 18v-440h-122v2056zM840.5 198q107.5 112 107.5 352q0 237 -91.5 339t-253.5 102q-90 0 -171.5 -37t-137.5 -113v-730q44 -12 102 -18.5
t116 -6.5q221 0 328.5 112z" />
    <glyph glyph-name="ydieresis" unicode="&#xff;" horiz-adv-x="1100" 
d="M950 1083h124l-625 -1523h-124l181 440h-36l-444 1083h131l393 -986zM258.5 1360.5q-23.5 22.5 -23.5 60.5q0 39 23.5 62.5t62.5 23.5t62.5 -23.5t23.5 -62.5q0 -38 -23.5 -60.5t-62.5 -22.5t-62.5 22.5zM718.5 1360.5q-23.5 22.5 -23.5 60.5q0 39 23.5 62.5t62.5 23.5
t62.5 -23.5t23.5 -62.5q0 -38 -23.5 -60.5t-62.5 -22.5t-62.5 22.5z" />
    <glyph glyph-name="Amacron" unicode="&#x100;" horiz-adv-x="1400" 
d="M1234 0l-193 499h-685l-193 -499h-126l578 1480h170l578 -1480h-129zM398 607h601l-300 777zM395 1707v88h612v-88h-612z" />
    <glyph glyph-name="amacron" unicode="&#x101;" horiz-adv-x="1072" 
d="M730.5 1063.5q90.5 -35.5 137.5 -118t47 -223.5v-722h-104l-9 127h-10q-57 -67 -148.5 -105.5t-194.5 -38.5q-105 0 -181 35t-116.5 100.5t-40.5 155.5q0 139 94 215.5t301 98.5l289 33v104q0 105 -34 164t-100.5 82.5t-171.5 23.5q-72 0 -153 -12.5t-158 -39.5v106
q68 24 154.5 37t168.5 13q139 0 229.5 -35.5zM646.5 119.5q83.5 36.5 148.5 110.5v300l-283 -32q-146 -17 -210.5 -68.5t-64.5 -145.5q0 -97 59 -149t176 -52q91 0 174.5 36.5zM218 1379v88h630v-88h-630z" />
    <glyph glyph-name="Abreve" unicode="&#x102;" horiz-adv-x="1400" 
d="M1234 0l-193 499h-685l-193 -499h-126l578 1480h170l578 -1480h-129zM398 607h601l-300 777zM471 1688q-82 66 -94 178h89q13 -81 67.5 -122.5t169.5 -41.5q114 0 167.5 41.5t65.5 122.5h89q-12 -113 -92 -178.5t-230 -65.5t-232 66z" />
    <glyph glyph-name="abreve" unicode="&#x103;" horiz-adv-x="1072" 
d="M730.5 1063.5q90.5 -35.5 137.5 -118t47 -223.5v-722h-104l-9 127h-10q-57 -67 -148.5 -105.5t-194.5 -38.5q-105 0 -181 35t-116.5 100.5t-40.5 155.5q0 139 94 215.5t301 98.5l289 33v104q0 105 -34 164t-100.5 82.5t-171.5 23.5q-72 0 -153 -12.5t-158 -39.5v106
q68 24 154.5 37t168.5 13q139 0 229.5 -35.5zM646.5 119.5q83.5 36.5 148.5 110.5v300l-283 -32q-146 -17 -210.5 -68.5t-64.5 -145.5q0 -97 59 -149t176 -52q91 0 174.5 36.5zM315 1354.5q-79 85.5 -86 234.5h88q16 -240 218 -240q104 0 155.5 62t58.5 178h88
q-7 -150 -84.5 -235t-217.5 -85q-141 0 -220 85.5z" />
    <glyph glyph-name="Aogonek" unicode="&#x104;" horiz-adv-x="1400" 
d="M1383 -331.5q40 9.5 96 29.5v-69q-90 -38 -182 -38q-112 0 -171 46.5t-59 131.5q0 69 38.5 126.5t126.5 109.5l-191 494h-685l-193 -499h-126l578 1480h170l578 -1480q-119 -56 -166 -109t-47 -116q0 -56 39.5 -86t114.5 -30q39 0 79 9.5zM398 607h601l-300 777z" />
    <glyph glyph-name="aogonek" unicode="&#x105;" horiz-adv-x="1072" 
d="M1013 -298v-71q-36 -19 -79.5 -29.5t-84.5 -10.5q-99 0 -154.5 47.5t-55.5 130.5q0 73 41 133t130 114l-8 111h-10q-57 -67 -148.5 -105.5t-194.5 -38.5q-105 0 -181 35t-116.5 100.5t-40.5 155.5q0 139 94 215.5t301 98.5l289 33v104q0 105 -34 164t-100.5 82.5
t-171.5 23.5q-72 0 -153 -12.5t-158 -39.5v106q68 24 154.5 37t168.5 13q139 0 229.5 -35.5t137.5 -118t47 -223.5v-722q-104 -55 -148.5 -107.5t-44.5 -117.5q0 -54 35.5 -85t98.5 -31q77 0 157 43zM646.5 119.5q83.5 36.5 148.5 110.5v300l-283 -32q-146 -17 -210.5 -68.5
t-64.5 -145.5q0 -97 59 -149t176 -52q91 0 174.5 36.5z" />
    <glyph glyph-name="Cacute" unicode="&#x106;" horiz-adv-x="1216" 
d="M121 738q0 388 182 574t517 186q94 0 178.5 -12t169.5 -36v-111q-165 49 -344 49q-283 0 -428.5 -152.5t-145.5 -493.5q0 -239 67.5 -382.5t191 -205.5t302.5 -62q92 0 176 14t181 47v-111q-166 -60 -365 -60q-682 0 -682 756zM676 1611l200 279h138l-222 -279h-116z" />
    <glyph glyph-name="cacute" unicode="&#x107;" horiz-adv-x="917" 
d="M110 541q0 286 133.5 422t392.5 136q130 0 236 -31v-108q-113 32 -226 32q-139 0 -229 -45.5t-135 -144t-45 -257.5q0 -241 93 -348.5t280 -107.5q119 0 262 50v-108q-136 -50 -278 -50q-484 0 -484 560zM487 1257l242 359h137l-263 -359h-116z" />
    <glyph glyph-name="Ccircumflex" unicode="&#x108;" horiz-adv-x="1216" 
d="M121 738q0 388 182 574t517 186q94 0 178.5 -12t169.5 -36v-111q-165 49 -344 49q-283 0 -428.5 -152.5t-145.5 -493.5q0 -239 67.5 -382.5t191 -205.5t302.5 -62q92 0 176 14t181 47v-111q-166 -60 -365 -60q-682 0 -682 756zM1058 1611h-121l-203 219l-203 -219h-121
l265 279h118z" />
    <glyph glyph-name="ccircumflex" unicode="&#x109;" horiz-adv-x="917" 
d="M110 541q0 286 133.5 422t392.5 136q130 0 236 -31v-108q-113 32 -226 32q-139 0 -229 -45.5t-135 -144t-45 -257.5q0 -241 93 -348.5t280 -107.5q119 0 262 50v-108q-136 -50 -278 -50q-484 0 -484 560zM845 1257h-108l-192 290l-192 -290h-108l242 359h116z" />
    <glyph glyph-name="Cdotaccent" unicode="&#x10a;" horiz-adv-x="1216" 
d="M121 738q0 388 182 574t517 186q94 0 178.5 -12t169.5 -36v-111q-165 49 -344 49q-283 0 -428.5 -152.5t-145.5 -493.5q0 -239 67.5 -382.5t191 -205.5t302.5 -62q92 0 176 14t181 47v-111q-166 -60 -365 -60q-682 0 -682 756zM667.5 1693.5q-24.5 21.5 -24.5 58.5
t24.5 59t66.5 22t66.5 -22t24.5 -59t-24.5 -58.5t-66.5 -21.5t-66.5 21.5z" />
    <glyph glyph-name="cdotaccent" unicode="&#x10b;" horiz-adv-x="917" 
d="M110 541q0 286 133.5 422t392.5 136q130 0 236 -31v-108q-113 32 -226 32q-139 0 -229 -45.5t-135 -144t-45 -257.5q0 -241 93 -348.5t280 -107.5q119 0 262 50v-108q-136 -50 -278 -50q-484 0 -484 560zM478 1359.5q-24 22.5 -24 61.5q0 40 24.5 63.5t66.5 23.5
t66.5 -23.5t24.5 -63.5q0 -39 -24 -61.5t-67 -22.5t-67 22.5z" />
    <glyph glyph-name="Ccaron" unicode="&#x10c;" horiz-adv-x="1216" 
d="M121 738q0 388 182 574t517 186q94 0 178.5 -12t169.5 -36v-111q-165 49 -344 49q-283 0 -428.5 -152.5t-145.5 -493.5q0 -239 67.5 -382.5t191 -205.5t302.5 -62q92 0 176 14t181 47v-111q-166 -60 -365 -60q-682 0 -682 756zM937 1890h121l-265 -279h-118l-265 279h121
l203 -219z" />
    <glyph glyph-name="ccaron" unicode="&#x10d;" horiz-adv-x="917" 
d="M110 541q0 286 133.5 422t392.5 136q130 0 236 -31v-108q-113 32 -226 32q-139 0 -229 -45.5t-135 -144t-45 -257.5q0 -241 93 -348.5t280 -107.5q119 0 262 50v-108q-136 -50 -278 -50q-484 0 -484 560zM742 1616h109l-248 -359h-116l-248 359h109l197 -291z" />
    <glyph glyph-name="Dcaron" unicode="&#x10e;" horiz-adv-x="1470" 
d="M381.5 -5.5q-85.5 5.5 -190.5 18.5v1441q95 20 198.5 30.5t198.5 10.5q377 0 569 -188t192 -567q0 -381 -196.5 -566t-590.5 -185q-95 0 -180.5 5.5zM1063 253q158 155 158 487q0 331 -157 488.5t-475 157.5q-120 0 -275 -24v-1247q109 -17 268 -17q323 0 481 155z
M875 1890h121l-265 -279h-118l-265 279h121l203 -219z" />
    <glyph glyph-name="dcaron" unicode="&#x10f;" 
d="M326 38q-101 56 -158.5 176t-57.5 305q0 580 565 580q99 0 215 -19v536h122v-1616h-105l-9 125h-10q-57 -67 -141.5 -105t-186.5 -38q-133 0 -234 56zM754 127q80 37 136 115v728q-45 12 -102.5 18.5t-115.5 6.5q-222 0 -329.5 -112t-107.5 -352q0 -236 91 -338.5
t258 -102.5q90 0 170 37zM1137 1616h96q0 -110 -10.5 -224.5t-32.5 -211.5h-73q20 167 20 436z" />
    <glyph glyph-name="Dcroat" unicode="&#x110;" horiz-adv-x="1470" 
d="M1157 1307q192 -188 192 -567q0 -381 -196.5 -566t-590.5 -185q-95 0 -180.5 5.5t-190.5 18.5v703h-186v92h186v646q95 20 198.5 30.5t198.5 10.5q377 0 569 -188zM1063 253q158 155 158 487q0 331 -157 488.5t-475 157.5q-120 0 -275 -24v-554h377v-92h-377v-601
q109 -17 268 -17q323 0 481 155z" />
    <glyph glyph-name="dcroat" unicode="&#x111;" 
d="M1172 1310h-160v-1310h-105l-9 125h-10q-57 -67 -141.5 -105t-186.5 -38q-133 0 -234 56t-158.5 176t-57.5 305q0 580 565 580q99 0 215 -19v230h-390v90h390v216h122v-216h160v-90zM890 970q-45 12 -102.5 18.5t-115.5 6.5q-222 0 -329.5 -112t-107.5 -352
q0 -236 91 -338.5t258 -102.5q90 0 170 37t136 115v728z" />
    <glyph glyph-name="Emacron" unicode="&#x112;" horiz-adv-x="1230" 
d="M313 108h827v-108h-949v1480h939v-108h-817v-558h717v-108h-717v-598zM376 1707v88h612v-88h-612z" />
    <glyph glyph-name="emacron" unicode="&#x113;" horiz-adv-x="1079" 
d="M988 498h-753q7 -217 108.5 -315t300.5 -98q126 0 290 50v-105q-160 -49 -303 -49q-257 0 -389 136.5t-132 424.5q0 276 117.5 416.5t329.5 140.5q209 0 320 -140t111 -419v-42zM321.5 905q-81.5 -99 -86.5 -315h634q-4 215 -83 314.5t-230 99.5q-153 0 -234.5 -99z
M244 1379v88h630v-88h-630z" />
    <glyph glyph-name="Ebreve" unicode="&#x114;" horiz-adv-x="1230" 
d="M313 108h827v-108h-949v1480h939v-108h-817v-558h717v-108h-717v-598zM452 1688q-82 66 -94 178h89q13 -81 67.5 -122.5t169.5 -41.5q114 0 167.5 41.5t65.5 122.5h89q-12 -113 -92 -178.5t-230 -65.5t-232 66z" />
    <glyph glyph-name="ebreve" unicode="&#x115;" horiz-adv-x="1079" 
d="M988 498h-753q7 -217 108.5 -315t300.5 -98q126 0 290 50v-105q-160 -49 -303 -49q-257 0 -389 136.5t-132 424.5q0 276 117.5 416.5t329.5 140.5q209 0 320 -140t111 -419v-42zM321.5 905q-81.5 -99 -86.5 -315h634q-4 215 -83 314.5t-230 99.5q-153 0 -234.5 -99z
M341 1354.5q-79 85.5 -86 234.5h88q16 -240 218 -240q104 0 155.5 62t58.5 178h88q-7 -150 -84.5 -235t-217.5 -85q-141 0 -220 85.5z" />
    <glyph glyph-name="Edotaccent" unicode="&#x116;" horiz-adv-x="1230" 
d="M313 108h827v-108h-949v1480h939v-108h-817v-558h717v-108h-717v-598zM615.5 1693.5q-24.5 21.5 -24.5 58.5t24.5 59t66.5 22t66.5 -22t24.5 -59t-24.5 -58.5t-66.5 -21.5t-66.5 21.5z" />
    <glyph glyph-name="edotaccent" unicode="&#x117;" horiz-adv-x="1079" 
d="M988 498h-753q7 -217 108.5 -315t300.5 -98q126 0 290 50v-105q-160 -49 -303 -49q-257 0 -389 136.5t-132 424.5q0 276 117.5 416.5t329.5 140.5q209 0 320 -140t111 -419v-42zM321.5 905q-81.5 -99 -86.5 -315h634q-4 215 -83 314.5t-230 99.5q-153 0 -234.5 -99z
M492 1359.5q-24 22.5 -24 61.5q0 40 24.5 63.5t66.5 23.5t66.5 -23.5t24.5 -63.5q0 -39 -24 -61.5t-67 -22.5t-67 22.5z" />
    <glyph glyph-name="Eogonek" unicode="&#x118;" horiz-adv-x="1230" 
d="M1078 -331.5q40 9.5 96 29.5v-69q-90 -38 -182 -38q-112 0 -171 46.5t-59 131.5q0 67 36.5 123.5t119.5 107.5h-727v1480h939v-108h-817v-558h717v-108h-717v-598h827v-108h-82q-119 -56 -166 -109t-47 -116q0 -56 39.5 -86t114.5 -30q39 0 79 9.5z" />
    <glyph glyph-name="eogonek" unicode="&#x119;" horiz-adv-x="1079" 
d="M988 498h-753q7 -217 108.5 -315t300.5 -98q126 0 290 50v-105q-290 -92 -290 -254q0 -55 35.5 -86t97.5 -31q77 0 157 43v-71q-35 -19 -78.5 -29.5t-84.5 -10.5q-99 0 -154.5 47.5t-55.5 130.5q0 64 32 119t94 95q-38 -2 -56 -2q-257 0 -389 136.5t-132 424.5
q0 276 117.5 416.5t329.5 140.5q209 0 320 -140t111 -419v-42zM321 903q-82 -99 -86 -315h634q-4 216 -83 315t-230 99q-153 0 -235 -99z" />
    <glyph glyph-name="Ecaron" unicode="&#x11a;" horiz-adv-x="1230" 
d="M313 108h827v-108h-949v1480h939v-108h-817v-558h717v-108h-717v-598zM885 1890h121l-265 -279h-118l-265 279h121l203 -219z" />
    <glyph glyph-name="ecaron" unicode="&#x11b;" horiz-adv-x="1079" 
d="M988 498h-753q7 -217 108.5 -315t300.5 -98q126 0 290 50v-105q-160 -49 -303 -49q-257 0 -389 136.5t-132 424.5q0 276 117.5 416.5t329.5 140.5q209 0 320 -140t111 -419v-42zM321.5 905q-81.5 -99 -86.5 -315h634q-4 215 -83 314.5t-230 99.5q-153 0 -234.5 -99z
M756 1616h109l-248 -359h-116l-248 359h109l197 -291z" />
    <glyph glyph-name="Gcircumflex" unicode="&#x11c;" horiz-adv-x="1426" 
d="M1250 720v-702q-102 -16 -183.5 -23t-170.5 -7q-384 0 -579 185t-196 565q-1 260 90.5 429.5t256 250t387.5 80.5q91 0 177 -12t181 -36v-111q-99 27 -182.5 38t-167.5 11q-290 0 -451.5 -154.5t-161.5 -491.5q0 -330 159.5 -487t481.5 -157q131 0 241 16v606h118z
M1099 1611h-121l-203 219l-203 -219h-121l265 279h118z" />
    <glyph glyph-name="gcircumflex" unicode="&#x11d;" 
d="M344 -446q-90 14 -164 39v107q172 -55 328 -55q133 0 216.5 36.5t124.5 118t41 218.5v103h-8q-59 -64 -144 -100.5t-189 -36.5q-127 0 -225.5 55t-156 174.5t-57.5 306.5q0 290 141 434.5t419 144.5q180 0 342 -49v-1015q0 -175 -55.5 -284.5t-165.5 -160t-278 -50.5
q-79 0 -169 14zM750.5 127.5q81.5 35.5 139.5 107.5v733q-101 27 -231 27q-212 0 -318 -112t-106 -351q0 -237 91.5 -338.5t252.5 -101.5q90 0 171.5 35.5zM910 1257h-108l-192 290l-192 -290h-108l242 359h116z" />
    <glyph glyph-name="Gbreve" unicode="&#x11e;" horiz-adv-x="1426" 
d="M1250 720v-702q-102 -16 -183.5 -23t-170.5 -7q-384 0 -579 185t-196 565q-1 260 90.5 429.5t256 250t387.5 80.5q91 0 177 -12t181 -36v-111q-99 27 -182.5 38t-167.5 11q-290 0 -451.5 -154.5t-161.5 -491.5q0 -330 159.5 -487t481.5 -157q131 0 241 16v606h118z
M545 1688q-82 66 -94 178h89q13 -81 67.5 -122.5t169.5 -41.5q114 0 167.5 41.5t65.5 122.5h89q-12 -113 -92 -178.5t-230 -65.5t-232 66z" />
    <glyph glyph-name="gbreve" unicode="&#x11f;" 
d="M344 -446q-90 14 -164 39v107q172 -55 328 -55q133 0 216.5 36.5t124.5 118t41 218.5v103h-8q-59 -64 -144 -100.5t-189 -36.5q-127 0 -225.5 55t-156 174.5t-57.5 306.5q0 290 141 434.5t419 144.5q180 0 342 -49v-1015q0 -175 -55.5 -284.5t-165.5 -160t-278 -50.5
q-79 0 -169 14zM750.5 127.5q81.5 35.5 139.5 107.5v733q-101 27 -231 27q-212 0 -318 -112t-106 -351q0 -237 91.5 -338.5t252.5 -101.5q90 0 171.5 35.5zM392 1354.5q-79 85.5 -86 234.5h88q16 -240 218 -240q104 0 155.5 62t58.5 178h88q-7 -150 -84.5 -235t-217.5 -85
q-141 0 -220 85.5z" />
    <glyph glyph-name="Gdotaccent" unicode="&#x120;" horiz-adv-x="1426" 
d="M1250 720v-702q-102 -16 -183.5 -23t-170.5 -7q-384 0 -579 185t-196 565q-1 260 90.5 429.5t256 250t387.5 80.5q91 0 177 -12t181 -36v-111q-99 27 -182.5 38t-167.5 11q-290 0 -451.5 -154.5t-161.5 -491.5q0 -330 159.5 -487t481.5 -157q131 0 241 16v606h118z
M708.5 1693.5q-24.5 21.5 -24.5 58.5t24.5 59t66.5 22t66.5 -22t24.5 -59t-24.5 -58.5t-66.5 -21.5t-66.5 21.5z" />
    <glyph glyph-name="gdotaccent" unicode="&#x121;" 
d="M344 -446q-90 14 -164 39v107q172 -55 328 -55q133 0 216.5 36.5t124.5 118t41 218.5v103h-8q-59 -64 -144 -100.5t-189 -36.5q-127 0 -225.5 55t-156 174.5t-57.5 306.5q0 290 141 434.5t419 144.5q180 0 342 -49v-1015q0 -175 -55.5 -284.5t-165.5 -160t-278 -50.5
q-79 0 -169 14zM750.5 127.5q81.5 35.5 139.5 107.5v733q-101 27 -231 27q-212 0 -318 -112t-106 -351q0 -237 91.5 -338.5t252.5 -101.5q90 0 171.5 35.5zM543 1359.5q-24 22.5 -24 61.5q0 40 24.5 63.5t66.5 23.5t66.5 -23.5t24.5 -63.5q0 -39 -24 -61.5t-67 -22.5
t-67 22.5z" />
    <glyph glyph-name="Gcommaaccent" unicode="&#x122;" horiz-adv-x="1426" 
d="M1250 720v-702q-102 -16 -183.5 -23t-170.5 -7q-384 0 -579 185t-196 565q-1 260 90.5 429.5t256 250t387.5 80.5q91 0 177 -12t181 -36v-111q-99 27 -182.5 38t-167.5 11q-290 0 -451.5 -154.5t-161.5 -491.5q0 -330 159.5 -487t481.5 -157q131 0 241 16v606h118z
M839 -197q23 -25 23 -74q0 -42 -13.5 -92.5t-37.5 -95.5h-77q32 77 37 140q-39 1 -61 21t-22 53q0 34 22 53.5t62 19.5q44 0 67 -25z" />
    <glyph glyph-name="gcommaaccent" unicode="&#x123;" 
d="M344 -446q-90 14 -164 39v107q172 -55 328 -55q133 0 216.5 36.5t124.5 118t41 218.5v103h-8q-59 -64 -144 -100.5t-189 -36.5q-127 0 -225.5 55t-156 174.5t-57.5 306.5q0 290 141 434.5t419 144.5q180 0 342 -49v-1015q0 -175 -55.5 -284.5t-165.5 -160t-278 -50.5
q-79 0 -169 14zM750.5 127.5q81.5 35.5 139.5 107.5v733q-101 27 -231 27q-212 0 -318 -112t-106 -351q0 -237 91.5 -338.5t252.5 -101.5q90 0 171.5 35.5zM675 1464q22 -20 22 -54q0 -33 -22 -53t-62 -20q-44 0 -67 25.5t-23 74.5q0 41 13.5 91.5t37.5 95.5h77
q-32 -75 -37 -139q39 -1 61 -21z" />
    <glyph glyph-name="Hcircumflex" unicode="&#x124;" horiz-adv-x="1514" 
d="M191 0v1480h123v-663h886v663h124v-1480h-124v703h-886v-703h-123zM1081 1611h-121l-203 219l-203 -219h-121l265 279h118z" />
    <glyph glyph-name="hcircumflex" unicode="&#x125;" horiz-adv-x="1195" 
d="M172 1616h122v-658h8q73 69 167.5 105t203.5 36q171 0 267.5 -92.5t96.5 -295.5v-711h-122v706q0 150 -70 215.5t-199 65.5q-97 0 -191 -39t-161 -117v-831h-122v1616zM930 1707h-121l-203 219l-203 -219h-121l265 279h118z" />
    <glyph glyph-name="Hbar" unicode="&#x126;" horiz-adv-x="1514" 
d="M1509 1196v-90h-185v-1106h-124v703h-886v-703h-123v1106h-186v90h186v284h123v-284h886v284h124v-284h185zM1200 817v289h-886v-289h886z" />
    <glyph glyph-name="hbar" unicode="&#x127;" horiz-adv-x="1195" 
d="M940.5 1006.5q96.5 -92.5 96.5 -295.5v-711h-122v706q0 150 -70 215.5t-199 65.5q-97 0 -191 -39t-161 -117v-831h-122v1310h-160v90h160v216h122v-216h390v-90h-390v-352h8q73 69 167.5 105t203.5 36q171 0 267.5 -92.5z" />
    <glyph glyph-name="Itilde" unicode="&#x128;" horiz-adv-x="505" 
d="M191 0v1480h123v-1480h-123zM329.5 1691q-37.5 10 -93.5 30q-47 18 -78.5 26.5t-64.5 8.5q-55 0 -96.5 -17t-79.5 -54v93q32 32 75 47.5t102 15.5q43 0 80.5 -10t93.5 -30q47 -18 78.5 -26.5t64.5 -8.5q55 0 96.5 16.5t79.5 53.5v-93q-32 -32 -75 -47t-102 -15
q-43 0 -80.5 10z" />
    <glyph glyph-name="itilde" unicode="&#x129;" horiz-adv-x="466" 
d="M172 0v1083h122v-1083h-122zM304 1370q-36 11 -88 32q-47 19 -75 27.5t-56 8.5q-50 0 -90 -18t-77 -56v97q62 64 168 64q40 0 76 -11t88 -32q47 -19 74.5 -27.5t56.5 -8.5q50 0 90 18t77 56v-97q-62 -64 -168 -64q-40 0 -76 11z" />
    <glyph glyph-name="Imacron" unicode="&#x12a;" horiz-adv-x="505" 
d="M191 0v1480h123v-1480h-123zM-54 1707v88h612v-88h-612z" />
    <glyph glyph-name="imacron" unicode="&#x12b;" horiz-adv-x="466" 
d="M172 0v1083h122v-1083h-122zM-82 1379v88h630v-88h-630z" />
    <glyph glyph-name="Ibreve" unicode="&#x12c;" horiz-adv-x="505" 
d="M191 0v1480h123v-1480h-123zM22 1688q-82 66 -94 178h89q13 -81 67.5 -122.5t169.5 -41.5q114 0 167.5 41.5t65.5 122.5h89q-12 -113 -92 -178.5t-230 -65.5t-232 66z" />
    <glyph glyph-name="ibreve" unicode="&#x12d;" horiz-adv-x="466" 
d="M172 0v1083h122v-1083h-122zM15 1354.5q-79 85.5 -86 234.5h88q16 -240 218 -240q104 0 155.5 62t58.5 178h88q-7 -150 -84.5 -235t-217.5 -85q-141 0 -220 85.5z" />
    <glyph glyph-name="Iogonek" unicode="&#x12e;" horiz-adv-x="505" 
d="M334 -331.5q40 9.5 96 29.5v-69q-90 -38 -182 -38q-112 0 -171 46.5t-59 131.5q0 70 40 128.5t133 112.5v1470h123v-1480q-119 -56 -166 -109t-47 -116q0 -56 39.5 -86t114.5 -30q39 0 79 9.5z" />
    <glyph glyph-name="iogonek" unicode="&#x12f;" horiz-adv-x="466" 
d="M166 1359.5q-24 22.5 -24 61.5q0 40 24.5 63.5t66.5 23.5t66.5 -23.5t24.5 -63.5q0 -39 -24 -61.5t-67 -22.5t-67 22.5zM392 -298v-71q-36 -19 -79.5 -29.5t-84.5 -10.5q-99 0 -154.5 47.5t-55.5 130.5q0 69 37 126.5t117 110.5v1077h122v-1083q-104 -55 -148.5 -107.5
t-44.5 -117.5q0 -54 35.5 -85t98.5 -31q77 0 157 43z" />
    <glyph glyph-name="Idotaccent" unicode="&#x130;" horiz-adv-x="505" 
d="M191 0v1480h123v-1480h-123zM185.5 1693.5q-24.5 21.5 -24.5 58.5t24.5 59t66.5 22t66.5 -22t24.5 -59t-24.5 -58.5t-66.5 -21.5t-66.5 21.5z" />
    <glyph glyph-name="dotlessi" unicode="&#x131;" horiz-adv-x="466" 
d="M172 0v1083h122v-1083h-122z" />
    <glyph glyph-name="Jcircumflex" unicode="&#x134;" horiz-adv-x="505" 
d="M-3 -284q102 130 148 265.5t46 307.5v1191h123v-1218q-8 -180 -61 -319.5t-174 -284.5zM576 1611h-121l-203 219l-203 -219h-121l265 279h118z" />
    <glyph glyph-name="jcircumflex" unicode="&#x135;" horiz-adv-x="466" 
d="M-22 -405q102 131 148 266.5t46 306.5v915h122v-908q0 -189 -55 -338.5t-179 -298.5zM532 1265h-108l-192 290l-192 -290h-108l242 359h116z" />
    <glyph glyph-name="Kcommaaccent" unicode="&#x136;" horiz-adv-x="1286" 
d="M1146 0l-567 703h-265v-703h-123v1480h123v-663h268l525 663h141l-570 -718l612 -762h-144zM727 -197q23 -25 23 -74q0 -42 -13.5 -92.5t-37.5 -95.5h-77q32 77 37 140q-39 1 -61 21t-22 53q0 34 22 53.5t62 19.5q44 0 67 -25z" />
    <glyph glyph-name="kcommaaccent" unicode="&#x137;" horiz-adv-x="1067" 
d="M939 0l-429 502h-216v-502h-122v1616h122v-1009h216l399 476h140l-436 -527l468 -556h-142zM634 -197q23 -25 23 -74q0 -42 -13.5 -92.5t-37.5 -95.5h-77q32 77 37 140q-39 1 -61 21t-22 53q0 34 22 53.5t62 19.5q44 0 67 -25z" />
    <glyph glyph-name="kgreenlandic" unicode="&#x138;" horiz-adv-x="1067" 
d="M939 0l-429 502h-216v-502h-122v1083h122v-476h216l399 476h140l-436 -527l468 -556h-142z" />
    <glyph glyph-name="Lacute" unicode="&#x139;" horiz-adv-x="1121" 
d="M191 0v1480h123v-1370h791v-110h-914zM195 1611l200 279h138l-222 -279h-116z" />
    <glyph glyph-name="lacute" unicode="&#x13a;" horiz-adv-x="466" 
d="M172 0v1616h122v-1616h-122zM175 1707l200 279h138l-222 -279h-116z" />
    <glyph glyph-name="Lcommaaccent" unicode="&#x13b;" horiz-adv-x="1121" 
d="M191 0v1480h123v-1370h791v-110h-914zM712 -197q23 -25 23 -74q0 -42 -13.5 -92.5t-37.5 -95.5h-77q32 77 37 140q-39 1 -61 21t-22 53q0 34 22 53.5t62 19.5q44 0 67 -25z" />
    <glyph glyph-name="lcommaaccent" unicode="&#x13c;" horiz-adv-x="466" 
d="M172 0v1616h122v-1616h-122zM297 -197q23 -25 23 -74q0 -42 -13.5 -92.5t-37.5 -95.5h-77q32 77 37 140q-39 1 -61 21t-22 53q0 34 22 53.5t62 19.5q44 0 67 -25z" />
    <glyph glyph-name="Lcaron" unicode="&#x13d;" horiz-adv-x="1121" 
d="M191 0v1480h123v-1370h791v-110h-914zM725 1353q4 115 4 263h96q0 -286 -43 -476h-73q12 98 16 213z" />
    <glyph glyph-name="lcaron" unicode="&#x13e;" horiz-adv-x="466" 
d="M172 0v1616h122v-1616h-122zM420 1616h96q0 -110 -10.5 -224.5t-32.5 -211.5h-73q20 167 20 436z" />
    <glyph glyph-name="Ldot" unicode="&#x13f;" horiz-adv-x="1121" 
d="M191 0v1480h123v-1370h791v-110h-914zM732 730.5q-24 22.5 -24 62.5q0 39 24.5 62.5t66.5 23.5t66.5 -23.5t24.5 -62.5q0 -40 -24 -62.5t-67 -22.5t-67 22.5z" />
    <glyph glyph-name="ldot" unicode="&#x140;" horiz-adv-x="532" 
d="M172 0v1616h122v-1616h-122zM420 730.5q-24 22.5 -24 61.5q0 40 24.5 63.5t66.5 23.5t66.5 -23.5t24.5 -63.5q0 -39 -24 -61.5t-67 -22.5t-67 22.5z" />
    <glyph glyph-name="Lslash" unicode="&#x141;" horiz-adv-x="1121" 
d="M314 110h791v-110h-914v678l-148 -110l-51 77l199 148v687h123v-596l294 219l51 -77l-345 -257v-659z" />
    <glyph glyph-name="lslash" unicode="&#x142;" horiz-adv-x="466" 
d="M469 830l-175 -128v-702h-122v612l-122 -89l-50 75l172 126v892h122v-803l125 92z" />
    <glyph glyph-name="Nacute" unicode="&#x143;" horiz-adv-x="1541" 
d="M1233 1480h118v-1480h-129l-914 1294v-1294h-117v1480h128l914 -1294v1294zM713 1611l200 279h138l-222 -279h-116z" />
    <glyph glyph-name="nacute" unicode="&#x144;" horiz-adv-x="1195" 
d="M172 1083h104l9 -128h10q74 70 170.5 107t202.5 37q174 0 271.5 -93.5t97.5 -298.5v-707h-122v704q0 151 -69 217.5t-200 66.5q-95 0 -189.5 -38t-162.5 -118v-832h-122v1083zM548 1257l242 359h137l-263 -359h-116z" />
    <glyph glyph-name="Ncommaaccent" unicode="&#x145;" horiz-adv-x="1541" 
d="M1233 1480h118v-1480h-129l-914 1294v-1294h-117v1480h128l914 -1294v1294zM835 -197q23 -25 23 -74q0 -42 -13.5 -92.5t-37.5 -95.5h-77q32 77 37 140q-39 1 -61 21t-22 53q0 34 22 53.5t62 19.5q44 0 67 -25z" />
    <glyph glyph-name="ncommaaccent" unicode="&#x146;" horiz-adv-x="1195" 
d="M172 1083h104l9 -128h10q74 70 170.5 107t202.5 37q174 0 271.5 -93.5t97.5 -298.5v-707h-122v704q0 151 -69 217.5t-200 66.5q-95 0 -189.5 -38t-162.5 -118v-832h-122v1083zM670 -197q23 -25 23 -74q0 -42 -13.5 -92.5t-37.5 -95.5h-77q32 77 37 140q-39 1 -61 21
t-22 53q0 34 22 53.5t62 19.5q44 0 67 -25z" />
    <glyph glyph-name="Ncaron" unicode="&#x147;" horiz-adv-x="1541" 
d="M1233 1480h118v-1480h-129l-914 1294v-1294h-117v1480h128l914 -1294v1294zM974 1890h121l-265 -279h-118l-265 279h121l203 -219z" />
    <glyph glyph-name="ncaron" unicode="&#x148;" horiz-adv-x="1195" 
d="M172 1083h104l9 -128h10q74 70 170.5 107t202.5 37q174 0 271.5 -93.5t97.5 -298.5v-707h-122v704q0 151 -69 217.5t-200 66.5q-95 0 -189.5 -38t-162.5 -118v-832h-122v1083zM803 1616h109l-248 -359h-116l-248 359h109l197 -291z" />
    <glyph glyph-name="napostrophe" unicode="&#x149;" horiz-adv-x="1195" 
d="M172 1083h104l9 -128h10q74 70 170.5 107t202.5 37q174 0 271.5 -93.5t97.5 -298.5v-707h-122v704q0 151 -69 217.5t-200 66.5q-95 0 -189.5 -38t-162.5 -118v-832h-122v1083zM165 1599q23 -25 23 -74q0 -42 -13.5 -92.5t-37.5 -95.5h-77q32 77 37 140q-39 1 -61 21
t-22 53q0 34 22 53.5t62 19.5q44 0 67 -25z" />
    <glyph glyph-name="Eng" unicode="&#x14a;" horiz-adv-x="1541" 
d="M1351 1480v-1299q0 -193 -55.5 -343t-179.5 -300l-82 57q77 99 122.5 196.5t63.5 208.5l-912 1293v-1293h-117v1480h128l914 -1292v1292h118z" />
    <glyph glyph-name="eng" unicode="&#x14b;" horiz-adv-x="1195" 
d="M721 -405q102 131 148 266.5t46 306.5v539q0 150 -70 216t-199 66q-97 0 -191 -39t-161 -118v-832h-122v1083h104l9 -128h10q73 71 169 107.5t205 36.5q174 0 271 -92.5t97 -295.5v-570q-8 -179 -60.5 -318.5t-172.5 -284.5z" />
    <glyph glyph-name="Omacron" unicode="&#x14c;" horiz-adv-x="1512" 
d="M420 62.5q-142 80.5 -220.5 249.5t-78.5 428t79 428t221.5 249.5t334.5 80.5q194 0 336 -80.5t220.5 -249.5t78.5 -428t-79 -428t-221.5 -249.5t-334.5 -80.5q-194 0 -336 80.5zM1129.5 245.5q133.5 153.5 133.5 489.5q0 653 -507 653q-240 0 -373.5 -153.5
t-133.5 -489.5q0 -653 507 -653q240 0 373.5 153.5zM450 1707v88h612v-88h-612z" />
    <glyph glyph-name="omacron" unicode="&#x14d;" horiz-adv-x="1162" 
d="M234.5 118.5q-124.5 137.5 -124.5 422.5q0 282 125 420t346 138q223 0 347 -136.5t124 -421.5q0 -282 -125.5 -421t-345.5 -139q-222 0 -346.5 137.5zM837.5 192q89.5 107 89.5 347q0 243 -89.5 350t-256.5 107t-256.5 -106t-89.5 -347q0 -243 89.5 -350.5t256.5 -107.5
t256.5 107zM266 1379v88h630v-88h-630z" />
    <glyph glyph-name="Obreve" unicode="&#x14e;" horiz-adv-x="1512" 
d="M420 62.5q-142 80.5 -220.5 249.5t-78.5 428t79 428t221.5 249.5t334.5 80.5q194 0 336 -80.5t220.5 -249.5t78.5 -428t-79 -428t-221.5 -249.5t-334.5 -80.5q-194 0 -336 80.5zM1129.5 245.5q133.5 153.5 133.5 489.5q0 653 -507 653q-240 0 -373.5 -153.5
t-133.5 -489.5q0 -653 507 -653q240 0 373.5 153.5zM526 1688q-82 66 -94 178h89q13 -81 67.5 -122.5t169.5 -41.5q114 0 167.5 41.5t65.5 122.5h89q-12 -113 -92 -178.5t-230 -65.5t-232 66z" />
    <glyph glyph-name="obreve" unicode="&#x14f;" horiz-adv-x="1162" 
d="M234.5 118.5q-124.5 137.5 -124.5 422.5q0 282 125 420t346 138q223 0 347 -136.5t124 -421.5q0 -282 -125.5 -421t-345.5 -139q-222 0 -346.5 137.5zM837.5 192q89.5 107 89.5 347q0 243 -89.5 350t-256.5 107t-256.5 -106t-89.5 -347q0 -243 89.5 -350.5t256.5 -107.5
t256.5 107zM363 1354.5q-79 85.5 -86 234.5h88q16 -240 218 -240q104 0 155.5 62t58.5 178h88q-7 -150 -84.5 -235t-217.5 -85q-141 0 -220 85.5z" />
    <glyph glyph-name="Ohungarumlaut" unicode="&#x150;" horiz-adv-x="1512" 
d="M420 62.5q-142 80.5 -220.5 249.5t-78.5 428t79 428t221.5 249.5t334.5 80.5q194 0 336 -80.5t220.5 -249.5t78.5 -428t-79 -428t-221.5 -249.5t-334.5 -80.5q-194 0 -336 80.5zM1129.5 245.5q133.5 153.5 133.5 489.5q0 653 -507 653q-240 0 -373.5 -153.5
t-133.5 -489.5q0 -653 507 -653q240 0 373.5 153.5zM535 1611l144 279h110l-152 -279h-102zM875 1611l144 279h110l-152 -279h-102z" />
    <glyph glyph-name="ohungarumlaut" unicode="&#x151;" horiz-adv-x="1162" 
d="M234.5 118.5q-124.5 137.5 -124.5 422.5q0 282 125 420t346 138q223 0 347 -136.5t124 -421.5q0 -282 -125.5 -421t-345.5 -139q-222 0 -346.5 137.5zM837.5 192q89.5 107 89.5 347q0 243 -89.5 350t-256.5 107t-256.5 -106t-89.5 -347q0 -243 89.5 -350.5t256.5 -107.5
t256.5 107zM363 1257l161 359h108l-170 -359h-99zM700 1257l161 359h108l-170 -359h-99z" />
    <glyph glyph-name="OE" unicode="&#x152;" horiz-adv-x="2126" 
d="M2036 108v-108h-807q-61 0 -158 -5q-24 -1 -83.5 -3t-101.5 -2q-380 0 -572.5 185t-192.5 565q0 377 192 565.5t563 188.5q46 0 103 -3t74 -4q98 -7 161 -7h812v-108h-780v-558h681v-108h-681v-598h790zM1123 1371q-132 14 -256 14q-309 0 -463.5 -157.5t-154.5 -487.5
t155.5 -486t466.5 -156q156 0 252 11v1262z" />
    <glyph glyph-name="oe" unicode="&#x153;" horiz-adv-x="1881" 
d="M1790 498h-745q7 -216 108 -314.5t297 -98.5q126 0 287 50v-105q-156 -49 -300 -49q-175 0 -289.5 65t-168.5 199q-52 -132 -155 -198t-249 -66q-218 0 -341.5 138t-123.5 422q0 281 124 419.5t341 138.5q150 0 253.5 -65.5t153.5 -200.5q47 132 145 199.5t239 67.5
q203 0 313.5 -140t110.5 -418v-44zM1131 904.5q-81 -99.5 -86 -314.5h626q-5 216 -82.5 315t-226.5 99q-150 0 -231 -99.5zM831 192q89 107 89 347q0 243 -88.5 350t-253.5 107t-254 -106.5t-89 -346.5q0 -243 89 -350.5t254 -107.5q164 0 253 107z" />
    <glyph glyph-name="Racute" unicode="&#x154;" horiz-adv-x="1362" 
d="M1147 0l-500 629q-56 -2 -88 -2q-65 0 -126 3t-120 8v-638h-122v1454q96 19 192 30t211 11q202 0 332 -45t193.5 -140t63.5 -245q2 -353 -408 -422l515 -643h-143zM433.5 733.5q50.5 -2.5 127.5 -2.5q264 0 383.5 81t119.5 250q0 121 -48 192.5t-149.5 104t-266.5 32.5
q-86 0 -150 -6t-137 -19v-623q70 -7 120.5 -9.5zM598 1611l200 279h138l-222 -279h-116z" />
    <glyph glyph-name="racute" unicode="&#x155;" horiz-adv-x="757" 
d="M172 1083h103l10 -146h10q61 73 155 114.5t192 41.5q49 0 100 -9v-116q-44 8 -104 8q-91 0 -187 -41.5t-157 -119.5v-815h-122v1083zM395 1257l242 359h137l-263 -359h-116z" />
    <glyph glyph-name="Rcommaaccent" unicode="&#x156;" horiz-adv-x="1362" 
d="M1147 0l-500 629q-56 -2 -88 -2q-65 0 -126 3t-120 8v-638h-122v1454q96 19 192 30t211 11q202 0 332 -45t193.5 -140t63.5 -245q2 -353 -408 -422l515 -643h-143zM433.5 733.5q50.5 -2.5 127.5 -2.5q264 0 383.5 81t119.5 250q0 121 -48 192.5t-149.5 104t-266.5 32.5
q-86 0 -150 -6t-137 -19v-623q70 -7 120.5 -9.5zM770 -197q23 -25 23 -74q0 -42 -13.5 -92.5t-37.5 -95.5h-77q32 77 37 140q-39 1 -61 21t-22 53q0 34 22 53.5t62 19.5q44 0 67 -25z" />
    <glyph glyph-name="rcommaaccent" unicode="&#x157;" horiz-adv-x="757" 
d="M172 1083h103l10 -146h10q61 73 155 114.5t192 41.5q49 0 100 -9v-116q-44 8 -104 8q-91 0 -187 -41.5t-157 -119.5v-815h-122v1083zM297 -197q23 -25 23 -74q0 -42 -13.5 -92.5t-37.5 -95.5h-77q32 77 37 140q-39 1 -61 21t-22 53q0 34 22 53.5t62 19.5q44 0 67 -25z
" />
    <glyph glyph-name="Rcaron" unicode="&#x158;" horiz-adv-x="1362" 
d="M1147 0l-500 629q-56 -2 -88 -2q-65 0 -126 3t-120 8v-638h-122v1454q96 19 192 30t211 11q202 0 332 -45t193.5 -140t63.5 -245q2 -353 -408 -422l515 -643h-143zM433.5 733.5q50.5 -2.5 127.5 -2.5q264 0 383.5 81t119.5 250q0 121 -48 192.5t-149.5 104t-266.5 32.5
q-86 0 -150 -6t-137 -19v-623q70 -7 120.5 -9.5zM859 1890h121l-265 -279h-118l-265 279h121l203 -219z" />
    <glyph glyph-name="rcaron" unicode="&#x159;" horiz-adv-x="757" 
d="M172 1083h103l10 -146h10q61 73 155 114.5t192 41.5q49 0 100 -9v-116q-44 8 -104 8q-91 0 -187 -41.5t-157 -119.5v-815h-122v1083zM650 1616h109l-248 -359h-116l-248 359h109l197 -291z" />
    <glyph glyph-name="Sacute" unicode="&#x15a;" horiz-adv-x="1113" 
d="M296 -2.5q-99 15.5 -188 46.5v110q97 -33 195 -48.5t188 -15.5q205 0 307 75.5t102 222.5q0 82 -34 136t-106.5 90.5t-196.5 64.5l-78 17q-203 45 -300.5 142t-97.5 256q0 126 59.5 216.5t178 139t291.5 48.5q91 0 180 -12.5t166 -36.5v-110q-168 51 -345 51
q-202 0 -303 -74.5t-101 -214.5q0 -81 30 -135.5t98 -91.5t184 -63l78 -18q221 -49 322 -144.5t101 -254.5q0 -131 -62.5 -223.5t-183 -140.5t-291.5 -48q-94 0 -193 15.5zM506 1611l200 279h138l-222 -279h-116z" />
    <glyph glyph-name="sacute" unicode="&#x15b;" horiz-adv-x="948" 
d="M127 25v105q83 -25 157 -35.5t157 -10.5q159 0 232.5 51t73.5 149q0 81 -44 124t-153 64l-158 30q-148 29 -215.5 101t-67.5 190q0 91 46 159.5t142.5 107.5t241.5 39q143 0 268 -35v-104q-72 20 -134 28.5t-132 8.5q-165 0 -238.5 -54t-73.5 -147q0 -74 42.5 -120.5
t146.5 -66.5l158 -30q153 -30 222 -98.5t69 -188.5q0 -146 -109 -228.5t-320 -82.5q-172 0 -311 44zM420 1257l242 359h137l-263 -359h-116z" />
    <glyph glyph-name="Scircumflex" unicode="&#x15c;" horiz-adv-x="1113" 
d="M296 -2.5q-99 15.5 -188 46.5v110q97 -33 195 -48.5t188 -15.5q205 0 307 75.5t102 222.5q0 82 -34 136t-106.5 90.5t-196.5 64.5l-78 17q-203 45 -300.5 142t-97.5 256q0 126 59.5 216.5t178 139t291.5 48.5q91 0 180 -12.5t166 -36.5v-110q-168 51 -345 51
q-202 0 -303 -74.5t-101 -214.5q0 -81 30 -135.5t98 -91.5t184 -63l78 -18q221 -49 322 -144.5t101 -254.5q0 -131 -62.5 -223.5t-183 -140.5t-291.5 -48q-94 0 -193 15.5zM888 1611h-121l-203 219l-203 -219h-121l265 279h118z" />
    <glyph glyph-name="scircumflex" unicode="&#x15d;" horiz-adv-x="948" 
d="M127 25v105q83 -25 157 -35.5t157 -10.5q159 0 232.5 51t73.5 149q0 81 -44 124t-153 64l-158 30q-148 29 -215.5 101t-67.5 190q0 91 46 159.5t142.5 107.5t241.5 39q143 0 268 -35v-104q-72 20 -134 28.5t-132 8.5q-165 0 -238.5 -54t-73.5 -147q0 -74 42.5 -120.5
t146.5 -66.5l158 -30q153 -30 222 -98.5t69 -188.5q0 -146 -109 -228.5t-320 -82.5q-172 0 -311 44zM778 1257h-108l-192 290l-192 -290h-108l242 359h116z" />
    <glyph glyph-name="Scedilla" unicode="&#x15e;" horiz-adv-x="1113" 
d="M915.5 113.5q-110.5 -104.5 -317.5 -126.5v-93q87 -4 136 -42.5t49 -108.5q0 -75 -56.5 -113.5t-159.5 -38.5q-51 0 -103.5 10t-94.5 28v70q100 -41 194 -41q140 0 140 88q0 87 -142 87h-40v149h-32q-94 0 -193 15.5t-188 46.5v110q97 -33 195 -48.5t188 -15.5
q205 0 307 75.5t102 222.5q0 82 -34 136t-106.5 90.5t-196.5 64.5l-78 17q-203 45 -300.5 142t-97.5 256q0 126 59.5 216.5t178 139t291.5 48.5q91 0 180 -12.5t166 -36.5v-110q-168 51 -345 51q-202 0 -303 -74.5t-101 -214.5q0 -81 30 -135.5t98 -91.5t184 -63l78 -18
q221 -49 322 -144.5t101 -254.5q0 -176 -110.5 -280.5z" />
    <glyph glyph-name="scedilla" unicode="&#x15f;" horiz-adv-x="948" 
d="M779.5 80.5q-87.5 -80.5 -259.5 -95.5v-92q78 -6 120.5 -45t42.5 -106q0 -72 -51.5 -111.5t-146.5 -39.5q-47 0 -94.5 9.5t-81.5 27.5v71q82 -41 174 -41q61 0 91 21t30 66t-30.5 66.5t-92.5 21.5h-38v148h-5q-172 0 -311 44v105q83 -25 157 -35.5t157 -10.5
q159 0 232.5 51t73.5 149q0 81 -44 124t-153 64l-158 30q-148 29 -215.5 101t-67.5 190q0 91 46 159.5t142.5 107.5t241.5 39q143 0 268 -35v-104q-72 20 -134 28.5t-132 8.5q-165 0 -238.5 -54t-73.5 -147q0 -74 42.5 -120.5t146.5 -66.5l158 -30q153 -30 222 -98.5
t69 -188.5q0 -131 -87.5 -211.5z" />
    <glyph glyph-name="Scaron" unicode="&#x160;" horiz-adv-x="1113" 
d="M296 -2.5q-99 15.5 -188 46.5v110q97 -33 195 -48.5t188 -15.5q205 0 307 75.5t102 222.5q0 82 -34 136t-106.5 90.5t-196.5 64.5l-78 17q-203 45 -300.5 142t-97.5 256q0 126 59.5 216.5t178 139t291.5 48.5q91 0 180 -12.5t166 -36.5v-110q-168 51 -345 51
q-202 0 -303 -74.5t-101 -214.5q0 -81 30 -135.5t98 -91.5t184 -63l78 -18q221 -49 322 -144.5t101 -254.5q0 -131 -62.5 -223.5t-183 -140.5t-291.5 -48q-94 0 -193 15.5zM767 1890h121l-265 -279h-118l-265 279h121l203 -219z" />
    <glyph glyph-name="scaron" unicode="&#x161;" horiz-adv-x="948" 
d="M127 25v105q83 -25 157 -35.5t157 -10.5q159 0 232.5 51t73.5 149q0 81 -44 124t-153 64l-158 30q-148 29 -215.5 101t-67.5 190q0 91 46 159.5t142.5 107.5t241.5 39q143 0 268 -35v-104q-72 20 -134 28.5t-132 8.5q-165 0 -238.5 -54t-73.5 -147q0 -74 42.5 -120.5
t146.5 -66.5l158 -30q153 -30 222 -98.5t69 -188.5q0 -146 -109 -228.5t-320 -82.5q-172 0 -311 44zM675 1616h109l-248 -359h-116l-248 359h109l197 -291z" />
    <glyph glyph-name="uni0162" unicode="&#x162;" horiz-adv-x="1215" 
d="M642 0v-106q87 -4 136 -42.5t49 -108.5q0 -75 -56.5 -113.5t-159.5 -38.5q-51 0 -103.5 10t-94.5 28v70q100 -41 194 -41q140 0 140 88q0 87 -142 87h-40v167h-19v1370h-529v110h1181v-110h-529v-1370h-27z" />
    <glyph glyph-name="uni0163" unicode="&#x163;" horiz-adv-x="777" 
d="M541 -16v-91q78 -6 120.5 -45t42.5 -106q0 -72 -51.5 -111.5t-146.5 -39.5q-47 0 -94.5 9.5t-81.5 27.5v71q82 -41 174 -41q61 0 91 21t30 66t-30.5 66.5t-92.5 21.5h-38v164q-231 58 -231 347v635h-221v104h221l19 397h103v-397h389v-104h-389v-615q0 -146 64.5 -210
t195.5 -64q60 0 149 19v-108q-83 -19 -171 -19q-18 0 -52 2z" />
    <glyph glyph-name="Tcaron" unicode="&#x164;" horiz-adv-x="1215" 
d="M546 0v1370h-529v110h1181v-110h-529v-1370h-123zM811 1890h121l-265 -279h-118l-265 279h121l203 -219z" />
    <glyph glyph-name="tcaron" unicode="&#x165;" horiz-adv-x="777" 
d="M764 109v-108q-83 -19 -171 -19q-175 0 -267.5 88.5t-92.5 273.5v635h-221v104h221l19 397h103v-397h389v-104h-389v-615q0 -146 64.5 -210t195.5 -64q60 0 149 19zM542 1616h96q0 -110 -10.5 -224.5t-32.5 -211.5h-73q20 167 20 436z" />
    <glyph glyph-name="Tbar" unicode="&#x166;" horiz-adv-x="1215" 
d="M1198 1370h-529v-539h351v-92h-351v-739h-123v739h-349v92h349v539h-529v110h1181v-110z" />
    <glyph glyph-name="tbar" unicode="&#x167;" horiz-adv-x="777" 
d="M764 109v-108q-83 -19 -171 -19q-175 0 -267.5 88.5t-92.5 273.5v255h-161v90h161v290h-221v104h221l19 397h103v-397h389v-104h-389v-290h338v-90h-338v-235q0 -146 64.5 -210t195.5 -64q60 0 149 19z" />
    <glyph glyph-name="Utilde" unicode="&#x168;" horiz-adv-x="1485" 
d="M427.5 43.5q-123.5 61.5 -184 190.5t-60.5 332v914h123v-929q0 -162 47 -263t143.5 -149t247.5 -48t247.5 48t143.5 149t47 263v929h120v-914q0 -204 -60 -332.5t-183 -190t-315 -61.5q-193 0 -316.5 61.5zM821.5 1691q-37.5 10 -93.5 30q-47 18 -78.5 26.5t-64.5 8.5
q-55 0 -96.5 -17t-79.5 -54v93q32 32 75 47.5t102 15.5q43 0 80.5 -10t93.5 -30q47 -18 78.5 -26.5t64.5 -8.5q55 0 96.5 16.5t79.5 53.5v-93q-32 -32 -75 -47t-102 -15q-43 0 -80.5 10z" />
    <glyph glyph-name="utilde" unicode="&#x169;" horiz-adv-x="1185" 
d="M254 74.5q-97 92.5 -97 294.5v714h122v-708q0 -150 69.5 -216t195.5 -66q94 0 187 39.5t160 117.5v833h122v-1083h-104l-9 123h-9q-74 -69 -169 -105t-200 -36q-171 0 -268 92.5zM656 1370q-36 11 -88 32q-47 19 -75 27.5t-56 8.5q-50 0 -90 -18t-77 -56v97q62 64 168 64
q40 0 76 -11t88 -32q47 -19 74.5 -27.5t56.5 -8.5q50 0 90 18t77 56v-97q-62 -64 -168 -64q-40 0 -76 11z" />
    <glyph glyph-name="Umacron" unicode="&#x16a;" horiz-adv-x="1485" 
d="M427.5 43.5q-123.5 61.5 -184 190.5t-60.5 332v914h123v-929q0 -162 47 -263t143.5 -149t247.5 -48t247.5 48t143.5 149t47 263v929h120v-914q0 -204 -60 -332.5t-183 -190t-315 -61.5q-193 0 -316.5 61.5zM438 1707v88h612v-88h-612z" />
    <glyph glyph-name="umacron" unicode="&#x16b;" horiz-adv-x="1185" 
d="M254 74.5q-97 92.5 -97 294.5v714h122v-708q0 -150 69.5 -216t195.5 -66q94 0 187 39.5t160 117.5v833h122v-1083h-104l-9 123h-9q-74 -69 -169 -105t-200 -36q-171 0 -268 92.5zM270 1379v88h630v-88h-630z" />
    <glyph glyph-name="Ubreve" unicode="&#x16c;" horiz-adv-x="1485" 
d="M427.5 43.5q-123.5 61.5 -184 190.5t-60.5 332v914h123v-929q0 -162 47 -263t143.5 -149t247.5 -48t247.5 48t143.5 149t47 263v929h120v-914q0 -204 -60 -332.5t-183 -190t-315 -61.5q-193 0 -316.5 61.5zM514 1688q-82 66 -94 178h89q13 -81 67.5 -122.5t169.5 -41.5
q114 0 167.5 41.5t65.5 122.5h89q-12 -113 -92 -178.5t-230 -65.5t-232 66z" />
    <glyph glyph-name="ubreve" unicode="&#x16d;" horiz-adv-x="1185" 
d="M254 74.5q-97 92.5 -97 294.5v714h122v-708q0 -150 69.5 -216t195.5 -66q94 0 187 39.5t160 117.5v833h122v-1083h-104l-9 123h-9q-74 -69 -169 -105t-200 -36q-171 0 -268 92.5zM367 1354.5q-79 85.5 -86 234.5h88q16 -240 218 -240q104 0 155.5 62t58.5 178h88
q-7 -150 -84.5 -235t-217.5 -85q-141 0 -220 85.5z" />
    <glyph glyph-name="Uring" unicode="&#x16e;" horiz-adv-x="1485" 
d="M427.5 43.5q-123.5 61.5 -184 190.5t-60.5 332v914h123v-929q0 -162 47 -263t143.5 -149t247.5 -48t247.5 48t143.5 149t47 263v929h120v-914q0 -204 -60 -332.5t-183 -190t-315 -61.5q-193 0 -316.5 61.5zM646.5 1629.5q-43.5 24.5 -68.5 68t-25 97.5t25 97t68.5 67.5
t97.5 24.5t97.5 -24.5t68.5 -67.5t25 -97t-25 -97.5t-68.5 -68t-97.5 -24.5t-97.5 24.5zM832 1704q34 34 34 91t-34 90.5t-88 33.5t-88 -33.5t-34 -90.5t34 -91t88 -34t88 34z" />
    <glyph glyph-name="uring" unicode="&#x16f;" horiz-adv-x="1185" 
d="M254 74.5q-97 92.5 -97 294.5v714h122v-708q0 -150 69.5 -216t195.5 -66q94 0 187 39.5t160 117.5v833h122v-1083h-104l-9 123h-9q-74 -69 -169 -105t-200 -36q-171 0 -268 92.5zM487.5 1277.5q-43.5 24.5 -68.5 67.5t-25 97t25 97.5t68.5 68t97.5 24.5t97.5 -24.5
t68.5 -68t25 -97.5t-25 -97t-68.5 -67.5t-97.5 -24.5t-97.5 24.5zM673 1351.5q34 33.5 34 90.5q0 58 -34 91.5t-88 33.5t-88 -33.5t-34 -91.5q0 -57 34 -90.5t88 -33.5t88 33.5z" />
    <glyph glyph-name="Uhungarumlaut" unicode="&#x170;" horiz-adv-x="1485" 
d="M427.5 43.5q-123.5 61.5 -184 190.5t-60.5 332v914h123v-929q0 -162 47 -263t143.5 -149t247.5 -48t247.5 48t143.5 149t47 263v929h120v-914q0 -204 -60 -332.5t-183 -190t-315 -61.5q-193 0 -316.5 61.5zM523 1611l144 279h110l-152 -279h-102zM863 1611l144 279h110
l-152 -279h-102z" />
    <glyph glyph-name="uhungarumlaut" unicode="&#x171;" horiz-adv-x="1185" 
d="M254 74.5q-97 92.5 -97 294.5v714h122v-708q0 -150 69.5 -216t195.5 -66q94 0 187 39.5t160 117.5v833h122v-1083h-104l-9 123h-9q-74 -69 -169 -105t-200 -36q-171 0 -268 92.5zM367 1257l161 359h108l-170 -359h-99zM704 1257l161 359h108l-170 -359h-99z" />
    <glyph glyph-name="Uogonek" unicode="&#x172;" horiz-adv-x="1485" 
d="M1302 1480v-914q0 -238 -82.5 -374.5t-257.5 -184.5q-268 -75 -268 -226q0 -58 39 -88.5t114 -30.5q40 0 80.5 9t94.5 30v-69q-90 -38 -181 -38q-114 0 -172.5 47t-58.5 136q0 59 32.5 112t103.5 93h-2q-193 0 -316.5 61.5t-184 190.5t-60.5 332v914h123v-929
q0 -162 47 -263t143.5 -149t247.5 -48t247.5 48t143.5 149t47 263v929h120z" />
    <glyph glyph-name="uogonek" unicode="&#x173;" horiz-adv-x="1185" 
d="M1111 -298v-71q-36 -19 -79.5 -29.5t-84.5 -10.5q-99 0 -154.5 47.5t-55.5 130.5q0 73 41 133t130 114l-8 107h-9q-74 -69 -169 -105t-200 -36q-171 0 -268 92.5t-97 294.5v714h122v-708q0 -150 69.5 -216t195.5 -66q94 0 187 39.5t160 117.5v833h122v-1083
q-104 -55 -148.5 -107.5t-44.5 -117.5q0 -54 35.5 -85t98.5 -31q77 0 157 43z" />
    <glyph glyph-name="Wcircumflex" unicode="&#x174;" horiz-adv-x="2200" 
d="M2010 1480h121l-449 -1480h-164l-417 1345l-419 -1345h-164l-451 1480h129l410 -1369l421 1369h151l419 -1370zM1425 1611h-121l-203 219l-203 -219h-121l265 279h118z" />
    <glyph glyph-name="wcircumflex" unicode="&#x175;" horiz-adv-x="1753" 
d="M1562 1083h118l-342 -1083h-149l-311 962l-312 -962h-149l-344 1083h123l300 -959l308 959h150l307 -957zM1179 1257h-108l-192 290l-192 -290h-108l242 359h116z" />
    <glyph glyph-name="Ycircumflex" unicode="&#x176;" horiz-adv-x="1215" 
d="M1231 1480l-561 -813v-667h-124v666l-571 814h142l494 -703l487 703h133zM932 1611h-121l-203 219l-203 -219h-121l265 279h118z" />
    <glyph glyph-name="ycircumflex" unicode="&#x177;" horiz-adv-x="1100" 
d="M950 1083h124l-625 -1523h-124l181 440h-36l-444 1083h131l393 -986zM851 1257h-108l-192 290l-192 -290h-108l242 359h116z" />
    <glyph glyph-name="Ydieresis" unicode="&#x178;" horiz-adv-x="1215" 
d="M1231 1480l-561 -813v-667h-124v666l-571 814h142l494 -703l487 703h133zM297 1693.5q-23 21.5 -23 58.5t23 59t63 22q39 0 62 -22t23 -59t-23 -58.5t-62 -21.5q-40 0 -63 21.5zM794 1693.5q-23 21.5 -23 58.5t23 59t62 22q40 0 63 -22t23 -59t-23 -58.5t-63 -21.5
q-39 0 -62 21.5z" />
    <glyph glyph-name="Zacute" unicode="&#x179;" horiz-adv-x="1209" 
d="M234 109h909v-109h-1078v70l897 1301h-884v109h1053v-70zM547 1611l200 279h138l-222 -279h-116z" />
    <glyph glyph-name="zacute" unicode="&#x17a;" horiz-adv-x="957" 
d="M225 104h674v-104h-834v75l661 904h-648v104h808v-75zM424 1257l242 359h137l-263 -359h-116z" />
    <glyph glyph-name="Zdotaccent" unicode="&#x17b;" horiz-adv-x="1209" 
d="M234 109h909v-109h-1078v70l897 1301h-884v109h1053v-70zM538.5 1693.5q-24.5 21.5 -24.5 58.5t24.5 59t66.5 22t66.5 -22t24.5 -59t-24.5 -58.5t-66.5 -21.5t-66.5 21.5z" />
    <glyph glyph-name="zdotaccent" unicode="&#x17c;" horiz-adv-x="957" 
d="M225 104h674v-104h-834v75l661 904h-648v104h808v-75zM415 1359.5q-24 22.5 -24 61.5q0 40 24.5 63.5t66.5 23.5t66.5 -23.5t24.5 -63.5q0 -39 -24 -61.5t-67 -22.5t-67 22.5z" />
    <glyph glyph-name="Zcaron" unicode="&#x17d;" horiz-adv-x="1209" 
d="M234 109h909v-109h-1078v70l897 1301h-884v109h1053v-70zM808 1890h121l-265 -279h-118l-265 279h121l203 -219z" />
    <glyph glyph-name="zcaron" unicode="&#x17e;" horiz-adv-x="957" 
d="M225 104h674v-104h-834v75l661 904h-648v104h808v-75zM679 1616h109l-248 -359h-116l-248 359h109l197 -291z" />
    <glyph glyph-name="uni018F" unicode="&#x18f;" horiz-adv-x="1509" 
d="M1388 736q0 -260 -78 -428t-218.5 -247t-331.5 -79q-305 0 -477 182t-172 561v68h1151q-10 214 -89 346t-221 191.5t-349 59.5q-100 0 -208 -13t-204 -39v110q188 50 417 50q780 0 780 -762zM1262 690h-1022q8 -317 141.5 -459t378.5 -142q486 0 502 601z" />
    <glyph glyph-name="florin" unicode="&#x192;" horiz-adv-x="749" 
d="M432 1468q-69 -62 -69 -200v-185h389v-106h-389v-1061q0 -187 -100.5 -281.5t-296.5 -94.5q-79 0 -157 13v107q88 -14 150 -14q144 0 213 62t69 200v1069h-221v106h221v177q0 187 100.5 281.5t296.5 94.5q79 0 157 -13v-107q-88 14 -150 14q-144 0 -213 -62z" />
    <glyph glyph-name="Ohorn" unicode="&#x1a0;" horiz-adv-x="1512" 
d="M1325 1140q66 -161 66 -400q0 -389 -168.5 -573.5t-466.5 -184.5q-194 0 -336 80.5t-220.5 249.5t-78.5 428t79 428t221.5 249.5t334.5 80.5q48 0 95.5 -5t58.5 -6q100 -13 178 -13q100 0 153.5 39.5t53.5 120.5q0 38 -6 70.5t-18 71.5h98q13 -37 19 -70t6 -76
q0 -107 -66.5 -169t-190.5 -71q122 -89 188 -250zM1129.5 245.5q133.5 153.5 133.5 489.5q0 653 -507 653q-240 0 -373.5 -153.5t-133.5 -489.5q0 -653 507 -653q240 0 373.5 153.5z" />
    <glyph glyph-name="ohorn" unicode="&#x1a1;" horiz-adv-x="1162" 
d="M1052 541q0 -282 -125.5 -421t-345.5 -139q-222 0 -346.5 137.5t-124.5 422.5q0 282 125 420t347 138q50 0 120 -6q54 -4 73 -4q206 0 206 166q0 37 -6 69.5t-18 71.5h95q13 -37 19 -70t6 -76q0 -99 -52 -160t-150 -80q177 -136 177 -469zM837.5 192q89.5 107 89.5 347
q0 243 -89.5 350t-256.5 107t-256.5 -106t-89.5 -347q0 -243 89.5 -350.5t256.5 -107.5t256.5 107z" />
    <glyph glyph-name="Uhorn" unicode="&#x1af;" horiz-adv-x="1486" 
d="M427.5 43.5q-123.5 61.5 -184 190.5t-60.5 332v914h123v-929q0 -162 47 -263t143.5 -149t247.5 -48t247.5 48t143.5 149t47 263v929h49q102 0 154.5 37t52.5 117q0 38 -6 70.5t-18 71.5h98q13 -37 19 -70t6 -76q0 -101 -61.5 -160t-173.5 -68v-836q0 -204 -60 -332.5
t-183 -190t-315 -61.5q-193 0 -316.5 61.5z" />
    <glyph glyph-name="uhorn" unicode="&#x1b0;" horiz-adv-x="1208" 
d="M1185 1076q-60 -63 -172 -76v-1000h-104l-9 123h-9q-74 -69 -169 -105t-200 -36q-171 0 -268 92.5t-97 294.5v714h122v-708q0 -150 69.5 -216t195.5 -66q94 0 187 39.5t160 117.5v833h53q205 0 205 166q0 38 -6 70.5t-18 71.5h95q14 -36 19.5 -69.5t5.5 -76.5
q0 -106 -60 -169z" />
    <glyph glyph-name="uni01C4" unicode="&#x1c4;" horiz-adv-x="2625" 
d="M381.5 -5.5q-85.5 5.5 -190.5 18.5v1441q95 20 198.5 30.5t198.5 10.5q377 0 569 -188t192 -567q0 -381 -196.5 -566t-590.5 -185q-95 0 -180.5 5.5zM1063 253q158 155 158 487q0 331 -157 488.5t-475 157.5q-120 0 -275 -24v-1247q109 -17 268 -17q323 0 481 155z
M1650 109h909v-109h-1078v70l897 1301h-884v109h1053v-70zM2224 1890h121l-265 -279h-118l-265 279h121l203 -219z" />
    <glyph glyph-name="uni01C5" unicode="&#x1c5;" horiz-adv-x="2427" 
d="M381.5 -5.5q-85.5 5.5 -190.5 18.5v1441q95 20 198.5 30.5t198.5 10.5q377 0 569 -188t192 -567q0 -381 -196.5 -566t-590.5 -185q-95 0 -180.5 5.5zM1063 253q158 155 158 487q0 331 -157 488.5t-475 157.5q-120 0 -275 -24v-1247q109 -17 268 -17q323 0 481 155z
M1695 104h674v-104h-834v75l661 904h-648v104h808v-75zM2155 1570h121l-265 -279h-118l-265 279h121l203 -219z" />
    <glyph glyph-name="uni01C6" unicode="&#x1c6;" horiz-adv-x="2140" 
d="M326 38q-101 56 -158.5 176t-57.5 305q0 580 565 580q99 0 215 -19v536h122v-1616h-105l-9 125h-10q-57 -67 -141.5 -105t-186.5 -38q-133 0 -234 56zM754 127q80 37 136 115v728q-45 12 -102.5 18.5t-115.5 6.5q-222 0 -329.5 -112t-107.5 -352q0 -236 91 -338.5
t258 -102.5q90 0 170 37zM1408 104h674v-104h-834v75l661 904h-648v104h808v-75zM1862 1616h109l-248 -359h-116l-248 359h109l197 -291z" />
    <glyph glyph-name="uni01C7" unicode="&#x1c7;" horiz-adv-x="1626" 
d="M191 0v1480h123v-1370h791v-110h-914zM1118 -284q102 130 148 265.5t46 307.5v1191h123v-1218q-8 -180 -61 -319.5t-174 -284.5z" />
    <glyph glyph-name="uni01C8" unicode="&#x1c8;" horiz-adv-x="1587" 
d="M191 0v1480h123v-1370h791v-110h-914zM1099 -405q102 131 148 266.5t46 306.5v915h122v-908q0 -189 -55 -338.5t-179 -298.5zM1286 1367.5q-24 22.5 -24 61.5q0 40 24.5 63.5t66.5 23.5t66.5 -23.5t24.5 -63.5q0 -39 -24 -61.5t-67 -22.5t-67 22.5z" />
    <glyph glyph-name="uni01C9" unicode="&#x1c9;" horiz-adv-x="932" 
d="M172 0v1616h122v-1616h-122zM444 -405q102 131 148 266.5t46 306.5v915h122v-908q0 -189 -55 -338.5t-179 -298.5zM631 1367.5q-24 22.5 -24 61.5q0 40 24.5 63.5t66.5 23.5t66.5 -23.5t24.5 -63.5q0 -39 -24 -61.5t-67 -22.5t-67 22.5z" />
    <glyph glyph-name="uni01CA" unicode="&#x1ca;" horiz-adv-x="2046" 
d="M1233 1480h118v-1480h-129l-914 1294v-1294h-117v1480h128l914 -1294v1294zM1538 -284q102 130 148 265.5t46 307.5v1191h123v-1218q-8 -180 -61 -319.5t-174 -284.5z" />
    <glyph glyph-name="uni01CB" unicode="&#x1cb;" horiz-adv-x="2007" 
d="M1233 1480h118v-1480h-129l-914 1294v-1294h-117v1480h128l914 -1294v1294zM1519 -405q102 131 148 266.5t46 306.5v915h122v-908q0 -189 -55 -338.5t-179 -298.5zM1706 1367.5q-24 22.5 -24 61.5q0 40 24.5 63.5t66.5 23.5t66.5 -23.5t24.5 -63.5q0 -39 -24 -61.5
t-67 -22.5t-67 22.5z" />
    <glyph glyph-name="uni01CC" unicode="&#x1cc;" horiz-adv-x="1661" 
d="M172 1083h104l9 -128h10q74 70 170.5 107t202.5 37q174 0 271.5 -93.5t97.5 -298.5v-707h-122v704q0 151 -69 217.5t-200 66.5q-95 0 -189.5 -38t-162.5 -118v-832h-122v1083zM1173 -405q102 131 148 266.5t46 306.5v915h122v-908q0 -189 -55 -338.5t-179 -298.5z
M1360 1367.5q-24 22.5 -24 61.5q0 40 24.5 63.5t66.5 23.5t66.5 -23.5t24.5 -63.5q0 -39 -24 -61.5t-67 -22.5t-67 22.5z" />
    <glyph glyph-name="Gcaron" unicode="&#x1e6;" horiz-adv-x="1426" 
d="M1250 720v-702q-102 -16 -183.5 -23t-170.5 -7q-384 0 -579 185t-196 565q-1 260 90.5 429.5t256 250t387.5 80.5q91 0 177 -12t181 -36v-111q-99 27 -182.5 38t-167.5 11q-290 0 -451.5 -154.5t-161.5 -491.5q0 -330 159.5 -487t481.5 -157q131 0 241 16v606h118z
M978 1890h121l-265 -279h-118l-265 279h121l203 -219z" />
    <glyph glyph-name="gcaron" unicode="&#x1e7;" 
d="M344 -446q-90 14 -164 39v107q172 -55 328 -55q133 0 216.5 36.5t124.5 118t41 218.5v103h-8q-59 -64 -144 -100.5t-189 -36.5q-127 0 -225.5 55t-156 174.5t-57.5 306.5q0 290 141 434.5t419 144.5q180 0 342 -49v-1015q0 -175 -55.5 -284.5t-165.5 -160t-278 -50.5
q-79 0 -169 14zM750.5 127.5q81.5 35.5 139.5 107.5v733q-101 27 -231 27q-212 0 -318 -112t-106 -351q0 -237 91.5 -338.5t252.5 -101.5q90 0 171.5 35.5zM807 1616h109l-248 -359h-116l-248 359h109l197 -291z" />
    <glyph glyph-name="uni01EA" unicode="&#x1ea;" horiz-adv-x="1512" 
d="M784 -93.5q-60 -59.5 -60 -131.5q0 -56 39 -86t114 -30q39 0 79 9.5t96 29.5v-69q-90 -38 -181 -38q-112 0 -172 46.5t-60 131.5q0 64 32 116.5t105 96.5h-17q-300 0 -469 186.5t-169 571.5q0 259 79 428t221.5 249.5t334.5 80.5q296 0 465.5 -185t169.5 -573
q0 -308 -106.5 -484.5t-289.5 -238.5q-151 -51 -211 -110.5zM1129.5 245.5q133.5 153.5 133.5 489.5q0 653 -507 653q-240 0 -373.5 -153.5t-133.5 -489.5q0 -653 507 -653q240 0 373.5 153.5z" />
    <glyph glyph-name="uni01EB" unicode="&#x1eb;" horiz-adv-x="1162" 
d="M553.5 -95.5q-53.5 -59.5 -53.5 -128.5q0 -55 36 -86t97 -31q72 0 141 34l17 -64q-37 -19 -79.5 -28.5t-84.5 -9.5q-97 0 -153.5 47t-56.5 131q0 132 129 213q-207 11 -321.5 148.5t-114.5 410.5q0 282 125 420t346 138q223 0 347 -136.5t124 -421.5q0 -228 -82 -361.5
t-233 -176.5q-130 -39 -183.5 -98.5zM324.5 192.5q89.5 -107.5 256.5 -107.5t256.5 107t89.5 347q0 243 -89.5 350t-256.5 107t-256.5 -106t-89.5 -347q0 -243 89.5 -350.5z" />
    <glyph glyph-name="uni01F1" unicode="&#x1f1;" horiz-adv-x="2625" 
d="M381.5 -5.5q-85.5 5.5 -190.5 18.5v1441q95 20 198.5 30.5t198.5 10.5q377 0 569 -188t192 -567q0 -381 -196.5 -566t-590.5 -185q-95 0 -180.5 5.5zM1063 253q158 155 158 487q0 331 -157 488.5t-475 157.5q-120 0 -275 -24v-1247q109 -17 268 -17q323 0 481 155z
M1650 109h909v-109h-1078v70l897 1301h-884v109h1053v-70z" />
    <glyph glyph-name="uni01F2" unicode="&#x1f2;" horiz-adv-x="2427" 
d="M381.5 -5.5q-85.5 5.5 -190.5 18.5v1441q95 20 198.5 30.5t198.5 10.5q377 0 569 -188t192 -567q0 -381 -196.5 -566t-590.5 -185q-95 0 -180.5 5.5zM1063 253q158 155 158 487q0 331 -157 488.5t-475 157.5q-120 0 -275 -24v-1247q109 -17 268 -17q323 0 481 155z
M1695 104h674v-104h-834v75l661 904h-648v104h808v-75z" />
    <glyph glyph-name="uni01F3" unicode="&#x1f3;" horiz-adv-x="2140" 
d="M326 38q-101 56 -158.5 176t-57.5 305q0 580 565 580q99 0 215 -19v536h122v-1616h-105l-9 125h-10q-57 -67 -141.5 -105t-186.5 -38q-133 0 -234 56zM754 127q80 37 136 115v728q-45 12 -102.5 18.5t-115.5 6.5q-222 0 -329.5 -112t-107.5 -352q0 -236 91 -338.5
t258 -102.5q90 0 170 37zM1408 104h674v-104h-834v75l661 904h-648v104h808v-75z" />
    <glyph glyph-name="uni01F4" unicode="&#x1f4;" horiz-adv-x="1426" 
d="M1250 720v-702q-102 -16 -183.5 -23t-170.5 -7q-384 0 -579 185t-196 565q-1 260 90.5 429.5t256 250t387.5 80.5q91 0 177 -12t181 -36v-111q-99 27 -182.5 38t-167.5 11q-290 0 -451.5 -154.5t-161.5 -491.5q0 -330 159.5 -487t481.5 -157q131 0 241 16v606h118z
M717 1611l200 279h138l-222 -279h-116z" />
    <glyph glyph-name="uni01F5" unicode="&#x1f5;" 
d="M344 -446q-90 14 -164 39v107q172 -55 328 -55q133 0 216.5 36.5t124.5 118t41 218.5v103h-8q-59 -64 -144 -100.5t-189 -36.5q-127 0 -225.5 55t-156 174.5t-57.5 306.5q0 290 141 434.5t419 144.5q180 0 342 -49v-1015q0 -175 -55.5 -284.5t-165.5 -160t-278 -50.5
q-79 0 -169 14zM750.5 127.5q81.5 35.5 139.5 107.5v733q-101 27 -231 27q-212 0 -318 -112t-106 -351q0 -237 91.5 -338.5t252.5 -101.5q90 0 171.5 35.5zM552 1257l242 359h137l-263 -359h-116z" />
    <glyph glyph-name="Aringacute" unicode="&#x1fa;" horiz-adv-x="1400" 
d="M1041 499h-685l-193 -499h-126l576 1474q-47 24 -74 68.5t-27 100.5q0 54 25 97.5t68.5 68t97.5 24.5q53 0 94 -23l129 133h113l-182 -183q37 -51 37 -117q0 -58 -28.5 -103t-77.5 -68l575 -1472h-129zM615 1733.5q-34 -33.5 -34 -90.5t34 -90.5t88 -33.5t88 33.5
t34 90.5t-34 90.5t-88 33.5t-88 -33.5zM398 607h601l-300 777z" />
    <glyph glyph-name="aringacute" unicode="&#x1fb;" horiz-adv-x="1072" 
d="M730.5 1063.5q90.5 -35.5 137.5 -118t47 -223.5v-722h-104l-9 127h-10q-57 -67 -148.5 -105.5t-194.5 -38.5q-105 0 -181 35t-116.5 100.5t-40.5 155.5q0 139 94 215.5t301 98.5l289 33v104q0 105 -34 164t-100.5 82.5t-171.5 23.5q-72 0 -153 -12.5t-158 -39.5v106
q68 24 154.5 37t168.5 13q139 0 229.5 -35.5zM646.5 119.5q83.5 36.5 148.5 110.5v300l-283 -32q-146 -17 -210.5 -68.5t-64.5 -145.5q0 -97 59 -149t176 -52q91 0 174.5 36.5zM684 1562q40 -51 40 -120q0 -54 -25 -97t-68.5 -67.5t-97.5 -24.5t-97.5 24.5t-68.5 67.5
t-25 97t25 97.5t68.5 68t97.5 24.5q50 0 91 -21l143 169h113zM621 1351.5q34 33.5 34 90.5q0 58 -34 91.5t-88 33.5t-88 -33.5t-34 -91.5q0 -57 34 -90.5t88 -33.5t88 33.5z" />
    <glyph glyph-name="AEacute" unicode="&#x1fc;" horiz-adv-x="1913" 
d="M1096 108h727v-108h-842l-38 499h-582l-197 -499h-127l587 1480h1189v-108h-817l44 -558h674v-108h-665zM403 607h532l-59 765h-171zM872 1611l200 279h138l-222 -279h-116z" />
    <glyph glyph-name="aeacute" unicode="&#x1fd;" horiz-adv-x="1751" 
d="M1660 498h-745q7 -216 108 -314.5t296 -98.5q126 0 288 50v-105q-157 -49 -300 -49q-311 0 -432 203q-96 -110 -199.5 -155.5t-218.5 -45.5q-107 0 -185 35t-119.5 100.5t-41.5 156.5q0 146 102.5 230.5t321.5 84.5h260v135q0 105 -34.5 164t-100.5 82.5t-171 23.5
q-72 0 -152.5 -12.5t-158.5 -39.5v106q69 25 153.5 37.5t166.5 12.5q155 0 249 -48.5t130 -158.5q52 104 142.5 156t215.5 52q204 0 314.5 -140t110.5 -418v-44zM1000.5 905q-80.5 -99 -85.5 -315h626q-5 216 -83 315t-227 99q-150 0 -230.5 -99zM666.5 128
q92.5 45 167.5 146q-34 96 -38 225h-260q-299 0 -299 -215q0 -97 60 -149t178 -52q99 0 191.5 45zM798 1257l242 359h137l-263 -359h-116z" />
    <glyph glyph-name="Oslashacute" unicode="&#x1fe;" horiz-adv-x="1512" 
d="M1391 740q0 -259 -79 -428t-221.5 -249.5t-334.5 -80.5q-270 0 -429 149l-122 -154l-68 53l131 165q-147 192 -147 545q0 259 79 428t221.5 249.5t334.5 80.5q270 0 429 -149l122 154l68 -53l-131 -165q147 -192 147 -545zM348 296l762 959q-126 133 -354 133
q-240 0 -373.5 -153.5t-133.5 -489.5q0 -287 99 -449zM1129.5 245.5q133.5 153.5 133.5 489.5q0 287 -99 449l-762 -959q126 -133 354 -133q240 0 373.5 153.5zM691 1611l200 279h138l-222 -279h-116z" />
    <glyph glyph-name="oslashacute" unicode="&#x1ff;" horiz-adv-x="1162" 
d="M1052 541q0 -282 -125.5 -421t-345.5 -139q-185 0 -299 92l-73 -98l-67 51l80 107q-112 142 -112 408q0 282 125 420t346 138q185 0 297 -89l74 98l67 -51l-80 -107q113 -143 113 -409zM323 890.5q-90 -106.5 -90 -347.5q0 -201 65 -314l515 689q-83 79 -232 79
q-168 0 -258 -106.5zM839 191q90 107 90 348q0 204 -66 315l-516 -689q84 -81 234 -81q168 0 258 107zM515 1257l242 359h137l-263 -359h-116z" />
    <glyph glyph-name="uni0200" unicode="&#x200;" horiz-adv-x="1400" 
d="M1234 0l-193 499h-685l-193 -499h-126l578 1480h170l578 -1480h-129zM398 607h601l-300 777zM480 1611l-152 279h110l144 -279h-102zM820 1611l-152 279h110l144 -279h-102z" />
    <glyph glyph-name="uni0201" unicode="&#x201;" horiz-adv-x="1072" 
d="M730.5 1063.5q90.5 -35.5 137.5 -118t47 -223.5v-722h-104l-9 127h-10q-57 -67 -148.5 -105.5t-194.5 -38.5q-105 0 -181 35t-116.5 100.5t-40.5 155.5q0 139 94 215.5t301 98.5l289 33v104q0 105 -34 164t-100.5 82.5t-171.5 23.5q-72 0 -153 -12.5t-158 -39.5v106
q68 24 154.5 37t168.5 13q139 0 229.5 -35.5zM646.5 119.5q83.5 36.5 148.5 110.5v300l-283 -32q-146 -17 -210.5 -68.5t-64.5 -145.5q0 -97 59 -149t176 -52q91 0 174.5 36.5zM312 1257l-170 359h111l161 -359h-102zM652 1257l-170 359h111l161 -359h-102z" />
    <glyph glyph-name="uni0202" unicode="&#x202;" horiz-adv-x="1400" 
d="M1234 0l-193 499h-685l-193 -499h-126l578 1480h170l578 -1480h-129zM398 607h601l-300 777zM469 1814q80 66 230 66t232 -66.5t94 -178.5h-89q-13 81 -67.5 123t-169.5 42q-114 0 -167.5 -42t-65.5 -123h-89q12 113 92 179z" />
    <glyph glyph-name="uni0203" unicode="&#x203;" horiz-adv-x="1072" 
d="M730.5 1063.5q90.5 -35.5 137.5 -118t47 -223.5v-722h-104l-9 127h-10q-57 -67 -148.5 -105.5t-194.5 -38.5q-105 0 -181 35t-116.5 100.5t-40.5 155.5q0 139 94 215.5t301 98.5l289 33v104q0 105 -34 164t-100.5 82.5t-171.5 23.5q-72 0 -153 -12.5t-158 -39.5v106
q68 24 154.5 37t168.5 13q139 0 229.5 -35.5zM646.5 119.5q83.5 36.5 148.5 110.5v300l-283 -32q-146 -17 -210.5 -68.5t-64.5 -145.5q0 -97 59 -149t176 -52q91 0 174.5 36.5zM313 1521q77 85 218 85q140 0 219.5 -86t86.5 -235h-88q-8 115 -61.5 177t-156.5 62
q-200 0 -214 -239h-88q7 151 84 236z" />
    <glyph glyph-name="uni0204" unicode="&#x204;" horiz-adv-x="1230" 
d="M313 108h827v-108h-949v1480h939v-108h-817v-558h717v-108h-717v-598zM461 1611l-152 279h110l144 -279h-102zM801 1611l-152 279h110l144 -279h-102z" />
    <glyph glyph-name="uni0205" unicode="&#x205;" horiz-adv-x="1079" 
d="M988 498h-753q7 -217 108.5 -315t300.5 -98q126 0 290 50v-105q-160 -49 -303 -49q-257 0 -389 136.5t-132 424.5q0 276 117.5 416.5t329.5 140.5q209 0 320 -140t111 -419v-42zM321.5 905q-81.5 -99 -86.5 -315h634q-4 215 -83 314.5t-230 99.5q-153 0 -234.5 -99z
M338 1257l-170 359h111l161 -359h-102zM678 1257l-170 359h111l161 -359h-102z" />
    <glyph glyph-name="uni0206" unicode="&#x206;" horiz-adv-x="1230" 
d="M313 108h827v-108h-949v1480h939v-108h-817v-558h717v-108h-717v-598zM450 1814q80 66 230 66t232 -66.5t94 -178.5h-89q-13 81 -67.5 123t-169.5 42q-114 0 -167.5 -42t-65.5 -123h-89q12 113 92 179z" />
    <glyph glyph-name="uni0207" unicode="&#x207;" horiz-adv-x="1079" 
d="M988 498h-753q7 -217 108.5 -315t300.5 -98q126 0 290 50v-105q-160 -49 -303 -49q-257 0 -389 136.5t-132 424.5q0 276 117.5 416.5t329.5 140.5q209 0 320 -140t111 -419v-42zM321.5 905q-81.5 -99 -86.5 -315h634q-4 215 -83 314.5t-230 99.5q-153 0 -234.5 -99z
M339 1521q77 85 218 85q140 0 219.5 -86t86.5 -235h-88q-8 115 -61.5 177t-156.5 62q-200 0 -214 -239h-88q7 151 84 236z" />
    <glyph glyph-name="uni0208" unicode="&#x208;" horiz-adv-x="505" 
d="M191 0v1480h123v-1480h-123zM31 1611l-152 279h110l144 -279h-102zM371 1611l-152 279h110l144 -279h-102z" />
    <glyph glyph-name="uni0209" unicode="&#x209;" horiz-adv-x="466" 
d="M172 0v1083h122v-1083h-122zM12 1257l-170 359h111l161 -359h-102zM352 1257l-170 359h111l161 -359h-102z" />
    <glyph glyph-name="uni020A" unicode="&#x20a;" horiz-adv-x="505" 
d="M191 0v1480h123v-1480h-123zM20 1814q80 66 230 66t232 -66.5t94 -178.5h-89q-13 81 -67.5 123t-169.5 42q-114 0 -167.5 -42t-65.5 -123h-89q12 113 92 179z" />
    <glyph glyph-name="uni020B" unicode="&#x20b;" horiz-adv-x="466" 
d="M172 0v1083h122v-1083h-122zM13 1521q77 85 218 85q140 0 219.5 -86t86.5 -235h-88q-8 115 -61.5 177t-156.5 62q-200 0 -214 -239h-88q7 151 84 236z" />
    <glyph glyph-name="uni020C" unicode="&#x20c;" horiz-adv-x="1512" 
d="M420 62.5q-142 80.5 -220.5 249.5t-78.5 428t79 428t221.5 249.5t334.5 80.5q194 0 336 -80.5t220.5 -249.5t78.5 -428t-79 -428t-221.5 -249.5t-334.5 -80.5q-194 0 -336 80.5zM1129.5 245.5q133.5 153.5 133.5 489.5q0 653 -507 653q-240 0 -373.5 -153.5
t-133.5 -489.5q0 -653 507 -653q240 0 373.5 153.5zM535 1611l-152 279h110l144 -279h-102zM875 1611l-152 279h110l144 -279h-102z" />
    <glyph glyph-name="uni020D" unicode="&#x20d;" horiz-adv-x="1162" 
d="M234.5 118.5q-124.5 137.5 -124.5 422.5q0 282 125 420t346 138q223 0 347 -136.5t124 -421.5q0 -282 -125.5 -421t-345.5 -139q-222 0 -346.5 137.5zM837.5 192q89.5 107 89.5 347q0 243 -89.5 350t-256.5 107t-256.5 -106t-89.5 -347q0 -243 89.5 -350.5t256.5 -107.5
t256.5 107zM360 1257l-170 359h111l161 -359h-102zM700 1257l-170 359h111l161 -359h-102z" />
    <glyph glyph-name="uni020E" unicode="&#x20e;" horiz-adv-x="1512" 
d="M420 62.5q-142 80.5 -220.5 249.5t-78.5 428t79 428t221.5 249.5t334.5 80.5q194 0 336 -80.5t220.5 -249.5t78.5 -428t-79 -428t-221.5 -249.5t-334.5 -80.5q-194 0 -336 80.5zM1129.5 245.5q133.5 153.5 133.5 489.5q0 653 -507 653q-240 0 -373.5 -153.5
t-133.5 -489.5q0 -653 507 -653q240 0 373.5 153.5zM524 1814q80 66 230 66t232 -66.5t94 -178.5h-89q-13 81 -67.5 123t-169.5 42q-114 0 -167.5 -42t-65.5 -123h-89q12 113 92 179z" />
    <glyph glyph-name="uni020F" unicode="&#x20f;" horiz-adv-x="1162" 
d="M234.5 118.5q-124.5 137.5 -124.5 422.5q0 282 125 420t346 138q223 0 347 -136.5t124 -421.5q0 -282 -125.5 -421t-345.5 -139q-222 0 -346.5 137.5zM837.5 192q89.5 107 89.5 347q0 243 -89.5 350t-256.5 107t-256.5 -106t-89.5 -347q0 -243 89.5 -350.5t256.5 -107.5
t256.5 107zM361 1521q77 85 218 85q140 0 219.5 -86t86.5 -235h-88q-8 115 -61.5 177t-156.5 62q-200 0 -214 -239h-88q7 151 84 236z" />
    <glyph glyph-name="uni0210" unicode="&#x210;" horiz-adv-x="1362" 
d="M1147 0l-500 629q-56 -2 -88 -2q-65 0 -126 3t-120 8v-638h-122v1454q96 19 192 30t211 11q202 0 332 -45t193.5 -140t63.5 -245q2 -353 -408 -422l515 -643h-143zM433.5 733.5q50.5 -2.5 127.5 -2.5q264 0 383.5 81t119.5 250q0 121 -48 192.5t-149.5 104t-266.5 32.5
q-86 0 -150 -6t-137 -19v-623q70 -7 120.5 -9.5zM435 1611l-152 279h110l144 -279h-102zM775 1611l-152 279h110l144 -279h-102z" />
    <glyph glyph-name="uni0211" unicode="&#x211;" horiz-adv-x="757" 
d="M172 1083h103l10 -146h10q61 73 155 114.5t192 41.5q49 0 100 -9v-116q-44 8 -104 8q-91 0 -187 -41.5t-157 -119.5v-815h-122v1083zM232 1257l-170 359h111l161 -359h-102zM572 1257l-170 359h111l161 -359h-102z" />
    <glyph glyph-name="uni0212" unicode="&#x212;" horiz-adv-x="1362" 
d="M1147 0l-500 629q-56 -2 -88 -2q-65 0 -126 3t-120 8v-638h-122v1454q96 19 192 30t211 11q202 0 332 -45t193.5 -140t63.5 -245q2 -353 -408 -422l515 -643h-143zM433.5 733.5q50.5 -2.5 127.5 -2.5q264 0 383.5 81t119.5 250q0 121 -48 192.5t-149.5 104t-266.5 32.5
q-86 0 -150 -6t-137 -19v-623q70 -7 120.5 -9.5zM424 1814q80 66 230 66t232 -66.5t94 -178.5h-89q-13 81 -67.5 123t-169.5 42q-114 0 -167.5 -42t-65.5 -123h-89q12 113 92 179z" />
    <glyph glyph-name="uni0213" unicode="&#x213;" horiz-adv-x="757" 
d="M172 1083h103l10 -146h10q61 73 155 114.5t192 41.5q49 0 100 -9v-116q-44 8 -104 8q-91 0 -187 -41.5t-157 -119.5v-815h-122v1083zM233 1521q77 85 218 85q140 0 219.5 -86t86.5 -235h-88q-8 115 -61.5 177t-156.5 62q-200 0 -214 -239h-88q7 151 84 236z" />
    <glyph glyph-name="uni0214" unicode="&#x214;" horiz-adv-x="1485" 
d="M427.5 43.5q-123.5 61.5 -184 190.5t-60.5 332v914h123v-929q0 -162 47 -263t143.5 -149t247.5 -48t247.5 48t143.5 149t47 263v929h120v-914q0 -204 -60 -332.5t-183 -190t-315 -61.5q-193 0 -316.5 61.5zM523 1611l-152 279h110l144 -279h-102zM863 1611l-152 279h110
l144 -279h-102z" />
    <glyph glyph-name="uni0215" unicode="&#x215;" horiz-adv-x="1185" 
d="M254 74.5q-97 92.5 -97 294.5v714h122v-708q0 -150 69.5 -216t195.5 -66q94 0 187 39.5t160 117.5v833h122v-1083h-104l-9 123h-9q-74 -69 -169 -105t-200 -36q-171 0 -268 92.5zM364 1257l-170 359h111l161 -359h-102zM704 1257l-170 359h111l161 -359h-102z" />
    <glyph glyph-name="uni0216" unicode="&#x216;" horiz-adv-x="1485" 
d="M427.5 43.5q-123.5 61.5 -184 190.5t-60.5 332v914h123v-929q0 -162 47 -263t143.5 -149t247.5 -48t247.5 48t143.5 149t47 263v929h120v-914q0 -204 -60 -332.5t-183 -190t-315 -61.5q-193 0 -316.5 61.5zM512 1814q80 66 230 66t232 -66.5t94 -178.5h-89
q-13 81 -67.5 123t-169.5 42q-114 0 -167.5 -42t-65.5 -123h-89q12 113 92 179z" />
    <glyph glyph-name="uni0217" unicode="&#x217;" horiz-adv-x="1185" 
d="M254 74.5q-97 92.5 -97 294.5v714h122v-708q0 -150 69.5 -216t195.5 -66q94 0 187 39.5t160 117.5v833h122v-1083h-104l-9 123h-9q-74 -69 -169 -105t-200 -36q-171 0 -268 92.5zM365 1521q77 85 218 85q140 0 219.5 -86t86.5 -235h-88q-8 115 -61.5 177t-156.5 62
q-200 0 -214 -239h-88q7 151 84 236z" />
    <glyph glyph-name="Scommaaccent" unicode="&#x218;" horiz-adv-x="1113" 
d="M296 -2.5q-99 15.5 -188 46.5v110q97 -33 195 -48.5t188 -15.5q205 0 307 75.5t102 222.5q0 82 -34 136t-106.5 90.5t-196.5 64.5l-78 17q-203 45 -300.5 142t-97.5 256q0 126 59.5 216.5t178 139t291.5 48.5q91 0 180 -12.5t166 -36.5v-110q-168 51 -345 51
q-202 0 -303 -74.5t-101 -214.5q0 -81 30 -135.5t98 -91.5t184 -63l78 -18q221 -49 322 -144.5t101 -254.5q0 -131 -62.5 -223.5t-183 -140.5t-291.5 -48q-94 0 -193 15.5zM628 -197q23 -25 23 -74q0 -42 -13.5 -92.5t-37.5 -95.5h-77q32 77 37 140q-39 1 -61 21t-22 53
q0 34 22 53.5t62 19.5q44 0 67 -25z" />
    <glyph glyph-name="scommaaccent" unicode="&#x219;" horiz-adv-x="948" 
d="M127 25v105q83 -25 157 -35.5t157 -10.5q159 0 232.5 51t73.5 149q0 81 -44 124t-153 64l-158 30q-148 29 -215.5 101t-67.5 190q0 91 46 159.5t142.5 107.5t241.5 39q143 0 268 -35v-104q-72 20 -134 28.5t-132 8.5q-165 0 -238.5 -54t-73.5 -147q0 -74 42.5 -120.5
t146.5 -66.5l158 -30q153 -30 222 -98.5t69 -188.5q0 -146 -109 -228.5t-320 -82.5q-172 0 -311 44zM542 -197q23 -25 23 -74q0 -42 -13.5 -92.5t-37.5 -95.5h-77q32 77 37 140q-39 1 -61 21t-22 53q0 34 22 53.5t62 19.5q44 0 67 -25z" />
    <glyph glyph-name="uni021A" unicode="&#x21a;" horiz-adv-x="1215" 
d="M546 0v1370h-529v110h1181v-110h-529v-1370h-123zM672 -197q23 -25 23 -74q0 -42 -13.5 -92.5t-37.5 -95.5h-77q32 77 37 140q-39 1 -61 21t-22 53q0 34 22 53.5t62 19.5q44 0 67 -25z" />
    <glyph glyph-name="uni021B" unicode="&#x21b;" horiz-adv-x="777" 
d="M764 109v-108q-83 -19 -171 -19q-175 0 -267.5 88.5t-92.5 273.5v635h-221v104h221l19 397h103v-397h389v-104h-389v-615q0 -146 64.5 -210t195.5 -64q60 0 149 19zM563 -197q23 -25 23 -74q0 -42 -13.5 -92.5t-37.5 -95.5h-77q32 77 37 140q-39 1 -61 21t-22 53
q0 34 22 53.5t62 19.5q44 0 67 -25z" />
    <glyph glyph-name="uni022A" unicode="&#x22a;" horiz-adv-x="1512" 
d="M420 62.5q-142 80.5 -220.5 249.5t-78.5 428t79 428t221.5 249.5t334.5 80.5q194 0 336 -80.5t220.5 -249.5t78.5 -428t-79 -428t-221.5 -249.5t-334.5 -80.5q-194 0 -336 80.5zM1129.5 245.5q133.5 153.5 133.5 489.5q0 653 -507 653q-240 0 -373.5 -153.5
t-133.5 -489.5q0 -653 507 -653q240 0 373.5 153.5zM445 1693.5q-23 21.5 -23 58.5t23 59t63 22q39 0 62 -22t23 -59t-23 -58.5t-62 -21.5q-40 0 -63 21.5zM942 1693.5q-23 21.5 -23 58.5t23 59t62 22q40 0 63 -22t23 -59t-23 -58.5t-63 -21.5q-39 0 -62 21.5zM450 1961v88
h612v-88h-612z" />
    <glyph glyph-name="uni022B" unicode="&#x22b;" horiz-adv-x="1162" 
d="M234.5 118.5q-124.5 137.5 -124.5 422.5q0 282 125 420t346 138q223 0 347 -136.5t124 -421.5q0 -282 -125.5 -421t-345.5 -139q-222 0 -346.5 137.5zM837.5 192q89.5 107 89.5 347q0 243 -89.5 350t-256.5 107t-256.5 -106t-89.5 -347q0 -243 89.5 -350.5t256.5 -107.5
t256.5 107zM288.5 1360.5q-23.5 22.5 -23.5 60.5q0 39 23.5 62.5t62.5 23.5t62.5 -23.5t23.5 -62.5q0 -38 -23.5 -60.5t-62.5 -22.5t-62.5 22.5zM748.5 1360.5q-23.5 22.5 -23.5 60.5q0 39 23.5 62.5t62.5 23.5t62.5 -23.5t23.5 -62.5q0 -38 -23.5 -60.5t-62.5 -22.5
t-62.5 22.5zM266 1666v88h630v-88h-630z" />
    <glyph glyph-name="uni022C" unicode="&#x22c;" horiz-adv-x="1512" 
d="M420 62.5q-142 80.5 -220.5 249.5t-78.5 428t79 428t221.5 249.5t334.5 80.5q194 0 336 -80.5t220.5 -249.5t78.5 -428t-79 -428t-221.5 -249.5t-334.5 -80.5q-194 0 -336 80.5zM1129.5 245.5q133.5 153.5 133.5 489.5q0 653 -507 653q-240 0 -373.5 -153.5
t-133.5 -489.5q0 -653 507 -653q240 0 373.5 153.5zM833.5 1691q-37.5 10 -93.5 30q-47 18 -78.5 26.5t-64.5 8.5q-55 0 -96.5 -17t-79.5 -54v93q32 32 75 47.5t102 15.5q43 0 80.5 -10t93.5 -30q47 -18 78.5 -26.5t64.5 -8.5q55 0 96.5 16.5t79.5 53.5v-93q-32 -32 -75 -47
t-102 -15q-43 0 -80.5 10zM450 1961v88h612v-88h-612z" />
    <glyph glyph-name="uni022D" unicode="&#x22d;" horiz-adv-x="1162" 
d="M234.5 118.5q-124.5 137.5 -124.5 422.5q0 282 125 420t346 138q223 0 347 -136.5t124 -421.5q0 -282 -125.5 -421t-345.5 -139q-222 0 -346.5 137.5zM837.5 192q89.5 107 89.5 347q0 243 -89.5 350t-256.5 107t-256.5 -106t-89.5 -347q0 -243 89.5 -350.5t256.5 -107.5
t256.5 107zM652 1370q-36 11 -88 32q-47 19 -75 27.5t-56 8.5q-50 0 -90 -18t-77 -56v97q62 64 168 64q40 0 76 -11t88 -32q47 -19 74.5 -27.5t56.5 -8.5q50 0 90 18t77 56v-97q-62 -64 -168 -64q-40 0 -76 11zM266 1666v88h630v-88h-630z" />
    <glyph glyph-name="uni0230" unicode="&#x230;" horiz-adv-x="1512" 
d="M420 62.5q-142 80.5 -220.5 249.5t-78.5 428t79 428t221.5 249.5t334.5 80.5q194 0 336 -80.5t220.5 -249.5t78.5 -428t-79 -428t-221.5 -249.5t-334.5 -80.5q-194 0 -336 80.5zM1129.5 245.5q133.5 153.5 133.5 489.5q0 653 -507 653q-240 0 -373.5 -153.5
t-133.5 -489.5q0 -653 507 -653q240 0 373.5 153.5zM689.5 1693.5q-24.5 21.5 -24.5 58.5t24.5 59t66.5 22t66.5 -22t24.5 -59t-24.5 -58.5t-66.5 -21.5t-66.5 21.5zM450 1961v88h612v-88h-612z" />
    <glyph glyph-name="uni0231" unicode="&#x231;" horiz-adv-x="1162" 
d="M234.5 118.5q-124.5 137.5 -124.5 422.5q0 282 125 420t346 138q223 0 347 -136.5t124 -421.5q0 -282 -125.5 -421t-345.5 -139q-222 0 -346.5 137.5zM837.5 192q89.5 107 89.5 347q0 243 -89.5 350t-256.5 107t-256.5 -106t-89.5 -347q0 -243 89.5 -350.5t256.5 -107.5
t256.5 107zM514 1359.5q-24 22.5 -24 61.5q0 40 24.5 63.5t66.5 23.5t66.5 -23.5t24.5 -63.5q0 -39 -24 -61.5t-67 -22.5t-67 22.5zM266 1667v88h630v-88h-630z" />
    <glyph glyph-name="uni0232" unicode="&#x232;" horiz-adv-x="1215" 
d="M1231 1480l-561 -813v-667h-124v666l-571 814h142l494 -703l487 703h133zM302 1707v88h612v-88h-612z" />
    <glyph glyph-name="uni0233" unicode="&#x233;" horiz-adv-x="1100" 
d="M950 1083h124l-625 -1523h-124l181 440h-36l-444 1083h131l393 -986zM236 1379v88h630v-88h-630z" />
    <glyph glyph-name="uni0237" unicode="&#x237;" horiz-adv-x="466" 
d="M-22 -405q102 131 148 266.5t46 306.5v915h122v-908q0 -189 -55 -338.5t-179 -298.5z" />
    <glyph glyph-name="uni0259" unicode="&#x259;" horiz-adv-x="1079" 
d="M837 965.5q132 -136.5 132 -424.5q0 -276 -117.5 -416.5t-329.5 -140.5q-209 0 -320 140t-111 419v42h753q-7 217 -108.5 315t-300.5 98q-126 0 -290 -50v105q160 49 303 49q257 0 389 -136.5zM757.5 178q81.5 99 86.5 315h-634q4 -215 83 -314.5t230 -99.5
q153 0 234.5 99z" />
    <glyph glyph-name="uni02BB" unicode="&#x2bb;" horiz-adv-x="1134" 
d="M632 1464q22 -20 22 -54q0 -33 -22 -53t-62 -20q-44 0 -67 25.5t-23 74.5q0 41 13.5 91.5t37.5 95.5h77q-32 -75 -37 -139q39 -1 61 -21z" />
    <glyph glyph-name="uni02BC" unicode="&#x2bc;" horiz-adv-x="1134" 
d="M718 1599q23 -25 23 -74q0 -42 -13.5 -92.5t-37.5 -95.5h-77q32 77 37 140q-39 1 -61 21t-22 53q0 34 22 53.5t62 19.5q44 0 67 -25z" />
    <glyph glyph-name="uni02BE" unicode="&#x2be;" horiz-adv-x="1134" 
d="M567 1318q54 0 88 33.5t34 90.5q0 58 -34 91.5t-88 33.5v65q54 0 97.5 -24.5t68.5 -68t25 -97.5t-25 -97t-68.5 -67.5t-97.5 -24.5v65z" />
    <glyph glyph-name="uni02BF" unicode="&#x2bf;" horiz-adv-x="1134" 
d="M469.5 1277.5q-43.5 24.5 -68.5 67.5t-25 97t25 97.5t68.5 68t97.5 24.5v-65q-54 0 -88 -33.5t-34 -91.5q0 -57 34 -90.5t88 -33.5v-65q-54 0 -97.5 24.5z" />
    <glyph glyph-name="circumflex" unicode="&#x2c6;" horiz-adv-x="1134" 
d="M867 1257h-108l-192 290l-192 -290h-108l242 359h116z" />
    <glyph glyph-name="caron" unicode="&#x2c7;" horiz-adv-x="1134" 
d="M764 1616h109l-248 -359h-116l-248 359h109l197 -291z" />
    <glyph glyph-name="uni02C8" unicode="&#x2c8;" horiz-adv-x="1134" 
d="M528 1218v400h78v-400h-78z" />
    <glyph glyph-name="uni02C9" unicode="&#x2c9;" horiz-adv-x="1134" 
d="M252 1379v88h630v-88h-630z" />
    <glyph glyph-name="uni02CA" unicode="&#x2ca;" horiz-adv-x="1134" 
d="M507 1257l242 359h140l-262 -359h-120z" />
    <glyph glyph-name="uni02CB" unicode="&#x2cb;" horiz-adv-x="1134" 
d="M507 1257l-262 359h140l242 -359h-120z" />
    <glyph glyph-name="uni02CC" unicode="&#x2cc;" horiz-adv-x="1134" 
d="M528 -440v400h78v-400h-78z" />
    <glyph glyph-name="breve" unicode="&#x2d8;" horiz-adv-x="1134" 
d="M349 1354.5q-79 85.5 -86 234.5h88q16 -240 218 -240q104 0 155.5 62t58.5 178h88q-7 -150 -84.5 -235t-217.5 -85q-141 0 -220 85.5z" />
    <glyph glyph-name="dotaccent" unicode="&#x2d9;" horiz-adv-x="1134" 
d="M500 1359.5q-24 22.5 -24 61.5q0 40 24.5 63.5t66.5 23.5t66.5 -23.5t24.5 -63.5q0 -39 -24 -61.5t-67 -22.5t-67 22.5z" />
    <glyph glyph-name="ring" unicode="&#x2da;" horiz-adv-x="1134" 
d="M469.5 1277.5q-43.5 24.5 -68.5 67.5t-25 97t25 97.5t68.5 68t97.5 24.5t97.5 -24.5t68.5 -68t25 -97.5t-25 -97t-68.5 -67.5t-97.5 -24.5t-97.5 24.5zM655 1351.5q34 33.5 34 90.5q0 58 -34 91.5t-88 33.5t-88 -33.5t-34 -91.5q0 -57 34 -90.5t88 -33.5t88 33.5z" />
    <glyph glyph-name="ogonek" unicode="&#x2db;" horiz-adv-x="1134" 
d="M333.5 -361.5q-55.5 47.5 -55.5 130.5q0 85 56.5 153.5t181.5 130.5l38 -53q-104 -55 -148.5 -107.5t-44.5 -117.5q0 -54 35.5 -85t98.5 -31q77 0 157 43v-71q-36 -19 -79.5 -29.5t-84.5 -10.5q-99 0 -154.5 47.5z" />
    <glyph glyph-name="tilde" unicode="&#x2dc;" horiz-adv-x="1134" 
d="M638 1370q-36 11 -88 32q-47 19 -75 27.5t-56 8.5q-50 0 -90 -18t-77 -56v97q62 64 168 64q40 0 76 -11t88 -32q47 -19 74.5 -27.5t56.5 -8.5q50 0 90 18t77 56v-97q-62 -64 -168 -64q-40 0 -76 11z" />
    <glyph glyph-name="hungarumlaut" unicode="&#x2dd;" horiz-adv-x="1134" 
d="M349 1257l161 359h108l-170 -359h-99zM686 1257l161 359h108l-170 -359h-99z" />
    <glyph glyph-name="gravecomb" unicode="&#x300;" horiz-adv-x="0" 
d="M-625 1257l-263 359h137l242 -359h-116z" />
    <glyph glyph-name="acutecomb" unicode="&#x301;" horiz-adv-x="0" 
d="M-625 1257l242 359h137l-263 -359h-116z" />
    <glyph glyph-name="uni0302" unicode="&#x302;" horiz-adv-x="0" 
d="M-267 1257h-108l-192 290l-192 -290h-108l242 359h116z" />
    <glyph glyph-name="tildecomb" unicode="&#x303;" horiz-adv-x="0" 
d="M-496 1370q-36 11 -88 32q-47 19 -75 27.5t-56 8.5q-50 0 -90 -18t-77 -56v97q62 64 168 64q40 0 76 -11t88 -32q47 -19 74.5 -27.5t56.5 -8.5q50 0 90 18t77 56v-97q-62 -64 -168 -64q-40 0 -76 11z" />
    <glyph glyph-name="uni0304" unicode="&#x304;" horiz-adv-x="0" 
d="M-882 1379v88h630v-88h-630z" />
    <glyph glyph-name="uni0306" unicode="&#x306;" horiz-adv-x="0" 
d="M-785 1354.5q-79 85.5 -86 234.5h88q16 -240 218 -240q104 0 155.5 62t58.5 178h88q-7 -150 -84.5 -235t-217.5 -85q-141 0 -220 85.5z" />
    <glyph glyph-name="uni0307" unicode="&#x307;" horiz-adv-x="0" 
d="M-634 1359.5q-24 22.5 -24 61.5q0 40 24.5 63.5t66.5 23.5t66.5 -23.5t24.5 -63.5q0 -39 -24 -61.5t-67 -22.5t-67 22.5z" />
    <glyph glyph-name="uni0308" unicode="&#x308;" horiz-adv-x="0" 
d="M-859.5 1360.5q-23.5 22.5 -23.5 60.5q0 39 23.5 62.5t62.5 23.5t62.5 -23.5t23.5 -62.5q0 -38 -23.5 -60.5t-62.5 -22.5t-62.5 22.5zM-399.5 1360.5q-23.5 22.5 -23.5 60.5q0 39 23.5 62.5t62.5 23.5t62.5 -23.5t23.5 -62.5q0 -38 -23.5 -60.5t-62.5 -22.5t-62.5 22.5z
" />
    <glyph glyph-name="hookabovecomb" unicode="&#x309;" horiz-adv-x="0" 
d="M-592 1322.5q15 27.5 34.5 44.5t50.5 38q34 23 50 39.5t16 41.5q0 37 -31.5 54t-97.5 17q-41 0 -84.5 -6t-79.5 -18v71q33 11 77.5 17.5t86.5 6.5q211 0 211 -138q0 -45 -21.5 -71t-63.5 -54q-39 -25 -59 -47.5t-22 -60.5h-83q1 38 16 65.5z" />
    <glyph glyph-name="uni030A" unicode="&#x30a;" horiz-adv-x="0" 
d="M-664.5 1277.5q-43.5 24.5 -68.5 67.5t-25 97t25 97.5t68.5 68t97.5 24.5t97.5 -24.5t68.5 -68t25 -97.5t-25 -97t-68.5 -67.5t-97.5 -24.5t-97.5 24.5zM-479 1351.5q34 33.5 34 90.5q0 58 -34 91.5t-88 33.5t-88 -33.5t-34 -91.5q0 -57 34 -90.5t88 -33.5t88 33.5z" />
    <glyph glyph-name="uni030B" unicode="&#x30b;" horiz-adv-x="0" 
d="M-785 1257l161 359h108l-170 -359h-99zM-448 1257l161 359h108l-170 -359h-99z" />
    <glyph glyph-name="uni030C" unicode="&#x30c;" horiz-adv-x="0" 
d="M-370 1616h109l-248 -359h-116l-248 359h109l197 -291z" />
    <glyph glyph-name="uni030F" unicode="&#x30f;" horiz-adv-x="0" 
d="M-788 1257l-170 359h111l161 -359h-102zM-448 1257l-170 359h111l161 -359h-102z" />
    <glyph glyph-name="uni0311" unicode="&#x311;" horiz-adv-x="0" 
d="M-787 1521q77 85 218 85q140 0 219.5 -86t86.5 -235h-88q-8 115 -61.5 177t-156.5 62q-200 0 -214 -239h-88q7 151 84 236z" />
    <glyph glyph-name="uni0312" unicode="&#x312;" horiz-adv-x="0" 
d="M-502 1464q22 -20 22 -54q0 -33 -22 -53t-62 -20q-44 0 -67 25.5t-23 74.5q0 41 13.5 91.5t37.5 95.5h77q-32 -75 -37 -139q39 -1 61 -21z" />
    <glyph glyph-name="uni031B" unicode="&#x31b;" horiz-adv-x="0" 
d="M-598 1480h48q205 0 205 166q0 38 -6 70.5t-18 70.5h96q13 -36 18.5 -69t5.5 -76q0 -119 -75.5 -183.5t-211.5 -64.5h-62v86z" />
    <glyph glyph-name="dotbelowcomb" unicode="&#x323;" horiz-adv-x="0" 
d="M-629.5 -316.5q-23.5 22.5 -23.5 60.5t23.5 61t62.5 23t62.5 -23t23.5 -61t-23.5 -60.5t-62.5 -22.5t-62.5 22.5z" />
    <glyph glyph-name="uni0324" unicode="&#x324;" horiz-adv-x="0" 
d="M-859.5 -318q-23.5 22 -23.5 61t23.5 62t62.5 23t62.5 -23t23.5 -62t-23.5 -61t-62.5 -22t-62.5 22zM-399.5 -318q-23.5 22 -23.5 61t23.5 62t62.5 23t62.5 -23t23.5 -62t-23.5 -61t-62.5 -22t-62.5 22z" />
    <glyph glyph-name="uni0326" unicode="&#x326;" horiz-adv-x="0" 
d="M-503 -197q23 -25 23 -74q0 -42 -13.5 -92.5t-37.5 -95.5h-77q32 77 37 140q-39 1 -61 21t-22 53q0 34 22 53.5t62 19.5q44 0 67 -25z" />
    <glyph glyph-name="uni0327" unicode="&#x327;" horiz-adv-x="0" 
d="M-404.5 -152q42.5 -39 42.5 -106q0 -72 -51.5 -111.5t-146.5 -39.5q-47 0 -94.5 9.5t-81.5 27.5v71q82 -41 174 -41q61 0 91 21t30 66t-30.5 66.5t-92.5 21.5h-38v187h77v-127q78 -6 120.5 -45z" />
    <glyph glyph-name="uni0328" unicode="&#x328;" horiz-adv-x="0" 
d="M-800.5 -361.5q-55.5 47.5 -55.5 130.5q0 85 56.5 153.5t181.5 130.5l38 -53q-104 -55 -148.5 -107.5t-44.5 -117.5q0 -54 35.5 -85t98.5 -31q77 0 157 43v-71q-36 -19 -79.5 -29.5t-84.5 -10.5q-99 0 -154.5 47.5z" />
    <glyph glyph-name="uni032E" unicode="&#x32e;" horiz-adv-x="0" 
d="M-730 -379.5q-68 32.5 -103.5 90t-37.5 132.5h88q10 -174 218 -174q206 0 214 174h88q-2 -116 -80 -185.5t-222 -69.5q-97 0 -165 32.5z" />
    <glyph glyph-name="uni0331" unicode="&#x331;" horiz-adv-x="0" 
d="M-853 -301v88h572v-88h-572z" />
    <glyph glyph-name="uni0394" unicode="&#x394;" horiz-adv-x="1400" 
d="M785 1480l578 -1480h-1326l578 1480h170zM699 1385l-496 -1277h992z" />
    <glyph glyph-name="uni03A9" unicode="&#x3a9;" horiz-adv-x="1512" 
d="M1301.5 398q-89.5 -174 -261.5 -291h351v-107h-519v95q199 128 295 296t96 400q0 292 -130 444.5t-377 152.5t-377 -152.5t-130 -444.5q0 -232 95.5 -400t294.5 -296v-95h-518v107h351q-172 117 -261.5 290.5t-89.5 401.5q0 221 74.5 378t217 239t343.5 82
q200 0 342.5 -82t217.5 -239t75 -378q0 -227 -89.5 -401z" />
    <glyph glyph-name="uni03BC" unicode="&#x3bc;" horiz-adv-x="1185" 
d="M1013 1083v-1083h-104l-9 123h-9q-71 -69 -162.5 -105t-192.5 -36q-176 0 -257 108v-530h-122v1523h122v-708q0 -150 69.5 -216t195.5 -66q94 0 187 39.5t160 117.5v833h122z" />
    <glyph glyph-name="pi" unicode="&#x3c0;" horiz-adv-x="1355" 
d="M1342 105v-108q-65 -15 -136 -15q-144 0 -219 76t-76 243l-4 678h-552v-981h-122v981h-221v104h1242v-104h-221v-659q0 -86 21 -136t63.5 -72t110.5 -22q47 0 114 15z" />
    <glyph glyph-name="uni1E08" unicode="&#x1e08;" horiz-adv-x="1216" 
d="M1014 1890l-222 -279h-116l200 279h138zM395.5 1235.5q-145.5 -152.5 -145.5 -493.5q0 -239 67.5 -382.5t191 -205.5t302.5 -62q92 0 176 14t181 47v-111q-166 -60 -365 -60h-20v-88q87 -4 136 -42.5t49 -108.5q0 -75 -56.5 -113.5t-159.5 -38.5q-51 0 -103.5 10
t-94.5 28v70q100 -41 194 -41q140 0 140 88q0 87 -142 87h-40v153q-585 52 -585 752q0 388 182 574t517 186q94 0 178.5 -12t169.5 -36v-111q-165 49 -344 49q-283 0 -428.5 -152.5z" />
    <glyph glyph-name="uni1E09" unicode="&#x1e09;" horiz-adv-x="917" 
d="M866 1616l-263 -359h-116l242 359h137zM417 946.5q-90 -45.5 -135 -144t-45 -257.5q0 -241 93 -348.5t280 -107.5q119 0 262 50v-108q-136 -50 -278 -50h-8v-88q78 -6 120.5 -45t42.5 -106q0 -72 -51.5 -111.5t-146.5 -39.5q-47 0 -94.5 9.5t-81.5 27.5v71
q82 -41 174 -41q61 0 91 21t30 66t-30.5 66.5t-92.5 21.5h-38v153q-399 47 -399 555q0 286 133.5 422t392.5 136q130 0 236 -31v-108q-113 32 -226 32q-139 0 -229 -45.5z" />
    <glyph glyph-name="uni1E0C" unicode="&#x1e0c;" horiz-adv-x="1470" 
d="M381.5 -5.5q-85.5 5.5 -190.5 18.5v1441q95 20 198.5 30.5t198.5 10.5q377 0 569 -188t192 -567q0 -381 -196.5 -566t-590.5 -185q-95 0 -180.5 5.5zM1063 253q158 155 158 487q0 331 -157 488.5t-475 157.5q-120 0 -275 -24v-1247q109 -17 268 -17q323 0 481 155z
M608.5 -312.5q-24.5 21.5 -24.5 58.5q0 38 24.5 60t66.5 22t66.5 -22t24.5 -60q0 -37 -24.5 -58.5t-66.5 -21.5t-66.5 21.5z" />
    <glyph glyph-name="uni1E0D" unicode="&#x1e0d;" 
d="M326 38q-101 56 -158.5 176t-57.5 305q0 580 565 580q99 0 215 -19v536h122v-1616h-105l-9 125h-10q-57 -67 -141.5 -105t-186.5 -38q-133 0 -234 56zM754 127q80 37 136 115v728q-45 12 -102.5 18.5t-115.5 6.5q-222 0 -329.5 -112t-107.5 -352q0 -236 91 -338.5
t258 -102.5q90 0 170 37zM529.5 -316.5q-23.5 22.5 -23.5 60.5t23.5 61t62.5 23t62.5 -23t23.5 -61t-23.5 -60.5t-62.5 -22.5t-62.5 22.5z" />
    <glyph glyph-name="uni1E0E" unicode="&#x1e0e;" horiz-adv-x="1470" 
d="M381.5 -5.5q-85.5 5.5 -190.5 18.5v1441q95 20 198.5 30.5t198.5 10.5q377 0 569 -188t192 -567q0 -381 -196.5 -566t-590.5 -185q-95 0 -180.5 5.5zM1063 253q158 155 158 487q0 331 -157 488.5t-475 157.5q-120 0 -275 -24v-1247q109 -17 268 -17q323 0 481 155z
M369 -297v88h612v-88h-612z" />
    <glyph glyph-name="uni1E0F" unicode="&#x1e0f;" 
d="M326 38q-101 56 -158.5 176t-57.5 305q0 580 565 580q99 0 215 -19v536h122v-1616h-105l-9 125h-10q-57 -67 -141.5 -105t-186.5 -38q-133 0 -234 56zM754 127q80 37 136 115v728q-45 12 -102.5 18.5t-115.5 6.5q-222 0 -329.5 -112t-107.5 -352q0 -236 91 -338.5
t258 -102.5q90 0 170 37zM306 -301v88h572v-88h-572z" />
    <glyph glyph-name="uni1E14" unicode="&#x1e14;" horiz-adv-x="1230" 
d="M313 108h827v-108h-949v1480h939v-108h-817v-558h717v-108h-717v-598zM620 1900l-221 232h144l201 -232h-124zM376 1707v88h612v-88h-612z" />
    <glyph glyph-name="uni1E15" unicode="&#x1e15;" horiz-adv-x="1079" 
d="M988 498h-753q7 -217 108.5 -315t300.5 -98q126 0 290 50v-105q-160 -49 -303 -49q-257 0 -389 136.5t-132 424.5q0 276 117.5 416.5t329.5 140.5q209 0 320 -140t111 -419v-42zM321.5 905q-81.5 -99 -86.5 -315h634q-4 215 -83 314.5t-230 99.5q-153 0 -234.5 -99z
M244 1379v88h630v-88h-630zM501 1609l-222 279h138l200 -279h-116z" />
    <glyph glyph-name="uni1E16" unicode="&#x1e16;" horiz-adv-x="1230" 
d="M313 108h827v-108h-949v1480h939v-108h-817v-558h717v-108h-717v-598zM620 1900l199 232h146l-220 -232h-125zM376 1707v88h612v-88h-612z" />
    <glyph glyph-name="uni1E17" unicode="&#x1e17;" horiz-adv-x="1079" 
d="M988 498h-753q7 -217 108.5 -315t300.5 -98q126 0 290 50v-105q-160 -49 -303 -49q-257 0 -389 136.5t-132 424.5q0 276 117.5 416.5t329.5 140.5q209 0 320 -140t111 -419v-42zM321.5 905q-81.5 -99 -86.5 -315h634q-4 215 -83 314.5t-230 99.5q-153 0 -234.5 -99z
M244 1379v88h630v-88h-630zM501 1609l200 279h138l-222 -279h-116z" />
    <glyph glyph-name="uni1E1C" unicode="&#x1e1c;" horiz-adv-x="1230" 
d="M452 1688q-82 66 -94 178h89q13 -81 67.5 -122.5t169.5 -41.5q114 0 167.5 41.5t65.5 122.5h89q-12 -113 -92 -178.5t-230 -65.5t-232 66zM718 0v-106q87 -4 136 -42.5t49 -108.5q0 -75 -56.5 -113.5t-159.5 -38.5q-51 0 -103.5 10t-94.5 28v70q100 -41 194 -41
q140 0 140 88q0 87 -142 87h-40v167h-450v1480h939v-108h-817v-558h717v-108h-717v-598h827v-108h-422z" />
    <glyph glyph-name="uni1E1D" unicode="&#x1e1d;" horiz-adv-x="1079" 
d="M341 1354.5q-79 85.5 -86 234.5h88q16 -240 218 -240q104 0 155.5 62t58.5 178h88q-7 -150 -84.5 -235t-217.5 -85q-141 0 -220 85.5zM988 498h-753q7 -217 108.5 -315t300.5 -98q126 0 290 50v-105q-160 -49 -303 -49h-30v-88q78 -6 120.5 -45t42.5 -106
q0 -72 -51.5 -111.5t-146.5 -39.5q-47 0 -94.5 9.5t-81.5 27.5v71q82 -41 174 -41q61 0 91 21t30 66t-30.5 66.5t-92.5 21.5h-38v154q-205 27 -309.5 163t-104.5 392q0 276 117.5 416.5t329.5 140.5q209 0 320 -140t111 -419v-42zM321.5 905q-81.5 -99 -86.5 -315h634
q-4 215 -83 314.5t-230 99.5q-153 0 -234.5 -99z" />
    <glyph glyph-name="uni1E20" unicode="&#x1e20;" horiz-adv-x="1426" 
d="M1250 720v-702q-102 -16 -183.5 -23t-170.5 -7q-384 0 -579 185t-196 565q-1 260 90.5 429.5t256 250t387.5 80.5q91 0 177 -12t181 -36v-111q-99 27 -182.5 38t-167.5 11q-290 0 -451.5 -154.5t-161.5 -491.5q0 -330 159.5 -487t481.5 -157q131 0 241 16v606h118z
M469 1707v88h612v-88h-612z" />
    <glyph glyph-name="uni1E21" unicode="&#x1e21;" 
d="M344 -446q-90 14 -164 39v107q172 -55 328 -55q133 0 216.5 36.5t124.5 118t41 218.5v103h-8q-59 -64 -144 -100.5t-189 -36.5q-127 0 -225.5 55t-156 174.5t-57.5 306.5q0 290 141 434.5t419 144.5q180 0 342 -49v-1015q0 -175 -55.5 -284.5t-165.5 -160t-278 -50.5
q-79 0 -169 14zM750.5 127.5q81.5 35.5 139.5 107.5v733q-101 27 -231 27q-212 0 -318 -112t-106 -351q0 -237 91.5 -338.5t252.5 -101.5q90 0 171.5 35.5zM295 1379v88h630v-88h-630z" />
    <glyph glyph-name="uni1E24" unicode="&#x1e24;" horiz-adv-x="1514" 
d="M191 0v1480h123v-663h886v663h124v-1480h-124v703h-886v-703h-123zM690.5 -312.5q-24.5 21.5 -24.5 58.5q0 38 24.5 60t66.5 22t66.5 -22t24.5 -60q0 -37 -24.5 -58.5t-66.5 -21.5t-66.5 21.5z" />
    <glyph glyph-name="uni1E25" unicode="&#x1e25;" horiz-adv-x="1195" 
d="M172 1616h122v-658h8q73 69 167.5 105t203.5 36q171 0 267.5 -92.5t96.5 -295.5v-711h-122v706q0 150 -70 215.5t-199 65.5q-97 0 -191 -39t-161 -117v-831h-122v1616zM543.5 -316.5q-23.5 22.5 -23.5 60.5t23.5 61t62.5 23t62.5 -23t23.5 -61t-23.5 -60.5t-62.5 -22.5
t-62.5 22.5z" />
    <glyph glyph-name="uni1E2A" unicode="&#x1e2a;" horiz-adv-x="1514" 
d="M191 0v1480h123v-663h886v663h124v-1480h-124v703h-886v-703h-123zM520.5 -339q-82.5 69 -87.5 183h89q6 -83 62 -127t175 -44q118 0 172.5 44t60.5 127h89q-5 -115 -86 -183.5t-236 -68.5q-156 0 -238.5 69z" />
    <glyph glyph-name="uni1E2B" unicode="&#x1e2b;" horiz-adv-x="1195" 
d="M172 1616h122v-658h8q73 69 167.5 105t203.5 36q171 0 267.5 -92.5t96.5 -295.5v-711h-122v706q0 150 -70 215.5t-199 65.5q-97 0 -191 -39t-161 -117v-831h-122v1616zM443 -379.5q-68 32.5 -103.5 90t-37.5 132.5h88q10 -174 218 -174q206 0 214 174h88
q-2 -116 -80 -185.5t-222 -69.5q-97 0 -165 32.5z" />
    <glyph glyph-name="uni1E2E" unicode="&#x1e2e;" horiz-adv-x="505" 
d="M191 0v1480h123v-1480h-123zM190 1900l199 232h146l-220 -232h-125zM-59 1693.5q-23 21.5 -23 58.5t23 59t63 22q39 0 62 -22t23 -59t-23 -58.5t-62 -21.5q-40 0 -63 21.5zM438 1693.5q-23 21.5 -23 58.5t23 59t62 22q40 0 63 -22t23 -59t-23 -58.5t-63 -21.5
q-39 0 -62 21.5z" />
    <glyph glyph-name="uni1E2F" unicode="&#x1e2f;" horiz-adv-x="466" 
d="M172 0v1083h122v-1083h-122zM-59.5 1360.5q-23.5 22.5 -23.5 60.5q0 39 23.5 62.5t62.5 23.5t62.5 -23.5t23.5 -62.5q0 -38 -23.5 -60.5t-62.5 -22.5t-62.5 22.5zM400.5 1360.5q-23.5 22.5 -23.5 60.5q0 39 23.5 62.5t62.5 23.5t62.5 -23.5t23.5 -62.5q0 -38 -23.5 -60.5
t-62.5 -22.5t-62.5 22.5zM195 1661l200 279h138l-222 -279h-116z" />
    <glyph glyph-name="uni1E36" unicode="&#x1e36;" horiz-adv-x="1121" 
d="M191 0v1480h123v-1370h791v-110h-914zM581.5 -312.5q-24.5 21.5 -24.5 58.5q0 38 24.5 60t66.5 22t66.5 -22t24.5 -60q0 -37 -24.5 -58.5t-66.5 -21.5t-66.5 21.5z" />
    <glyph glyph-name="uni1E37" unicode="&#x1e37;" horiz-adv-x="466" 
d="M172 0v1616h122v-1616h-122zM170.5 -316.5q-23.5 22.5 -23.5 60.5t23.5 61t62.5 23t62.5 -23t23.5 -61t-23.5 -60.5t-62.5 -22.5t-62.5 22.5z" />
    <glyph glyph-name="uni1E3A" unicode="&#x1e3a;" horiz-adv-x="1121" 
d="M191 0v1480h123v-1370h791v-110h-914zM342 -297v88h612v-88h-612z" />
    <glyph glyph-name="uni1E3B" unicode="&#x1e3b;" horiz-adv-x="466" 
d="M172 0v1616h122v-1616h-122zM-53 -301v88h572v-88h-572z" />
    <glyph glyph-name="uni1E42" unicode="&#x1e42;" horiz-adv-x="1820" 
d="M1481 1480h144v-1480h-117v1288l-540 -1085h-117l-539 1075v-1278h-117v1480h143l574 -1156zM847.5 -312.5q-24.5 21.5 -24.5 58.5q0 38 24.5 60t66.5 22t66.5 -22t24.5 -60q0 -37 -24.5 -58.5t-66.5 -21.5t-66.5 21.5z" />
    <glyph glyph-name="uni1E43" unicode="&#x1e43;" horiz-adv-x="1759" 
d="M1512.5 1006q89.5 -93 89.5 -295v-711h-122v706q0 150 -62.5 216t-174.5 66q-81 0 -162 -37t-140 -116q10 -51 10 -121v-714h-121v706q0 150 -60.5 216t-170.5 66q-84 0 -165 -40t-140 -121v-827h-122v1083h104l9 -128h10q66 71 151 107.5t181 36.5q206 0 282 -161
q78 84 171 122.5t186 38.5q157 0 246.5 -93zM828.5 -316.5q-23.5 22.5 -23.5 60.5t23.5 61t62.5 23t62.5 -23t23.5 -61t-23.5 -60.5t-62.5 -22.5t-62.5 22.5z" />
    <glyph glyph-name="uni1E44" unicode="&#x1e44;" horiz-adv-x="1541" 
d="M1233 1480h118v-1480h-129l-914 1294v-1294h-117v1480h128l914 -1294v1294zM704.5 1693.5q-24.5 21.5 -24.5 58.5t24.5 59t66.5 22t66.5 -22t24.5 -59t-24.5 -58.5t-66.5 -21.5t-66.5 21.5z" />
    <glyph glyph-name="uni1E45" unicode="&#x1e45;" horiz-adv-x="1195" 
d="M172 1083h104l9 -128h10q74 70 170.5 107t202.5 37q174 0 271.5 -93.5t97.5 -298.5v-707h-122v704q0 151 -69 217.5t-200 66.5q-95 0 -189.5 -38t-162.5 -118v-832h-122v1083zM539 1359.5q-24 22.5 -24 61.5q0 40 24.5 63.5t66.5 23.5t66.5 -23.5t24.5 -63.5
q0 -39 -24 -61.5t-67 -22.5t-67 22.5z" />
    <glyph glyph-name="uni1E46" unicode="&#x1e46;" horiz-adv-x="1541" 
d="M1233 1480h118v-1480h-129l-914 1294v-1294h-117v1480h128l914 -1294v1294zM704.5 -312.5q-24.5 21.5 -24.5 58.5q0 38 24.5 60t66.5 22t66.5 -22t24.5 -60q0 -37 -24.5 -58.5t-66.5 -21.5t-66.5 21.5z" />
    <glyph glyph-name="uni1E47" unicode="&#x1e47;" horiz-adv-x="1195" 
d="M172 1083h104l9 -128h10q74 70 170.5 107t202.5 37q174 0 271.5 -93.5t97.5 -298.5v-707h-122v704q0 151 -69 217.5t-200 66.5q-95 0 -189.5 -38t-162.5 -118v-832h-122v1083zM543.5 -316.5q-23.5 22.5 -23.5 60.5t23.5 61t62.5 23t62.5 -23t23.5 -61t-23.5 -60.5
t-62.5 -22.5t-62.5 22.5z" />
    <glyph glyph-name="uni1E48" unicode="&#x1e48;" horiz-adv-x="1541" 
d="M1233 1480h118v-1480h-129l-914 1294v-1294h-117v1480h128l914 -1294v1294zM465 -297v88h612v-88h-612z" />
    <glyph glyph-name="uni1E49" unicode="&#x1e49;" horiz-adv-x="1195" 
d="M172 1083h104l9 -128h10q74 70 170.5 107t202.5 37q174 0 271.5 -93.5t97.5 -298.5v-707h-122v704q0 151 -69 217.5t-200 66.5q-95 0 -189.5 -38t-162.5 -118v-832h-122v1083zM320 -301v88h572v-88h-572z" />
    <glyph glyph-name="uni1E4C" unicode="&#x1e4c;" horiz-adv-x="1512" 
d="M420 62.5q-142 80.5 -220.5 249.5t-78.5 428t79 428t221.5 249.5t334.5 80.5q194 0 336 -80.5t220.5 -249.5t78.5 -428t-79 -428t-221.5 -249.5t-334.5 -80.5q-194 0 -336 80.5zM1129.5 245.5q133.5 153.5 133.5 489.5q0 653 -507 653q-240 0 -373.5 -153.5
t-133.5 -489.5q0 -653 507 -653q240 0 373.5 153.5zM694 1900l199 232h146l-220 -232h-125zM833.5 1691q-37.5 10 -93.5 30q-47 18 -78.5 26.5t-64.5 8.5q-55 0 -96.5 -17t-79.5 -54v93q32 32 75 47.5t102 15.5q43 0 80.5 -10t93.5 -30q47 -18 78.5 -26.5t64.5 -8.5
q55 0 96.5 16.5t79.5 53.5v-93q-32 -32 -75 -47t-102 -15q-43 0 -80.5 10z" />
    <glyph glyph-name="uni1E4D" unicode="&#x1e4d;" horiz-adv-x="1162" 
d="M234.5 118.5q-124.5 137.5 -124.5 422.5q0 282 125 420t346 138q223 0 347 -136.5t124 -421.5q0 -282 -125.5 -421t-345.5 -139q-222 0 -346.5 137.5zM837.5 192q89.5 107 89.5 347q0 243 -89.5 350t-256.5 107t-256.5 -106t-89.5 -347q0 -243 89.5 -350.5t256.5 -107.5
t256.5 107zM652 1370q-36 11 -88 32q-47 19 -75 27.5t-56 8.5q-50 0 -90 -18t-77 -56v97q62 64 168 64q40 0 76 -11t88 -32q47 -19 74.5 -27.5t56.5 -8.5q50 0 90 18t77 56v-97q-62 -64 -168 -64q-40 0 -76 11zM543 1661l200 279h138l-222 -279h-116z" />
    <glyph glyph-name="uni1E4E" unicode="&#x1e4e;" horiz-adv-x="1512" 
d="M420 62.5q-142 80.5 -220.5 249.5t-78.5 428t79 428t221.5 249.5t334.5 80.5q194 0 336 -80.5t220.5 -249.5t78.5 -428t-79 -428t-221.5 -249.5t-334.5 -80.5q-194 0 -336 80.5zM1129.5 245.5q133.5 153.5 133.5 489.5q0 653 -507 653q-240 0 -373.5 -153.5
t-133.5 -489.5q0 -653 507 -653q240 0 373.5 153.5zM833.5 1691q-37.5 10 -93.5 30q-47 18 -78.5 26.5t-64.5 8.5q-55 0 -96.5 -17t-79.5 -54v93q32 32 75 47.5t102 15.5q43 0 80.5 -10t93.5 -30q47 -18 78.5 -26.5t64.5 -8.5q55 0 96.5 16.5t79.5 53.5v-93q-32 -32 -75 -47
t-102 -15q-43 0 -80.5 10zM445 1947.5q-23 21.5 -23 58.5t23 59t63 22q39 0 62 -22t23 -59t-23 -58.5t-62 -21.5q-40 0 -63 21.5zM942 1947.5q-23 21.5 -23 58.5t23 59t62 22q40 0 63 -22t23 -59t-23 -58.5t-63 -21.5q-39 0 -62 21.5z" />
    <glyph glyph-name="uni1E4F" unicode="&#x1e4f;" horiz-adv-x="1162" 
d="M234.5 118.5q-124.5 137.5 -124.5 422.5q0 282 125 420t346 138q223 0 347 -136.5t124 -421.5q0 -282 -125.5 -421t-345.5 -139q-222 0 -346.5 137.5zM837.5 192q89.5 107 89.5 347q0 243 -89.5 350t-256.5 107t-256.5 -106t-89.5 -347q0 -243 89.5 -350.5t256.5 -107.5
t256.5 107zM652 1370q-36 11 -88 32q-47 19 -75 27.5t-56 8.5q-50 0 -90 -18t-77 -56v97q62 64 168 64q40 0 76 -11t88 -32q47 -19 74.5 -27.5t56.5 -8.5q50 0 90 18t77 56v-97q-62 -64 -168 -64q-40 0 -76 11zM288.5 1647.5q-23.5 22.5 -23.5 60.5q0 39 23.5 62.5
t62.5 23.5t62.5 -23.5t23.5 -62.5q0 -38 -23.5 -60.5t-62.5 -22.5t-62.5 22.5zM748.5 1647.5q-23.5 22.5 -23.5 60.5q0 39 23.5 62.5t62.5 23.5t62.5 -23.5t23.5 -62.5q0 -38 -23.5 -60.5t-62.5 -22.5t-62.5 22.5z" />
    <glyph glyph-name="uni1E50" unicode="&#x1e50;" horiz-adv-x="1512" 
d="M420 62.5q-142 80.5 -220.5 249.5t-78.5 428t79 428t221.5 249.5t334.5 80.5q194 0 336 -80.5t220.5 -249.5t78.5 -428t-79 -428t-221.5 -249.5t-334.5 -80.5q-194 0 -336 80.5zM1129.5 245.5q133.5 153.5 133.5 489.5q0 653 -507 653q-240 0 -373.5 -153.5
t-133.5 -489.5q0 -653 507 -653q240 0 373.5 153.5zM694 1900l-221 232h144l201 -232h-124zM450 1707v88h612v-88h-612z" />
    <glyph glyph-name="uni1E51" unicode="&#x1e51;" horiz-adv-x="1162" 
d="M234.5 118.5q-124.5 137.5 -124.5 422.5q0 282 125 420t346 138q223 0 347 -136.5t124 -421.5q0 -282 -125.5 -421t-345.5 -139q-222 0 -346.5 137.5zM837.5 192q89.5 107 89.5 347q0 243 -89.5 350t-256.5 107t-256.5 -106t-89.5 -347q0 -243 89.5 -350.5t256.5 -107.5
t256.5 107zM266 1379v88h630v-88h-630zM523 1609l-222 279h138l200 -279h-116z" />
    <glyph glyph-name="uni1E52" unicode="&#x1e52;" horiz-adv-x="1512" 
d="M420 62.5q-142 80.5 -220.5 249.5t-78.5 428t79 428t221.5 249.5t334.5 80.5q194 0 336 -80.5t220.5 -249.5t78.5 -428t-79 -428t-221.5 -249.5t-334.5 -80.5q-194 0 -336 80.5zM1129.5 245.5q133.5 153.5 133.5 489.5q0 653 -507 653q-240 0 -373.5 -153.5
t-133.5 -489.5q0 -653 507 -653q240 0 373.5 153.5zM694 1900l199 232h146l-220 -232h-125zM450 1707v88h612v-88h-612z" />
    <glyph glyph-name="uni1E53" unicode="&#x1e53;" horiz-adv-x="1162" 
d="M234.5 118.5q-124.5 137.5 -124.5 422.5q0 282 125 420t346 138q223 0 347 -136.5t124 -421.5q0 -282 -125.5 -421t-345.5 -139q-222 0 -346.5 137.5zM837.5 192q89.5 107 89.5 347q0 243 -89.5 350t-256.5 107t-256.5 -106t-89.5 -347q0 -243 89.5 -350.5t256.5 -107.5
t256.5 107zM266 1379v88h630v-88h-630zM523 1609l200 279h138l-222 -279h-116z" />
    <glyph glyph-name="uni1E5A" unicode="&#x1e5a;" horiz-adv-x="1362" 
d="M1147 0l-500 629q-56 -2 -88 -2q-65 0 -126 3t-120 8v-638h-122v1454q96 19 192 30t211 11q202 0 332 -45t193.5 -140t63.5 -245q2 -353 -408 -422l515 -643h-143zM433.5 733.5q50.5 -2.5 127.5 -2.5q264 0 383.5 81t119.5 250q0 121 -48 192.5t-149.5 104t-266.5 32.5
q-86 0 -150 -6t-137 -19v-623q70 -7 120.5 -9.5zM639.5 -312.5q-24.5 21.5 -24.5 58.5q0 38 24.5 60t66.5 22t66.5 -22t24.5 -60q0 -37 -24.5 -58.5t-66.5 -21.5t-66.5 21.5z" />
    <glyph glyph-name="uni1E5B" unicode="&#x1e5b;" horiz-adv-x="757" 
d="M172 1083h103l10 -146h10q61 73 155 114.5t192 41.5q49 0 100 -9v-116q-44 8 -104 8q-91 0 -187 -41.5t-157 -119.5v-815h-122v1083zM170.5 -316.5q-23.5 22.5 -23.5 60.5t23.5 61t62.5 23t62.5 -23t23.5 -61t-23.5 -60.5t-62.5 -22.5t-62.5 22.5z" />
    <glyph glyph-name="uni1E5E" unicode="&#x1e5e;" horiz-adv-x="1362" 
d="M1147 0l-500 629q-56 -2 -88 -2q-65 0 -126 3t-120 8v-638h-122v1454q96 19 192 30t211 11q202 0 332 -45t193.5 -140t63.5 -245q2 -353 -408 -422l515 -643h-143zM433.5 733.5q50.5 -2.5 127.5 -2.5q264 0 383.5 81t119.5 250q0 121 -48 192.5t-149.5 104t-266.5 32.5
q-86 0 -150 -6t-137 -19v-623q70 -7 120.5 -9.5zM400 -297v88h612v-88h-612z" />
    <glyph glyph-name="uni1E5F" unicode="&#x1e5f;" horiz-adv-x="757" 
d="M172 1083h103l10 -146h10q61 73 155 114.5t192 41.5q49 0 100 -9v-116q-44 8 -104 8q-91 0 -187 -41.5t-157 -119.5v-815h-122v1083zM-53 -301v88h572v-88h-572z" />
    <glyph glyph-name="uni1E60" unicode="&#x1e60;" horiz-adv-x="1113" 
d="M296 -2.5q-99 15.5 -188 46.5v110q97 -33 195 -48.5t188 -15.5q205 0 307 75.5t102 222.5q0 82 -34 136t-106.5 90.5t-196.5 64.5l-78 17q-203 45 -300.5 142t-97.5 256q0 126 59.5 216.5t178 139t291.5 48.5q91 0 180 -12.5t166 -36.5v-110q-168 51 -345 51
q-202 0 -303 -74.5t-101 -214.5q0 -81 30 -135.5t98 -91.5t184 -63l78 -18q221 -49 322 -144.5t101 -254.5q0 -131 -62.5 -223.5t-183 -140.5t-291.5 -48q-94 0 -193 15.5zM497.5 1693.5q-24.5 21.5 -24.5 58.5t24.5 59t66.5 22t66.5 -22t24.5 -59t-24.5 -58.5t-66.5 -21.5
t-66.5 21.5z" />
    <glyph glyph-name="uni1E61" unicode="&#x1e61;" horiz-adv-x="948" 
d="M127 25v105q83 -25 157 -35.5t157 -10.5q159 0 232.5 51t73.5 149q0 81 -44 124t-153 64l-158 30q-148 29 -215.5 101t-67.5 190q0 91 46 159.5t142.5 107.5t241.5 39q143 0 268 -35v-104q-72 20 -134 28.5t-132 8.5q-165 0 -238.5 -54t-73.5 -147q0 -74 42.5 -120.5
t146.5 -66.5l158 -30q153 -30 222 -98.5t69 -188.5q0 -146 -109 -228.5t-320 -82.5q-172 0 -311 44zM411 1359.5q-24 22.5 -24 61.5q0 40 24.5 63.5t66.5 23.5t66.5 -23.5t24.5 -63.5q0 -39 -24 -61.5t-67 -22.5t-67 22.5z" />
    <glyph glyph-name="uni1E62" unicode="&#x1e62;" horiz-adv-x="1113" 
d="M296 -2.5q-99 15.5 -188 46.5v110q97 -33 195 -48.5t188 -15.5q205 0 307 75.5t102 222.5q0 82 -34 136t-106.5 90.5t-196.5 64.5l-78 17q-203 45 -300.5 142t-97.5 256q0 126 59.5 216.5t178 139t291.5 48.5q91 0 180 -12.5t166 -36.5v-110q-168 51 -345 51
q-202 0 -303 -74.5t-101 -214.5q0 -81 30 -135.5t98 -91.5t184 -63l78 -18q221 -49 322 -144.5t101 -254.5q0 -131 -62.5 -223.5t-183 -140.5t-291.5 -48q-94 0 -193 15.5zM497.5 -312.5q-24.5 21.5 -24.5 58.5q0 38 24.5 60t66.5 22t66.5 -22t24.5 -60q0 -37 -24.5 -58.5
t-66.5 -21.5t-66.5 21.5z" />
    <glyph glyph-name="uni1E63" unicode="&#x1e63;" horiz-adv-x="948" 
d="M127 25v105q83 -25 157 -35.5t157 -10.5q159 0 232.5 51t73.5 149q0 81 -44 124t-153 64l-158 30q-148 29 -215.5 101t-67.5 190q0 91 46 159.5t142.5 107.5t241.5 39q143 0 268 -35v-104q-72 20 -134 28.5t-132 8.5q-165 0 -238.5 -54t-73.5 -147q0 -74 42.5 -120.5
t146.5 -66.5l158 -30q153 -30 222 -98.5t69 -188.5q0 -146 -109 -228.5t-320 -82.5q-172 0 -311 44zM415.5 -316.5q-23.5 22.5 -23.5 60.5t23.5 61t62.5 23t62.5 -23t23.5 -61t-23.5 -60.5t-62.5 -22.5t-62.5 22.5z" />
    <glyph glyph-name="uni1E64" unicode="&#x1e64;" horiz-adv-x="1113" 
d="M296 -2.5q-99 15.5 -188 46.5v110q97 -33 195 -48.5t188 -15.5q205 0 307 75.5t102 222.5q0 82 -34 136t-106.5 90.5t-196.5 64.5l-78 17q-203 45 -300.5 142t-97.5 256q0 126 59.5 216.5t178 139t291.5 48.5q91 0 180 -12.5t166 -36.5v-110q-168 51 -345 51
q-202 0 -303 -74.5t-101 -214.5q0 -81 30 -135.5t98 -91.5t184 -63l78 -18q221 -49 322 -144.5t101 -254.5q0 -131 -62.5 -223.5t-183 -140.5t-291.5 -48q-94 0 -193 15.5zM423.5 1870q-22.5 20 -22.5 55t22.5 55.5t60.5 20.5t60.5 -20.5t22.5 -55.5t-22.5 -55t-60.5 -20
t-60.5 20zM506 1611l200 279h138l-222 -279h-116z" />
    <glyph glyph-name="uni1E65" unicode="&#x1e65;" horiz-adv-x="948" 
d="M127 25v105q83 -25 157 -35.5t157 -10.5q159 0 232.5 51t73.5 149q0 81 -44 124t-153 64l-158 30q-148 29 -215.5 101t-67.5 190q0 91 46 159.5t142.5 107.5t241.5 39q143 0 268 -35v-104q-72 20 -134 28.5t-132 8.5q-165 0 -238.5 -54t-73.5 -147q0 -74 42.5 -120.5
t146.5 -66.5l158 -30q153 -30 222 -98.5t69 -188.5q0 -146 -109 -228.5t-320 -82.5q-172 0 -311 44zM350.5 1596q-22.5 20 -22.5 55t22.5 55.5t60.5 20.5t60.5 -20.5t22.5 -55.5t-22.5 -55t-60.5 -20t-60.5 20zM420 1257l242 359h137l-263 -359h-116z" />
    <glyph glyph-name="uni1E66" unicode="&#x1e66;" horiz-adv-x="1113" 
d="M296 -2.5q-99 15.5 -188 46.5v110q97 -33 195 -48.5t188 -15.5q205 0 307 75.5t102 222.5q0 82 -34 136t-106.5 90.5t-196.5 64.5l-78 17q-203 45 -300.5 142t-97.5 256q0 126 59.5 216.5t178 139t291.5 48.5q91 0 180 -12.5t166 -36.5v-110q-168 51 -345 51
q-202 0 -303 -74.5t-101 -214.5q0 -81 30 -135.5t98 -91.5t184 -63l78 -18q221 -49 322 -144.5t101 -254.5q0 -131 -62.5 -223.5t-183 -140.5t-291.5 -48q-94 0 -193 15.5zM503.5 1916q-22.5 20 -22.5 55t22.5 55.5t60.5 20.5t60.5 -20.5t22.5 -55.5t-22.5 -55t-60.5 -20
t-60.5 20zM767 1890h121l-265 -279h-118l-265 279h121l203 -219z" />
    <glyph glyph-name="uni1E67" unicode="&#x1e67;" horiz-adv-x="948" 
d="M127 25v105q83 -25 157 -35.5t157 -10.5q159 0 232.5 51t73.5 149q0 81 -44 124t-153 64l-158 30q-148 29 -215.5 101t-67.5 190q0 91 46 159.5t142.5 107.5t241.5 39q143 0 268 -35v-104q-72 20 -134 28.5t-132 8.5q-165 0 -238.5 -54t-73.5 -147q0 -74 42.5 -120.5
t146.5 -66.5l158 -30q153 -30 222 -98.5t69 -188.5q0 -146 -109 -228.5t-320 -82.5q-172 0 -311 44zM417.5 1640q-22.5 20 -22.5 55t22.5 55.5t60.5 20.5t60.5 -20.5t22.5 -55.5t-22.5 -55t-60.5 -20t-60.5 20zM675 1616h109l-248 -359h-116l-248 359h109l197 -291z" />
    <glyph glyph-name="uni1E68" unicode="&#x1e68;" horiz-adv-x="1113" 
d="M296 -2.5q-99 15.5 -188 46.5v110q97 -33 195 -48.5t188 -15.5q205 0 307 75.5t102 222.5q0 82 -34 136t-106.5 90.5t-196.5 64.5l-78 17q-203 45 -300.5 142t-97.5 256q0 126 59.5 216.5t178 139t291.5 48.5q91 0 180 -12.5t166 -36.5v-110q-168 51 -345 51
q-202 0 -303 -74.5t-101 -214.5q0 -81 30 -135.5t98 -91.5t184 -63l78 -18q221 -49 322 -144.5t101 -254.5q0 -131 -62.5 -223.5t-183 -140.5t-291.5 -48q-94 0 -193 15.5zM497.5 -312.5q-24.5 21.5 -24.5 58.5q0 38 24.5 60t66.5 22t66.5 -22t24.5 -60q0 -37 -24.5 -58.5
t-66.5 -21.5t-66.5 21.5zM497.5 1693.5q-24.5 21.5 -24.5 58.5t24.5 59t66.5 22t66.5 -22t24.5 -59t-24.5 -58.5t-66.5 -21.5t-66.5 21.5z" />
    <glyph glyph-name="uni1E69" unicode="&#x1e69;" horiz-adv-x="948" 
d="M127 25v105q83 -25 157 -35.5t157 -10.5q159 0 232.5 51t73.5 149q0 81 -44 124t-153 64l-158 30q-148 29 -215.5 101t-67.5 190q0 91 46 159.5t142.5 107.5t241.5 39q143 0 268 -35v-104q-72 20 -134 28.5t-132 8.5q-165 0 -238.5 -54t-73.5 -147q0 -74 42.5 -120.5
t146.5 -66.5l158 -30q153 -30 222 -98.5t69 -188.5q0 -146 -109 -228.5t-320 -82.5q-172 0 -311 44zM415.5 -316.5q-23.5 22.5 -23.5 60.5t23.5 61t62.5 23t62.5 -23t23.5 -61t-23.5 -60.5t-62.5 -22.5t-62.5 22.5zM411 1359.5q-24 22.5 -24 61.5q0 40 24.5 63.5t66.5 23.5
t66.5 -23.5t24.5 -63.5q0 -39 -24 -61.5t-67 -22.5t-67 22.5z" />
    <glyph glyph-name="uni1E6C" unicode="&#x1e6c;" horiz-adv-x="1215" 
d="M546 0v1370h-529v110h1181v-110h-529v-1370h-123zM541.5 -312.5q-24.5 21.5 -24.5 58.5q0 38 24.5 60t66.5 22t66.5 -22t24.5 -60q0 -37 -24.5 -58.5t-66.5 -21.5t-66.5 21.5z" />
    <glyph glyph-name="uni1E6D" unicode="&#x1e6d;" horiz-adv-x="777" 
d="M764 109v-108q-83 -19 -171 -19q-175 0 -267.5 88.5t-92.5 273.5v635h-221v104h221l19 397h103v-397h389v-104h-389v-615q0 -146 64.5 -210t195.5 -64q60 0 149 19zM436.5 -316.5q-23.5 22.5 -23.5 60.5t23.5 61t62.5 23t62.5 -23t23.5 -61t-23.5 -60.5t-62.5 -22.5
t-62.5 22.5z" />
    <glyph glyph-name="uni1E6E" unicode="&#x1e6e;" horiz-adv-x="1215" 
d="M546 0v1370h-529v110h1181v-110h-529v-1370h-123zM302 -297v88h612v-88h-612z" />
    <glyph glyph-name="uni1E6F" unicode="&#x1e6f;" horiz-adv-x="777" 
d="M764 109v-108q-83 -19 -171 -19q-175 0 -267.5 88.5t-92.5 273.5v635h-221v104h221l19 397h103v-397h389v-104h-389v-615q0 -146 64.5 -210t195.5 -64q60 0 149 19zM213 -301v88h572v-88h-572z" />
    <glyph glyph-name="uni1E78" unicode="&#x1e78;" horiz-adv-x="1485" 
d="M427.5 43.5q-123.5 61.5 -184 190.5t-60.5 332v914h123v-929q0 -162 47 -263t143.5 -149t247.5 -48t247.5 48t143.5 149t47 263v929h120v-914q0 -204 -60 -332.5t-183 -190t-315 -61.5q-193 0 -316.5 61.5zM682 1900l199 232h146l-220 -232h-125zM821.5 1691
q-37.5 10 -93.5 30q-47 18 -78.5 26.5t-64.5 8.5q-55 0 -96.5 -17t-79.5 -54v93q32 32 75 47.5t102 15.5q43 0 80.5 -10t93.5 -30q47 -18 78.5 -26.5t64.5 -8.5q55 0 96.5 16.5t79.5 53.5v-93q-32 -32 -75 -47t-102 -15q-43 0 -80.5 10z" />
    <glyph glyph-name="uni1E79" unicode="&#x1e79;" horiz-adv-x="1185" 
d="M254 74.5q-97 92.5 -97 294.5v714h122v-708q0 -150 69.5 -216t195.5 -66q94 0 187 39.5t160 117.5v833h122v-1083h-104l-9 123h-9q-74 -69 -169 -105t-200 -36q-171 0 -268 92.5zM656 1370q-36 11 -88 32q-47 19 -75 27.5t-56 8.5q-50 0 -90 -18t-77 -56v97q62 64 168 64
q40 0 76 -11t88 -32q47 -19 74.5 -27.5t56.5 -8.5q50 0 90 18t77 56v-97q-62 -64 -168 -64q-40 0 -76 11zM547 1661l200 279h138l-222 -279h-116z" />
    <glyph glyph-name="uni1E7A" unicode="&#x1e7a;" horiz-adv-x="1485" 
d="M427.5 43.5q-123.5 61.5 -184 190.5t-60.5 332v914h123v-929q0 -162 47 -263t143.5 -149t247.5 -48t247.5 48t143.5 149t47 263v929h120v-914q0 -204 -60 -332.5t-183 -190t-315 -61.5q-193 0 -316.5 61.5zM438 1707v88h612v-88h-612zM433 1947.5q-23 21.5 -23 58.5
t23 59t63 22q39 0 62 -22t23 -59t-23 -58.5t-62 -21.5q-40 0 -63 21.5zM930 1947.5q-23 21.5 -23 58.5t23 59t62 22q40 0 63 -22t23 -59t-23 -58.5t-63 -21.5q-39 0 -62 21.5z" />
    <glyph glyph-name="uni1E7B" unicode="&#x1e7b;" horiz-adv-x="1185" 
d="M254 74.5q-97 92.5 -97 294.5v714h122v-708q0 -150 69.5 -216t195.5 -66q94 0 187 39.5t160 117.5v833h122v-1083h-104l-9 123h-9q-74 -69 -169 -105t-200 -36q-171 0 -268 92.5zM270 1379v88h630v-88h-630zM292.5 1647.5q-23.5 22.5 -23.5 60.5q0 39 23.5 62.5
t62.5 23.5t62.5 -23.5t23.5 -62.5q0 -38 -23.5 -60.5t-62.5 -22.5t-62.5 22.5zM752.5 1647.5q-23.5 22.5 -23.5 60.5q0 39 23.5 62.5t62.5 23.5t62.5 -23.5t23.5 -62.5q0 -38 -23.5 -60.5t-62.5 -22.5t-62.5 22.5z" />
    <glyph glyph-name="Wgrave" unicode="&#x1e80;" horiz-adv-x="2200" 
d="M2010 1480h121l-449 -1480h-164l-417 1345l-419 -1345h-164l-451 1480h129l410 -1369l421 1369h151l419 -1370zM1043 1611l-222 279h138l200 -279h-116z" />
    <glyph glyph-name="wgrave" unicode="&#x1e81;" horiz-adv-x="1753" 
d="M1562 1083h118l-342 -1083h-149l-311 962l-312 -962h-149l-344 1083h123l300 -959l308 959h150l307 -957zM821 1257l-263 359h137l242 -359h-116z" />
    <glyph glyph-name="Wacute" unicode="&#x1e82;" horiz-adv-x="2200" 
d="M2010 1480h121l-449 -1480h-164l-417 1345l-419 -1345h-164l-451 1480h129l410 -1369l421 1369h151l419 -1370zM1043 1611l200 279h138l-222 -279h-116z" />
    <glyph glyph-name="wacute" unicode="&#x1e83;" horiz-adv-x="1753" 
d="M1562 1083h118l-342 -1083h-149l-311 962l-312 -962h-149l-344 1083h123l300 -959l308 959h150l307 -957zM821 1257l242 359h137l-263 -359h-116z" />
    <glyph glyph-name="Wdieresis" unicode="&#x1e84;" horiz-adv-x="2200" 
d="M2010 1480h121l-449 -1480h-164l-417 1345l-419 -1345h-164l-451 1480h129l410 -1369l421 1369h151l419 -1370zM790 1693.5q-23 21.5 -23 58.5t23 59t63 22q39 0 62 -22t23 -59t-23 -58.5t-62 -21.5q-40 0 -63 21.5zM1287 1693.5q-23 21.5 -23 58.5t23 59t62 22
q40 0 63 -22t23 -59t-23 -58.5t-63 -21.5q-39 0 -62 21.5z" />
    <glyph glyph-name="wdieresis" unicode="&#x1e85;" horiz-adv-x="1753" 
d="M1562 1083h118l-342 -1083h-149l-311 962l-312 -962h-149l-344 1083h123l300 -959l308 959h150l307 -957zM586.5 1360.5q-23.5 22.5 -23.5 60.5q0 39 23.5 62.5t62.5 23.5t62.5 -23.5t23.5 -62.5q0 -38 -23.5 -60.5t-62.5 -22.5t-62.5 22.5zM1046.5 1360.5
q-23.5 22.5 -23.5 60.5q0 39 23.5 62.5t62.5 23.5t62.5 -23.5t23.5 -62.5q0 -38 -23.5 -60.5t-62.5 -22.5t-62.5 22.5z" />
    <glyph glyph-name="uni1E8E" unicode="&#x1e8e;" horiz-adv-x="1215" 
d="M1231 1480l-561 -813v-667h-124v666l-571 814h142l494 -703l487 703h133zM541.5 1693.5q-24.5 21.5 -24.5 58.5t24.5 59t66.5 22t66.5 -22t24.5 -59t-24.5 -58.5t-66.5 -21.5t-66.5 21.5z" />
    <glyph glyph-name="uni1E8F" unicode="&#x1e8f;" horiz-adv-x="1100" 
d="M950 1083h124l-625 -1523h-124l181 440h-36l-444 1083h131l393 -986zM484 1359.5q-24 22.5 -24 61.5q0 40 24.5 63.5t66.5 23.5t66.5 -23.5t24.5 -63.5q0 -39 -24 -61.5t-67 -22.5t-67 22.5z" />
    <glyph glyph-name="uni1E92" unicode="&#x1e92;" horiz-adv-x="1209" 
d="M234 109h909v-109h-1078v70l897 1301h-884v109h1053v-70zM537.5 -312.5q-24.5 21.5 -24.5 58.5q0 38 24.5 60t66.5 22t66.5 -22t24.5 -60q0 -37 -24.5 -58.5t-66.5 -21.5t-66.5 21.5z" />
    <glyph glyph-name="uni1E93" unicode="&#x1e93;" horiz-adv-x="957" 
d="M225 104h674v-104h-834v75l661 904h-648v104h808v-75zM419.5 -316.5q-23.5 22.5 -23.5 60.5t23.5 61t62.5 23t62.5 -23t23.5 -61t-23.5 -60.5t-62.5 -22.5t-62.5 22.5z" />
    <glyph glyph-name="uni1E97" unicode="&#x1e97;" horiz-adv-x="777" 
d="M764 109v-108q-83 -19 -171 -19q-175 0 -267.5 88.5t-92.5 273.5v635h-221v104h221l19 397h103v-397h389v-104h-389v-615q0 -146 64.5 -210t195.5 -64q60 0 149 19zM1.5 1646.5q-23.5 22.5 -23.5 60.5q0 39 23.5 62.5t62.5 23.5t62.5 -23.5t23.5 -62.5q0 -38 -23.5 -60.5
t-62.5 -22.5t-62.5 22.5zM461.5 1646.5q-23.5 22.5 -23.5 60.5q0 39 23.5 62.5t62.5 23.5t62.5 -23.5t23.5 -62.5q0 -38 -23.5 -60.5t-62.5 -22.5t-62.5 22.5z" />
    <glyph glyph-name="uni1E9E" unicode="&#x1e9e;" horiz-adv-x="1777" 
d="M1590 648.5q100 -95.5 100 -254.5q0 -131 -62.5 -223.5t-182.5 -140.5t-290 -48q-92 0 -190 15.5t-186 45.5v110q96 -32 193 -47.5t185 -15.5q205 0 306.5 75.5t101.5 222.5q0 82 -34 136.5t-106 90.5t-195 64l-77 17q-202 45 -298.5 142t-96.5 256q0 181 118 284
q-60 12 -132 12q-222 0 -326 -107.5t-104 -340.5v-942h-123v925q0 295 135 434t418 139q157 0 265 -43q115 43 276 43q90 0 178 -12t163 -36v-111q-162 51 -340 51q-202 0 -302.5 -74.5t-100.5 -214.5q0 -81 30 -135.5t97.5 -91.5t182.5 -63l77 -18q220 -49 320 -144.5z" />
    <glyph glyph-name="uni1EA0" unicode="&#x1ea0;" horiz-adv-x="1400" 
d="M1234 0l-193 499h-685l-193 -499h-126l578 1480h170l578 -1480h-129zM398 607h601l-300 777zM634.5 -312.5q-24.5 21.5 -24.5 58.5q0 38 24.5 60t66.5 22t66.5 -22t24.5 -60q0 -37 -24.5 -58.5t-66.5 -21.5t-66.5 21.5z" />
    <glyph glyph-name="uni1EA1" unicode="&#x1ea1;" horiz-adv-x="1072" 
d="M730.5 1063.5q90.5 -35.5 137.5 -118t47 -223.5v-722h-104l-9 127h-10q-57 -67 -148.5 -105.5t-194.5 -38.5q-105 0 -181 35t-116.5 100.5t-40.5 155.5q0 139 94 215.5t301 98.5l289 33v104q0 105 -34 164t-100.5 82.5t-171.5 23.5q-72 0 -153 -12.5t-158 -39.5v106
q68 24 154.5 37t168.5 13q139 0 229.5 -35.5zM646.5 119.5q83.5 36.5 148.5 110.5v300l-283 -32q-146 -17 -210.5 -68.5t-64.5 -145.5q0 -97 59 -149t176 -52q91 0 174.5 36.5zM487.5 -316.5q-23.5 22.5 -23.5 60.5t23.5 61t62.5 23t62.5 -23t23.5 -61t-23.5 -60.5
t-62.5 -22.5t-62.5 22.5z" />
    <glyph glyph-name="uni1EA2" unicode="&#x1ea2;" horiz-adv-x="1400" 
d="M1234 0l-193 499h-685l-193 -499h-126l578 1480h170l578 -1480h-129zM398 607h601l-300 777zM687 1674.5q27 21.5 76 42.5q35 14 52.5 26.5t17.5 32.5q0 24 -28 37t-95 13q-56 0 -103.5 -8t-102.5 -26v69q91 33 211 33q102 0 151 -30t49 -83q0 -39 -23.5 -59.5
t-69.5 -40.5q-38 -17 -57 -31t-22 -39h-85q2 42 29 63.5z" />
    <glyph glyph-name="uni1EA3" unicode="&#x1ea3;" horiz-adv-x="1072" 
d="M730.5 1063.5q90.5 -35.5 137.5 -118t47 -223.5v-722h-104l-9 127h-10q-57 -67 -148.5 -105.5t-194.5 -38.5q-105 0 -181 35t-116.5 100.5t-40.5 155.5q0 139 94 215.5t301 98.5l289 33v104q0 105 -34 164t-100.5 82.5t-171.5 23.5q-72 0 -153 -12.5t-158 -39.5v106
q68 24 154.5 37t168.5 13q139 0 229.5 -35.5zM646.5 119.5q83.5 36.5 148.5 110.5v300l-283 -32q-146 -17 -210.5 -68.5t-64.5 -145.5q0 -97 59 -149t176 -52q91 0 174.5 36.5zM508 1322.5q15 27.5 34.5 44.5t50.5 38q34 23 50 39.5t16 41.5q0 37 -31.5 54t-97.5 17
q-41 0 -84.5 -6t-79.5 -18v71q33 11 77.5 17.5t86.5 6.5q211 0 211 -138q0 -45 -21.5 -71t-63.5 -54q-39 -25 -59 -47.5t-22 -60.5h-83q1 38 16 65.5z" />
    <glyph glyph-name="uni1EA4" unicode="&#x1ea4;" horiz-adv-x="1400" 
d="M1234 0l-193 499h-685l-193 -499h-126l578 1480h170l578 -1480h-129zM398 607h601l-300 777zM1128 2064h112l-207 -266h-92zM642 1883h118l265 -272h-121l-203 215l-203 -215h-121z" />
    <glyph glyph-name="uni1EA5" unicode="&#x1ea5;" horiz-adv-x="1072" 
d="M730.5 1063.5q90.5 -35.5 137.5 -118t47 -223.5v-722h-104l-9 127h-10q-57 -67 -148.5 -105.5t-194.5 -38.5q-105 0 -181 35t-116.5 100.5t-40.5 155.5q0 139 94 215.5t301 98.5l289 33v104q0 105 -34 164t-100.5 82.5t-171.5 23.5q-72 0 -153 -12.5t-158 -39.5v106
q68 24 154.5 37t168.5 13q139 0 229.5 -35.5zM646.5 119.5q83.5 36.5 148.5 110.5v300l-283 -32q-146 -17 -210.5 -68.5t-64.5 -145.5q0 -97 59 -149t176 -52q91 0 174.5 36.5zM952 1868h124l-222 -272h-102zM475 1616h116l242 -359h-108l-192 290l-192 -290h-108z" />
    <glyph glyph-name="uni1EA6" unicode="&#x1ea6;" horiz-adv-x="1400" 
d="M1234 0l-193 499h-685l-193 -499h-126l578 1480h170l578 -1480h-129zM398 607h601l-300 777zM1056 1798h-92l-208 266h113zM642 1883h118l265 -272h-121l-203 215l-203 -215h-121z" />
    <glyph glyph-name="uni1EA7" unicode="&#x1ea7;" horiz-adv-x="1072" 
d="M730.5 1063.5q90.5 -35.5 137.5 -118t47 -223.5v-722h-104l-9 127h-10q-57 -67 -148.5 -105.5t-194.5 -38.5q-105 0 -181 35t-116.5 100.5t-40.5 155.5q0 139 94 215.5t301 98.5l289 33v104q0 105 -34 164t-100.5 82.5t-171.5 23.5q-72 0 -153 -12.5t-158 -39.5v106
q68 24 154.5 37t168.5 13q139 0 229.5 -35.5zM646.5 119.5q83.5 36.5 148.5 110.5v300l-283 -32q-146 -17 -210.5 -68.5t-64.5 -145.5q0 -97 59 -149t176 -52q91 0 174.5 36.5zM878 1596h-102l-222 272h124zM475 1616h116l242 -359h-108l-192 290l-192 -290h-108z" />
    <glyph glyph-name="uni1EA8" unicode="&#x1ea8;" horiz-adv-x="1400" 
d="M1234 0l-193 499h-685l-193 -499h-126l578 1480h170l578 -1480h-129zM398 607h601l-300 777zM1151 2043.5q49 -29.5 49 -80.5q0 -27 -13 -45t-31 -28.5t-50 -24.5q-38 -16 -56.5 -29.5t-21.5 -37.5h-86q2 41 29 62t77 41q36 15 53 26.5t17 30.5q0 24 -28 37t-95 13
q-56 0 -103.5 -8t-102.5 -26v66q91 33 211 33q102 0 151 -29.5zM642 1883h118l265 -272h-121l-203 215l-203 -215h-121z" />
    <glyph glyph-name="uni1EA9" unicode="&#x1ea9;" horiz-adv-x="1072" 
d="M730.5 1063.5q90.5 -35.5 137.5 -118t47 -223.5v-722h-104l-9 127h-10q-57 -67 -148.5 -105.5t-194.5 -38.5q-105 0 -181 35t-116.5 100.5t-40.5 155.5q0 139 94 215.5t301 98.5l289 33v104q0 105 -34 164t-100.5 82.5t-171.5 23.5q-72 0 -153 -12.5t-158 -39.5v106
q68 24 154.5 37t168.5 13q139 0 229.5 -35.5zM646.5 119.5q83.5 36.5 148.5 110.5v300l-283 -32q-146 -17 -210.5 -68.5t-64.5 -145.5q0 -97 59 -149t176 -52q91 0 174.5 36.5zM959 1843q48 -29 48 -81q0 -38 -23 -57.5t-68 -38.5q-38 -17 -57 -31t-22 -39h-84q2 41 29 62.5
t75 41.5q36 14 52.5 26t16.5 31q0 24 -27 37t-94 13q-56 0 -103 -8t-101 -25v64q87 34 209 34q101 0 149 -29zM475 1616h116l242 -359h-108l-192 290l-192 -290h-108z" />
    <glyph glyph-name="uni1EAA" unicode="&#x1eaa;" horiz-adv-x="1400" 
d="M1234 0l-193 499h-685l-193 -499h-126l578 1480h170l578 -1480h-129zM398 607h601l-300 777zM943 2019.5q41 16.5 82 53.5v-84q-66 -60 -174 -60q-41 0 -78 10t-90 29q-46 17 -74.5 25t-57.5 8q-50 0 -91.5 -17t-82.5 -53v83q65 61 174 61q41 0 78 -10t90 -29
q46 -17 74.5 -25t57.5 -8q51 0 92 16.5zM642 1883h118l265 -272h-121l-203 215l-203 -215h-121z" />
    <glyph glyph-name="uni1EAB" unicode="&#x1eab;" horiz-adv-x="1072" 
d="M730.5 1063.5q90.5 -35.5 137.5 -118t47 -223.5v-722h-104l-9 127h-10q-57 -67 -148.5 -105.5t-194.5 -38.5q-105 0 -181 35t-116.5 100.5t-40.5 155.5q0 139 94 215.5t301 98.5l289 33v104q0 105 -34 164t-100.5 82.5t-171.5 23.5q-72 0 -153 -12.5t-158 -39.5v106
q68 24 154.5 37t168.5 13q139 0 229.5 -35.5zM646.5 119.5q83.5 36.5 148.5 110.5v300l-283 -32q-146 -17 -210.5 -68.5t-64.5 -145.5q0 -97 59 -149t176 -52q91 0 174.5 36.5zM774 1760.5q40 16.5 78 52.5v-88q-61 -61 -169 -61q-41 0 -78 10t-88 29q-45 17 -75 25.5
t-60 8.5q-50 0 -90 -16.5t-78 -52.5v88q62 62 169 62q41 0 79 -10.5t87 -29.5q51 -18 78 -26t57 -8q50 0 90 16.5zM474 1604h118l245 -346h-110l-194 283l-194 -283h-110z" />
    <glyph glyph-name="uni1EAC" unicode="&#x1eac;" horiz-adv-x="1400" 
d="M1234 0l-193 499h-685l-193 -499h-126l578 1480h170l578 -1480h-129zM398 607h601l-300 777zM634.5 -312.5q-24.5 21.5 -24.5 58.5q0 38 24.5 60t66.5 22t66.5 -22t24.5 -60q0 -37 -24.5 -58.5t-66.5 -21.5t-66.5 21.5zM1025 1611h-121l-203 219l-203 -219h-121l265 279
h118z" />
    <glyph glyph-name="uni1EAD" unicode="&#x1ead;" horiz-adv-x="1072" 
d="M730.5 1063.5q90.5 -35.5 137.5 -118t47 -223.5v-722h-104l-9 127h-10q-57 -67 -148.5 -105.5t-194.5 -38.5q-105 0 -181 35t-116.5 100.5t-40.5 155.5q0 139 94 215.5t301 98.5l289 33v104q0 105 -34 164t-100.5 82.5t-171.5 23.5q-72 0 -153 -12.5t-158 -39.5v106
q68 24 154.5 37t168.5 13q139 0 229.5 -35.5zM646.5 119.5q83.5 36.5 148.5 110.5v300l-283 -32q-146 -17 -210.5 -68.5t-64.5 -145.5q0 -97 59 -149t176 -52q91 0 174.5 36.5zM487.5 -316.5q-23.5 22.5 -23.5 60.5t23.5 61t62.5 23t62.5 -23t23.5 -61t-23.5 -60.5
t-62.5 -22.5t-62.5 22.5zM833 1257h-108l-192 290l-192 -290h-108l242 359h116z" />
    <glyph glyph-name="uni1EAE" unicode="&#x1eae;" horiz-adv-x="1400" 
d="M1234 0l-193 499h-685l-193 -499h-126l578 1480h170l578 -1480h-129zM398 607h601l-300 777zM655 1842l187 250h112l-207 -250h-92zM473.5 1686.5q-80.5 64.5 -92.5 173.5h83q12 -80 66.5 -121.5t171.5 -41.5t170 41t67 122h82q-12 -110 -91.5 -174t-227.5 -64
t-228.5 64.5z" />
    <glyph glyph-name="uni1EAF" unicode="&#x1eaf;" horiz-adv-x="1072" 
d="M730.5 1063.5q90.5 -35.5 137.5 -118t47 -223.5v-722h-104l-9 127h-10q-57 -67 -148.5 -105.5t-194.5 -38.5q-105 0 -181 35t-116.5 100.5t-40.5 155.5q0 139 94 215.5t301 98.5l289 33v104q0 105 -34 164t-100.5 82.5t-171.5 23.5q-72 0 -153 -12.5t-158 -39.5v106
q68 24 154.5 37t168.5 13q139 0 229.5 -35.5zM646.5 119.5q83.5 36.5 148.5 110.5v300l-283 -32q-146 -17 -210.5 -68.5t-64.5 -145.5q0 -97 59 -149t176 -52q91 0 174.5 36.5zM482 1596l200 272h124l-222 -272h-102zM313.5 1353.5q-79.5 84.5 -87.5 228.5h89
q18 -234 220 -234q105 0 156.5 60.5t59.5 173.5h89q-8 -145 -86.5 -229t-218.5 -84q-142 0 -221.5 84.5z" />
    <glyph glyph-name="uni1EB0" unicode="&#x1eb0;" horiz-adv-x="1400" 
d="M1234 0l-193 499h-685l-193 -499h-126l578 1480h170l578 -1480h-129zM398 607h601l-300 777zM655 1842l-207 250h112l187 -250h-92zM472 1686q-79 64 -91 174h82q13 -81 66.5 -122t170.5 -41t171 41t67 122h83q-12 -109 -92.5 -173.5t-228.5 -64.5q-149 0 -228 64z" />
    <glyph glyph-name="uni1EB1" unicode="&#x1eb1;" horiz-adv-x="1072" 
d="M730.5 1063.5q90.5 -35.5 137.5 -118t47 -223.5v-722h-104l-9 127h-10q-57 -67 -148.5 -105.5t-194.5 -38.5q-105 0 -181 35t-116.5 100.5t-40.5 155.5q0 139 94 215.5t301 98.5l289 33v104q0 105 -34 164t-100.5 82.5t-171.5 23.5q-72 0 -153 -12.5t-158 -39.5v106
q68 24 154.5 37t168.5 13q139 0 229.5 -35.5zM646.5 119.5q83.5 36.5 148.5 110.5v300l-283 -32q-146 -17 -210.5 -68.5t-64.5 -145.5q0 -97 59 -149t176 -52q91 0 174.5 36.5zM482 1596l-222 272h124l200 -272h-102zM313.5 1353.5q-79.5 84.5 -87.5 228.5h89
q18 -234 220 -234q105 0 156.5 60.5t59.5 173.5h89q-8 -145 -86.5 -229t-218.5 -84q-142 0 -221.5 84.5z" />
    <glyph glyph-name="uni1EB2" unicode="&#x1eb2;" horiz-adv-x="1400" 
d="M1234 0l-193 499h-685l-193 -499h-126l578 1480h170l578 -1480h-129zM398 607h601l-300 777zM687 1903.5q27 21.5 76 41.5q36 15 53 26.5t17 31.5q0 24 -28 37t-95 13q-56 0 -103.5 -8t-102.5 -26v65q89 34 211 34q102 0 151 -29.5t49 -80.5q0 -39 -24 -59t-70 -39
q-38 -17 -56.5 -30.5t-21.5 -37.5h-85q2 40 29 61.5zM472 1686q-79 64 -91 174h83q12 -81 65.5 -122t169.5 -41q117 0 171.5 41t68.5 122h82q-12 -109 -93 -173.5t-229 -64.5t-227 64z" />
    <glyph glyph-name="uni1EB3" unicode="&#x1eb3;" horiz-adv-x="1072" 
d="M730.5 1063.5q90.5 -35.5 137.5 -118t47 -223.5v-722h-104l-9 127h-10q-57 -67 -148.5 -105.5t-194.5 -38.5q-105 0 -181 35t-116.5 100.5t-40.5 155.5q0 139 94 215.5t301 98.5l289 33v104q0 105 -34 164t-100.5 82.5t-171.5 23.5q-72 0 -153 -12.5t-158 -39.5v106
q68 24 154.5 37t168.5 13q139 0 229.5 -35.5zM646.5 119.5q83.5 36.5 148.5 110.5v300l-283 -32q-146 -17 -210.5 -68.5t-64.5 -145.5q0 -97 59 -149t176 -52q91 0 174.5 36.5zM519 1657.5q27 21.5 76 41.5q36 15 53 26.5t17 31.5q0 24 -28 37t-95 13q-56 0 -103.5 -8
t-102.5 -26v65q89 34 211 34q102 0 151 -29.5t49 -80.5q0 -27 -13 -45t-31 -28.5t-49 -24.5q-37 -15 -56.5 -29.5t-22.5 -38.5h-85q2 40 29 61.5zM313.5 1353.5q-79.5 84.5 -87.5 228.5h89q18 -234 220 -234q105 0 156.5 60.5t59.5 173.5h89q-8 -145 -86.5 -229t-218.5 -84
q-142 0 -221.5 84.5z" />
    <glyph glyph-name="uni1EB4" unicode="&#x1eb4;" horiz-adv-x="1400" 
d="M1234 0l-193 499h-685l-193 -499h-126l578 1480h170l578 -1480h-129zM398 607h601l-300 777zM771 1939q-37 10 -88 29q-45 17 -73 25t-56 8q-50 0 -91.5 -17t-81.5 -53v83q65 61 173 61q40 0 77 -10t88 -29q45 -17 73 -25t56 -8q50 0 91.5 16.5t81.5 53.5v-84
q-67 -60 -173 -60q-40 0 -77 10zM472 1686q-79 64 -91 174h83q12 -81 65.5 -122t169.5 -41q117 0 171.5 41t67.5 122h83q-12 -109 -93 -173.5t-229 -64.5t-227 64z" />
    <glyph glyph-name="uni1EB5" unicode="&#x1eb5;" horiz-adv-x="1072" 
d="M730.5 1063.5q90.5 -35.5 137.5 -118t47 -223.5v-722h-104l-9 127h-10q-57 -67 -148.5 -105.5t-194.5 -38.5q-105 0 -181 35t-116.5 100.5t-40.5 155.5q0 139 94 215.5t301 98.5l289 33v104q0 105 -34 164t-100.5 82.5t-171.5 23.5q-72 0 -153 -12.5t-158 -39.5v106
q68 24 154.5 37t168.5 13q139 0 229.5 -35.5zM646.5 119.5q83.5 36.5 148.5 110.5v300l-283 -32q-146 -17 -210.5 -68.5t-64.5 -145.5q0 -97 59 -149t176 -52q91 0 174.5 36.5zM606.5 1674q-36.5 10 -89.5 29q-42 17 -73.5 25.5t-62.5 8.5q-50 0 -90.5 -16.5t-78.5 -52.5v88
q64 62 170 62q41 0 78.5 -10t88.5 -30q47 -17 76.5 -25.5t59.5 -8.5q50 0 90.5 16.5t78.5 52.5v-88q-62 -61 -170 -61q-41 0 -77.5 10zM313.5 1353.5q-79.5 84.5 -87.5 228.5h89q18 -234 220 -234q105 0 156.5 60.5t59.5 173.5h89q-8 -145 -86.5 -229t-218.5 -84
q-142 0 -221.5 84.5z" />
    <glyph glyph-name="uni1EB6" unicode="&#x1eb6;" horiz-adv-x="1400" 
d="M1234 0l-193 499h-685l-193 -499h-126l578 1480h170l578 -1480h-129zM398 607h601l-300 777zM634.5 -312.5q-24.5 21.5 -24.5 58.5q0 38 24.5 60t66.5 22t66.5 -22t24.5 -60q0 -37 -24.5 -58.5t-66.5 -21.5t-66.5 21.5zM471 1688q-82 66 -94 178h89q13 -81 67.5 -122.5
t169.5 -41.5q114 0 167.5 41.5t65.5 122.5h89q-12 -113 -92 -178.5t-230 -65.5t-232 66z" />
    <glyph glyph-name="uni1EB7" unicode="&#x1eb7;" horiz-adv-x="1072" 
d="M730.5 1063.5q90.5 -35.5 137.5 -118t47 -223.5v-722h-104l-9 127h-10q-57 -67 -148.5 -105.5t-194.5 -38.5q-105 0 -181 35t-116.5 100.5t-40.5 155.5q0 139 94 215.5t301 98.5l289 33v104q0 105 -34 164t-100.5 82.5t-171.5 23.5q-72 0 -153 -12.5t-158 -39.5v106
q68 24 154.5 37t168.5 13q139 0 229.5 -35.5zM646.5 119.5q83.5 36.5 148.5 110.5v300l-283 -32q-146 -17 -210.5 -68.5t-64.5 -145.5q0 -97 59 -149t176 -52q91 0 174.5 36.5zM487.5 -316.5q-23.5 22.5 -23.5 60.5t23.5 61t62.5 23t62.5 -23t23.5 -61t-23.5 -60.5
t-62.5 -22.5t-62.5 22.5zM315 1354.5q-79 85.5 -86 234.5h88q16 -240 218 -240q104 0 155.5 62t58.5 178h88q-7 -150 -84.5 -235t-217.5 -85q-141 0 -220 85.5z" />
    <glyph glyph-name="uni1EB8" unicode="&#x1eb8;" horiz-adv-x="1230" 
d="M313 108h827v-108h-949v1480h939v-108h-817v-558h717v-108h-717v-598zM617.5 -312.5q-24.5 21.5 -24.5 58.5q0 38 24.5 60t66.5 22t66.5 -22t24.5 -60q0 -37 -24.5 -58.5t-66.5 -21.5t-66.5 21.5z" />
    <glyph glyph-name="uni1EB9" unicode="&#x1eb9;" horiz-adv-x="1079" 
d="M988 498h-753q7 -217 108.5 -315t300.5 -98q126 0 290 50v-105q-160 -49 -303 -49q-257 0 -389 136.5t-132 424.5q0 276 117.5 416.5t329.5 140.5q209 0 320 -140t111 -419v-42zM321.5 905q-81.5 -99 -86.5 -315h634q-4 215 -83 314.5t-230 99.5q-153 0 -234.5 -99z
M496.5 -316.5q-23.5 22.5 -23.5 60.5t23.5 61t62.5 23t62.5 -23t23.5 -61t-23.5 -60.5t-62.5 -22.5t-62.5 22.5z" />
    <glyph glyph-name="uni1EBA" unicode="&#x1eba;" horiz-adv-x="1230" 
d="M313 108h827v-108h-949v1480h939v-108h-817v-558h717v-108h-717v-598zM668 1674.5q27 21.5 76 42.5q35 14 52.5 26.5t17.5 32.5q0 24 -28 37t-95 13q-56 0 -103.5 -8t-102.5 -26v69q91 33 211 33q102 0 151 -30t49 -83q0 -39 -23.5 -59.5t-69.5 -40.5q-38 -17 -57 -31
t-22 -39h-85q2 42 29 63.5z" />
    <glyph glyph-name="uni1EBB" unicode="&#x1ebb;" horiz-adv-x="1079" 
d="M988 498h-753q7 -217 108.5 -315t300.5 -98q126 0 290 50v-105q-160 -49 -303 -49q-257 0 -389 136.5t-132 424.5q0 276 117.5 416.5t329.5 140.5q209 0 320 -140t111 -419v-42zM321.5 905q-81.5 -99 -86.5 -315h634q-4 215 -83 314.5t-230 99.5q-153 0 -234.5 -99z
M534 1322.5q15 27.5 34.5 44.5t50.5 38q34 23 50 39.5t16 41.5q0 37 -31.5 54t-97.5 17q-41 0 -84.5 -6t-79.5 -18v71q33 11 77.5 17.5t86.5 6.5q211 0 211 -138q0 -45 -21.5 -71t-63.5 -54q-39 -25 -59 -47.5t-22 -60.5h-83q1 38 16 65.5z" />
    <glyph glyph-name="uni1EBC" unicode="&#x1ebc;" horiz-adv-x="1230" 
d="M313 108h827v-108h-949v1480h939v-108h-817v-558h717v-108h-717v-598zM759.5 1691q-37.5 10 -93.5 30q-47 18 -78.5 26.5t-64.5 8.5q-55 0 -96.5 -17t-79.5 -54v93q32 32 75 47.5t102 15.5q43 0 80.5 -10t93.5 -30q47 -18 78.5 -26.5t64.5 -8.5q55 0 96.5 16.5t79.5 53.5
v-93q-32 -32 -75 -47t-102 -15q-43 0 -80.5 10z" />
    <glyph glyph-name="uni1EBD" unicode="&#x1ebd;" horiz-adv-x="1079" 
d="M988 498h-753q7 -217 108.5 -315t300.5 -98q126 0 290 50v-105q-160 -49 -303 -49q-257 0 -389 136.5t-132 424.5q0 276 117.5 416.5t329.5 140.5q209 0 320 -140t111 -419v-42zM321.5 905q-81.5 -99 -86.5 -315h634q-4 215 -83 314.5t-230 99.5q-153 0 -234.5 -99z
M630 1370q-36 11 -88 32q-47 19 -75 27.5t-56 8.5q-50 0 -90 -18t-77 -56v97q62 64 168 64q40 0 76 -11t88 -32q47 -19 74.5 -27.5t56.5 -8.5q50 0 90 18t77 56v-97q-62 -64 -168 -64q-40 0 -76 11z" />
    <glyph glyph-name="uni1EBE" unicode="&#x1ebe;" horiz-adv-x="1230" 
d="M313 108h827v-108h-949v1480h939v-108h-817v-558h717v-108h-717v-598zM1109 2064h112l-207 -266h-92zM623 1883h118l265 -272h-121l-203 215l-203 -215h-121z" />
    <glyph glyph-name="uni1EBF" unicode="&#x1ebf;" horiz-adv-x="1079" 
d="M988 498h-753q7 -217 108.5 -315t300.5 -98q126 0 290 50v-105q-160 -49 -303 -49q-257 0 -389 136.5t-132 424.5q0 276 117.5 416.5t329.5 140.5q209 0 320 -140t111 -419v-42zM321.5 905q-81.5 -99 -86.5 -315h634q-4 215 -83 314.5t-230 99.5q-153 0 -234.5 -99z
M978 1868h124l-222 -272h-102zM501 1616h116l242 -359h-108l-192 290l-192 -290h-108z" />
    <glyph glyph-name="uni1EC0" unicode="&#x1ec0;" horiz-adv-x="1230" 
d="M313 108h827v-108h-949v1480h939v-108h-817v-558h717v-108h-717v-598zM1037 1798h-92l-208 266h113zM623 1883h118l265 -272h-121l-203 215l-203 -215h-121z" />
    <glyph glyph-name="uni1EC1" unicode="&#x1ec1;" horiz-adv-x="1079" 
d="M988 498h-753q7 -217 108.5 -315t300.5 -98q126 0 290 50v-105q-160 -49 -303 -49q-257 0 -389 136.5t-132 424.5q0 276 117.5 416.5t329.5 140.5q209 0 320 -140t111 -419v-42zM321.5 905q-81.5 -99 -86.5 -315h634q-4 215 -83 314.5t-230 99.5q-153 0 -234.5 -99z
M904 1596h-102l-222 272h124zM501 1616h116l242 -359h-108l-192 290l-192 -290h-108z" />
    <glyph glyph-name="uni1EC2" unicode="&#x1ec2;" horiz-adv-x="1230" 
d="M313 108h827v-108h-949v1480h939v-108h-817v-558h717v-108h-717v-598zM1132 2043.5q49 -29.5 49 -80.5q0 -27 -13 -45t-31 -28.5t-50 -24.5q-38 -16 -56.5 -29.5t-21.5 -37.5h-86q2 41 29 62t77 41q36 15 53 26.5t17 30.5q0 24 -28 37t-95 13q-56 0 -103.5 -8t-102.5 -26
v66q91 33 211 33q102 0 151 -29.5zM623 1883h118l265 -272h-121l-203 215l-203 -215h-121z" />
    <glyph glyph-name="uni1EC3" unicode="&#x1ec3;" horiz-adv-x="1079" 
d="M988 498h-753q7 -217 108.5 -315t300.5 -98q126 0 290 50v-105q-160 -49 -303 -49q-257 0 -389 136.5t-132 424.5q0 276 117.5 416.5t329.5 140.5q209 0 320 -140t111 -419v-42zM321.5 905q-81.5 -99 -86.5 -315h634q-4 215 -83 314.5t-230 99.5q-153 0 -234.5 -99z
M985 1843q48 -29 48 -81q0 -38 -23 -57.5t-68 -38.5q-38 -17 -57 -31t-22 -39h-84q2 41 29 62.5t75 41.5q36 14 52.5 26t16.5 31q0 24 -27 37t-94 13q-56 0 -103 -8t-101 -25v64q87 34 209 34q101 0 149 -29zM501 1616h116l242 -359h-108l-192 290l-192 -290h-108z" />
    <glyph glyph-name="uni1EC4" unicode="&#x1ec4;" horiz-adv-x="1230" 
d="M313 108h827v-108h-949v1480h939v-108h-817v-558h717v-108h-717v-598zM924 2019.5q41 16.5 82 53.5v-84q-66 -60 -174 -60q-41 0 -78 10t-90 29q-46 17 -74.5 25t-57.5 8q-50 0 -91.5 -17t-82.5 -53v83q65 61 174 61q41 0 78 -10t90 -29q46 -17 74.5 -25t57.5 -8
q51 0 92 16.5zM623 1883h118l265 -272h-121l-203 215l-203 -215h-121z" />
    <glyph glyph-name="uni1EC5" unicode="&#x1ec5;" horiz-adv-x="1079" 
d="M988 498h-753q7 -217 108.5 -315t300.5 -98q126 0 290 50v-105q-160 -49 -303 -49q-257 0 -389 136.5t-132 424.5q0 276 117.5 416.5t329.5 140.5q209 0 320 -140t111 -419v-42zM321.5 905q-81.5 -99 -86.5 -315h634q-4 215 -83 314.5t-230 99.5q-153 0 -234.5 -99z
M800 1760.5q40 16.5 78 52.5v-88q-61 -61 -169 -61q-41 0 -78 10t-88 29q-45 17 -75 25.5t-60 8.5q-50 0 -90 -16.5t-78 -52.5v88q62 62 169 62q41 0 79 -10.5t87 -29.5q51 -18 78 -26t57 -8q50 0 90 16.5zM500 1604h118l245 -346h-110l-194 283l-194 -283h-110z" />
    <glyph glyph-name="uni1EC6" unicode="&#x1ec6;" horiz-adv-x="1230" 
d="M313 108h827v-108h-949v1480h939v-108h-817v-558h717v-108h-717v-598zM617.5 -312.5q-24.5 21.5 -24.5 58.5q0 38 24.5 60t66.5 22t66.5 -22t24.5 -60q0 -37 -24.5 -58.5t-66.5 -21.5t-66.5 21.5zM1006 1611h-121l-203 219l-203 -219h-121l265 279h118z" />
    <glyph glyph-name="uni1EC7" unicode="&#x1ec7;" horiz-adv-x="1079" 
d="M988 498h-753q7 -217 108.5 -315t300.5 -98q126 0 290 50v-105q-160 -49 -303 -49q-257 0 -389 136.5t-132 424.5q0 276 117.5 416.5t329.5 140.5q209 0 320 -140t111 -419v-42zM321.5 905q-81.5 -99 -86.5 -315h634q-4 215 -83 314.5t-230 99.5q-153 0 -234.5 -99z
M496.5 -316.5q-23.5 22.5 -23.5 60.5t23.5 61t62.5 23t62.5 -23t23.5 -61t-23.5 -60.5t-62.5 -22.5t-62.5 22.5zM859 1257h-108l-192 290l-192 -290h-108l242 359h116z" />
    <glyph glyph-name="uni1EC8" unicode="&#x1ec8;" horiz-adv-x="505" 
d="M191 0v1480h123v-1480h-123zM238 1674.5q27 21.5 76 42.5q35 14 52.5 26.5t17.5 32.5q0 24 -28 37t-95 13q-56 0 -103.5 -8t-102.5 -26v69q91 33 211 33q102 0 151 -30t49 -83q0 -39 -23.5 -59.5t-69.5 -40.5q-38 -17 -57 -31t-22 -39h-85q2 42 29 63.5z" />
    <glyph glyph-name="uni1EC9" unicode="&#x1ec9;" horiz-adv-x="466" 
d="M172 0v1083h122v-1083h-122zM208 1322.5q15 27.5 34.5 44.5t50.5 38q34 23 50 39.5t16 41.5q0 37 -31.5 54t-97.5 17q-41 0 -84.5 -6t-79.5 -18v71q33 11 77.5 17.5t86.5 6.5q211 0 211 -138q0 -45 -21.5 -71t-63.5 -54q-39 -25 -59 -47.5t-22 -60.5h-83q1 38 16 65.5z
" />
    <glyph glyph-name="uni1ECA" unicode="&#x1eca;" horiz-adv-x="505" 
d="M191 0v1480h123v-1480h-123zM185.5 -312.5q-24.5 21.5 -24.5 58.5q0 38 24.5 60t66.5 22t66.5 -22t24.5 -60q0 -37 -24.5 -58.5t-66.5 -21.5t-66.5 21.5z" />
    <glyph glyph-name="uni1ECB" unicode="&#x1ecb;" horiz-adv-x="466" 
d="M172 0v1083h122v-1083h-122zM166 1359.5q-24 22.5 -24 61.5q0 40 24.5 63.5t66.5 23.5t66.5 -23.5t24.5 -63.5q0 -39 -24 -61.5t-67 -22.5t-67 22.5zM170.5 -316.5q-23.5 22.5 -23.5 60.5t23.5 61t62.5 23t62.5 -23t23.5 -61t-23.5 -60.5t-62.5 -22.5t-62.5 22.5z" />
    <glyph glyph-name="uni1ECC" unicode="&#x1ecc;" horiz-adv-x="1512" 
d="M420 62.5q-142 80.5 -220.5 249.5t-78.5 428t79 428t221.5 249.5t334.5 80.5q194 0 336 -80.5t220.5 -249.5t78.5 -428t-79 -428t-221.5 -249.5t-334.5 -80.5q-194 0 -336 80.5zM1129.5 245.5q133.5 153.5 133.5 489.5q0 653 -507 653q-240 0 -373.5 -153.5
t-133.5 -489.5q0 -653 507 -653q240 0 373.5 153.5zM689.5 -312.5q-24.5 21.5 -24.5 58.5q0 38 24.5 60t66.5 22t66.5 -22t24.5 -60q0 -37 -24.5 -58.5t-66.5 -21.5t-66.5 21.5z" />
    <glyph glyph-name="uni1ECD" unicode="&#x1ecd;" horiz-adv-x="1162" 
d="M234.5 118.5q-124.5 137.5 -124.5 422.5q0 282 125 420t346 138q223 0 347 -136.5t124 -421.5q0 -282 -125.5 -421t-345.5 -139q-222 0 -346.5 137.5zM837.5 192q89.5 107 89.5 347q0 243 -89.5 350t-256.5 107t-256.5 -106t-89.5 -347q0 -243 89.5 -350.5t256.5 -107.5
t256.5 107zM518.5 -316.5q-23.5 22.5 -23.5 60.5t23.5 61t62.5 23t62.5 -23t23.5 -61t-23.5 -60.5t-62.5 -22.5t-62.5 22.5z" />
    <glyph glyph-name="uni1ECE" unicode="&#x1ece;" horiz-adv-x="1512" 
d="M420 62.5q-142 80.5 -220.5 249.5t-78.5 428t79 428t221.5 249.5t334.5 80.5q194 0 336 -80.5t220.5 -249.5t78.5 -428t-79 -428t-221.5 -249.5t-334.5 -80.5q-194 0 -336 80.5zM1129.5 245.5q133.5 153.5 133.5 489.5q0 653 -507 653q-240 0 -373.5 -153.5
t-133.5 -489.5q0 -653 507 -653q240 0 373.5 153.5zM742 1674.5q27 21.5 76 42.5q35 14 52.5 26.5t17.5 32.5q0 24 -28 37t-95 13q-56 0 -103.5 -8t-102.5 -26v69q91 33 211 33q102 0 151 -30t49 -83q0 -39 -23.5 -59.5t-69.5 -40.5q-38 -17 -57 -31t-22 -39h-85
q2 42 29 63.5z" />
    <glyph glyph-name="uni1ECF" unicode="&#x1ecf;" horiz-adv-x="1162" 
d="M234.5 118.5q-124.5 137.5 -124.5 422.5q0 282 125 420t346 138q223 0 347 -136.5t124 -421.5q0 -282 -125.5 -421t-345.5 -139q-222 0 -346.5 137.5zM837.5 192q89.5 107 89.5 347q0 243 -89.5 350t-256.5 107t-256.5 -106t-89.5 -347q0 -243 89.5 -350.5t256.5 -107.5
t256.5 107zM556 1322.5q15 27.5 34.5 44.5t50.5 38q34 23 50 39.5t16 41.5q0 37 -31.5 54t-97.5 17q-41 0 -84.5 -6t-79.5 -18v71q33 11 77.5 17.5t86.5 6.5q211 0 211 -138q0 -45 -21.5 -71t-63.5 -54q-39 -25 -59 -47.5t-22 -60.5h-83q1 38 16 65.5z" />
    <glyph glyph-name="uni1ED0" unicode="&#x1ed0;" horiz-adv-x="1512" 
d="M420 62.5q-142 80.5 -220.5 249.5t-78.5 428t79 428t221.5 249.5t334.5 80.5q194 0 336 -80.5t220.5 -249.5t78.5 -428t-79 -428t-221.5 -249.5t-334.5 -80.5q-194 0 -336 80.5zM1129.5 245.5q133.5 153.5 133.5 489.5q0 653 -507 653q-240 0 -373.5 -153.5
t-133.5 -489.5q0 -653 507 -653q240 0 373.5 153.5zM1183 2064h112l-207 -266h-92zM697 1883h118l265 -272h-121l-203 215l-203 -215h-121z" />
    <glyph glyph-name="uni1ED1" unicode="&#x1ed1;" horiz-adv-x="1162" 
d="M234.5 118.5q-124.5 137.5 -124.5 422.5q0 282 125 420t346 138q223 0 347 -136.5t124 -421.5q0 -282 -125.5 -421t-345.5 -139q-222 0 -346.5 137.5zM837.5 192q89.5 107 89.5 347q0 243 -89.5 350t-256.5 107t-256.5 -106t-89.5 -347q0 -243 89.5 -350.5t256.5 -107.5
t256.5 107zM1000 1868h124l-222 -272h-102zM523 1616h116l242 -359h-108l-192 290l-192 -290h-108z" />
    <glyph glyph-name="uni1ED2" unicode="&#x1ed2;" horiz-adv-x="1512" 
d="M420 62.5q-142 80.5 -220.5 249.5t-78.5 428t79 428t221.5 249.5t334.5 80.5q194 0 336 -80.5t220.5 -249.5t78.5 -428t-79 -428t-221.5 -249.5t-334.5 -80.5q-194 0 -336 80.5zM1129.5 245.5q133.5 153.5 133.5 489.5q0 653 -507 653q-240 0 -373.5 -153.5
t-133.5 -489.5q0 -653 507 -653q240 0 373.5 153.5zM1111 1798h-92l-208 266h113zM697 1883h118l265 -272h-121l-203 215l-203 -215h-121z" />
    <glyph glyph-name="uni1ED3" unicode="&#x1ed3;" horiz-adv-x="1162" 
d="M234.5 118.5q-124.5 137.5 -124.5 422.5q0 282 125 420t346 138q223 0 347 -136.5t124 -421.5q0 -282 -125.5 -421t-345.5 -139q-222 0 -346.5 137.5zM837.5 192q89.5 107 89.5 347q0 243 -89.5 350t-256.5 107t-256.5 -106t-89.5 -347q0 -243 89.5 -350.5t256.5 -107.5
t256.5 107zM926 1596h-102l-222 272h124zM523 1616h116l242 -359h-108l-192 290l-192 -290h-108z" />
    <glyph glyph-name="uni1ED4" unicode="&#x1ed4;" horiz-adv-x="1512" 
d="M420 62.5q-142 80.5 -220.5 249.5t-78.5 428t79 428t221.5 249.5t334.5 80.5q194 0 336 -80.5t220.5 -249.5t78.5 -428t-79 -428t-221.5 -249.5t-334.5 -80.5q-194 0 -336 80.5zM1129.5 245.5q133.5 153.5 133.5 489.5q0 653 -507 653q-240 0 -373.5 -153.5
t-133.5 -489.5q0 -653 507 -653q240 0 373.5 153.5zM1206 2043.5q49 -29.5 49 -80.5q0 -27 -13 -45t-31 -28.5t-50 -24.5q-38 -16 -56.5 -29.5t-21.5 -37.5h-86q2 41 29 62t77 41q36 15 53 26.5t17 30.5q0 24 -28 37t-95 13q-56 0 -103.5 -8t-102.5 -26v66q91 33 211 33
q102 0 151 -29.5zM697 1883h118l265 -272h-121l-203 215l-203 -215h-121z" />
    <glyph glyph-name="uni1ED5" unicode="&#x1ed5;" horiz-adv-x="1162" 
d="M234.5 118.5q-124.5 137.5 -124.5 422.5q0 282 125 420t346 138q223 0 347 -136.5t124 -421.5q0 -282 -125.5 -421t-345.5 -139q-222 0 -346.5 137.5zM837.5 192q89.5 107 89.5 347q0 243 -89.5 350t-256.5 107t-256.5 -106t-89.5 -347q0 -243 89.5 -350.5t256.5 -107.5
t256.5 107zM1007 1843q48 -29 48 -81q0 -38 -23 -57.5t-68 -38.5q-38 -17 -57 -31t-22 -39h-84q2 41 29 62.5t75 41.5q36 14 52.5 26t16.5 31q0 24 -27 37t-94 13q-56 0 -103 -8t-101 -25v64q87 34 209 34q101 0 149 -29zM523 1616h116l242 -359h-108l-192 290l-192 -290
h-108z" />
    <glyph glyph-name="uni1ED6" unicode="&#x1ed6;" horiz-adv-x="1512" 
d="M420 62.5q-142 80.5 -220.5 249.5t-78.5 428t79 428t221.5 249.5t334.5 80.5q194 0 336 -80.5t220.5 -249.5t78.5 -428t-79 -428t-221.5 -249.5t-334.5 -80.5q-194 0 -336 80.5zM1129.5 245.5q133.5 153.5 133.5 489.5q0 653 -507 653q-240 0 -373.5 -153.5
t-133.5 -489.5q0 -653 507 -653q240 0 373.5 153.5zM998 2019.5q41 16.5 82 53.5v-84q-66 -60 -174 -60q-41 0 -78 10t-90 29q-46 17 -74.5 25t-57.5 8q-50 0 -91.5 -17t-82.5 -53v83q65 61 174 61q41 0 78 -10t90 -29q46 -17 74.5 -25t57.5 -8q51 0 92 16.5zM697 1883h118
l265 -272h-121l-203 215l-203 -215h-121z" />
    <glyph glyph-name="uni1ED7" unicode="&#x1ed7;" horiz-adv-x="1162" 
d="M234.5 118.5q-124.5 137.5 -124.5 422.5q0 282 125 420t346 138q223 0 347 -136.5t124 -421.5q0 -282 -125.5 -421t-345.5 -139q-222 0 -346.5 137.5zM837.5 192q89.5 107 89.5 347q0 243 -89.5 350t-256.5 107t-256.5 -106t-89.5 -347q0 -243 89.5 -350.5t256.5 -107.5
t256.5 107zM822 1760.5q40 16.5 78 52.5v-88q-61 -61 -169 -61q-41 0 -78 10t-88 29q-45 17 -75 25.5t-60 8.5q-50 0 -90 -16.5t-78 -52.5v88q62 62 169 62q41 0 79 -10.5t87 -29.5q51 -18 78 -26t57 -8q50 0 90 16.5zM522 1604h118l245 -346h-110l-194 283l-194 -283h-110z
" />
    <glyph glyph-name="uni1ED8" unicode="&#x1ed8;" horiz-adv-x="1512" 
d="M420 62.5q-142 80.5 -220.5 249.5t-78.5 428t79 428t221.5 249.5t334.5 80.5q194 0 336 -80.5t220.5 -249.5t78.5 -428t-79 -428t-221.5 -249.5t-334.5 -80.5q-194 0 -336 80.5zM1129.5 245.5q133.5 153.5 133.5 489.5q0 653 -507 653q-240 0 -373.5 -153.5
t-133.5 -489.5q0 -653 507 -653q240 0 373.5 153.5zM689.5 -312.5q-24.5 21.5 -24.5 58.5q0 38 24.5 60t66.5 22t66.5 -22t24.5 -60q0 -37 -24.5 -58.5t-66.5 -21.5t-66.5 21.5zM1080 1611h-121l-203 219l-203 -219h-121l265 279h118z" />
    <glyph glyph-name="uni1ED9" unicode="&#x1ed9;" horiz-adv-x="1162" 
d="M234.5 118.5q-124.5 137.5 -124.5 422.5q0 282 125 420t346 138q223 0 347 -136.5t124 -421.5q0 -282 -125.5 -421t-345.5 -139q-222 0 -346.5 137.5zM837.5 192q89.5 107 89.5 347q0 243 -89.5 350t-256.5 107t-256.5 -106t-89.5 -347q0 -243 89.5 -350.5t256.5 -107.5
t256.5 107zM518.5 -316.5q-23.5 22.5 -23.5 60.5t23.5 61t62.5 23t62.5 -23t23.5 -61t-23.5 -60.5t-62.5 -22.5t-62.5 22.5zM881 1257h-108l-192 290l-192 -290h-108l242 359h116z" />
    <glyph glyph-name="uni1EDA" unicode="&#x1eda;" horiz-adv-x="1512" 
d="M1325 1140q66 -161 66 -400q0 -389 -168.5 -573.5t-466.5 -184.5q-194 0 -336 80.5t-220.5 249.5t-78.5 428t79 428t221.5 249.5t334.5 80.5q48 0 95.5 -5t58.5 -6q100 -13 178 -13q100 0 153.5 39.5t53.5 120.5q0 38 -6 70.5t-18 71.5h98q13 -37 19 -70t6 -76
q0 -107 -66.5 -169t-190.5 -71q122 -89 188 -250zM1129.5 245.5q133.5 153.5 133.5 489.5q0 653 -507 653q-240 0 -373.5 -153.5t-133.5 -489.5q0 -653 507 -653q240 0 373.5 153.5zM698 1611l200 279h138l-222 -279h-116z" />
    <glyph glyph-name="uni1EDB" unicode="&#x1edb;" horiz-adv-x="1162" 
d="M892 1616l-260 -359h-114l238 359h136zM1052 541q0 -282 -125.5 -421t-345.5 -139q-222 0 -346.5 137.5t-124.5 422.5q0 282 125 420t347 138q50 0 120 -6q54 -4 73 -4q206 0 206 166q0 37 -6 69.5t-18 71.5h95q13 -37 19 -70t6 -76q0 -99 -52 -160t-150 -80
q177 -136 177 -469zM837.5 192q89.5 107 89.5 347q0 243 -89.5 350t-256.5 107t-256.5 -106t-89.5 -347q0 -243 89.5 -350.5t256.5 -107.5t256.5 107z" />
    <glyph glyph-name="uni1EDC" unicode="&#x1edc;" horiz-adv-x="1512" 
d="M1325 1140q66 -161 66 -400q0 -389 -168.5 -573.5t-466.5 -184.5q-194 0 -336 80.5t-220.5 249.5t-78.5 428t79 428t221.5 249.5t334.5 80.5q48 0 95.5 -5t58.5 -6q100 -13 178 -13q100 0 153.5 39.5t53.5 120.5q0 38 -6 70.5t-18 71.5h98q13 -37 19 -70t6 -76
q0 -107 -66.5 -169t-190.5 -71q122 -89 188 -250zM1129.5 245.5q133.5 153.5 133.5 489.5q0 653 -507 653q-240 0 -373.5 -153.5t-133.5 -489.5q0 -653 507 -653q240 0 373.5 153.5zM698 1611l-222 279h138l200 -279h-116z" />
    <glyph glyph-name="uni1EDD" unicode="&#x1edd;" horiz-adv-x="1162" 
d="M1052 541q0 -282 -125.5 -421t-345.5 -139q-222 0 -346.5 137.5t-124.5 422.5q0 282 125 420t347 138q50 0 120 -6q54 -4 73 -4q206 0 206 166q0 37 -6 69.5t-18 71.5h95q13 -37 19 -70t6 -76q0 -99 -52 -160t-150 -80q177 -136 177 -469zM837.5 192q89.5 107 89.5 347
q0 243 -89.5 350t-256.5 107t-256.5 -106t-89.5 -347q0 -243 89.5 -350.5t256.5 -107.5t256.5 107zM517 1257l-263 359h137l242 -359h-116z" />
    <glyph glyph-name="uni1EDE" unicode="&#x1ede;" horiz-adv-x="1512" 
d="M1325 1140q66 -161 66 -400q0 -389 -168.5 -573.5t-466.5 -184.5q-194 0 -336 80.5t-220.5 249.5t-78.5 428t79 428t221.5 249.5t334.5 80.5q48 0 95.5 -5t58.5 -6q100 -13 178 -13q100 0 153.5 39.5t53.5 120.5q0 38 -6 70.5t-18 71.5h98q13 -37 19 -70t6 -76
q0 -107 -66.5 -169t-190.5 -71q122 -89 188 -250zM1129.5 245.5q133.5 153.5 133.5 489.5q0 653 -507 653q-240 0 -373.5 -153.5t-133.5 -489.5q0 -653 507 -653q240 0 373.5 153.5zM742 1674.5q27 21.5 76 42.5q35 14 52.5 26.5t17.5 32.5q0 24 -28 37t-95 13
q-56 0 -103.5 -8t-102.5 -26v69q91 33 211 33q102 0 151 -30t49 -83q0 -39 -23.5 -59.5t-69.5 -40.5q-38 -17 -57 -31t-22 -39h-85q2 42 29 63.5z" />
    <glyph glyph-name="uni1EDF" unicode="&#x1edf;" horiz-adv-x="1162" 
d="M1052 541q0 -282 -125.5 -421t-345.5 -139q-222 0 -346.5 137.5t-124.5 422.5q0 282 125 420t347 138q50 0 120 -6q54 -4 73 -4q206 0 206 166q0 37 -6 69.5t-18 71.5h95q13 -37 19 -70t6 -76q0 -99 -52 -160t-150 -80q177 -136 177 -469zM837.5 192q89.5 107 89.5 347
q0 243 -89.5 350t-256.5 107t-256.5 -106t-89.5 -347q0 -243 89.5 -350.5t256.5 -107.5t256.5 107zM550 1322.5q15 27.5 34.5 44.5t50.5 38q34 23 50 39.5t16 41.5q0 37 -31.5 54t-97.5 17q-41 0 -84.5 -6t-79.5 -18v71q33 11 77.5 17.5t86.5 6.5q211 0 211 -138
q0 -45 -21.5 -71t-63.5 -54q-39 -25 -59 -47.5t-22 -60.5h-83q1 38 16 65.5z" />
    <glyph glyph-name="uni1EE0" unicode="&#x1ee0;" horiz-adv-x="1512" 
d="M833 1691q-38 10 -92 30q-47 18 -78.5 26.5t-64.5 8.5q-54 0 -95 -17t-79 -54v93q62 63 175 63q42 0 80 -10t92 -30q47 -18 78.5 -26.5t64.5 -8.5q54 0 95 17t78 53v-93q-31 -32 -73.5 -47t-100.5 -15q-42 0 -80 10zM1325 1140q66 -161 66 -400q0 -389 -168.5 -573.5
t-466.5 -184.5q-194 0 -336 80.5t-220.5 249.5t-78.5 428t79 428t221.5 249.5t334.5 80.5q48 0 95.5 -5t58.5 -6q100 -13 178 -13q100 0 153.5 39.5t53.5 120.5q0 38 -6 70.5t-18 71.5h98q13 -37 19 -70t6 -76q0 -107 -66.5 -169t-190.5 -71q122 -89 188 -250zM1129.5 245.5
q133.5 153.5 133.5 489.5q0 653 -507 653q-240 0 -373.5 -153.5t-133.5 -489.5q0 -653 507 -653q240 0 373.5 153.5z" />
    <glyph glyph-name="uni1EE1" unicode="&#x1ee1;" horiz-adv-x="1162" 
d="M338 1420q-39 -18 -77 -56v97q62 64 166 64q39 0 74.5 -11t86.5 -32q45 -18 73 -27t57 -9q48 0 87.5 18t76.5 56v-97q-62 -64 -165 -64q-40 0 -76 11t-85 32q-48 19 -75 27.5t-55 8.5q-49 0 -88 -18zM1052 541q0 -282 -125.5 -421t-345.5 -139q-222 0 -346.5 137.5
t-124.5 422.5q0 282 125 420t347 138q50 0 120 -6q54 -4 73 -4q206 0 206 166q0 37 -6 69.5t-18 71.5h95q13 -37 19 -70t6 -76q0 -99 -52 -160t-150 -80q177 -136 177 -469zM837.5 192q89.5 107 89.5 347q0 243 -89.5 350t-256.5 107t-256.5 -106t-89.5 -347
q0 -243 89.5 -350.5t256.5 -107.5t256.5 107z" />
    <glyph glyph-name="uni1EE2" unicode="&#x1ee2;" horiz-adv-x="1512" 
d="M1325 1140q66 -161 66 -400q0 -389 -168.5 -573.5t-466.5 -184.5q-194 0 -336 80.5t-220.5 249.5t-78.5 428t79 428t221.5 249.5t334.5 80.5q48 0 95.5 -5t58.5 -6q100 -13 178 -13q100 0 153.5 39.5t53.5 120.5q0 38 -6 70.5t-18 71.5h98q13 -37 19 -70t6 -76
q0 -107 -66.5 -169t-190.5 -71q122 -89 188 -250zM1129.5 245.5q133.5 153.5 133.5 489.5q0 653 -507 653q-240 0 -373.5 -153.5t-133.5 -489.5q0 -653 507 -653q240 0 373.5 153.5zM689.5 -312.5q-24.5 21.5 -24.5 58.5q0 38 24.5 60t66.5 22t66.5 -22t24.5 -60
q0 -37 -24.5 -58.5t-66.5 -21.5t-66.5 21.5z" />
    <glyph glyph-name="uni1EE3" unicode="&#x1ee3;" horiz-adv-x="1162" 
d="M1052 541q0 -282 -125.5 -421t-345.5 -139q-222 0 -346.5 137.5t-124.5 422.5q0 282 125 420t347 138q50 0 120 -6q54 -4 73 -4q206 0 206 166q0 37 -6 69.5t-18 71.5h95q13 -37 19 -70t6 -76q0 -99 -52 -160t-150 -80q177 -136 177 -469zM837.5 192q89.5 107 89.5 347
q0 243 -89.5 350t-256.5 107t-256.5 -106t-89.5 -347q0 -243 89.5 -350.5t256.5 -107.5t256.5 107zM514.5 -316.5q-23.5 22.5 -23.5 60.5t23.5 61t62.5 23t62.5 -23t23.5 -61t-23.5 -60.5t-62.5 -22.5t-62.5 22.5z" />
    <glyph glyph-name="uni1EE4" unicode="&#x1ee4;" horiz-adv-x="1485" 
d="M427.5 43.5q-123.5 61.5 -184 190.5t-60.5 332v914h123v-929q0 -162 47 -263t143.5 -149t247.5 -48t247.5 48t143.5 149t47 263v929h120v-914q0 -204 -60 -332.5t-183 -190t-315 -61.5q-193 0 -316.5 61.5zM677.5 -312.5q-24.5 21.5 -24.5 58.5q0 38 24.5 60t66.5 22
t66.5 -22t24.5 -60q0 -37 -24.5 -58.5t-66.5 -21.5t-66.5 21.5z" />
    <glyph glyph-name="uni1EE5" unicode="&#x1ee5;" horiz-adv-x="1185" 
d="M254 74.5q-97 92.5 -97 294.5v714h122v-708q0 -150 69.5 -216t195.5 -66q94 0 187 39.5t160 117.5v833h122v-1083h-104l-9 123h-9q-74 -69 -169 -105t-200 -36q-171 0 -268 92.5zM522.5 -316.5q-23.5 22.5 -23.5 60.5t23.5 61t62.5 23t62.5 -23t23.5 -61t-23.5 -60.5
t-62.5 -22.5t-62.5 22.5z" />
    <glyph glyph-name="uni1EE6" unicode="&#x1ee6;" horiz-adv-x="1485" 
d="M427.5 43.5q-123.5 61.5 -184 190.5t-60.5 332v914h123v-929q0 -162 47 -263t143.5 -149t247.5 -48t247.5 48t143.5 149t47 263v929h120v-914q0 -204 -60 -332.5t-183 -190t-315 -61.5q-193 0 -316.5 61.5zM730 1674.5q27 21.5 76 42.5q35 14 52.5 26.5t17.5 32.5
q0 24 -28 37t-95 13q-56 0 -103.5 -8t-102.5 -26v69q91 33 211 33q102 0 151 -30t49 -83q0 -39 -23.5 -59.5t-69.5 -40.5q-38 -17 -57 -31t-22 -39h-85q2 42 29 63.5z" />
    <glyph glyph-name="uni1EE7" unicode="&#x1ee7;" horiz-adv-x="1185" 
d="M254 74.5q-97 92.5 -97 294.5v714h122v-708q0 -150 69.5 -216t195.5 -66q94 0 187 39.5t160 117.5v833h122v-1083h-104l-9 123h-9q-74 -69 -169 -105t-200 -36q-171 0 -268 92.5zM560 1322.5q15 27.5 34.5 44.5t50.5 38q34 23 50 39.5t16 41.5q0 37 -31.5 54t-97.5 17
q-41 0 -84.5 -6t-79.5 -18v71q33 11 77.5 17.5t86.5 6.5q211 0 211 -138q0 -45 -21.5 -71t-63.5 -54q-39 -25 -59 -47.5t-22 -60.5h-83q1 38 16 65.5z" />
    </font>
</defs>
</svg>
