<?xml version="1.0" standalone="no"?>
<!DOCTYPE svg PUBLIC "-//W3C//DTD SVG 1.1//EN" "http://www.w3.org/Graphics/SVG/1.1/DTD/svg11.dtd" >
<svg xmlns="http://www.w3.org/2000/svg" xmlns:xlink="http://www.w3.org/1999/xlink" version="1.1">
<metadata>
Created by FontForge 20170731 at Tue Jan 31 13:40:48 2017
 By Aleksey,,,
Copyright 2012 The Encode Project Authors (impallari@gmail.com), with Reserved Font Name "Encode Sans".
</metadata>
<defs>
<font id="EncodeSansSemiExpanded-Bold" horiz-adv-x="1312" >
  <font-face 
    font-family="Encode Sans Semi Expanded"
    font-weight="700"
    font-stretch="semi-expanded"
    units-per-em="2000"
    panose-1="0 0 8 5 0 0 0 0 0 0"
    ascent="1600"
    descent="-400"
    x-height="1094"
    cap-height="1480"
    bbox="-1076 -498 3080 2393"
    underline-thickness="50"
    underline-position="-150"
    unicode-range="U+000D-FB02"
  />
<missing-glyph horiz-adv-x="1028" 
d="M843 1616v-2056h-652v2056h652zM685 1478h-340v-68h134v-76h-136v-68h342v68h-136v76h136v68zM549 1213h-206v-214h342v70h-136v144zM479 1143v-74h-68v74h68zM685 944h-342v-68h136v-76h-136v-68h206v144h136v68zM685 820h-68v-135h-274v-70h342v205zM685 569h-206v-115
h70v48h68v-97h-206v164h-68v-232h342v232zM685 214h-342v-233h342v233zM617 146v-97h-206v97h206zM685 -66h-342v-68h144l-144 -96v-68h342v68h-210l144 96h66v68z" />
    <glyph glyph-name="fi" unicode="fi" horiz-adv-x="1453" 
d="M282.5 1418q59.5 105 171 161.5t264.5 56.5q91 0 163 -16v-258q-49 13 -111 13q-214 0 -214 -194v-87h303v-263h-303v-831h-333v831h-189v263h189v75q0 144 59.5 249zM1003 1295.5q-51 42.5 -51 123.5q0 82 51 124.5t154 42.5t154 -42.5t51 -124.5q0 -81 -51 -123.5
t-154 -42.5t-154 42.5zM990 0v1094h334v-1094h-334z" />
    <glyph glyph-name="fl" unicode="fl" horiz-adv-x="1453" 
d="M282.5 1418q59.5 105 171 161.5t264.5 56.5q91 0 163 -16v-258q-49 13 -111 13q-214 0 -214 -194v-87h303v-263h-303v-831h-333v831h-189v263h189v75q0 144 59.5 249zM990 1616h334v-1616h-334v1616z" />
    <glyph glyph-name="f_j" unicode="fj" horiz-adv-x="1453" 
d="M556 831v-831h-333v831h-189v263h189v75q0 144 59.5 249t171 161.5t264.5 56.5q91 0 163 -16v-258q-49 13 -111 13q-214 0 -214 -194v-87h303v-263h-303zM997 1297.5q-51 42.5 -51 123.5q0 82 51 124.5t154 42.5t154 -42.5t51 -124.5q0 -81 -51 -123.5t-154 -42.5
t-154 42.5zM990 1094h334v-905q0 -194 -65 -349.5t-217 -310.5l-212 141q88 112 124 227.5t36 278.5v918z" />
    <glyph glyph-name=".notdef" horiz-adv-x="1028" 
d="M843 1616v-2056h-652v2056h652zM685 1478h-340v-68h134v-76h-136v-68h342v68h-136v76h136v68zM549 1213h-206v-214h342v70h-136v144zM479 1143v-74h-68v74h68zM685 944h-342v-68h136v-76h-136v-68h206v144h136v68zM685 820h-68v-135h-274v-70h342v205zM685 569h-206v-115
h70v48h68v-97h-206v164h-68v-232h342v232zM685 214h-342v-233h342v233zM617 146v-97h-206v97h206zM685 -66h-342v-68h144l-144 -96v-68h342v68h-210l144 96h66v68z" />
    <glyph glyph-name=".null" horiz-adv-x="0" 
 />
    <glyph glyph-name="nonmarkingreturn" unicode="&#xd;" horiz-adv-x="538" 
 />
    <glyph glyph-name="NULL" horiz-adv-x="0" 
 />
    <glyph glyph-name="NULL" horiz-adv-x="0" 
 />
    <glyph glyph-name="space" unicode=" " horiz-adv-x="538" 
 />
    <glyph glyph-name="exclam" unicode="!" horiz-adv-x="631" 
d="M216 466l-77 498v516h353v-516l-73 -498h-203zM158 32q-58 49 -58 134t57.5 134.5t158.5 49.5q100 0 157.5 -50t57.5 -134q0 -83 -58 -133t-157 -50q-100 0 -158 49z" />
    <glyph glyph-name="quotedbl" unicode="&#x22;" horiz-adv-x="964" 
d="M152 840l-61 776h325l-62 -776h-202zM609 840l-61 776h325l-62 -776h-202z" />
    <glyph glyph-name="numbersign" unicode="#" 
d="M1207 846h-186l-25 -212h211v-254h-240l-43 -380h-259l43 380h-187l-43 -380h-259l43 380h-157v254h186l25 212h-211v254h240l43 380h259l-43 -380h187l43 380h259l-43 -380h157v-254zM737 634l25 212h-187l-25 -212h187z" />
    <glyph glyph-name="dollar" unicode="$" horiz-adv-x="1233" 
d="M1065 160q-102 -112 -291 -155v-245h-316v223q-190 9 -357 59v272q95 -30 217 -48t216 -18q160 0 228 43t68 129q0 47 -20 78t-67.5 53.5t-133.5 42.5l-116 25q-221 48 -324 152.5t-103 276.5q0 167 98.5 275.5t293.5 150.5v246h316v-222q178 -5 316 -41v-272
q-75 22 -169.5 34.5t-180.5 12.5q-183 0 -260 -43.5t-77 -126.5q0 -45 17.5 -74.5t59 -51t116.5 -39.5l117 -25q239 -52 346.5 -157t107.5 -276q0 -167 -102 -279z" />
    <glyph glyph-name="percent" unicode="%" horiz-adv-x="2215" 
d="M293.5 622.5q-94.5 52.5 -147 156.5t-52.5 255t52.5 255.5t147 157t220.5 52.5q127 0 221.5 -52.5t147 -157t52.5 -255.5t-52.5 -255t-147.5 -156.5t-221 -52.5t-220.5 52.5zM624 0l692 1480h275l-692 -1480h-275zM633 836q43 61 43 197q0 137 -43 199t-119 62
q-75 0 -118 -61.5t-43 -197.5q0 -260 161 -260q76 0 119 61zM1479.5 34.5q-94.5 52.5 -147 156.5t-52.5 255t52.5 255.5t147 157.5t220.5 53t221 -53t147.5 -157.5t52.5 -255.5t-52.5 -255t-147.5 -156.5t-221 -52.5t-220.5 52.5zM1862 446q0 137 -43.5 199t-118.5 62
t-118 -62t-43 -198t43 -198t118 -62q162 0 162 259z" />
    <glyph glyph-name="ampersand" unicode="&#x26;" horiz-adv-x="1688" 
d="M1547 -20l-278 175q-91 -86 -224.5 -129.5t-306.5 -43.5q-203 0 -342 52t-209 147t-70 224q0 125 66.5 221.5t179.5 148.5q-56 66 -79 131.5t-23 138.5q0 217 163 335.5t487 118.5q144 0 277 -23v-272q-128 28 -255 28q-183 0 -259 -50.5t-76 -148.5q0 -63 37.5 -114.5
t136.5 -119.5l399 -252q3 29 3 60q0 59 -10 125.5t-27 129.5h265q35 -132 35 -252q0 -117 -27 -213l278 -175zM1051 292l-420 265q-42 26 -83 55l-18 12q-76 -74 -76 -184q0 -107 82.5 -166.5t239.5 -59.5q177 0 275 78z" />
    <glyph glyph-name="quotesingle" unicode="'" horiz-adv-x="507" 
d="M152 840l-61 776h325l-62 -776h-202z" />
    <glyph glyph-name="parenleft" unicode="(" horiz-adv-x="755" 
d="M112 588q0 650 378 1028h357q-210 -227 -303 -474.5t-93 -553.5t93 -553.5t303 -474.5h-357q-378 378 -378 1028z" />
    <glyph glyph-name="parenright" unicode=")" horiz-adv-x="755" 
d="M211 34q93 248 93 554t-93 554t-303 474h357q378 -378 378 -1028t-378 -1028h-357q210 226 303 474z" />
    <glyph glyph-name="asterisk" unicode="*" horiz-adv-x="1030" 
d="M641 1137l134 -128l94 -130l-174 -126l-94 129l-86 183l-87 -183l-93 -129l-174 126l93 130l135 128l-180 25l-179 58l67 204l178 -58l167 -92l-34 189v153h214v-153l-34 -189l167 92l178 58l67 -204l-179 -58z" />
    <glyph glyph-name="plus" unicode="+" horiz-adv-x="1138" 
d="M437 309v325h-310v252h310v325h263v-325h311v-252h-311v-325h-263z" />
    <glyph glyph-name="comma" unicode="," horiz-adv-x="591" 
d="M453.5 310.5q55.5 -63.5 55.5 -190.5q0 -121 -43.5 -242.5t-118.5 -219.5h-189q46 97 72 175t32 152q-85 8 -133.5 60t-48.5 134q0 91 56 143t155 52q107 0 162.5 -63.5z" />
    <glyph glyph-name="hyphen" unicode="-" horiz-adv-x="1001" 
d="M127 431v271h747v-271h-747z" />
    <glyph glyph-name="period" unicode="." horiz-adv-x="591" 
d="M138 35.5q-58 52.5 -58 142.5q0 91 57 143.5t159 52.5q100 0 157.5 -53.5t57.5 -142.5q0 -88 -58 -141.5t-157 -53.5q-100 0 -158 52.5z" />
    <glyph glyph-name="slash" unicode="/" horiz-adv-x="860" 
d="M0 -240l527 1856h333l-527 -1856h-333z" />
    <glyph glyph-name="zero" unicode="0" horiz-adv-x="1424" 
d="M262.5 169.5q-160.5 188.5 -160.5 570.5q0 383 159.5 571t450.5 188q290 0 450.5 -188t160.5 -571q0 -257 -74 -426t-210.5 -251t-326.5 -82q-289 0 -449.5 188.5zM863 302q61 45 93.5 151.5t32.5 285.5q0 180 -32.5 287t-93.5 152t-150 45q-90 0 -150.5 -45
t-93.5 -151.5t-33 -285.5q0 -181 32 -287.5t93 -151.5t152 -45q89 0 150 45z" />
    <glyph glyph-name="one" unicode="1" horiz-adv-x="914" 
d="M534 1485h225v-1485h-341v1083l-381 -271v319z" />
    <glyph glyph-name="two" unicode="2" horiz-adv-x="1147" 
d="M1089 272v-272h-1036v178l447 517q98 115 138 192t40 148q0 103 -66.5 150t-217.5 47q-93 0 -188 -17t-171 -45v271q72 25 181 41.5t206 16.5q301 0 446.5 -104.5t145.5 -323.5q0 -119 -51.5 -230.5t-175.5 -250.5l-281 -318h583z" />
    <glyph glyph-name="three" unicode="3" horiz-adv-x="1160" 
d="M1012.5 647q79.5 -89 79.5 -233q0 -206 -154 -319.5t-468 -113.5q-222 0 -419 54v247q93 -26 199 -41t203 -15q166 0 243.5 52.5t77.5 155.5q0 99 -72.5 149t-238.5 50h-245v248h187q162 0 236 48.5t74 141.5q0 183 -275 183q-89 0 -184 -15.5t-175 -43.5v247
q76 26 183.5 41.5t207.5 15.5q282 0 425.5 -104t143.5 -298q0 -121 -67.5 -208.5t-186.5 -122.5q146 -30 225.5 -119z" />
    <glyph glyph-name="four" unicode="4" horiz-adv-x="1349" 
d="M1314 561v-262h-201v-299h-307v299h-767v182l542 999h328l-494 -919h391l32 419h275v-419h201z" />
    <glyph glyph-name="five" unicode="5" horiz-adv-x="1172" 
d="M841 832.5q145 -54.5 211 -150.5t66 -238q0 -225 -155.5 -344t-466.5 -119q-219 0 -419 59v247q93 -26 198.5 -41t203.5 -15q165 0 242 52t77 154q0 70 -38.5 114t-136.5 70t-276 36l-221 12l54 811h875v-252h-572l-23 -328q236 -13 381 -67.5z" />
    <glyph glyph-name="six" unicode="6" horiz-adv-x="1326" 
d="M1029 842.5q112 -48.5 174.5 -149t62.5 -251.5q0 -141 -65 -245t-187.5 -160t-290.5 -56q-187 0 -324 76t-212.5 234t-75.5 397q0 400 190.5 605.5t555.5 205.5q98 0 178.5 -11t150.5 -38v-253q-68 25 -148 38t-160 13q-215 0 -323 -109.5t-114 -329.5q64 39 150.5 60.5
t175.5 21.5q150 0 262 -48.5zM895 272.5q63 54.5 63 161.5q0 111 -67.5 165.5t-190.5 54.5q-68 0 -135 -17.5t-123 -52.5q9 -200 80.5 -283t201.5 -83q108 0 171 54.5z" />
    <glyph glyph-name="seven" unicode="7" horiz-adv-x="1092" 
d="M12 1480h1022v-178l-504 -1302h-348l490 1208h-660v272z" />
    <glyph glyph-name="eight" unicode="8" horiz-adv-x="1424" 
d="M1268 628q65 -90 65 -218q0 -124 -67.5 -221t-206 -152.5t-343.5 -55.5q-216 0 -356 48t-206 134t-66 202q0 122 71.5 214.5t205.5 144.5q-123 64 -178 154t-55 207q0 124 67 217t202 145t334 52q176 0 300.5 -44.5t189 -128t64.5 -199.5q0 -233 -239 -344
q153 -65 218 -155zM520 1224q-67 -47 -67 -126q0 -59 29 -98.5t107 -73.5t229 -70l4 -1q91 48 131.5 104.5t40.5 130.5q0 87 -67.5 134t-199.5 47q-140 0 -207 -47zM942.5 255.5q73.5 46.5 73.5 133.5q0 60 -31.5 100.5t-109.5 73t-222 64.5q-24 5 -70 17
q-89 -40 -133 -101.5t-44 -133.5q0 -97 77 -148.5t235 -51.5q151 0 224.5 46.5z" />
    <glyph glyph-name="nine" unicode="9" horiz-adv-x="1326" 
d="M927 1423q137 -76 212.5 -234t75.5 -397q0 -400 -190.5 -605.5t-555.5 -205.5q-98 0 -178.5 11t-150.5 38v253q68 -25 148 -38t160 -13q215 0 323 109.5t114 329.5q-64 -39 -150.5 -60.5t-175.5 -21.5q-150 0 -262 48.5t-174.5 149t-62.5 251.5q0 141 65 245t187.5 160
t290.5 56q187 0 324 -76zM435.5 880.5q67.5 -54.5 190.5 -54.5q68 0 135 17.5t123 52.5q-9 200 -80.5 283t-201.5 83q-108 0 -171 -54.5t-63 -161.5q0 -111 67.5 -165.5z" />
    <glyph glyph-name="colon" unicode=":" horiz-adv-x="591" 
d="M138 35.5q-58 52.5 -58 142.5q0 91 57 143.5t159 52.5q100 0 157.5 -53.5t57.5 -142.5q0 -88 -58 -141.5t-157 -53.5q-100 0 -158 52.5zM138 772.5q-58 52.5 -58 142.5q0 91 57 143.5t159 52.5q100 0 157.5 -53.5t57.5 -142.5q0 -88 -58 -141.5t-157 -53.5
q-100 0 -158 52.5z" />
    <glyph glyph-name="semicolon" unicode=";" horiz-adv-x="591" 
d="M453.5 310.5q55.5 -63.5 55.5 -190.5q0 -121 -43.5 -242.5t-118.5 -219.5h-189q46 97 72 175t32 152q-85 8 -133.5 60t-48.5 134q0 91 56 143t155 52q107 0 162.5 -63.5zM138 772.5q-58 52.5 -58 142.5q0 91 57 143.5t159 52.5q100 0 157.5 -53.5t57.5 -142.5
q0 -88 -58 -141.5t-157 -53.5q-100 0 -158 52.5z" />
    <glyph glyph-name="less" unicode="&#x3c;" horiz-adv-x="1138" 
d="M1011 1242v-254l-640 -225l640 -231v-254l-884 328v308z" />
    <glyph glyph-name="equal" unicode="=" horiz-adv-x="1138" 
d="M127 861v251h884v-251h-884zM127 408v251h884v-251h-884z" />
    <glyph glyph-name="greater" unicode="&#x3e;" horiz-adv-x="1138" 
d="M127 1242l884 -328v-308l-884 -328v254l640 231l-640 225v254z" />
    <glyph glyph-name="question" unicode="?" horiz-adv-x="1057" 
d="M321 831q134 25 211 59.5t109 77.5t32 100q0 86 -67.5 130t-209.5 44q-89 0 -182.5 -15t-174.5 -43v258q77 26 184.5 41.5t206.5 15.5q283 0 426 -105t143 -303q0 -159 -99 -261t-296 -160l-23 -208h-203zM323 32.5q-58 49.5 -58 133.5q0 85 57 134.5t158 49.5t158.5 -50
t57.5 -134q0 -83 -58 -133t-158 -50q-99 0 -157 49.5z" />
    <glyph glyph-name="at" unicode="@" horiz-adv-x="2203" 
d="M1855.5 1267q256.5 -231 255.5 -688q0 -313 -125 -456t-347 -143q-234 0 -325 150h-19q-38 -77 -119.5 -113.5t-186.5 -36.5q-122 0 -208 39t-130 110.5t-44 168.5q0 155 115 239t363 102l202 17q-2 74 -28.5 116.5t-82.5 61t-150 18.5q-70 0 -154.5 -14t-158.5 -40
l1 243q83 27 180.5 41.5t189.5 14.5q188 0 303 -44.5t171 -145.5t56 -273v-325q0 -64 26.5 -93.5t78.5 -29.5q77 0 122 83.5t45 290.5q0 258 -84 418.5t-254.5 235t-438.5 74.5q-266 0 -436 -77.5t-254 -246t-84 -443.5q0 -278 86 -447t264.5 -246.5t464.5 -77.5
q243 0 484 55v-210q-235 -55 -484 -55q-523 0 -790.5 240.5t-267.5 739.5q0 496 261 737t756 241q490 0 746.5 -231zM1197.5 224q55.5 18 89.5 52v203l-173 -14q-92 -8 -134 -40t-42 -96q0 -62 42 -92.5t114 -30.5q48 0 103.5 18z" />
    <glyph glyph-name="A" unicode="A" horiz-adv-x="1567" 
d="M1211 0l-132 394h-594l-132 -394h-333l517 1480h493l517 -1480h-336zM572 655h420l-210 627z" />
    <glyph glyph-name="B" unicode="B" horiz-adv-x="1401" 
d="M1267 648q74 -88 74 -230t-73.5 -237.5t-241.5 -146.5t-445 -51q-97 0 -217.5 8t-219.5 21v1430q110 25 244.5 40.5t258.5 15.5q341 0 497.5 -103.5t156.5 -311.5q0 -117 -63.5 -202.5t-176.5 -116.5q132 -28 206 -116zM478 1239v-360h229q147 0 210.5 46.5t63.5 143.5
q0 67 -28.5 108t-93 61t-173.5 20q-103 0 -208 -19zM885.5 245.5q78.5 22.5 111 67.5t32.5 116q0 107 -67 156t-221 49h-263v-401q86 -10 193 -10q136 0 214.5 22.5z" />
    <glyph glyph-name="C" unicode="C" horiz-adv-x="1331" 
d="M92 737q0 247 97 417.5t285.5 257.5t460.5 87q177 0 339 -36v-277q-151 35 -313 35q-264 0 -388 -115.5t-124 -364.5q0 -253 122 -367.5t375 -114.5q164 0 328 45v-276q-161 -47 -353 -47q-829 0 -829 756z" />
    <glyph glyph-name="D" unicode="D" horiz-adv-x="1613" 
d="M144 12v1431q108 24 246 38t264 14q432 0 649.5 -186t217.5 -569q0 -265 -103.5 -431t-311 -244.5t-527.5 -78.5q-223 0 -435 26zM953 308.5q111 49.5 165 155.5t54 278q0 251 -122.5 366.5t-378.5 115.5q-82 0 -185 -16v-942q66 -7 182 -7q174 0 285 49.5z" />
    <glyph glyph-name="E" unicode="E" horiz-adv-x="1345" 
d="M482 262h783v-262h-1121v1480h1111v-262h-773v-330h670v-262h-670v-364z" />
    <glyph glyph-name="F" unicode="F" horiz-adv-x="1311" 
d="M1252 1212h-766v-355h660v-268h-660v-589h-342v1480h1108v-268z" />
    <glyph glyph-name="G" unicode="G" horiz-adv-x="1524" 
d="M1383 720v-702q-208 -35 -394 -35q-451 0 -674 187t-223 565q-1 375 227.5 569.5t667.5 194.5q180 0 349 -37v-277q-156 36 -323 36q-196 -1 -320.5 -52t-185 -159t-60.5 -280q0 -238 127.5 -354.5t392.5 -116.5q49 0 97 3v458h319z" />
    <glyph glyph-name="H" unicode="H" horiz-adv-x="1630" 
d="M144 0v1480h342v-576h658v576h341v-1480h-341v610h-658v-610h-342z" />
    <glyph glyph-name="I" unicode="I" horiz-adv-x="630" 
d="M144 0v1480h342v-1480h-342z" />
    <glyph glyph-name="J" unicode="J" horiz-adv-x="630" 
d="M-13 -208q87 112 123.5 227.5t36.5 278.5v1182h339v-1181q-3 -189 -68 -343t-217 -308z" />
    <glyph glyph-name="K" unicode="K" horiz-adv-x="1405" 
d="M1072 0l-436 610h-150v-610h-342v1480h342v-576h150l402 576h361l-499 -716l545 -764h-373z" />
    <glyph glyph-name="L" unicode="L" horiz-adv-x="1227" 
d="M144 0v1480h342v-1206h729v-274h-1071z" />
    <glyph glyph-name="M" unicode="M" horiz-adv-x="1983" 
d="M1422 1480h413v-1480h-319v1045l-382 -831h-285l-381 800v-1014h-320v1480h414l435 -933z" />
    <glyph glyph-name="N" unicode="N" horiz-adv-x="1646" 
d="M1180 1480h322v-1480h-344l-692 996v-996h-322v1480h344l692 -996v996z" />
    <glyph glyph-name="O" unicode="O" horiz-adv-x="1682" 
d="M442 67q-168 86 -259 256.5t-91 416.5t91 416.5t259 256.5t399 86t399 -86.5t259 -257t91 -415.5t-91 -415.5t-259.5 -257t-398.5 -86.5q-231 0 -399 86zM1138 370q103 118 103 363q0 254 -103.5 374.5t-296.5 120.5q-192 0 -296 -117.5t-104 -363.5q0 -257 102.5 -376
t297.5 -119q194 0 297 118z" />
    <glyph glyph-name="P" unicode="P" horiz-adv-x="1392" 
d="M144 1453q236 45 474 45q349 0 521 -129.5t172 -404.5q0 -266 -168.5 -401t-503.5 -135q-26 0 -61 1t-53 2l-39 2v-433h-342v1453zM835 703.5q74 29.5 109.5 92.5t35.5 166q0 152 -80 221.5t-251 69.5q-89 0 -163 -13v-556q66 -10 157 -10q118 0 192 29.5z" />
    <glyph glyph-name="Q" unicode="Q" horiz-adv-x="1682" 
d="M1459 260.5q-131 -186.5 -388 -236.5q213 -54 503 -88l-52 -260q-547 76 -860.5 218.5t-441.5 346t-128 488.5q0 251 91 423.5t259 259.5t399 87t399 -86t259 -256.5t91 -416.5q0 -293 -131 -479.5zM542.5 370.5q101.5 -118.5 298.5 -118.5q194 0 297 118t103 363
q0 254 -103.5 374.5t-296.5 120.5q-192 0 -296 -117.5t-104 -363.5q0 -258 101.5 -376.5z" />
    <glyph glyph-name="R" unicode="R" horiz-adv-x="1453" 
d="M1057 0l-394 541h-17q-56 0 -166 6v-547h-336v1443q110 24 240.5 39.5t250.5 15.5q333 0 499.5 -116t166.5 -360q1 -158 -78 -265.5t-229 -162.5l439 -594h-376zM480 797q86 -10 177 -10q168 0 247 56t79 178q0 123 -76.5 178.5t-240.5 55.5q-91 0 -186 -17v-441z" />
    <glyph glyph-name="S" unicode="S" horiz-adv-x="1233" 
d="M101 46v272q96 -33 219 -51.5t227 -18.5q151 0 217 43.5t66 128.5q0 47 -20 78t-67.5 53.5t-133.5 42.5l-116 25q-221 48 -324 152.5t-103 276.5q0 217 164 334t485 117q105 0 201 -12t174 -33v-272q-75 23 -171.5 36.5t-191.5 13.5q-174 0 -249 -44t-75 -126
q0 -45 17.5 -74.5t59 -51t116.5 -39.5l117 -25q239 -52 346.5 -157t107.5 -276q0 -142 -74.5 -245t-214.5 -158t-333 -55q-239 0 -444 65z" />
    <glyph glyph-name="T" unicode="T" horiz-adv-x="1368" 
d="M513 0v1206h-495v274h1333v-274h-496v-1206h-342z" />
    <glyph glyph-name="U" unicode="U" horiz-adv-x="1596" 
d="M297.5 144q-159.5 163 -159.5 491v845h341v-876q0 -180 79 -264t243 -84q165 0 243.5 84t78.5 264v876h336v-845q0 -327 -159 -490.5t-499 -163.5q-344 0 -503.5 163z" />
    <glyph glyph-name="V" unicode="V" horiz-adv-x="1540" 
d="M1198 1480h336l-515 -1480h-497l-515 1480h360l412 -1222z" />
    <glyph glyph-name="W" unicode="W" horiz-adv-x="2451" 
d="M2089 1480h325l-424 -1480h-435l-325 1133l-334 -1133h-435l-425 1480h346l320 -1174l343 1174h378l336 -1191z" />
    <glyph glyph-name="X" unicode="X" horiz-adv-x="1450" 
d="M923 771l561 -771h-381l-383 536l-383 -536h-372l557 766l-521 714h381l344 -478l343 478h369z" />
    <glyph glyph-name="Y" unicode="Y" horiz-adv-x="1368" 
d="M1403 1480l-546 -852v-628h-341v625l-565 855h364l378 -579l371 579h339z" />
    <glyph glyph-name="Z" unicode="Z" horiz-adv-x="1329" 
d="M512 273h745v-273h-1186v185l735 1022h-724v273h1165v-185z" />
    <glyph glyph-name="bracketleft" unicode="[" horiz-adv-x="755" 
d="M164 -440v2056h620v-263h-286v-1530h274v-263h-608z" />
    <glyph glyph-name="backslash" unicode="\" horiz-adv-x="862" 
d="M528 -240l-528 1856h334l528 -1856h-334z" />
    <glyph glyph-name="bracketright" unicode="]" horiz-adv-x="755" 
d="M-17 -440v263h274v1530h-285v263h619v-2056h-608z" />
    <glyph glyph-name="asciicircum" unicode="^" 
d="M1251 740h-332l-263 460l-263 -460h-332l428 740h333z" />
    <glyph glyph-name="underscore" unicode="_" horiz-adv-x="1297" 
d="M91 -264v263h1115v-263h-1115z" />
    <glyph glyph-name="grave" unicode="`" horiz-adv-x="1150" 
d="M418 1233l-289 383h363l240 -383h-314z" />
    <glyph glyph-name="a" unicode="a" horiz-adv-x="1198" 
d="M849 1066q117 -45 173 -148.5t56 -282.5v-635h-276l-23 105h-15q-54 -63 -134 -94t-177 -31q-121 0 -207 40t-130.5 112t-44.5 166q0 156 116.5 241.5t365.5 101.5l199 15v4q0 78 -26.5 123t-85 64t-158.5 19q-71 0 -157 -12t-160 -35v243q84 24 184 36.5t190 12.5
q193 0 310 -45zM661.5 220q50.5 17 90.5 54v200l-168 -13q-97 -8 -139.5 -41t-42.5 -93q0 -59 39.5 -91.5t116.5 -32.5q53 0 103.5 17z" />
    <glyph glyph-name="b" unicode="b" horiz-adv-x="1323" 
d="M348 -5.5q-119 15.5 -219 47.5v1574h334v-625h16q56 58 134.5 89t175.5 31q129 0 232 -58.5t164 -179.5t61 -301q0 -291 -166.5 -442t-492.5 -151q-120 0 -239 15.5zM840.5 306.5q73.5 76.5 73.5 240.5q0 160 -64 228t-181 68q-58 0 -111.5 -18.5t-94.5 -54.5v-521
q69 -19 154 -19q150 0 223.5 76.5z" />
    <glyph glyph-name="c" unicode="c" horiz-adv-x="1045" 
d="M234 122q-157 143 -157 422q0 281 164 424t479 143q152 0 271 -28v-259q-126 24 -234 24q-176 0 -257.5 -72.5t-81.5 -229.5t78 -230t235 -73q59 0 118 9t142 29v-259q-137 -43 -301 -43q-299 0 -456 143z" />
    <glyph glyph-name="d" unicode="d" horiz-adv-x="1323" 
d="M314 38q-109 57 -173 178.5t-64 307.5q0 189 72.5 321t211 200t334.5 68q69 0 165 -10v513h334v-1616h-280l-18 112h-16q-57 -61 -138.5 -96t-180.5 -35q-138 0 -247 57zM766.5 270q54.5 20 93.5 61v516q-72 14 -150 14q-153 0 -227 -75.5t-74 -237.5q0 -160 63.5 -229
t180.5 -69q59 0 113.5 20z" />
    <glyph glyph-name="e" unicode="e" horiz-adv-x="1188" 
d="M1124 454h-716q6 -87 41 -136.5t110.5 -72t207.5 -22.5q135 0 292 33v-240q-171 -37 -342 -37q-220 0 -361.5 60t-210 184.5t-68.5 321.5q0 180 63 307t184 193t293 66q248 0 377.5 -148.5t129.5 -427.5v-81zM461.5 842.5q-50.5 -62.5 -54.5 -203.5h408
q-4 141 -53.5 203.5t-148.5 62.5q-101 0 -151.5 -62.5z" />
    <glyph glyph-name="f" unicode="f" horiz-adv-x="861" 
d="M612.5 1326q-56.5 -49 -56.5 -153v-79h303v-263h-303v-831h-333v831h-189v263h189v67q0 148 60.5 254.5t176 163.5t278.5 57q84 0 170 -12v-258q-63 9 -118 9q-121 0 -177.5 -49z" />
    <glyph glyph-name="g" unicode="g" horiz-adv-x="1323" 
d="M153 -411v257q101 -27 199 -40.5t180 -13.5q118 0 190 26.5t105 82.5t33 147v69h-16q-56 -58 -134.5 -89t-175.5 -31q-127 0 -230.5 58.5t-165 177.5t-61.5 291q0 284 167 435.5t492 151.5q117 0 240 -16.5t218 -45.5v-939q0 -199 -69 -325t-209 -185.5t-359 -59.5
q-216 0 -404 49zM765 282.5q54 18.5 95 54.5v506q-74 18 -153 18q-148 0 -223 -76t-75 -234q0 -155 64 -221t181 -66q57 0 111 18.5z" />
    <glyph glyph-name="h" unicode="h" horiz-adv-x="1311" 
d="M129 1616h334v-629h16q62 61 144 92.5t177 31.5q178 0 285 -110.5t107 -341.5v-659h-334v639q0 103 -43.5 146.5t-127.5 43.5q-64 0 -124 -24.5t-100 -70.5v-734h-334v1616z" />
    <glyph glyph-name="i" unicode="i" horiz-adv-x="592" 
d="M129 0v1094h334v-1094h-334zM142 1295.5q-51 42.5 -51 123.5q0 82 51 124.5t154 42.5t154 -42.5t51 -124.5q0 -81 -51 -123.5t-154 -42.5t-154 42.5z" />
    <glyph glyph-name="j" unicode="j" horiz-adv-x="592" 
d="M-31 -330q88 112 124 227.5t36 278.5v918h334v-905q0 -194 -65 -349.5t-217 -310.5zM136 1297.5q-51 42.5 -51 123.5q0 82 51 124.5t154 42.5t154 -42.5t51 -124.5q0 -81 -51 -123.5t-154 -42.5t-154 42.5z" />
    <glyph glyph-name="k" unicode="k" horiz-adv-x="1265" 
d="M931 0l-313 427h-155v-427h-334v1616h334v-920h153l287 398h358l-370 -525l406 -569h-366z" />
    <glyph glyph-name="l" unicode="l" horiz-adv-x="592" 
d="M129 0v1616h334v-1616h-334z" />
    <glyph glyph-name="m" unicode="m" horiz-adv-x="1924" 
d="M1699 1001q105 -110 105 -343v-658h-333v640q0 102 -40.5 145.5t-114.5 43.5q-55 0 -102.5 -19.5t-81.5 -58.5q4 -36 4 -86v-665h-327v640q0 103 -37.5 146t-111.5 43q-58 0 -110.5 -25t-86.5 -72v-732h-334v1094h274l22 -109h15q61 62 143.5 94t180.5 32q97 0 173 -35
t124 -107q76 74 166 108t185 34q182 0 287 -110z" />
    <glyph glyph-name="n" unicode="n" horiz-adv-x="1311" 
d="M129 1094h274l22 -108h15q65 60 154 92.5t190 32.5q189 0 298.5 -110t109.5 -343v-658h-334v639q0 103 -43 146.5t-128 43.5q-63 0 -123.5 -24t-100.5 -71v-734h-334v1094z" />
    <glyph glyph-name="o" unicode="o" horiz-adv-x="1299" 
d="M346 43.5q-129 64.5 -199 192t-70 310.5q0 184 68 310.5t196 190.5t309 64t309 -64t195.5 -190.5t67.5 -310.5q0 -182 -70 -309.5t-198.5 -192.5t-303.5 -65t-304 64.5zM829.5 307q60.5 73 60.5 238q0 167 -60.5 239.5t-179.5 72.5t-180 -72t-61 -238q0 -167 60.5 -240
t180.5 -73q119 0 179.5 73z" />
    <glyph glyph-name="p" unicode="p" horiz-adv-x="1323" 
d="M129 1094h280l19 -114h15q57 61 138 96t181 35q138 0 247 -56.5t173 -178t64 -307.5q0 -189 -72.5 -321.5t-211 -200.5t-334.5 -68q-77 0 -165 11v-430h-334v1534zM840 307q74 76 74 238q0 161 -64 229.5t-180 68.5q-59 0 -113.5 -20.5t-93.5 -61.5v-515q75 -15 150 -15
q153 0 227 76z" />
    <glyph glyph-name="q" unicode="q" horiz-adv-x="1323" 
d="M860 100h-16q-56 -58 -134.5 -89.5t-175.5 -31.5q-129 0 -232 58.5t-164 180t-61 301.5q0 291 166 441.5t493 150.5q117 0 240 -16.5t218 -45.5v-1489h-334v540zM765 266q54 18 95 54v523q-74 18 -154 18q-147 0 -222 -77t-75 -240q0 -160 64 -228t181 -68q57 0 111 18z
" />
    <glyph glyph-name="r" unicode="r" horiz-adv-x="855" 
d="M129 1094h273l26 -135h16q48 74 127.5 112t176.5 38q42 0 94 -8v-297q-41 8 -114 8q-76 0 -149.5 -27t-115.5 -78v-707h-334v1094z" />
    <glyph glyph-name="s" unicode="s" horiz-adv-x="1064" 
d="M280 -8.5q-99 12.5 -182 37.5v233q87 -25 185 -38t196 -13q114 0 163 27t49 80q0 40 -23 61.5t-81 31.5l-196 31q-169 27 -244 105t-75 211q0 165 138.5 259t414.5 94q85 0 169.5 -10t150.5 -28v-233q-68 19 -150.5 29.5t-164.5 10.5q-136 0 -190 -30t-54 -80
q0 -36 23 -57.5t80 -31.5l196 -31q163 -26 241.5 -99.5t78.5 -218.5q0 -110 -60.5 -189t-177.5 -121.5t-283 -42.5q-105 0 -204 12.5z" />
    <glyph glyph-name="t" unicode="t" horiz-adv-x="900" 
d="M858 262v-258q-48 -11 -105 -18t-109 -7q-429 0 -429 412v440h-189v263h189l60 386h274v-386h303v-263h-303v-380q0 -76 19.5 -120.5t60.5 -63.5t108 -19q46 0 121 14z" />
    <glyph glyph-name="u" unicode="u" horiz-adv-x="1301" 
d="M231 91.5q-111 109.5 -111 342.5v660h334v-641q0 -102 42 -145.5t123 -43.5q60 0 119.5 24.5t99.5 70.5v735h334v-1094h-274l-21 107h-14q-67 -61 -151.5 -93t-176.5 -32q-193 0 -304 109.5z" />
    <glyph glyph-name="v" unicode="v" horiz-adv-x="1255" 
d="M928 1094h328l-425 -1094h-409l-423 1094h351l289 -801z" />
    <glyph glyph-name="w" unicode="w" horiz-adv-x="1935" 
d="M1572 1094h306l-309 -1094h-374l-224 792l-230 -792h-373l-311 1094h320l198 -755l213 755h373l208 -744z" />
    <glyph glyph-name="x" unicode="x" horiz-adv-x="1200" 
d="M793 555l409 -555h-370l-235 330l-239 -330h-360l407 551l-399 543h370l229 -317l225 317h360z" />
    <glyph glyph-name="y" unicode="y" horiz-adv-x="1255" 
d="M928 1094h328l-596 -1534h-327l173 440h-84l-423 1094h351l287 -806z" />
    <glyph glyph-name="z" unicode="z" horiz-adv-x="1107" 
d="M509 263h538v-263h-970v214l527 617h-517v263h949v-214z" />
    <glyph glyph-name="braceleft" unicode="{" horiz-adv-x="795" 
d="M492 722q-46 -66 -144 -93q98 -27 144 -93t46 -172v-408q0 -79 40 -114t122 -35h124v-254q-83 -13 -182 -13q-217 0 -327.5 101.5t-110.5 296.5v423q0 66 -36 101.5t-100 35.5h-55v262h55q64 0 100 35.5t36 101.5v341q0 195 110.5 296.5t327.5 101.5q99 0 182 -13v-254
h-124q-82 0 -122 -35t-40 -114v-326q0 -106 -46 -172z" />
    <glyph glyph-name="bar" unicode="|" horiz-adv-x="592" 
d="M144 -440v2056h303v-2056h-303z" />
    <glyph glyph-name="braceright" unicode="}" horiz-adv-x="795" 
d="M782 760v-262h-55q-64 0 -100 -35.5t-36 -101.5v-423q0 -195 -110.5 -296.5t-327.5 -101.5q-98 0 -181 13v254h123q82 0 122 35t40 114v408q0 106 46 172t145 93q-99 27 -145 93t-46 172v326q0 79 -40 114t-122 35h-123v254q83 13 181 13q217 0 327.5 -101.5
t110.5 -296.5v-341q0 -66 36 -101.5t100 -35.5h55z" />
    <glyph glyph-name="asciitilde" unicode="~" horiz-adv-x="1138" 
d="M665 592q-49 16 -120 47q-59 27 -98.5 40.5t-79.5 13.5q-70 0 -127 -26t-113 -83v258q47 51 105.5 74.5t136.5 23.5q55 0 104 -16t120 -47q59 -27 98.5 -40.5t79.5 -13.5q70 0 127 26t113 83v-258q-47 -50 -106 -74t-136 -24q-55 0 -104 16z" />
    <glyph glyph-name="uni00A0" unicode="&#xa0;" horiz-adv-x="538" 
 />
    <glyph glyph-name="exclamdown" unicode="&#xa1;" horiz-adv-x="631" 
d="M473 1057.5q58 -53.5 58 -141.5q0 -89 -57.5 -142.5t-157.5 -53.5q-102 0 -159 52.5t-57 143.5q0 90 58 142.5t158 52.5q99 0 157 -53.5zM216 603h203l73 -485v-498h-353v498z" />
    <glyph glyph-name="cent" unicode="&#xa2;" horiz-adv-x="1052" 
d="M499 775.5q-81 -72.5 -81 -229.5t78 -230t235 -73q59 0 118 9t142 29v-259q-93 -28 -193 -38v-224h-288v234q-213 39 -323 178t-110 372q0 229 110 367t323 181v242h288v-225q107 -6 193 -26v-259q-126 24 -235 24q-176 0 -257 -72.5z" />
    <glyph glyph-name="sterling" unicode="&#xa3;" horiz-adv-x="1436" 
d="M1366 261v-261h-1284v261h207v369h-207v240h207v118q0 254 164.5 382.5t494.5 128.5q101 0 196.5 -11t171.5 -31v-272q-76 22 -170 34.5t-180 12.5q-130 0 -206 -22.5t-109.5 -72t-33.5 -133.5v-134h488v-240h-488v-369h749z" />
    <glyph glyph-name="currency" unicode="&#xa4;" 
d="M1080 468l124 -121l-155 -155l-121 124l-86 102q-84 -45 -186 -45q-103 0 -185 45l-87 -102l-121 -124l-155 155l124 121l102 86q-44 83 -44 186t45 185l-103 87l-124 121l154 155l122 -124l87 -103q85 44 185 44t185 -44l87 103l122 124l155 -155l-125 -121l-103 -87
q45 -82 45 -185t-44 -186zM527 599q50 -52 129 -52t129 52t50 141q0 85 -48 139t-129 54q-80 0 -130.5 -52t-50.5 -141t50 -141z" />
    <glyph glyph-name="yen" unicode="&#xa5;" horiz-adv-x="1382" 
d="M1410 1480l-441 -688h218v-191h-323v-154h323v-191h-323v-256h-342v256h-323v191h323v154h-323v191h214l-454 688h364l376 -579l373 579h338z" />
    <glyph glyph-name="brokenbar" unicode="&#xa6;" horiz-adv-x="592" 
d="M144 836v780h303v-780h-303zM144 -440v780h303v-780h-303z" />
    <glyph glyph-name="section" unicode="&#xa7;" horiz-adv-x="1201" 
d="M983 503q63 -69 63 -175q0 -165 -135 -257t-400 -92q-88 0 -184 11.5t-177 32.5v221q170 -44 357 -44q131 0 184 27.5t53 79.5q0 42 -24 65t-81 33l-241 42q-296 56 -296 306q0 133 111 221q-69 69 -69 174q0 164 137 256.5t429 92.5q75 0 153 -7.5t142 -21.5v-222
q-131 30 -270 30q-162 0 -226 -30t-64 -79q0 -38 25 -61t81 -33l252 -41q146 -26 221 -99.5t75 -203.5q0 -135 -116 -226zM746 613q22 -4 33 -7q23 23 33.5 45t10.5 50q0 49 -29 78t-99 43l-240 43q-13 2 -37 8q-40 -48 -40 -99q0 -46 29 -75.5t97 -42.5z" />
    <glyph glyph-name="dieresis" unicode="&#xa8;" horiz-adv-x="1150" 
d="M185 1299.5q-45 42.5 -45 119.5q0 78 45 120.5t133 42.5t133 -42.5t45 -120.5q0 -77 -45 -119.5t-133 -42.5t-133 42.5zM699 1299.5q-45 42.5 -45 119.5q0 78 45 120.5t133 42.5t133 -42.5t45 -120.5q0 -77 -45 -119.5t-133 -42.5t-133 42.5z" />
    <glyph glyph-name="copyright" unicode="&#xa9;" horiz-adv-x="1680" 
d="M447.5 73q-169.5 95 -262.5 267.5t-93 399.5t93 399.5t262.5 267.5t392.5 95t392.5 -95t262.5 -267.5t93 -399.5t-93 -399.5t-262.5 -267.5t-392.5 -95t-392.5 95zM1146.5 218.5q129.5 72.5 198 206.5t68.5 315t-68.5 315t-198 206.5t-306.5 72.5q-178 0 -307 -72.5
t-197.5 -206.5t-68.5 -315t68.5 -315t197.5 -206.5t307 -72.5q177 0 306.5 72.5zM673 371.5q-96 47.5 -148.5 139.5t-52.5 222q0 129 53.5 221.5t153 141t236.5 48.5q105 0 192 -24v-194q-50 10 -89.5 15t-82.5 5q-233 0 -233 -212q0 -104 57 -158t161 -54q43 0 85.5 7
t101.5 23v-194q-85 -34 -208 -34q-130 0 -226 47.5z" />
    <glyph glyph-name="ordfeminine" unicode="&#xaa;" horiz-adv-x="1006" 
d="M718.5 1461q102.5 -38 152 -124.5t49.5 -234.5v-492h-259l-23 84h-14q-42 -50 -110 -75.5t-147 -25.5q-106 0 -178 32.5t-108 90.5t-36 134q0 128 94 195t298 77l173 11v14q0 49 -19.5 77.5t-66.5 42t-132 13.5q-62 0 -133 -10t-134 -28v216q74 20 159.5 30.5t163.5 10.5
q168 0 270.5 -38zM545.5 801q35.5 11 64.5 33v154l-124 -8q-72 -5 -103.5 -29t-31.5 -68q0 -45 31 -69t93 -24q35 0 70.5 11z" />
    <glyph glyph-name="guillemotleft" unicode="&#xab;" horiz-adv-x="1315" 
d="M365 133l-277 434l277 434h344l-276 -434l276 -434h-344zM922 133l-277 434l277 434h344l-276 -434l276 -434h-344z" />
    <glyph glyph-name="logicalnot" unicode="&#xac;" horiz-adv-x="1379" 
d="M996 202v432h-869v252h1132v-684h-263z" />
    <glyph glyph-name="uni00AD" unicode="&#xad;" horiz-adv-x="1001" 
d="M127 431v271h747v-271h-747z" />
    <glyph glyph-name="registered" unicode="&#xae;" horiz-adv-x="1458" 
d="M1046.5 1420q138.5 -78 215.5 -218t77 -320t-77 -319.5t-215.5 -217t-317.5 -77.5t-317.5 77.5t-215.5 217t-77 319.5t77 320t215.5 218t317.5 78t317.5 -78zM977.5 457q106.5 60 165 169.5t58.5 255.5q0 147 -58.5 257t-165 170t-248.5 60t-248.5 -60t-165 -170
t-58.5 -257q0 -146 58.5 -255.5t165 -169.5t248.5 -60t248.5 60zM857 817l150 -217h-150l-136 198h-2h-68l-4 -198h-136v592h208q258 0 258 -198q0 -136 -120 -177zM651 909h90q52 0 77.5 21t25.5 64t-26 65t-77 22h-90v-172z" />
    <glyph glyph-name="macron" unicode="&#xaf;" horiz-adv-x="1150" 
d="M205 1325v191h740v-191h-740z" />
    <glyph glyph-name="degree" unicode="&#xb0;" horiz-adv-x="1001" 
d="M305 794q-87 49 -136.5 135t-49.5 194t49.5 193.5t136.5 134t196 48.5t195.5 -48.5t136 -134t49.5 -193.5t-49.5 -194t-136 -135t-195.5 -49t-196 49zM593.5 958q40.5 23 64 65.5t23.5 99.5t-23.5 99t-64.5 64.5t-92 22.5t-92.5 -22.5t-65 -64.5t-23.5 -99t23.5 -99.5
t64.5 -65.5t93 -23t92.5 23z" />
    <glyph glyph-name="plusminus" unicode="&#xb1;" horiz-adv-x="1138" 
d="M437 378v292h-310v251h310v291h263v-291h311v-251h-311v-292h-263zM127 0v251h884v-251h-884z" />
    <glyph glyph-name="uni00B2" unicode="&#xb2;" horiz-adv-x="894" 
d="M818 71v-207h-740v135l309 343q66 73 93.5 121.5t27.5 91.5q0 62 -44 91t-148 29q-65 0 -132 -12t-118 -31v207q55 18 130.5 28t155.5 10q212 0 316 -72t104 -222q-1 -78 -38.5 -152.5t-121.5 -167.5l-177 -192h383z" />
    <glyph glyph-name="uni00B3" unicode="&#xb3;" horiz-adv-x="894" 
d="M754 302.5q53 -59.5 53 -157.5q0 -140 -109 -217t-334 -77q-160 0 -298 36v188q68 -18 142.5 -28t141.5 -10q109 0 159 31.5t50 93.5q0 59 -45.5 89t-147.5 30h-193v188h161q96 0 139.5 28.5t43.5 83.5q0 111 -183 111q-60 0 -128 -11t-122 -30v188q51 17 128.5 27.5
t149.5 10.5q205 0 307.5 -71t102.5 -205q0 -80 -44.5 -138.5t-123.5 -81.5q97 -19 150 -78.5z" />
    <glyph glyph-name="acute" unicode="&#xb4;" horiz-adv-x="1150" 
d="M418 1233l240 383h363l-289 -383h-314z" />
    <glyph glyph-name="uni00B5" unicode="&#xb5;" horiz-adv-x="1301" 
d="M1172 1094v-1094h-274l-21 107h-14q-54 -61 -122.5 -93t-143.5 -32q-80 0 -143 30v-452h-334v1533h334v-640q0 -102 42 -145.5t123 -43.5q60 0 119.5 24.5t99.5 70.5v735h334z" />
    <glyph glyph-name="paragraph" unicode="&#xb6;" horiz-adv-x="1392" 
d="M637 433q-55 -5 -99 -5q-229 0 -343 135t-114 401q0 276 119 405t369 129q162 0 304 -18v-1480h-236v433zM1012 0v1480h235v-1480h-235z" />
    <glyph glyph-name="periodcentered" unicode="&#xb7;" horiz-adv-x="591" 
d="M138 416.5q-58 52.5 -58 142.5q0 91 57 143.5t159 52.5q100 0 157.5 -53.5t57.5 -142.5q0 -88 -58 -141.5t-157 -53.5q-100 0 -158 52.5z" />
    <glyph glyph-name="cedilla" unicode="&#xb8;" horiz-adv-x="1150" 
d="M788.5 -145.5q42.5 -45.5 42.5 -117.5q0 -85 -66.5 -132t-192.5 -47q-108 0 -191 33v124q39 -16 87 -24.5t90 -8.5q51 0 76.5 16.5t25.5 53.5t-25.5 54t-76.5 17h-51v197h155v-106q84 -14 126.5 -59.5z" />
    <glyph glyph-name="uni00B9" unicode="&#xb9;" horiz-adv-x="894" 
d="M627 71h215v-207h-710v207h228v512l-228 -146v227l318 204h177v-797z" />
    <glyph glyph-name="ordmasculine" unicode="&#xba;" horiz-adv-x="1091" 
d="M278 646.5q-111 53.5 -169.5 156t-58.5 245.5t58.5 244t169.5 154t267 53t267.5 -53t170 -154t58.5 -244t-58.5 -245t-170 -156t-267.5 -54t-267 53.5zM732 1048q0 116 -48 168.5t-139 52.5q-186 0 -186 -221q0 -116 48.5 -170t137.5 -54q187 0 187 224z" />
    <glyph glyph-name="guillemotright" unicode="&#xbb;" horiz-adv-x="1315" 
d="M48 133l277 434l-277 434h345l276 -434l-276 -434h-345zM605 133l277 434l-277 434h345l276 -434l-276 -434h-345z" />
    <glyph glyph-name="onequarter" unicode="&#xbc;" horiz-adv-x="2196" 
d="M627 823h215v-207h-710v207h228v512l-228 -146v227l318 204h177v-797zM537 -136l844 1752h278l-845 -1752h-277zM2173 255v-199h-128v-192h-234v192h-485v139l319 669h245l-289 -609h210l40 271h194v-271h128z" />
    <glyph glyph-name="onehalf" unicode="&#xbd;" horiz-adv-x="2196" 
d="M627 823h215v-207h-710v207h228v512l-228 -146v227l318 204h177v-797zM537 -136l844 1752h278l-845 -1752h-277zM2120 71v-207h-740v135l309 343q66 73 93.5 121.5t27.5 91.5q0 62 -44 91t-148 29q-65 0 -132 -12t-118 -31v207q55 18 130.5 28t155.5 10q212 0 316 -72
t104 -222q-1 -78 -38.5 -152.5t-121.5 -167.5l-177 -192h383z" />
    <glyph glyph-name="threequarters" unicode="&#xbe;" horiz-adv-x="2196" 
d="M754 1054.5q53 -59.5 53 -157.5q0 -140 -109 -217t-334 -77q-160 0 -298 36v188q68 -18 142.5 -28t141.5 -10q109 0 159 31.5t50 93.5q0 59 -45.5 89t-147.5 30h-193v188h161q96 0 139.5 28.5t43.5 83.5q0 111 -183 111q-60 0 -128 -11t-122 -30v188q51 17 128.5 27.5
t149.5 10.5q205 0 307.5 -71t102.5 -205q0 -80 -44.5 -138.5t-123.5 -81.5q97 -19 150 -78.5zM537 -136l844 1752h278l-845 -1752h-277zM2173 255v-199h-128v-192h-234v192h-485v139l319 669h245l-289 -609h210l40 271h194v-271h128z" />
    <glyph glyph-name="questiondown" unicode="&#xbf;" horiz-adv-x="1057" 
d="M734 1061.5q58 -49.5 58 -133.5q0 -85 -57.5 -134.5t-158.5 -49.5q-100 0 -157.5 50t-57.5 134q0 83 58 133t157 50q100 0 158 -49.5zM736 262q-134 -25 -211 -59t-109 -76.5t-32 -98.5q0 -171 277 -171q89 0 182.5 15.5t174.5 43.5v-259q-77 -26 -184.5 -41.5
t-207.5 -15.5q-282 0 -425 104.5t-143 300.5q0 158 99 259.5t296 159.5l22 208h203z" />
    <glyph glyph-name="Agrave" unicode="&#xc0;" horiz-adv-x="1567" 
d="M1211 0l-132 394h-594l-132 -394h-333l517 1480h493l517 -1480h-336zM572 655h420l-210 627zM632 1595l-243 303h353l192 -303h-302z" />
    <glyph glyph-name="Aacute" unicode="&#xc1;" horiz-adv-x="1567" 
d="M1211 0l-132 394h-594l-132 -394h-333l517 1480h493l517 -1480h-336zM572 655h420l-210 627zM629 1595l193 303h353l-243 -303h-303z" />
    <glyph glyph-name="Acircumflex" unicode="&#xc2;" horiz-adv-x="1567" 
d="M1211 0l-132 394h-594l-132 -394h-333l517 1480h493l517 -1480h-336zM572 655h420l-210 627zM1213 1595h-265l-165 179l-165 -179h-265l289 303h282z" />
    <glyph glyph-name="Atilde" unicode="&#xc3;" horiz-adv-x="1567" 
d="M1211 0l-132 394h-594l-132 -394h-333l517 1480h493l517 -1480h-336zM572 655h420l-210 627zM870 1630q-43 10 -103 29q-55 18 -92.5 26.5t-77.5 8.5q-62 0 -109.5 -16t-97.5 -52v182q42 37 93 54.5t121 17.5q49 0 92 -10t103 -29q57 -18 93.5 -27t76.5 -9q62 0 110 16
t97 51v-182q-42 -36 -92.5 -53t-121.5 -17q-49 0 -92 10z" />
    <glyph glyph-name="Adieresis" unicode="&#xc4;" horiz-adv-x="1567" 
d="M1211 0l-132 394h-594l-132 -394h-333l517 1480h493l517 -1480h-336zM572 655h420l-210 627zM383 1644q-44 38 -44 107t43.5 106.5t131.5 37.5q87 0 131 -37.5t44 -106.5t-44 -107t-131 -38t-131 38zM921 1644q-44 38 -44 107t44 106.5t131 37.5q88 0 131.5 -37.5
t43.5 -106.5t-44 -107t-131 -38t-131 38z" />
    <glyph glyph-name="Aring" unicode="&#xc5;" horiz-adv-x="1567" 
d="M1211 0l-132 394h-594l-132 -394h-333l517 1480h493l517 -1480h-336zM572 655h420l-210 627zM673 1555q-49 27 -77 74.5t-28 107.5t28 107.5t77 74.5t110 27t110 -27t77 -74.5t28 -107.5t-28 -107.5t-77 -74.5t-110 -27t-110 27zM851 1665.5q26 26.5 26 71.5
q0 44 -26 70.5t-68 26.5t-68 -26.5t-26 -70.5q0 -45 26 -71.5t68 -26.5t68 26.5z" />
    <glyph glyph-name="AE" unicode="&#xc6;" horiz-adv-x="2135" 
d="M1352 262h703v-262h-1022l-31 394h-515l-134 -394h-333l520 1480h1505v-262h-775l28 -330h645v-262h-622zM575 656h406l-44 562h-171z" />
    <glyph glyph-name="Ccedilla" unicode="&#xc7;" horiz-adv-x="1331" 
d="M573 1105.5q-124 -115.5 -124 -364.5q0 -253 122 -367.5t375 -114.5q164 0 328 45v-276q-161 -47 -353 -47q-40 0 -59 1v-67q94 -12 141.5 -56.5t47.5 -117.5q0 -87 -71 -135t-206 -48q-115 0 -212 34v123q95 -33 197 -33q61 0 91.5 16.5t30.5 52.5q0 72 -122 72h-53v173
q-614 90 -614 741q0 247 97 417.5t285.5 257.5t460.5 87q177 0 339 -36v-277q-151 35 -313 35q-264 0 -388 -115.5z" />
    <glyph glyph-name="Egrave" unicode="&#xc8;" horiz-adv-x="1345" 
d="M482 262h783v-262h-1121v1480h1111v-262h-773v-330h670v-262h-670v-364zM570 1595l-243 303h353l192 -303h-302z" />
    <glyph glyph-name="Eacute" unicode="&#xc9;" horiz-adv-x="1345" 
d="M482 262h783v-262h-1121v1480h1111v-262h-773v-330h670v-262h-670v-364zM567 1595l193 303h353l-243 -303h-303z" />
    <glyph glyph-name="Ecircumflex" unicode="&#xca;" horiz-adv-x="1345" 
d="M482 262h783v-262h-1121v1480h1111v-262h-773v-330h670v-262h-670v-364zM1151 1595h-265l-165 179l-165 -179h-265l289 303h282z" />
    <glyph glyph-name="Edieresis" unicode="&#xcb;" horiz-adv-x="1345" 
d="M482 262h783v-262h-1121v1480h1111v-262h-773v-330h670v-262h-670v-364zM321 1644q-44 38 -44 107t43.5 106.5t131.5 37.5q87 0 131 -37.5t44 -106.5t-44 -107t-131 -38t-131 38zM859 1644q-44 38 -44 107t44 106.5t131 37.5q88 0 131.5 -37.5t43.5 -106.5t-44 -107
t-131 -38t-131 38z" />
    <glyph glyph-name="Igrave" unicode="&#xcc;" horiz-adv-x="630" 
d="M144 0v1480h342v-1480h-342zM164 1595l-243 303h353l192 -303h-302z" />
    <glyph glyph-name="Iacute" unicode="&#xcd;" horiz-adv-x="630" 
d="M144 0v1480h342v-1480h-342zM161 1595l193 303h353l-243 -303h-303z" />
    <glyph glyph-name="Icircumflex" unicode="&#xce;" horiz-adv-x="630" 
d="M144 0v1480h342v-1480h-342zM745 1595h-265l-165 179l-165 -179h-265l289 303h282z" />
    <glyph glyph-name="Idieresis" unicode="&#xcf;" horiz-adv-x="630" 
d="M144 0v1480h342v-1480h-342zM-85 1644q-44 38 -44 107t43.5 106.5t131.5 37.5q87 0 131 -37.5t44 -106.5t-44 -107t-131 -38t-131 38zM453 1644q-44 38 -44 107t44 106.5t131 37.5q88 0 131.5 -37.5t43.5 -106.5t-44 -107t-131 -38t-131 38z" />
    <glyph glyph-name="Eth" unicode="&#xd0;" horiz-adv-x="1613" 
d="M1303.5 1309q217.5 -186 217.5 -569q0 -265 -103.5 -431t-311 -244.5t-527.5 -78.5q-223 0 -435 26v645h-139v210h139v576q108 24 246 38t264 14q432 0 649.5 -186zM953 308.5q111 49.5 165 155.5t54 278q0 251 -122.5 366.5t-378.5 115.5q-82 0 -185 -16v-341h294v-210
h-294v-391q66 -7 182 -7q174 0 285 49.5z" />
    <glyph glyph-name="Ntilde" unicode="&#xd1;" horiz-adv-x="1646" 
d="M1180 1480h322v-1480h-344l-692 996v-996h-322v1480h344l692 -996v996zM910 1630q-43 10 -103 29q-55 18 -92.5 26.5t-77.5 8.5q-62 0 -109.5 -16t-97.5 -52v182q42 37 93 54.5t121 17.5q49 0 92 -10t103 -29q57 -18 93.5 -27t76.5 -9q62 0 110 16t97 51v-182
q-42 -36 -92.5 -53t-121.5 -17q-49 0 -92 10z" />
    <glyph glyph-name="Ograve" unicode="&#xd2;" horiz-adv-x="1682" 
d="M442 67q-168 86 -259 256.5t-91 416.5t91 416.5t259 256.5t399 86t399 -86.5t259 -257t91 -415.5t-91 -415.5t-259.5 -257t-398.5 -86.5q-231 0 -399 86zM1138 370q103 118 103 363q0 254 -103.5 374.5t-296.5 120.5q-192 0 -296 -117.5t-104 -363.5q0 -257 102.5 -376
t297.5 -119q194 0 297 118zM690 1595l-243 303h353l192 -303h-302z" />
    <glyph glyph-name="Oacute" unicode="&#xd3;" horiz-adv-x="1682" 
d="M442 67q-168 86 -259 256.5t-91 416.5t91 416.5t259 256.5t399 86t399 -86.5t259 -257t91 -415.5t-91 -415.5t-259.5 -257t-398.5 -86.5q-231 0 -399 86zM1138 370q103 118 103 363q0 254 -103.5 374.5t-296.5 120.5q-192 0 -296 -117.5t-104 -363.5q0 -257 102.5 -376
t297.5 -119q194 0 297 118zM687 1595l193 303h353l-243 -303h-303z" />
    <glyph glyph-name="Ocircumflex" unicode="&#xd4;" horiz-adv-x="1682" 
d="M442 67q-168 86 -259 256.5t-91 416.5t91 416.5t259 256.5t399 86t399 -86.5t259 -257t91 -415.5t-91 -415.5t-259.5 -257t-398.5 -86.5q-231 0 -399 86zM1138 370q103 118 103 363q0 254 -103.5 374.5t-296.5 120.5q-192 0 -296 -117.5t-104 -363.5q0 -257 102.5 -376
t297.5 -119q194 0 297 118zM1271 1595h-265l-165 179l-165 -179h-265l289 303h282z" />
    <glyph glyph-name="Otilde" unicode="&#xd5;" horiz-adv-x="1682" 
d="M442 67q-168 86 -259 256.5t-91 416.5t91 416.5t259 256.5t399 86t399 -86.5t259 -257t91 -415.5t-91 -415.5t-259.5 -257t-398.5 -86.5q-231 0 -399 86zM1138 370q103 118 103 363q0 254 -103.5 374.5t-296.5 120.5q-192 0 -296 -117.5t-104 -363.5q0 -257 102.5 -376
t297.5 -119q194 0 297 118zM928 1630q-43 10 -103 29q-55 18 -92.5 26.5t-77.5 8.5q-62 0 -109.5 -16t-97.5 -52v182q42 37 93 54.5t121 17.5q49 0 92 -10t103 -29q57 -18 93.5 -27t76.5 -9q62 0 110 16t97 51v-182q-42 -36 -92.5 -53t-121.5 -17q-49 0 -92 10z" />
    <glyph glyph-name="Odieresis" unicode="&#xd6;" horiz-adv-x="1682" 
d="M442 67q-168 86 -259 256.5t-91 416.5t91 416.5t259 256.5t399 86t399 -86.5t259 -257t91 -415.5t-91 -415.5t-259.5 -257t-398.5 -86.5q-231 0 -399 86zM1138 370q103 118 103 363q0 254 -103.5 374.5t-296.5 120.5q-192 0 -296 -117.5t-104 -363.5q0 -257 102.5 -376
t297.5 -119q194 0 297 118zM441 1644q-44 38 -44 107t43.5 106.5t131.5 37.5q87 0 131 -37.5t44 -106.5t-44 -107t-131 -38t-131 38zM979 1644q-44 38 -44 107t44 106.5t131 37.5q88 0 131.5 -37.5t43.5 -106.5t-44 -107t-131 -38t-131 38z" />
    <glyph glyph-name="multiply" unicode="&#xd7;" horiz-adv-x="1068" 
d="M269 317l-177 177l265 266l-265 266l177 177l265 -266l266 266l177 -177l-266 -266l266 -266l-177 -177l-266 266z" />
    <glyph glyph-name="Oslash" unicode="&#xd8;" horiz-adv-x="1682" 
d="M1544 1049q46 -136 46 -309q0 -245 -91 -415.5t-259.5 -257t-398.5 -86.5q-258 0 -436 107l-115 -136l-132 113l112 133q-87 97 -132.5 233t-45.5 309q0 246 91 416.5t259 256.5t399 86q258 0 436 -107l115 136l132 -113l-113 -133q87 -97 133 -233zM490 459l591 701
q-93 68 -240 68q-192 0 -296 -117.5t-104 -363.5q0 -175 49 -288zM1138 370q103 118 103 363q0 175 -50 287l-592 -701q93 -67 242 -67q194 0 297 118z" />
    <glyph glyph-name="Ugrave" unicode="&#xd9;" horiz-adv-x="1596" 
d="M297.5 144q-159.5 163 -159.5 491v845h341v-876q0 -180 79 -264t243 -84q165 0 243.5 84t78.5 264v876h336v-845q0 -327 -159 -490.5t-499 -163.5q-344 0 -503.5 163zM650 1595l-243 303h353l192 -303h-302z" />
    <glyph glyph-name="Uacute" unicode="&#xda;" horiz-adv-x="1596" 
d="M297.5 144q-159.5 163 -159.5 491v845h341v-876q0 -180 79 -264t243 -84q165 0 243.5 84t78.5 264v876h336v-845q0 -327 -159 -490.5t-499 -163.5q-344 0 -503.5 163zM647 1595l193 303h353l-243 -303h-303z" />
    <glyph glyph-name="Ucircumflex" unicode="&#xdb;" horiz-adv-x="1596" 
d="M297.5 144q-159.5 163 -159.5 491v845h341v-876q0 -180 79 -264t243 -84q165 0 243.5 84t78.5 264v876h336v-845q0 -327 -159 -490.5t-499 -163.5q-344 0 -503.5 163zM1231 1595h-265l-165 179l-165 -179h-265l289 303h282z" />
    <glyph glyph-name="Udieresis" unicode="&#xdc;" horiz-adv-x="1596" 
d="M297.5 144q-159.5 163 -159.5 491v845h341v-876q0 -180 79 -264t243 -84q165 0 243.5 84t78.5 264v876h336v-845q0 -327 -159 -490.5t-499 -163.5q-344 0 -503.5 163zM401 1644q-44 38 -44 107t43.5 106.5t131.5 37.5q87 0 131 -37.5t44 -106.5t-44 -107t-131 -38
t-131 38zM939 1644q-44 38 -44 107t44 106.5t131 37.5q88 0 131.5 -37.5t43.5 -106.5t-44 -107t-131 -38t-131 38z" />
    <glyph glyph-name="Yacute" unicode="&#xdd;" horiz-adv-x="1368" 
d="M1403 1480l-546 -852v-628h-341v625l-565 855h364l378 -579l371 579h339zM529 1595l193 303h353l-243 -303h-303z" />
    <glyph glyph-name="Thorn" unicode="&#xde;" horiz-adv-x="1402" 
d="M144 1480h342v-193q76 8 138 8q346 0 516.5 -130t170.5 -405q0 -265 -168 -400t-501 -135q-28 0 -64 1t-55 2q-24 2 -37 2v-230h-342v1480zM835 500.5q74 29.5 109.5 92.5t35.5 166q0 152 -80 221.5t-251 69.5q-89 0 -163 -13v-558q71 -8 157 -8q118 0 192 29.5z" />
    <glyph glyph-name="germandbls" unicode="&#xdf;" horiz-adv-x="1687" 
d="M1550.5 550q78.5 -73 78.5 -218q0 -110 -61.5 -189t-184 -121.5t-300.5 -42.5q-88 0 -184.5 11t-176.5 33v233q78 -20 175.5 -32.5t180.5 -12.5q130 0 183.5 26.5t53.5 80.5q0 41 -23 62t-82 31l-196 31q-169 27 -244 104.5t-75 210.5q0 107 59 184.5t177 119t289 41.5
h19q1 9 1 28q0 144 -85.5 213t-237.5 69q-181 0 -270.5 -94t-89.5 -289v-1029h-334v824h-189v270h192q14 173 96.5 294.5t226.5 184.5t341 63q177 0 308.5 -59.5t204.5 -181.5t73 -303q0 -55 -8.5 -107.5t-23.5 -113.5q-88 9 -170 9q-151 0 -208 -29.5t-57 -80.5
q0 -36 23.5 -57.5t79.5 -31.5l196 -31q164 -27 242.5 -100z" />
    <glyph glyph-name="agrave" unicode="&#xe0;" horiz-adv-x="1198" 
d="M849 1066q117 -45 173 -148.5t56 -282.5v-635h-276l-23 105h-15q-54 -63 -134 -94t-177 -31q-121 0 -207 40t-130.5 112t-44.5 166q0 156 116.5 241.5t365.5 101.5l199 15v4q0 78 -26.5 123t-85 64t-158.5 19q-71 0 -157 -12t-160 -35v243q84 24 184 36.5t190 12.5
q193 0 310 -45zM661.5 220q50.5 17 90.5 54v200l-168 -13q-97 -8 -139.5 -41t-42.5 -93q0 -59 39.5 -91.5t116.5 -32.5q53 0 103.5 17zM438 1233l-289 383h363l240 -383h-314z" />
    <glyph glyph-name="aacute" unicode="&#xe1;" horiz-adv-x="1198" 
d="M849 1066q117 -45 173 -148.5t56 -282.5v-635h-276l-23 105h-15q-54 -63 -134 -94t-177 -31q-121 0 -207 40t-130.5 112t-44.5 166q0 156 116.5 241.5t365.5 101.5l199 15v4q0 78 -26.5 123t-85 64t-158.5 19q-71 0 -157 -12t-160 -35v243q84 24 184 36.5t190 12.5
q193 0 310 -45zM661.5 220q50.5 17 90.5 54v200l-168 -13q-97 -8 -139.5 -41t-42.5 -93q0 -59 39.5 -91.5t116.5 -32.5q53 0 103.5 17zM438 1233l240 383h363l-289 -383h-314z" />
    <glyph glyph-name="acircumflex" unicode="&#xe2;" horiz-adv-x="1198" 
d="M849 1066q117 -45 173 -148.5t56 -282.5v-635h-276l-23 105h-15q-54 -63 -134 -94t-177 -31q-121 0 -207 40t-130.5 112t-44.5 166q0 156 116.5 241.5t365.5 101.5l199 15v4q0 78 -26.5 123t-85 64t-158.5 19q-71 0 -157 -12t-160 -35v243q84 24 184 36.5t190 12.5
q193 0 310 -45zM661.5 220q50.5 17 90.5 54v200l-168 -13q-97 -8 -139.5 -41t-42.5 -93q0 -59 39.5 -91.5t116.5 -32.5q53 0 103.5 17zM984 1233h-244l-145 228l-145 -228h-244l256 383h266z" />
    <glyph glyph-name="atilde" unicode="&#xe3;" horiz-adv-x="1198" 
d="M849 1066q117 -45 173 -148.5t56 -282.5v-635h-276l-23 105h-15q-54 -63 -134 -94t-177 -31q-121 0 -207 40t-130.5 112t-44.5 166q0 156 116.5 241.5t365.5 101.5l199 15v4q0 78 -26.5 123t-85 64t-158.5 19q-71 0 -157 -12t-160 -35v243q84 24 184 36.5t190 12.5
q193 0 310 -45zM661.5 220q50.5 17 90.5 54v200l-168 -13q-97 -8 -139.5 -41t-42.5 -93q0 -59 39.5 -91.5t116.5 -32.5q53 0 103.5 17zM674 1296.5q-40 12.5 -95 36.5q-54 23 -86.5 33.5t-67.5 10.5q-58 0 -104.5 -20t-95.5 -65v201q41 40 91.5 59t115.5 19q44 0 84 -12.5
t95 -36.5q54 -23 86.5 -33.5t67.5 -10.5q58 0 104.5 20t95.5 65v-201q-41 -40 -91.5 -59t-115.5 -19q-44 0 -84 12.5z" />
    <glyph glyph-name="adieresis" unicode="&#xe4;" horiz-adv-x="1198" 
d="M849 1066q117 -45 173 -148.5t56 -282.5v-635h-276l-23 105h-15q-54 -63 -134 -94t-177 -31q-121 0 -207 40t-130.5 112t-44.5 166q0 156 116.5 241.5t365.5 101.5l199 15v4q0 78 -26.5 123t-85 64t-158.5 19q-71 0 -157 -12t-160 -35v243q84 24 184 36.5t190 12.5
q193 0 310 -45zM661.5 220q50.5 17 90.5 54v200l-168 -13q-97 -8 -139.5 -41t-42.5 -93q0 -59 39.5 -91.5t116.5 -32.5q53 0 103.5 17zM205 1299.5q-45 42.5 -45 119.5q0 78 45 120.5t133 42.5t133 -42.5t45 -120.5q0 -77 -45 -119.5t-133 -42.5t-133 42.5zM719 1299.5
q-45 42.5 -45 119.5q0 78 45 120.5t133 42.5t133 -42.5t45 -120.5q0 -77 -45 -119.5t-133 -42.5t-133 42.5z" />
    <glyph glyph-name="aring" unicode="&#xe5;" horiz-adv-x="1198" 
d="M849 1066q117 -45 173 -148.5t56 -282.5v-635h-276l-23 105h-15q-54 -63 -134 -94t-177 -31q-121 0 -207 40t-130.5 112t-44.5 166q0 156 116.5 241.5t365.5 101.5l199 15v4q0 78 -26.5 123t-85 64t-158.5 19q-71 0 -157 -12t-160 -35v243q84 24 184 36.5t190 12.5
q193 0 310 -45zM661.5 220q50.5 17 90.5 54v200l-168 -13q-97 -8 -139.5 -41t-42.5 -93q0 -59 39.5 -91.5t116.5 -32.5q53 0 103.5 17zM485 1255q-49 27 -77 74.5t-28 107.5t28 107.5t77 74.5t110 27t110 -27t77 -74.5t28 -107.5t-28 -107.5t-77 -74.5t-110 -27t-110 27z
M663 1366.5q26 26.5 26 70.5t-26 70.5t-68 26.5t-68 -26.5t-26 -70.5t26 -70.5t68 -26.5t68 26.5z" />
    <glyph glyph-name="ae" unicode="&#xe6;" horiz-adv-x="1852" 
d="M1788 454h-709q6 -86 40.5 -136t109 -72.5t203.5 -22.5q135 0 291 33v-240q-171 -37 -340 -37q-177 0 -301.5 39.5t-201.5 121.5q-163 -160 -399 -160q-134 0 -226 40t-138 111.5t-46 167.5q0 160 120.5 250t371.5 90h190v21q0 78 -27.5 123t-86 64t-158.5 19
q-70 0 -155.5 -12t-160.5 -35v243q85 25 179 37t182 12q151 0 253 -32.5t162 -103.5q65 67 155.5 102t202.5 35q156 0 265.5 -66.5t166.5 -195.5t57 -314v-82zM1132 842.5q-50 -62.5 -54 -203.5h401q-4 141 -53 203.5t-146 62.5q-98 0 -148 -62.5zM681 225q55 22 107 75
q-23 69 -31 158h-164q-191 0 -191 -133q0 -59 40 -90.5t119 -31.5q65 0 120 22z" />
    <glyph glyph-name="ccedilla" unicode="&#xe7;" horiz-adv-x="1045" 
d="M499.5 775.5q-81.5 -72.5 -81.5 -229.5t78 -230t235 -73q59 0 118 9t142 29v-259q-137 -43 -301 -43h-2v-65q84 -14 126.5 -59.5t42.5 -117.5q0 -85 -66.5 -132t-192.5 -47q-108 0 -191 33v124q39 -16 87 -24.5t90 -8.5q51 0 76.5 16.5t25.5 53.5t-25.5 54t-76.5 17h-51
v167q-224 35 -340 174.5t-116 379.5q0 281 164 424t479 143q152 0 271 -28v-259q-126 24 -234 24q-176 0 -257.5 -72.5z" />
    <glyph glyph-name="egrave" unicode="&#xe8;" horiz-adv-x="1188" 
d="M1124 454h-716q6 -87 41 -136.5t110.5 -72t207.5 -22.5q135 0 292 33v-240q-171 -37 -342 -37q-220 0 -361.5 60t-210 184.5t-68.5 321.5q0 180 63 307t184 193t293 66q248 0 377.5 -148.5t129.5 -427.5v-81zM461.5 842.5q-50.5 -62.5 -54.5 -203.5h408
q-4 141 -53.5 203.5t-148.5 62.5q-101 0 -151.5 -62.5zM455 1233l-289 383h363l240 -383h-314z" />
    <glyph glyph-name="eacute" unicode="&#xe9;" horiz-adv-x="1188" 
d="M1124 454h-716q6 -87 41 -136.5t110.5 -72t207.5 -22.5q135 0 292 33v-240q-171 -37 -342 -37q-220 0 -361.5 60t-210 184.5t-68.5 321.5q0 180 63 307t184 193t293 66q248 0 377.5 -148.5t129.5 -427.5v-81zM461.5 842.5q-50.5 -62.5 -54.5 -203.5h408
q-4 141 -53.5 203.5t-148.5 62.5q-101 0 -151.5 -62.5zM455 1233l240 383h363l-289 -383h-314z" />
    <glyph glyph-name="ecircumflex" unicode="&#xea;" horiz-adv-x="1188" 
d="M1124 454h-716q6 -87 41 -136.5t110.5 -72t207.5 -22.5q135 0 292 33v-240q-171 -37 -342 -37q-220 0 -361.5 60t-210 184.5t-68.5 321.5q0 180 63 307t184 193t293 66q248 0 377.5 -148.5t129.5 -427.5v-81zM461.5 842.5q-50.5 -62.5 -54.5 -203.5h408
q-4 141 -53.5 203.5t-148.5 62.5q-101 0 -151.5 -62.5zM1001 1233h-244l-145 228l-145 -228h-244l256 383h266z" />
    <glyph glyph-name="edieresis" unicode="&#xeb;" horiz-adv-x="1188" 
d="M1124 454h-716q6 -87 41 -136.5t110.5 -72t207.5 -22.5q135 0 292 33v-240q-171 -37 -342 -37q-220 0 -361.5 60t-210 184.5t-68.5 321.5q0 180 63 307t184 193t293 66q248 0 377.5 -148.5t129.5 -427.5v-81zM461.5 842.5q-50.5 -62.5 -54.5 -203.5h408
q-4 141 -53.5 203.5t-148.5 62.5q-101 0 -151.5 -62.5zM222 1299.5q-45 42.5 -45 119.5q0 78 45 120.5t133 42.5t133 -42.5t45 -120.5q0 -77 -45 -119.5t-133 -42.5t-133 42.5zM736 1299.5q-45 42.5 -45 119.5q0 78 45 120.5t133 42.5t133 -42.5t45 -120.5q0 -77 -45 -119.5
t-133 -42.5t-133 42.5z" />
    <glyph glyph-name="igrave" unicode="&#xec;" horiz-adv-x="592" 
d="M129 0v1094h334v-1094h-334zM139 1233l-289 383h363l240 -383h-314z" />
    <glyph glyph-name="iacute" unicode="&#xed;" horiz-adv-x="592" 
d="M129 0v1094h334v-1094h-334zM139 1233l240 383h363l-289 -383h-314z" />
    <glyph glyph-name="icircumflex" unicode="&#xee;" horiz-adv-x="592" 
d="M129 0v1094h334v-1094h-334zM685 1233h-244l-145 228l-145 -228h-244l256 383h266z" />
    <glyph glyph-name="idieresis" unicode="&#xef;" horiz-adv-x="592" 
d="M129 0v1094h334v-1094h-334zM-94 1299.5q-45 42.5 -45 119.5q0 78 45 120.5t133 42.5t133 -42.5t45 -120.5q0 -77 -45 -119.5t-133 -42.5t-133 42.5zM420 1299.5q-45 42.5 -45 119.5q0 78 45 120.5t133 42.5t133 -42.5t45 -120.5q0 -77 -45 -119.5t-133 -42.5t-133 42.5z
" />
    <glyph glyph-name="eth" unicode="&#xf0;" horiz-adv-x="1299" 
d="M1160 965q65 -179 65 -352q0 -318 -149.5 -476t-425.5 -158q-176 0 -305 65t-198.5 192.5t-69.5 309.5q0 183 66.5 307.5t188 187t284.5 62.5q85 0 156 -25q-45 86 -113 174l-462 -76l-33 183l348 57q-118 113 -251 200h411q85 -60 170 -146l316 52l32 -183l-209 -34
q114 -161 179 -340zM829.5 307.5q60.5 74.5 60.5 236.5q0 167 -60 240.5t-180 73.5t-180.5 -73t-60.5 -238q0 -166 60.5 -240t180.5 -74q119 0 179.5 74.5z" />
    <glyph glyph-name="ntilde" unicode="&#xf1;" horiz-adv-x="1311" 
d="M129 1094h274l22 -108h15q65 60 154 92.5t190 32.5q189 0 298.5 -110t109.5 -343v-658h-334v639q0 103 -43 146.5t-128 43.5q-63 0 -123.5 -24t-100.5 -71v-734h-334v1094zM740 1296.5q-40 12.5 -95 36.5q-54 23 -86.5 33.5t-67.5 10.5q-58 0 -104.5 -20t-95.5 -65v201
q41 40 91.5 59t115.5 19q44 0 84 -12.5t95 -36.5q54 -23 86.5 -33.5t67.5 -10.5q58 0 104.5 20t95.5 65v-201q-41 -40 -91.5 -59t-115.5 -19q-44 0 -84 12.5z" />
    <glyph glyph-name="ograve" unicode="&#xf2;" horiz-adv-x="1299" 
d="M346 43.5q-129 64.5 -199 192t-70 310.5q0 184 68 310.5t196 190.5t309 64t309 -64t195.5 -190.5t67.5 -310.5q0 -182 -70 -309.5t-198.5 -192.5t-303.5 -65t-304 64.5zM829.5 307q60.5 73 60.5 238q0 167 -60.5 239.5t-179.5 72.5t-180 -72t-61 -238q0 -167 60.5 -240
t180.5 -73q119 0 179.5 73zM493 1233l-289 383h363l240 -383h-314z" />
    <glyph glyph-name="oacute" unicode="&#xf3;" horiz-adv-x="1299" 
d="M346 43.5q-129 64.5 -199 192t-70 310.5q0 184 68 310.5t196 190.5t309 64t309 -64t195.5 -190.5t67.5 -310.5q0 -182 -70 -309.5t-198.5 -192.5t-303.5 -65t-304 64.5zM829.5 307q60.5 73 60.5 238q0 167 -60.5 239.5t-179.5 72.5t-180 -72t-61 -238q0 -167 60.5 -240
t180.5 -73q119 0 179.5 73zM493 1233l240 383h363l-289 -383h-314z" />
    <glyph glyph-name="ocircumflex" unicode="&#xf4;" horiz-adv-x="1299" 
d="M346 43.5q-129 64.5 -199 192t-70 310.5q0 184 68 310.5t196 190.5t309 64t309 -64t195.5 -190.5t67.5 -310.5q0 -182 -70 -309.5t-198.5 -192.5t-303.5 -65t-304 64.5zM829.5 307q60.5 73 60.5 238q0 167 -60.5 239.5t-179.5 72.5t-180 -72t-61 -238q0 -167 60.5 -240
t180.5 -73q119 0 179.5 73zM1039 1233h-244l-145 228l-145 -228h-244l256 383h266z" />
    <glyph glyph-name="otilde" unicode="&#xf5;" horiz-adv-x="1299" 
d="M346 43.5q-129 64.5 -199 192t-70 310.5q0 184 68 310.5t196 190.5t309 64t309 -64t195.5 -190.5t67.5 -310.5q0 -182 -70 -309.5t-198.5 -192.5t-303.5 -65t-304 64.5zM829.5 307q60.5 73 60.5 238q0 167 -60.5 239.5t-179.5 72.5t-180 -72t-61 -238q0 -167 60.5 -240
t180.5 -73q119 0 179.5 73zM729 1296.5q-40 12.5 -95 36.5q-54 23 -86.5 33.5t-67.5 10.5q-58 0 -104.5 -20t-95.5 -65v201q41 40 91.5 59t115.5 19q44 0 84 -12.5t95 -36.5q54 -23 86.5 -33.5t67.5 -10.5q58 0 104.5 20t95.5 65v-201q-41 -40 -91.5 -59t-115.5 -19
q-44 0 -84 12.5z" />
    <glyph glyph-name="odieresis" unicode="&#xf6;" horiz-adv-x="1299" 
d="M346 43.5q-129 64.5 -199 192t-70 310.5q0 184 68 310.5t196 190.5t309 64t309 -64t195.5 -190.5t67.5 -310.5q0 -182 -70 -309.5t-198.5 -192.5t-303.5 -65t-304 64.5zM829.5 307q60.5 73 60.5 238q0 167 -60.5 239.5t-179.5 72.5t-180 -72t-61 -238q0 -167 60.5 -240
t180.5 -73q119 0 179.5 73zM260 1299.5q-45 42.5 -45 119.5q0 78 45 120.5t133 42.5t133 -42.5t45 -120.5q0 -77 -45 -119.5t-133 -42.5t-133 42.5zM774 1299.5q-45 42.5 -45 119.5q0 78 45 120.5t133 42.5t133 -42.5t45 -120.5q0 -77 -45 -119.5t-133 -42.5t-133 42.5z" />
    <glyph glyph-name="divide" unicode="&#xf7;" horiz-adv-x="1138" 
d="M423.5 1046.5q-53.5 48.5 -53.5 131.5q0 84 52.5 132.5t146.5 48.5q93 0 146 -49t53 -132q0 -82 -53.5 -131t-145.5 -49t-145.5 48.5zM127 634v252h884v-252h-884zM423.5 209.5q-53.5 48.5 -53.5 131.5q0 84 52.5 132.5t146.5 48.5q93 0 146 -49t53 -132
q0 -82 -53.5 -131t-145.5 -49t-145.5 48.5z" />
    <glyph glyph-name="oslash" unicode="&#xf8;" horiz-adv-x="1299" 
d="M1183.5 791.5q38.5 -106.5 38.5 -245.5q0 -182 -70 -309.5t-198.5 -192.5t-303.5 -65q-162 0 -286 56l-75 -99l-127 100l68 89q-75 72 -114 178t-39 243q0 184 68 310.5t196 190.5t309 64q164 0 285 -53l76 100l127 -100l-68 -89q75 -71 113.5 -177.5zM466 787.5
q-62 -72.5 -62 -240.5q0 -107 26 -177l347 463q-50 27 -127 27q-122 0 -184 -72.5zM833.5 303.5q61.5 73.5 61.5 241.5q0 109 -26 178l-349 -465q53 -28 130 -28q122 0 183.5 73.5z" />
    <glyph glyph-name="ugrave" unicode="&#xf9;" horiz-adv-x="1301" 
d="M231 91.5q-111 109.5 -111 342.5v660h334v-641q0 -102 42 -145.5t123 -43.5q60 0 119.5 24.5t99.5 70.5v735h334v-1094h-274l-21 107h-14q-67 -61 -151.5 -93t-176.5 -32q-193 0 -304 109.5zM489 1233l-289 383h363l240 -383h-314z" />
    <glyph glyph-name="uacute" unicode="&#xfa;" horiz-adv-x="1301" 
d="M231 91.5q-111 109.5 -111 342.5v660h334v-641q0 -102 42 -145.5t123 -43.5q60 0 119.5 24.5t99.5 70.5v735h334v-1094h-274l-21 107h-14q-67 -61 -151.5 -93t-176.5 -32q-193 0 -304 109.5zM489 1233l240 383h363l-289 -383h-314z" />
    <glyph glyph-name="ucircumflex" unicode="&#xfb;" horiz-adv-x="1301" 
d="M231 91.5q-111 109.5 -111 342.5v660h334v-641q0 -102 42 -145.5t123 -43.5q60 0 119.5 24.5t99.5 70.5v735h334v-1094h-274l-21 107h-14q-67 -61 -151.5 -93t-176.5 -32q-193 0 -304 109.5zM1035 1233h-244l-145 228l-145 -228h-244l256 383h266z" />
    <glyph glyph-name="udieresis" unicode="&#xfc;" horiz-adv-x="1301" 
d="M231 91.5q-111 109.5 -111 342.5v660h334v-641q0 -102 42 -145.5t123 -43.5q60 0 119.5 24.5t99.5 70.5v735h334v-1094h-274l-21 107h-14q-67 -61 -151.5 -93t-176.5 -32q-193 0 -304 109.5zM256 1299.5q-45 42.5 -45 119.5q0 78 45 120.5t133 42.5t133 -42.5t45 -120.5
q0 -77 -45 -119.5t-133 -42.5t-133 42.5zM770 1299.5q-45 42.5 -45 119.5q0 78 45 120.5t133 42.5t133 -42.5t45 -120.5q0 -77 -45 -119.5t-133 -42.5t-133 42.5z" />
    <glyph glyph-name="yacute" unicode="&#xfd;" horiz-adv-x="1255" 
d="M928 1094h328l-596 -1534h-327l173 440h-84l-423 1094h351l287 -806zM471 1233l240 383h363l-289 -383h-314z" />
    <glyph glyph-name="thorn" unicode="&#xfe;" horiz-adv-x="1323" 
d="M129 1616h334v-626h16q56 59 134 90t176 31q129 0 232 -58.5t164 -180t61 -303.5q0 -189 -72.5 -321.5t-211 -200.5t-334.5 -68q-77 0 -165 11v-430h-334v2056zM840 307q74 76 74 238q0 161 -64 229.5t-180 68.5q-59 0 -114 -20t-93 -60v-517q75 -15 150 -15
q153 0 227 76z" />
    <glyph glyph-name="ydieresis" unicode="&#xff;" horiz-adv-x="1255" 
d="M928 1094h328l-596 -1534h-327l173 440h-84l-423 1094h351l287 -806zM238 1299.5q-45 42.5 -45 119.5q0 78 45 120.5t133 42.5t133 -42.5t45 -120.5q0 -77 -45 -119.5t-133 -42.5t-133 42.5zM752 1299.5q-45 42.5 -45 119.5q0 78 45 120.5t133 42.5t133 -42.5t45 -120.5
q0 -77 -45 -119.5t-133 -42.5t-133 42.5z" />
    <glyph glyph-name="Amacron" unicode="&#x100;" horiz-adv-x="1567" 
d="M1211 0l-132 394h-594l-132 -394h-333l517 1480h493l517 -1480h-336zM572 655h420l-210 627zM399 1651v192h768v-192h-768z" />
    <glyph glyph-name="amacron" unicode="&#x101;" horiz-adv-x="1198" 
d="M849 1066q117 -45 173 -148.5t56 -282.5v-635h-276l-23 105h-15q-54 -63 -134 -94t-177 -31q-121 0 -207 40t-130.5 112t-44.5 166q0 156 116.5 241.5t365.5 101.5l199 15v4q0 78 -26.5 123t-85 64t-158.5 19q-71 0 -157 -12t-160 -35v243q84 24 184 36.5t190 12.5
q193 0 310 -45zM661.5 220q50.5 17 90.5 54v200l-168 -13q-97 -8 -139.5 -41t-42.5 -93q0 -59 39.5 -91.5t116.5 -32.5q53 0 103.5 17zM225 1325v191h740v-191h-740z" />
    <glyph glyph-name="Abreve" unicode="&#x102;" horiz-adv-x="1567" 
d="M1211 0l-132 394h-594l-132 -394h-333l517 1480h493l517 -1480h-336zM572 655h420l-210 627zM493.5 1677.5q-102.5 78.5 -120.5 211.5h203q14 -64 63.5 -97t144.5 -33q94 0 143.5 33.5t62.5 96.5h203q-18 -134 -119.5 -212t-289.5 -78t-290.5 78.5z" />
    <glyph glyph-name="abreve" unicode="&#x103;" horiz-adv-x="1198" 
d="M849 1066q117 -45 173 -148.5t56 -282.5v-635h-276l-23 105h-15q-54 -63 -134 -94t-177 -31q-121 0 -207 40t-130.5 112t-44.5 166q0 156 116.5 241.5t365.5 101.5l199 15v4q0 78 -26.5 123t-85 64t-158.5 19q-71 0 -157 -12t-160 -35v243q84 24 184 36.5t190 12.5
q193 0 310 -45zM661.5 220q50.5 17 90.5 54v200l-168 -13q-97 -8 -139.5 -41t-42.5 -93q0 -59 39.5 -91.5t116.5 -32.5q53 0 103.5 17zM315.5 1333q-100.5 92 -109.5 261h201q8 -93 54 -140t135 -47q88 0 133.5 47t53.5 140h201q-9 -169 -109 -261t-279 -92
q-180 0 -280.5 92z" />
    <glyph glyph-name="Aogonek" unicode="&#x104;" horiz-adv-x="1567" 
d="M1606 -282v-127q-94 -33 -191 -33q-143 0 -216.5 55t-73.5 153q0 70 38 128t123 106h-75l-132 394h-594l-132 -394h-333l517 1480h493l517 -1480q-128 -49 -180 -98.5t-52 -109.5q0 -50 36.5 -77t110.5 -27q62 0 144 30zM572 655h420l-210 627z" />
    <glyph glyph-name="aogonek" unicode="&#x105;" horiz-adv-x="1198" 
d="M1122 -281v-127q-81 -34 -176 -34q-131 0 -200.5 55.5t-69.5 152.5q0 70 35.5 128.5t115.5 105.5h-25l-23 105h-15q-54 -63 -134 -94t-177 -31q-121 0 -207 40t-130.5 112t-44.5 166q0 156 116.5 241.5t365.5 101.5l199 15v4q0 78 -26.5 123t-85 64t-158.5 19
q-71 0 -157 -12t-160 -35v243q84 24 184 36.5t190 12.5q193 0 310 -45t173 -148.5t56 -282.5v-635q-117 -48 -164.5 -98t-47.5 -113q0 -47 33 -74t94 -27q63 0 129 31zM661.5 220q50.5 17 90.5 54v200l-168 -13q-97 -8 -139.5 -41t-42.5 -93q0 -59 39.5 -91.5t116.5 -32.5
q53 0 103.5 17z" />
    <glyph glyph-name="Cacute" unicode="&#x106;" horiz-adv-x="1331" 
d="M92 737q0 247 97 417.5t285.5 257.5t460.5 87q177 0 339 -36v-277q-151 35 -313 35q-264 0 -388 -115.5t-124 -364.5q0 -253 122 -367.5t375 -114.5q164 0 328 45v-276q-161 -47 -353 -47q-829 0 -829 756zM644 1595l193 303h353l-243 -303h-303z" />
    <glyph glyph-name="cacute" unicode="&#x107;" horiz-adv-x="1045" 
d="M234 122q-157 143 -157 422q0 281 164 424t479 143q152 0 271 -28v-259q-126 24 -234 24q-176 0 -257.5 -72.5t-81.5 -229.5t78 -230t235 -73q59 0 118 9t142 29v-259q-137 -43 -301 -43q-299 0 -456 143zM426 1233l240 383h363l-289 -383h-314z" />
    <glyph glyph-name="Ccircumflex" unicode="&#x108;" horiz-adv-x="1331" 
d="M92 737q0 247 97 417.5t285.5 257.5t460.5 87q177 0 339 -36v-277q-151 35 -313 35q-264 0 -388 -115.5t-124 -364.5q0 -253 122 -367.5t375 -114.5q164 0 328 45v-276q-161 -47 -353 -47q-829 0 -829 756zM1228 1595h-265l-165 179l-165 -179h-265l289 303h282z" />
    <glyph glyph-name="ccircumflex" unicode="&#x109;" horiz-adv-x="1045" 
d="M234 122q-157 143 -157 422q0 281 164 424t479 143q152 0 271 -28v-259q-126 24 -234 24q-176 0 -257.5 -72.5t-81.5 -229.5t78 -230t235 -73q59 0 118 9t142 29v-259q-137 -43 -301 -43q-299 0 -456 143zM972 1233h-244l-145 228l-145 -228h-244l256 383h266z" />
    <glyph glyph-name="Cdotaccent" unicode="&#x10a;" horiz-adv-x="1331" 
d="M92 737q0 247 97 417.5t285.5 257.5t460.5 87q177 0 339 -36v-277q-151 35 -313 35q-264 0 -388 -115.5t-124 -364.5q0 -253 122 -367.5t375 -114.5q164 0 328 45v-276q-161 -47 -353 -47q-829 0 -829 756zM647 1644.5q-50 38.5 -50 106.5t50 106t151 38t151 -38t50 -106
t-50 -106.5t-151 -38.5t-151 38.5z" />
    <glyph glyph-name="cdotaccent" unicode="&#x10b;" horiz-adv-x="1045" 
d="M234 122q-157 143 -157 422q0 281 164 424t479 143q152 0 271 -28v-259q-126 24 -234 24q-176 0 -257.5 -72.5t-81.5 -229.5t78 -230t235 -73q59 0 118 9t142 29v-259q-137 -43 -301 -43q-299 0 -456 143zM429 1295.5q-51 42.5 -51 123.5q0 82 51 124.5t154 42.5
t154 -42.5t51 -124.5q0 -81 -51 -123.5t-154 -42.5t-154 42.5z" />
    <glyph glyph-name="Ccaron" unicode="&#x10c;" horiz-adv-x="1331" 
d="M92 737q0 247 97 417.5t285.5 257.5t460.5 87q177 0 339 -36v-277q-151 35 -313 35q-264 0 -388 -115.5t-124 -364.5q0 -253 122 -367.5t375 -114.5q164 0 328 45v-276q-161 -47 -353 -47q-829 0 -829 756zM963 1898h265l-289 -303h-282l-289 303h265l165 -179z" />
    <glyph glyph-name="ccaron" unicode="&#x10d;" horiz-adv-x="1045" 
d="M234 122q-157 143 -157 422q0 281 164 424t479 143q152 0 271 -28v-259q-126 24 -234 24q-176 0 -257.5 -72.5t-81.5 -229.5t78 -230t235 -73q59 0 118 9t142 29v-259q-137 -43 -301 -43q-299 0 -456 143zM729 1616h245l-258 -383h-266l-258 383h245l146 -228z" />
    <glyph glyph-name="Dcaron" unicode="&#x10e;" horiz-adv-x="1613" 
d="M144 12v1431q108 24 246 38t264 14q432 0 649.5 -186t217.5 -569q0 -265 -103.5 -431t-311 -244.5t-527.5 -78.5q-223 0 -435 26zM953 308.5q111 49.5 165 155.5t54 278q0 251 -122.5 366.5t-378.5 115.5q-82 0 -185 -16v-942q66 -7 182 -7q174 0 285 49.5zM875 1898h265
l-289 -303h-282l-289 303h265l165 -179z" />
    <glyph glyph-name="dcaron" unicode="&#x10f;" horiz-adv-x="1323" 
d="M314 38q-109 57 -173 178.5t-64 307.5q0 189 72.5 321t211 200t334.5 68q69 0 165 -10v513h334v-1616h-280l-18 112h-16q-57 -61 -138.5 -96t-180.5 -35q-138 0 -247 57zM766.5 270q54.5 20 93.5 61v516q-72 14 -150 14q-153 0 -227 -75.5t-74 -237.5q0 -160 63.5 -229
t180.5 -69q59 0 113.5 20zM1292.5 1391.5q6.5 103.5 6.5 224.5h220q0 -117 -19 -231t-53 -205h-178q17 108 23.5 211.5z" />
    <glyph glyph-name="Dcroat" unicode="&#x110;" horiz-adv-x="1613" 
d="M1303.5 1309q217.5 -186 217.5 -569q0 -265 -103.5 -431t-311 -244.5t-527.5 -78.5q-223 0 -435 26v645h-139v210h139v576q108 24 246 38t264 14q432 0 649.5 -186zM953 308.5q111 49.5 165 155.5t54 278q0 251 -122.5 366.5t-378.5 115.5q-82 0 -185 -16v-341h294v-210
h-294v-391q66 -7 182 -7q174 0 285 49.5z" />
    <glyph glyph-name="dcroat" unicode="&#x111;" horiz-adv-x="1323" 
d="M1318 1255h-124v-1255h-280l-18 112h-16q-57 -61 -138.5 -96t-180.5 -35q-138 0 -247 57t-173 178.5t-64 307.5q0 189 72.5 321t211 200t334.5 68q69 0 165 -10v152h-384v200h384v161h334v-161h124v-200zM860 847q-72 14 -150 14q-153 0 -227 -75.5t-74 -237.5
q0 -160 63.5 -229t180.5 -69q59 0 113.5 20t93.5 61v516z" />
    <glyph glyph-name="Emacron" unicode="&#x112;" horiz-adv-x="1345" 
d="M482 262h783v-262h-1121v1480h1111v-262h-773v-330h670v-262h-670v-364zM337 1651v192h768v-192h-768z" />
    <glyph glyph-name="emacron" unicode="&#x113;" horiz-adv-x="1188" 
d="M1124 454h-716q6 -87 41 -136.5t110.5 -72t207.5 -22.5q135 0 292 33v-240q-171 -37 -342 -37q-220 0 -361.5 60t-210 184.5t-68.5 321.5q0 180 63 307t184 193t293 66q248 0 377.5 -148.5t129.5 -427.5v-81zM461.5 842.5q-50.5 -62.5 -54.5 -203.5h408
q-4 141 -53.5 203.5t-148.5 62.5q-101 0 -151.5 -62.5zM242 1325v191h740v-191h-740z" />
    <glyph glyph-name="Ebreve" unicode="&#x114;" horiz-adv-x="1345" 
d="M482 262h783v-262h-1121v1480h1111v-262h-773v-330h670v-262h-670v-364zM431.5 1677.5q-102.5 78.5 -120.5 211.5h203q14 -64 63.5 -97t144.5 -33q94 0 143.5 33.5t62.5 96.5h203q-18 -134 -119.5 -212t-289.5 -78t-290.5 78.5z" />
    <glyph glyph-name="ebreve" unicode="&#x115;" horiz-adv-x="1188" 
d="M1124 454h-716q6 -87 41 -136.5t110.5 -72t207.5 -22.5q135 0 292 33v-240q-171 -37 -342 -37q-220 0 -361.5 60t-210 184.5t-68.5 321.5q0 180 63 307t184 193t293 66q248 0 377.5 -148.5t129.5 -427.5v-81zM461.5 842.5q-50.5 -62.5 -54.5 -203.5h408
q-4 141 -53.5 203.5t-148.5 62.5q-101 0 -151.5 -62.5zM332.5 1333q-100.5 92 -109.5 261h201q8 -93 54 -140t135 -47q88 0 133.5 47t53.5 140h201q-9 -169 -109 -261t-279 -92q-180 0 -280.5 92z" />
    <glyph glyph-name="Edotaccent" unicode="&#x116;" horiz-adv-x="1345" 
d="M482 262h783v-262h-1121v1480h1111v-262h-773v-330h670v-262h-670v-364zM570 1644.5q-50 38.5 -50 106.5t50 106t151 38t151 -38t50 -106t-50 -106.5t-151 -38.5t-151 38.5z" />
    <glyph glyph-name="edotaccent" unicode="&#x117;" horiz-adv-x="1188" 
d="M1124 454h-716q6 -87 41 -136.5t110.5 -72t207.5 -22.5q135 0 292 33v-240q-171 -37 -342 -37q-220 0 -361.5 60t-210 184.5t-68.5 321.5q0 180 63 307t184 193t293 66q248 0 377.5 -148.5t129.5 -427.5v-81zM461.5 842.5q-50.5 -62.5 -54.5 -203.5h408
q-4 141 -53.5 203.5t-148.5 62.5q-101 0 -151.5 -62.5zM458 1295.5q-51 42.5 -51 123.5q0 82 51 124.5t154 42.5t154 -42.5t51 -124.5q0 -81 -51 -123.5t-154 -42.5t-154 42.5z" />
    <glyph glyph-name="Eogonek" unicode="&#x118;" horiz-adv-x="1345" 
d="M993 -98.5q-52 -49.5 -52 -109.5q0 -50 36.5 -77t110.5 -27q62 0 144 30v-127q-94 -33 -191 -33q-143 0 -216.5 55t-73.5 153q0 70 38 128t123 106h-768v1480h1111v-262h-773v-330h670v-262h-670v-364h783v-262h-92q-128 -49 -180 -98.5z" />
    <glyph glyph-name="eogonek" unicode="&#x119;" horiz-adv-x="1188" 
d="M1124 454h-716q6 -87 41 -136.5t110.5 -72t207.5 -22.5q135 0 292 33v-240q-142 -46 -199 -103t-57 -123q0 -47 32.5 -74.5t93.5 -27.5q64 0 130 31v-127q-81 -34 -177 -34q-131 0 -200.5 55.5t-69.5 152.5q0 132 121 213h-16q-220 0 -361.5 60t-210 184.5t-68.5 321.5
q0 180 63 307t184 193t293 66q248 0 377.5 -148.5t129.5 -427.5v-81zM461.5 835.5q-50.5 -62.5 -54.5 -203.5h408q-4 141 -53.5 203.5t-148.5 62.5q-101 0 -151.5 -62.5z" />
    <glyph glyph-name="Ecaron" unicode="&#x11a;" horiz-adv-x="1345" 
d="M482 262h783v-262h-1121v1480h1111v-262h-773v-330h670v-262h-670v-364zM886 1898h265l-289 -303h-282l-289 303h265l165 -179z" />
    <glyph glyph-name="ecaron" unicode="&#x11b;" horiz-adv-x="1188" 
d="M1124 454h-716q6 -87 41 -136.5t110.5 -72t207.5 -22.5q135 0 292 33v-240q-171 -37 -342 -37q-220 0 -361.5 60t-210 184.5t-68.5 321.5q0 180 63 307t184 193t293 66q248 0 377.5 -148.5t129.5 -427.5v-81zM461.5 842.5q-50.5 -62.5 -54.5 -203.5h408
q-4 141 -53.5 203.5t-148.5 62.5q-101 0 -151.5 -62.5zM758 1616h245l-258 -383h-266l-258 383h245l146 -228z" />
    <glyph glyph-name="Gcircumflex" unicode="&#x11c;" horiz-adv-x="1524" 
d="M1383 720v-702q-208 -35 -394 -35q-451 0 -674 187t-223 565q-1 375 227.5 569.5t667.5 194.5q180 0 349 -37v-277q-156 36 -323 36q-196 -1 -320.5 -52t-185 -159t-60.5 -280q0 -238 127.5 -354.5t392.5 -116.5q49 0 97 3v458h319zM1281 1595h-265l-165 179l-165 -179
h-265l289 303h282z" />
    <glyph glyph-name="gcircumflex" unicode="&#x11d;" horiz-adv-x="1323" 
d="M153 -411v257q101 -27 199 -40.5t180 -13.5q118 0 190 26.5t105 82.5t33 147v69h-16q-56 -58 -134.5 -89t-175.5 -31q-127 0 -230.5 58.5t-165 177.5t-61.5 291q0 284 167 435.5t492 151.5q117 0 240 -16.5t218 -45.5v-939q0 -199 -69 -325t-209 -185.5t-359 -59.5
q-216 0 -404 49zM765 282.5q54 18.5 95 54.5v506q-74 18 -153 18q-148 0 -223 -76t-75 -234q0 -155 64 -221t181 -66q57 0 111 18.5zM1078 1233h-244l-145 228l-145 -228h-244l256 383h266z" />
    <glyph glyph-name="Gbreve" unicode="&#x11e;" horiz-adv-x="1524" 
d="M1383 720v-702q-208 -35 -394 -35q-451 0 -674 187t-223 565q-1 375 227.5 569.5t667.5 194.5q180 0 349 -37v-277q-156 36 -323 36q-196 -1 -320.5 -52t-185 -159t-60.5 -280q0 -238 127.5 -354.5t392.5 -116.5q49 0 97 3v458h319zM561.5 1677.5
q-102.5 78.5 -120.5 211.5h203q14 -64 63.5 -97t144.5 -33q94 0 143.5 33.5t62.5 96.5h203q-18 -134 -119.5 -212t-289.5 -78t-290.5 78.5z" />
    <glyph glyph-name="gbreve" unicode="&#x11f;" horiz-adv-x="1323" 
d="M153 -411v257q101 -27 199 -40.5t180 -13.5q118 0 190 26.5t105 82.5t33 147v69h-16q-56 -58 -134.5 -89t-175.5 -31q-127 0 -230.5 58.5t-165 177.5t-61.5 291q0 284 167 435.5t492 151.5q117 0 240 -16.5t218 -45.5v-939q0 -199 -69 -325t-209 -185.5t-359 -59.5
q-216 0 -404 49zM765 282.5q54 18.5 95 54.5v506q-74 18 -153 18q-148 0 -223 -76t-75 -234q0 -155 64 -221t181 -66q57 0 111 18.5zM409.5 1333q-100.5 92 -109.5 261h201q8 -93 54 -140t135 -47q88 0 133.5 47t53.5 140h201q-9 -169 -109 -261t-279 -92q-180 0 -280.5 92z
" />
    <glyph glyph-name="Gdotaccent" unicode="&#x120;" horiz-adv-x="1524" 
d="M1383 720v-702q-208 -35 -394 -35q-451 0 -674 187t-223 565q-1 375 227.5 569.5t667.5 194.5q180 0 349 -37v-277q-156 36 -323 36q-196 -1 -320.5 -52t-185 -159t-60.5 -280q0 -238 127.5 -354.5t392.5 -116.5q49 0 97 3v458h319zM700 1644.5q-50 38.5 -50 106.5
t50 106t151 38t151 -38t50 -106t-50 -106.5t-151 -38.5t-151 38.5z" />
    <glyph glyph-name="gdotaccent" unicode="&#x121;" horiz-adv-x="1323" 
d="M153 -411v257q101 -27 199 -40.5t180 -13.5q118 0 190 26.5t105 82.5t33 147v69h-16q-56 -58 -134.5 -89t-175.5 -31q-127 0 -230.5 58.5t-165 177.5t-61.5 291q0 284 167 435.5t492 151.5q117 0 240 -16.5t218 -45.5v-939q0 -199 -69 -325t-209 -185.5t-359 -59.5
q-216 0 -404 49zM765 282.5q54 18.5 95 54.5v506q-74 18 -153 18q-148 0 -223 -76t-75 -234q0 -155 64 -221t181 -66q57 0 111 18.5zM535 1295.5q-51 42.5 -51 123.5q0 82 51 124.5t154 42.5t154 -42.5t51 -124.5q0 -81 -51 -123.5t-154 -42.5t-154 42.5z" />
    <glyph glyph-name="Gcommaaccent" unicode="&#x122;" horiz-adv-x="1524" 
d="M1383 720v-702q-208 -35 -394 -35q-451 0 -674 187t-223 565q-1 375 227.5 569.5t667.5 194.5q180 0 349 -37v-277q-156 36 -323 36q-196 -1 -320.5 -52t-185 -159t-60.5 -280q0 -238 127.5 -354.5t392.5 -116.5q49 0 97 3v458h319zM1038 -278q0 -54 -22 -114.5
t-58 -105.5h-204q45 85 56 146q-146 11 -146 111q0 54 46 83.5t140 29.5q188 0 188 -150z" />
    <glyph glyph-name="gcommaaccent" unicode="&#x123;" horiz-adv-x="1323" 
d="M153 -411v257q101 -27 199 -40.5t180 -13.5q118 0 190 26.5t105 82.5t33 147v69h-16q-56 -58 -134.5 -89t-175.5 -31q-127 0 -230.5 58.5t-165 177.5t-61.5 291q0 284 167 435.5t492 151.5q117 0 240 -16.5t218 -45.5v-939q0 -199 -69 -325t-209 -185.5t-359 -59.5
q-216 0 -404 49zM765 282.5q54 18.5 95 54.5v506q-74 18 -153 18q-148 0 -223 -76t-75 -234q0 -155 64 -221t181 -66q57 0 111 18.5zM876 1370q0 -54 -46 -83.5t-140 -29.5q-188 0 -188 150q0 54 22 114t58 105h204q-45 -86 -56 -145q146 -11 146 -111z" />
    <glyph glyph-name="Hcircumflex" unicode="&#x124;" horiz-adv-x="1630" 
d="M144 0v1480h342v-576h658v576h341v-1480h-341v610h-658v-610h-342zM1246 1595h-265l-165 179l-165 -179h-265l289 303h282z" />
    <glyph glyph-name="hcircumflex" unicode="&#x125;" horiz-adv-x="1311" 
d="M129 1616h334v-629h16q62 61 144 92.5t177 31.5q178 0 285 -110.5t107 -341.5v-659h-334v639q0 103 -43.5 146.5t-127.5 43.5q-64 0 -124 -24.5t-100 -70.5v-734h-334v1616zM1091 1691h-265l-165 179l-165 -179h-265l289 303h282z" />
    <glyph glyph-name="Hbar" unicode="&#x126;" horiz-adv-x="1630" 
d="M1625 1298v-209h-140v-1089h-341v610h-658v-610h-342v1089h-138v209h138v182h342v-182h658v182h341v-182h140zM1144 904v185h-658v-185h658z" />
    <glyph glyph-name="hbar" unicode="&#x127;" horiz-adv-x="1311" 
d="M1085 1000.5q107 -110.5 107 -341.5v-659h-334v639q0 103 -43.5 146.5t-127.5 43.5q-64 0 -124 -24.5t-100 -70.5v-734h-334v1252h-124v200h124v164h334v-164h384v-200h-384v-265h16q62 61 144 92.5t177 31.5q178 0 285 -110.5z" />
    <glyph glyph-name="Itilde" unicode="&#x128;" horiz-adv-x="630" 
d="M144 0v1480h342v-1480h-342zM402 1630q-43 10 -103 29q-55 18 -92.5 26.5t-77.5 8.5q-62 0 -109.5 -16t-97.5 -52v182q42 37 93 54.5t121 17.5q49 0 92 -10t103 -29q57 -18 93.5 -27t76.5 -9q62 0 110 16t97 51v-182q-42 -36 -92.5 -53t-121.5 -17q-49 0 -92 10z" />
    <glyph glyph-name="itilde" unicode="&#x129;" horiz-adv-x="592" 
d="M129 0v1094h334v-1094h-334zM375 1296.5q-40 12.5 -95 36.5q-54 23 -86.5 33.5t-67.5 10.5q-58 0 -104.5 -20t-95.5 -65v201q41 40 91.5 59t115.5 19q44 0 84 -12.5t95 -36.5q54 -23 86.5 -33.5t67.5 -10.5q58 0 104.5 20t95.5 65v-201q-41 -40 -91.5 -59t-115.5 -19
q-44 0 -84 12.5z" />
    <glyph glyph-name="Imacron" unicode="&#x12a;" horiz-adv-x="630" 
d="M144 0v1480h342v-1480h-342zM-69 1651v192h768v-192h-768z" />
    <glyph glyph-name="imacron" unicode="&#x12b;" horiz-adv-x="592" 
d="M129 0v1094h334v-1094h-334zM-74 1325v191h740v-191h-740z" />
    <glyph glyph-name="Ibreve" unicode="&#x12c;" horiz-adv-x="630" 
d="M144 0v1480h342v-1480h-342zM25.5 1677.5q-102.5 78.5 -120.5 211.5h203q14 -64 63.5 -97t144.5 -33q94 0 143.5 33.5t62.5 96.5h203q-18 -134 -119.5 -212t-289.5 -78t-290.5 78.5z" />
    <glyph glyph-name="ibreve" unicode="&#x12d;" horiz-adv-x="592" 
d="M129 0v1094h334v-1094h-334zM16.5 1333q-100.5 92 -109.5 261h201q8 -93 54 -140t135 -47q88 0 133.5 47t53.5 140h201q-9 -169 -109 -261t-279 -92q-180 0 -280.5 92z" />
    <glyph glyph-name="Iogonek" unicode="&#x12e;" horiz-adv-x="630" 
d="M545 -282v-127q-94 -33 -191 -33q-143 0 -216.5 55t-73.5 153q0 70 38 128t123 106h-81v1480h342v-1480q-128 -49 -180 -98.5t-52 -109.5q0 -50 36.5 -77t110.5 -27q62 0 144 30z" />
    <glyph glyph-name="iogonek" unicode="&#x12f;" horiz-adv-x="592" 
d="M142 1295.5q-51 42.5 -51 123.5q0 82 51 124.5t154 42.5t154 -42.5t51 -124.5q0 -81 -51 -123.5t-154 -42.5t-154 42.5zM507 -281v-127q-81 -34 -176 -34q-131 0 -200.5 55.5t-69.5 152.5q0 70 35.5 128.5t115.5 105.5h-83v1094h334v-1094q-117 -48 -164.5 -98
t-47.5 -113q0 -47 33 -74t94 -27q63 0 129 31z" />
    <glyph glyph-name="Idotaccent" unicode="&#x130;" horiz-adv-x="630" 
d="M144 0v1480h342v-1480h-342zM164 1644.5q-50 38.5 -50 106.5t50 106t151 38t151 -38t50 -106t-50 -106.5t-151 -38.5t-151 38.5z" />
    <glyph glyph-name="dotlessi" unicode="&#x131;" horiz-adv-x="592" 
d="M129 0v1094h334v-1094h-334z" />
    <glyph glyph-name="Jcircumflex" unicode="&#x134;" horiz-adv-x="630" 
d="M-13 -208q87 112 123.5 227.5t36.5 278.5v1182h339v-1181q-3 -189 -68 -343t-217 -308zM746 1595h-265l-165 179l-165 -179h-265l289 303h282z" />
    <glyph glyph-name="jcircumflex" unicode="&#x135;" horiz-adv-x="592" 
d="M-31 -330q88 112 124 227.5t36 278.5v918h334v-905q0 -194 -65 -349.5t-217 -310.5zM679 1235h-244l-145 228l-145 -228h-244l256 383h266z" />
    <glyph glyph-name="Kcommaaccent" unicode="&#x136;" horiz-adv-x="1405" 
d="M1072 0l-436 610h-150v-610h-342v1480h342v-576h150l402 576h361l-499 -716l545 -764h-373zM924 -278q0 -54 -22 -114.5t-58 -105.5h-204q45 85 56 146q-146 11 -146 111q0 54 46 83.5t140 29.5q188 0 188 -150z" />
    <glyph glyph-name="kcommaaccent" unicode="&#x137;" horiz-adv-x="1265" 
d="M931 0l-313 427h-155v-427h-334v1616h334v-920h153l287 398h358l-370 -525l406 -569h-366zM848 -278q0 -54 -22 -114.5t-58 -105.5h-204q45 85 56 146q-146 11 -146 111q0 54 46 83.5t140 29.5q188 0 188 -150z" />
    <glyph glyph-name="kgreenlandic" unicode="&#x138;" horiz-adv-x="1265" 
d="M931 0l-313 427h-155v-427h-334v1094h334v-398h153l287 398h358l-370 -525l406 -569h-366z" />
    <glyph glyph-name="Lacute" unicode="&#x139;" horiz-adv-x="1227" 
d="M144 0v1480h342v-1206h729v-274h-1071zM162 1595l193 303h353l-243 -303h-303z" />
    <glyph glyph-name="lacute" unicode="&#x13a;" horiz-adv-x="592" 
d="M129 0v1616h334v-1616h-334zM142 1691l193 303h353l-243 -303h-303z" />
    <glyph glyph-name="Lcommaaccent" unicode="&#x13b;" horiz-adv-x="1227" 
d="M144 0v1480h342v-1206h729v-274h-1071zM867 -278q0 -54 -22 -114.5t-58 -105.5h-204q45 85 56 146q-146 11 -146 111q0 54 46 83.5t140 29.5q188 0 188 -150z" />
    <glyph glyph-name="lcommaaccent" unicode="&#x13c;" horiz-adv-x="592" 
d="M129 0v1616h334v-1616h-334zM482 -278q0 -54 -22 -114.5t-58 -105.5h-204q45 85 56 146q-146 11 -146 111q0 54 46 83.5t140 29.5q188 0 188 -150z" />
    <glyph glyph-name="Lcaron" unicode="&#x13d;" horiz-adv-x="1227" 
d="M144 0v1480h342v-1206h729v-274h-1071zM809 1356.5q6 108.5 6 259.5h220q0 -276 -70 -476h-178q16 108 22 216.5z" />
    <glyph glyph-name="lcaron" unicode="&#x13e;" horiz-adv-x="592" 
d="M129 0v1616h334v-1616h-334zM561.5 1391.5q6.5 103.5 6.5 224.5h220q0 -117 -19 -231t-53 -205h-178q17 108 23.5 211.5z" />
    <glyph glyph-name="Ldot" unicode="&#x13f;" horiz-adv-x="1227" 
d="M144 0v1480h342v-1206h729v-274h-1071zM714 878q0 81 50.5 123.5t153.5 42.5t154 -42.5t51 -123.5q0 -166 -205 -166q-204 0 -204 166z" />
    <glyph glyph-name="ldot" unicode="&#x140;" horiz-adv-x="901" 
d="M129 0v1616h334v-1616h-334zM588 669.5q-51 42.5 -51 123.5q0 82 51 124.5t154 42.5q204 0 204 -167q0 -81 -50.5 -123.5t-153.5 -42.5t-154 42.5z" />
    <glyph glyph-name="Lslash" unicode="&#x141;" horiz-adv-x="1227" 
d="M486 274h729v-274h-1071v613l-94 -52l-96 187l190 105v627h342v-437l283 157l96 -187l-379 -210v-529z" />
    <glyph glyph-name="lslash" unicode="&#x142;" horiz-adv-x="592" 
d="M648 790l-185 -101v-689h-334v508l-91 -50l-93 180l184 100v878h334v-696l92 50z" />
    <glyph glyph-name="Nacute" unicode="&#x143;" horiz-adv-x="1646" 
d="M1180 1480h322v-1480h-344l-692 996v-996h-322v1480h344l692 -996v996zM669 1595l193 303h353l-243 -303h-303z" />
    <glyph glyph-name="nacute" unicode="&#x144;" horiz-adv-x="1311" 
d="M129 1094h274l22 -108h15q65 60 154 92.5t190 32.5q189 0 298.5 -110t109.5 -343v-658h-334v639q0 103 -43 146.5t-128 43.5q-63 0 -123.5 -24t-100.5 -71v-734h-334v1094zM504 1233l240 383h363l-289 -383h-314z" />
    <glyph glyph-name="Ncommaaccent" unicode="&#x145;" horiz-adv-x="1646" 
d="M1180 1480h322v-1480h-344l-692 996v-996h-322v1480h344l692 -996v996zM1010 -278q0 -54 -22 -114.5t-58 -105.5h-204q45 85 56 146q-146 11 -146 111q0 54 46 83.5t140 29.5q188 0 188 -150z" />
    <glyph glyph-name="ncommaaccent" unicode="&#x146;" horiz-adv-x="1311" 
d="M129 1094h274l22 -108h15q65 60 154 92.5t190 32.5q189 0 298.5 -110t109.5 -343v-658h-334v639q0 103 -43 146.5t-128 43.5q-63 0 -123.5 -24t-100.5 -71v-734h-334v1094zM848 -278q0 -54 -22 -114.5t-58 -105.5h-204q45 85 56 146q-146 11 -146 111q0 54 46 83.5
t140 29.5q188 0 188 -150z" />
    <glyph glyph-name="Ncaron" unicode="&#x147;" horiz-adv-x="1646" 
d="M1180 1480h322v-1480h-344l-692 996v-996h-322v1480h344l692 -996v996zM988 1898h265l-289 -303h-282l-289 303h265l165 -179z" />
    <glyph glyph-name="ncaron" unicode="&#x148;" horiz-adv-x="1311" 
d="M129 1094h274l22 -108h15q65 60 154 92.5t190 32.5q189 0 298.5 -110t109.5 -343v-658h-334v639q0 103 -43 146.5t-128 43.5q-63 0 -123.5 -24t-100.5 -71v-734h-334v1094zM807 1616h245l-258 -383h-266l-258 383h245l146 -228z" />
    <glyph glyph-name="napostrophe" unicode="&#x149;" horiz-adv-x="1311" 
d="M129 1094h274l22 -108h15q65 60 154 92.5t190 32.5q189 0 298.5 -110t109.5 -343v-658h-334v639q0 103 -43 146.5t-128 43.5q-63 0 -123.5 -24t-100.5 -71v-734h-334v1094zM385 1477q0 -54 -21.5 -114t-57.5 -106h-204q45 86 55 146q-145 11 -145 110q0 113 185 113
q188 0 188 -149z" />
    <glyph glyph-name="Eng" unicode="&#x14a;" horiz-adv-x="1646" 
d="M1502 1480v-1263q0 -143 -28 -258.5t-89.5 -219.5t-165.5 -210l-211 141q63 79 101 157t55 167l-698 1002v-996h-322v1480h344l692 -992v992h322z" />
    <glyph glyph-name="eng" unicode="&#x14b;" horiz-adv-x="1311" 
d="M698 -330q87 112 123.5 227.5t36.5 278.5v465q0 103 -43.5 146t-127.5 43q-64 0 -124 -24.5t-100 -70.5v-735h-334v1094h274l22 -108h15q66 61 154.5 93t190.5 32q188 0 297.5 -110t109.5 -342v-482q-3 -189 -67.5 -341.5t-215.5 -306.5z" />
    <glyph glyph-name="Omacron" unicode="&#x14c;" horiz-adv-x="1682" 
d="M442 67q-168 86 -259 256.5t-91 416.5t91 416.5t259 256.5t399 86t399 -86.5t259 -257t91 -415.5t-91 -415.5t-259.5 -257t-398.5 -86.5q-231 0 -399 86zM1138 370q103 118 103 363q0 254 -103.5 374.5t-296.5 120.5q-192 0 -296 -117.5t-104 -363.5q0 -257 102.5 -376
t297.5 -119q194 0 297 118zM457 1651v192h768v-192h-768z" />
    <glyph glyph-name="omacron" unicode="&#x14d;" horiz-adv-x="1299" 
d="M346 43.5q-129 64.5 -199 192t-70 310.5q0 184 68 310.5t196 190.5t309 64t309 -64t195.5 -190.5t67.5 -310.5q0 -182 -70 -309.5t-198.5 -192.5t-303.5 -65t-304 64.5zM829.5 307q60.5 73 60.5 238q0 167 -60.5 239.5t-179.5 72.5t-180 -72t-61 -238q0 -167 60.5 -240
t180.5 -73q119 0 179.5 73zM280 1325v191h740v-191h-740z" />
    <glyph glyph-name="Obreve" unicode="&#x14e;" horiz-adv-x="1682" 
d="M442 67q-168 86 -259 256.5t-91 416.5t91 416.5t259 256.5t399 86t399 -86.5t259 -257t91 -415.5t-91 -415.5t-259.5 -257t-398.5 -86.5q-231 0 -399 86zM1138 370q103 118 103 363q0 254 -103.5 374.5t-296.5 120.5q-192 0 -296 -117.5t-104 -363.5q0 -257 102.5 -376
t297.5 -119q194 0 297 118zM551.5 1677.5q-102.5 78.5 -120.5 211.5h203q14 -64 63.5 -97t144.5 -33q94 0 143.5 33.5t62.5 96.5h203q-18 -134 -119.5 -212t-289.5 -78t-290.5 78.5z" />
    <glyph glyph-name="obreve" unicode="&#x14f;" horiz-adv-x="1299" 
d="M346 43.5q-129 64.5 -199 192t-70 310.5q0 184 68 310.5t196 190.5t309 64t309 -64t195.5 -190.5t67.5 -310.5q0 -182 -70 -309.5t-198.5 -192.5t-303.5 -65t-304 64.5zM829.5 307q60.5 73 60.5 238q0 167 -60.5 239.5t-179.5 72.5t-180 -72t-61 -238q0 -167 60.5 -240
t180.5 -73q119 0 179.5 73zM370.5 1333q-100.5 92 -109.5 261h201q8 -93 54 -140t135 -47q88 0 133.5 47t53.5 140h201q-9 -169 -109 -261t-279 -92q-180 0 -280.5 92z" />
    <glyph glyph-name="Ohungarumlaut" unicode="&#x150;" horiz-adv-x="1682" 
d="M442 67q-168 86 -259 256.5t-91 416.5t91 416.5t259 256.5t399 86t399 -86.5t259 -257t91 -415.5t-91 -415.5t-259.5 -257t-398.5 -86.5q-231 0 -399 86zM1138 370q103 118 103 363q0 254 -103.5 374.5t-296.5 120.5q-192 0 -296 -117.5t-104 -363.5q0 -257 102.5 -376
t297.5 -119q194 0 297 118zM513 1595l148 303h258l-165 -303h-241zM928 1595l148 303h259l-166 -303h-241z" />
    <glyph glyph-name="ohungarumlaut" unicode="&#x151;" horiz-adv-x="1299" 
d="M346 43.5q-129 64.5 -199 192t-70 310.5q0 184 68 310.5t196 190.5t309 64t309 -64t195.5 -190.5t67.5 -310.5q0 -182 -70 -309.5t-198.5 -192.5t-303.5 -65t-304 64.5zM829.5 307q60.5 73 60.5 238q0 167 -60.5 239.5t-179.5 72.5t-180 -72t-61 -238q0 -167 60.5 -240
t180.5 -73q119 0 179.5 73zM323 1233l154 383h258l-172 -383h-240zM737 1233l155 383h258l-173 -383h-240z" />
    <glyph glyph-name="OE" unicode="&#x152;" horiz-adv-x="2271" 
d="M2191 262v-262h-844q-56 0 -172 -6q-114 -6 -163 -6q-315 0 -517.5 78t-302.5 244t-100 430q0 384 227.5 569t678.5 185q69 0 172 -7q17 -1 72.5 -4t100.5 -3h838v-262h-737v-330h635v-262h-635v-364h747zM1107 1213q-69 7 -180 7q-249 0 -368.5 -115t-119.5 -367
q0 -249 120.5 -363t370.5 -114q115 0 177 6v946z" />
    <glyph glyph-name="oe" unicode="&#x153;" horiz-adv-x="1993" 
d="M1929 454h-709q6 -86 40.5 -136t109 -72.5t203.5 -22.5q134 0 290 33v-240q-170 -37 -340 -37q-173 0 -293 40.5t-192 121.5q-67 -79 -169 -120.5t-235 -41.5q-168 0 -293.5 64.5t-194.5 192t-69 310.5q0 184 67 310.5t192 190.5t298 64q284 0 418 -173q66 84 164.5 129
t222.5 45q156 0 265.5 -66.5t167 -195.5t57.5 -314v-82zM1273 842q-50 -63 -54 -203h400q-4 141 -53 203.5t-146 62.5t-147 -63zM826.5 307q60.5 73 60.5 238q0 167 -60.5 239.5t-178.5 72.5t-178.5 -72.5t-60.5 -237.5q0 -167 60.5 -240t178.5 -73t178.5 73z" />
    <glyph glyph-name="Racute" unicode="&#x154;" horiz-adv-x="1453" 
d="M1057 0l-394 541h-17q-56 0 -166 6v-547h-336v1443q110 24 240.5 39.5t250.5 15.5q333 0 499.5 -116t166.5 -360q1 -158 -78 -265.5t-229 -162.5l439 -594h-376zM480 797q86 -10 177 -10q168 0 247 56t79 178q0 123 -76.5 178.5t-240.5 55.5q-91 0 -186 -17v-441z
M565 1595l193 303h353l-243 -303h-303z" />
    <glyph glyph-name="racute" unicode="&#x155;" horiz-adv-x="855" 
d="M129 1094h273l26 -135h16q48 74 127.5 112t176.5 38q42 0 94 -8v-297q-41 8 -114 8q-76 0 -149.5 -27t-115.5 -78v-707h-334v1094zM326 1233l240 383h363l-289 -383h-314z" />
    <glyph glyph-name="Rcommaaccent" unicode="&#x156;" horiz-adv-x="1453" 
d="M1057 0l-394 541h-17q-56 0 -166 6v-547h-336v1443q110 24 240.5 39.5t250.5 15.5q333 0 499.5 -116t166.5 -360q1 -158 -78 -265.5t-229 -162.5l439 -594h-376zM480 797q86 -10 177 -10q168 0 247 56t79 178q0 123 -76.5 178.5t-240.5 55.5q-91 0 -186 -17v-441z
M943 -278q0 -54 -22 -114.5t-58 -105.5h-204q45 85 56 146q-146 11 -146 111q0 54 46 83.5t140 29.5q188 0 188 -150z" />
    <glyph glyph-name="rcommaaccent" unicode="&#x157;" horiz-adv-x="855" 
d="M129 1094h273l26 -135h16q48 74 127.5 112t176.5 38q42 0 94 -8v-297q-41 8 -114 8q-76 0 -149.5 -27t-115.5 -78v-707h-334v1094zM483 -278q0 -54 -22 -114.5t-58 -105.5h-204q45 85 56 146q-146 11 -146 111q0 54 46 83.5t140 29.5q188 0 188 -150z" />
    <glyph glyph-name="Rcaron" unicode="&#x158;" horiz-adv-x="1453" 
d="M1057 0l-394 541h-17q-56 0 -166 6v-547h-336v1443q110 24 240.5 39.5t250.5 15.5q333 0 499.5 -116t166.5 -360q1 -158 -78 -265.5t-229 -162.5l439 -594h-376zM480 797q86 -10 177 -10q168 0 247 56t79 178q0 123 -76.5 178.5t-240.5 55.5q-91 0 -186 -17v-441z
M884 1898h265l-289 -303h-282l-289 303h265l165 -179z" />
    <glyph glyph-name="rcaron" unicode="&#x159;" horiz-adv-x="855" 
d="M129 1094h273l26 -135h16q48 74 127.5 112t176.5 38q42 0 94 -8v-297q-41 8 -114 8q-76 0 -149.5 -27t-115.5 -78v-707h-334v1094zM629 1616h245l-258 -383h-266l-258 383h245l146 -228z" />
    <glyph glyph-name="Sacute" unicode="&#x15a;" horiz-adv-x="1233" 
d="M101 46v272q96 -33 219 -51.5t227 -18.5q151 0 217 43.5t66 128.5q0 47 -20 78t-67.5 53.5t-133.5 42.5l-116 25q-221 48 -324 152.5t-103 276.5q0 217 164 334t485 117q105 0 201 -12t174 -33v-272q-75 23 -171.5 36.5t-191.5 13.5q-174 0 -249 -44t-75 -126
q0 -45 17.5 -74.5t59 -51t116.5 -39.5l117 -25q239 -52 346.5 -157t107.5 -276q0 -142 -74.5 -245t-214.5 -158t-333 -55q-239 0 -444 65zM475 1595l193 303h353l-243 -303h-303z" />
    <glyph glyph-name="sacute" unicode="&#x15b;" horiz-adv-x="1064" 
d="M280 -8.5q-99 12.5 -182 37.5v233q87 -25 185 -38t196 -13q114 0 163 27t49 80q0 40 -23 61.5t-81 31.5l-196 31q-169 27 -244 105t-75 211q0 165 138.5 259t414.5 94q85 0 169.5 -10t150.5 -28v-233q-68 19 -150.5 29.5t-164.5 10.5q-136 0 -190 -30t-54 -80
q0 -36 23 -57.5t80 -31.5l196 -31q163 -26 241.5 -99.5t78.5 -218.5q0 -110 -60.5 -189t-177.5 -121.5t-283 -42.5q-105 0 -204 12.5zM384 1233l240 383h363l-289 -383h-314z" />
    <glyph glyph-name="Scircumflex" unicode="&#x15c;" horiz-adv-x="1233" 
d="M101 46v272q96 -33 219 -51.5t227 -18.5q151 0 217 43.5t66 128.5q0 47 -20 78t-67.5 53.5t-133.5 42.5l-116 25q-221 48 -324 152.5t-103 276.5q0 217 164 334t485 117q105 0 201 -12t174 -33v-272q-75 23 -171.5 36.5t-191.5 13.5q-174 0 -249 -44t-75 -126
q0 -45 17.5 -74.5t59 -51t116.5 -39.5l117 -25q239 -52 346.5 -157t107.5 -276q0 -142 -74.5 -245t-214.5 -158t-333 -55q-239 0 -444 65zM1059 1595h-265l-165 179l-165 -179h-265l289 303h282z" />
    <glyph glyph-name="scircumflex" unicode="&#x15d;" horiz-adv-x="1064" 
d="M280 -8.5q-99 12.5 -182 37.5v233q87 -25 185 -38t196 -13q114 0 163 27t49 80q0 40 -23 61.5t-81 31.5l-196 31q-169 27 -244 105t-75 211q0 165 138.5 259t414.5 94q85 0 169.5 -10t150.5 -28v-233q-68 19 -150.5 29.5t-164.5 10.5q-136 0 -190 -30t-54 -80
q0 -36 23 -57.5t80 -31.5l196 -31q163 -26 241.5 -99.5t78.5 -218.5q0 -110 -60.5 -189t-177.5 -121.5t-283 -42.5q-105 0 -204 12.5zM930 1233h-244l-145 228l-145 -228h-244l256 383h266z" />
    <glyph glyph-name="Scedilla" unicode="&#x15e;" horiz-adv-x="1233" 
d="M1110.5 220.5q-56.5 -94.5 -164.5 -153.5t-258 -77v-75q94 -12 141.5 -56.5t47.5 -117.5q0 -87 -71 -135t-206 -48q-115 0 -212 34v123q95 -33 197 -33q61 0 91.5 16.5t30.5 52.5q0 72 -122 72h-53v158q-231 1 -431 65v272q96 -33 219 -51.5t227 -18.5q151 0 217 43.5
t66 128.5q0 47 -20 78t-67.5 53.5t-133.5 42.5l-116 25q-221 48 -324 152.5t-103 276.5q0 217 164 334t485 117q105 0 201 -12t174 -33v-272q-75 23 -171.5 36.5t-191.5 13.5q-174 0 -249 -44t-75 -126q0 -45 17.5 -74.5t59 -51t116.5 -39.5l117 -25q239 -52 346.5 -157
t107.5 -276q0 -124 -56.5 -218.5z" />
    <glyph glyph-name="scedilla" unicode="&#x15f;" horiz-adv-x="1064" 
d="M907.5 103q-97.5 -90 -279.5 -115v-74q84 -14 126.5 -59.5t42.5 -117.5q0 -85 -66.5 -132t-192.5 -47q-108 0 -191 33v124q39 -16 87 -24.5t90 -8.5q51 0 76.5 16.5t25.5 53.5t-25.5 54t-76.5 17h-51v156q-212 2 -375 50v233q87 -25 185 -38t196 -13q114 0 163 27t49 80
q0 40 -23 61.5t-81 31.5l-196 31q-169 27 -244 105t-75 211q0 165 138.5 259t414.5 94q85 0 169.5 -10t150.5 -28v-233q-68 19 -150.5 29.5t-164.5 10.5q-136 0 -190 -30t-54 -80q0 -36 23 -57.5t80 -31.5l196 -31q163 -26 241.5 -99.5t78.5 -218.5q0 -139 -97.5 -229z" />
    <glyph glyph-name="Scaron" unicode="&#x160;" horiz-adv-x="1233" 
d="M101 46v272q96 -33 219 -51.5t227 -18.5q151 0 217 43.5t66 128.5q0 47 -20 78t-67.5 53.5t-133.5 42.5l-116 25q-221 48 -324 152.5t-103 276.5q0 217 164 334t485 117q105 0 201 -12t174 -33v-272q-75 23 -171.5 36.5t-191.5 13.5q-174 0 -249 -44t-75 -126
q0 -45 17.5 -74.5t59 -51t116.5 -39.5l117 -25q239 -52 346.5 -157t107.5 -276q0 -142 -74.5 -245t-214.5 -158t-333 -55q-239 0 -444 65zM794 1898h265l-289 -303h-282l-289 303h265l165 -179z" />
    <glyph glyph-name="scaron" unicode="&#x161;" horiz-adv-x="1064" 
d="M280 -8.5q-99 12.5 -182 37.5v233q87 -25 185 -38t196 -13q114 0 163 27t49 80q0 40 -23 61.5t-81 31.5l-196 31q-169 27 -244 105t-75 211q0 165 138.5 259t414.5 94q85 0 169.5 -10t150.5 -28v-233q-68 19 -150.5 29.5t-164.5 10.5q-136 0 -190 -30t-54 -80
q0 -36 23 -57.5t80 -31.5l196 -31q163 -26 241.5 -99.5t78.5 -218.5q0 -110 -60.5 -189t-177.5 -121.5t-283 -42.5q-105 0 -204 12.5zM687 1616h245l-258 -383h-266l-258 383h245l146 -228z" />
    <glyph glyph-name="uni0162" unicode="&#x162;" horiz-adv-x="1368" 
d="M743 0v-85q94 -12 141.5 -56.5t47.5 -117.5q0 -87 -71 -135t-206 -48q-115 0 -212 34v123q95 -33 197 -33q61 0 91.5 16.5t30.5 52.5q0 72 -122 72h-53v177h-74v1206h-495v274h1333v-274h-496v-1206h-112z" />
    <glyph glyph-name="uni0163" unicode="&#x163;" horiz-adv-x="900" 
d="M624 -21v-65q84 -14 126.5 -59.5t42.5 -117.5q0 -85 -66.5 -132t-192.5 -47q-108 0 -191 33v124q39 -16 87 -24.5t90 -8.5q51 0 76.5 16.5t25.5 53.5t-25.5 54t-76.5 17h-51v178q-254 73 -254 390v440h-189v263h189l60 386h274v-386h303v-263h-303v-380
q0 -76 19.5 -120.5t60.5 -63.5t108 -19q46 0 121 14v-258q-48 -11 -105 -18t-109 -7h-20z" />
    <glyph glyph-name="Tcaron" unicode="&#x164;" horiz-adv-x="1368" 
d="M513 0v1206h-495v274h1333v-274h-496v-1206h-342zM849 1898h265l-289 -303h-282l-289 303h265l165 -179z" />
    <glyph glyph-name="tcaron" unicode="&#x165;" horiz-adv-x="900" 
d="M858 262v-258q-48 -11 -105 -18t-109 -7q-429 0 -429 412v440h-189v263h189l60 386h274v-386h303v-263h-303v-380q0 -76 19.5 -120.5t60.5 -63.5t108 -19q46 0 121 14zM675.5 1391.5q6.5 103.5 6.5 224.5h220q0 -117 -19 -231t-53 -205h-178q17 108 23.5 211.5z" />
    <glyph glyph-name="Tbar" unicode="&#x166;" horiz-adv-x="1368" 
d="M1351 1206h-496v-371h321v-210h-321v-625h-342v625h-322v210h322v371h-495v274h1333v-274z" />
    <glyph glyph-name="tbar" unicode="&#x167;" horiz-adv-x="900" 
d="M858 262v-258q-48 -11 -105 -18t-109 -7q-429 0 -429 412v100h-126v188h126v152h-189v263h189l60 386h274v-386h303v-263h-303v-152h246v-188h-246v-40q0 -76 19.5 -120.5t60.5 -63.5t108 -19q46 0 121 14z" />
    <glyph glyph-name="Utilde" unicode="&#x168;" horiz-adv-x="1596" 
d="M297.5 144q-159.5 163 -159.5 491v845h341v-876q0 -180 79 -264t243 -84q165 0 243.5 84t78.5 264v876h336v-845q0 -327 -159 -490.5t-499 -163.5q-344 0 -503.5 163zM888 1630q-43 10 -103 29q-55 18 -92.5 26.5t-77.5 8.5q-62 0 -109.5 -16t-97.5 -52v182
q42 37 93 54.5t121 17.5q49 0 92 -10t103 -29q57 -18 93.5 -27t76.5 -9q62 0 110 16t97 51v-182q-42 -36 -92.5 -53t-121.5 -17q-49 0 -92 10z" />
    <glyph glyph-name="utilde" unicode="&#x169;" horiz-adv-x="1301" 
d="M231 91.5q-111 109.5 -111 342.5v660h334v-641q0 -102 42 -145.5t123 -43.5q60 0 119.5 24.5t99.5 70.5v735h334v-1094h-274l-21 107h-14q-67 -61 -151.5 -93t-176.5 -32q-193 0 -304 109.5zM725 1296.5q-40 12.5 -95 36.5q-54 23 -86.5 33.5t-67.5 10.5
q-58 0 -104.5 -20t-95.5 -65v201q41 40 91.5 59t115.5 19q44 0 84 -12.5t95 -36.5q54 -23 86.5 -33.5t67.5 -10.5q58 0 104.5 20t95.5 65v-201q-41 -40 -91.5 -59t-115.5 -19q-44 0 -84 12.5z" />
    <glyph glyph-name="Umacron" unicode="&#x16a;" horiz-adv-x="1596" 
d="M297.5 144q-159.5 163 -159.5 491v845h341v-876q0 -180 79 -264t243 -84q165 0 243.5 84t78.5 264v876h336v-845q0 -327 -159 -490.5t-499 -163.5q-344 0 -503.5 163zM417 1651v192h768v-192h-768z" />
    <glyph glyph-name="umacron" unicode="&#x16b;" horiz-adv-x="1301" 
d="M231 91.5q-111 109.5 -111 342.5v660h334v-641q0 -102 42 -145.5t123 -43.5q60 0 119.5 24.5t99.5 70.5v735h334v-1094h-274l-21 107h-14q-67 -61 -151.5 -93t-176.5 -32q-193 0 -304 109.5zM276 1325v191h740v-191h-740z" />
    <glyph glyph-name="Ubreve" unicode="&#x16c;" horiz-adv-x="1596" 
d="M297.5 144q-159.5 163 -159.5 491v845h341v-876q0 -180 79 -264t243 -84q165 0 243.5 84t78.5 264v876h336v-845q0 -327 -159 -490.5t-499 -163.5q-344 0 -503.5 163zM511.5 1677.5q-102.5 78.5 -120.5 211.5h203q14 -64 63.5 -97t144.5 -33q94 0 143.5 33.5t62.5 96.5
h203q-18 -134 -119.5 -212t-289.5 -78t-290.5 78.5z" />
    <glyph glyph-name="ubreve" unicode="&#x16d;" horiz-adv-x="1301" 
d="M231 91.5q-111 109.5 -111 342.5v660h334v-641q0 -102 42 -145.5t123 -43.5q60 0 119.5 24.5t99.5 70.5v735h334v-1094h-274l-21 107h-14q-67 -61 -151.5 -93t-176.5 -32q-193 0 -304 109.5zM366.5 1333q-100.5 92 -109.5 261h201q8 -93 54 -140t135 -47q88 0 133.5 47
t53.5 140h201q-9 -169 -109 -261t-279 -92q-180 0 -280.5 92z" />
    <glyph glyph-name="Uring" unicode="&#x16e;" horiz-adv-x="1596" 
d="M297.5 144q-159.5 163 -159.5 491v845h341v-876q0 -180 79 -264t243 -84q165 0 243.5 84t78.5 264v876h336v-845q0 -327 -159 -490.5t-499 -163.5q-344 0 -503.5 163zM691 1610q-49 27 -77 74.5t-28 107.5t28 107.5t77 74.5t110 27t110 -27t77 -74.5t28 -107.5
t-28 -107.5t-77 -74.5t-110 -27t-110 27zM869 1720.5q26 26.5 26 71.5q0 44 -26 70.5t-68 26.5t-68 -26.5t-26 -70.5q0 -45 26 -71.5t68 -26.5t68 26.5z" />
    <glyph glyph-name="uring" unicode="&#x16f;" horiz-adv-x="1301" 
d="M231 91.5q-111 109.5 -111 342.5v660h334v-641q0 -102 42 -145.5t123 -43.5q60 0 119.5 24.5t99.5 70.5v735h334v-1094h-274l-21 107h-14q-67 -61 -151.5 -93t-176.5 -32q-193 0 -304 109.5zM536 1255q-49 27 -77 74.5t-28 107.5t28 107.5t77 74.5t110 27t110 -27
t77 -74.5t28 -107.5t-28 -107.5t-77 -74.5t-110 -27t-110 27zM714 1366.5q26 26.5 26 70.5t-26 70.5t-68 26.5t-68 -26.5t-26 -70.5t26 -70.5t68 -26.5t68 26.5z" />
    <glyph glyph-name="Uhungarumlaut" unicode="&#x170;" horiz-adv-x="1596" 
d="M297.5 144q-159.5 163 -159.5 491v845h341v-876q0 -180 79 -264t243 -84q165 0 243.5 84t78.5 264v876h336v-845q0 -327 -159 -490.5t-499 -163.5q-344 0 -503.5 163zM473 1595l148 303h258l-165 -303h-241zM888 1595l148 303h259l-166 -303h-241z" />
    <glyph glyph-name="uhungarumlaut" unicode="&#x171;" horiz-adv-x="1301" 
d="M231 91.5q-111 109.5 -111 342.5v660h334v-641q0 -102 42 -145.5t123 -43.5q60 0 119.5 24.5t99.5 70.5v735h334v-1094h-274l-21 107h-14q-67 -61 -151.5 -93t-176.5 -32q-193 0 -304 109.5zM319 1233l154 383h258l-172 -383h-240zM733 1233l155 383h258l-173 -383h-240z
" />
    <glyph glyph-name="Uogonek" unicode="&#x172;" horiz-adv-x="1596" 
d="M1459 1480v-845q0 -250 -92.5 -404.5t-287.5 -213.5q-162 -50 -225 -104t-63 -120q0 -104 146 -104q62 0 145 29v-126q-90 -33 -191 -33q-144 0 -217.5 55.5t-73.5 154.5q0 131 135 214q-309 15 -453 177.5t-144 474.5v845h341v-876q0 -180 79 -264t243 -84
q165 0 243.5 84t78.5 264v876h336z" />
    <glyph glyph-name="uogonek" unicode="&#x173;" horiz-adv-x="1301" 
d="M1216 -281v-127q-81 -34 -176 -34q-131 0 -200.5 55.5t-69.5 152.5q0 70 35.5 128.5t115.5 105.5h-23l-21 107h-14q-67 -61 -151.5 -93t-176.5 -32q-193 0 -304 109.5t-111 342.5v660h334v-641q0 -102 42 -145.5t123 -43.5q60 0 119.5 24.5t99.5 70.5v735h334v-1094
q-117 -48 -164.5 -98t-47.5 -113q0 -47 33 -74t94 -27q63 0 129 31z" />
    <glyph glyph-name="Wcircumflex" unicode="&#x174;" horiz-adv-x="2451" 
d="M2089 1480h325l-424 -1480h-435l-325 1133l-334 -1133h-435l-425 1480h346l320 -1174l343 1174h378l336 -1191zM1656 1595h-265l-165 179l-165 -179h-265l289 303h282z" />
    <glyph glyph-name="wcircumflex" unicode="&#x175;" horiz-adv-x="1935" 
d="M1572 1094h306l-309 -1094h-374l-224 792l-230 -792h-373l-311 1094h320l198 -755l213 755h373l208 -744zM1358 1233h-244l-145 228l-145 -228h-244l256 383h266z" />
    <glyph glyph-name="Ycircumflex" unicode="&#x176;" horiz-adv-x="1368" 
d="M1403 1480l-546 -852v-628h-341v625l-565 855h364l378 -579l371 579h339zM1113 1595h-265l-165 179l-165 -179h-265l289 303h282z" />
    <glyph glyph-name="ycircumflex" unicode="&#x177;" horiz-adv-x="1255" 
d="M928 1094h328l-596 -1534h-327l173 440h-84l-423 1094h351l287 -806zM1017 1233h-244l-145 228l-145 -228h-244l256 383h266z" />
    <glyph glyph-name="Ydieresis" unicode="&#x178;" horiz-adv-x="1368" 
d="M1403 1480l-546 -852v-628h-341v625l-565 855h364l378 -579l371 579h339zM283 1644q-44 38 -44 107t43.5 106.5t131.5 37.5q87 0 131 -37.5t44 -106.5t-44 -107t-131 -38t-131 38zM821 1644q-44 38 -44 107t44 106.5t131 37.5q88 0 131.5 -37.5t43.5 -106.5t-44 -107
t-131 -38t-131 38z" />
    <glyph glyph-name="Zacute" unicode="&#x179;" horiz-adv-x="1329" 
d="M512 273h745v-273h-1186v185l735 1022h-724v273h1165v-185zM511 1595l193 303h353l-243 -303h-303z" />
    <glyph glyph-name="zacute" unicode="&#x17a;" horiz-adv-x="1107" 
d="M509 263h538v-263h-970v214l527 617h-517v263h949v-214zM405 1233l240 383h363l-289 -383h-314z" />
    <glyph glyph-name="Zdotaccent" unicode="&#x17b;" horiz-adv-x="1329" 
d="M512 273h745v-273h-1186v185l735 1022h-724v273h1165v-185zM514 1644.5q-50 38.5 -50 106.5t50 106t151 38t151 -38t50 -106t-50 -106.5t-151 -38.5t-151 38.5z" />
    <glyph glyph-name="zdotaccent" unicode="&#x17c;" horiz-adv-x="1107" 
d="M509 263h538v-263h-970v214l527 617h-517v263h949v-214zM408 1295.5q-51 42.5 -51 123.5q0 82 51 124.5t154 42.5t154 -42.5t51 -124.5q0 -81 -51 -123.5t-154 -42.5t-154 42.5z" />
    <glyph glyph-name="Zcaron" unicode="&#x17d;" horiz-adv-x="1329" 
d="M512 273h745v-273h-1186v185l735 1022h-724v273h1165v-185zM830 1898h265l-289 -303h-282l-289 303h265l165 -179z" />
    <glyph glyph-name="zcaron" unicode="&#x17e;" horiz-adv-x="1107" 
d="M509 263h538v-263h-970v214l527 617h-517v263h949v-214zM708 1616h245l-258 -383h-266l-258 383h245l146 -228z" />
    <glyph glyph-name="uni018F" unicode="&#x18f;" horiz-adv-x="1660" 
d="M1337.5 1311q230.5 -188 230.5 -585q0 -239 -88 -406t-252.5 -253t-391.5 -86q-233 0 -402 85.5t-260.5 254t-91.5 413.5v108h1143q-31 209 -180.5 298.5t-424.5 89.5q-107 0 -221.5 -11.5t-213.5 -34.5v271q210 44 459 44q463 0 693.5 -188zM1110.5 321.5
q96.5 84.5 117.5 280.5h-794q21 -194 120 -279.5t285 -85.5q175 0 271.5 84.5z" />
    <glyph glyph-name="florin" unicode="&#x192;" horiz-adv-x="861" 
d="M612.5 1327.5q-56.5 -47.5 -56.5 -147.5v-86h303v-263h-303v-822q0 -146 -60.5 -251.5t-176 -161.5t-277.5 -56q-84 0 -172 12v258q69 -9 119 -9q121 0 177.5 47.5t56.5 147.5v835h-189v263h189v73q0 146 60.5 251.5t176 161.5t277.5 56q84 0 171 -12v-258q-68 9 -119 9
q-120 0 -176.5 -47.5z" />
    <glyph glyph-name="Ohorn" unicode="&#x1a0;" horiz-adv-x="1682" 
d="M1531.5 1087q58.5 -149 58.5 -347q0 -246 -91 -416.5t-259 -256.5t-399 -86t-399 86t-259 256.5t-91 416.5t91 416.5t259 256.5t399 86q52 0 108.5 -5t66.5 -6q110 -10 159 -10q104 0 154 36.5t50 120.5q0 59 -17 141h219q12 -40 16.5 -75t4.5 -76q0 -126 -63 -200.5
t-177 -94.5q111 -94 169.5 -243zM1138 370q103 118 103 363q0 254 -103.5 374.5t-296.5 120.5q-192 0 -296 -117.5t-104 -363.5q0 -257 102.5 -376t297.5 -119q194 0 297 118z" />
    <glyph glyph-name="ohorn" unicode="&#x1a1;" horiz-adv-x="1299" 
d="M1222 546q0 -182 -70 -309.5t-198.5 -192.5t-303.5 -65t-304 64.5t-199 192t-70 310.5q0 277 151.5 421t432.5 144q47 0 133 -7q58 -4 76 -4q96 0 144.5 36.5t48.5 119.5q0 58 -17 140h208q19 -72 19 -151q0 -113 -51.5 -184t-145.5 -99q146 -143 146 -416zM829.5 307
q60.5 73 60.5 238q0 167 -60.5 239.5t-179.5 72.5t-180 -72t-61 -238q0 -167 60.5 -240t180.5 -73q119 0 179.5 73z" />
    <glyph glyph-name="Uhorn" unicode="&#x1af;" horiz-adv-x="1598" 
d="M297.5 144q-159.5 163 -159.5 491v845h341v-876q0 -180 79 -264t243 -84q165 0 243.5 84t78.5 264v876h105q104 0 154 35.5t50 119.5q0 64 -16 141h219q11 -41 15.5 -76t4.5 -75q0 -111 -51.5 -182t-144.5 -97v-711q0 -327 -159 -490.5t-499 -163.5q-344 0 -503.5 163z
" />
    <glyph glyph-name="uhorn" unicode="&#x1b0;" horiz-adv-x="1335" 
d="M1321.5 1052q-52.5 -72 -149.5 -99v-953h-274l-21 107h-14q-67 -61 -151.5 -93t-176.5 -32q-193 0 -304 109.5t-111 342.5v660h334v-641q0 -102 42 -145.5t123 -43.5q60 0 119.5 24.5t99.5 70.5v735h133q96 0 144.5 36.5t48.5 119.5q0 56 -17 140h207q20 -71 20 -151
q0 -115 -52.5 -187z" />
    <glyph glyph-name="uni01C4" unicode="&#x1c4;" horiz-adv-x="2889" 
d="M144 12v1431q108 24 246 38t264 14q432 0 649.5 -186t217.5 -569q0 -265 -103.5 -431t-311 -244.5t-527.5 -78.5q-223 0 -435 26zM953 308.5q111 49.5 165 155.5t54 278q0 251 -122.5 366.5t-378.5 115.5q-82 0 -185 -16v-942q66 -7 182 -7q174 0 285 49.5zM2072 273h745
v-273h-1186v185l735 1022h-724v273h1165v-185zM2390 1898h265l-289 -303h-282l-289 303h265l165 -179z" />
    <glyph glyph-name="uni01C5" unicode="&#x1c5;" horiz-adv-x="2720" 
d="M144 12v1431q108 24 246 38t264 14q432 0 649.5 -186t217.5 -569q0 -265 -103.5 -431t-311 -244.5t-527.5 -78.5q-223 0 -435 26zM953 308.5q111 49.5 165 155.5t54 278q0 251 -122.5 366.5t-378.5 115.5q-82 0 -185 -16v-942q66 -7 182 -7q174 0 285 49.5zM2122 263h538
v-263h-970v214l527 617h-517v263h949v-214zM2340 1578h265l-289 -303h-282l-289 303h265l165 -179z" />
    <glyph glyph-name="uni01C6" unicode="&#x1c6;" horiz-adv-x="2430" 
d="M314 38q-109 57 -173 178.5t-64 307.5q0 189 72.5 321t211 200t334.5 68q69 0 165 -10v513h334v-1616h-280l-18 112h-16q-57 -61 -138.5 -96t-180.5 -35q-138 0 -247 57zM766.5 270q54.5 20 93.5 61v516q-72 14 -150 14q-153 0 -227 -75.5t-74 -237.5q0 -160 63.5 -229
t180.5 -69q59 0 113.5 20zM1832 263h538v-263h-970v214l527 617h-517v263h949v-214zM2031 1616h245l-258 -383h-266l-258 383h245l146 -228z" />
    <glyph glyph-name="uni01C7" unicode="&#x1c7;" horiz-adv-x="1857" 
d="M144 0v1480h342v-1206h729v-274h-1071zM1214 -208q87 112 123.5 227.5t36.5 278.5v1182h339v-1181q-3 -189 -68 -343t-217 -308z" />
    <glyph glyph-name="uni01C8" unicode="&#x1c8;" horiz-adv-x="1819" 
d="M144 0v1480h342v-1206h729v-274h-1071zM1196 -330q88 112 124 227.5t36 278.5v918h334v-905q0 -194 -65 -349.5t-217 -310.5zM1363 1297.5q-51 42.5 -51 123.5q0 82 51 124.5t154 42.5t154 -42.5t51 -124.5q0 -81 -51 -123.5t-154 -42.5t-154 42.5z" />
    <glyph glyph-name="uni01C9" unicode="&#x1c9;" horiz-adv-x="1184" 
d="M129 0v1616h334v-1616h-334zM561 -330q88 112 124 227.5t36 278.5v918h334v-905q0 -194 -65 -349.5t-217 -310.5zM728 1297.5q-51 42.5 -51 123.5q0 82 51 124.5t154 42.5t154 -42.5t51 -124.5q0 -81 -51 -123.5t-154 -42.5t-154 42.5z" />
    <glyph glyph-name="uni01CA" unicode="&#x1ca;" horiz-adv-x="2276" 
d="M1180 1480h322v-1480h-344l-692 996v-996h-322v1480h344l692 -996v996zM1633 -208q87 112 123.5 227.5t36.5 278.5v1182h339v-1181q-3 -189 -68 -343t-217 -308z" />
    <glyph glyph-name="uni01CB" unicode="&#x1cb;" horiz-adv-x="2238" 
d="M1180 1480h322v-1480h-344l-692 996v-996h-322v1480h344l692 -996v996zM1615 -330q88 112 124 227.5t36 278.5v918h334v-905q0 -194 -65 -349.5t-217 -310.5zM1782 1297.5q-51 42.5 -51 123.5q0 82 51 124.5t154 42.5t154 -42.5t51 -124.5q0 -81 -51 -123.5t-154 -42.5
t-154 42.5z" />
    <glyph glyph-name="uni01CC" unicode="&#x1cc;" horiz-adv-x="1903" 
d="M129 1094h274l22 -108h15q65 60 154 92.5t190 32.5q189 0 298.5 -110t109.5 -343v-658h-334v639q0 103 -43 146.5t-128 43.5q-63 0 -123.5 -24t-100.5 -71v-734h-334v1094zM1280 -330q88 112 124 227.5t36 278.5v918h334v-905q0 -194 -65 -349.5t-217 -310.5z
M1447 1297.5q-51 42.5 -51 123.5q0 82 51 124.5t154 42.5t154 -42.5t51 -124.5q0 -81 -51 -123.5t-154 -42.5t-154 42.5z" />
    <glyph glyph-name="Gcaron" unicode="&#x1e6;" horiz-adv-x="1524" 
d="M1383 720v-702q-208 -35 -394 -35q-451 0 -674 187t-223 565q-1 375 227.5 569.5t667.5 194.5q180 0 349 -37v-277q-156 36 -323 36q-196 -1 -320.5 -52t-185 -159t-60.5 -280q0 -238 127.5 -354.5t392.5 -116.5q49 0 97 3v458h319zM1016 1898h265l-289 -303h-282
l-289 303h265l165 -179z" />
    <glyph glyph-name="gcaron" unicode="&#x1e7;" horiz-adv-x="1323" 
d="M153 -411v257q101 -27 199 -40.5t180 -13.5q118 0 190 26.5t105 82.5t33 147v69h-16q-56 -58 -134.5 -89t-175.5 -31q-127 0 -230.5 58.5t-165 177.5t-61.5 291q0 284 167 435.5t492 151.5q117 0 240 -16.5t218 -45.5v-939q0 -199 -69 -325t-209 -185.5t-359 -59.5
q-216 0 -404 49zM765 282.5q54 18.5 95 54.5v506q-74 18 -153 18q-148 0 -223 -76t-75 -234q0 -155 64 -221t181 -66q57 0 111 18.5zM835 1616h245l-258 -383h-266l-258 383h245l146 -228z" />
    <glyph glyph-name="uni01EA" unicode="&#x1ea;" horiz-adv-x="1682" 
d="M876 -86.5q-62 -55.5 -62 -121.5q0 -50 36 -77t110 -27q63 0 145 30v-127q-94 -33 -191 -33q-144 0 -217.5 55t-73.5 153q0 136 136 218q-207 15 -356.5 105t-230 254.5t-80.5 396.5q0 246 91 416.5t259 256.5t399 86t399 -86t259 -256.5t91 -416.5q0 -208 -65.5 -359
t-178 -241.5t-257.5 -128.5q-151 -42 -213 -97.5zM543.5 371q102.5 -119 297.5 -119q194 0 297 118t103 363q0 254 -103.5 374.5t-296.5 120.5q-192 0 -296 -117.5t-104 -363.5q0 -257 102.5 -376z" />
    <glyph glyph-name="uni01EB" unicode="&#x1eb;" horiz-adv-x="1299" 
d="M679.5 -89q-54.5 -54 -54.5 -117q0 -51 33 -78.5t94 -27.5q60 0 124 27l6 -124q-41 -16 -83 -24.5t-94 -8.5q-131 0 -200.5 55.5t-69.5 152.5q0 67 30.5 120.5t96.5 96.5q-150 16 -259 84.5t-167.5 189.5t-58.5 289q0 184 68 310.5t196 190.5t309 64t309 -64
t195.5 -190.5t67.5 -310.5q0 -209 -90.5 -344t-254.5 -190q-143 -47 -197.5 -101zM469.5 307q60.5 -73 180.5 -73q119 0 179.5 73t60.5 238q0 167 -60.5 239.5t-179.5 72.5t-180 -72t-61 -238q0 -167 60.5 -240z" />
    <glyph glyph-name="uni01F1" unicode="&#x1f1;" horiz-adv-x="2889" 
d="M144 12v1431q108 24 246 38t264 14q432 0 649.5 -186t217.5 -569q0 -265 -103.5 -431t-311 -244.5t-527.5 -78.5q-223 0 -435 26zM953 308.5q111 49.5 165 155.5t54 278q0 251 -122.5 366.5t-378.5 115.5q-82 0 -185 -16v-942q66 -7 182 -7q174 0 285 49.5zM2072 273h745
v-273h-1186v185l735 1022h-724v273h1165v-185z" />
    <glyph glyph-name="uni01F2" unicode="&#x1f2;" horiz-adv-x="2720" 
d="M144 12v1431q108 24 246 38t264 14q432 0 649.5 -186t217.5 -569q0 -265 -103.5 -431t-311 -244.5t-527.5 -78.5q-223 0 -435 26zM953 308.5q111 49.5 165 155.5t54 278q0 251 -122.5 366.5t-378.5 115.5q-82 0 -185 -16v-942q66 -7 182 -7q174 0 285 49.5zM2122 263h538
v-263h-970v214l527 617h-517v263h949v-214z" />
    <glyph glyph-name="uni01F3" unicode="&#x1f3;" horiz-adv-x="2430" 
d="M314 38q-109 57 -173 178.5t-64 307.5q0 189 72.5 321t211 200t334.5 68q69 0 165 -10v513h334v-1616h-280l-18 112h-16q-57 -61 -138.5 -96t-180.5 -35q-138 0 -247 57zM766.5 270q54.5 20 93.5 61v516q-72 14 -150 14q-153 0 -227 -75.5t-74 -237.5q0 -160 63.5 -229
t180.5 -69q59 0 113.5 20zM1832 263h538v-263h-970v214l527 617h-517v263h949v-214z" />
    <glyph glyph-name="uni01F4" unicode="&#x1f4;" horiz-adv-x="1524" 
d="M1383 720v-702q-208 -35 -394 -35q-451 0 -674 187t-223 565q-1 375 227.5 569.5t667.5 194.5q180 0 349 -37v-277q-156 36 -323 36q-196 -1 -320.5 -52t-185 -159t-60.5 -280q0 -238 127.5 -354.5t392.5 -116.5q49 0 97 3v458h319zM697 1595l193 303h353l-243 -303h-303
z" />
    <glyph glyph-name="uni01F5" unicode="&#x1f5;" horiz-adv-x="1323" 
d="M153 -411v257q101 -27 199 -40.5t180 -13.5q118 0 190 26.5t105 82.5t33 147v69h-16q-56 -58 -134.5 -89t-175.5 -31q-127 0 -230.5 58.5t-165 177.5t-61.5 291q0 284 167 435.5t492 151.5q117 0 240 -16.5t218 -45.5v-939q0 -199 -69 -325t-209 -185.5t-359 -59.5
q-216 0 -404 49zM765 282.5q54 18.5 95 54.5v506q-74 18 -153 18q-148 0 -223 -76t-75 -234q0 -155 64 -221t181 -66q57 0 111 18.5zM532 1233l240 383h363l-289 -383h-314z" />
    <glyph glyph-name="Aringacute" unicode="&#x1fa;" horiz-adv-x="1567" 
d="M1211 0l-132 394h-594l-132 -394h-333l517 1480h493l517 -1480h-336zM572 655h420l-210 627zM970 1845q28 -48 28 -108t-28 -107.5t-77 -74.5t-110 -27t-110 27t-77 74.5t-28 107.5t28 107.5t77 74.5t110 27q24 0 51 -5l105 125h230zM851 1666.5q26 26.5 26 70.5
t-26 70.5t-68 26.5t-68 -26.5t-26 -70.5t26 -70.5t68 -26.5t68 26.5z" />
    <glyph glyph-name="aringacute" unicode="&#x1fb;" horiz-adv-x="1198" 
d="M849 1066q117 -45 173 -148.5t56 -282.5v-635h-276l-23 105h-15q-54 -63 -134 -94t-177 -31q-121 0 -207 40t-130.5 112t-44.5 166q0 156 116.5 241.5t365.5 101.5l199 15v4q0 78 -26.5 123t-85 64t-158.5 19q-71 0 -157 -12t-160 -35v243q84 24 184 36.5t190 12.5
q193 0 310 -45zM661.5 220q50.5 17 90.5 54v200l-168 -13q-97 -8 -139.5 -41t-42.5 -93q0 -59 39.5 -91.5t116.5 -32.5q53 0 103.5 17zM780 1547q30 -49 30 -110q0 -60 -28 -107.5t-77 -74.5t-110 -27t-110 27t-77 74.5t-28 107.5t28 107.5t77 74.5t110 27q23 0 48 -5
l109 139h230zM663 1366.5q26 26.5 26 70.5t-26 70.5t-68 26.5t-68 -26.5t-26 -70.5t26 -70.5t68 -26.5t68 26.5z" />
    <glyph glyph-name="AEacute" unicode="&#x1fc;" horiz-adv-x="2135" 
d="M1352 262h703v-262h-1022l-31 394h-515l-134 -394h-333l520 1480h1505v-262h-775l28 -330h645v-262h-622zM575 656h406l-44 562h-171zM936 1595l193 303h353l-243 -303h-303z" />
    <glyph glyph-name="aeacute" unicode="&#x1fd;" horiz-adv-x="1852" 
d="M1788 454h-709q6 -86 40.5 -136t109 -72.5t203.5 -22.5q135 0 291 33v-240q-171 -37 -340 -37q-177 0 -301.5 39.5t-201.5 121.5q-163 -160 -399 -160q-134 0 -226 40t-138 111.5t-46 167.5q0 160 120.5 250t371.5 90h190v21q0 78 -27.5 123t-86 64t-158.5 19
q-70 0 -155.5 -12t-160.5 -35v243q85 25 179 37t182 12q151 0 253 -32.5t162 -103.5q65 67 155.5 102t202.5 35q156 0 265.5 -66.5t166.5 -195.5t57 -314v-82zM1132 842.5q-50 -62.5 -54 -203.5h401q-4 141 -53 203.5t-146 62.5q-98 0 -148 -62.5zM681 225q55 22 107 75
q-23 69 -31 158h-164q-191 0 -191 -133q0 -59 40 -90.5t119 -31.5q65 0 120 22zM766 1233l240 383h363l-289 -383h-314z" />
    <glyph glyph-name="Oslashacute" unicode="&#x1fe;" horiz-adv-x="1682" 
d="M1544 1049q46 -136 46 -309q0 -245 -91 -415.5t-259.5 -257t-398.5 -86.5q-258 0 -436 107l-115 -136l-132 113l112 133q-87 97 -132.5 233t-45.5 309q0 246 91 416.5t259 256.5t399 86q258 0 436 -107l115 136l132 -113l-113 -133q87 -97 133 -233zM490 459l591 701
q-93 68 -240 68q-192 0 -296 -117.5t-104 -363.5q0 -175 49 -288zM1138 370q103 118 103 363q0 175 -50 287l-592 -701q93 -67 242 -67q194 0 297 118zM683 1595l193 303h353l-243 -303h-303z" />
    <glyph glyph-name="oslashacute" unicode="&#x1ff;" horiz-adv-x="1299" 
d="M1183.5 791.5q38.5 -106.5 38.5 -245.5q0 -182 -70 -309.5t-198.5 -192.5t-303.5 -65q-162 0 -286 56l-75 -99l-127 100l68 89q-75 72 -114 178t-39 243q0 184 68 310.5t196 190.5t309 64q164 0 285 -53l76 100l127 -100l-68 -89q75 -71 113.5 -177.5zM466 787.5
q-62 -72.5 -62 -240.5q0 -107 26 -177l347 463q-50 27 -127 27q-122 0 -184 -72.5zM833.5 303.5q61.5 73.5 61.5 241.5q0 109 -26 178l-349 -465q53 -28 130 -28q122 0 183.5 73.5zM488 1233l240 383h363l-289 -383h-314z" />
    <glyph glyph-name="uni0200" unicode="&#x200;" horiz-adv-x="1567" 
d="M1211 0l-132 394h-594l-132 -394h-333l517 1480h493l517 -1480h-336zM572 655h420l-210 627zM455 1595l-166 303h259l148 -303h-241zM870 1595l-165 303h258l148 -303h-241z" />
    <glyph glyph-name="uni0201" unicode="&#x201;" horiz-adv-x="1198" 
d="M849 1066q117 -45 173 -148.5t56 -282.5v-635h-276l-23 105h-15q-54 -63 -134 -94t-177 -31q-121 0 -207 40t-130.5 112t-44.5 166q0 156 116.5 241.5t365.5 101.5l199 15v4q0 78 -26.5 123t-85 64t-158.5 19q-71 0 -157 -12t-160 -35v243q84 24 184 36.5t190 12.5
q193 0 310 -45zM661.5 220q50.5 17 90.5 54v200l-168 -13q-97 -8 -139.5 -41t-42.5 -93q0 -59 39.5 -91.5t116.5 -32.5q53 0 103.5 17zM267 1233l-173 383h260l154 -383h-241zM682 1233l-172 383h259l154 -383h-241z" />
    <glyph glyph-name="uni0202" unicode="&#x202;" horiz-adv-x="1567" 
d="M1211 0l-132 394h-594l-132 -394h-333l517 1480h493l517 -1480h-336zM572 655h420l-210 627zM493 1815.5q102 78.5 289 78.5q188 0 290.5 -78.5t120.5 -211.5h-203q-14 64 -63.5 97t-144.5 33q-94 0 -143.5 -33.5t-62.5 -96.5h-203q18 133 120 211.5z" />
    <glyph glyph-name="uni0203" unicode="&#x203;" horiz-adv-x="1198" 
d="M849 1066q117 -45 173 -148.5t56 -282.5v-635h-276l-23 105h-15q-54 -63 -134 -94t-177 -31q-121 0 -207 40t-130.5 112t-44.5 166q0 156 116.5 241.5t365.5 101.5l199 15v4q0 78 -26.5 123t-85 64t-158.5 19q-71 0 -157 -12t-160 -35v243q84 24 184 36.5t190 12.5
q193 0 310 -45zM661.5 220q50.5 17 90.5 54v200l-168 -13q-97 -8 -139.5 -41t-42.5 -93q0 -59 39.5 -91.5t116.5 -32.5q53 0 103.5 17zM314.5 1522q99.5 92 279.5 92t280.5 -92.5t109.5 -260.5h-201q-8 93 -54 140t-135 47t-134 -47t-53 -140h-201q9 169 108.5 261z" />
    <glyph glyph-name="uni0204" unicode="&#x204;" horiz-adv-x="1345" 
d="M482 262h783v-262h-1121v1480h1111v-262h-773v-330h670v-262h-670v-364zM393 1595l-166 303h259l148 -303h-241zM808 1595l-165 303h258l148 -303h-241z" />
    <glyph glyph-name="uni0205" unicode="&#x205;" horiz-adv-x="1188" 
d="M1124 454h-716q6 -87 41 -136.5t110.5 -72t207.5 -22.5q135 0 292 33v-240q-171 -37 -342 -37q-220 0 -361.5 60t-210 184.5t-68.5 321.5q0 180 63 307t184 193t293 66q248 0 377.5 -148.5t129.5 -427.5v-81zM461.5 842.5q-50.5 -62.5 -54.5 -203.5h408
q-4 141 -53.5 203.5t-148.5 62.5q-101 0 -151.5 -62.5zM284 1233l-173 383h260l154 -383h-241zM699 1233l-172 383h259l154 -383h-241z" />
    <glyph glyph-name="uni0206" unicode="&#x206;" horiz-adv-x="1345" 
d="M482 262h783v-262h-1121v1480h1111v-262h-773v-330h670v-262h-670v-364zM431 1815.5q102 78.5 289 78.5q188 0 290.5 -78.5t120.5 -211.5h-203q-14 64 -63.5 97t-144.5 33q-94 0 -143.5 -33.5t-62.5 -96.5h-203q18 133 120 211.5z" />
    <glyph glyph-name="uni0207" unicode="&#x207;" horiz-adv-x="1188" 
d="M1124 454h-716q6 -87 41 -136.5t110.5 -72t207.5 -22.5q135 0 292 33v-240q-171 -37 -342 -37q-220 0 -361.5 60t-210 184.5t-68.5 321.5q0 180 63 307t184 193t293 66q248 0 377.5 -148.5t129.5 -427.5v-81zM461.5 842.5q-50.5 -62.5 -54.5 -203.5h408
q-4 141 -53.5 203.5t-148.5 62.5q-101 0 -151.5 -62.5zM331.5 1522q99.5 92 279.5 92t280.5 -92.5t109.5 -260.5h-201q-8 93 -54 140t-135 47t-134 -47t-53 -140h-201q9 169 108.5 261z" />
    <glyph glyph-name="uni0208" unicode="&#x208;" horiz-adv-x="630" 
d="M144 0v1480h342v-1480h-342zM-13 1595l-166 303h259l148 -303h-241zM402 1595l-165 303h258l148 -303h-241z" />
    <glyph glyph-name="uni0209" unicode="&#x209;" horiz-adv-x="592" 
d="M129 0v1094h334v-1094h-334zM-32 1233l-173 383h260l154 -383h-241zM383 1233l-172 383h259l154 -383h-241z" />
    <glyph glyph-name="uni020A" unicode="&#x20a;" horiz-adv-x="630" 
d="M144 0v1480h342v-1480h-342zM25 1815.5q102 78.5 289 78.5q188 0 290.5 -78.5t120.5 -211.5h-203q-14 64 -63.5 97t-144.5 33q-94 0 -143.5 -33.5t-62.5 -96.5h-203q18 133 120 211.5z" />
    <glyph glyph-name="uni020B" unicode="&#x20b;" horiz-adv-x="592" 
d="M129 0v1094h334v-1094h-334zM15.5 1522q99.5 92 279.5 92t280.5 -92.5t109.5 -260.5h-201q-8 93 -54 140t-135 47t-134 -47t-53 -140h-201q9 169 108.5 261z" />
    <glyph glyph-name="uni020C" unicode="&#x20c;" horiz-adv-x="1682" 
d="M442 67q-168 86 -259 256.5t-91 416.5t91 416.5t259 256.5t399 86t399 -86.5t259 -257t91 -415.5t-91 -415.5t-259.5 -257t-398.5 -86.5q-231 0 -399 86zM1138 370q103 118 103 363q0 254 -103.5 374.5t-296.5 120.5q-192 0 -296 -117.5t-104 -363.5q0 -257 102.5 -376
t297.5 -119q194 0 297 118zM513 1595l-166 303h259l148 -303h-241zM928 1595l-165 303h258l148 -303h-241z" />
    <glyph glyph-name="uni020D" unicode="&#x20d;" horiz-adv-x="1299" 
d="M346 43.5q-129 64.5 -199 192t-70 310.5q0 184 68 310.5t196 190.5t309 64t309 -64t195.5 -190.5t67.5 -310.5q0 -182 -70 -309.5t-198.5 -192.5t-303.5 -65t-304 64.5zM829.5 307q60.5 73 60.5 238q0 167 -60.5 239.5t-179.5 72.5t-180 -72t-61 -238q0 -167 60.5 -240
t180.5 -73q119 0 179.5 73zM322 1233l-173 383h260l154 -383h-241zM737 1233l-172 383h259l154 -383h-241z" />
    <glyph glyph-name="uni020E" unicode="&#x20e;" horiz-adv-x="1682" 
d="M442 67q-168 86 -259 256.5t-91 416.5t91 416.5t259 256.5t399 86t399 -86.5t259 -257t91 -415.5t-91 -415.5t-259.5 -257t-398.5 -86.5q-231 0 -399 86zM1138 370q103 118 103 363q0 254 -103.5 374.5t-296.5 120.5q-192 0 -296 -117.5t-104 -363.5q0 -257 102.5 -376
t297.5 -119q194 0 297 118zM551 1815.5q102 78.5 289 78.5q188 0 290.5 -78.5t120.5 -211.5h-203q-14 64 -63.5 97t-144.5 33q-94 0 -143.5 -33.5t-62.5 -96.5h-203q18 133 120 211.5z" />
    <glyph glyph-name="uni020F" unicode="&#x20f;" horiz-adv-x="1299" 
d="M346 43.5q-129 64.5 -199 192t-70 310.5q0 184 68 310.5t196 190.5t309 64t309 -64t195.5 -190.5t67.5 -310.5q0 -182 -70 -309.5t-198.5 -192.5t-303.5 -65t-304 64.5zM829.5 307q60.5 73 60.5 238q0 167 -60.5 239.5t-179.5 72.5t-180 -72t-61 -238q0 -167 60.5 -240
t180.5 -73q119 0 179.5 73zM369.5 1522q99.5 92 279.5 92t280.5 -92.5t109.5 -260.5h-201q-8 93 -54 140t-135 47t-134 -47t-53 -140h-201q9 169 108.5 261z" />
    <glyph glyph-name="uni0210" unicode="&#x210;" horiz-adv-x="1453" 
d="M1057 0l-394 541h-17q-56 0 -166 6v-547h-336v1443q110 24 240.5 39.5t250.5 15.5q333 0 499.5 -116t166.5 -360q1 -158 -78 -265.5t-229 -162.5l439 -594h-376zM480 797q86 -10 177 -10q168 0 247 56t79 178q0 123 -76.5 178.5t-240.5 55.5q-91 0 -186 -17v-441z
M391 1595l-166 303h259l148 -303h-241zM806 1595l-165 303h258l148 -303h-241z" />
    <glyph glyph-name="uni0211" unicode="&#x211;" horiz-adv-x="855" 
d="M129 1094h273l26 -135h16q48 74 127.5 112t176.5 38q42 0 94 -8v-297q-41 8 -114 8q-76 0 -149.5 -27t-115.5 -78v-707h-334v1094zM155 1233l-173 383h260l154 -383h-241zM570 1233l-172 383h259l154 -383h-241z" />
    <glyph glyph-name="uni0212" unicode="&#x212;" horiz-adv-x="1453" 
d="M1057 0l-394 541h-17q-56 0 -166 6v-547h-336v1443q110 24 240.5 39.5t250.5 15.5q333 0 499.5 -116t166.5 -360q1 -158 -78 -265.5t-229 -162.5l439 -594h-376zM480 797q86 -10 177 -10q168 0 247 56t79 178q0 123 -76.5 178.5t-240.5 55.5q-91 0 -186 -17v-441z
M429 1815.5q102 78.5 289 78.5q188 0 290.5 -78.5t120.5 -211.5h-203q-14 64 -63.5 97t-144.5 33q-94 0 -143.5 -33.5t-62.5 -96.5h-203q18 133 120 211.5z" />
    <glyph glyph-name="uni0213" unicode="&#x213;" horiz-adv-x="855" 
d="M129 1094h273l26 -135h16q48 74 127.5 112t176.5 38q42 0 94 -8v-297q-41 8 -114 8q-76 0 -149.5 -27t-115.5 -78v-707h-334v1094zM202.5 1522q99.5 92 279.5 92t280.5 -92.5t109.5 -260.5h-201q-8 93 -54 140t-135 47t-134 -47t-53 -140h-201q9 169 108.5 261z" />
    <glyph glyph-name="uni0214" unicode="&#x214;" horiz-adv-x="1596" 
d="M297.5 144q-159.5 163 -159.5 491v845h341v-876q0 -180 79 -264t243 -84q165 0 243.5 84t78.5 264v876h336v-845q0 -327 -159 -490.5t-499 -163.5q-344 0 -503.5 163zM473 1595l-166 303h259l148 -303h-241zM888 1595l-165 303h258l148 -303h-241z" />
    <glyph glyph-name="uni0215" unicode="&#x215;" horiz-adv-x="1301" 
d="M231 91.5q-111 109.5 -111 342.5v660h334v-641q0 -102 42 -145.5t123 -43.5q60 0 119.5 24.5t99.5 70.5v735h334v-1094h-274l-21 107h-14q-67 -61 -151.5 -93t-176.5 -32q-193 0 -304 109.5zM318 1233l-173 383h260l154 -383h-241zM733 1233l-172 383h259l154 -383h-241z
" />
    <glyph glyph-name="uni0216" unicode="&#x216;" horiz-adv-x="1596" 
d="M297.5 144q-159.5 163 -159.5 491v845h341v-876q0 -180 79 -264t243 -84q165 0 243.5 84t78.5 264v876h336v-845q0 -327 -159 -490.5t-499 -163.5q-344 0 -503.5 163zM511 1815.5q102 78.5 289 78.5q188 0 290.5 -78.5t120.5 -211.5h-203q-14 64 -63.5 97t-144.5 33
q-94 0 -143.5 -33.5t-62.5 -96.5h-203q18 133 120 211.5z" />
    <glyph glyph-name="uni0217" unicode="&#x217;" horiz-adv-x="1301" 
d="M231 91.5q-111 109.5 -111 342.5v660h334v-641q0 -102 42 -145.5t123 -43.5q60 0 119.5 24.5t99.5 70.5v735h334v-1094h-274l-21 107h-14q-67 -61 -151.5 -93t-176.5 -32q-193 0 -304 109.5zM365.5 1522q99.5 92 279.5 92t280.5 -92.5t109.5 -260.5h-201q-8 93 -54 140
t-135 47t-134 -47t-53 -140h-201q9 169 108.5 261z" />
    <glyph glyph-name="Scommaaccent" unicode="&#x218;" horiz-adv-x="1233" 
d="M101 46v272q96 -33 219 -51.5t227 -18.5q151 0 217 43.5t66 128.5q0 47 -20 78t-67.5 53.5t-133.5 42.5l-116 25q-221 48 -324 152.5t-103 276.5q0 217 164 334t485 117q105 0 201 -12t174 -33v-272q-75 23 -171.5 36.5t-191.5 13.5q-174 0 -249 -44t-75 -126
q0 -45 17.5 -74.5t59 -51t116.5 -39.5l117 -25q239 -52 346.5 -157t107.5 -276q0 -142 -74.5 -245t-214.5 -158t-333 -55q-239 0 -444 65zM816 -278q0 -54 -22 -114.5t-58 -105.5h-204q45 85 56 146q-146 11 -146 111q0 54 46 83.5t140 29.5q188 0 188 -150z" />
    <glyph glyph-name="scommaaccent" unicode="&#x219;" horiz-adv-x="1064" 
d="M280 -8.5q-99 12.5 -182 37.5v233q87 -25 185 -38t196 -13q114 0 163 27t49 80q0 40 -23 61.5t-81 31.5l-196 31q-169 27 -244 105t-75 211q0 165 138.5 259t414.5 94q85 0 169.5 -10t150.5 -28v-233q-68 19 -150.5 29.5t-164.5 10.5q-136 0 -190 -30t-54 -80
q0 -36 23 -57.5t80 -31.5l196 -31q163 -26 241.5 -99.5t78.5 -218.5q0 -110 -60.5 -189t-177.5 -121.5t-283 -42.5q-105 0 -204 12.5zM728 -278q0 -54 -22 -114.5t-58 -105.5h-204q45 85 56 146q-146 11 -146 111q0 54 46 83.5t140 29.5q188 0 188 -150z" />
    <glyph glyph-name="uni021A" unicode="&#x21a;" horiz-adv-x="1368" 
d="M513 0v1206h-495v274h1333v-274h-496v-1206h-342zM871 -278q0 -54 -22 -114.5t-58 -105.5h-204q45 85 56 146q-146 11 -146 111q0 54 46 83.5t140 29.5q188 0 188 -150z" />
    <glyph glyph-name="uni021B" unicode="&#x21b;" horiz-adv-x="900" 
d="M858 262v-258q-48 -11 -105 -18t-109 -7q-429 0 -429 412v440h-189v263h189l60 386h274v-386h303v-263h-303v-380q0 -76 19.5 -120.5t60.5 -63.5t108 -19q46 0 121 14zM724 -278q0 -54 -22 -114.5t-58 -105.5h-204q45 85 56 146q-146 11 -146 111q0 54 46 83.5t140 29.5
q188 0 188 -150z" />
    <glyph glyph-name="uni022A" unicode="&#x22a;" horiz-adv-x="1682" 
d="M442 67q-168 86 -259 256.5t-91 416.5t91 416.5t259 256.5t399 86t399 -86.5t259 -257t91 -415.5t-91 -415.5t-259.5 -257t-398.5 -86.5q-231 0 -399 86zM1138 370q103 118 103 363q0 254 -103.5 374.5t-296.5 120.5q-192 0 -296 -117.5t-104 -363.5q0 -257 102.5 -376
t297.5 -119q194 0 297 118zM441 1644q-44 38 -44 107t43.5 106.5t131.5 37.5q87 0 131 -37.5t44 -106.5t-44 -107t-131 -38t-131 38zM979 1644q-44 38 -44 107t44 106.5t131 37.5q88 0 131.5 -37.5t43.5 -106.5t-44 -107t-131 -38t-131 38zM457 1999v192h768v-192h-768z" />
    <glyph glyph-name="uni022B" unicode="&#x22b;" horiz-adv-x="1299" 
d="M346 43.5q-129 64.5 -199 192t-70 310.5q0 184 68 310.5t196 190.5t309 64t309 -64t195.5 -190.5t67.5 -310.5q0 -182 -70 -309.5t-198.5 -192.5t-303.5 -65t-304 64.5zM829.5 307q60.5 73 60.5 238q0 167 -60.5 239.5t-179.5 72.5t-180 -72t-61 -238q0 -167 60.5 -240
t180.5 -73q119 0 179.5 73zM260 1299.5q-45 42.5 -45 119.5q0 78 45 120.5t133 42.5t133 -42.5t45 -120.5q0 -77 -45 -119.5t-133 -42.5t-133 42.5zM774 1299.5q-45 42.5 -45 119.5q0 78 45 120.5t133 42.5t133 -42.5t45 -120.5q0 -77 -45 -119.5t-133 -42.5t-133 42.5z
M280 1695v191h740v-191h-740z" />
    <glyph glyph-name="uni022C" unicode="&#x22c;" horiz-adv-x="1682" 
d="M442 67q-168 86 -259 256.5t-91 416.5t91 416.5t259 256.5t399 86t399 -86.5t259 -257t91 -415.5t-91 -415.5t-259.5 -257t-398.5 -86.5q-231 0 -399 86zM1138 370q103 118 103 363q0 254 -103.5 374.5t-296.5 120.5q-192 0 -296 -117.5t-104 -363.5q0 -257 102.5 -376
t297.5 -119q194 0 297 118zM928 1630q-43 10 -103 29q-55 18 -92.5 26.5t-77.5 8.5q-62 0 -109.5 -16t-97.5 -52v182q42 37 93 54.5t121 17.5q49 0 92 -10t103 -29q57 -18 93.5 -27t76.5 -9q62 0 110 16t97 51v-182q-42 -36 -92.5 -53t-121.5 -17q-49 0 -92 10zM457 1999
v192h768v-192h-768z" />
    <glyph glyph-name="uni022D" unicode="&#x22d;" horiz-adv-x="1299" 
d="M346 43.5q-129 64.5 -199 192t-70 310.5q0 184 68 310.5t196 190.5t309 64t309 -64t195.5 -190.5t67.5 -310.5q0 -182 -70 -309.5t-198.5 -192.5t-303.5 -65t-304 64.5zM829.5 307q60.5 73 60.5 238q0 167 -60.5 239.5t-179.5 72.5t-180 -72t-61 -238q0 -167 60.5 -240
t180.5 -73q119 0 179.5 73zM729 1296.5q-40 12.5 -95 36.5q-54 23 -86.5 33.5t-67.5 10.5q-58 0 -104.5 -20t-95.5 -65v201q41 40 91.5 59t115.5 19q44 0 84 -12.5t95 -36.5q54 -23 86.5 -33.5t67.5 -10.5q58 0 104.5 20t95.5 65v-201q-41 -40 -91.5 -59t-115.5 -19
q-44 0 -84 12.5zM280 1695v191h740v-191h-740z" />
    <glyph glyph-name="uni0230" unicode="&#x230;" horiz-adv-x="1682" 
d="M442 67q-168 86 -259 256.5t-91 416.5t91 416.5t259 256.5t399 86t399 -86.5t259 -257t91 -415.5t-91 -415.5t-259.5 -257t-398.5 -86.5q-231 0 -399 86zM1138 370q103 118 103 363q0 254 -103.5 374.5t-296.5 120.5q-192 0 -296 -117.5t-104 -363.5q0 -257 102.5 -376
t297.5 -119q194 0 297 118zM690 1644.5q-50 38.5 -50 106.5t50 106t151 38t151 -38t50 -106t-50 -106.5t-151 -38.5t-151 38.5zM457 1999v192h768v-192h-768z" />
    <glyph glyph-name="uni0231" unicode="&#x231;" horiz-adv-x="1299" 
d="M346 43.5q-129 64.5 -199 192t-70 310.5q0 184 68 310.5t196 190.5t309 64t309 -64t195.5 -190.5t67.5 -310.5q0 -182 -70 -309.5t-198.5 -192.5t-303.5 -65t-304 64.5zM829.5 307q60.5 73 60.5 238q0 167 -60.5 239.5t-179.5 72.5t-180 -72t-61 -238q0 -167 60.5 -240
t180.5 -73q119 0 179.5 73zM496 1295.5q-51 42.5 -51 123.5q0 82 51 124.5t154 42.5t154 -42.5t51 -124.5q0 -81 -51 -123.5t-154 -42.5t-154 42.5zM280 1698v191h740v-191h-740z" />
    <glyph glyph-name="uni0232" unicode="&#x232;" horiz-adv-x="1368" 
d="M1403 1480l-546 -852v-628h-341v625l-565 855h364l378 -579l371 579h339zM299 1651v192h768v-192h-768z" />
    <glyph glyph-name="uni0233" unicode="&#x233;" horiz-adv-x="1255" 
d="M928 1094h328l-596 -1534h-327l173 440h-84l-423 1094h351l287 -806zM258 1325v191h740v-191h-740z" />
    <glyph glyph-name="uni0237" unicode="&#x237;" horiz-adv-x="592" 
d="M-31 -330q88 112 124 227.5t36 278.5v918h334v-905q0 -194 -65 -349.5t-217 -310.5z" />
    <glyph glyph-name="uni0259" unicode="&#x259;" horiz-adv-x="1188" 
d="M832.5 1055q141.5 -60 210 -184.5t68.5 -321.5q0 -180 -63 -307t-184 -193t-293 -66q-248 0 -377.5 148.5t-129.5 427.5v81h716q-6 87 -41 136.5t-110.5 72t-207.5 22.5q-135 0 -292 -33v240q171 37 342 37q220 0 361.5 -60zM726.5 251.5q50.5 62.5 54.5 203.5h-408
q4 -141 53.5 -203.5t148.5 -62.5q101 0 151.5 62.5z" />
    <glyph glyph-name="uni02BB" unicode="&#x2bb;" horiz-adv-x="1150" 
d="M762 1370q0 -54 -46 -83.5t-140 -29.5q-188 0 -188 150q0 54 22 114t58 105h204q-45 -86 -56 -145q146 -11 146 -111z" />
    <glyph glyph-name="uni02BC" unicode="&#x2bc;" horiz-adv-x="1150" 
d="M948 1477q0 -54 -21.5 -114t-57.5 -106h-204q45 86 55 146q-145 11 -145 110q0 113 185 113q188 0 188 -149z" />
    <glyph glyph-name="uni02BE" unicode="&#x2be;" horiz-adv-x="1150" 
d="M575 1340q42 0 68 26.5t26 70.5t-26 70.5t-68 26.5v112q61 0 110 -27t77 -74.5t28 -107.5t-28 -107.5t-77 -74.5t-110 -27v112z" />
    <glyph glyph-name="uni02BF" unicode="&#x2bf;" horiz-adv-x="1150" 
d="M465 1255q-49 27 -77 74.5t-28 107.5t28 107.5t77 74.5t110 27v-112q-42 0 -68 -26.5t-26 -70.5t26 -70.5t68 -26.5v-112q-61 0 -110 27z" />
    <glyph glyph-name="circumflex" unicode="&#x2c6;" horiz-adv-x="1150" 
d="M964 1233h-244l-145 228l-145 -228h-244l256 383h266z" />
    <glyph glyph-name="caron" unicode="&#x2c7;" horiz-adv-x="1150" 
d="M721 1616h245l-258 -383h-266l-258 383h245l146 -228z" />
    <glyph glyph-name="uni02C8" unicode="&#x2c8;" horiz-adv-x="1150" 
d="M503 1218v400h144v-400h-144z" />
    <glyph glyph-name="uni02C9" unicode="&#x2c9;" horiz-adv-x="1150" 
d="M205 1325v191h740v-191h-740z" />
    <glyph glyph-name="uni02CA" unicode="&#x2ca;" horiz-adv-x="1150" 
d="M411 1233l240 383h377l-289 -383h-328z" />
    <glyph glyph-name="uni02CB" unicode="&#x2cb;" horiz-adv-x="1150" 
d="M411 1233l-289 383h377l240 -383h-328z" />
    <glyph glyph-name="uni02CC" unicode="&#x2cc;" horiz-adv-x="1150" 
d="M503 -440v400h144v-400h-144z" />
    <glyph glyph-name="breve" unicode="&#x2d8;" horiz-adv-x="1150" 
d="M295.5 1333q-100.5 92 -109.5 261h201q8 -93 54 -140t135 -47q88 0 133.5 47t53.5 140h201q-9 -169 -109 -261t-279 -92q-180 0 -280.5 92z" />
    <glyph glyph-name="dotaccent" unicode="&#x2d9;" horiz-adv-x="1150" 
d="M421 1295.5q-51 42.5 -51 123.5q0 82 51 124.5t154 42.5t154 -42.5t51 -124.5q0 -81 -51 -123.5t-154 -42.5t-154 42.5z" />
    <glyph glyph-name="ring" unicode="&#x2da;" horiz-adv-x="1150" 
d="M465 1255q-49 27 -77 74.5t-28 107.5t28 107.5t77 74.5t110 27t110 -27t77 -74.5t28 -107.5t-28 -107.5t-77 -74.5t-110 -27t-110 27zM643 1366.5q26 26.5 26 70.5t-26 70.5t-68 26.5t-68 -26.5t-26 -70.5t26 -70.5t68 -26.5t68 26.5z" />
    <glyph glyph-name="ogonek" unicode="&#x2db;" horiz-adv-x="1150" 
d="M184.5 -386.5q-69.5 55.5 -69.5 152.5q0 99 72.5 174.5t243.5 129.5l86 -70q-117 -48 -164.5 -98t-47.5 -113q0 -47 33 -74t94 -27q63 0 129 31v-127q-81 -34 -176 -34q-131 0 -200.5 55.5z" />
    <glyph glyph-name="tilde" unicode="&#x2dc;" horiz-adv-x="1150" 
d="M654 1296.5q-40 12.5 -95 36.5q-54 23 -86.5 33.5t-67.5 10.5q-58 0 -104.5 -20t-95.5 -65v201q41 40 91.5 59t115.5 19q44 0 84 -12.5t95 -36.5q54 -23 86.5 -33.5t67.5 -10.5q58 0 104.5 20t95.5 65v-201q-41 -40 -91.5 -59t-115.5 -19q-44 0 -84 12.5z" />
    <glyph glyph-name="hungarumlaut" unicode="&#x2dd;" horiz-adv-x="1150" 
d="M248 1233l154 383h258l-172 -383h-240zM662 1233l155 383h258l-173 -383h-240z" />
    <glyph glyph-name="gravecomb" unicode="&#x300;" horiz-adv-x="0" 
d="M-732 1233l-289 383h363l240 -383h-314z" />
    <glyph glyph-name="acutecomb" unicode="&#x301;" horiz-adv-x="0" 
d="M-732 1233l240 383h363l-289 -383h-314z" />
    <glyph glyph-name="uni0302" unicode="&#x302;" horiz-adv-x="0" 
d="M-186 1233h-244l-145 228l-145 -228h-244l256 383h266z" />
    <glyph glyph-name="tildecomb" unicode="&#x303;" horiz-adv-x="0" 
d="M-496 1296.5q-40 12.5 -95 36.5q-54 23 -86.5 33.5t-67.5 10.5q-58 0 -104.5 -20t-95.5 -65v201q41 40 91.5 59t115.5 19q44 0 84 -12.5t95 -36.5q54 -23 86.5 -33.5t67.5 -10.5q58 0 104.5 20t95.5 65v-201q-41 -40 -91.5 -59t-115.5 -19q-44 0 -84 12.5z" />
    <glyph glyph-name="uni0304" unicode="&#x304;" horiz-adv-x="0" 
d="M-945 1325v191h740v-191h-740z" />
    <glyph glyph-name="uni0306" unicode="&#x306;" horiz-adv-x="0" 
d="M-854.5 1333q-100.5 92 -109.5 261h201q8 -93 54 -140t135 -47q88 0 133.5 47t53.5 140h201q-9 -169 -109 -261t-279 -92q-180 0 -280.5 92z" />
    <glyph glyph-name="uni0307" unicode="&#x307;" horiz-adv-x="0" 
d="M-729 1295.5q-51 42.5 -51 123.5q0 82 51 124.5t154 42.5t154 -42.5t51 -124.5q0 -81 -51 -123.5t-154 -42.5t-154 42.5z" />
    <glyph glyph-name="uni0308" unicode="&#x308;" horiz-adv-x="0" 
d="M-965 1299.5q-45 42.5 -45 119.5q0 78 45 120.5t133 42.5t133 -42.5t45 -120.5q0 -77 -45 -119.5t-133 -42.5t-133 42.5zM-451 1299.5q-45 42.5 -45 119.5q0 78 45 120.5t133 42.5t133 -42.5t45 -120.5q0 -77 -45 -119.5t-133 -42.5t-133 42.5z" />
    <glyph glyph-name="hookabovecomb" unicode="&#x309;" horiz-adv-x="0" 
d="M-640.5 1302q15.5 29 35.5 47t51 40q29 19 42.5 33.5t13.5 32.5q0 25 -24 36.5t-80 11.5q-85 0 -173 -24v124q38 12 93 18.5t102 6.5q130 0 191.5 -37.5t61.5 -115.5q0 -35 -12 -60t-29 -41t-46 -37q-37 -27 -56 -48.5t-22 -55.5h-166q2 40 17.5 69z" />
    <glyph glyph-name="uni030A" unicode="&#x30a;" horiz-adv-x="0" 
d="M-685 1255q-49 27 -77 74.5t-28 107.5t28 107.5t77 74.5t110 27t110 -27t77 -74.5t28 -107.5t-28 -107.5t-77 -74.5t-110 -27t-110 27zM-507 1366.5q26 26.5 26 70.5t-26 70.5t-68 26.5t-68 -26.5t-26 -70.5t26 -70.5t68 -26.5t68 26.5z" />
    <glyph glyph-name="uni030B" unicode="&#x30b;" horiz-adv-x="0" 
d="M-902 1233l154 383h258l-172 -383h-240zM-488 1233l155 383h258l-173 -383h-240z" />
    <glyph glyph-name="uni030C" unicode="&#x30c;" horiz-adv-x="0" 
d="M-429 1616h245l-258 -383h-266l-258 383h245l146 -228z" />
    <glyph glyph-name="uni030F" unicode="&#x30f;" horiz-adv-x="0" 
d="M-903 1233l-173 383h260l154 -383h-241zM-488 1233l-172 383h259l154 -383h-241z" />
    <glyph glyph-name="uni0311" unicode="&#x311;" horiz-adv-x="0" 
d="M-855.5 1522q99.5 92 279.5 92t280.5 -92.5t109.5 -260.5h-201q-8 93 -54 140t-135 47t-134 -47t-53 -140h-201q9 169 108.5 261z" />
    <glyph glyph-name="uni0312" unicode="&#x312;" horiz-adv-x="0" 
d="M-388 1370q0 -54 -46 -83.5t-140 -29.5q-188 0 -188 150q0 54 22 114t58 105h204q-45 -86 -56 -145q146 -11 146 -111z" />
    <glyph glyph-name="uni031B" unicode="&#x31b;" horiz-adv-x="0" 
d="M-714 1480h120q96 0 144.5 36.5t48.5 119.5q0 58 -17 140h207q20 -71 20 -151q0 -147 -86.5 -224t-237.5 -77h-199v156z" />
    <glyph glyph-name="dotbelowcomb" unicode="&#x323;" horiz-adv-x="0" 
d="M-707.5 -400.5q-45.5 41.5 -45.5 114.5q0 74 45.5 116t132.5 42t132.5 -42t45.5 -116q0 -73 -45.5 -114.5t-132.5 -41.5t-132.5 41.5z" />
    <glyph glyph-name="uni0324" unicode="&#x324;" horiz-adv-x="0" 
d="M-965 -411.5q-45 42.5 -45 120.5q0 77 45 120t133 43t133 -43t45 -120q0 -78 -45 -120.5t-133 -42.5t-133 42.5zM-451 -411.5q-45 42.5 -45 120.5q0 77 45 120t133 43t133 -43t45 -120q0 -78 -45 -120.5t-133 -42.5t-133 42.5z" />
    <glyph glyph-name="uni0326" unicode="&#x326;" horiz-adv-x="0" 
d="M-388 -278q0 -54 -22 -114.5t-58 -105.5h-204q45 85 56 146q-146 11 -146 111q0 54 46 83.5t140 29.5q188 0 188 -150z" />
    <glyph glyph-name="uni0327" unicode="&#x327;" horiz-adv-x="0" 
d="M-361.5 -145.5q42.5 -45.5 42.5 -117.5q0 -85 -66.5 -132t-192.5 -47q-108 0 -191 33v124q39 -16 87 -24.5t90 -8.5q51 0 76.5 16.5t25.5 53.5t-25.5 54t-76.5 17h-51v197h155v-106q84 -14 126.5 -59.5z" />
    <glyph glyph-name="uni0328" unicode="&#x328;" horiz-adv-x="0" 
d="M-965.5 -386.5q-69.5 55.5 -69.5 152.5q0 99 72.5 174.5t243.5 129.5l86 -70q-117 -48 -164.5 -98t-47.5 -113q0 -47 33 -74t94 -27q63 0 129 31v-127q-81 -34 -176 -34q-131 0 -200.5 55.5z" />
    <glyph glyph-name="uni032E" unicode="&#x32e;" horiz-adv-x="0" 
d="M-781.5 -419q-86.5 38 -133 108t-49.5 166h201q9 -146 189 -146q179 0 187 146h201q-3 -97 -49 -167t-132 -107.5t-207 -37.5t-207.5 38z" />
    <glyph glyph-name="uni0331" unicode="&#x331;" horiz-adv-x="0" 
d="M-935 -378v190h720v-190h-720z" />
    <glyph glyph-name="uni0394" unicode="&#x394;" horiz-adv-x="1567" 
d="M1030 1480l517 -1480h-1527l517 1480h493zM782 1281l-344 -1020h687z" />
    <glyph glyph-name="uni03A9" unicode="&#x3a9;" horiz-adv-x="1682" 
d="M1526.5 489q-63.5 -137 -185.5 -233h249v-256h-640v203q148 117 219.5 253t71.5 312q0 228 -102.5 344t-297.5 116t-297.5 -116t-102.5 -344q0 -176 71.5 -312t219.5 -253v-203h-640v256h249q-122 96 -185.5 233t-63.5 312q0 215 90.5 372.5t259.5 241.5t399 84t399 -84
t259.5 -241.5t90.5 -372.5q0 -175 -63.5 -312z" />
    <glyph glyph-name="uni03BC" unicode="&#x3bc;" horiz-adv-x="1301" 
d="M1172 1094v-1094h-274l-21 107h-14q-54 -61 -122.5 -93t-143.5 -32q-80 0 -143 30v-452h-334v1533h334v-640q0 -102 42 -145.5t123 -43.5q60 0 119.5 24.5t99.5 70.5v735h334z" />
    <glyph glyph-name="pi" unicode="&#x3c0;" horiz-adv-x="1532" 
d="M1491 261v-258q-46 -10 -101.5 -17t-103.5 -7q-412 0 -412 401l-2 451h-323v-832h-334v832h-189v263h1370v-263h-188v-392q0 -73 17 -114.5t54 -59t100 -17.5q42 0 112 13z" />
    <glyph glyph-name="uni1E08" unicode="&#x1e08;" horiz-adv-x="1331" 
d="M1190 1898l-243 -303h-303l193 303h353zM573 1105.5q-124 -115.5 -124 -364.5q0 -253 122 -367.5t375 -114.5q164 0 328 45v-276q-161 -47 -353 -47q-40 0 -59 1v-67q94 -12 141.5 -56.5t47.5 -117.5q0 -87 -71 -135t-206 -48q-115 0 -212 34v123q95 -33 197 -33
q61 0 91.5 16.5t30.5 52.5q0 72 -122 72h-53v173q-614 90 -614 741q0 247 97 417.5t285.5 257.5t460.5 87q177 0 339 -36v-277q-151 35 -313 35q-264 0 -388 -115.5z" />
    <glyph glyph-name="uni1E09" unicode="&#x1e09;" horiz-adv-x="1045" 
d="M1029 1616l-289 -383h-314l240 383h363zM241 968q164 143 479 143q152 0 271 -28v-259q-126 24 -234 24q-176 0 -257.5 -72.5t-81.5 -229.5t78 -230t235 -73q59 0 118 9t142 29v-259q-137 -43 -301 -43h-2v-65q84 -14 126.5 -59.5t42.5 -117.5q0 -85 -66.5 -132
t-192.5 -47q-108 0 -191 33v124q39 -16 87 -24.5t90 -8.5q51 0 76.5 16.5t25.5 53.5t-25.5 54t-76.5 17h-51v167q-224 35 -340 174.5t-116 379.5q0 281 164 424z" />
    <glyph glyph-name="uni1E0C" unicode="&#x1e0c;" horiz-adv-x="1613" 
d="M144 12v1431q108 24 246 38t264 14q432 0 649.5 -186t217.5 -569q0 -265 -103.5 -431t-311 -244.5t-527.5 -78.5q-223 0 -435 26zM953 308.5q111 49.5 165 155.5t54 278q0 251 -122.5 366.5t-378.5 115.5q-82 0 -185 -16v-942q66 -7 182 -7q174 0 285 49.5zM573 -379
q-50 38 -50 106t50 106.5t151 38.5t151 -38.5t50 -106.5t-50 -106t-151 -38t-151 38z" />
    <glyph glyph-name="uni1E0D" unicode="&#x1e0d;" horiz-adv-x="1323" 
d="M314 38q-109 57 -173 178.5t-64 307.5q0 189 72.5 321t211 200t334.5 68q69 0 165 -10v513h334v-1616h-280l-18 112h-16q-57 -61 -138.5 -96t-180.5 -35q-138 0 -247 57zM766.5 270q54.5 20 93.5 61v516q-72 14 -150 14q-153 0 -227 -75.5t-74 -237.5q0 -160 63.5 -229
t180.5 -69q59 0 113.5 20zM538.5 -400.5q-45.5 41.5 -45.5 114.5q0 74 45.5 116t132.5 42t132.5 -42t45.5 -116q0 -73 -45.5 -114.5t-132.5 -41.5t-132.5 41.5z" />
    <glyph glyph-name="uni1E0E" unicode="&#x1e0e;" horiz-adv-x="1613" 
d="M144 12v1431q108 24 246 38t264 14q432 0 649.5 -186t217.5 -569q0 -265 -103.5 -431t-311 -244.5t-527.5 -78.5q-223 0 -435 26zM953 308.5q111 49.5 165 155.5t54 278q0 251 -122.5 366.5t-378.5 115.5q-82 0 -185 -16v-942q66 -7 182 -7q174 0 285 49.5zM340 -361v191
h768v-191h-768z" />
    <glyph glyph-name="uni1E0F" unicode="&#x1e0f;" horiz-adv-x="1323" 
d="M314 38q-109 57 -173 178.5t-64 307.5q0 189 72.5 321t211 200t334.5 68q69 0 165 -10v513h334v-1616h-280l-18 112h-16q-57 -61 -138.5 -96t-180.5 -35q-138 0 -247 57zM766.5 270q54.5 20 93.5 61v516q-72 14 -150 14q-153 0 -227 -75.5t-74 -237.5q0 -160 63.5 -229
t180.5 -69q59 0 113.5 20zM311 -378v190h720v-190h-720z" />
    <glyph glyph-name="uni1E14" unicode="&#x1e14;" horiz-adv-x="1345" 
d="M482 262h783v-262h-1121v1480h1111v-262h-773v-330h670v-262h-670v-364zM550 1955l-243 232h392l193 -232h-342zM337 1651v192h768v-192h-768z" />
    <glyph glyph-name="uni1E15" unicode="&#x1e15;" horiz-adv-x="1188" 
d="M1124 454h-716q6 -87 41 -136.5t110.5 -72t207.5 -22.5q135 0 292 33v-240q-171 -37 -342 -37q-220 0 -361.5 60t-210 184.5t-68.5 321.5q0 180 63 307t184 193t293 66q248 0 377.5 -148.5t129.5 -427.5v-81zM461.5 842.5q-50.5 -62.5 -54.5 -203.5h408
q-4 141 -53.5 203.5t-148.5 62.5q-101 0 -151.5 -62.5zM242 1325v191h740v-191h-740zM461 1656l-243 303h353l192 -303h-302z" />
    <glyph glyph-name="uni1E16" unicode="&#x1e16;" horiz-adv-x="1345" 
d="M482 262h783v-262h-1121v1480h1111v-262h-773v-330h670v-262h-670v-364zM550 1955l192 232h393l-243 -232h-342zM337 1651v192h768v-192h-768z" />
    <glyph glyph-name="uni1E17" unicode="&#x1e17;" horiz-adv-x="1188" 
d="M1124 454h-716q6 -87 41 -136.5t110.5 -72t207.5 -22.5q135 0 292 33v-240q-171 -37 -342 -37q-220 0 -361.5 60t-210 184.5t-68.5 321.5q0 180 63 307t184 193t293 66q248 0 377.5 -148.5t129.5 -427.5v-81zM461.5 842.5q-50.5 -62.5 -54.5 -203.5h408
q-4 141 -53.5 203.5t-148.5 62.5q-101 0 -151.5 -62.5zM242 1325v191h740v-191h-740zM458 1656l193 303h353l-243 -303h-303z" />
    <glyph glyph-name="uni1E1C" unicode="&#x1e1c;" horiz-adv-x="1345" 
d="M431.5 1677.5q-102.5 78.5 -120.5 211.5h203q14 -64 63.5 -97t144.5 -33q94 0 143.5 33.5t62.5 96.5h203q-18 -134 -119.5 -212t-289.5 -78t-290.5 78.5zM781 0v-85q94 -12 141.5 -56.5t47.5 -117.5q0 -87 -71 -135t-206 -48q-115 0 -212 34v123q95 -33 197 -33
q61 0 91.5 16.5t30.5 52.5q0 72 -122 72h-53v177h-481v1480h1111v-262h-773v-330h670v-262h-670v-364h783v-262h-484z" />
    <glyph glyph-name="uni1E1D" unicode="&#x1e1d;" horiz-adv-x="1188" 
d="M332.5 1333q-100.5 92 -109.5 261h201q8 -93 54 -140t135 -47q88 0 133.5 47t53.5 140h201q-9 -169 -109 -261t-279 -92q-180 0 -280.5 92zM1124 454h-716q6 -87 41 -136.5t110.5 -72t207.5 -22.5q135 0 292 33v-240q-171 -37 -342 -37h-18v-65q84 -14 126.5 -59.5
t42.5 -117.5q0 -85 -66.5 -132t-192.5 -47q-108 0 -191 33v124q39 -16 87 -24.5t90 -8.5q51 0 76.5 16.5t25.5 53.5t-25.5 54t-76.5 17h-51v167q-239 32 -353 167.5t-114 387.5q0 180 63 307t184 193t293 66q248 0 377.5 -148.5t129.5 -427.5v-81zM461.5 842.5
q-50.5 -62.5 -54.5 -203.5h408q-4 141 -53.5 203.5t-148.5 62.5q-101 0 -151.5 -62.5z" />
    <glyph glyph-name="uni1E20" unicode="&#x1e20;" horiz-adv-x="1524" 
d="M1383 720v-702q-208 -35 -394 -35q-451 0 -674 187t-223 565q-1 375 227.5 569.5t667.5 194.5q180 0 349 -37v-277q-156 36 -323 36q-196 -1 -320.5 -52t-185 -159t-60.5 -280q0 -238 127.5 -354.5t392.5 -116.5q49 0 97 3v458h319zM467 1651v192h768v-192h-768z" />
    <glyph glyph-name="uni1E21" unicode="&#x1e21;" horiz-adv-x="1323" 
d="M153 -411v257q101 -27 199 -40.5t180 -13.5q118 0 190 26.5t105 82.5t33 147v69h-16q-56 -58 -134.5 -89t-175.5 -31q-127 0 -230.5 58.5t-165 177.5t-61.5 291q0 284 167 435.5t492 151.5q117 0 240 -16.5t218 -45.5v-939q0 -199 -69 -325t-209 -185.5t-359 -59.5
q-216 0 -404 49zM765 282.5q54 18.5 95 54.5v506q-74 18 -153 18q-148 0 -223 -76t-75 -234q0 -155 64 -221t181 -66q57 0 111 18.5zM319 1325v191h740v-191h-740z" />
    <glyph glyph-name="uni1E24" unicode="&#x1e24;" horiz-adv-x="1630" 
d="M144 0v1480h342v-576h658v576h341v-1480h-341v610h-658v-610h-342zM665 -379q-50 38 -50 106t50 106.5t151 38.5t151 -38.5t50 -106.5t-50 -106t-151 -38t-151 38z" />
    <glyph glyph-name="uni1E25" unicode="&#x1e25;" horiz-adv-x="1311" 
d="M129 1616h334v-629h16q62 61 144 92.5t177 31.5q178 0 285 -110.5t107 -341.5v-659h-334v639q0 103 -43.5 146.5t-127.5 43.5q-64 0 -124 -24.5t-100 -70.5v-734h-334v1616zM528.5 -400.5q-45.5 41.5 -45.5 114.5q0 74 45.5 116t132.5 42t132.5 -42t45.5 -116
q0 -73 -45.5 -114.5t-132.5 -41.5t-132.5 41.5z" />
    <glyph glyph-name="uni1E2A" unicode="&#x1e2a;" horiz-adv-x="1630" 
d="M144 0v1480h342v-576h658v576h341v-1480h-341v610h-658v-610h-342zM524.5 -356.5q-102.5 79.5 -118.5 213.5h203q24 -133 208 -133q183 0 206 133h203q-16 -134 -118 -213.5t-291 -79.5q-190 0 -292.5 79.5z" />
    <glyph glyph-name="uni1E2B" unicode="&#x1e2b;" horiz-adv-x="1311" 
d="M129 1616h334v-629h16q62 61 144 92.5t177 31.5q178 0 285 -110.5t107 -341.5v-659h-334v639q0 103 -43.5 146.5t-127.5 43.5q-64 0 -124 -24.5t-100 -70.5v-734h-334v1616zM454.5 -419q-86.5 38 -133 108t-49.5 166h201q9 -146 189 -146q179 0 187 146h201
q-3 -97 -49 -167t-132 -107.5t-207 -37.5t-207.5 38z" />
    <glyph glyph-name="uni1E2E" unicode="&#x1e2e;" horiz-adv-x="630" 
d="M144 0v1480h342v-1480h-342zM144 1955l192 232h393l-243 -232h-342zM-85 1644q-44 38 -44 107t43.5 106.5t131.5 37.5q87 0 131 -37.5t44 -106.5t-44 -107t-131 -38t-131 38zM453 1644q-44 38 -44 107t44 106.5t131 37.5q88 0 131.5 -37.5t43.5 -106.5t-44 -107t-131 -38
t-131 38z" />
    <glyph glyph-name="uni1E2F" unicode="&#x1e2f;" horiz-adv-x="592" 
d="M129 0v1094h334v-1094h-334zM-94 1299.5q-45 42.5 -45 119.5q0 78 45 120.5t133 42.5t133 -42.5t45 -120.5q0 -77 -45 -119.5t-133 -42.5t-133 42.5zM420 1299.5q-45 42.5 -45 119.5q0 78 45 120.5t133 42.5t133 -42.5t45 -120.5q0 -77 -45 -119.5t-133 -42.5t-133 42.5z
M313 2090l193 303h353l-243 -303h-303z" />
    <glyph glyph-name="uni1E36" unicode="&#x1e36;" horiz-adv-x="1227" 
d="M144 0v1480h342v-1206h729v-274h-1071zM529 -379q-50 38 -50 106t50 106.5t151 38.5t151 -38.5t50 -106.5t-50 -106t-151 -38t-151 38z" />
    <glyph glyph-name="uni1E37" unicode="&#x1e37;" horiz-adv-x="592" 
d="M129 0v1616h334v-1616h-334zM162.5 -400.5q-45.5 41.5 -45.5 114.5q0 74 45.5 116t132.5 42t132.5 -42t45.5 -116q0 -73 -45.5 -114.5t-132.5 -41.5t-132.5 41.5z" />
    <glyph glyph-name="uni1E3A" unicode="&#x1e3a;" horiz-adv-x="1227" 
d="M144 0v1480h342v-1206h729v-274h-1071zM296 -361v191h768v-191h-768z" />
    <glyph glyph-name="uni1E3B" unicode="&#x1e3b;" horiz-adv-x="592" 
d="M129 0v1616h334v-1616h-334zM-65 -378v190h720v-190h-720z" />
    <glyph glyph-name="uni1E42" unicode="&#x1e42;" horiz-adv-x="1983" 
d="M1422 1480h413v-1480h-319v1045l-382 -831h-285l-381 800v-1014h-320v1480h414l435 -933zM862 -379q-50 38 -50 106t50 106.5t151 38.5t151 -38.5t50 -106.5t-50 -106t-151 -38t-151 38z" />
    <glyph glyph-name="uni1E43" unicode="&#x1e43;" horiz-adv-x="1924" 
d="M1699 1001q105 -110 105 -343v-658h-333v640q0 102 -40.5 145.5t-114.5 43.5q-55 0 -102.5 -19.5t-81.5 -58.5q4 -36 4 -86v-665h-327v640q0 103 -37.5 146t-111.5 43q-58 0 -110.5 -25t-86.5 -72v-732h-334v1094h274l22 -109h15q61 62 143.5 94t180.5 32q97 0 173 -35
t124 -107q76 74 166 108t185 34q182 0 287 -110zM840.5 -400.5q-45.5 41.5 -45.5 114.5q0 74 45.5 116t132.5 42t132.5 -42t45.5 -116q0 -73 -45.5 -114.5t-132.5 -41.5t-132.5 41.5z" />
    <glyph glyph-name="uni1E44" unicode="&#x1e44;" horiz-adv-x="1646" 
d="M1180 1480h322v-1480h-344l-692 996v-996h-322v1480h344l692 -996v996zM672 1644.5q-50 38.5 -50 106.5t50 106t151 38t151 -38t50 -106t-50 -106.5t-151 -38.5t-151 38.5z" />
    <glyph glyph-name="uni1E45" unicode="&#x1e45;" horiz-adv-x="1311" 
d="M129 1094h274l22 -108h15q65 60 154 92.5t190 32.5q189 0 298.5 -110t109.5 -343v-658h-334v639q0 103 -43 146.5t-128 43.5q-63 0 -123.5 -24t-100.5 -71v-734h-334v1094zM507 1295.5q-51 42.5 -51 123.5q0 82 51 124.5t154 42.5t154 -42.5t51 -124.5q0 -81 -51 -123.5
t-154 -42.5t-154 42.5z" />
    <glyph glyph-name="uni1E46" unicode="&#x1e46;" horiz-adv-x="1646" 
d="M1180 1480h322v-1480h-344l-692 996v-996h-322v1480h344l692 -996v996zM672 -379q-50 38 -50 106t50 106.5t151 38.5t151 -38.5t50 -106.5t-50 -106t-151 -38t-151 38z" />
    <glyph glyph-name="uni1E47" unicode="&#x1e47;" horiz-adv-x="1311" 
d="M129 1094h274l22 -108h15q65 60 154 92.5t190 32.5q189 0 298.5 -110t109.5 -343v-658h-334v639q0 103 -43 146.5t-128 43.5q-63 0 -123.5 -24t-100.5 -71v-734h-334v1094zM528.5 -400.5q-45.5 41.5 -45.5 114.5q0 74 45.5 116t132.5 42t132.5 -42t45.5 -116
q0 -73 -45.5 -114.5t-132.5 -41.5t-132.5 41.5z" />
    <glyph glyph-name="uni1E48" unicode="&#x1e48;" horiz-adv-x="1646" 
d="M1180 1480h322v-1480h-344l-692 996v-996h-322v1480h344l692 -996v996zM439 -361v191h768v-191h-768z" />
    <glyph glyph-name="uni1E49" unicode="&#x1e49;" horiz-adv-x="1311" 
d="M129 1094h274l22 -108h15q65 60 154 92.5t190 32.5q189 0 298.5 -110t109.5 -343v-658h-334v639q0 103 -43 146.5t-128 43.5q-63 0 -123.5 -24t-100.5 -71v-734h-334v1094zM301 -378v190h720v-190h-720z" />
    <glyph glyph-name="uni1E4C" unicode="&#x1e4c;" horiz-adv-x="1682" 
d="M442 67q-168 86 -259 256.5t-91 416.5t91 416.5t259 256.5t399 86t399 -86.5t259 -257t91 -415.5t-91 -415.5t-259.5 -257t-398.5 -86.5q-231 0 -399 86zM1138 370q103 118 103 363q0 254 -103.5 374.5t-296.5 120.5q-192 0 -296 -117.5t-104 -363.5q0 -257 102.5 -376
t297.5 -119q194 0 297 118zM670 1955l192 232h393l-243 -232h-342zM928 1630q-43 10 -103 29q-55 18 -92.5 26.5t-77.5 8.5q-62 0 -109.5 -16t-97.5 -52v182q42 37 93 54.5t121 17.5q49 0 92 -10t103 -29q57 -18 93.5 -27t76.5 -9q62 0 110 16t97 51v-182q-42 -36 -92.5 -53
t-121.5 -17q-49 0 -92 10z" />
    <glyph glyph-name="uni1E4D" unicode="&#x1e4d;" horiz-adv-x="1299" 
d="M346 43.5q-129 64.5 -199 192t-70 310.5q0 184 68 310.5t196 190.5t309 64t309 -64t195.5 -190.5t67.5 -310.5q0 -182 -70 -309.5t-198.5 -192.5t-303.5 -65t-304 64.5zM829.5 307q60.5 73 60.5 238q0 167 -60.5 239.5t-179.5 72.5t-180 -72t-61 -238q0 -167 60.5 -240
t180.5 -73q119 0 179.5 73zM729 1296.5q-40 12.5 -95 36.5q-54 23 -86.5 33.5t-67.5 10.5q-58 0 -104.5 -20t-95.5 -65v201q41 40 91.5 59t115.5 19q44 0 84 -12.5t95 -36.5q54 -23 86.5 -33.5t67.5 -10.5q58 0 104.5 20t95.5 65v-201q-41 -40 -91.5 -59t-115.5 -19
q-44 0 -84 12.5zM667 2090l193 303h353l-243 -303h-303z" />
    <glyph glyph-name="uni1E4E" unicode="&#x1e4e;" horiz-adv-x="1682" 
d="M442 67q-168 86 -259 256.5t-91 416.5t91 416.5t259 256.5t399 86t399 -86.5t259 -257t91 -415.5t-91 -415.5t-259.5 -257t-398.5 -86.5q-231 0 -399 86zM1138 370q103 118 103 363q0 254 -103.5 374.5t-296.5 120.5q-192 0 -296 -117.5t-104 -363.5q0 -257 102.5 -376
t297.5 -119q194 0 297 118zM928 1630q-43 10 -103 29q-55 18 -92.5 26.5t-77.5 8.5q-62 0 -109.5 -16t-97.5 -52v182q42 37 93 54.5t121 17.5q49 0 92 -10t103 -29q57 -18 93.5 -27t76.5 -9q62 0 110 16t97 51v-182q-42 -36 -92.5 -53t-121.5 -17q-49 0 -92 10zM441 1992
q-44 38 -44 107t43.5 106.5t131.5 37.5q87 0 131 -37.5t44 -106.5t-44 -107t-131 -38t-131 38zM979 1992q-44 38 -44 107t44 106.5t131 37.5q88 0 131.5 -37.5t43.5 -106.5t-44 -107t-131 -38t-131 38z" />
    <glyph glyph-name="uni1E4F" unicode="&#x1e4f;" horiz-adv-x="1299" 
d="M346 43.5q-129 64.5 -199 192t-70 310.5q0 184 68 310.5t196 190.5t309 64t309 -64t195.5 -190.5t67.5 -310.5q0 -182 -70 -309.5t-198.5 -192.5t-303.5 -65t-304 64.5zM829.5 307q60.5 73 60.5 238q0 167 -60.5 239.5t-179.5 72.5t-180 -72t-61 -238q0 -167 60.5 -240
t180.5 -73q119 0 179.5 73zM729 1296.5q-40 12.5 -95 36.5q-54 23 -86.5 33.5t-67.5 10.5q-58 0 -104.5 -20t-95.5 -65v201q41 40 91.5 59t115.5 19q44 0 84 -12.5t95 -36.5q54 -23 86.5 -33.5t67.5 -10.5q58 0 104.5 20t95.5 65v-201q-41 -40 -91.5 -59t-115.5 -19
q-44 0 -84 12.5zM260 1669.5q-45 42.5 -45 119.5q0 78 45 120.5t133 42.5t133 -42.5t45 -120.5q0 -77 -45 -119.5t-133 -42.5t-133 42.5zM774 1669.5q-45 42.5 -45 119.5q0 78 45 120.5t133 42.5t133 -42.5t45 -120.5q0 -77 -45 -119.5t-133 -42.5t-133 42.5z" />
    <glyph glyph-name="uni1E50" unicode="&#x1e50;" horiz-adv-x="1682" 
d="M442 67q-168 86 -259 256.5t-91 416.5t91 416.5t259 256.5t399 86t399 -86.5t259 -257t91 -415.5t-91 -415.5t-259.5 -257t-398.5 -86.5q-231 0 -399 86zM1138 370q103 118 103 363q0 254 -103.5 374.5t-296.5 120.5q-192 0 -296 -117.5t-104 -363.5q0 -257 102.5 -376
t297.5 -119q194 0 297 118zM670 1955l-243 232h392l193 -232h-342zM457 1651v192h768v-192h-768z" />
    <glyph glyph-name="uni1E51" unicode="&#x1e51;" horiz-adv-x="1299" 
d="M346 43.5q-129 64.5 -199 192t-70 310.5q0 184 68 310.5t196 190.5t309 64t309 -64t195.5 -190.5t67.5 -310.5q0 -182 -70 -309.5t-198.5 -192.5t-303.5 -65t-304 64.5zM829.5 307q60.5 73 60.5 238q0 167 -60.5 239.5t-179.5 72.5t-180 -72t-61 -238q0 -167 60.5 -240
t180.5 -73q119 0 179.5 73zM280 1325v191h740v-191h-740zM499 1656l-243 303h353l192 -303h-302z" />
    <glyph glyph-name="uni1E52" unicode="&#x1e52;" horiz-adv-x="1682" 
d="M442 67q-168 86 -259 256.5t-91 416.5t91 416.5t259 256.5t399 86t399 -86.5t259 -257t91 -415.5t-91 -415.5t-259.5 -257t-398.5 -86.5q-231 0 -399 86zM1138 370q103 118 103 363q0 254 -103.5 374.5t-296.5 120.5q-192 0 -296 -117.5t-104 -363.5q0 -257 102.5 -376
t297.5 -119q194 0 297 118zM670 1955l192 232h393l-243 -232h-342zM457 1651v192h768v-192h-768z" />
    <glyph glyph-name="uni1E53" unicode="&#x1e53;" horiz-adv-x="1299" 
d="M346 43.5q-129 64.5 -199 192t-70 310.5q0 184 68 310.5t196 190.5t309 64t309 -64t195.5 -190.5t67.5 -310.5q0 -182 -70 -309.5t-198.5 -192.5t-303.5 -65t-304 64.5zM829.5 307q60.5 73 60.5 238q0 167 -60.5 239.5t-179.5 72.5t-180 -72t-61 -238q0 -167 60.5 -240
t180.5 -73q119 0 179.5 73zM280 1325v191h740v-191h-740zM496 1656l193 303h353l-243 -303h-303z" />
    <glyph glyph-name="uni1E5A" unicode="&#x1e5a;" horiz-adv-x="1453" 
d="M1057 0l-394 541h-17q-56 0 -166 6v-547h-336v1443q110 24 240.5 39.5t250.5 15.5q333 0 499.5 -116t166.5 -360q1 -158 -78 -265.5t-229 -162.5l439 -594h-376zM480 797q86 -10 177 -10q168 0 247 56t79 178q0 123 -76.5 178.5t-240.5 55.5q-91 0 -186 -17v-441z
M605 -379q-50 38 -50 106t50 106.5t151 38.5t151 -38.5t50 -106.5t-50 -106t-151 -38t-151 38z" />
    <glyph glyph-name="uni1E5B" unicode="&#x1e5b;" horiz-adv-x="855" 
d="M129 1094h273l26 -135h16q48 74 127.5 112t176.5 38q42 0 94 -8v-297q-41 8 -114 8q-76 0 -149.5 -27t-115.5 -78v-707h-334v1094zM163.5 -400.5q-45.5 41.5 -45.5 114.5q0 74 45.5 116t132.5 42t132.5 -42t45.5 -116q0 -73 -45.5 -114.5t-132.5 -41.5t-132.5 41.5z" />
    <glyph glyph-name="uni1E5E" unicode="&#x1e5e;" horiz-adv-x="1453" 
d="M1057 0l-394 541h-17q-56 0 -166 6v-547h-336v1443q110 24 240.5 39.5t250.5 15.5q333 0 499.5 -116t166.5 -360q1 -158 -78 -265.5t-229 -162.5l439 -594h-376zM480 797q86 -10 177 -10q168 0 247 56t79 178q0 123 -76.5 178.5t-240.5 55.5q-91 0 -186 -17v-441z
M372 -361v191h768v-191h-768z" />
    <glyph glyph-name="uni1E5F" unicode="&#x1e5f;" horiz-adv-x="855" 
d="M129 1094h273l26 -135h16q48 74 127.5 112t176.5 38q42 0 94 -8v-297q-41 8 -114 8q-76 0 -149.5 -27t-115.5 -78v-707h-334v1094zM-64 -378v190h720v-190h-720z" />
    <glyph glyph-name="uni1E60" unicode="&#x1e60;" horiz-adv-x="1233" 
d="M101 46v272q96 -33 219 -51.5t227 -18.5q151 0 217 43.5t66 128.5q0 47 -20 78t-67.5 53.5t-133.5 42.5l-116 25q-221 48 -324 152.5t-103 276.5q0 217 164 334t485 117q105 0 201 -12t174 -33v-272q-75 23 -171.5 36.5t-191.5 13.5q-174 0 -249 -44t-75 -126
q0 -45 17.5 -74.5t59 -51t116.5 -39.5l117 -25q239 -52 346.5 -157t107.5 -276q0 -142 -74.5 -245t-214.5 -158t-333 -55q-239 0 -444 65zM478 1644.5q-50 38.5 -50 106.5t50 106t151 38t151 -38t50 -106t-50 -106.5t-151 -38.5t-151 38.5z" />
    <glyph glyph-name="uni1E61" unicode="&#x1e61;" horiz-adv-x="1064" 
d="M280 -8.5q-99 12.5 -182 37.5v233q87 -25 185 -38t196 -13q114 0 163 27t49 80q0 40 -23 61.5t-81 31.5l-196 31q-169 27 -244 105t-75 211q0 165 138.5 259t414.5 94q85 0 169.5 -10t150.5 -28v-233q-68 19 -150.5 29.5t-164.5 10.5q-136 0 -190 -30t-54 -80
q0 -36 23 -57.5t80 -31.5l196 -31q163 -26 241.5 -99.5t78.5 -218.5q0 -110 -60.5 -189t-177.5 -121.5t-283 -42.5q-105 0 -204 12.5zM387 1295.5q-51 42.5 -51 123.5q0 82 51 124.5t154 42.5t154 -42.5t51 -124.5q0 -81 -51 -123.5t-154 -42.5t-154 42.5z" />
    <glyph glyph-name="uni1E62" unicode="&#x1e62;" horiz-adv-x="1233" 
d="M101 46v272q96 -33 219 -51.5t227 -18.5q151 0 217 43.5t66 128.5q0 47 -20 78t-67.5 53.5t-133.5 42.5l-116 25q-221 48 -324 152.5t-103 276.5q0 217 164 334t485 117q105 0 201 -12t174 -33v-272q-75 23 -171.5 36.5t-191.5 13.5q-174 0 -249 -44t-75 -126
q0 -45 17.5 -74.5t59 -51t116.5 -39.5l117 -25q239 -52 346.5 -157t107.5 -276q0 -142 -74.5 -245t-214.5 -158t-333 -55q-239 0 -444 65zM478 -379q-50 38 -50 106t50 106.5t151 38.5t151 -38.5t50 -106.5t-50 -106t-151 -38t-151 38z" />
    <glyph glyph-name="uni1E63" unicode="&#x1e63;" horiz-adv-x="1064" 
d="M280 -8.5q-99 12.5 -182 37.5v233q87 -25 185 -38t196 -13q114 0 163 27t49 80q0 40 -23 61.5t-81 31.5l-196 31q-169 27 -244 105t-75 211q0 165 138.5 259t414.5 94q85 0 169.5 -10t150.5 -28v-233q-68 19 -150.5 29.5t-164.5 10.5q-136 0 -190 -30t-54 -80
q0 -36 23 -57.5t80 -31.5l196 -31q163 -26 241.5 -99.5t78.5 -218.5q0 -110 -60.5 -189t-177.5 -121.5t-283 -42.5q-105 0 -204 12.5zM408.5 -400.5q-45.5 41.5 -45.5 114.5q0 74 45.5 116t132.5 42t132.5 -42t45.5 -116q0 -73 -45.5 -114.5t-132.5 -41.5t-132.5 41.5z" />
    <glyph glyph-name="uni1E64" unicode="&#x1e64;" horiz-adv-x="1233" 
d="M101 46v272q96 -33 219 -51.5t227 -18.5q151 0 217 43.5t66 128.5q0 47 -20 78t-67.5 53.5t-133.5 42.5l-116 25q-221 48 -324 152.5t-103 276.5q0 217 164 334t485 117q105 0 201 -12t174 -33v-272q-75 23 -171.5 36.5t-191.5 13.5q-174 0 -249 -44t-75 -126
q0 -45 17.5 -74.5t59 -51t116.5 -39.5l117 -25q239 -52 346.5 -157t107.5 -276q0 -142 -74.5 -245t-214.5 -158t-333 -55q-239 0 -444 65zM284.5 1889.5q-41.5 31.5 -41.5 87.5t41.5 88t123.5 32t123.5 -32t41.5 -88t-41.5 -87.5t-123.5 -31.5t-123.5 31.5zM475 1595
l193 303h353l-243 -303h-303z" />
    <glyph glyph-name="uni1E65" unicode="&#x1e65;" horiz-adv-x="1064" 
d="M280 -8.5q-99 12.5 -182 37.5v233q87 -25 185 -38t196 -13q114 0 163 27t49 80q0 40 -23 61.5t-81 31.5l-196 31q-169 27 -244 105t-75 211q0 165 138.5 259t414.5 94q85 0 169.5 -10t150.5 -28v-233q-68 19 -150.5 29.5t-164.5 10.5q-136 0 -190 -30t-54 -80
q0 -36 23 -57.5t80 -31.5l196 -31q163 -26 241.5 -99.5t78.5 -218.5q0 -110 -60.5 -189t-177.5 -121.5t-283 -42.5q-105 0 -204 12.5zM243 1607.5q-41 31.5 -41 87.5t41 88t124 32q82 0 123 -32t41 -88t-41 -87.5t-123 -31.5q-83 0 -124 31.5zM384 1233l240 383h363
l-289 -383h-314z" />
    <glyph glyph-name="uni1E66" unicode="&#x1e66;" horiz-adv-x="1233" 
d="M101 46v272q96 -33 219 -51.5t227 -18.5q151 0 217 43.5t66 128.5q0 47 -20 78t-67.5 53.5t-133.5 42.5l-116 25q-221 48 -324 152.5t-103 276.5q0 217 164 334t485 117q105 0 201 -12t174 -33v-272q-75 23 -171.5 36.5t-191.5 13.5q-174 0 -249 -44t-75 -126
q0 -45 17.5 -74.5t59 -51t116.5 -39.5l117 -25q239 -52 346.5 -157t107.5 -276q0 -142 -74.5 -245t-214.5 -158t-333 -55q-239 0 -444 65zM505.5 1957.5q-41.5 31.5 -41.5 87.5q0 55 41.5 87t123.5 32t123.5 -32t41.5 -87q0 -56 -41.5 -87.5t-123.5 -31.5t-123.5 31.5z
M794 1898h265l-289 -303h-282l-289 303h265l165 -179z" />
    <glyph glyph-name="uni1E67" unicode="&#x1e67;" horiz-adv-x="1064" 
d="M280 -8.5q-99 12.5 -182 37.5v233q87 -25 185 -38t196 -13q114 0 163 27t49 80q0 40 -23 61.5t-81 31.5l-196 31q-169 27 -244 105t-75 211q0 165 138.5 259t414.5 94q85 0 169.5 -10t150.5 -28v-233q-68 19 -150.5 29.5t-164.5 10.5q-136 0 -190 -30t-54 -80
q0 -36 23 -57.5t80 -31.5l196 -31q163 -26 241.5 -99.5t78.5 -218.5q0 -110 -60.5 -189t-177.5 -121.5t-283 -42.5q-105 0 -204 12.5zM417.5 1675q-41.5 32 -41.5 87q0 56 41.5 88t123.5 32t123.5 -32t41.5 -88q0 -55 -41.5 -87t-123.5 -32t-123.5 32zM687 1616h245
l-258 -383h-266l-258 383h245l146 -228z" />
    <glyph glyph-name="uni1E68" unicode="&#x1e68;" horiz-adv-x="1233" 
d="M101 46v272q96 -33 219 -51.5t227 -18.5q151 0 217 43.5t66 128.5q0 47 -20 78t-67.5 53.5t-133.5 42.5l-116 25q-221 48 -324 152.5t-103 276.5q0 217 164 334t485 117q105 0 201 -12t174 -33v-272q-75 23 -171.5 36.5t-191.5 13.5q-174 0 -249 -44t-75 -126
q0 -45 17.5 -74.5t59 -51t116.5 -39.5l117 -25q239 -52 346.5 -157t107.5 -276q0 -142 -74.5 -245t-214.5 -158t-333 -55q-239 0 -444 65zM478 -379q-50 38 -50 106t50 106.5t151 38.5t151 -38.5t50 -106.5t-50 -106t-151 -38t-151 38zM478 1644.5q-50 38.5 -50 106.5
t50 106t151 38t151 -38t50 -106t-50 -106.5t-151 -38.5t-151 38.5z" />
    <glyph glyph-name="uni1E69" unicode="&#x1e69;" horiz-adv-x="1064" 
d="M280 -8.5q-99 12.5 -182 37.5v233q87 -25 185 -38t196 -13q114 0 163 27t49 80q0 40 -23 61.5t-81 31.5l-196 31q-169 27 -244 105t-75 211q0 165 138.5 259t414.5 94q85 0 169.5 -10t150.5 -28v-233q-68 19 -150.5 29.5t-164.5 10.5q-136 0 -190 -30t-54 -80
q0 -36 23 -57.5t80 -31.5l196 -31q163 -26 241.5 -99.5t78.5 -218.5q0 -110 -60.5 -189t-177.5 -121.5t-283 -42.5q-105 0 -204 12.5zM408.5 -400.5q-45.5 41.5 -45.5 114.5q0 74 45.5 116t132.5 42t132.5 -42t45.5 -116q0 -73 -45.5 -114.5t-132.5 -41.5t-132.5 41.5z
M387 1295.5q-51 42.5 -51 123.5q0 82 51 124.5t154 42.5t154 -42.5t51 -124.5q0 -81 -51 -123.5t-154 -42.5t-154 42.5z" />
    <glyph glyph-name="uni1E6C" unicode="&#x1e6c;" horiz-adv-x="1368" 
d="M513 0v1206h-495v274h1333v-274h-496v-1206h-342zM533 -379q-50 38 -50 106t50 106.5t151 38.5t151 -38.5t50 -106.5t-50 -106t-151 -38t-151 38z" />
    <glyph glyph-name="uni1E6D" unicode="&#x1e6d;" horiz-adv-x="900" 
d="M858 262v-258q-48 -11 -105 -18t-109 -7q-429 0 -429 412v440h-189v263h189l60 386h274v-386h303v-263h-303v-380q0 -76 19.5 -120.5t60.5 -63.5t108 -19q46 0 121 14zM404.5 -400.5q-45.5 41.5 -45.5 114.5q0 74 45.5 116t132.5 42t132.5 -42t45.5 -116
q0 -73 -45.5 -114.5t-132.5 -41.5t-132.5 41.5z" />
    <glyph glyph-name="uni1E6E" unicode="&#x1e6e;" horiz-adv-x="1368" 
d="M513 0v1206h-495v274h1333v-274h-496v-1206h-342zM300 -361v191h768v-191h-768z" />
    <glyph glyph-name="uni1E6F" unicode="&#x1e6f;" horiz-adv-x="900" 
d="M858 262v-258q-48 -11 -105 -18t-109 -7q-429 0 -429 412v440h-189v263h189l60 386h274v-386h303v-263h-303v-380q0 -76 19.5 -120.5t60.5 -63.5t108 -19q46 0 121 14zM177 -378v190h720v-190h-720z" />
    <glyph glyph-name="uni1E78" unicode="&#x1e78;" horiz-adv-x="1596" 
d="M297.5 144q-159.5 163 -159.5 491v845h341v-876q0 -180 79 -264t243 -84q165 0 243.5 84t78.5 264v876h336v-845q0 -327 -159 -490.5t-499 -163.5q-344 0 -503.5 163zM630 1955l192 232h393l-243 -232h-342zM888 1630q-43 10 -103 29q-55 18 -92.5 26.5t-77.5 8.5
q-62 0 -109.5 -16t-97.5 -52v182q42 37 93 54.5t121 17.5q49 0 92 -10t103 -29q57 -18 93.5 -27t76.5 -9q62 0 110 16t97 51v-182q-42 -36 -92.5 -53t-121.5 -17q-49 0 -92 10z" />
    <glyph glyph-name="uni1E79" unicode="&#x1e79;" horiz-adv-x="1301" 
d="M231 91.5q-111 109.5 -111 342.5v660h334v-641q0 -102 42 -145.5t123 -43.5q60 0 119.5 24.5t99.5 70.5v735h334v-1094h-274l-21 107h-14q-67 -61 -151.5 -93t-176.5 -32q-193 0 -304 109.5zM725 1296.5q-40 12.5 -95 36.5q-54 23 -86.5 33.5t-67.5 10.5
q-58 0 -104.5 -20t-95.5 -65v201q41 40 91.5 59t115.5 19q44 0 84 -12.5t95 -36.5q54 -23 86.5 -33.5t67.5 -10.5q58 0 104.5 20t95.5 65v-201q-41 -40 -91.5 -59t-115.5 -19q-44 0 -84 12.5zM663 2090l193 303h353l-243 -303h-303z" />
    <glyph glyph-name="uni1E7A" unicode="&#x1e7a;" horiz-adv-x="1596" 
d="M297.5 144q-159.5 163 -159.5 491v845h341v-876q0 -180 79 -264t243 -84q165 0 243.5 84t78.5 264v876h336v-845q0 -327 -159 -490.5t-499 -163.5q-344 0 -503.5 163zM417 1651v192h768v-192h-768zM401 1992q-44 38 -44 107t43.5 106.5t131.5 37.5q87 0 131 -37.5
t44 -106.5t-44 -107t-131 -38t-131 38zM939 1992q-44 38 -44 107t44 106.5t131 37.5q88 0 131.5 -37.5t43.5 -106.5t-44 -107t-131 -38t-131 38z" />
    <glyph glyph-name="uni1E7B" unicode="&#x1e7b;" horiz-adv-x="1301" 
d="M231 91.5q-111 109.5 -111 342.5v660h334v-641q0 -102 42 -145.5t123 -43.5q60 0 119.5 24.5t99.5 70.5v735h334v-1094h-274l-21 107h-14q-67 -61 -151.5 -93t-176.5 -32q-193 0 -304 109.5zM276 1325v191h740v-191h-740zM256 1669.5q-45 42.5 -45 119.5q0 78 45 120.5
t133 42.5t133 -42.5t45 -120.5q0 -77 -45 -119.5t-133 -42.5t-133 42.5zM770 1669.5q-45 42.5 -45 119.5q0 78 45 120.5t133 42.5t133 -42.5t45 -120.5q0 -77 -45 -119.5t-133 -42.5t-133 42.5z" />
    <glyph glyph-name="Wgrave" unicode="&#x1e80;" horiz-adv-x="2451" 
d="M2089 1480h325l-424 -1480h-435l-325 1133l-334 -1133h-435l-425 1480h346l320 -1174l343 1174h378l336 -1191zM1075 1595l-243 303h353l192 -303h-302z" />
    <glyph glyph-name="wgrave" unicode="&#x1e81;" horiz-adv-x="1935" 
d="M1572 1094h306l-309 -1094h-374l-224 792l-230 -792h-373l-311 1094h320l198 -755l213 755h373l208 -744zM812 1233l-289 383h363l240 -383h-314z" />
    <glyph glyph-name="Wacute" unicode="&#x1e82;" horiz-adv-x="2451" 
d="M2089 1480h325l-424 -1480h-435l-325 1133l-334 -1133h-435l-425 1480h346l320 -1174l343 1174h378l336 -1191zM1072 1595l193 303h353l-243 -303h-303z" />
    <glyph glyph-name="wacute" unicode="&#x1e83;" horiz-adv-x="1935" 
d="M1572 1094h306l-309 -1094h-374l-224 792l-230 -792h-373l-311 1094h320l198 -755l213 755h373l208 -744zM812 1233l240 383h363l-289 -383h-314z" />
    <glyph glyph-name="Wdieresis" unicode="&#x1e84;" horiz-adv-x="2451" 
d="M2089 1480h325l-424 -1480h-435l-325 1133l-334 -1133h-435l-425 1480h346l320 -1174l343 1174h378l336 -1191zM826 1644q-44 38 -44 107t43.5 106.5t131.5 37.5q87 0 131 -37.5t44 -106.5t-44 -107t-131 -38t-131 38zM1364 1644q-44 38 -44 107t44 106.5t131 37.5
q88 0 131.5 -37.5t43.5 -106.5t-44 -107t-131 -38t-131 38z" />
    <glyph glyph-name="wdieresis" unicode="&#x1e85;" horiz-adv-x="1935" 
d="M1572 1094h306l-309 -1094h-374l-224 792l-230 -792h-373l-311 1094h320l198 -755l213 755h373l208 -744zM579 1299.5q-45 42.5 -45 119.5q0 78 45 120.5t133 42.5t133 -42.5t45 -120.5q0 -77 -45 -119.5t-133 -42.5t-133 42.5zM1093 1299.5q-45 42.5 -45 119.5
q0 78 45 120.5t133 42.5t133 -42.5t45 -120.5q0 -77 -45 -119.5t-133 -42.5t-133 42.5z" />
    <glyph glyph-name="uni1E8E" unicode="&#x1e8e;" horiz-adv-x="1368" 
d="M1403 1480l-546 -852v-628h-341v625l-565 855h364l378 -579l371 579h339zM532 1644.5q-50 38.5 -50 106.5t50 106t151 38t151 -38t50 -106t-50 -106.5t-151 -38.5t-151 38.5z" />
    <glyph glyph-name="uni1E8F" unicode="&#x1e8f;" horiz-adv-x="1255" 
d="M928 1094h328l-596 -1534h-327l173 440h-84l-423 1094h351l287 -806zM474 1295.5q-51 42.5 -51 123.5q0 82 51 124.5t154 42.5t154 -42.5t51 -124.5q0 -81 -51 -123.5t-154 -42.5t-154 42.5z" />
    <glyph glyph-name="uni1E92" unicode="&#x1e92;" horiz-adv-x="1329" 
d="M512 273h745v-273h-1186v185l735 1022h-724v273h1165v-185zM513 -379q-50 38 -50 106t50 106.5t151 38.5t151 -38.5t50 -106.5t-50 -106t-151 -38t-151 38z" />
    <glyph glyph-name="uni1E93" unicode="&#x1e93;" horiz-adv-x="1107" 
d="M509 263h538v-263h-970v214l527 617h-517v263h949v-214zM429.5 -400.5q-45.5 41.5 -45.5 114.5q0 74 45.5 116t132.5 42t132.5 -42t45.5 -116q0 -73 -45.5 -114.5t-132.5 -41.5t-132.5 41.5z" />
    <glyph glyph-name="uni1E97" unicode="&#x1e97;" horiz-adv-x="900" 
d="M858 262v-258q-48 -11 -105 -18t-109 -7q-429 0 -429 412v440h-189v263h189l60 386h274v-386h303v-263h-303v-380q0 -76 19.5 -120.5t60.5 -63.5t108 -19q46 0 121 14zM-8 1607.5q-45 42.5 -45 119.5q0 78 45 120.5t133 42.5t133 -42.5t45 -120.5q0 -77 -45 -119.5
t-133 -42.5t-133 42.5zM506 1607.5q-45 42.5 -45 119.5q0 78 45 120.5t133 42.5t133 -42.5t45 -120.5q0 -77 -45 -119.5t-133 -42.5t-133 42.5z" />
    <glyph glyph-name="uni1E9E" unicode="&#x1e9e;" horiz-adv-x="1938" 
d="M1768.5 714.5q103.5 -104.5 103.5 -275.5q0 -142 -72 -245t-209 -158t-327 -55q-109 0 -216.5 16t-203.5 45v272q92 -30 209.5 -48t207.5 -18q150 0 214.5 43.5t64.5 128.5q0 47 -19 78.5t-63.5 54t-123.5 41.5l-111 25q-214 49 -313.5 153t-99.5 276q0 98 33 176
q-34 7 -75 7q-143 0 -212.5 -75t-69.5 -225v-931h-342v890q0 296 154.5 452.5t469.5 156.5q177 0 312 -57q146 57 363 57q98 0 190 -11t165 -31v-272q-73 22 -164.5 34.5t-174.5 12.5q-170 0 -243 -44t-73 -126q0 -45 16.5 -75t55 -51.5t107.5 -38.5l111 -25
q232 -53 335.5 -157.5z" />
    <glyph glyph-name="uni1EA0" unicode="&#x1ea0;" horiz-adv-x="1567" 
d="M1211 0l-132 394h-594l-132 -394h-333l517 1480h493l517 -1480h-336zM572 655h420l-210 627zM633 -379q-50 38 -50 106t50 106.5t151 38.5t151 -38.5t50 -106.5t-50 -106t-151 -38t-151 38z" />
    <glyph glyph-name="uni1EA1" unicode="&#x1ea1;" horiz-adv-x="1198" 
d="M849 1066q117 -45 173 -148.5t56 -282.5v-635h-276l-23 105h-15q-54 -63 -134 -94t-177 -31q-121 0 -207 40t-130.5 112t-44.5 166q0 156 116.5 241.5t365.5 101.5l199 15v4q0 78 -26.5 123t-85 64t-158.5 19q-71 0 -157 -12t-160 -35v243q84 24 184 36.5t190 12.5
q193 0 310 -45zM661.5 220q50.5 17 90.5 54v200l-168 -13q-97 -8 -139.5 -41t-42.5 -93q0 -59 39.5 -91.5t116.5 -32.5q53 0 103.5 17zM467.5 -400.5q-45.5 41.5 -45.5 114.5q0 74 45.5 116t132.5 42t132.5 -42t45.5 -116q0 -73 -45.5 -114.5t-132.5 -41.5t-132.5 41.5z" />
    <glyph glyph-name="uni1EA2" unicode="&#x1ea2;" horiz-adv-x="1567" 
d="M1211 0l-132 394h-594l-132 -394h-333l517 1480h493l517 -1480h-336zM572 655h420l-210 627zM731 1660.5q29 23.5 80 46.5q34 16 49 26.5t15 25.5q0 37 -115 37q-97 0 -201 -25v120q46 12 107 19t118 7q134 0 198.5 -35t64.5 -100q0 -44 -28.5 -70.5t-79.5 -52.5
q-36 -19 -53 -32t-20 -32h-166q2 42 31 65.5z" />
    <glyph glyph-name="uni1EA3" unicode="&#x1ea3;" horiz-adv-x="1198" 
d="M849 1066q117 -45 173 -148.5t56 -282.5v-635h-276l-23 105h-15q-54 -63 -134 -94t-177 -31q-121 0 -207 40t-130.5 112t-44.5 166q0 156 116.5 241.5t365.5 101.5l199 15v4q0 78 -26.5 123t-85 64t-158.5 19q-71 0 -157 -12t-160 -35v243q84 24 184 36.5t190 12.5
q193 0 310 -45zM661.5 220q50.5 17 90.5 54v200l-168 -13q-97 -8 -139.5 -41t-42.5 -93q0 -59 39.5 -91.5t116.5 -32.5q53 0 103.5 17zM529.5 1302q15.5 29 35.5 47t51 40q29 19 42.5 33.5t13.5 32.5q0 25 -24 36.5t-80 11.5q-85 0 -173 -24v124q38 12 93 18.5t102 6.5
q130 0 191.5 -37.5t61.5 -115.5q0 -35 -12 -60t-29 -41t-46 -37q-37 -27 -56 -48.5t-22 -55.5h-166q2 40 17.5 69z" />
    <glyph glyph-name="uni1EA4" unicode="&#x1ea4;" horiz-adv-x="1567" 
d="M1211 0l-132 394h-594l-132 -394h-333l517 1480h493l517 -1480h-336zM572 655h420l-210 627zM1172 2064h234l-170 -247h-191zM642 1867h282l289 -272h-265l-165 163l-165 -163h-265z" />
    <glyph glyph-name="uni1EA5" unicode="&#x1ea5;" horiz-adv-x="1198" 
d="M849 1066q117 -45 173 -148.5t56 -282.5v-635h-276l-23 105h-15q-54 -63 -134 -94t-177 -31q-121 0 -207 40t-130.5 112t-44.5 166q0 156 116.5 241.5t365.5 101.5l199 15v4q0 78 -26.5 123t-85 64t-158.5 19q-71 0 -157 -12t-160 -35v243q84 24 184 36.5t190 12.5
q193 0 310 -45zM661.5 220q50.5 17 90.5 54v200l-168 -13q-97 -8 -139.5 -41t-42.5 -93q0 -59 39.5 -91.5t116.5 -32.5q53 0 103.5 17zM1021 1868h286l-243 -271h-235zM462 1616h266l256 -383h-244l-145 228l-145 -228h-244z" />
    <glyph glyph-name="uni1EA6" unicode="&#x1ea6;" horiz-adv-x="1567" 
d="M1211 0l-132 394h-594l-132 -394h-333l517 1480h493l517 -1480h-336zM572 655h420l-210 627zM1270 1817h-191l-171 247h235zM642 1867h282l289 -272h-265l-165 163l-165 -163h-265z" />
    <glyph glyph-name="uni1EA7" unicode="&#x1ea7;" horiz-adv-x="1198" 
d="M849 1066q117 -45 173 -148.5t56 -282.5v-635h-276l-23 105h-15q-54 -63 -134 -94t-177 -31q-121 0 -207 40t-130.5 112t-44.5 166q0 156 116.5 241.5t365.5 101.5l199 15v4q0 78 -26.5 123t-85 64t-158.5 19q-71 0 -157 -12t-160 -35v243q84 24 184 36.5t190 12.5
q193 0 310 -45zM661.5 220q50.5 17 90.5 54v200l-168 -13q-97 -8 -139.5 -41t-42.5 -93q0 -59 39.5 -91.5t116.5 -32.5q53 0 103.5 17zM1097 1597h-236l-242 271h285zM462 1616h266l256 -383h-244l-145 228l-145 -228h-244z" />
    <glyph glyph-name="uni1EA8" unicode="&#x1ea8;" horiz-adv-x="1567" 
d="M1211 0l-132 394h-594l-132 -394h-333l517 1480h493l517 -1480h-336zM572 655h420l-210 627zM1326 2074.5q65 -31.5 65 -89.5q0 -40 -28 -63t-79 -47q-35 -16 -53 -28.5t-21 -29.5h-166q2 38 30.5 59t79.5 42q33 13 49 23.5t16 24.5q0 33 -115 33q-100 0 -200 -23v105
q46 11 107 18t117 7q133 0 198 -31.5zM642 1867h282l289 -272h-265l-165 163l-165 -163h-265z" />
    <glyph glyph-name="uni1EA9" unicode="&#x1ea9;" horiz-adv-x="1198" 
d="M849 1066q117 -45 173 -148.5t56 -282.5v-635h-276l-23 105h-15q-54 -63 -134 -94t-177 -31q-121 0 -207 40t-130.5 112t-44.5 166q0 156 116.5 241.5t365.5 101.5l199 15v4q0 78 -26.5 123t-85 64t-158.5 19q-71 0 -157 -12t-160 -35v243q84 24 184 36.5t190 12.5
q193 0 310 -45zM661.5 220q50.5 17 90.5 54v200l-168 -13q-97 -8 -139.5 -41t-42.5 -93q0 -59 39.5 -91.5t116.5 -32.5q53 0 103.5 17zM1085 1856.5q58 -29.5 58 -90.5q0 -33 -22 -52.5t-64 -40.5q-37 -19 -56.5 -35t-23.5 -41h-150q3 44 30.5 67t74.5 43q26 12 38 20t12 19
q0 18 -24.5 27t-78.5 9q-99 0 -183 -22v101q38 11 96.5 18t110.5 7q124 0 182 -29.5zM462 1616h266l256 -383h-244l-145 228l-145 -228h-244z" />
    <glyph glyph-name="uni1EAA" unicode="&#x1eaa;" horiz-adv-x="1567" 
d="M1211 0l-132 394h-594l-132 -394h-333l517 1480h493l517 -1480h-336zM572 655h420l-210 627zM1091 2058.5q53 15.5 122 52.5v-139q-58 -36 -113.5 -49t-126.5 -13q-53 0 -101.5 9t-111.5 25q-61 15 -96.5 21.5t-73.5 6.5q-61 0 -114.5 -15t-122.5 -52v139q59 35 115 49
t125 14q53 0 100 -9t113 -26q56 -15 94 -22t76 -7q62 0 115 15.5zM642 1867h282l289 -272h-265l-165 163l-165 -163h-265z" />
    <glyph glyph-name="uni1EAB" unicode="&#x1eab;" horiz-adv-x="1198" 
d="M849 1066q117 -45 173 -148.5t56 -282.5v-635h-276l-23 105h-15q-54 -63 -134 -94t-177 -31q-121 0 -207 40t-130.5 112t-44.5 166q0 156 116.5 241.5t365.5 101.5l199 15v4q0 78 -26.5 123t-85 64t-158.5 19q-71 0 -157 -12t-160 -35v243q84 24 184 36.5t190 12.5
q193 0 310 -45zM661.5 220q50.5 17 90.5 54v200l-168 -13q-97 -8 -139.5 -41t-42.5 -93q0 -59 39.5 -91.5t116.5 -32.5q53 0 103.5 17zM681.5 1628.5q-41.5 8.5 -102.5 26.5q-57 16 -92.5 24t-74.5 8q-61 0 -108.5 -14.5t-96.5 -46.5v159q42 33 92.5 49t119.5 16q48 0 91 -9
t101 -27q57 -16 92.5 -24t74.5 -8q61 0 108.5 14.5t96.5 46.5v-160q-42 -33 -92.5 -48t-119.5 -15q-48 0 -89.5 8.5zM1019 1235h-262l-162 200l-162 -200h-262l283 327h282z" />
    <glyph glyph-name="uni1EAC" unicode="&#x1eac;" horiz-adv-x="1567" 
d="M1211 0l-132 394h-594l-132 -394h-333l517 1480h493l517 -1480h-336zM572 655h420l-210 627zM633 -379q-50 38 -50 106t50 106.5t151 38.5t151 -38.5t50 -106.5t-50 -106t-151 -38t-151 38zM1213 1595h-265l-165 179l-165 -179h-265l289 303h282z" />
    <glyph glyph-name="uni1EAD" unicode="&#x1ead;" horiz-adv-x="1198" 
d="M849 1066q117 -45 173 -148.5t56 -282.5v-635h-276l-23 105h-15q-54 -63 -134 -94t-177 -31q-121 0 -207 40t-130.5 112t-44.5 166q0 156 116.5 241.5t365.5 101.5l199 15v4q0 78 -26.5 123t-85 64t-158.5 19q-71 0 -157 -12t-160 -35v243q84 24 184 36.5t190 12.5
q193 0 310 -45zM661.5 220q50.5 17 90.5 54v200l-168 -13q-97 -8 -139.5 -41t-42.5 -93q0 -59 39.5 -91.5t116.5 -32.5q53 0 103.5 17zM467.5 -400.5q-45.5 41.5 -45.5 114.5q0 74 45.5 116t132.5 42t132.5 -42t45.5 -116q0 -73 -45.5 -114.5t-132.5 -41.5t-132.5 41.5z
M984 1233h-244l-145 228l-145 -228h-244l256 383h266z" />
    <glyph glyph-name="uni1EAE" unicode="&#x1eae;" horiz-adv-x="1567" 
d="M1211 0l-132 394h-594l-132 -394h-333l517 1480h493l517 -1480h-336zM572 655h420l-210 627zM688 1833l127 241h234l-171 -241h-190zM516.5 1668q-93.5 69 -113.5 191h173q15 -64 60 -94.5t147 -30.5q70 0 112.5 14.5t65 41t36.5 69.5h166q-20 -122 -113.5 -191
t-266.5 -69t-266.5 69z" />
    <glyph glyph-name="uni1EAF" unicode="&#x1eaf;" horiz-adv-x="1198" 
d="M849 1066q117 -45 173 -148.5t56 -282.5v-635h-276l-23 105h-15q-54 -63 -134 -94t-177 -31q-121 0 -207 40t-130.5 112t-44.5 166q0 156 116.5 241.5t365.5 101.5l199 15v4q0 78 -26.5 123t-85 64t-158.5 19q-71 0 -157 -12t-160 -35v243q84 24 184 36.5t190 12.5
q193 0 310 -45zM661.5 220q50.5 17 90.5 54v200l-168 -13q-97 -8 -139.5 -41t-42.5 -93q0 -59 39.5 -91.5t116.5 -32.5q53 0 103.5 17zM475 1597l193 271h285l-243 -271h-235zM309.5 1330q-101.5 85 -118.5 230h203q26 -155 202 -155q174 0 200 155h203q-17 -145 -118 -230
t-285 -85q-185 0 -286.5 85z" />
    <glyph glyph-name="uni1EB0" unicode="&#x1eb0;" horiz-adv-x="1567" 
d="M1211 0l-132 394h-594l-132 -394h-333l517 1480h493l517 -1480h-336zM572 655h420l-210 627zM688 1833l-171 241h234l127 -241h-190zM516.5 1668q-93.5 69 -113.5 191h166q14 -43 36.5 -69.5t65 -41t112.5 -14.5q102 0 147 30.5t60 94.5h173q-20 -122 -113.5 -191
t-266.5 -69t-266.5 69z" />
    <glyph glyph-name="uni1EB1" unicode="&#x1eb1;" horiz-adv-x="1198" 
d="M849 1066q117 -45 173 -148.5t56 -282.5v-635h-276l-23 105h-15q-54 -63 -134 -94t-177 -31q-121 0 -207 40t-130.5 112t-44.5 166q0 156 116.5 241.5t365.5 101.5l199 15v4q0 78 -26.5 123t-85 64t-158.5 19q-71 0 -157 -12t-160 -35v243q84 24 184 36.5t190 12.5
q193 0 310 -45zM661.5 220q50.5 17 90.5 54v200l-168 -13q-97 -8 -139.5 -41t-42.5 -93q0 -59 39.5 -91.5t116.5 -32.5q53 0 103.5 17zM480 1597l-243 271h285l193 -271h-235zM309.5 1330q-101.5 85 -118.5 230h203q26 -155 202 -155q174 0 200 155h203q-17 -145 -118 -230
t-285 -85q-185 0 -286.5 85z" />
    <glyph glyph-name="uni1EB2" unicode="&#x1eb2;" horiz-adv-x="1567" 
d="M1211 0l-132 394h-594l-132 -394h-333l517 1480h493l517 -1480h-336zM572 655h420l-210 627zM730.5 1892q28.5 21 79.5 42q33 13 49 23.5t16 24.5q0 34 -115 34q-95 0 -201 -24v105q47 11 108 18t117 7q133 0 198 -31.5t65 -89.5q0 -40 -28 -63t-79 -47
q-35 -16 -53 -28.5t-21 -29.5h-166q2 38 30.5 59zM516.5 1668q-93.5 69 -113.5 191h173q15 -64 59.5 -94.5t146.5 -30.5q70 0 113 14.5t65.5 41t36.5 69.5h166q-20 -122 -114 -191t-267 -69q-172 0 -265.5 69z" />
    <glyph glyph-name="uni1EB3" unicode="&#x1eb3;" horiz-adv-x="1198" 
d="M849 1066q117 -45 173 -148.5t56 -282.5v-635h-276l-23 105h-15q-54 -63 -134 -94t-177 -31q-121 0 -207 40t-130.5 112t-44.5 166q0 156 116.5 241.5t365.5 101.5l199 15v4q0 78 -26.5 123t-85 64t-158.5 19q-71 0 -157 -12t-160 -35v243q84 24 184 36.5t190 12.5
q193 0 310 -45zM661.5 220q50.5 17 90.5 54v200l-168 -13q-97 -8 -139.5 -41t-42.5 -93q0 -59 39.5 -91.5t116.5 -32.5q53 0 103.5 17zM542.5 1656q28.5 21 79.5 42q33 13 49 23.5t16 24.5q0 34 -115 34q-95 0 -201 -24v105q47 11 108 18t117 7q133 0 198 -31.5t65 -89.5
q0 -40 -28 -63t-79 -47q-35 -16 -53 -28.5t-21 -29.5h-166q2 38 30.5 59zM309.5 1330q-101.5 85 -118.5 230h203q26 -155 202 -155q174 0 200 155h203q-17 -145 -118 -230t-285 -85q-185 0 -286.5 85z" />
    <glyph glyph-name="uni1EB4" unicode="&#x1eb4;" horiz-adv-x="1567" 
d="M1211 0l-132 394h-594l-132 -394h-333l517 1480h493l517 -1480h-336zM572 655h420l-210 627zM857 1919q-41 9 -94 25q-52 15 -81.5 21.5t-59.5 6.5q-54 0 -102.5 -15t-116.5 -52v139q59 35 109.5 49t112.5 14q43 0 83 -9t95 -26q48 -15 79 -22t62 -7q54 0 102.5 15
t116.5 53v-139q-58 -36 -108.5 -49t-113.5 -13q-43 0 -84 9zM516.5 1668q-93.5 69 -113.5 191h173q15 -64 59.5 -94.5t146.5 -30.5q103 0 148 30.5t60 94.5h173q-20 -122 -114 -191t-267 -69q-172 0 -265.5 69z" />
    <glyph glyph-name="uni1EB5" unicode="&#x1eb5;" horiz-adv-x="1198" 
d="M849 1066q117 -45 173 -148.5t56 -282.5v-635h-276l-23 105h-15q-54 -63 -134 -94t-177 -31q-121 0 -207 40t-130.5 112t-44.5 166q0 156 116.5 241.5t365.5 101.5l199 15v4q0 78 -26.5 123t-85 64t-158.5 19q-71 0 -157 -12t-160 -35v243q84 24 184 36.5t190 12.5
q193 0 310 -45zM661.5 220q50.5 17 90.5 54v200l-168 -13q-97 -8 -139.5 -41t-42.5 -93q0 -59 39.5 -91.5t116.5 -32.5q53 0 103.5 17zM686 1628.5q-44 8.5 -108 26.5q-59 16 -97 24t-79 8q-64 0 -114 -14.5t-103 -46.5v159q44 34 97.5 49.5t126.5 15.5q52 0 97 -9t106 -27
q59 -16 97 -24t79 -8q64 0 114 14.5t103 46.5v-159q-44 -34 -97 -49t-127 -15q-51 0 -95 8.5zM309.5 1330q-101.5 85 -118.5 230h203q26 -155 202 -155q174 0 200 155h203q-17 -145 -118 -230t-285 -85q-185 0 -286.5 85z" />
    <glyph glyph-name="uni1EB6" unicode="&#x1eb6;" horiz-adv-x="1567" 
d="M1211 0l-132 394h-594l-132 -394h-333l517 1480h493l517 -1480h-336zM572 655h420l-210 627zM633 -379q-50 38 -50 106t50 106.5t151 38.5t151 -38.5t50 -106.5t-50 -106t-151 -38t-151 38zM493.5 1677.5q-102.5 78.5 -120.5 211.5h203q14 -64 63.5 -97t144.5 -33
q94 0 143.5 33.5t62.5 96.5h203q-18 -134 -119.5 -212t-289.5 -78t-290.5 78.5z" />
    <glyph glyph-name="uni1EB7" unicode="&#x1eb7;" horiz-adv-x="1198" 
d="M849 1066q117 -45 173 -148.5t56 -282.5v-635h-276l-23 105h-15q-54 -63 -134 -94t-177 -31q-121 0 -207 40t-130.5 112t-44.5 166q0 156 116.5 241.5t365.5 101.5l199 15v4q0 78 -26.5 123t-85 64t-158.5 19q-71 0 -157 -12t-160 -35v243q84 24 184 36.5t190 12.5
q193 0 310 -45zM661.5 220q50.5 17 90.5 54v200l-168 -13q-97 -8 -139.5 -41t-42.5 -93q0 -59 39.5 -91.5t116.5 -32.5q53 0 103.5 17zM467.5 -400.5q-45.5 41.5 -45.5 114.5q0 74 45.5 116t132.5 42t132.5 -42t45.5 -116q0 -73 -45.5 -114.5t-132.5 -41.5t-132.5 41.5z
M315.5 1333q-100.5 92 -109.5 261h201q8 -93 54 -140t135 -47q88 0 133.5 47t53.5 140h201q-9 -169 -109 -261t-279 -92q-180 0 -280.5 92z" />
    <glyph glyph-name="uni1EB8" unicode="&#x1eb8;" horiz-adv-x="1345" 
d="M482 262h783v-262h-1121v1480h1111v-262h-773v-330h670v-262h-670v-364zM571 -379q-50 38 -50 106t50 106.5t151 38.5t151 -38.5t50 -106.5t-50 -106t-151 -38t-151 38z" />
    <glyph glyph-name="uni1EB9" unicode="&#x1eb9;" horiz-adv-x="1188" 
d="M1124 454h-716q6 -87 41 -136.5t110.5 -72t207.5 -22.5q135 0 292 33v-240q-171 -37 -342 -37q-220 0 -361.5 60t-210 184.5t-68.5 321.5q0 180 63 307t184 193t293 66q248 0 377.5 -148.5t129.5 -427.5v-81zM461.5 842.5q-50.5 -62.5 -54.5 -203.5h408
q-4 141 -53.5 203.5t-148.5 62.5q-101 0 -151.5 -62.5zM479.5 -400.5q-45.5 41.5 -45.5 114.5q0 74 45.5 116t132.5 42t132.5 -42t45.5 -116q0 -73 -45.5 -114.5t-132.5 -41.5t-132.5 41.5z" />
    <glyph glyph-name="uni1EBA" unicode="&#x1eba;" horiz-adv-x="1345" 
d="M482 262h783v-262h-1121v1480h1111v-262h-773v-330h670v-262h-670v-364zM669 1660.5q29 23.5 80 46.5q34 16 49 26.5t15 25.5q0 37 -115 37q-97 0 -201 -25v120q46 12 107 19t118 7q134 0 198.5 -35t64.5 -100q0 -44 -28.5 -70.5t-79.5 -52.5q-36 -19 -53 -32t-20 -32
h-166q2 42 31 65.5z" />
    <glyph glyph-name="uni1EBB" unicode="&#x1ebb;" horiz-adv-x="1188" 
d="M1124 454h-716q6 -87 41 -136.5t110.5 -72t207.5 -22.5q135 0 292 33v-240q-171 -37 -342 -37q-220 0 -361.5 60t-210 184.5t-68.5 321.5q0 180 63 307t184 193t293 66q248 0 377.5 -148.5t129.5 -427.5v-81zM461.5 842.5q-50.5 -62.5 -54.5 -203.5h408
q-4 141 -53.5 203.5t-148.5 62.5q-101 0 -151.5 -62.5zM546.5 1302q15.5 29 35.5 47t51 40q29 19 42.5 33.5t13.5 32.5q0 25 -24 36.5t-80 11.5q-85 0 -173 -24v124q38 12 93 18.5t102 6.5q130 0 191.5 -37.5t61.5 -115.5q0 -35 -12 -60t-29 -41t-46 -37q-37 -27 -56 -48.5
t-22 -55.5h-166q2 40 17.5 69z" />
    <glyph glyph-name="uni1EBC" unicode="&#x1ebc;" horiz-adv-x="1345" 
d="M482 262h783v-262h-1121v1480h1111v-262h-773v-330h670v-262h-670v-364zM808 1630q-43 10 -103 29q-55 18 -92.5 26.5t-77.5 8.5q-62 0 -109.5 -16t-97.5 -52v182q42 37 93 54.5t121 17.5q49 0 92 -10t103 -29q57 -18 93.5 -27t76.5 -9q62 0 110 16t97 51v-182
q-42 -36 -92.5 -53t-121.5 -17q-49 0 -92 10z" />
    <glyph glyph-name="uni1EBD" unicode="&#x1ebd;" horiz-adv-x="1188" 
d="M1124 454h-716q6 -87 41 -136.5t110.5 -72t207.5 -22.5q135 0 292 33v-240q-171 -37 -342 -37q-220 0 -361.5 60t-210 184.5t-68.5 321.5q0 180 63 307t184 193t293 66q248 0 377.5 -148.5t129.5 -427.5v-81zM461.5 842.5q-50.5 -62.5 -54.5 -203.5h408
q-4 141 -53.5 203.5t-148.5 62.5q-101 0 -151.5 -62.5zM691 1296.5q-40 12.5 -95 36.5q-54 23 -86.5 33.5t-67.5 10.5q-58 0 -104.5 -20t-95.5 -65v201q41 40 91.5 59t115.5 19q44 0 84 -12.5t95 -36.5q54 -23 86.5 -33.5t67.5 -10.5q58 0 104.5 20t95.5 65v-201
q-41 -40 -91.5 -59t-115.5 -19q-44 0 -84 12.5z" />
    <glyph glyph-name="uni1EBE" unicode="&#x1ebe;" horiz-adv-x="1345" 
d="M482 262h783v-262h-1121v1480h1111v-262h-773v-330h670v-262h-670v-364zM1110 2064h234l-170 -247h-191zM580 1867h282l289 -272h-265l-165 163l-165 -163h-265z" />
    <glyph glyph-name="uni1EBF" unicode="&#x1ebf;" horiz-adv-x="1188" 
d="M1124 454h-716q6 -87 41 -136.5t110.5 -72t207.5 -22.5q135 0 292 33v-240q-171 -37 -342 -37q-220 0 -361.5 60t-210 184.5t-68.5 321.5q0 180 63 307t184 193t293 66q248 0 377.5 -148.5t129.5 -427.5v-81zM461.5 842.5q-50.5 -62.5 -54.5 -203.5h408
q-4 141 -53.5 203.5t-148.5 62.5q-101 0 -151.5 -62.5zM1038 1868h286l-243 -271h-235zM479 1616h266l256 -383h-244l-145 228l-145 -228h-244z" />
    <glyph glyph-name="uni1EC0" unicode="&#x1ec0;" horiz-adv-x="1345" 
d="M482 262h783v-262h-1121v1480h1111v-262h-773v-330h670v-262h-670v-364zM1208 1817h-191l-171 247h235zM580 1867h282l289 -272h-265l-165 163l-165 -163h-265z" />
    <glyph glyph-name="uni1EC1" unicode="&#x1ec1;" horiz-adv-x="1188" 
d="M1124 454h-716q6 -87 41 -136.5t110.5 -72t207.5 -22.5q135 0 292 33v-240q-171 -37 -342 -37q-220 0 -361.5 60t-210 184.5t-68.5 321.5q0 180 63 307t184 193t293 66q248 0 377.5 -148.5t129.5 -427.5v-81zM461.5 842.5q-50.5 -62.5 -54.5 -203.5h408
q-4 141 -53.5 203.5t-148.5 62.5q-101 0 -151.5 -62.5zM1114 1597h-236l-242 271h285zM479 1616h266l256 -383h-244l-145 228l-145 -228h-244z" />
    <glyph glyph-name="uni1EC2" unicode="&#x1ec2;" horiz-adv-x="1345" 
d="M482 262h783v-262h-1121v1480h1111v-262h-773v-330h670v-262h-670v-364zM1264 2074.5q65 -31.5 65 -89.5q0 -40 -28 -63t-79 -47q-35 -16 -53 -28.5t-21 -29.5h-166q2 38 30.5 59t79.5 42q33 13 49 23.5t16 24.5q0 33 -115 33q-100 0 -200 -23v105q46 11 107 18t117 7
q133 0 198 -31.5zM580 1867h282l289 -272h-265l-165 163l-165 -163h-265z" />
    <glyph glyph-name="uni1EC3" unicode="&#x1ec3;" horiz-adv-x="1188" 
d="M1124 454h-716q6 -87 41 -136.5t110.5 -72t207.5 -22.5q135 0 292 33v-240q-171 -37 -342 -37q-220 0 -361.5 60t-210 184.5t-68.5 321.5q0 180 63 307t184 193t293 66q248 0 377.5 -148.5t129.5 -427.5v-81zM461.5 842.5q-50.5 -62.5 -54.5 -203.5h408
q-4 141 -53.5 203.5t-148.5 62.5q-101 0 -151.5 -62.5zM1102 1856.5q58 -29.5 58 -90.5q0 -33 -22 -52.5t-64 -40.5q-37 -19 -56.5 -35t-23.5 -41h-150q3 44 30.5 67t74.5 43q26 12 38 20t12 19q0 18 -24.5 27t-78.5 9q-99 0 -183 -22v101q38 11 96.5 18t110.5 7
q124 0 182 -29.5zM479 1616h266l256 -383h-244l-145 228l-145 -228h-244z" />
    <glyph glyph-name="uni1EC4" unicode="&#x1ec4;" horiz-adv-x="1345" 
d="M482 262h783v-262h-1121v1480h1111v-262h-773v-330h670v-262h-670v-364zM1029 2058.5q53 15.5 122 52.5v-139q-58 -36 -113.5 -49t-126.5 -13q-53 0 -101.5 9t-111.5 25q-61 15 -96.5 21.5t-73.5 6.5q-61 0 -114.5 -15t-122.5 -52v139q59 35 115 49t125 14q53 0 100 -9
t113 -26q56 -15 94 -22t76 -7q62 0 115 15.5zM580 1867h282l289 -272h-265l-165 163l-165 -163h-265z" />
    <glyph glyph-name="uni1EC5" unicode="&#x1ec5;" horiz-adv-x="1188" 
d="M1124 454h-716q6 -87 41 -136.5t110.5 -72t207.5 -22.5q135 0 292 33v-240q-171 -37 -342 -37q-220 0 -361.5 60t-210 184.5t-68.5 321.5q0 180 63 307t184 193t293 66q248 0 377.5 -148.5t129.5 -427.5v-81zM461.5 842.5q-50.5 -62.5 -54.5 -203.5h408
q-4 141 -53.5 203.5t-148.5 62.5q-101 0 -151.5 -62.5zM698.5 1628.5q-41.5 8.5 -102.5 26.5q-57 16 -92.5 24t-74.5 8q-61 0 -108.5 -14.5t-96.5 -46.5v159q42 33 92.5 49t119.5 16q48 0 91 -9t101 -27q57 -16 92.5 -24t74.5 -8q61 0 108.5 14.5t96.5 46.5v-160
q-42 -33 -92.5 -48t-119.5 -15q-48 0 -89.5 8.5zM1036 1235h-262l-162 200l-162 -200h-262l283 327h282z" />
    <glyph glyph-name="uni1EC6" unicode="&#x1ec6;" horiz-adv-x="1345" 
d="M482 262h783v-262h-1121v1480h1111v-262h-773v-330h670v-262h-670v-364zM571 -379q-50 38 -50 106t50 106.5t151 38.5t151 -38.5t50 -106.5t-50 -106t-151 -38t-151 38zM1151 1595h-265l-165 179l-165 -179h-265l289 303h282z" />
    <glyph glyph-name="uni1EC7" unicode="&#x1ec7;" horiz-adv-x="1188" 
d="M1124 454h-716q6 -87 41 -136.5t110.5 -72t207.5 -22.5q135 0 292 33v-240q-171 -37 -342 -37q-220 0 -361.5 60t-210 184.5t-68.5 321.5q0 180 63 307t184 193t293 66q248 0 377.5 -148.5t129.5 -427.5v-81zM461.5 842.5q-50.5 -62.5 -54.5 -203.5h408
q-4 141 -53.5 203.5t-148.5 62.5q-101 0 -151.5 -62.5zM479.5 -400.5q-45.5 41.5 -45.5 114.5q0 74 45.5 116t132.5 42t132.5 -42t45.5 -116q0 -73 -45.5 -114.5t-132.5 -41.5t-132.5 41.5zM1001 1233h-244l-145 228l-145 -228h-244l256 383h266z" />
    <glyph glyph-name="uni1EC8" unicode="&#x1ec8;" horiz-adv-x="630" 
d="M144 0v1480h342v-1480h-342zM263 1660.5q29 23.5 80 46.5q34 16 49 26.5t15 25.5q0 37 -115 37q-97 0 -201 -25v120q46 12 107 19t118 7q134 0 198.5 -35t64.5 -100q0 -44 -28.5 -70.5t-79.5 -52.5q-36 -19 -53 -32t-20 -32h-166q2 42 31 65.5z" />
    <glyph glyph-name="uni1EC9" unicode="&#x1ec9;" horiz-adv-x="592" 
d="M129 0v1094h334v-1094h-334zM230.5 1302q15.5 29 35.5 47t51 40q29 19 42.5 33.5t13.5 32.5q0 25 -24 36.5t-80 11.5q-85 0 -173 -24v124q38 12 93 18.5t102 6.5q130 0 191.5 -37.5t61.5 -115.5q0 -35 -12 -60t-29 -41t-46 -37q-37 -27 -56 -48.5t-22 -55.5h-166
q2 40 17.5 69z" />
    <glyph glyph-name="uni1ECA" unicode="&#x1eca;" horiz-adv-x="630" 
d="M144 0v1480h342v-1480h-342zM163 -379q-50 38 -50 106t50 106.5t151 38.5t151 -38.5t50 -106.5t-50 -106t-151 -38t-151 38z" />
    <glyph glyph-name="uni1ECB" unicode="&#x1ecb;" horiz-adv-x="592" 
d="M129 0v1094h334v-1094h-334zM142 1295.5q-51 42.5 -51 123.5q0 82 51 124.5t154 42.5t154 -42.5t51 -124.5q0 -81 -51 -123.5t-154 -42.5t-154 42.5zM163.5 -400.5q-45.5 41.5 -45.5 114.5q0 74 45.5 116t132.5 42t132.5 -42t45.5 -116q0 -73 -45.5 -114.5t-132.5 -41.5
t-132.5 41.5z" />
    <glyph glyph-name="uni1ECC" unicode="&#x1ecc;" horiz-adv-x="1682" 
d="M442 67q-168 86 -259 256.5t-91 416.5t91 416.5t259 256.5t399 86t399 -86.5t259 -257t91 -415.5t-91 -415.5t-259.5 -257t-398.5 -86.5q-231 0 -399 86zM1138 370q103 118 103 363q0 254 -103.5 374.5t-296.5 120.5q-192 0 -296 -117.5t-104 -363.5q0 -257 102.5 -376
t297.5 -119q194 0 297 118zM690 -379q-50 38 -50 106t50 106.5t151 38.5t151 -38.5t50 -106.5t-50 -106t-151 -38t-151 38z" />
    <glyph glyph-name="uni1ECD" unicode="&#x1ecd;" horiz-adv-x="1299" 
d="M346 43.5q-129 64.5 -199 192t-70 310.5q0 184 68 310.5t196 190.5t309 64t309 -64t195.5 -190.5t67.5 -310.5q0 -182 -70 -309.5t-198.5 -192.5t-303.5 -65t-304 64.5zM829.5 307q60.5 73 60.5 238q0 167 -60.5 239.5t-179.5 72.5t-180 -72t-61 -238q0 -167 60.5 -240
t180.5 -73q119 0 179.5 73zM517.5 -400.5q-45.5 41.5 -45.5 114.5q0 74 45.5 116t132.5 42t132.5 -42t45.5 -116q0 -73 -45.5 -114.5t-132.5 -41.5t-132.5 41.5z" />
    <glyph glyph-name="uni1ECE" unicode="&#x1ece;" horiz-adv-x="1682" 
d="M442 67q-168 86 -259 256.5t-91 416.5t91 416.5t259 256.5t399 86t399 -86.5t259 -257t91 -415.5t-91 -415.5t-259.5 -257t-398.5 -86.5q-231 0 -399 86zM1138 370q103 118 103 363q0 254 -103.5 374.5t-296.5 120.5q-192 0 -296 -117.5t-104 -363.5q0 -257 102.5 -376
t297.5 -119q194 0 297 118zM789 1660.5q29 23.5 80 46.5q34 16 49 26.5t15 25.5q0 37 -115 37q-97 0 -201 -25v120q46 12 107 19t118 7q134 0 198.5 -35t64.5 -100q0 -44 -28.5 -70.5t-79.5 -52.5q-36 -19 -53 -32t-20 -32h-166q2 42 31 65.5z" />
    <glyph glyph-name="uni1ECF" unicode="&#x1ecf;" horiz-adv-x="1299" 
d="M346 43.5q-129 64.5 -199 192t-70 310.5q0 184 68 310.5t196 190.5t309 64t309 -64t195.5 -190.5t67.5 -310.5q0 -182 -70 -309.5t-198.5 -192.5t-303.5 -65t-304 64.5zM829.5 307q60.5 73 60.5 238q0 167 -60.5 239.5t-179.5 72.5t-180 -72t-61 -238q0 -167 60.5 -240
t180.5 -73q119 0 179.5 73zM584.5 1302q15.5 29 35.5 47t51 40q29 19 42.5 33.5t13.5 32.5q0 25 -24 36.5t-80 11.5q-85 0 -173 -24v124q38 12 93 18.5t102 6.5q130 0 191.5 -37.5t61.5 -115.5q0 -35 -12 -60t-29 -41t-46 -37q-37 -27 -56 -48.5t-22 -55.5h-166
q2 40 17.5 69z" />
    <glyph glyph-name="uni1ED0" unicode="&#x1ed0;" horiz-adv-x="1682" 
d="M442 67q-168 86 -259 256.5t-91 416.5t91 416.5t259 256.5t399 86t399 -86.5t259 -257t91 -415.5t-91 -415.5t-259.5 -257t-398.5 -86.5q-231 0 -399 86zM1138 370q103 118 103 363q0 254 -103.5 374.5t-296.5 120.5q-192 0 -296 -117.5t-104 -363.5q0 -257 102.5 -376
t297.5 -119q194 0 297 118zM1230 2064h234l-170 -247h-191zM700 1867h282l289 -272h-265l-165 163l-165 -163h-265z" />
    <glyph glyph-name="uni1ED1" unicode="&#x1ed1;" horiz-adv-x="1299" 
d="M346 43.5q-129 64.5 -199 192t-70 310.5q0 184 68 310.5t196 190.5t309 64t309 -64t195.5 -190.5t67.5 -310.5q0 -182 -70 -309.5t-198.5 -192.5t-303.5 -65t-304 64.5zM829.5 307q60.5 73 60.5 238q0 167 -60.5 239.5t-179.5 72.5t-180 -72t-61 -238q0 -167 60.5 -240
t180.5 -73q119 0 179.5 73zM1076 1868h286l-243 -271h-235zM517 1616h266l256 -383h-244l-145 228l-145 -228h-244z" />
    <glyph glyph-name="uni1ED2" unicode="&#x1ed2;" horiz-adv-x="1682" 
d="M442 67q-168 86 -259 256.5t-91 416.5t91 416.5t259 256.5t399 86t399 -86.5t259 -257t91 -415.5t-91 -415.5t-259.5 -257t-398.5 -86.5q-231 0 -399 86zM1138 370q103 118 103 363q0 254 -103.5 374.5t-296.5 120.5q-192 0 -296 -117.5t-104 -363.5q0 -257 102.5 -376
t297.5 -119q194 0 297 118zM1328 1817h-191l-171 247h235zM700 1867h282l289 -272h-265l-165 163l-165 -163h-265z" />
    <glyph glyph-name="uni1ED3" unicode="&#x1ed3;" horiz-adv-x="1299" 
d="M346 43.5q-129 64.5 -199 192t-70 310.5q0 184 68 310.5t196 190.5t309 64t309 -64t195.5 -190.5t67.5 -310.5q0 -182 -70 -309.5t-198.5 -192.5t-303.5 -65t-304 64.5zM829.5 307q60.5 73 60.5 238q0 167 -60.5 239.5t-179.5 72.5t-180 -72t-61 -238q0 -167 60.5 -240
t180.5 -73q119 0 179.5 73zM1152 1597h-236l-242 271h285zM517 1616h266l256 -383h-244l-145 228l-145 -228h-244z" />
    <glyph glyph-name="uni1ED4" unicode="&#x1ed4;" horiz-adv-x="1682" 
d="M442 67q-168 86 -259 256.5t-91 416.5t91 416.5t259 256.5t399 86t399 -86.5t259 -257t91 -415.5t-91 -415.5t-259.5 -257t-398.5 -86.5q-231 0 -399 86zM1138 370q103 118 103 363q0 254 -103.5 374.5t-296.5 120.5q-192 0 -296 -117.5t-104 -363.5q0 -257 102.5 -376
t297.5 -119q194 0 297 118zM1384 2074.5q65 -31.5 65 -89.5q0 -40 -28 -63t-79 -47q-35 -16 -53 -28.5t-21 -29.5h-166q2 38 30.5 59t79.5 42q33 13 49 23.5t16 24.5q0 33 -115 33q-100 0 -200 -23v105q46 11 107 18t117 7q133 0 198 -31.5zM700 1867h282l289 -272h-265
l-165 163l-165 -163h-265z" />
    <glyph glyph-name="uni1ED5" unicode="&#x1ed5;" horiz-adv-x="1299" 
d="M346 43.5q-129 64.5 -199 192t-70 310.5q0 184 68 310.5t196 190.5t309 64t309 -64t195.5 -190.5t67.5 -310.5q0 -182 -70 -309.5t-198.5 -192.5t-303.5 -65t-304 64.5zM829.5 307q60.5 73 60.5 238q0 167 -60.5 239.5t-179.5 72.5t-180 -72t-61 -238q0 -167 60.5 -240
t180.5 -73q119 0 179.5 73zM1140 1856.5q58 -29.5 58 -90.5q0 -33 -22 -52.5t-64 -40.5q-37 -19 -56.5 -35t-23.5 -41h-150q3 44 30.5 67t74.5 43q26 12 38 20t12 19q0 18 -24.5 27t-78.5 9q-99 0 -183 -22v101q38 11 96.5 18t110.5 7q124 0 182 -29.5zM517 1616h266
l256 -383h-244l-145 228l-145 -228h-244z" />
    <glyph glyph-name="uni1ED6" unicode="&#x1ed6;" horiz-adv-x="1682" 
d="M442 67q-168 86 -259 256.5t-91 416.5t91 416.5t259 256.5t399 86t399 -86.5t259 -257t91 -415.5t-91 -415.5t-259.5 -257t-398.5 -86.5q-231 0 -399 86zM1138 370q103 118 103 363q0 254 -103.5 374.5t-296.5 120.5q-192 0 -296 -117.5t-104 -363.5q0 -257 102.5 -376
t297.5 -119q194 0 297 118zM1149 2058.5q53 15.5 122 52.5v-139q-58 -36 -113.5 -49t-126.5 -13q-53 0 -101.5 9t-111.5 25q-61 15 -96.5 21.5t-73.5 6.5q-61 0 -114.5 -15t-122.5 -52v139q59 35 115 49t125 14q53 0 100 -9t113 -26q56 -15 94 -22t76 -7q62 0 115 15.5z
M700 1867h282l289 -272h-265l-165 163l-165 -163h-265z" />
    <glyph glyph-name="uni1ED7" unicode="&#x1ed7;" horiz-adv-x="1299" 
d="M346 43.5q-129 64.5 -199 192t-70 310.5q0 184 68 310.5t196 190.5t309 64t309 -64t195.5 -190.5t67.5 -310.5q0 -182 -70 -309.5t-198.5 -192.5t-303.5 -65t-304 64.5zM829.5 307q60.5 73 60.5 238q0 167 -60.5 239.5t-179.5 72.5t-180 -72t-61 -238q0 -167 60.5 -240
t180.5 -73q119 0 179.5 73zM736.5 1628.5q-41.5 8.5 -102.5 26.5q-57 16 -92.5 24t-74.5 8q-61 0 -108.5 -14.5t-96.5 -46.5v159q42 33 92.5 49t119.5 16q48 0 91 -9t101 -27q57 -16 92.5 -24t74.5 -8q61 0 108.5 14.5t96.5 46.5v-160q-42 -33 -92.5 -48t-119.5 -15
q-48 0 -89.5 8.5zM1074 1235h-262l-162 200l-162 -200h-262l283 327h282z" />
    <glyph glyph-name="uni1ED8" unicode="&#x1ed8;" horiz-adv-x="1682" 
d="M442 67q-168 86 -259 256.5t-91 416.5t91 416.5t259 256.5t399 86t399 -86.5t259 -257t91 -415.5t-91 -415.5t-259.5 -257t-398.5 -86.5q-231 0 -399 86zM1138 370q103 118 103 363q0 254 -103.5 374.5t-296.5 120.5q-192 0 -296 -117.5t-104 -363.5q0 -257 102.5 -376
t297.5 -119q194 0 297 118zM690 -379q-50 38 -50 106t50 106.5t151 38.5t151 -38.5t50 -106.5t-50 -106t-151 -38t-151 38zM1271 1595h-265l-165 179l-165 -179h-265l289 303h282z" />
    <glyph glyph-name="uni1ED9" unicode="&#x1ed9;" horiz-adv-x="1299" 
d="M346 43.5q-129 64.5 -199 192t-70 310.5q0 184 68 310.5t196 190.5t309 64t309 -64t195.5 -190.5t67.5 -310.5q0 -182 -70 -309.5t-198.5 -192.5t-303.5 -65t-304 64.5zM829.5 307q60.5 73 60.5 238q0 167 -60.5 239.5t-179.5 72.5t-180 -72t-61 -238q0 -167 60.5 -240
t180.5 -73q119 0 179.5 73zM517.5 -400.5q-45.5 41.5 -45.5 114.5q0 74 45.5 116t132.5 42t132.5 -42t45.5 -116q0 -73 -45.5 -114.5t-132.5 -41.5t-132.5 41.5zM1039 1233h-244l-145 228l-145 -228h-244l256 383h266z" />
    <glyph glyph-name="uni1EDA" unicode="&#x1eda;" horiz-adv-x="1682" 
d="M1531.5 1087q58.5 -149 58.5 -347q0 -246 -91 -416.5t-259 -256.5t-399 -86t-399 86t-259 256.5t-91 416.5t91 416.5t259 256.5t399 86q52 0 108.5 -5t66.5 -6q110 -10 159 -10q104 0 154 36.5t50 120.5q0 59 -17 141h219q12 -40 16.5 -75t4.5 -76q0 -126 -63 -200.5
t-177 -94.5q111 -94 169.5 -243zM1138 370q103 118 103 363q0 254 -103.5 374.5t-296.5 120.5q-192 0 -296 -117.5t-104 -363.5q0 -257 102.5 -376t297.5 -119q194 0 297 118zM687 1595l193 303h353l-243 -303h-303z" />
    <glyph glyph-name="uni1EDB" unicode="&#x1edb;" horiz-adv-x="1299" 
d="M1084 1616l-284 -383h-308l236 383h356zM1222 546q0 -182 -70 -309.5t-198.5 -192.5t-303.5 -65t-304 64.5t-199 192t-70 310.5q0 277 151.5 421t432.5 144q47 0 133 -7q58 -4 76 -4q96 0 144.5 36.5t48.5 119.5q0 58 -17 140h208q19 -72 19 -151q0 -113 -51.5 -184
t-145.5 -99q146 -143 146 -416zM829.5 307q60.5 73 60.5 238q0 167 -60.5 239.5t-179.5 72.5t-180 -72t-61 -238q0 -167 60.5 -240t180.5 -73q119 0 179.5 73z" />
    <glyph glyph-name="uni1EDC" unicode="&#x1edc;" horiz-adv-x="1682" 
d="M1531.5 1087q58.5 -149 58.5 -347q0 -246 -91 -416.5t-259 -256.5t-399 -86t-399 86t-259 256.5t-91 416.5t91 416.5t259 256.5t399 86q52 0 108.5 -5t66.5 -6q110 -10 159 -10q104 0 154 36.5t50 120.5q0 59 -17 141h219q12 -40 16.5 -75t4.5 -76q0 -126 -63 -200.5
t-177 -94.5q111 -94 169.5 -243zM1138 370q103 118 103 363q0 254 -103.5 374.5t-296.5 120.5q-192 0 -296 -117.5t-104 -363.5q0 -257 102.5 -376t297.5 -119q194 0 297 118zM690 1595l-243 303h353l192 -303h-302z" />
    <glyph glyph-name="uni1EDD" unicode="&#x1edd;" horiz-adv-x="1299" 
d="M1222 546q0 -182 -70 -309.5t-198.5 -192.5t-303.5 -65t-304 64.5t-199 192t-70 310.5q0 277 151.5 421t432.5 144q47 0 133 -7q58 -4 76 -4q96 0 144.5 36.5t48.5 119.5q0 58 -17 140h208q19 -72 19 -151q0 -113 -51.5 -184t-145.5 -99q146 -143 146 -416zM829.5 307
q60.5 73 60.5 238q0 167 -60.5 239.5t-179.5 72.5t-180 -72t-61 -238q0 -167 60.5 -240t180.5 -73q119 0 179.5 73zM489 1233l-289 383h363l240 -383h-314z" />
    <glyph glyph-name="uni1EDE" unicode="&#x1ede;" horiz-adv-x="1682" 
d="M1531.5 1087q58.5 -149 58.5 -347q0 -246 -91 -416.5t-259 -256.5t-399 -86t-399 86t-259 256.5t-91 416.5t91 416.5t259 256.5t399 86q52 0 108.5 -5t66.5 -6q110 -10 159 -10q104 0 154 36.5t50 120.5q0 59 -17 141h219q12 -40 16.5 -75t4.5 -76q0 -126 -63 -200.5
t-177 -94.5q111 -94 169.5 -243zM1138 370q103 118 103 363q0 254 -103.5 374.5t-296.5 120.5q-192 0 -296 -117.5t-104 -363.5q0 -257 102.5 -376t297.5 -119q194 0 297 118zM789 1660.5q29 23.5 80 46.5q34 16 49 26.5t15 25.5q0 37 -115 37q-97 0 -201 -25v120
q46 12 107 19t118 7q134 0 198.5 -35t64.5 -100q0 -44 -28.5 -70.5t-79.5 -52.5q-36 -19 -53 -32t-20 -32h-166q2 42 31 65.5z" />
    <glyph glyph-name="uni1EDF" unicode="&#x1edf;" horiz-adv-x="1299" 
d="M1222 546q0 -182 -70 -309.5t-198.5 -192.5t-303.5 -65t-304 64.5t-199 192t-70 310.5q0 277 151.5 421t432.5 144q47 0 133 -7q58 -4 76 -4q96 0 144.5 36.5t48.5 119.5q0 58 -17 140h208q19 -72 19 -151q0 -113 -51.5 -184t-145.5 -99q146 -143 146 -416zM829.5 307
q60.5 73 60.5 238q0 167 -60.5 239.5t-179.5 72.5t-180 -72t-61 -238q0 -167 60.5 -240t180.5 -73q119 0 179.5 73zM580.5 1302q15.5 29 35.5 47t51 40q29 19 42.5 33.5t13.5 32.5q0 25 -24 36.5t-80 11.5q-85 0 -173 -24v124q38 12 93 18.5t102 6.5q130 0 191.5 -37.5
t61.5 -115.5q0 -35 -12 -60t-29 -41t-46 -37q-37 -27 -56 -48.5t-22 -55.5h-166q2 40 17.5 69z" />
    <glyph glyph-name="uni1EE0" unicode="&#x1ee0;" horiz-adv-x="1682" 
d="M926.5 1630q-42.5 10 -102.5 29q-54 18 -90.5 26.5t-76.5 8.5q-61 0 -108 -16t-97 -52v182q42 37 92 54.5t120 17.5q48 0 90.5 -10t102.5 -29q56 -18 92 -27t76 -9q62 0 109 16t96 51v-182q-42 -36 -92.5 -53t-119.5 -17q-49 0 -91.5 10zM1531.5 1087
q58.5 -149 58.5 -347q0 -246 -91 -416.5t-259 -256.5t-399 -86t-399 86t-259 256.5t-91 416.5t91 416.5t259 256.5t399 86q52 0 108.5 -5t66.5 -6q110 -10 159 -10q104 0 154 36.5t50 120.5q0 59 -17 141h219q12 -40 16.5 -75t4.5 -76q0 -126 -63 -200.5t-177 -94.5
q111 -94 169.5 -243zM1138 370q103 118 103 363q0 254 -103.5 374.5t-296.5 120.5q-192 0 -296 -117.5t-104 -363.5q0 -257 102.5 -376t297.5 -119q194 0 297 118z" />
    <glyph glyph-name="uni1EE1" unicode="&#x1ee1;" horiz-adv-x="1299" 
d="M715.5 1296.5q-38.5 12.5 -90.5 36.5q-46 22 -79 33t-67 11q-54 0 -99 -20t-93 -65v201q41 40 89.5 59t108.5 19q43 0 80.5 -12.5t91.5 -36.5q45 -22 78.5 -33t67.5 -11q54 0 99.5 20t91.5 65v-201q-40 -40 -88 -59t-109 -19q-43 0 -81.5 12.5zM1222 546
q0 -182 -70 -309.5t-198.5 -192.5t-303.5 -65t-304 64.5t-199 192t-70 310.5q0 277 151.5 421t432.5 144q47 0 133 -7q58 -4 76 -4q96 0 144.5 36.5t48.5 119.5q0 58 -17 140h208q19 -72 19 -151q0 -113 -51.5 -184t-145.5 -99q146 -143 146 -416zM829.5 307
q60.5 73 60.5 238q0 167 -60.5 239.5t-179.5 72.5t-180 -72t-61 -238q0 -167 60.5 -240t180.5 -73q119 0 179.5 73z" />
    <glyph glyph-name="uni1EE2" unicode="&#x1ee2;" horiz-adv-x="1682" 
d="M1531.5 1087q58.5 -149 58.5 -347q0 -246 -91 -416.5t-259 -256.5t-399 -86t-399 86t-259 256.5t-91 416.5t91 416.5t259 256.5t399 86q52 0 108.5 -5t66.5 -6q110 -10 159 -10q104 0 154 36.5t50 120.5q0 59 -17 141h219q12 -40 16.5 -75t4.5 -76q0 -126 -63 -200.5
t-177 -94.5q111 -94 169.5 -243zM1138 370q103 118 103 363q0 254 -103.5 374.5t-296.5 120.5q-192 0 -296 -117.5t-104 -363.5q0 -257 102.5 -376t297.5 -119q194 0 297 118zM690 -379q-50 38 -50 106t50 106.5t151 38.5t151 -38.5t50 -106.5t-50 -106t-151 -38t-151 38z
" />
    <glyph glyph-name="uni1EE3" unicode="&#x1ee3;" horiz-adv-x="1299" 
d="M1222 546q0 -182 -70 -309.5t-198.5 -192.5t-303.5 -65t-304 64.5t-199 192t-70 310.5q0 277 151.5 421t432.5 144q47 0 133 -7q58 -4 76 -4q96 0 144.5 36.5t48.5 119.5q0 58 -17 140h208q19 -72 19 -151q0 -113 -51.5 -184t-145.5 -99q146 -143 146 -416zM829.5 307
q60.5 73 60.5 238q0 167 -60.5 239.5t-179.5 72.5t-180 -72t-61 -238q0 -167 60.5 -240t180.5 -73q119 0 179.5 73zM515.5 -400.5q-45.5 41.5 -45.5 114.5q0 74 45.5 116t132.5 42t132.5 -42t45.5 -116q0 -73 -45.5 -114.5t-132.5 -41.5t-132.5 41.5z" />
    <glyph glyph-name="uni1EE4" unicode="&#x1ee4;" horiz-adv-x="1596" 
d="M297.5 144q-159.5 163 -159.5 491v845h341v-876q0 -180 79 -264t243 -84q165 0 243.5 84t78.5 264v876h336v-845q0 -327 -159 -490.5t-499 -163.5q-344 0 -503.5 163zM650 -379q-50 38 -50 106t50 106.5t151 38.5t151 -38.5t50 -106.5t-50 -106t-151 -38t-151 38z" />
    <glyph glyph-name="uni1EE5" unicode="&#x1ee5;" horiz-adv-x="1301" 
d="M231 91.5q-111 109.5 -111 342.5v660h334v-641q0 -102 42 -145.5t123 -43.5q60 0 119.5 24.5t99.5 70.5v735h334v-1094h-274l-21 107h-14q-67 -61 -151.5 -93t-176.5 -32q-193 0 -304 109.5zM513.5 -400.5q-45.5 41.5 -45.5 114.5q0 74 45.5 116t132.5 42t132.5 -42
t45.5 -116q0 -73 -45.5 -114.5t-132.5 -41.5t-132.5 41.5z" />
    <glyph glyph-name="uni1EE6" unicode="&#x1ee6;" horiz-adv-x="1596" 
d="M297.5 144q-159.5 163 -159.5 491v845h341v-876q0 -180 79 -264t243 -84q165 0 243.5 84t78.5 264v876h336v-845q0 -327 -159 -490.5t-499 -163.5q-344 0 -503.5 163zM749 1660.5q29 23.5 80 46.5q34 16 49 26.5t15 25.5q0 37 -115 37q-97 0 -201 -25v120q46 12 107 19
t118 7q134 0 198.5 -35t64.5 -100q0 -44 -28.5 -70.5t-79.5 -52.5q-36 -19 -53 -32t-20 -32h-166q2 42 31 65.5z" />
    <glyph glyph-name="uni1EE7" unicode="&#x1ee7;" horiz-adv-x="1301" 
d="M231 91.5q-111 109.5 -111 342.5v660h334v-641q0 -102 42 -145.5t123 -43.5q60 0 119.5 24.5t99.5 70.5v735h334v-1094h-274l-21 107h-14q-67 -61 -151.5 -93t-176.5 -32q-193 0 -304 109.5zM580.5 1302q15.5 29 35.5 47t51 40q29 19 42.5 33.5t13.5 32.5q0 25 -24 36.5
t-80 11.5q-85 0 -173 -24v124q38 12 93 18.5t102 6.5q130 0 191.5 -37.5t61.5 -115.5q0 -35 -12 -60t-29 -41t-46 -37q-37 -27 -56 -48.5t-22 -55.5h-166q2 40 17.5 69z" />
    </font>
</defs>
</svg>
