<?xml version="1.0" standalone="no"?>
<!DOCTYPE svg PUBLIC "-//W3C//DTD SVG 1.1//EN" "http://www.w3.org/Graphics/SVG/1.1/DTD/svg11.dtd" >
<svg xmlns="http://www.w3.org/2000/svg" xmlns:xlink="http://www.w3.org/1999/xlink" version="1.1">
<metadata>
Created by FontForge 20170731 at Tue Jan 31 13:40:50 2017
 By Aleksey,,,
Copyright 2012 The Encode Project Authors (impallari@gmail.com), with Reserved Font Name "Encode Sans".
</metadata>
<defs>
<font id="EncodeSansSemiExpanded-Black" horiz-adv-x="1380" >
  <font-face 
    font-family="Encode Sans Semi Expanded Black"
    font-weight="900"
    font-stretch="semi-expanded"
    units-per-em="2000"
    panose-1="0 0 10 5 0 0 0 0 0 0"
    ascent="1600"
    descent="-400"
    x-height="1100"
    cap-height="1480"
    bbox="-1176 -519 3304 2330"
    underline-thickness="50"
    underline-position="-150"
    unicode-range="U+000D-FB02"
  />
<missing-glyph horiz-adv-x="1028" 
d="M843 1616v-2056h-652v2056h652zM685 1478h-340v-68h134v-76h-136v-68h342v68h-136v76h136v68zM549 1213h-206v-214h342v70h-136v144zM479 1143v-74h-68v74h68zM685 944h-342v-68h136v-76h-136v-68h206v144h136v68zM685 820h-68v-135h-274v-70h342v205zM685 569h-206v-115
h70v48h68v-97h-206v164h-68v-232h342v232zM685 214h-342v-233h342v233zM617 146v-97h-206v97h206zM685 -66h-342v-68h144l-144 -96v-68h342v68h-210l144 96h66v68z" />
    <glyph glyph-name="fi" unicode="fi" horiz-adv-x="1578" 
d="M277 1393q67 116 191 179.5t291 63.5q52 0 90.5 -3.5t78.5 -13.5v-337q-40 11 -93 11q-90 0 -136.5 -39.5t-46.5 -112.5v-41h265v-345h-265v-755h-442v755h-171v345h171v23q0 154 67 270zM985 1418q0 211 264 211t264 -211t-264 -211t-264 211zM1027 0v1100h444v-1100
h-444z" />
    <glyph glyph-name="fl" unicode="fl" horiz-adv-x="1577" 
d="M277 1393q67 116 191 179.5t291 63.5q52 0 90.5 -3.5t78.5 -13.5v-337q-40 11 -93 11q-90 0 -136.5 -39.5t-46.5 -112.5v-41h265v-345h-265v-755h-442v755h-171v345h171v23q0 154 67 270zM1027 1616h444v-1616h-444v1616z" />
    <glyph glyph-name="f_j" unicode="fj" horiz-adv-x="1578" 
d="M652 755v-755h-442v755h-171v345h171v23q0 154 67 270t191 179.5t291 63.5q52 0 90.5 -3.5t78.5 -13.5v-337q-40 11 -93 11q-90 0 -136.5 -39.5t-46.5 -112.5v-41h265v-345h-265zM977 1418q0 211 264 211t264 -211t-264 -211t-264 211zM1027 1100h444v-904
q0 -194 -70.5 -353.5t-238.5 -318.5l-279 186q81 102 112.5 207.5t31.5 262.5v920z" />
    <glyph glyph-name=".notdef" horiz-adv-x="1028" 
d="M843 1616v-2056h-652v2056h652zM685 1478h-340v-68h134v-76h-136v-68h342v68h-136v76h136v68zM549 1213h-206v-214h342v70h-136v144zM479 1143v-74h-68v74h68zM685 944h-342v-68h136v-76h-136v-68h206v144h136v68zM685 820h-68v-135h-274v-70h342v205zM685 569h-206v-115
h70v48h68v-97h-206v164h-68v-232h342v232zM685 214h-342v-233h342v233zM617 146v-97h-206v97h206zM685 -66h-342v-68h144l-144 -96v-68h342v68h-210l144 96h66v68z" />
    <glyph glyph-name=".null" horiz-adv-x="0" 
 />
    <glyph glyph-name="nonmarkingreturn" unicode="&#xd;" horiz-adv-x="548" 
 />
    <glyph glyph-name="NULL" horiz-adv-x="0" 
 />
    <glyph glyph-name="NULL" horiz-adv-x="0" 
 />
    <glyph glyph-name="space" unicode=" " horiz-adv-x="548" 
 />
    <glyph glyph-name="exclam" unicode="!" horiz-adv-x="698" 
d="M218 532l-104 464v484h470v-484l-99 -464h-267zM201 8.5q-63 28.5 -97 82t-34 125.5q0 109 74 172.5t205 63.5q87 0 150 -29.5t96 -82.5t33 -124t-34 -124t-97 -82.5t-148 -29.5t-148 28.5z" />
    <glyph glyph-name="quotedbl" unicode="&#x22;" horiz-adv-x="1072" 
d="M139 791l-79 825h427l-79 -825h-269zM664 791l-79 825h427l-79 -825h-269z" />
    <glyph glyph-name="numbersign" unicode="#" 
d="M1275 814h-170l-17 -148h187v-331h-225l-38 -335h-338l38 335h-138l-38 -335h-337l38 335h-132v331h170l17 148h-187v331h225l38 335h337l-38 -335h138l38 335h338l-38 -335h132v-331zM750 666l17 148h-138l-17 -148h138z" />
    <glyph glyph-name="dollar" unicode="$" horiz-adv-x="1296" 
d="M1142.5 182q-100.5 -116 -285.5 -166v-256h-419v224q-183 13 -342 59v357q96 -30 229.5 -48.5t230.5 -18.5q136 0 187.5 26t51.5 77q0 28 -13 46.5t-48.5 33.5t-103.5 30l-138 31q-226 49 -332.5 157t-106.5 287q0 169 96.5 281.5t288.5 160.5v257h419v-222
q169 -7 301 -38v-357q-71 20 -170 32t-185 12q-171 0 -236.5 -28t-65.5 -78q0 -25 11 -41.5t39.5 -29.5t83.5 -26l138 -31q247 -53 358.5 -162.5t111.5 -287.5q0 -165 -100.5 -281z" />
    <glyph glyph-name="percent" unicode="%" horiz-adv-x="2389" 
d="M300.5 621q-104.5 55 -162.5 160t-58 252q0 146 58 251.5t162.5 160.5t242.5 55t242.5 -55t162.5 -160.5t58 -251.5q0 -147 -58 -252t-162.5 -160t-242.5 -55t-242.5 55zM666 0l698 1480h359l-698 -1480h-359zM633.5 879q33.5 48 33.5 154q0 105 -33.5 153.5t-90.5 48.5
t-90.5 -48.5t-33.5 -153.5q0 -106 33.5 -154t90.5 -48t90.5 48zM1603.5 37q-104.5 55 -162.5 160t-58 251q0 147 58 252.5t162.5 160.5t242.5 55t242.5 -55t162.5 -160.5t58 -252.5q0 -146 -58 -251t-162.5 -160t-242.5 -55t-242.5 55zM1936.5 295q33.5 48 33.5 153
q0 106 -33.5 154.5t-90.5 48.5t-90 -48.5t-33 -154.5q0 -105 33 -153t90 -48t90.5 48z" />
    <glyph glyph-name="ampersand" unicode="&#x26;" horiz-adv-x="1760" 
d="M1573 -20l-280 164q-195 -162 -545 -162q-213 0 -359.5 51.5t-220 147t-73.5 225.5q0 120 64.5 212.5t168.5 141.5q-56 65 -78.5 129.5t-22.5 134.5q0 149 78.5 255.5t238 163.5t397.5 57q139 0 289 -21v-357q-59 11 -127 18t-128 7q-169 0 -235 -36t-66 -103
q0 -40 27 -72.5t90 -68.5l370 -216v11q0 54 -9 118.5t-24 125.5h347q31 -131 31 -240q0 -112 -22 -203l276 -161zM989 321l-384 224q-7 4 -15.5 9t-17.5 11q-31 -50 -31 -111q0 -81 69 -125t192 -44q112 0 187 36z" />
    <glyph glyph-name="quotesingle" unicode="'" horiz-adv-x="547" 
d="M139 791l-79 825h427l-79 -825h-269z" />
    <glyph glyph-name="parenleft" unicode="(" horiz-adv-x="794" 
d="M97 588q0 667 380 1028h469q-212 -226 -305 -471t-93 -557t93 -557t305 -471h-469q-380 361 -380 1028z" />
    <glyph glyph-name="parenright" unicode=")" horiz-adv-x="794" 
d="M153 31q93 245 93 557t-93 557t-305 471h469q380 -361 380 -1028t-380 -1028h-469q212 226 305 471z" />
    <glyph glyph-name="asterisk" unicode="*" horiz-adv-x="1090" 
d="M712 1108l137 -118l87 -122l-226 -164l-87 121l-78 188l-78 -188l-87 -121l-226 164l87 122l137 118l-174 15l-174 56l86 265l174 -57l158 -98l-42 183v144h278v-144l-43 -183l159 98l173 57l87 -265l-174 -56z" />
    <glyph glyph-name="plus" unicode="+" horiz-adv-x="1156" 
d="M406 282v313h-301v330h301v313h344v-313h301v-330h-301v-313h-344z" />
    <glyph glyph-name="comma" unicode="," horiz-adv-x="658" 
d="M533.5 402q71.5 -83 71.5 -245q0 -135 -54 -272.5t-147 -244.5h-249q53 101 83.5 183t39.5 160q-107 14 -167.5 79.5t-60.5 169.5q0 118 72.5 185.5t200.5 67.5q139 0 210.5 -83z" />
    <glyph glyph-name="hyphen" unicode="-" horiz-adv-x="1053" 
d="M105 392v356h843v-356h-843z" />
    <glyph glyph-name="period" unicode="." horiz-adv-x="658" 
d="M181 10.5q-63 30.5 -97 87.5t-34 134q0 118 74 185.5t205 67.5q87 0 150 -31.5t96 -88.5t33 -133t-34 -133t-97 -88t-148 -31t-148 30.5z" />
    <glyph glyph-name="slash" unicode="/" horiz-adv-x="980" 
d="M0 -240l538 1856h442l-539 -1856h-441z" />
    <glyph glyph-name="zero" unicode="0" horiz-adv-x="1485" 
d="M391 64.5q-147 84.5 -225.5 254.5t-78.5 421t78.5 421t225.5 254.5t351 84.5q205 0 352 -84.5t226 -255t79 -420.5t-79 -420.5t-226 -255t-352 -84.5q-204 0 -351 84.5zM860 381.5q47 37.5 71.5 124.5t24.5 234t-24.5 234t-71.5 124.5t-117 37.5q-71 0 -118 -37.5
t-71.5 -124.5t-24.5 -234q0 -148 24 -235t71 -124t119 -37q70 0 117 37.5z" />
    <glyph glyph-name="one" unicode="1" horiz-adv-x="985" 
d="M555 1486h300v-1486h-454v960l-362 -253v418z" />
    <glyph glyph-name="two" unicode="2" horiz-adv-x="1207" 
d="M1157 361v-361h-1113v236l439 483q88 97 123.5 161.5t35.5 120.5q0 75 -57 110.5t-195 35.5q-94 0 -192.5 -17.5t-171.5 -44.5v357q74 24 191 41t215 17q336 0 496 -110t160 -340q0 -116 -50 -226t-167 -234l-220 -229h506z" />
    <glyph glyph-name="three" unicode="3" horiz-adv-x="1213" 
d="M1076.5 648.5q75.5 -85.5 75.5 -227.5q0 -210 -164.5 -325.5t-502.5 -115.5q-228 0 -439 51v323q95 -23 205.5 -37.5t210.5 -14.5q142 0 205 37t63 110q0 49 -24.5 80t-83 47t-158.5 16h-272v326h236q133 0 187 32t54 94q0 66 -55.5 100t-178.5 34q-89 0 -187.5 -16
t-178.5 -43v324q78 25 193.5 41t218.5 16q310 0 465 -107.5t155 -309.5q0 -117 -63.5 -201.5t-175.5 -118.5q139 -29 214.5 -114.5z" />
    <glyph glyph-name="four" unicode="4" horiz-adv-x="1413" 
d="M1383 608v-344h-188v-264h-406v264h-757v242l500 974h432l-441 -872h266l40 372h366v-372h188z" />
    <glyph glyph-name="five" unicode="5" horiz-adv-x="1226" 
d="M914.5 851q136.5 -57 199.5 -153.5t63 -235.5q0 -235 -165.5 -358.5t-500.5 -123.5q-222 0 -440 58v323q97 -23 207 -38t209 -15q141 0 204 36t63 106q0 51 -32.5 82.5t-122 51.5t-260.5 29l-224 11l55 856h945v-332h-543l-16 -222q222 -18 358.5 -75z" />
    <glyph glyph-name="six" unicode="6" horiz-adv-x="1394" 
d="M1096 869q114 -49 178.5 -151.5t64.5 -258.5q0 -143 -69 -251.5t-201.5 -168t-317.5 -59.5q-199 0 -346 78t-228 236.5t-81 392.5q0 263 92.5 444.5t273 275t440.5 93.5q105 0 191 -12t161 -39v-331q-74 25 -157 38.5t-166 13.5q-191 0 -288.5 -82t-107.5 -236
q60 31 137.5 48.5t157.5 17.5q152 0 266 -49zM885 331q48 40 48 117q0 81 -51.5 120.5t-145.5 39.5q-110 0 -200 -47q8 -150 62 -210t154 -60q85 0 133 40z" />
    <glyph glyph-name="seven" unicode="7" horiz-adv-x="1151" 
d="M12 1480h1081v-236l-458 -1244h-462l443 1119h-604v361z" />
    <glyph glyph-name="eight" unicode="8" horiz-adv-x="1485" 
d="M1346 642q59 -90 59 -215q0 -127 -71 -227.5t-219.5 -160t-370.5 -59.5q-233 0 -382.5 49.5t-218 135.5t-68.5 198q0 113 68.5 201t198.5 139q-121 68 -174 159t-53 206q0 128 72 225t220 152t369 55q188 0 321 -44.5t201.5 -128.5t68.5 -200q0 -219 -223 -327
q143 -68 202 -158zM593 1170q-55 -33 -55 -84q0 -42 23 -70t90.5 -56t203.5 -63q65 40 94 84t29 95q0 61 -52 94t-160 33q-118 0 -173 -33zM988 400q0 44 -27.5 75t-100 59t-210.5 59l-26 6q-66 -35 -97 -81t-31 -96q0 -145 249 -145q243 0 243 123z" />
    <glyph glyph-name="nine" unicode="9" horiz-adv-x="1394" 
d="M989 1422q147 -78 228 -236.5t81 -392.5q0 -263 -92.5 -444.5t-273 -275t-440.5 -93.5q-105 0 -191 12t-161 39v331q74 -25 157 -38.5t166 -13.5q191 0 288.5 82t107.5 236q-60 -31 -137.5 -48.5t-157.5 -17.5q-152 0 -266 49t-178.5 151.5t-64.5 258.5q0 143 69 251.5
t201.5 168t317.5 59.5q199 0 346 -78zM512.5 911.5q51.5 -39.5 145.5 -39.5q110 0 200 47q-8 150 -62 210t-154 60q-85 0 -133 -40t-48 -117q0 -81 51.5 -120.5z" />
    <glyph glyph-name="colon" unicode=":" horiz-adv-x="658" 
d="M181 10.5q-63 30.5 -97 87.5t-34 134q0 118 74 185.5t205 67.5q87 0 150 -31.5t96 -88.5t33 -133t-34 -133t-97 -88t-148 -31t-148 30.5zM181 645.5q-63 30.5 -97 87.5t-34 134q0 118 74 185.5t205 67.5q87 0 150 -31.5t96 -88.5t33 -133t-34 -133t-97 -88t-148 -31
t-148 30.5z" />
    <glyph glyph-name="semicolon" unicode=";" horiz-adv-x="658" 
d="M533.5 402q71.5 -83 71.5 -245q0 -135 -54 -272.5t-147 -244.5h-249q53 101 83.5 183t39.5 160q-107 14 -167.5 79.5t-60.5 169.5q0 118 72.5 185.5t200.5 67.5q139 0 210.5 -83zM181 645.5q-63 30.5 -97 87.5t-34 134q0 118 74 185.5t205 67.5q87 0 150 -31.5t96 -88.5
t33 -133t-34 -133t-97 -88t-148 -31t-148 30.5z" />
    <glyph glyph-name="less" unicode="&#x3c;" horiz-adv-x="1156" 
d="M1051 1297v-330l-638 -204l638 -210v-330l-946 328v418z" />
    <glyph glyph-name="equal" unicode="=" horiz-adv-x="1156" 
d="M105 840v330h946v-330h-946zM105 350v330h946v-330h-946z" />
    <glyph glyph-name="greater" unicode="&#x3e;" horiz-adv-x="1156" 
d="M105 1297l946 -328v-418l-946 -328v330l638 210l-638 204v330z" />
    <glyph glyph-name="question" unicode="?" horiz-adv-x="1119" 
d="M297 875q188 22 262.5 64t74.5 102q0 61 -55.5 91.5t-181.5 30.5q-89 0 -186 -16t-177 -43v339q78 25 193.5 41t219.5 16q311 0 465 -108.5t154 -316.5q0 -159 -105 -261t-292 -147l-29 -135h-267zM303.5 43q-74.5 63 -74.5 173t73.5 173t204.5 63q87 0 150 -29.5
t96 -82.5t33 -124t-34 -124t-97 -82.5t-148 -29.5q-129 0 -203.5 63z" />
    <glyph glyph-name="at" unicode="@" horiz-adv-x="2320" 
d="M745 563q126 89 398 105l143 8q-17 53 -70 76.5t-160 23.5q-71 0 -157.5 -14.5t-158.5 -39.5l1 317q91 28 195 43.5t202 15.5q212 0 340.5 -49t189 -159.5t60.5 -299.5v-246q0 -98 87 -98q45 0 74.5 27t46 100t14.5 207q-3 233 -86 374.5t-253.5 207t-442.5 65.5
q-273 0 -442 -70t-251 -224.5t-82 -412.5q0 -259 84 -414t261.5 -225t469.5 -70q263 0 524 54v-271q-258 -54 -524 -54q-558 0 -844.5 241t-286.5 739q0 496 280.5 737t810.5 241q525 0 800 -229.5t275 -680.5q0 -322 -140 -466t-398 -144q-265 0 -377 154h-22
q-29 -83 -105.5 -118.5t-181.5 -35.5q-128 0 -218 41.5t-136 116.5t-46 174q0 164 126 253zM1185 448q-68 -4 -99 -25.5t-31 -68.5q0 -42 32.5 -61.5t81.5 -19.5q26 0 65.5 7.5t59.5 19.5v154z" />
    <glyph glyph-name="A" unicode="A" horiz-adv-x="1645" 
d="M1191 0l-102 337h-537l-102 -337h-440l481 1480h662l482 -1480h-444zM655 681h330l-165 545z" />
    <glyph glyph-name="B" unicode="B" horiz-adv-x="1452" 
d="M1333.5 652q71.5 -84 71.5 -225q0 -145 -78 -243.5t-258 -151t-478 -52.5q-99 0 -235.5 9.5t-235.5 23.5v1424q116 28 268 45.5t280 17.5q363 0 530.5 -106.5t167.5 -320.5q0 -74 -28.5 -137t-79 -107.5t-115.5 -65.5q119 -27 190.5 -111zM563 1169v-253h173
q113 0 160 33t47 102q0 70 -49 102t-169 32q-73 0 -162 -16zM883.5 311.5q59.5 16.5 84 48.5t24.5 83q0 54 -20.5 87t-68.5 48.5t-131 15.5h-209v-293q61 -6 155 -6q106 0 165.5 16.5z" />
    <glyph glyph-name="C" unicode="C" horiz-adv-x="1391" 
d="M304.5 169.5q-227.5 189.5 -227.5 566.5q0 240 104.5 411.5t309 262t500.5 90.5q182 0 338 -32v-363q-153 28 -299 28q-250 0 -364 -96.5t-114 -296.5q0 -201 110.5 -297t352.5 -96q144 0 314 39v-364q-77 -19 -169.5 -30.5t-181.5 -11.5q-446 0 -673.5 189.5z" />
    <glyph glyph-name="D" unicode="D" horiz-adv-x="1683" 
d="M354.5 -8.5q-128.5 6.5 -234.5 19.5v1426q116 27 270 43t296 16q459 0 689.5 -185.5t230.5 -570.5q0 -268 -110.5 -434t-333.5 -243.5t-570 -77.5q-109 0 -237.5 6.5zM959 383q93 40 138.5 127.5t45.5 232.5q0 209 -105 302.5t-323 93.5q-31 0 -71 -4t-70 -9v-779
q47 -4 142 -4q150 0 243 40z" />
    <glyph glyph-name="E" unicode="E" horiz-adv-x="1405" 
d="M568 346h758v-346h-1206v1480h1196v-346h-748v-206h643v-346h-643v-236z" />
    <glyph glyph-name="F" unicode="F" horiz-adv-x="1373" 
d="M1316 1126h-742v-243h634v-354h-634v-529h-454v1480h1196v-354z" />
    <glyph glyph-name="G" unicode="G" horiz-adv-x="1578" 
d="M1454 720v-702q-228 -38 -420 -38q-482 0 -719.5 189t-237.5 565q0 242 108.5 413.5t326 262t540.5 90.5q182 0 349 -33v-364q-152 30 -310 30q-197 -1 -316 -45t-172.5 -132.5t-53.5 -228.5q0 -190 111 -286.5t342 -96.5h30v376h422z" />
    <glyph glyph-name="H" unicode="H" horiz-adv-x="1687" 
d="M120 0v1480h454v-530h539v530h454v-1480h-454v560h-539v-560h-454z" />
    <glyph glyph-name="I" unicode="I" horiz-adv-x="694" 
d="M120 0v1480h454v-1480h-454z" />
    <glyph glyph-name="J" unicode="J" horiz-adv-x="694" 
d="M-21 -167q81 102 112.5 207.5t31.5 262.5v1177h451v-1161q0 -195 -71.5 -356t-241.5 -319z" />
    <glyph glyph-name="K" unicode="K" horiz-adv-x="1469" 
d="M1034 0l-369 560h-91v-560h-454v1480h454v-530h90l340 530h475l-458 -714l504 -766h-491z" />
    <glyph glyph-name="L" unicode="L" horiz-adv-x="1280" 
d="M120 0v1480h454v-1118h696v-362h-1150z" />
    <glyph glyph-name="M" unicode="M" horiz-adv-x="2066" 
d="M1388 1480h554v-1480h-424v909l-300 -689h-370l-301 653v-873h-423v1480h553l363 -810z" />
    <glyph glyph-name="N" unicode="N" horiz-adv-x="1698" 
d="M1151 1480h427v-1480h-454l-577 833v-833h-427v1480h454l577 -833v833z" />
    <glyph glyph-name="O" unicode="O" horiz-adv-x="1768" 
d="M454.5 69q-181.5 89 -279.5 259.5t-98 411.5t97.5 411.5t279 259.5t430.5 89q248 0 430 -89.5t279.5 -260.5t97.5 -410t-98 -410t-280 -260.5t-429 -89.5q-248 0 -429.5 89zM1140.5 436q87.5 99 87.5 296q0 206 -88.5 308.5t-255.5 102.5t-255.5 -98t-88.5 -297
q0 -210 87 -310.5t257 -100.5q169 0 256.5 99z" />
    <glyph glyph-name="P" unicode="P" horiz-adv-x="1450" 
d="M120 1450q262 50 519 50q376 0 558.5 -134.5t182.5 -420.5q0 -275 -175.5 -415t-513.5 -140l-61 1q-19 1 -56 1v-392h-454v1450zM835 734.5q54 22.5 80.5 73t26.5 136.5q0 123 -62 178t-197 55q-62 0 -109 -8v-449q56 -8 121 -8q86 0 140 22.5z" />
    <glyph glyph-name="Q" unicode="Q" horiz-adv-x="1768" 
d="M1566 290q-125 -182 -370 -244q222 -55 483 -88l-71 -342q-581 90 -918.5 250t-475 372.5t-137.5 486.5q0 248 97.5 422t279 263.5t430.5 89.5q248 0 430 -89.5t279.5 -260.5t97.5 -410q0 -268 -125 -450zM626 436q86 -99 258 -99q169 0 256.5 99t87.5 296
q0 206 -88.5 308.5t-255.5 102.5t-255.5 -98t-88.5 -297q0 -213 86 -312z" />
    <glyph glyph-name="R" unicode="R" horiz-adv-x="1501" 
d="M1010 0l-343 495l-102 3v-498h-445v1437q117 28 264 45.5t273 17.5q352 0 530.5 -123t178.5 -378q0 -149 -68.5 -256t-196.5 -169l404 -574h-495zM565 826q71 -9 146 -9q118 0 175.5 42t57.5 140q0 93 -60 138t-180 45q-63 0 -139 -13v-343z" />
    <glyph glyph-name="S" unicode="S" horiz-adv-x="1296" 
d="M96 48v357q98 -32 232.5 -52t245.5 -20q124 0 172.5 26.5t48.5 76.5q0 28 -13 46.5t-48.5 33.5t-103.5 30l-138 31q-226 49 -332.5 157t-106.5 287q0 232 178.5 355.5t531.5 123.5q220 0 395 -45v-357q-72 22 -173.5 35.5t-200.5 13.5q-158 0 -220.5 -28t-62.5 -78
q0 -25 11 -41.5t39.5 -29.5t83.5 -26l138 -31q247 -53 358.5 -162.5t111.5 -287.5q0 -148 -80.5 -257t-231.5 -167.5t-358 -58.5q-260 0 -477 68z" />
    <glyph glyph-name="T" unicode="T" horiz-adv-x="1445" 
d="M495 0v1118h-478v362h1411v-362h-478v-1118h-455z" />
    <glyph glyph-name="U" unicode="U" horiz-adv-x="1651" 
d="M286.5 154q-172.5 174 -172.5 517v809h454v-848q0 -149 65.5 -218.5t196.5 -69.5t196 69.5t65 218.5v848h447v-809q0 -342 -171.5 -516.5t-536.5 -174.5q-371 0 -543.5 174z" />
    <glyph glyph-name="V" unicode="V" horiz-adv-x="1625" 
d="M1181 1480h444l-480 -1480h-665l-480 1480h476l348 -1131z" />
    <glyph glyph-name="W" unicode="W" horiz-adv-x="2567" 
d="M2118 1480h430l-407 -1480h-577l-274 1008l-287 -1008h-576l-408 1480h458l272 -1067l299 1067h496l289 -1087z" />
    <glyph glyph-name="X" unicode="X" horiz-adv-x="1516" 
d="M1022 781l557 -781h-501l-326 469l-325 -469h-491l554 774l-508 706h503l274 -392l274 392h487z" />
    <glyph glyph-name="Y" unicode="Y" horiz-adv-x="1445" 
d="M1492 1480l-539 -871v-609h-454v602l-562 878h479l318 -509l313 509h445z" />
    <glyph glyph-name="Z" unicode="Z" horiz-adv-x="1389" 
d="M657 362h661v-362h-1247v245l651 873h-641v362h1227v-245z" />
    <glyph glyph-name="bracketleft" unicode="[" horiz-adv-x="794" 
d="M140 -440v2056h678v-345h-234v-1366h219v-345h-663z" />
    <glyph glyph-name="backslash" unicode="\" horiz-adv-x="980" 
d="M538 -240l-538 1856h442l538 -1856h-442z" />
    <glyph glyph-name="bracketright" unicode="]" horiz-adv-x="794" 
d="M-9 -440v345h219v1366h-234v345h678v-2056h-663z" />
    <glyph glyph-name="asciicircum" unicode="^" 
d="M1341 740h-435l-216 369l-216 -369h-435l438 740h426z" />
    <glyph glyph-name="underscore" unicode="_" horiz-adv-x="1358" 
d="M88 -346v345h1182v-345h-1182z" />
    <glyph glyph-name="grave" unicode="`" horiz-adv-x="1200" 
d="M393 1220l-309 396h477l246 -396h-414z" />
    <glyph glyph-name="a" unicode="a" horiz-adv-x="1260" 
d="M908 1068q130 -50 191 -164t61 -312v-592h-365l-30 96h-19q-97 -118 -294 -118q-128 0 -218 42.5t-136.5 118t-46.5 171.5q0 165 127 255.5t397 104.5l148 7q-12 65 -67.5 92t-177.5 27q-71 0 -159 -11.5t-161 -32.5v317q92 24 200 36.5t202 12.5q218 0 348 -50zM727 296
v152l-105 -5q-71 -4 -102.5 -27.5t-31.5 -65.5q0 -38 29 -59.5t84 -21.5q76 0 126 27z" />
    <glyph glyph-name="b" unicode="b" horiz-adv-x="1393" 
d="M355.5 -4q-135.5 17 -248.5 53v1567h444v-615h19q109 117 299 117q129 0 234.5 -60.5t168 -183t62.5 -298.5q0 -290 -177.5 -443.5t-528.5 -153.5q-137 0 -272.5 17zM836.5 363q55.5 57 55.5 181q0 119 -49 169.5t-144 50.5q-85 0 -148 -31v-415q53 -12 114 -12
q116 0 171.5 57z" />
    <glyph glyph-name="c" unicode="c" horiz-adv-x="1106" 
d="M233 124q-173 146 -173 422q0 185 80.5 313t237 193.5t381.5 65.5q160 0 287 -27v-339q-133 19 -232 19q-158 0 -229 -55t-71 -168t70 -168t209 -55q57 0 113 7.5t140 24.5v-338q-63 -19 -143.5 -30t-167.5 -11q-329 0 -502 146z" />
    <glyph glyph-name="d" unicode="d" horiz-adv-x="1393" 
d="M306.5 39q-112.5 58 -179.5 180.5t-67 306.5q0 187 76.5 320.5t222.5 203.5t352 70q54 0 132 -6v502h444v-1616h-371l-24 110h-19q-56 -61 -135.5 -95t-178.5 -34q-140 0 -252.5 58zM772.5 344.5q40.5 10.5 70.5 30.5v406q-62 10 -115 10q-116 0 -171.5 -56t-55.5 -178
q0 -120 48.5 -171.5t140.5 -51.5q42 0 82.5 10.5z" />
    <glyph glyph-name="e" unicode="e" horiz-adv-x="1244" 
d="M1194 430h-694q7 -51 37.5 -79t99 -41t192.5 -13q133 0 295 27v-314q-179 -32 -363 -32q-246 0 -400 60.5t-227.5 186t-73.5 323.5q0 175 67.5 303.5t199.5 197.5t321 69q179 0 301 -70t183.5 -200.5t61.5 -313.5v-104zM533.5 809q-34.5 -43 -36.5 -143h289
q-3 100 -37 143t-107 43q-74 0 -108.5 -43z" />
    <glyph glyph-name="f" unicode="f" horiz-adv-x="920" 
d="M703 1252q-51 -41 -51 -124v-28h265v-345h-265v-755h-442v755h-171v345h171v11q0 160 68.5 278.5t199 182.5t312.5 64q89 0 179 -12v-337q-57 6 -103 6q-112 0 -163 -41z" />
    <glyph glyph-name="g" unicode="g" horiz-adv-x="1393" 
d="M141 -414v337q107 -26 211 -39.5t189 -13.5q163 0 232.5 48.5t69.5 151.5v49h-20q-109 -117 -299 -117q-126 0 -232 61t-169 179.5t-63 284.5q0 185 78.5 317t237 203t392.5 71q132 0 272.5 -18.5t246.5 -51.5v-891q0 -214 -76 -350t-232.5 -201.5t-401.5 -65.5
q-236 0 -436 46zM843 386v393q-57 11 -114 11q-228 0 -228 -228q0 -112 49 -160t144 -48q85 0 149 32z" />
    <glyph glyph-name="h" unicode="h" horiz-adv-x="1371" 
d="M107 1616h444v-615h19q56 57 132.5 87t166.5 30q117 0 207 -50.5t142.5 -159t52.5 -275.5v-633h-444v605q0 77 -29.5 108.5t-90.5 31.5q-45 0 -87 -16t-69 -42v-687h-444v1616z" />
    <glyph glyph-name="i" unicode="i" horiz-adv-x="658" 
d="M107 0v1100h444v-1100h-444zM65 1418q0 211 264 211t264 -211t-264 -211t-264 211z" />
    <glyph glyph-name="j" unicode="j" horiz-adv-x="658" 
d="M-37 -290q81 102 112.5 207.5t31.5 262.5v920h444v-904q0 -194 -70.5 -353.5t-238.5 -318.5zM57 1418q0 211 264 211t264 -211t-264 -211t-264 211z" />
    <glyph glyph-name="k" unicode="k" horiz-adv-x="1364" 
d="M923 0l-260 389h-112v-389h-444v1616h444v-873h110l235 357h470l-336 -524l373 -576h-480z" />
    <glyph glyph-name="l" unicode="l" horiz-adv-x="657" 
d="M107 0v1616h444v-1616h-444z" />
    <glyph glyph-name="m" unicode="m" horiz-adv-x="2001" 
d="M1790 999.5q112 -118.5 112 -367.5v-632h-443v607q0 75 -29 106.5t-82 31.5q-75 0 -122 -39q2 -40 2 -63v-643h-435v607q0 76 -25.5 107t-78.5 31q-43 0 -79.5 -16t-58.5 -42v-687h-444v1100h363l28 -100h19q58 57 138.5 87.5t180.5 30.5q95 0 171.5 -33.5t128.5 -101.5
q75 69 164 102t184 33q194 0 306 -118.5z" />
    <glyph glyph-name="n" unicode="n" horiz-adv-x="1371" 
d="M107 1100h363l28 -100h19q60 57 145.5 87.5t184.5 30.5q195 0 309.5 -118.5t114.5 -366.5v-633h-444v606q0 77 -29.5 108t-90.5 31q-46 0 -87.5 -16t-68.5 -42v-687h-444v1100z" />
    <glyph glyph-name="o" unicode="o" horiz-adv-x="1365" 
d="M352 45q-140 67 -216 195.5t-76 307.5q0 182 73 310t212.5 194t336.5 66q198 0 337.5 -66.5t212.5 -194.5t73 -308t-76 -308.5t-216.5 -195.5t-330.5 -67t-330 67zM819 365q45 55 45 183q0 129 -45 183.5t-137 54.5t-136.5 -54t-44.5 -183t44.5 -184t136.5 -55t137 55z
" />
    <glyph glyph-name="p" unicode="p" horiz-adv-x="1393" 
d="M107 1100h370l25 -111h19q55 61 134.5 95t178.5 34q140 0 253 -58.5t180 -181t67 -306.5q0 -186 -76.5 -319.5t-223 -203.5t-352.5 -70q-53 0 -131 6v-425h-444v1540zM836.5 364q55.5 56 55.5 178q0 120 -48.5 171.5t-140.5 51.5q-42 0 -82 -10.5t-70 -30.5v-406
q62 -10 114 -10q116 0 171.5 56z" />
    <glyph glyph-name="q" unicode="q" horiz-adv-x="1393" 
d="M843 95h-20q-110 -116 -299 -116q-128 0 -233.5 60.5t-168 182.5t-62.5 298q0 291 177.5 444.5t530.5 153.5q132 0 272.5 -18.5t246.5 -51.5v-1488h-444v535zM843 364v415q-57 11 -115 11q-112 0 -169.5 -57.5t-57.5 -180.5q0 -119 49 -169.5t144 -50.5q85 0 149 32z" />
    <glyph glyph-name="r" unicode="r" horiz-adv-x="913" 
d="M107 1100h360l35 -132h19q42 76 114.5 113t170.5 37q45 0 95 -8v-394q-47 10 -123 10q-68 0 -131 -19t-96 -53v-654h-444v1100z" />
    <glyph glyph-name="s" unicode="s" horiz-adv-x="1119" 
d="M282 -8.5q-109 13.5 -197 38.5v305q88 -25 196.5 -39.5t215.5 -14.5q90 0 126.5 14.5t36.5 41.5q0 18 -11.5 27t-45.5 14l-216 32q-175 25 -254.5 106.5t-79.5 223.5q0 179 153 278.5t461 99.5q91 0 184.5 -11.5t160.5 -29.5v-304q-68 19 -159.5 30.5t-177.5 11.5
q-122 0 -165 -16.5t-43 -43.5q0 -15 12.5 -23.5t45.5 -13.5l217 -32q166 -24 249 -99.5t83 -232.5q0 -117 -67 -201.5t-195 -129.5t-307 -45q-114 0 -223 13.5z" />
    <glyph glyph-name="t" unicode="t" horiz-adv-x="965" 
d="M646 755v-254q0 -65 15 -101.5t48 -51.5t92 -15q40 0 109 11v-339q-50 -11 -115.5 -18.5t-123.5 -7.5q-469 0 -469 445v331h-171v345h171l82 380h362v-380h264v-345h-264z" />
    <glyph glyph-name="u" unicode="u" horiz-adv-x="1361" 
d="M217 99.5q-117 118.5 -117 365.5v635h444v-606q0 -76 28.5 -107.5t85.5 -31.5q43 0 84.5 16t68.5 42v687h444v-1100h-363l-28 100h-16q-64 -58 -144 -88.5t-168 -30.5q-202 0 -319 118.5z" />
    <glyph glyph-name="v" unicode="v" horiz-adv-x="1331" 
d="M910 1100h434l-408 -1100h-543l-406 1100h465l229 -705z" />
    <glyph glyph-name="w" unicode="w" horiz-adv-x="2020" 
d="M1571 1100h403l-293 -1100h-488l-179 699l-186 -699h-487l-295 1100h421l145 -639l164 639h488l154 -622z" />
    <glyph glyph-name="x" unicode="x" horiz-adv-x="1280" 
d="M895 559l402 -559h-486l-175 262l-181 -262h-472l398 554l-391 546h486l169 -247l165 247h473z" />
    <glyph glyph-name="y" unicode="y" horiz-adv-x="1331" 
d="M910 1100h434l-572 -1540h-433l166 440h-112l-406 1100h465l230 -701z" />
    <glyph glyph-name="z" unicode="z" horiz-adv-x="1174" 
d="M653 345h464v-345h-1038v285l454 470h-444v345h1018v-285z" />
    <glyph glyph-name="braceleft" unicode="{" horiz-adv-x="834" 
d="M575 733q-49 -70 -154 -101q105 -31 154 -101t49 -179v-362q0 -53 27 -76t84 -23h123v-337q-105 -14 -206 -14q-233 0 -352.5 109t-119.5 315v382q0 51 -31.5 82.5t-82.5 31.5h-71v344h71q51 0 82.5 31.5t31.5 82.5v294q0 206 119.5 315t352.5 109q101 0 206 -14v-337
h-123q-57 0 -84 -23t-27 -76v-274q0 -109 -49 -179z" />
    <glyph glyph-name="bar" unicode="|" horiz-adv-x="639" 
d="M120 -440v2056h399v-2056h-399z" />
    <glyph glyph-name="braceright" unicode="}" horiz-adv-x="834" 
d="M839 804v-344h-71q-51 0 -82.5 -31.5t-31.5 -82.5v-382q0 -206 -119.5 -315t-353.5 -109q-102 0 -205 14v337h122q57 0 84.5 23t27.5 76v362q0 109 49.5 179t154.5 101q-105 31 -154.5 101t-49.5 179v274q0 53 -27.5 76t-84.5 23h-122v337q103 14 205 14
q234 0 353.5 -109t119.5 -315v-294q0 -51 31.5 -82.5t82.5 -31.5h71z" />
    <glyph glyph-name="asciitilde" unicode="~" horiz-adv-x="1156" 
d="M678 555q-52 16 -126 48q-62 27 -104 40.5t-85 13.5q-74 0 -134.5 -25.5t-123.5 -84.5v332q53 54 115 78t147 24q59 0 111 -16t126 -48q62 -27 104 -40.5t85 -13.5q74 0 134.5 25.5t123.5 84.5v-332q-53 -54 -115 -78t-147 -24q-59 0 -111 16z" />
    <glyph glyph-name="uni00A0" unicode="&#xa0;" horiz-adv-x="548" 
 />
    <glyph glyph-name="exclamdown" unicode="&#xa1;" horiz-adv-x="698" 
d="M497 1089q63 -31 97 -88t34 -133t-33 -133t-96 -88.5t-150 -31.5q-131 0 -205 67.5t-74 185.5q0 77 34 134t97 87.5t148 30.5t148 -31zM218 535h267l99 -447v-468h-470v468z" />
    <glyph glyph-name="cent" unicode="&#xa2;" horiz-adv-x="1113" 
d="M585 716q-71 -55 -71 -168t70 -168t209 -55q57 0 113 7.5t140 24.5v-338q-79 -23 -171 -33v-226h-379v242q-214 47 -325 185.5t-111 358.5q0 218 111.5 356t324.5 188v250h379v-226q88 -6 171 -23v-339q-133 19 -232 19q-158 0 -229 -55z" />
    <glyph glyph-name="sterling" unicode="&#xa3;" horiz-adv-x="1489" 
d="M1428 346v-346h-1348v346h190v247h-190v314h190v54q0 265 180 402t543 137q105 0 203.5 -11t178.5 -29v-357q-71 20 -170 32t-185 12q-124 0 -191.5 -16.5t-94.5 -51.5t-27 -96v-76h448v-314h-448v-247h721z" />
    <glyph glyph-name="currency" unicode="&#xa4;" 
d="M1150 476l131 -129l-198 -198l-129 131l-95 110q-79 -34 -169 -34t-169 34l-95 -110l-129 -131l-198 198l131 129l107 92q-37 77 -37 172q0 93 37 172l-107 92l-131 129l198 198l129 -131l96 -111q80 33 168 33t168 -33l96 111l129 131l198 -198l-131 -129l-107 -92
q37 -79 37 -172q0 -95 -37 -172zM583.5 623.5q41.5 -43.5 106.5 -43.5t106.5 43.5t41.5 116.5q0 69 -41 114.5t-105 45.5q-66 0 -108 -43t-42 -117q0 -73 41.5 -116.5z" />
    <glyph glyph-name="yen" unicode="&#xa5;" horiz-adv-x="1442" 
d="M1490 1480l-409 -662h191v-245h-320v-98h320v-245h-320v-230h-455v230h-320v245h320v98h-320v245h183l-424 662h478l319 -509l313 509h444z" />
    <glyph glyph-name="brokenbar" unicode="&#xa6;" horiz-adv-x="639" 
d="M120 836v780h399v-780h-399zM120 -440v780h399v-780h-399z" />
    <glyph glyph-name="section" unicode="&#xa7;" horiz-adv-x="1268" 
d="M1062 515q57 -66 57 -168q0 -115 -65 -197.5t-196.5 -127t-325.5 -44.5q-91 0 -195.5 11.5t-190.5 32.5v288q176 -44 379 -44q114 0 155.5 15t41.5 41q0 20 -13.5 31t-44.5 15l-278 48q-140 25 -221.5 102.5t-81.5 213.5t115 227q-64 69 -64 166q0 178 151 275.5
t479 97.5q80 0 163.5 -7.5t149.5 -20.5v-288q-133 28 -277 28q-269 0 -269 -60q0 -18 15 -27.5t46 -14.5l294 -46q299 -50 299 -312q0 -141 -123 -235zM783 640q22 20 31 37.5t9 37.5q0 30 -19.5 50t-68.5 28l-259 45q-31 -44 -31 -78q0 -30 20 -49t70 -28z" />
    <glyph glyph-name="dieresis" unicode="&#xa8;" horiz-adv-x="1200" 
d="M156 1266.5q-57 53.5 -57 151.5t57 151.5t169 53.5t169 -53.5t57 -151.5t-57 -151.5t-169 -53.5t-169 53.5zM706 1266.5q-57 53.5 -57 151.5t57 151.5t169 53.5t169 -53.5t57 -151.5t-57 -151.5t-169 -53.5t-169 53.5z" />
    <glyph glyph-name="copyright" unicode="&#xa9;" horiz-adv-x="1653" 
d="M433 73q-170 95 -263 267.5t-93 399.5t93 399.5t263 267.5t394 95t394 -95t263 -267.5t93 -399.5t-93 -399.5t-263 -267.5t-394 -95t-394 95zM1112.5 256.5q118.5 66.5 180.5 190t62 293.5t-62 293.5t-180.5 190t-285.5 66.5q-168 0 -286.5 -66.5t-180.5 -190t-62 -293.5
t62 -293.5t180.5 -190t286.5 -66.5q167 0 285.5 66.5zM660.5 372.5q-100.5 48.5 -155 140.5t-54.5 219q0 128 56 221t159 142t243 49q104 0 192 -22v-250q-96 16 -164 16q-96 0 -141.5 -39.5t-45.5 -116.5q0 -73 45 -112.5t129 -39.5q42 0 80 5t97 19v-250q-83 -30 -204 -30
q-136 0 -236.5 48.5z" />
    <glyph glyph-name="ordfeminine" unicode="&#xaa;" horiz-adv-x="1054" 
d="M768 1460q115 -42 168.5 -138t53.5 -259v-453h-342l-29 78h-18q-39 -49 -101.5 -72.5t-138.5 -23.5q-112 0 -187.5 34.5t-112 94.5t-36.5 138q0 137 100.5 206.5t321.5 77.5l131 5q-6 34 -48 50.5t-146 16.5q-63 0 -135.5 -9t-133.5 -25v281q80 20 171.5 30t175.5 10
q191 0 306 -42zM580 853v114l-65 -2q-46 -1 -66.5 -16.5t-20.5 -43.5t21 -43.5t63 -15.5q36 0 68 7z" />
    <glyph glyph-name="guillemotleft" unicode="&#xab;" horiz-adv-x="1463" 
d="M342 130l-273 440l273 440h455l-273 -440l273 -440h-455zM980 130l-273 440l273 440h455l-273 -440l273 -440h-455z" />
    <glyph glyph-name="logicalnot" unicode="&#xac;" horiz-adv-x="1378" 
d="M934 205v390h-829v330h1173v-720h-344z" />
    <glyph glyph-name="uni00AD" unicode="&#xad;" horiz-adv-x="1053" 
d="M105 392v356h843v-356h-843z" />
    <glyph glyph-name="registered" unicode="&#xae;" horiz-adv-x="1413" 
d="M1024.5 1420q138.5 -78 215.5 -218t77 -320t-77 -319.5t-215.5 -217t-317.5 -77.5t-317.5 77.5t-215.5 217t-77 319.5t77 320t215.5 218t317.5 78t317.5 -78zM940 480.5q100 56.5 154.5 160t54.5 241.5q0 139 -54.5 243t-154.5 160.5t-233 56.5t-233 -56.5t-155 -160.5
t-55 -243q0 -138 55 -241.5t155 -160t233 -56.5t233 56.5zM935.5 875.5q-27.5 -44.5 -84.5 -66.5l144 -209h-182l-128 186h-29l-6 -186h-165v592h214q134 0 199 -50.5t65 -153.5q0 -68 -27.5 -112.5zM656 918h69q76 0 76 70q0 36 -20 54t-56 18h-69v-142z" />
    <glyph glyph-name="macron" unicode="&#xaf;" horiz-adv-x="1200" 
d="M199 1295v248h802v-248h-802z" />
    <glyph glyph-name="degree" unicode="&#xb0;" horiz-adv-x="995" 
d="M292.5 763q-91.5 51 -143.5 141t-52 203t52 202.5t143.5 140t205.5 50.5t205 -50.5t143 -140t52 -202.5t-52 -203t-143 -141t-205 -51t-205.5 51zM599.5 995.5q40.5 41.5 40.5 111.5t-40.5 110.5t-101.5 40.5t-102 -40.5t-41 -110.5t40.5 -111.5t102.5 -41.5
q61 0 101.5 41.5z" />
    <glyph glyph-name="plusminus" unicode="&#xb1;" horiz-adv-x="1156" 
d="M406 404v268h-301v330h301v268h344v-268h301v-330h-301v-268h-344zM105 1v329h946v-329h-946z" />
    <glyph glyph-name="uni00B2" unicode="&#xb2;" horiz-adv-x="940" 
d="M869 133v-269h-797v176l303 318q57 61 81.5 100.5t24.5 72.5q0 44 -37 64.5t-132 20.5q-63 0 -132.5 -12.5t-119.5 -29.5v265q58 18 139 28.5t163 10.5q237 0 350.5 -75.5t113.5 -233.5q0 -77 -36.5 -150.5t-116.5 -154.5l-129 -131h325z" />
    <glyph glyph-name="uni00B3" unicode="&#xb3;" horiz-adv-x="940" 
d="M802.5 302.5q49.5 -57.5 49.5 -152.5q0 -143 -116.5 -221.5t-358.5 -78.5q-164 0 -312 34v241q69 -16 147.5 -25.5t145.5 -9.5q91 0 130 20.5t39 61.5q0 42 -33.5 61.5t-119.5 19.5h-219v241h203q70 0 98 18t28 51q0 38 -35 57.5t-117 19.5q-59 0 -130.5 -11.5
t-124.5 -30.5v242q53 16 136.5 27t156.5 11q226 0 336.5 -73.5t110.5 -213.5q0 -77 -41 -133.5t-112 -78.5q89 -19 138.5 -76.5z" />
    <glyph glyph-name="acute" unicode="&#xb4;" horiz-adv-x="1200" 
d="M393 1220l246 396h477l-309 -396h-414z" />
    <glyph glyph-name="uni00B5" unicode="&#xb5;" horiz-adv-x="1361" 
d="M1255 1100v-1100h-363l-28 100h-16q-45 -57 -102 -88t-119 -31q-42 0 -83 11v-432h-444v1538h444v-604q0 -76 28.5 -107.5t85.5 -31.5q43 0 84.5 16t68.5 42v687h444z" />
    <glyph glyph-name="paragraph" unicode="&#xb6;" horiz-adv-x="1450" 
d="M580 391l-67 -1q-218 0 -330.5 140t-112.5 415q0 193 54 315.5t165 181t286 58.5q161 0 310 -20v-1480h-305v391zM1025 0v1480h306v-1480h-306z" />
    <glyph glyph-name="periodcentered" unicode="&#xb7;" horiz-adv-x="658" 
d="M181 338.5q-63 30.5 -97 87.5t-34 134q0 118 74 185t205 67q87 0 150 -31t96 -88t33 -133t-34 -133t-97 -88t-148 -31t-148 30.5z" />
    <glyph glyph-name="cedilla" unicode="&#xb8;" horiz-adv-x="1200" 
d="M841.5 -141.5q43.5 -48.5 43.5 -123.5q0 -92 -74.5 -143.5t-217.5 -51.5q-106 0 -199 31v152q37 -14 87 -21.5t90 -7.5q48 0 71.5 14t23.5 47t-24 48t-71 15h-57v202h198v-96q86 -17 129.5 -65.5z" />
    <glyph glyph-name="uni00B9" unicode="&#xb9;" horiz-adv-x="940" 
d="M692 133h203v-269h-769v269h215v371l-212 -129v292l331 201h232v-735z" />
    <glyph glyph-name="ordmasculine" unicode="&#xba;" horiz-adv-x="1138" 
d="M276 648q-121 56 -184 158.5t-63 241.5t62.5 241.5t184 157.5t292.5 55t293 -55.5t185 -158t63 -240.5t-63 -241t-185 -159t-293 -56t-292 56zM666 928.5q34 37.5 34 119.5t-33.5 118.5t-98.5 36.5q-130 0 -130 -155q0 -81 34 -119t96 -38q64 0 98 37.5z" />
    <glyph glyph-name="guillemotright" unicode="&#xbb;" horiz-adv-x="1463" 
d="M29 130l273 440l-273 440h455l273 -440l-273 -440h-455zM667 130l273 440l-273 440h455l273 -440l-273 -440h-455z" />
    <glyph glyph-name="onequarter" unicode="&#xbc;" horiz-adv-x="2353" 
d="M692 885h203v-269h-769v269h215v371l-212 -129v292l331 201h232v-735zM568 -136l853 1752h365l-853 -1752h-365zM2332 288v-256h-118v-168h-305v168h-475v180l284 652h318l-249 -576h122l55 238h250v-238h118z" />
    <glyph glyph-name="onehalf" unicode="&#xbd;" horiz-adv-x="2353" 
d="M692 885h203v-269h-769v269h215v371l-212 -129v292l331 201h232v-735zM568 -136l853 1752h365l-853 -1752h-365zM2282 133v-269h-797v176l303 318q57 61 81.5 100.5t24.5 72.5q0 44 -37 64.5t-132 20.5q-63 0 -132.5 -12.5t-119.5 -29.5v265q58 18 139 28.5t163 10.5
q237 0 350.5 -75.5t113.5 -233.5q0 -77 -36.5 -150.5t-116.5 -154.5l-129 -131h325z" />
    <glyph glyph-name="threequarters" unicode="&#xbe;" horiz-adv-x="2353" 
d="M802.5 1054.5q49.5 -57.5 49.5 -152.5q0 -143 -116.5 -221.5t-358.5 -78.5q-164 0 -312 34v241q69 -16 147.5 -25.5t145.5 -9.5q91 0 130 20.5t39 61.5q0 42 -33.5 61.5t-119.5 19.5h-219v241h203q70 0 98 18t28 51q0 38 -35 57.5t-117 19.5q-59 0 -130.5 -11.5
t-124.5 -30.5v242q53 16 136.5 27t156.5 11q226 0 336.5 -73.5t110.5 -213.5q0 -77 -41 -133.5t-112 -78.5q89 -19 138.5 -76.5zM568 -136l853 1752h365l-853 -1752h-365zM2332 288v-256h-118v-168h-305v168h-475v180l284 652h318l-249 -576h122l55 238h250v-238h118z" />
    <glyph glyph-name="questiondown" unicode="&#xbf;" horiz-adv-x="1119" 
d="M815.5 1057q74.5 -63 74.5 -173t-73.5 -173t-205.5 -63q-87 0 -149.5 29.5t-95.5 82.5t-33 124t33.5 124t96.5 82.5t148 29.5q130 0 204.5 -63zM822 225q-188 -22 -262.5 -64t-74.5 -102q0 -61 55.5 -91.5t181.5 -30.5q88 0 185.5 16t177.5 43v-339q-78 -25 -194 -41
t-219 -16q-311 0 -465 108.5t-154 316.5q0 159 105 261t292 147l28 135h268z" />
    <glyph glyph-name="Agrave" unicode="&#xc0;" horiz-adv-x="1645" 
d="M1191 0l-102 337h-537l-102 -337h-440l481 1480h662l482 -1480h-444zM655 681h330l-165 545zM621 1586l-259 316h466l193 -316h-400z" />
    <glyph glyph-name="Aacute" unicode="&#xc1;" horiz-adv-x="1645" 
d="M1191 0l-102 337h-537l-102 -337h-440l481 1480h662l482 -1480h-444zM655 681h330l-165 545zM618 1586l193 316h466l-259 -316h-400z" />
    <glyph glyph-name="Acircumflex" unicode="&#xc2;" horiz-adv-x="1645" 
d="M1191 0l-102 337h-537l-102 -337h-440l481 1480h662l482 -1480h-444zM655 681h330l-165 545zM1302 1586h-336l-145 161l-145 -161h-336l297 316h368z" />
    <glyph glyph-name="Atilde" unicode="&#xc3;" horiz-adv-x="1645" 
d="M1191 0l-102 337h-537l-102 -337h-440l481 1480h662l482 -1480h-444zM655 681h330l-165 545zM914 1595.5q-45 9.5 -110 29.5q-58 17 -99 26t-85 9q-67 0 -118.5 -16t-107.5 -51v232q48 40 103.5 58.5t132.5 18.5q53 0 99.5 -10t108.5 -30q61 -18 100.5 -27t83.5 -9
q67 0 118.5 16t107.5 51v-232q-47 -40 -102.5 -57.5t-133.5 -17.5q-53 0 -98 9.5z" />
    <glyph glyph-name="Adieresis" unicode="&#xc4;" horiz-adv-x="1645" 
d="M1191 0l-102 337h-537l-102 -337h-440l481 1480h662l482 -1480h-444zM655 681h330l-165 545zM369.5 1616.5q-55.5 46.5 -55.5 133.5t55.5 133.5t167.5 46.5t167 -46.5t55 -133.5t-55 -133.5t-167 -46.5t-167.5 46.5zM938 1616.5q-55 46.5 -55 133.5t55 133.5t167 46.5
t167.5 -46.5t55.5 -133.5t-55.5 -133.5t-167.5 -46.5t-167 46.5z" />
    <glyph glyph-name="Aring" unicode="&#xc5;" horiz-adv-x="1645" 
d="M1191 0l-102 337h-537l-102 -337h-440l481 1480h662l482 -1480h-444zM655 681h330l-165 545zM704 1598.5q-52 28.5 -81.5 78.5t-29.5 113t29.5 113t81.5 78.5t117 28.5t117 -28.5t81.5 -78.5t29.5 -113t-29.5 -113t-81.5 -78.5t-117 -28.5t-117 28.5zM877.5 1730.5
q21.5 22.5 21.5 59.5t-21.5 59.5t-56.5 22.5t-56.5 -22.5t-21.5 -59.5t21.5 -59.5t56.5 -22.5t56.5 22.5z" />
    <glyph glyph-name="AE" unicode="&#xc6;" horiz-adv-x="2246" 
d="M1482 346h685v-346h-1108l-28 336h-478l-102 -336h-441l481 1480h1666v-346h-751l20 -206h626v-346h-593zM657 682h345l-37 452h-171z" />
    <glyph glyph-name="Ccedilla" unicode="&#xc7;" horiz-adv-x="1391" 
d="M666 1036.5q-114 -96.5 -114 -296.5q0 -201 110.5 -297t352.5 -96q144 0 314 39v-364q-77 -19 -169.5 -30.5t-181.5 -11.5q-50 0 -74 1v-56q97 -15 145 -62.5t48 -122.5q0 -94 -78.5 -147t-233.5 -53q-115 0 -219 31v152q44 -14 97 -21.5t100 -7.5q59 0 87 14t28 46
q0 34 -28.5 49t-86.5 15h-57v183q-312 53 -470.5 237t-158.5 498q0 240 104.5 411.5t309 262t500.5 90.5q182 0 338 -32v-363q-153 28 -299 28q-250 0 -364 -96.5z" />
    <glyph glyph-name="Egrave" unicode="&#xc8;" horiz-adv-x="1405" 
d="M568 346h758v-346h-1206v1480h1196v-346h-748v-206h643v-346h-643v-236zM540 1586l-259 316h466l193 -316h-400z" />
    <glyph glyph-name="Eacute" unicode="&#xc9;" horiz-adv-x="1405" 
d="M568 346h758v-346h-1206v1480h1196v-346h-748v-206h643v-346h-643v-236zM537 1586l193 316h466l-259 -316h-400z" />
    <glyph glyph-name="Ecircumflex" unicode="&#xca;" horiz-adv-x="1405" 
d="M568 346h758v-346h-1206v1480h1196v-346h-748v-206h643v-346h-643v-236zM1221 1586h-336l-145 161l-145 -161h-336l297 316h368z" />
    <glyph glyph-name="Edieresis" unicode="&#xcb;" horiz-adv-x="1405" 
d="M568 346h758v-346h-1206v1480h1196v-346h-748v-206h643v-346h-643v-236zM288.5 1616.5q-55.5 46.5 -55.5 133.5t55.5 133.5t167.5 46.5t167 -46.5t55 -133.5t-55 -133.5t-167 -46.5t-167.5 46.5zM857 1616.5q-55 46.5 -55 133.5t55 133.5t167 46.5t167.5 -46.5
t55.5 -133.5t-55.5 -133.5t-167.5 -46.5t-167 46.5z" />
    <glyph glyph-name="Igrave" unicode="&#xcc;" horiz-adv-x="694" 
d="M120 0v1480h454v-1480h-454zM147 1586l-259 316h466l193 -316h-400z" />
    <glyph glyph-name="Iacute" unicode="&#xcd;" horiz-adv-x="694" 
d="M120 0v1480h454v-1480h-454zM144 1586l193 316h466l-259 -316h-400z" />
    <glyph glyph-name="Icircumflex" unicode="&#xce;" horiz-adv-x="694" 
d="M120 0v1480h454v-1480h-454zM828 1586h-336l-145 161l-145 -161h-336l297 316h368z" />
    <glyph glyph-name="Idieresis" unicode="&#xcf;" horiz-adv-x="694" 
d="M120 0v1480h454v-1480h-454zM-104.5 1616.5q-55.5 46.5 -55.5 133.5t55.5 133.5t167.5 46.5t167 -46.5t55 -133.5t-55 -133.5t-167 -46.5t-167.5 46.5zM464 1616.5q-55 46.5 -55 133.5t55 133.5t167 46.5t167.5 -46.5t55.5 -133.5t-55.5 -133.5t-167.5 -46.5t-167 46.5z
" />
    <glyph glyph-name="Eth" unicode="&#xd0;" horiz-adv-x="1683" 
d="M1375.5 1310.5q230.5 -185.5 230.5 -570.5q0 -268 -110.5 -434t-333.5 -243.5t-570 -77.5q-109 0 -237.5 6.5t-234.5 19.5v614h-113v274h113v538q116 27 270 43t296 16q459 0 689.5 -185.5zM959 383q93 40 138.5 127.5t45.5 232.5q0 209 -105 302.5t-323 93.5
q-31 0 -71 -4t-70 -9v-227h255v-274h-255v-278q47 -4 142 -4q150 0 243 40z" />
    <glyph glyph-name="Ntilde" unicode="&#xd1;" horiz-adv-x="1698" 
d="M1151 1480h427v-1480h-454l-577 833v-833h-427v1480h454l577 -833v833zM942 1595.5q-45 9.5 -110 29.5q-58 17 -99 26t-85 9q-67 0 -118.5 -16t-107.5 -51v232q48 40 103.5 58.5t132.5 18.5q53 0 99.5 -10t108.5 -30q61 -18 100.5 -27t83.5 -9q67 0 118.5 16t107.5 51
v-232q-47 -40 -102.5 -57.5t-133.5 -17.5q-53 0 -98 9.5z" />
    <glyph glyph-name="Ograve" unicode="&#xd2;" horiz-adv-x="1768" 
d="M454.5 69q-181.5 89 -279.5 259.5t-98 411.5t97.5 411.5t279 259.5t430.5 89q248 0 430 -89.5t279.5 -260.5t97.5 -410t-98 -410t-280 -260.5t-429 -89.5q-248 0 -429.5 89zM1140.5 436q87.5 99 87.5 296q0 206 -88.5 308.5t-255.5 102.5t-255.5 -98t-88.5 -297
q0 -210 87 -310.5t257 -100.5q169 0 256.5 99zM684 1586l-259 316h466l193 -316h-400z" />
    <glyph glyph-name="Oacute" unicode="&#xd3;" horiz-adv-x="1768" 
d="M454.5 69q-181.5 89 -279.5 259.5t-98 411.5t97.5 411.5t279 259.5t430.5 89q248 0 430 -89.5t279.5 -260.5t97.5 -410t-98 -410t-280 -260.5t-429 -89.5q-248 0 -429.5 89zM1140.5 436q87.5 99 87.5 296q0 206 -88.5 308.5t-255.5 102.5t-255.5 -98t-88.5 -297
q0 -210 87 -310.5t257 -100.5q169 0 256.5 99zM681 1586l193 316h466l-259 -316h-400z" />
    <glyph glyph-name="Ocircumflex" unicode="&#xd4;" horiz-adv-x="1768" 
d="M454.5 69q-181.5 89 -279.5 259.5t-98 411.5t97.5 411.5t279 259.5t430.5 89q248 0 430 -89.5t279.5 -260.5t97.5 -410t-98 -410t-280 -260.5t-429 -89.5q-248 0 -429.5 89zM1140.5 436q87.5 99 87.5 296q0 206 -88.5 308.5t-255.5 102.5t-255.5 -98t-88.5 -297
q0 -210 87 -310.5t257 -100.5q169 0 256.5 99zM1365 1586h-336l-145 161l-145 -161h-336l297 316h368z" />
    <glyph glyph-name="Otilde" unicode="&#xd5;" horiz-adv-x="1768" 
d="M454.5 69q-181.5 89 -279.5 259.5t-98 411.5t97.5 411.5t279 259.5t430.5 89q248 0 430 -89.5t279.5 -260.5t97.5 -410t-98 -410t-280 -260.5t-429 -89.5q-248 0 -429.5 89zM1140.5 436q87.5 99 87.5 296q0 206 -88.5 308.5t-255.5 102.5t-255.5 -98t-88.5 -297
q0 -210 87 -310.5t257 -100.5q169 0 256.5 99zM977 1595.5q-45 9.5 -110 29.5q-58 17 -99 26t-85 9q-67 0 -118.5 -16t-107.5 -51v232q48 40 103.5 58.5t132.5 18.5q53 0 99.5 -10t108.5 -30q61 -18 100.5 -27t83.5 -9q67 0 118.5 16t107.5 51v-232q-47 -40 -102.5 -57.5
t-133.5 -17.5q-53 0 -98 9.5z" />
    <glyph glyph-name="Odieresis" unicode="&#xd6;" horiz-adv-x="1768" 
d="M454.5 69q-181.5 89 -279.5 259.5t-98 411.5t97.5 411.5t279 259.5t430.5 89q248 0 430 -89.5t279.5 -260.5t97.5 -410t-98 -410t-280 -260.5t-429 -89.5q-248 0 -429.5 89zM1140.5 436q87.5 99 87.5 296q0 206 -88.5 308.5t-255.5 102.5t-255.5 -98t-88.5 -297
q0 -210 87 -310.5t257 -100.5q169 0 256.5 99zM432.5 1616.5q-55.5 46.5 -55.5 133.5t55.5 133.5t167.5 46.5t167 -46.5t55 -133.5t-55 -133.5t-167 -46.5t-167.5 46.5zM1001 1616.5q-55 46.5 -55 133.5t55 133.5t167 46.5t167.5 -46.5t55.5 -133.5t-55.5 -133.5
t-167.5 -46.5t-167 46.5z" />
    <glyph glyph-name="multiply" unicode="&#xd7;" horiz-adv-x="1098" 
d="M303 281l-233 233l246 246l-246 246l233 233l246 -246l246 246l233 -233l-246 -246l246 -246l-233 -233l-246 246z" />
    <glyph glyph-name="Oslash" unicode="&#xd8;" horiz-adv-x="1768" 
d="M1641.5 1045q49.5 -136 49.5 -305q0 -239 -98 -410t-280 -260.5t-429 -89.5q-252 0 -434 91l-116 -133l-168 144l104 120q-94 97 -143.5 232.5t-49.5 305.5q0 241 97.5 411.5t279 259.5t430.5 89q251 0 433 -91l116 133l169 -144l-104 -120q94 -97 143.5 -233zM568 545
l487 562q-72 36 -171 36q-167 0 -255.5 -98t-88.5 -297q0 -120 28 -203zM1140.5 436q87.5 99 87.5 296q0 117 -29 202l-488 -562q70 -35 173 -35q169 0 256.5 99z" />
    <glyph glyph-name="Ugrave" unicode="&#xd9;" horiz-adv-x="1651" 
d="M286.5 154q-172.5 174 -172.5 517v809h454v-848q0 -149 65.5 -218.5t196.5 -69.5t196 69.5t65 218.5v848h447v-809q0 -342 -171.5 -516.5t-536.5 -174.5q-371 0 -543.5 174zM630 1586l-259 316h466l193 -316h-400z" />
    <glyph glyph-name="Uacute" unicode="&#xda;" horiz-adv-x="1651" 
d="M286.5 154q-172.5 174 -172.5 517v809h454v-848q0 -149 65.5 -218.5t196.5 -69.5t196 69.5t65 218.5v848h447v-809q0 -342 -171.5 -516.5t-536.5 -174.5q-371 0 -543.5 174zM627 1586l193 316h466l-259 -316h-400z" />
    <glyph glyph-name="Ucircumflex" unicode="&#xdb;" horiz-adv-x="1651" 
d="M286.5 154q-172.5 174 -172.5 517v809h454v-848q0 -149 65.5 -218.5t196.5 -69.5t196 69.5t65 218.5v848h447v-809q0 -342 -171.5 -516.5t-536.5 -174.5q-371 0 -543.5 174zM1311 1586h-336l-145 161l-145 -161h-336l297 316h368z" />
    <glyph glyph-name="Udieresis" unicode="&#xdc;" horiz-adv-x="1651" 
d="M286.5 154q-172.5 174 -172.5 517v809h454v-848q0 -149 65.5 -218.5t196.5 -69.5t196 69.5t65 218.5v848h447v-809q0 -342 -171.5 -516.5t-536.5 -174.5q-371 0 -543.5 174zM378.5 1616.5q-55.5 46.5 -55.5 133.5t55.5 133.5t167.5 46.5t167 -46.5t55 -133.5t-55 -133.5
t-167 -46.5t-167.5 46.5zM947 1616.5q-55 46.5 -55 133.5t55 133.5t167 46.5t167.5 -46.5t55.5 -133.5t-55.5 -133.5t-167.5 -46.5t-167 46.5z" />
    <glyph glyph-name="Yacute" unicode="&#xdd;" horiz-adv-x="1445" 
d="M1492 1480l-539 -871v-609h-454v602l-562 878h479l318 -509l313 509h445zM519 1586l193 316h466l-259 -316h-400z" />
    <glyph glyph-name="Thorn" unicode="&#xde;" horiz-adv-x="1460" 
d="M120 1480h454v-167l37 1q13 1 37 1q371 0 551.5 -134.5t180.5 -420.5q0 -275 -174.5 -415t-510.5 -140l-64 1q-20 1 -57 1v-207h-454v1480zM883 580.5q59 52.5 59 178.5q0 123 -61.5 178.5t-197.5 55.5q-62 0 -109 -8v-451q63 -6 121 -6q129 0 188 52.5z" />
    <glyph glyph-name="germandbls" unicode="&#xdf;" horiz-adv-x="1812" 
d="M1684 586.5q83 -75.5 83 -232.5q0 -117 -68.5 -201.5t-203 -129.5t-329.5 -45q-89 0 -195.5 11.5t-191.5 32.5v305q80 -19 187.5 -32.5t192.5 -13.5q111 0 153 14t42 42q0 18 -11.5 27t-45.5 14l-217 32q-175 25 -254 106.5t-79 223.5q0 172 141.5 267t412.5 99
q-2 120 -82 179.5t-220 59.5q-176 0 -260.5 -90t-84.5 -271v-984h-444v746h-171v354h181q26 168 121 288.5t252 184t368 63.5q197 0 342 -65t224.5 -197t79.5 -327q0 -61 -8.5 -113t-26.5 -126q-74 7 -176 7q-140 0 -188 -16.5t-48 -43.5q0 -15 12.5 -23.5t46.5 -13.5
l217 -32q165 -24 248 -99.5z" />
    <glyph glyph-name="agrave" unicode="&#xe0;" horiz-adv-x="1260" 
d="M908 1068q130 -50 191 -164t61 -312v-592h-365l-30 96h-19q-97 -118 -294 -118q-128 0 -218 42.5t-136.5 118t-46.5 171.5q0 165 127 255.5t397 104.5l148 7q-12 65 -67.5 92t-177.5 27q-71 0 -159 -11.5t-161 -32.5v317q92 24 200 36.5t202 12.5q218 0 348 -50zM727 296
v152l-105 -5q-71 -4 -102.5 -27.5t-31.5 -65.5q0 -38 29 -59.5t84 -21.5q76 0 126 27zM419 1220l-309 396h477l246 -396h-414z" />
    <glyph glyph-name="aacute" unicode="&#xe1;" horiz-adv-x="1260" 
d="M908 1068q130 -50 191 -164t61 -312v-592h-365l-30 96h-19q-97 -118 -294 -118q-128 0 -218 42.5t-136.5 118t-46.5 171.5q0 165 127 255.5t397 104.5l148 7q-12 65 -67.5 92t-177.5 27q-71 0 -159 -11.5t-161 -32.5v317q92 24 200 36.5t202 12.5q218 0 348 -50zM727 296
v152l-105 -5q-71 -4 -102.5 -27.5t-31.5 -65.5q0 -38 29 -59.5t84 -21.5q76 0 126 27zM419 1220l246 396h477l-309 -396h-414z" />
    <glyph glyph-name="acircumflex" unicode="&#xe2;" horiz-adv-x="1260" 
d="M908 1068q130 -50 191 -164t61 -312v-592h-365l-30 96h-19q-97 -118 -294 -118q-128 0 -218 42.5t-136.5 118t-46.5 171.5q0 165 127 255.5t397 104.5l148 7q-12 65 -67.5 92t-177.5 27q-71 0 -159 -11.5t-161 -32.5v317q92 24 200 36.5t202 12.5q218 0 348 -50zM727 296
v152l-105 -5q-71 -4 -102.5 -27.5t-31.5 -65.5q0 -38 29 -59.5t84 -21.5q76 0 126 27zM1062 1220h-314l-122 195l-122 -195h-314l262 396h348z" />
    <glyph glyph-name="atilde" unicode="&#xe3;" horiz-adv-x="1260" 
d="M908 1068q130 -50 191 -164t61 -312v-592h-365l-30 96h-19q-97 -118 -294 -118q-128 0 -218 42.5t-136.5 118t-46.5 171.5q0 165 127 255.5t397 104.5l148 7q-12 65 -67.5 92t-177.5 27q-71 0 -159 -11.5t-161 -32.5v317q92 24 200 36.5t202 12.5q218 0 348 -50zM727 296
v152l-105 -5q-71 -4 -102.5 -27.5t-31.5 -65.5q0 -38 29 -59.5t84 -21.5q76 0 126 27zM710 1256.5q-42 13.5 -102 39.5q-54 24 -90.5 35.5t-74.5 11.5q-62 0 -112.5 -21t-105.5 -70v258q47 45 101.5 65t126.5 20q47 0 89 -13.5t102 -39.5q54 -24 90.5 -35.5t74.5 -11.5
q62 0 112.5 21t105.5 70v-258q-47 -45 -101.5 -65t-126.5 -20q-47 0 -89 13.5z" />
    <glyph glyph-name="adieresis" unicode="&#xe4;" horiz-adv-x="1260" 
d="M908 1068q130 -50 191 -164t61 -312v-592h-365l-30 96h-19q-97 -118 -294 -118q-128 0 -218 42.5t-136.5 118t-46.5 171.5q0 165 127 255.5t397 104.5l148 7q-12 65 -67.5 92t-177.5 27q-71 0 -159 -11.5t-161 -32.5v317q92 24 200 36.5t202 12.5q218 0 348 -50zM727 296
v152l-105 -5q-71 -4 -102.5 -27.5t-31.5 -65.5q0 -38 29 -59.5t84 -21.5q76 0 126 27zM182 1266.5q-57 53.5 -57 151.5t57 151.5t169 53.5t169 -53.5t57 -151.5t-57 -151.5t-169 -53.5t-169 53.5zM732 1266.5q-57 53.5 -57 151.5t57 151.5t169 53.5t169 -53.5t57 -151.5
t-57 -151.5t-169 -53.5t-169 53.5z" />
    <glyph glyph-name="aring" unicode="&#xe5;" horiz-adv-x="1260" 
d="M908 1068q130 -50 191 -164t61 -312v-592h-365l-30 96h-19q-97 -118 -294 -118q-128 0 -218 42.5t-136.5 118t-46.5 171.5q0 165 127 255.5t397 104.5l148 7q-12 65 -67.5 92t-177.5 27q-71 0 -159 -11.5t-161 -32.5v317q92 24 200 36.5t202 12.5q218 0 348 -50zM727 296
v152l-105 -5q-71 -4 -102.5 -27.5t-31.5 -65.5q0 -38 29 -59.5t84 -21.5q76 0 126 27zM509 1242.5q-52 28.5 -81.5 78.5t-29.5 113t29.5 113t81.5 78.5t117 28.5t117 -28.5t81.5 -78.5t29.5 -113t-29.5 -113t-81.5 -78.5t-117 -28.5t-117 28.5zM682.5 1374.5
q21.5 22.5 21.5 59.5t-21.5 59.5t-56.5 22.5t-56.5 -22.5t-21.5 -59.5t21.5 -59.5t56.5 -22.5t56.5 22.5z" />
    <glyph glyph-name="ae" unicode="&#xe6;" horiz-adv-x="1899" 
d="M1849 430h-686q7 -51 36.5 -79t96.5 -41t188 -13q133 0 295 27v-314q-179 -32 -362 -32q-185 0 -317 35.5t-215 108.5q-81 -73 -181.5 -108.5t-211.5 -35.5q-147 0 -246 42.5t-147 118t-48 174.5q0 167 129 260t396 93h150q-7 48 -33.5 76t-78.5 41t-137 13
q-70 0 -157.5 -11.5t-160.5 -32.5v317q189 49 381 49q151 0 256.5 -29t171.5 -92q69 59 160 90t199 31q166 0 283 -69.5t178 -200.5t61 -314v-104zM1196 809q-34 -43 -36 -143h281q-3 99 -36.5 142.5t-103.5 43.5q-71 0 -105 -43zM517 289.5q29 -20.5 87 -20.5q45 0 81.5 11
t75.5 37q-16 48 -26 119h-114q-71 0 -102 -23t-31 -66q0 -37 29 -57.5z" />
    <glyph glyph-name="ccedilla" unicode="&#xe7;" horiz-adv-x="1106" 
d="M585 716q-71 -55 -71 -168t70 -168t209 -55q57 0 113 7.5t140 24.5v-338q-62 -19 -142 -30t-166 -11v-54q86 -17 129.5 -65.5t43.5 -123.5q0 -92 -74.5 -143.5t-217.5 -51.5q-106 0 -199 31v152q37 -14 87 -21.5t90 -7.5q48 0 71.5 14t23.5 47t-24 48t-71 15h-57v175
q-235 41 -357.5 181.5t-122.5 371.5q0 185 80.5 313t237 193.5t381.5 65.5q160 0 287 -27v-339q-133 19 -232 19q-158 0 -229 -55z" />
    <glyph glyph-name="egrave" unicode="&#xe8;" horiz-adv-x="1244" 
d="M1194 430h-694q7 -51 37.5 -79t99 -41t192.5 -13q133 0 295 27v-314q-179 -32 -363 -32q-246 0 -400 60.5t-227.5 186t-73.5 323.5q0 175 67.5 303.5t199.5 197.5t321 69q179 0 301 -70t183.5 -200.5t61.5 -313.5v-104zM533.5 809q-34.5 -43 -36.5 -143h289
q-3 100 -37 143t-107 43q-74 0 -108.5 -43zM433 1220l-309 396h477l246 -396h-414z" />
    <glyph glyph-name="eacute" unicode="&#xe9;" horiz-adv-x="1244" 
d="M1194 430h-694q7 -51 37.5 -79t99 -41t192.5 -13q133 0 295 27v-314q-179 -32 -363 -32q-246 0 -400 60.5t-227.5 186t-73.5 323.5q0 175 67.5 303.5t199.5 197.5t321 69q179 0 301 -70t183.5 -200.5t61.5 -313.5v-104zM533.5 809q-34.5 -43 -36.5 -143h289
q-3 100 -37 143t-107 43q-74 0 -108.5 -43zM433 1220l246 396h477l-309 -396h-414z" />
    <glyph glyph-name="ecircumflex" unicode="&#xea;" horiz-adv-x="1244" 
d="M1194 430h-694q7 -51 37.5 -79t99 -41t192.5 -13q133 0 295 27v-314q-179 -32 -363 -32q-246 0 -400 60.5t-227.5 186t-73.5 323.5q0 175 67.5 303.5t199.5 197.5t321 69q179 0 301 -70t183.5 -200.5t61.5 -313.5v-104zM533.5 809q-34.5 -43 -36.5 -143h289
q-3 100 -37 143t-107 43q-74 0 -108.5 -43zM1076 1220h-314l-122 195l-122 -195h-314l262 396h348z" />
    <glyph glyph-name="edieresis" unicode="&#xeb;" horiz-adv-x="1244" 
d="M1194 430h-694q7 -51 37.5 -79t99 -41t192.5 -13q133 0 295 27v-314q-179 -32 -363 -32q-246 0 -400 60.5t-227.5 186t-73.5 323.5q0 175 67.5 303.5t199.5 197.5t321 69q179 0 301 -70t183.5 -200.5t61.5 -313.5v-104zM533.5 809q-34.5 -43 -36.5 -143h289
q-3 100 -37 143t-107 43q-74 0 -108.5 -43zM196 1266.5q-57 53.5 -57 151.5t57 151.5t169 53.5t169 -53.5t57 -151.5t-57 -151.5t-169 -53.5t-169 53.5zM746 1266.5q-57 53.5 -57 151.5t57 151.5t169 53.5t169 -53.5t57 -151.5t-57 -151.5t-169 -53.5t-169 53.5z" />
    <glyph glyph-name="igrave" unicode="&#xec;" horiz-adv-x="658" 
d="M107 0v1100h444v-1100h-444zM122 1220l-309 396h477l246 -396h-414z" />
    <glyph glyph-name="iacute" unicode="&#xed;" horiz-adv-x="658" 
d="M107 0v1100h444v-1100h-444zM122 1220l246 396h477l-309 -396h-414z" />
    <glyph glyph-name="icircumflex" unicode="&#xee;" horiz-adv-x="658" 
d="M107 0v1100h444v-1100h-444zM765 1220h-314l-122 195l-122 -195h-314l262 396h348z" />
    <glyph glyph-name="idieresis" unicode="&#xef;" horiz-adv-x="658" 
d="M107 0v1100h444v-1100h-444zM-115 1266.5q-57 53.5 -57 151.5t57 151.5t169 53.5t169 -53.5t57 -151.5t-57 -151.5t-169 -53.5t-169 53.5zM435 1266.5q-57 53.5 -57 151.5t57 151.5t169 53.5t169 -53.5t57 -151.5t-57 -151.5t-169 -53.5t-169 53.5z" />
    <glyph glyph-name="eth" unicode="&#xf0;" horiz-adv-x="1365" 
d="M1246 967q64 -174 64 -339q0 -325 -162.5 -488t-465.5 -163q-192 0 -332 68t-215 196.5t-75 306.5q0 180 71.5 305.5t201.5 189t303 63.5q58 0 103 -11q-42 72 -89 132l-465 -79l-44 234l313 53q-110 99 -237 181h536q65 -46 131 -108l343 58l43 -234l-201 -34
q113 -157 177 -331zM819.5 364q44.5 55 44.5 182q0 129 -44.5 185.5t-137.5 56.5t-137 -56.5t-44 -184.5q0 -127 44 -182.5t137 -55.5t137.5 55z" />
    <glyph glyph-name="ntilde" unicode="&#xf1;" horiz-adv-x="1371" 
d="M107 1100h363l28 -100h19q60 57 145.5 87.5t184.5 30.5q195 0 309.5 -118.5t114.5 -366.5v-633h-444v606q0 77 -29.5 108t-90.5 31q-46 0 -87.5 -16t-68.5 -42v-687h-444v1100zM774 1256.5q-42 13.5 -102 39.5q-54 24 -90.5 35.5t-74.5 11.5q-62 0 -112.5 -21t-105.5 -70
v258q47 45 101.5 65t126.5 20q47 0 89 -13.5t102 -39.5q54 -24 90.5 -35.5t74.5 -11.5q62 0 112.5 21t105.5 70v-258q-47 -45 -101.5 -65t-126.5 -20q-47 0 -89 13.5z" />
    <glyph glyph-name="ograve" unicode="&#xf2;" horiz-adv-x="1365" 
d="M352 45q-140 67 -216 195.5t-76 307.5q0 182 73 310t212.5 194t336.5 66q198 0 337.5 -66.5t212.5 -194.5t73 -308t-76 -308.5t-216.5 -195.5t-330.5 -67t-330 67zM819 365q45 55 45 183q0 129 -45 183.5t-137 54.5t-136.5 -54t-44.5 -183t44.5 -184t136.5 -55t137 55z
M475 1220l-309 396h477l246 -396h-414z" />
    <glyph glyph-name="oacute" unicode="&#xf3;" horiz-adv-x="1365" 
d="M352 45q-140 67 -216 195.5t-76 307.5q0 182 73 310t212.5 194t336.5 66q198 0 337.5 -66.5t212.5 -194.5t73 -308t-76 -308.5t-216.5 -195.5t-330.5 -67t-330 67zM819 365q45 55 45 183q0 129 -45 183.5t-137 54.5t-136.5 -54t-44.5 -183t44.5 -184t136.5 -55t137 55z
M475 1220l246 396h477l-309 -396h-414z" />
    <glyph glyph-name="ocircumflex" unicode="&#xf4;" horiz-adv-x="1365" 
d="M352 45q-140 67 -216 195.5t-76 307.5q0 182 73 310t212.5 194t336.5 66q198 0 337.5 -66.5t212.5 -194.5t73 -308t-76 -308.5t-216.5 -195.5t-330.5 -67t-330 67zM819 365q45 55 45 183q0 129 -45 183.5t-137 54.5t-136.5 -54t-44.5 -183t44.5 -184t136.5 -55t137 55z
M1118 1220h-314l-122 195l-122 -195h-314l262 396h348z" />
    <glyph glyph-name="otilde" unicode="&#xf5;" horiz-adv-x="1365" 
d="M352 45q-140 67 -216 195.5t-76 307.5q0 182 73 310t212.5 194t336.5 66q198 0 337.5 -66.5t212.5 -194.5t73 -308t-76 -308.5t-216.5 -195.5t-330.5 -67t-330 67zM819 365q45 55 45 183q0 129 -45 183.5t-137 54.5t-136.5 -54t-44.5 -183t44.5 -184t136.5 -55t137 55z
M766 1256.5q-42 13.5 -102 39.5q-54 24 -90.5 35.5t-74.5 11.5q-62 0 -112.5 -21t-105.5 -70v258q47 45 101.5 65t126.5 20q47 0 89 -13.5t102 -39.5q54 -24 90.5 -35.5t74.5 -11.5q62 0 112.5 21t105.5 70v-258q-47 -45 -101.5 -65t-126.5 -20q-47 0 -89 13.5z" />
    <glyph glyph-name="odieresis" unicode="&#xf6;" horiz-adv-x="1365" 
d="M352 45q-140 67 -216 195.5t-76 307.5q0 182 73 310t212.5 194t336.5 66q198 0 337.5 -66.5t212.5 -194.5t73 -308t-76 -308.5t-216.5 -195.5t-330.5 -67t-330 67zM819 365q45 55 45 183q0 129 -45 183.5t-137 54.5t-136.5 -54t-44.5 -183t44.5 -184t136.5 -55t137 55z
M238 1266.5q-57 53.5 -57 151.5t57 151.5t169 53.5t169 -53.5t57 -151.5t-57 -151.5t-169 -53.5t-169 53.5zM788 1266.5q-57 53.5 -57 151.5t57 151.5t169 53.5t169 -53.5t57 -151.5t-57 -151.5t-169 -53.5t-169 53.5z" />
    <glyph glyph-name="divide" unicode="&#xf7;" horiz-adv-x="1156" 
d="M391.5 1044.5q-68.5 61.5 -68.5 168.5t67.5 168.5t187.5 61.5q79 0 136.5 -28.5t88 -80.5t30.5 -121t-31 -121t-88.5 -80.5t-135.5 -28.5q-118 0 -186.5 61.5zM105 595v330h946v-330h-946zM391.5 139q-68.5 62 -68.5 168q0 108 67.5 169t187.5 61t187.5 -62.5
t67.5 -167.5q0 -69 -31 -121t-88.5 -80.5t-135.5 -28.5q-118 0 -186.5 62z" />
    <glyph glyph-name="oslash" unicode="&#xf8;" horiz-adv-x="1365" 
d="M1261.5 795q43.5 -108 43.5 -246q0 -180 -76 -308.5t-216.5 -195.5t-330.5 -67q-150 0 -273 43l-81 -104l-160 126l63 82q-83 74 -127 180.5t-44 242.5q0 182 73 310t212.5 194t336.5 66q153 0 273 -41l81 106l161 -126l-63 -81q84 -73 127.5 -181zM539.5 736
q-46.5 -55 -46.5 -187q0 -52 8 -97l251 331q-34 8 -70 8q-96 0 -142.5 -55zM825.5 361q46.5 56 46.5 187q0 57 -9 100l-253 -334q32 -9 72 -9q97 0 143.5 56z" />
    <glyph glyph-name="ugrave" unicode="&#xf9;" horiz-adv-x="1361" 
d="M217 99.5q-117 118.5 -117 365.5v635h444v-606q0 -76 28.5 -107.5t85.5 -31.5q43 0 84.5 16t68.5 42v687h444v-1100h-363l-28 100h-16q-64 -58 -144 -88.5t-168 -30.5q-202 0 -319 118.5zM470 1220l-309 396h477l246 -396h-414z" />
    <glyph glyph-name="uacute" unicode="&#xfa;" horiz-adv-x="1361" 
d="M217 99.5q-117 118.5 -117 365.5v635h444v-606q0 -76 28.5 -107.5t85.5 -31.5q43 0 84.5 16t68.5 42v687h444v-1100h-363l-28 100h-16q-64 -58 -144 -88.5t-168 -30.5q-202 0 -319 118.5zM470 1220l246 396h477l-309 -396h-414z" />
    <glyph glyph-name="ucircumflex" unicode="&#xfb;" horiz-adv-x="1361" 
d="M217 99.5q-117 118.5 -117 365.5v635h444v-606q0 -76 28.5 -107.5t85.5 -31.5q43 0 84.5 16t68.5 42v687h444v-1100h-363l-28 100h-16q-64 -58 -144 -88.5t-168 -30.5q-202 0 -319 118.5zM1113 1220h-314l-122 195l-122 -195h-314l262 396h348z" />
    <glyph glyph-name="udieresis" unicode="&#xfc;" horiz-adv-x="1361" 
d="M217 99.5q-117 118.5 -117 365.5v635h444v-606q0 -76 28.5 -107.5t85.5 -31.5q43 0 84.5 16t68.5 42v687h444v-1100h-363l-28 100h-16q-64 -58 -144 -88.5t-168 -30.5q-202 0 -319 118.5zM233 1266.5q-57 53.5 -57 151.5t57 151.5t169 53.5t169 -53.5t57 -151.5
t-57 -151.5t-169 -53.5t-169 53.5zM783 1266.5q-57 53.5 -57 151.5t57 151.5t169 53.5t169 -53.5t57 -151.5t-57 -151.5t-169 -53.5t-169 53.5z" />
    <glyph glyph-name="yacute" unicode="&#xfd;" horiz-adv-x="1331" 
d="M910 1100h434l-572 -1540h-433l166 440h-112l-406 1100h465l230 -701zM458 1220l246 396h477l-309 -396h-414z" />
    <glyph glyph-name="thorn" unicode="&#xfe;" horiz-adv-x="1393" 
d="M107 1616h444v-615h19q109 117 299 117q129 0 234.5 -61t168 -184t62.5 -301q0 -186 -76.5 -319.5t-223 -203.5t-352.5 -70q-53 0 -131 6v-425h-444v2056zM836.5 364q55.5 56 55.5 178q0 120 -49 171t-143 51q-42 0 -81.5 -9.5t-67.5 -29.5v-407q62 -10 114 -10
q116 0 171.5 56z" />
    <glyph glyph-name="ydieresis" unicode="&#xff;" horiz-adv-x="1331" 
d="M910 1100h434l-572 -1540h-433l166 440h-112l-406 1100h465l230 -701zM221 1266.5q-57 53.5 -57 151.5t57 151.5t169 53.5t169 -53.5t57 -151.5t-57 -151.5t-169 -53.5t-169 53.5zM771 1266.5q-57 53.5 -57 151.5t57 151.5t169 53.5t169 -53.5t57 -151.5t-57 -151.5
t-169 -53.5t-169 53.5z" />
    <glyph glyph-name="Amacron" unicode="&#x100;" horiz-adv-x="1645" 
d="M1191 0l-102 337h-537l-102 -337h-440l481 1480h662l482 -1480h-444zM655 681h330l-165 545zM394 1621v248h854v-248h-854z" />
    <glyph glyph-name="amacron" unicode="&#x101;" horiz-adv-x="1260" 
d="M908 1068q130 -50 191 -164t61 -312v-592h-365l-30 96h-19q-97 -118 -294 -118q-128 0 -218 42.5t-136.5 118t-46.5 171.5q0 165 127 255.5t397 104.5l148 7q-12 65 -67.5 92t-177.5 27q-71 0 -159 -11.5t-161 -32.5v317q92 24 200 36.5t202 12.5q218 0 348 -50zM727 296
v152l-105 -5q-71 -4 -102.5 -27.5t-31.5 -65.5q0 -38 29 -59.5t84 -21.5q76 0 126 27zM225 1295v248h802v-248h-802z" />
    <glyph glyph-name="Abreve" unicode="&#x102;" horiz-adv-x="1645" 
d="M1191 0l-102 337h-537l-102 -337h-440l481 1480h662l482 -1480h-444zM655 681h330l-165 545zM501.5 1671.5q-113.5 85.5 -134.5 230.5h263q29 -114 191 -114t191 114h263q-21 -145 -134.5 -230.5t-319.5 -85.5t-319.5 85.5z" />
    <glyph glyph-name="abreve" unicode="&#x103;" horiz-adv-x="1260" 
d="M908 1068q130 -50 191 -164t61 -312v-592h-365l-30 96h-19q-97 -118 -294 -118q-128 0 -218 42.5t-136.5 118t-46.5 171.5q0 165 127 255.5t397 104.5l148 7q-12 65 -67.5 92t-177.5 27q-71 0 -159 -11.5t-161 -32.5v317q92 24 200 36.5t202 12.5q218 0 348 -50zM727 296
v152l-105 -5q-71 -4 -102.5 -27.5t-31.5 -65.5q0 -38 29 -59.5t84 -21.5q76 0 126 27zM315 1322q-111 96 -122 274h260q8 -79 50 -118.5t123 -39.5t123 39.5t50 118.5h260q-11 -178 -122 -274t-311 -96t-311 96z" />
    <glyph glyph-name="Aogonek" unicode="&#x104;" horiz-adv-x="1645" 
d="M1664 -273v-157q-95 -30 -199 -30q-160 0 -241 60t-81 165q0 147 162 235h-114l-102 337h-537l-102 -337h-440l481 1480h662l482 -1480q-135 -45 -190.5 -93.5t-55.5 -107.5q0 -96 143 -96q60 0 132 24zM655 681h330l-165 545z" />
    <glyph glyph-name="aogonek" unicode="&#x105;" horiz-adv-x="1260" 
d="M1175 -273v-157q-45 -15 -87 -22.5t-98 -7.5q-148 0 -225 60t-77 165q0 71 35 130t116 105h-44l-30 96h-19q-97 -118 -294 -118q-128 0 -218 42.5t-136.5 118t-46.5 171.5q0 165 127 255.5t397 104.5l148 7q-12 65 -67.5 92t-177.5 27q-71 0 -159 -11.5t-161 -32.5v317
q92 24 200 36.5t202 12.5q218 0 348 -50t191 -164t61 -312v-592q-126 -45 -176 -94t-50 -110q0 -43 31.5 -68t91.5 -25q58 0 118 24zM727 296v152l-105 -5q-71 -4 -102.5 -27.5t-31.5 -65.5q0 -38 29 -59.5t84 -21.5q76 0 126 27z" />
    <glyph glyph-name="Cacute" unicode="&#x106;" horiz-adv-x="1391" 
d="M304.5 169.5q-227.5 189.5 -227.5 566.5q0 240 104.5 411.5t309 262t500.5 90.5q182 0 338 -32v-363q-153 28 -299 28q-250 0 -364 -96.5t-114 -296.5q0 -201 110.5 -297t352.5 -96q144 0 314 39v-364q-77 -19 -169.5 -30.5t-181.5 -11.5q-446 0 -673.5 189.5zM629 1586
l193 316h466l-259 -316h-400z" />
    <glyph glyph-name="cacute" unicode="&#x107;" horiz-adv-x="1106" 
d="M233 124q-173 146 -173 422q0 185 80.5 313t237 193.5t381.5 65.5q160 0 287 -27v-339q-133 19 -232 19q-158 0 -229 -55t-71 -168t70 -168t209 -55q57 0 113 7.5t140 24.5v-338q-63 -19 -143.5 -30t-167.5 -11q-329 0 -502 146zM393 1220l246 396h477l-309 -396h-414z
" />
    <glyph glyph-name="Ccircumflex" unicode="&#x108;" horiz-adv-x="1391" 
d="M304.5 169.5q-227.5 189.5 -227.5 566.5q0 240 104.5 411.5t309 262t500.5 90.5q182 0 338 -32v-363q-153 28 -299 28q-250 0 -364 -96.5t-114 -296.5q0 -201 110.5 -297t352.5 -96q144 0 314 39v-364q-77 -19 -169.5 -30.5t-181.5 -11.5q-446 0 -673.5 189.5zM1313 1586
h-336l-145 161l-145 -161h-336l297 316h368z" />
    <glyph glyph-name="ccircumflex" unicode="&#x109;" horiz-adv-x="1106" 
d="M233 124q-173 146 -173 422q0 185 80.5 313t237 193.5t381.5 65.5q160 0 287 -27v-339q-133 19 -232 19q-158 0 -229 -55t-71 -168t70 -168t209 -55q57 0 113 7.5t140 24.5v-338q-63 -19 -143.5 -30t-167.5 -11q-329 0 -502 146zM1036 1220h-314l-122 195l-122 -195h-314
l262 396h348z" />
    <glyph glyph-name="Cdotaccent" unicode="&#x10a;" horiz-adv-x="1391" 
d="M304.5 169.5q-227.5 189.5 -227.5 566.5q0 240 104.5 411.5t309 262t500.5 90.5q182 0 338 -32v-363q-153 28 -299 28q-250 0 -364 -96.5t-114 -296.5q0 -201 110.5 -297t352.5 -96q144 0 314 39v-364q-77 -19 -169.5 -30.5t-181.5 -11.5q-446 0 -673.5 189.5z
M636.5 1617.5q-64.5 47.5 -64.5 132.5t64.5 132.5t195.5 47.5t195.5 -47.5t64.5 -132.5t-64.5 -132.5t-195.5 -47.5t-195.5 47.5z" />
    <glyph glyph-name="cdotaccent" unicode="&#x10b;" horiz-adv-x="1106" 
d="M233 124q-173 146 -173 422q0 185 80.5 313t237 193.5t381.5 65.5q160 0 287 -27v-339q-133 19 -232 19q-158 0 -229 -55t-71 -168t70 -168t209 -55q57 0 113 7.5t140 24.5v-338q-63 -19 -143.5 -30t-167.5 -11q-329 0 -502 146zM336 1418q0 211 264 211t264 -211
t-264 -211t-264 211z" />
    <glyph glyph-name="Ccaron" unicode="&#x10c;" horiz-adv-x="1391" 
d="M304.5 169.5q-227.5 189.5 -227.5 566.5q0 240 104.5 411.5t309 262t500.5 90.5q182 0 338 -32v-363q-153 28 -299 28q-250 0 -364 -96.5t-114 -296.5q0 -201 110.5 -297t352.5 -96q144 0 314 39v-364q-77 -19 -169.5 -30.5t-181.5 -11.5q-446 0 -673.5 189.5zM977 1902
h336l-297 -316h-368l-297 316h336l145 -161z" />
    <glyph glyph-name="ccaron" unicode="&#x10d;" horiz-adv-x="1106" 
d="M233 124q-173 146 -173 422q0 185 80.5 313t237 193.5t381.5 65.5q160 0 287 -27v-339q-133 19 -232 19q-158 0 -229 -55t-71 -168t70 -168t209 -55q57 0 113 7.5t140 24.5v-338q-63 -19 -143.5 -30t-167.5 -11q-329 0 -502 146zM722 1616h314l-262 -396h-348l-262 396
h314l122 -195z" />
    <glyph glyph-name="Dcaron" unicode="&#x10e;" horiz-adv-x="1683" 
d="M354.5 -8.5q-128.5 6.5 -234.5 19.5v1426q116 27 270 43t296 16q459 0 689.5 -185.5t230.5 -570.5q0 -268 -110.5 -434t-333.5 -243.5t-570 -77.5q-109 0 -237.5 6.5zM959 383q93 40 138.5 127.5t45.5 232.5q0 209 -105 302.5t-323 93.5q-31 0 -71 -4t-70 -9v-779
q47 -4 142 -4q150 0 243 40zM880 1902h336l-297 -316h-368l-297 316h336l145 -161z" />
    <glyph glyph-name="dcaron" unicode="&#x10f;" horiz-adv-x="1393" 
d="M306.5 39q-112.5 58 -179.5 180.5t-67 306.5q0 187 76.5 320.5t222.5 203.5t352 70q54 0 132 -6v502h444v-1616h-371l-24 110h-19q-56 -61 -135.5 -95t-178.5 -34q-140 0 -252.5 58zM772.5 344.5q40.5 10.5 70.5 30.5v406q-62 10 -115 10q-116 0 -171.5 -56t-55.5 -178
q0 -120 48.5 -171.5t140.5 -51.5q42 0 82.5 10.5zM1374 1393q8 99 8 223h285q0 -124 -23.5 -237.5t-63.5 -198.5h-233q19 114 27 213z" />
    <glyph glyph-name="Dcroat" unicode="&#x110;" horiz-adv-x="1683" 
d="M1375.5 1310.5q230.5 -185.5 230.5 -570.5q0 -268 -110.5 -434t-333.5 -243.5t-570 -77.5q-109 0 -237.5 6.5t-234.5 19.5v614h-113v274h113v538q116 27 270 43t296 16q459 0 689.5 -185.5zM959 383q93 40 138.5 127.5t45.5 232.5q0 209 -105 302.5t-323 93.5
q-31 0 -71 -4t-70 -9v-227h255v-274h-255v-278q47 -4 142 -4q150 0 243 40z" />
    <glyph glyph-name="dcroat" unicode="&#x111;" horiz-adv-x="1393" 
d="M1392 1225h-105v-1225h-371l-24 110h-19q-56 -61 -135.5 -95t-178.5 -34q-140 0 -252.5 58t-179.5 180.5t-67 306.5q0 187 76.5 320.5t222.5 203.5t352 70q54 0 132 -6v111h-374v260h374v131h444v-131h105v-260zM843 781q-62 10 -115 10q-116 0 -171.5 -56t-55.5 -178
q0 -120 48.5 -171.5t140.5 -51.5q42 0 82.5 10.5t70.5 30.5v406z" />
    <glyph glyph-name="Emacron" unicode="&#x112;" horiz-adv-x="1405" 
d="M568 346h758v-346h-1206v1480h1196v-346h-748v-206h643v-346h-643v-236zM313 1621v248h854v-248h-854z" />
    <glyph glyph-name="emacron" unicode="&#x113;" horiz-adv-x="1244" 
d="M1194 430h-694q7 -51 37.5 -79t99 -41t192.5 -13q133 0 295 27v-314q-179 -32 -363 -32q-246 0 -400 60.5t-227.5 186t-73.5 323.5q0 175 67.5 303.5t199.5 197.5t321 69q179 0 301 -70t183.5 -200.5t61.5 -313.5v-104zM533.5 809q-34.5 -43 -36.5 -143h289
q-3 100 -37 143t-107 43q-74 0 -108.5 -43zM239 1295v248h802v-248h-802z" />
    <glyph glyph-name="Ebreve" unicode="&#x114;" horiz-adv-x="1405" 
d="M568 346h758v-346h-1206v1480h1196v-346h-748v-206h643v-346h-643v-236zM420.5 1671.5q-113.5 85.5 -134.5 230.5h263q29 -114 191 -114t191 114h263q-21 -145 -134.5 -230.5t-319.5 -85.5t-319.5 85.5z" />
    <glyph glyph-name="ebreve" unicode="&#x115;" horiz-adv-x="1244" 
d="M1194 430h-694q7 -51 37.5 -79t99 -41t192.5 -13q133 0 295 27v-314q-179 -32 -363 -32q-246 0 -400 60.5t-227.5 186t-73.5 323.5q0 175 67.5 303.5t199.5 197.5t321 69q179 0 301 -70t183.5 -200.5t61.5 -313.5v-104zM533.5 809q-34.5 -43 -36.5 -143h289
q-3 100 -37 143t-107 43q-74 0 -108.5 -43zM329 1322q-111 96 -122 274h260q8 -79 50 -118.5t123 -39.5t123 39.5t50 118.5h260q-11 -178 -122 -274t-311 -96t-311 96z" />
    <glyph glyph-name="Edotaccent" unicode="&#x116;" horiz-adv-x="1405" 
d="M568 346h758v-346h-1206v1480h1196v-346h-748v-206h643v-346h-643v-236zM544.5 1617.5q-64.5 47.5 -64.5 132.5t64.5 132.5t195.5 47.5t195.5 -47.5t64.5 -132.5t-64.5 -132.5t-195.5 -47.5t-195.5 47.5z" />
    <glyph glyph-name="edotaccent" unicode="&#x117;" horiz-adv-x="1244" 
d="M1194 430h-694q7 -51 37.5 -79t99 -41t192.5 -13q133 0 295 27v-314q-179 -32 -363 -32q-246 0 -400 60.5t-227.5 186t-73.5 323.5q0 175 67.5 303.5t199.5 197.5t321 69q179 0 301 -70t183.5 -200.5t61.5 -313.5v-104zM533.5 809q-34.5 -43 -36.5 -143h289
q-3 100 -37 143t-107 43q-74 0 -108.5 -43zM376 1418q0 211 264 211t264 -211t-264 -211t-264 211z" />
    <glyph glyph-name="Eogonek" unicode="&#x118;" horiz-adv-x="1405" 
d="M1040.5 -93.5q-55.5 -48.5 -55.5 -107.5q0 -96 143 -96q60 0 132 24v-157q-95 -30 -199 -30q-160 0 -241 60t-81 165q0 147 162 235h-781v1480h1196v-346h-748v-206h643v-346h-643v-236h758v-346h-95q-135 -45 -190.5 -93.5z" />
    <glyph glyph-name="eogonek" unicode="&#x119;" horiz-adv-x="1244" 
d="M1194 430h-694q7 -51 37.5 -79t99 -41t192.5 -13q133 0 295 27v-314q-133 -45 -187 -98t-54 -116q0 -43 31 -68t92 -25q58 0 118 24v-157q-45 -15 -87 -22.5t-98 -7.5q-149 0 -225.5 60t-76.5 165q0 63 27 116t89 97q-243 1 -395.5 62t-225 186t-72.5 322
q0 175 67.5 303.5t199.5 197.5t321 69q179 0 301 -70t183.5 -200.5t61.5 -313.5v-104zM533.5 799q-34.5 -43 -36.5 -143h289q-3 100 -37 143t-107 43q-74 0 -108.5 -43z" />
    <glyph glyph-name="Ecaron" unicode="&#x11a;" horiz-adv-x="1405" 
d="M568 346h758v-346h-1206v1480h1196v-346h-748v-206h643v-346h-643v-236zM885 1902h336l-297 -316h-368l-297 316h336l145 -161z" />
    <glyph glyph-name="ecaron" unicode="&#x11b;" horiz-adv-x="1244" 
d="M1194 430h-694q7 -51 37.5 -79t99 -41t192.5 -13q133 0 295 27v-314q-179 -32 -363 -32q-246 0 -400 60.5t-227.5 186t-73.5 323.5q0 175 67.5 303.5t199.5 197.5t321 69q179 0 301 -70t183.5 -200.5t61.5 -313.5v-104zM533.5 809q-34.5 -43 -36.5 -143h289
q-3 100 -37 143t-107 43q-74 0 -108.5 -43zM762 1616h314l-262 -396h-348l-262 396h314l122 -195z" />
    <glyph glyph-name="Gcircumflex" unicode="&#x11c;" horiz-adv-x="1578" 
d="M1454 720v-702q-228 -38 -420 -38q-482 0 -719.5 189t-237.5 565q0 242 108.5 413.5t326 262t540.5 90.5q182 0 349 -33v-364q-152 30 -310 30q-197 -1 -316 -45t-172.5 -132.5t-53.5 -228.5q0 -190 111 -286.5t342 -96.5h30v376h422zM1373 1586h-336l-145 161l-145 -161
h-336l297 316h368z" />
    <glyph glyph-name="gcircumflex" unicode="&#x11d;" horiz-adv-x="1393" 
d="M141 -414v337q107 -26 211 -39.5t189 -13.5q163 0 232.5 48.5t69.5 151.5v49h-20q-109 -117 -299 -117q-126 0 -232 61t-169 179.5t-63 284.5q0 185 78.5 317t237 203t392.5 71q132 0 272.5 -18.5t246.5 -51.5v-891q0 -214 -76 -350t-232.5 -201.5t-401.5 -65.5
q-236 0 -436 46zM843 386v393q-57 11 -114 11q-228 0 -228 -228q0 -112 49 -160t144 -48q85 0 149 32zM1164 1220h-314l-122 195l-122 -195h-314l262 396h348z" />
    <glyph glyph-name="Gbreve" unicode="&#x11e;" horiz-adv-x="1578" 
d="M1454 720v-702q-228 -38 -420 -38q-482 0 -719.5 189t-237.5 565q0 242 108.5 413.5t326 262t540.5 90.5q182 0 349 -33v-364q-152 30 -310 30q-197 -1 -316 -45t-172.5 -132.5t-53.5 -228.5q0 -190 111 -286.5t342 -96.5h30v376h422zM572.5 1671.5
q-113.5 85.5 -134.5 230.5h263q29 -114 191 -114t191 114h263q-21 -145 -134.5 -230.5t-319.5 -85.5t-319.5 85.5z" />
    <glyph glyph-name="gbreve" unicode="&#x11f;" horiz-adv-x="1393" 
d="M141 -414v337q107 -26 211 -39.5t189 -13.5q163 0 232.5 48.5t69.5 151.5v49h-20q-109 -117 -299 -117q-126 0 -232 61t-169 179.5t-63 284.5q0 185 78.5 317t237 203t392.5 71q132 0 272.5 -18.5t246.5 -51.5v-891q0 -214 -76 -350t-232.5 -201.5t-401.5 -65.5
q-236 0 -436 46zM843 386v393q-57 11 -114 11q-228 0 -228 -228q0 -112 49 -160t144 -48q85 0 149 32zM417 1322q-111 96 -122 274h260q8 -79 50 -118.5t123 -39.5t123 39.5t50 118.5h260q-11 -178 -122 -274t-311 -96t-311 96z" />
    <glyph glyph-name="Gdotaccent" unicode="&#x120;" horiz-adv-x="1578" 
d="M1454 720v-702q-228 -38 -420 -38q-482 0 -719.5 189t-237.5 565q0 242 108.5 413.5t326 262t540.5 90.5q182 0 349 -33v-364q-152 30 -310 30q-197 -1 -316 -45t-172.5 -132.5t-53.5 -228.5q0 -190 111 -286.5t342 -96.5h30v376h422zM696.5 1617.5
q-64.5 47.5 -64.5 132.5t64.5 132.5t195.5 47.5t195.5 -47.5t64.5 -132.5t-64.5 -132.5t-195.5 -47.5t-195.5 47.5z" />
    <glyph glyph-name="gdotaccent" unicode="&#x121;" horiz-adv-x="1393" 
d="M141 -414v337q107 -26 211 -39.5t189 -13.5q163 0 232.5 48.5t69.5 151.5v49h-20q-109 -117 -299 -117q-126 0 -232 61t-169 179.5t-63 284.5q0 185 78.5 317t237 203t392.5 71q132 0 272.5 -18.5t246.5 -51.5v-891q0 -214 -76 -350t-232.5 -201.5t-401.5 -65.5
q-236 0 -436 46zM843 386v393q-57 11 -114 11q-228 0 -228 -228q0 -112 49 -160t144 -48q85 0 149 32zM464 1418q0 211 264 211t264 -211t-264 -211t-264 211z" />
    <glyph glyph-name="Gcommaaccent" unicode="&#x122;" horiz-adv-x="1578" 
d="M1454 720v-702q-228 -38 -420 -38q-482 0 -719.5 189t-237.5 565q0 242 108.5 413.5t326 262t540.5 90.5q182 0 349 -33v-364q-152 30 -310 30q-197 -1 -316 -45t-172.5 -132.5t-53.5 -228.5q0 -190 111 -286.5t342 -96.5h30v376h422zM1130 -281q0 -60 -26.5 -126.5
t-67.5 -111.5h-271q50 87 64 149q-92 8 -133.5 41.5t-41.5 89.5q0 135 238 135t238 -177z" />
    <glyph glyph-name="gcommaaccent" unicode="&#x123;" horiz-adv-x="1393" 
d="M141 -414v337q107 -26 211 -39.5t189 -13.5q163 0 232.5 48.5t69.5 151.5v49h-20q-109 -117 -299 -117q-126 0 -232 61t-169 179.5t-63 284.5q0 185 78.5 317t237 203t392.5 71q132 0 272.5 -18.5t246.5 -51.5v-891q0 -214 -76 -350t-232.5 -201.5t-401.5 -65.5
q-236 0 -436 46zM843 386v393q-57 11 -114 11q-228 0 -228 -228q0 -112 49 -160t144 -48q85 0 149 32zM924.5 1436.5q41.5 -33.5 41.5 -89.5q0 -135 -238 -135t-238 177q0 61 26 127t68 111h271q-49 -85 -64 -149q92 -8 133.5 -41.5z" />
    <glyph glyph-name="Hcircumflex" unicode="&#x124;" horiz-adv-x="1687" 
d="M120 0v1480h454v-530h539v530h454v-1480h-454v560h-539v-560h-454zM1325 1586h-336l-145 161l-145 -161h-336l297 316h368z" />
    <glyph glyph-name="hcircumflex" unicode="&#x125;" horiz-adv-x="1371" 
d="M107 1616h444v-615h19q56 57 132.5 87t166.5 30q117 0 207 -50.5t142.5 -159t52.5 -275.5v-633h-444v605q0 77 -29.5 108.5t-90.5 31.5q-45 0 -87 -16t-69 -42v-687h-444v1616zM1171 1682h-336l-145 161l-145 -161h-336l297 316h368z" />
    <glyph glyph-name="Hbar" unicode="&#x126;" horiz-adv-x="1687" 
d="M1681 1351v-270h-114v-1081h-454v560h-539v-560h-454v1081h-114v270h114v129h454v-129h539v129h454v-129h114zM1113 950v131h-539v-131h539z" />
    <glyph glyph-name="hbar" unicode="&#x127;" horiz-adv-x="1371" 
d="M1076 1067.5q90 -50.5 142.5 -159t52.5 -275.5v-633h-444v605q0 77 -29.5 108.5t-90.5 31.5q-45 0 -87 -16t-69 -42v-687h-444v1220h-105v260h105v136h444v-136h374v-260h-374v-219h19q56 57 132.5 87t166.5 30q117 0 207 -50.5z" />
    <glyph glyph-name="Itilde" unicode="&#x128;" horiz-adv-x="694" 
d="M120 0v1480h454v-1480h-454zM440 1595.5q-45 9.5 -110 29.5q-58 17 -99 26t-85 9q-67 0 -118.5 -16t-107.5 -51v232q48 40 103.5 58.5t132.5 18.5q53 0 99.5 -10t108.5 -30q61 -18 100.5 -27t83.5 -9q67 0 118.5 16t107.5 51v-232q-47 -40 -102.5 -57.5t-133.5 -17.5
q-53 0 -98 9.5z" />
    <glyph glyph-name="itilde" unicode="&#x129;" horiz-adv-x="658" 
d="M107 0v1100h444v-1100h-444zM413 1256.5q-42 13.5 -102 39.5q-54 24 -90.5 35.5t-74.5 11.5q-62 0 -112.5 -21t-105.5 -70v258q47 45 101.5 65t126.5 20q47 0 89 -13.5t102 -39.5q54 -24 90.5 -35.5t74.5 -11.5q62 0 112.5 21t105.5 70v-258q-47 -45 -101.5 -65
t-126.5 -20q-47 0 -89 13.5z" />
    <glyph glyph-name="Imacron" unicode="&#x12a;" horiz-adv-x="694" 
d="M120 0v1480h454v-1480h-454zM-80 1621v248h854v-248h-854z" />
    <glyph glyph-name="imacron" unicode="&#x12b;" horiz-adv-x="658" 
d="M107 0v1100h444v-1100h-444zM-72 1295v248h802v-248h-802z" />
    <glyph glyph-name="Ibreve" unicode="&#x12c;" horiz-adv-x="694" 
d="M120 0v1480h454v-1480h-454zM27.5 1671.5q-113.5 85.5 -134.5 230.5h263q29 -114 191 -114t191 114h263q-21 -145 -134.5 -230.5t-319.5 -85.5t-319.5 85.5z" />
    <glyph glyph-name="ibreve" unicode="&#x12d;" horiz-adv-x="658" 
d="M107 0v1100h444v-1100h-444zM18 1322q-111 96 -122 274h260q8 -79 50 -118.5t123 -39.5t123 39.5t50 118.5h260q-11 -178 -122 -274t-311 -96t-311 96z" />
    <glyph glyph-name="Iogonek" unicode="&#x12e;" horiz-adv-x="694" 
d="M603 -273v-157q-95 -30 -199 -30q-160 0 -241 60t-81 165q0 147 162 235h-124v1480h454v-1480q-135 -45 -190.5 -93.5t-55.5 -107.5q0 -96 143 -96q60 0 132 24z" />
    <glyph glyph-name="iogonek" unicode="&#x12f;" horiz-adv-x="658" 
d="M65 1418q0 211 264 211t264 -211t-264 -211t-264 211zM356.5 -272q31.5 -25 91.5 -25q58 0 118 24v-157q-45 -15 -87 -22.5t-98 -7.5q-148 0 -225 60t-77 165q0 71 35 130t116 105h-123v1100h444v-1100q-126 -45 -176 -94t-50 -110q0 -43 31.5 -68z" />
    <glyph glyph-name="Idotaccent" unicode="&#x130;" horiz-adv-x="694" 
d="M120 0v1480h454v-1480h-454zM151.5 1617.5q-64.5 47.5 -64.5 132.5t64.5 132.5t195.5 47.5t195.5 -47.5t64.5 -132.5t-64.5 -132.5t-195.5 -47.5t-195.5 47.5z" />
    <glyph glyph-name="dotlessi" unicode="&#x131;" horiz-adv-x="658" 
d="M107 0v1100h444v-1100h-444z" />
    <glyph glyph-name="Jcircumflex" unicode="&#x134;" horiz-adv-x="694" 
d="M-21 -167q81 102 112.5 207.5t31.5 262.5v1177h451v-1161q0 -195 -71.5 -356t-241.5 -319zM829 1586h-336l-145 161l-145 -161h-336l297 316h368z" />
    <glyph glyph-name="jcircumflex" unicode="&#x135;" horiz-adv-x="658" 
d="M-37 -290q81 102 112.5 207.5t31.5 262.5v920h444v-904q0 -194 -70.5 -353.5t-238.5 -318.5zM757 1220h-314l-122 195l-122 -195h-314l262 396h348z" />
    <glyph glyph-name="Kcommaaccent" unicode="&#x136;" horiz-adv-x="1469" 
d="M1034 0l-369 560h-91v-560h-454v1480h454v-530h90l340 530h475l-458 -714l504 -766h-491zM1011 -281q0 -60 -26.5 -126.5t-67.5 -111.5h-271q50 87 64 149q-92 8 -133.5 41.5t-41.5 89.5q0 135 238 135t238 -177z" />
    <glyph glyph-name="kcommaaccent" unicode="&#x137;" horiz-adv-x="1364" 
d="M923 0l-260 389h-112v-389h-444v1616h444v-873h110l235 357h470l-336 -524l373 -576h-480zM945 -281q0 -60 -26.5 -126.5t-67.5 -111.5h-271q50 87 64 149q-92 8 -133.5 41.5t-41.5 89.5q0 135 238 135t238 -177z" />
    <glyph glyph-name="kgreenlandic" unicode="&#x138;" horiz-adv-x="1364" 
d="M923 0l-260 389h-112v-389h-444v1100h444v-357h110l235 357h470l-336 -524l373 -576h-480z" />
    <glyph glyph-name="Lacute" unicode="&#x139;" horiz-adv-x="1280" 
d="M120 0v1480h454v-1118h696v-362h-1150zM146 1586l193 316h466l-259 -316h-400z" />
    <glyph glyph-name="lacute" unicode="&#x13a;" horiz-adv-x="657" 
d="M107 0v1616h444v-1616h-444zM126 1682l193 316h466l-259 -316h-400z" />
    <glyph glyph-name="Lcommaaccent" unicode="&#x13b;" horiz-adv-x="1280" 
d="M120 0v1480h454v-1118h696v-362h-1150zM933 -281q0 -60 -26.5 -126.5t-67.5 -111.5h-271q50 87 64 149q-92 8 -133.5 41.5t-41.5 89.5q0 135 238 135t238 -177z" />
    <glyph glyph-name="lcommaaccent" unicode="&#x13c;" horiz-adv-x="657" 
d="M107 0v1616h444v-1616h-444zM565 -281q0 -60 -26.5 -126.5t-67.5 -111.5h-271q50 87 64 149q-92 8 -133.5 41.5t-41.5 89.5q0 135 238 135t238 -177z" />
    <glyph glyph-name="Lcaron" unicode="&#x13d;" horiz-adv-x="1280" 
d="M120 0v1480h454v-1118h696v-362h-1150zM849 1359.5q7 103.5 7 256.5h285q0 -283 -84 -476h-233q18 116 25 219.5z" />
    <glyph glyph-name="lcaron" unicode="&#x13e;" horiz-adv-x="657" 
d="M107 0v1616h444v-1616h-444zM638 1393q8 99 8 223h285q0 -124 -23.5 -237.5t-63.5 -198.5h-233q19 114 27 213z" />
    <glyph glyph-name="Ldot" unicode="&#x13f;" horiz-adv-x="1280" 
d="M120 0v1480h454v-1118h696v-362h-1150zM713 921q0 211 264 211t264 -211t-264 -211t-264 211z" />
    <glyph glyph-name="ldot" unicode="&#x140;" horiz-adv-x="1099" 
d="M107 0v1616h444v-1616h-444zM613 794q0 211 263 211q264 0 264 -211t-264 -211q-263 0 -263 211z" />
    <glyph glyph-name="Lslash" unicode="&#x141;" horiz-adv-x="1290" 
d="M584 362h696v-362h-1150v593l-67 -32l-121 246l188 90v583h454v-366l278 133l121 -246l-399 -191v-448z" />
    <glyph glyph-name="lslash" unicode="&#x142;" horiz-adv-x="742" 
d="M785 766l-192 -92v-674h-444v462l-76 -36l-116 236l192 92v862h444v-650l76 36z" />
    <glyph glyph-name="Nacute" unicode="&#x143;" horiz-adv-x="1698" 
d="M1151 1480h427v-1480h-454l-577 833v-833h-427v1480h454l577 -833v833zM646 1586l193 316h466l-259 -316h-400z" />
    <glyph glyph-name="nacute" unicode="&#x144;" horiz-adv-x="1371" 
d="M107 1100h363l28 -100h19q60 57 145.5 87.5t184.5 30.5q195 0 309.5 -118.5t114.5 -366.5v-633h-444v606q0 77 -29.5 108t-90.5 31q-46 0 -87.5 -16t-68.5 -42v-687h-444v1100zM483 1220l246 396h477l-309 -396h-414z" />
    <glyph glyph-name="Ncommaaccent" unicode="&#x145;" horiz-adv-x="1698" 
d="M1151 1480h427v-1480h-454l-577 833v-833h-427v1480h454l577 -833v833zM1087 -281q0 -60 -26.5 -126.5t-67.5 -111.5h-271q50 87 64 149q-92 8 -133.5 41.5t-41.5 89.5q0 135 238 135t238 -177z" />
    <glyph glyph-name="ncommaaccent" unicode="&#x146;" horiz-adv-x="1371" 
d="M107 1100h363l28 -100h19q60 57 145.5 87.5t184.5 30.5q195 0 309.5 -118.5t114.5 -366.5v-633h-444v606q0 77 -29.5 108t-90.5 31q-46 0 -87.5 -16t-68.5 -42v-687h-444v1100zM928 -281q0 -60 -26.5 -126.5t-67.5 -111.5h-271q50 87 64 149q-92 8 -133.5 41.5
t-41.5 89.5q0 135 238 135t238 -177z" />
    <glyph glyph-name="Ncaron" unicode="&#x147;" horiz-adv-x="1698" 
d="M1151 1480h427v-1480h-454l-577 833v-833h-427v1480h454l577 -833v833zM994 1902h336l-297 -316h-368l-297 316h336l145 -161z" />
    <glyph glyph-name="ncaron" unicode="&#x148;" horiz-adv-x="1371" 
d="M107 1100h363l28 -100h19q60 57 145.5 87.5t184.5 30.5q195 0 309.5 -118.5t114.5 -366.5v-633h-444v606q0 77 -29.5 108t-90.5 31q-46 0 -87.5 -16t-68.5 -42v-687h-444v1100zM812 1616h314l-262 -396h-348l-262 396h314l122 -195z" />
    <glyph glyph-name="napostrophe" unicode="&#x149;" horiz-adv-x="1371" 
d="M107 1100h363l28 -100h19q60 57 145.5 87.5t184.5 30.5q195 0 309.5 -118.5t114.5 -366.5v-633h-444v606q0 77 -29.5 108t-90.5 31q-46 0 -87.5 -16t-68.5 -42v-687h-444v1100zM488 1450q0 -60 -26.5 -126.5t-67.5 -111.5h-271q49 88 63 149q-92 8 -133 41.5t-41 89.5
q0 135 238 135t238 -177z" />
    <glyph glyph-name="Eng" unicode="&#x14a;" horiz-adv-x="1698" 
d="M1578 1480v-1244q0 -149 -29.5 -268.5t-97 -227.5t-182.5 -216l-279 186q56 70 90.5 136t51.5 143l-585 844v-833h-427v1480h454l577 -828v828h427z" />
    <glyph glyph-name="eng" unicode="&#x14b;" horiz-adv-x="1371" 
d="M683 -290q81 102 112.5 207t31.5 263v427q0 77 -29.5 108.5t-90.5 31.5q-45 0 -87.5 -16t-68.5 -42v-689h-444v1100h363l28 -100h19q61 57 146 87.5t184 30.5q195 0 309.5 -118.5t114.5 -366.5v-437q0 -194 -70.5 -353.5t-237.5 -318.5z" />
    <glyph glyph-name="Omacron" unicode="&#x14c;" horiz-adv-x="1768" 
d="M454.5 69q-181.5 89 -279.5 259.5t-98 411.5t97.5 411.5t279 259.5t430.5 89q248 0 430 -89.5t279.5 -260.5t97.5 -410t-98 -410t-280 -260.5t-429 -89.5q-248 0 -429.5 89zM1140.5 436q87.5 99 87.5 296q0 206 -88.5 308.5t-255.5 102.5t-255.5 -98t-88.5 -297
q0 -210 87 -310.5t257 -100.5q169 0 256.5 99zM457 1621v248h854v-248h-854z" />
    <glyph glyph-name="omacron" unicode="&#x14d;" horiz-adv-x="1365" 
d="M352 45q-140 67 -216 195.5t-76 307.5q0 182 73 310t212.5 194t336.5 66q198 0 337.5 -66.5t212.5 -194.5t73 -308t-76 -308.5t-216.5 -195.5t-330.5 -67t-330 67zM819 365q45 55 45 183q0 129 -45 183.5t-137 54.5t-136.5 -54t-44.5 -183t44.5 -184t136.5 -55t137 55z
M281 1295v248h802v-248h-802z" />
    <glyph glyph-name="Obreve" unicode="&#x14e;" horiz-adv-x="1768" 
d="M454.5 69q-181.5 89 -279.5 259.5t-98 411.5t97.5 411.5t279 259.5t430.5 89q248 0 430 -89.5t279.5 -260.5t97.5 -410t-98 -410t-280 -260.5t-429 -89.5q-248 0 -429.5 89zM1140.5 436q87.5 99 87.5 296q0 206 -88.5 308.5t-255.5 102.5t-255.5 -98t-88.5 -297
q0 -210 87 -310.5t257 -100.5q169 0 256.5 99zM564.5 1671.5q-113.5 85.5 -134.5 230.5h263q29 -114 191 -114t191 114h263q-21 -145 -134.5 -230.5t-319.5 -85.5t-319.5 85.5z" />
    <glyph glyph-name="obreve" unicode="&#x14f;" horiz-adv-x="1365" 
d="M352 45q-140 67 -216 195.5t-76 307.5q0 182 73 310t212.5 194t336.5 66q198 0 337.5 -66.5t212.5 -194.5t73 -308t-76 -308.5t-216.5 -195.5t-330.5 -67t-330 67zM819 365q45 55 45 183q0 129 -45 183.5t-137 54.5t-136.5 -54t-44.5 -183t44.5 -184t136.5 -55t137 55z
M371 1322q-111 96 -122 274h260q8 -79 50 -118.5t123 -39.5t123 39.5t50 118.5h260q-11 -178 -122 -274t-311 -96t-311 96z" />
    <glyph glyph-name="Ohungarumlaut" unicode="&#x150;" horiz-adv-x="1768" 
d="M454.5 69q-181.5 89 -279.5 259.5t-98 411.5t97.5 411.5t279 259.5t430.5 89q248 0 430 -89.5t279.5 -260.5t97.5 -410t-98 -410t-280 -260.5t-429 -89.5q-248 0 -429.5 89zM1140.5 436q87.5 99 87.5 296q0 206 -88.5 308.5t-255.5 102.5t-255.5 -98t-88.5 -297
q0 -210 87 -310.5t257 -100.5q169 0 256.5 99zM495 1586l153 316h338l-175 -316h-316zM957 1586l153 316h338l-175 -316h-316z" />
    <glyph glyph-name="ohungarumlaut" unicode="&#x151;" horiz-adv-x="1365" 
d="M352 45q-140 67 -216 195.5t-76 307.5q0 182 73 310t212.5 194t336.5 66q198 0 337.5 -66.5t212.5 -194.5t73 -308t-76 -308.5t-216.5 -195.5t-330.5 -67t-330 67zM819 365q45 55 45 183q0 129 -45 183.5t-137 54.5t-136.5 -54t-44.5 -183t44.5 -184t136.5 -55t137 55z
M293 1220l158 396h338l-180 -396h-316zM755 1220l158 396h338l-180 -396h-316z" />
    <glyph glyph-name="OE" unicode="&#x152;" horiz-adv-x="2345" 
d="M2266 346v-346h-861q-49 0 -108.5 -3t-76.5 -4q-110 -6 -156 -6q-342 0 -558.5 77.5t-322.5 243t-106 432.5q0 386 245 569.5t732 183.5q53 0 169 -6q107 -7 182 -7h851v-346h-712v-206h607v-346h-607v-236h722zM1096 1129q-48 4 -143 4q-142 0 -233 -40t-136 -127
t-45 -229q0 -139 45 -225t136 -125.5t233 -39.5q96 0 143 3v779z" />
    <glyph glyph-name="oe" unicode="&#x153;" horiz-adv-x="2042" 
d="M1993 430h-686q7 -51 36.5 -79t96.5 -41t187 -13q133 0 295 27v-314q-177 -32 -362 -32q-175 0 -297.5 33.5t-200.5 101.5q-148 -135 -400 -135q-180 0 -316 67t-211 195.5t-75 307.5q0 181 72 309t207 194.5t323 66.5q279 0 422 -152q71 73 169 112.5t218 39.5
q166 0 283 -69.5t178 -200.5t61 -314v-104zM1340 809q-34 -43 -36 -143h280q-2 99 -35.5 142.5t-104.5 43.5q-70 0 -104 -43zM819 365q45 55 45 183q0 129 -45 183.5t-137 54.5t-136.5 -54t-44.5 -183t44.5 -184t136.5 -55t137 55z" />
    <glyph glyph-name="Racute" unicode="&#x154;" horiz-adv-x="1501" 
d="M1010 0l-343 495l-102 3v-498h-445v1437q117 28 264 45.5t273 17.5q352 0 530.5 -123t178.5 -378q0 -149 -68.5 -256t-196.5 -169l404 -574h-495zM565 826q71 -9 146 -9q118 0 175.5 42t57.5 140q0 93 -60 138t-180 45q-63 0 -139 -13v-343zM549 1586l193 316h466
l-259 -316h-400z" />
    <glyph glyph-name="racute" unicode="&#x155;" horiz-adv-x="913" 
d="M107 1100h360l35 -132h19q42 76 114.5 113t170.5 37q45 0 95 -8v-394q-47 10 -123 10q-68 0 -131 -19t-96 -53v-654h-444v1100zM298 1220l246 396h477l-309 -396h-414z" />
    <glyph glyph-name="Rcommaaccent" unicode="&#x156;" horiz-adv-x="1501" 
d="M1010 0l-343 495l-102 3v-498h-445v1437q117 28 264 45.5t273 17.5q352 0 530.5 -123t178.5 -378q0 -149 -68.5 -256t-196.5 -169l404 -574h-495zM565 826q71 -9 146 -9q118 0 175.5 42t57.5 140q0 93 -60 138t-180 45q-63 0 -139 -13v-343zM1022 -281
q0 -60 -26.5 -126.5t-67.5 -111.5h-271q50 87 64 149q-92 8 -133.5 41.5t-41.5 89.5q0 135 238 135t238 -177z" />
    <glyph glyph-name="rcommaaccent" unicode="&#x157;" horiz-adv-x="913" 
d="M107 1100h360l35 -132h19q42 76 114.5 113t170.5 37q45 0 95 -8v-394q-47 10 -123 10q-68 0 -131 -19t-96 -53v-654h-444v1100zM567 -281q0 -60 -26.5 -126.5t-67.5 -111.5h-271q50 87 64 149q-92 8 -133.5 41.5t-41.5 89.5q0 135 238 135t238 -177z" />
    <glyph glyph-name="Rcaron" unicode="&#x158;" horiz-adv-x="1501" 
d="M1010 0l-343 495l-102 3v-498h-445v1437q117 28 264 45.5t273 17.5q352 0 530.5 -123t178.5 -378q0 -149 -68.5 -256t-196.5 -169l404 -574h-495zM565 826q71 -9 146 -9q118 0 175.5 42t57.5 140q0 93 -60 138t-180 45q-63 0 -139 -13v-343zM897 1902h336l-297 -316h-368
l-297 316h336l145 -161z" />
    <glyph glyph-name="rcaron" unicode="&#x159;" horiz-adv-x="913" 
d="M107 1100h360l35 -132h19q42 76 114.5 113t170.5 37q45 0 95 -8v-394q-47 10 -123 10q-68 0 -131 -19t-96 -53v-654h-444v1100zM627 1616h314l-262 -396h-348l-262 396h314l122 -195z" />
    <glyph glyph-name="Sacute" unicode="&#x15a;" horiz-adv-x="1296" 
d="M96 48v357q98 -32 232.5 -52t245.5 -20q124 0 172.5 26.5t48.5 76.5q0 28 -13 46.5t-48.5 33.5t-103.5 30l-138 31q-226 49 -332.5 157t-106.5 287q0 232 178.5 355.5t531.5 123.5q220 0 395 -45v-357q-72 22 -173.5 35.5t-200.5 13.5q-158 0 -220.5 -28t-62.5 -78
q0 -25 11 -41.5t39.5 -29.5t83.5 -26l138 -31q247 -53 358.5 -162.5t111.5 -287.5q0 -148 -80.5 -257t-231.5 -167.5t-358 -58.5q-260 0 -477 68zM459 1586l193 316h466l-259 -316h-400z" />
    <glyph glyph-name="sacute" unicode="&#x15b;" horiz-adv-x="1119" 
d="M282 -8.5q-109 13.5 -197 38.5v305q88 -25 196.5 -39.5t215.5 -14.5q90 0 126.5 14.5t36.5 41.5q0 18 -11.5 27t-45.5 14l-216 32q-175 25 -254.5 106.5t-79.5 223.5q0 179 153 278.5t461 99.5q91 0 184.5 -11.5t160.5 -29.5v-304q-68 19 -159.5 30.5t-177.5 11.5
q-122 0 -165 -16.5t-43 -43.5q0 -15 12.5 -23.5t45.5 -13.5l217 -32q166 -24 249 -99.5t83 -232.5q0 -117 -67 -201.5t-195 -129.5t-307 -45q-114 0 -223 13.5zM361 1220l246 396h477l-309 -396h-414z" />
    <glyph glyph-name="Scircumflex" unicode="&#x15c;" horiz-adv-x="1296" 
d="M96 48v357q98 -32 232.5 -52t245.5 -20q124 0 172.5 26.5t48.5 76.5q0 28 -13 46.5t-48.5 33.5t-103.5 30l-138 31q-226 49 -332.5 157t-106.5 287q0 232 178.5 355.5t531.5 123.5q220 0 395 -45v-357q-72 22 -173.5 35.5t-200.5 13.5q-158 0 -220.5 -28t-62.5 -78
q0 -25 11 -41.5t39.5 -29.5t83.5 -26l138 -31q247 -53 358.5 -162.5t111.5 -287.5q0 -148 -80.5 -257t-231.5 -167.5t-358 -58.5q-260 0 -477 68zM1143 1586h-336l-145 161l-145 -161h-336l297 316h368z" />
    <glyph glyph-name="scircumflex" unicode="&#x15d;" horiz-adv-x="1119" 
d="M282 -8.5q-109 13.5 -197 38.5v305q88 -25 196.5 -39.5t215.5 -14.5q90 0 126.5 14.5t36.5 41.5q0 18 -11.5 27t-45.5 14l-216 32q-175 25 -254.5 106.5t-79.5 223.5q0 179 153 278.5t461 99.5q91 0 184.5 -11.5t160.5 -29.5v-304q-68 19 -159.5 30.5t-177.5 11.5
q-122 0 -165 -16.5t-43 -43.5q0 -15 12.5 -23.5t45.5 -13.5l217 -32q166 -24 249 -99.5t83 -232.5q0 -117 -67 -201.5t-195 -129.5t-307 -45q-114 0 -223 13.5zM1004 1220h-314l-122 195l-122 -195h-314l262 396h348z" />
    <glyph glyph-name="Scedilla" unicode="&#x15e;" horiz-adv-x="1296" 
d="M1182.5 236q-60.5 -99 -175 -162t-273.5 -84v-65q97 -15 145 -62.5t48 -122.5q0 -94 -78.5 -147t-233.5 -53q-115 0 -219 31v152q44 -14 97 -21.5t100 -7.5q59 0 87 14t28 46q0 34 -28.5 49t-86.5 15h-57v162q-241 6 -440 68v357q98 -32 232.5 -52t245.5 -20
q124 0 172.5 26.5t48.5 76.5q0 28 -13 46.5t-48.5 33.5t-103.5 30l-138 31q-226 49 -332.5 157t-106.5 287q0 232 178.5 355.5t531.5 123.5q220 0 395 -45v-357q-72 22 -173.5 35.5t-200.5 13.5q-158 0 -220.5 -28t-62.5 -78q0 -25 11 -41.5t39.5 -29.5t83.5 -26l138 -31
q247 -53 358.5 -162.5t111.5 -287.5q0 -128 -60.5 -227z" />
    <glyph glyph-name="scedilla" unicode="&#x15f;" horiz-adv-x="1119" 
d="M971.5 114.5q-102.5 -94.5 -291.5 -123.5v-67q86 -17 129.5 -65.5t43.5 -123.5q0 -92 -74.5 -143.5t-217.5 -51.5q-106 0 -199 31v152q37 -14 87 -21.5t90 -7.5q48 0 71.5 14t23.5 47t-24 48t-71 15h-57v160q-107 2 -210 15t-187 37v305q88 -25 196.5 -39.5t215.5 -14.5
q90 0 126.5 14.5t36.5 41.5q0 18 -11.5 27t-45.5 14l-216 32q-175 25 -254.5 106.5t-79.5 223.5q0 179 153 278.5t461 99.5q91 0 184.5 -11.5t160.5 -29.5v-304q-68 19 -159.5 30.5t-177.5 11.5q-122 0 -165 -16.5t-43 -43.5q0 -15 12.5 -23.5t45.5 -13.5l217 -32
q166 -24 249 -99.5t83 -232.5q0 -145 -102.5 -239.5z" />
    <glyph glyph-name="Scaron" unicode="&#x160;" horiz-adv-x="1296" 
d="M96 48v357q98 -32 232.5 -52t245.5 -20q124 0 172.5 26.5t48.5 76.5q0 28 -13 46.5t-48.5 33.5t-103.5 30l-138 31q-226 49 -332.5 157t-106.5 287q0 232 178.5 355.5t531.5 123.5q220 0 395 -45v-357q-72 22 -173.5 35.5t-200.5 13.5q-158 0 -220.5 -28t-62.5 -78
q0 -25 11 -41.5t39.5 -29.5t83.5 -26l138 -31q247 -53 358.5 -162.5t111.5 -287.5q0 -148 -80.5 -257t-231.5 -167.5t-358 -58.5q-260 0 -477 68zM807 1902h336l-297 -316h-368l-297 316h336l145 -161z" />
    <glyph glyph-name="scaron" unicode="&#x161;" horiz-adv-x="1119" 
d="M282 -8.5q-109 13.5 -197 38.5v305q88 -25 196.5 -39.5t215.5 -14.5q90 0 126.5 14.5t36.5 41.5q0 18 -11.5 27t-45.5 14l-216 32q-175 25 -254.5 106.5t-79.5 223.5q0 179 153 278.5t461 99.5q91 0 184.5 -11.5t160.5 -29.5v-304q-68 19 -159.5 30.5t-177.5 11.5
q-122 0 -165 -16.5t-43 -43.5q0 -15 12.5 -23.5t45.5 -13.5l217 -32q166 -24 249 -99.5t83 -232.5q0 -117 -67 -201.5t-195 -129.5t-307 -45q-114 0 -223 13.5zM690 1616h314l-262 -396h-348l-262 396h314l122 -195z" />
    <glyph glyph-name="uni0162" unicode="&#x162;" horiz-adv-x="1445" 
d="M795 0v-75q97 -15 145 -62.5t48 -122.5q0 -94 -78.5 -147t-233.5 -53q-115 0 -219 31v152q44 -14 97.5 -21.5t99.5 -7.5q59 0 87 14t28 46q0 34 -28.5 49t-86.5 15h-57v182h-102v1118h-478v362h1411v-362h-478v-1118h-155z" />
    <glyph glyph-name="uni0163" unicode="&#x163;" horiz-adv-x="965" 
d="M646 755v-254q0 -65 15 -101.5t48 -51.5t92 -15q40 0 109 11v-339q-50 -11 -115.5 -18.5t-123.5 -7.5h-3v-55q86 -17 129.5 -65.5t43.5 -123.5q0 -92 -74.5 -143.5t-217.5 -51.5q-106 0 -199 31v152q37 -14 87 -21.5t90 -7.5q48 0 71.5 14t23.5 47t-24 48t-71 15h-57v187
q-268 82 -268 419v331h-171v345h171l82 380h362v-380h264v-345h-264z" />
    <glyph glyph-name="Tcaron" unicode="&#x164;" horiz-adv-x="1445" 
d="M495 0v1118h-478v362h1411v-362h-478v-1118h-455zM868 1902h336l-297 -316h-368l-297 316h336l145 -161z" />
    <glyph glyph-name="tcaron" unicode="&#x165;" horiz-adv-x="965" 
d="M646 755v-254q0 -65 15 -101.5t48 -51.5t92 -15q40 0 109 11v-339q-50 -11 -115.5 -18.5t-123.5 -7.5q-469 0 -469 445v331h-171v345h171l82 380h362v-380h264v-345h-264zM741 1393q8 99 8 223h285q0 -124 -23.5 -237.5t-63.5 -198.5h-233q19 114 27 213z" />
    <glyph glyph-name="Tbar" unicode="&#x166;" horiz-adv-x="1445" 
d="M1428 1118h-478v-281h306v-274h-306v-563h-455v563h-305v274h305v281h-478v362h1411v-362z" />
    <glyph glyph-name="tbar" unicode="&#x167;" horiz-adv-x="965" 
d="M646 755v-79h206v-244h-201q11 -55 45.5 -77t104.5 -22q40 0 109 11v-339q-50 -11 -115.5 -18.5t-123.5 -7.5q-469 0 -469 445v8h-110v244h110v79h-171v345h171l82 380h362v-380h264v-345h-264z" />
    <glyph glyph-name="Utilde" unicode="&#x168;" horiz-adv-x="1651" 
d="M286.5 154q-172.5 174 -172.5 517v809h454v-848q0 -149 65.5 -218.5t196.5 -69.5t196 69.5t65 218.5v848h447v-809q0 -342 -171.5 -516.5t-536.5 -174.5q-371 0 -543.5 174zM923 1595.5q-45 9.5 -110 29.5q-58 17 -99 26t-85 9q-67 0 -118.5 -16t-107.5 -51v232
q48 40 103.5 58.5t132.5 18.5q53 0 99.5 -10t108.5 -30q61 -18 100.5 -27t83.5 -9q67 0 118.5 16t107.5 51v-232q-47 -40 -102.5 -57.5t-133.5 -17.5q-53 0 -98 9.5z" />
    <glyph glyph-name="utilde" unicode="&#x169;" horiz-adv-x="1361" 
d="M217 99.5q-117 118.5 -117 365.5v635h444v-606q0 -76 28.5 -107.5t85.5 -31.5q43 0 84.5 16t68.5 42v687h444v-1100h-363l-28 100h-16q-64 -58 -144 -88.5t-168 -30.5q-202 0 -319 118.5zM761 1256.5q-42 13.5 -102 39.5q-54 24 -90.5 35.5t-74.5 11.5q-62 0 -112.5 -21
t-105.5 -70v258q47 45 101.5 65t126.5 20q47 0 89 -13.5t102 -39.5q54 -24 90.5 -35.5t74.5 -11.5q62 0 112.5 21t105.5 70v-258q-47 -45 -101.5 -65t-126.5 -20q-47 0 -89 13.5z" />
    <glyph glyph-name="Umacron" unicode="&#x16a;" horiz-adv-x="1651" 
d="M286.5 154q-172.5 174 -172.5 517v809h454v-848q0 -149 65.5 -218.5t196.5 -69.5t196 69.5t65 218.5v848h447v-809q0 -342 -171.5 -516.5t-536.5 -174.5q-371 0 -543.5 174zM403 1621v248h854v-248h-854z" />
    <glyph glyph-name="umacron" unicode="&#x16b;" horiz-adv-x="1361" 
d="M217 99.5q-117 118.5 -117 365.5v635h444v-606q0 -76 28.5 -107.5t85.5 -31.5q43 0 84.5 16t68.5 42v687h444v-1100h-363l-28 100h-16q-64 -58 -144 -88.5t-168 -30.5q-202 0 -319 118.5zM276 1295v248h802v-248h-802z" />
    <glyph glyph-name="Ubreve" unicode="&#x16c;" horiz-adv-x="1651" 
d="M286.5 154q-172.5 174 -172.5 517v809h454v-848q0 -149 65.5 -218.5t196.5 -69.5t196 69.5t65 218.5v848h447v-809q0 -342 -171.5 -516.5t-536.5 -174.5q-371 0 -543.5 174zM510.5 1671.5q-113.5 85.5 -134.5 230.5h263q29 -114 191 -114t191 114h263
q-21 -145 -134.5 -230.5t-319.5 -85.5t-319.5 85.5z" />
    <glyph glyph-name="ubreve" unicode="&#x16d;" horiz-adv-x="1361" 
d="M217 99.5q-117 118.5 -117 365.5v635h444v-606q0 -76 28.5 -107.5t85.5 -31.5q43 0 84.5 16t68.5 42v687h444v-1100h-363l-28 100h-16q-64 -58 -144 -88.5t-168 -30.5q-202 0 -319 118.5zM366 1322q-111 96 -122 274h260q8 -79 50 -118.5t123 -39.5t123 39.5t50 118.5
h260q-11 -178 -122 -274t-311 -96t-311 96z" />
    <glyph glyph-name="Uring" unicode="&#x16e;" horiz-adv-x="1651" 
d="M286.5 154q-172.5 174 -172.5 517v809h454v-848q0 -149 65.5 -218.5t196.5 -69.5t196 69.5t65 218.5v848h447v-809q0 -342 -171.5 -516.5t-536.5 -174.5q-371 0 -543.5 174zM713 1598.5q-52 28.5 -81.5 78.5t-29.5 113t29.5 113t81.5 78.5t117 28.5t117 -28.5t81.5 -78.5
t29.5 -113t-29.5 -113t-81.5 -78.5t-117 -28.5t-117 28.5zM886.5 1730.5q21.5 22.5 21.5 59.5t-21.5 59.5t-56.5 22.5t-56.5 -22.5t-21.5 -59.5t21.5 -59.5t56.5 -22.5t56.5 22.5z" />
    <glyph glyph-name="uring" unicode="&#x16f;" horiz-adv-x="1361" 
d="M217 99.5q-117 118.5 -117 365.5v635h444v-606q0 -76 28.5 -107.5t85.5 -31.5q43 0 84.5 16t68.5 42v687h444v-1100h-363l-28 100h-16q-64 -58 -144 -88.5t-168 -30.5q-202 0 -319 118.5zM560 1242.5q-52 28.5 -81.5 78.5t-29.5 113t29.5 113t81.5 78.5t117 28.5
t117 -28.5t81.5 -78.5t29.5 -113t-29.5 -113t-81.5 -78.5t-117 -28.5t-117 28.5zM733.5 1374.5q21.5 22.5 21.5 59.5t-21.5 59.5t-56.5 22.5t-56.5 -22.5t-21.5 -59.5t21.5 -59.5t56.5 -22.5t56.5 22.5z" />
    <glyph glyph-name="Uhungarumlaut" unicode="&#x170;" horiz-adv-x="1651" 
d="M286.5 154q-172.5 174 -172.5 517v809h454v-848q0 -149 65.5 -218.5t196.5 -69.5t196 69.5t65 218.5v848h447v-809q0 -342 -171.5 -516.5t-536.5 -174.5q-371 0 -543.5 174zM441 1586l153 316h338l-175 -316h-316zM903 1586l153 316h338l-175 -316h-316z" />
    <glyph glyph-name="uhungarumlaut" unicode="&#x171;" horiz-adv-x="1361" 
d="M217 99.5q-117 118.5 -117 365.5v635h444v-606q0 -76 28.5 -107.5t85.5 -31.5q43 0 84.5 16t68.5 42v687h444v-1100h-363l-28 100h-16q-64 -58 -144 -88.5t-168 -30.5q-202 0 -319 118.5zM288 1220l158 396h338l-180 -396h-316zM750 1220l158 396h338l-180 -396h-316z
" />
    <glyph glyph-name="Uogonek" unicode="&#x172;" horiz-adv-x="1651" 
d="M1538 1480v-809q0 -259 -97.5 -422.5t-301.5 -227.5q-117 -37 -182.5 -73.5t-91 -72t-25.5 -76.5q0 -96 143 -96q60 0 132 24v-157q-95 -30 -199 -30q-160 0 -240.5 60t-80.5 165q0 65 31 119.5t102 99.5q-318 23 -466 195.5t-148 491.5v809h454v-848q0 -149 65.5 -218.5
t196.5 -69.5t196 69.5t65 218.5v848h447z" />
    <glyph glyph-name="uogonek" unicode="&#x173;" horiz-adv-x="1361" 
d="M1270 -273v-157q-45 -15 -87 -22.5t-98 -7.5q-148 0 -225 60t-77 165q0 71 35 130t116 105h-42l-28 100h-16q-64 -58 -144 -88.5t-168 -30.5q-202 0 -319 118.5t-117 365.5v635h444v-606q0 -76 28.5 -107.5t85.5 -31.5q43 0 84.5 16t68.5 42v687h444v-1100
q-126 -45 -176 -94t-50 -110q0 -43 31.5 -68t91.5 -25q58 0 118 24z" />
    <glyph glyph-name="Wcircumflex" unicode="&#x174;" horiz-adv-x="2567" 
d="M2118 1480h430l-407 -1480h-577l-274 1008l-287 -1008h-576l-408 1480h458l272 -1067l299 1067h496l289 -1087zM1765 1586h-336l-145 161l-145 -161h-336l297 316h368z" />
    <glyph glyph-name="wcircumflex" unicode="&#x175;" horiz-adv-x="2020" 
d="M1571 1100h403l-293 -1100h-488l-179 699l-186 -699h-487l-295 1100h421l145 -639l164 639h488l154 -622zM1447 1220h-314l-122 195l-122 -195h-314l262 396h348z" />
    <glyph glyph-name="Ycircumflex" unicode="&#x176;" horiz-adv-x="1445" 
d="M1492 1480l-539 -871v-609h-454v602l-562 878h479l318 -509l313 509h445zM1203 1586h-336l-145 161l-145 -161h-336l297 316h368z" />
    <glyph glyph-name="ycircumflex" unicode="&#x177;" horiz-adv-x="1331" 
d="M910 1100h434l-572 -1540h-433l166 440h-112l-406 1100h465l230 -701zM1101 1220h-314l-122 195l-122 -195h-314l262 396h348z" />
    <glyph glyph-name="Ydieresis" unicode="&#x178;" horiz-adv-x="1445" 
d="M1492 1480l-539 -871v-609h-454v602l-562 878h479l318 -509l313 509h445zM270.5 1616.5q-55.5 46.5 -55.5 133.5t55.5 133.5t167.5 46.5t167 -46.5t55 -133.5t-55 -133.5t-167 -46.5t-167.5 46.5zM839 1616.5q-55 46.5 -55 133.5t55 133.5t167 46.5t167.5 -46.5
t55.5 -133.5t-55.5 -133.5t-167.5 -46.5t-167 46.5z" />
    <glyph glyph-name="Zacute" unicode="&#x179;" horiz-adv-x="1389" 
d="M657 362h661v-362h-1247v245l651 873h-641v362h1227v-245zM493 1586l193 316h466l-259 -316h-400z" />
    <glyph glyph-name="zacute" unicode="&#x17a;" horiz-adv-x="1174" 
d="M653 345h464v-345h-1038v285l454 470h-444v345h1018v-285zM392 1220l246 396h477l-309 -396h-414z" />
    <glyph glyph-name="Zdotaccent" unicode="&#x17b;" horiz-adv-x="1389" 
d="M657 362h661v-362h-1247v245l651 873h-641v362h1227v-245zM500.5 1617.5q-64.5 47.5 -64.5 132.5t64.5 132.5t195.5 47.5t195.5 -47.5t64.5 -132.5t-64.5 -132.5t-195.5 -47.5t-195.5 47.5z" />
    <glyph glyph-name="zdotaccent" unicode="&#x17c;" horiz-adv-x="1174" 
d="M653 345h464v-345h-1038v285l454 470h-444v345h1018v-285zM335 1418q0 211 264 211t264 -211t-264 -211t-264 211z" />
    <glyph glyph-name="Zcaron" unicode="&#x17d;" horiz-adv-x="1389" 
d="M657 362h661v-362h-1247v245l651 873h-641v362h1227v-245zM841 1902h336l-297 -316h-368l-297 316h336l145 -161z" />
    <glyph glyph-name="zcaron" unicode="&#x17e;" horiz-adv-x="1174" 
d="M653 345h464v-345h-1038v285l454 470h-444v345h1018v-285zM721 1616h314l-262 -396h-348l-262 396h314l122 -195z" />
    <glyph glyph-name="uni018F" unicode="&#x18f;" horiz-adv-x="1736" 
d="M1412 1308q247 -192 247 -588q0 -228 -94.5 -395t-271.5 -256t-418 -89q-247 0 -429 88.5t-280.5 258.5t-98.5 408v133h1129q-43 149 -182.5 213.5t-386.5 64.5q-108 0 -226 -11.5t-220 -32.5v356q111 21 236.5 31.5t244.5 10.5q503 0 750 -192zM1098.5 371.5
q78.5 54.5 103.5 182.5h-661q27 -126 108 -181.5t231 -55.5q140 0 218.5 54.5z" />
    <glyph glyph-name="florin" unicode="&#x192;" horiz-adv-x="920" 
d="M703 1252q-51 -41 -51 -124v-28h265v-345h-265v-690q0 -160 -68.5 -278.5t-199.5 -182.5t-313 -64q-87 0 -179 12v337q57 -6 104 -6q111 0 162.5 41t51.5 124v707h-171v345h171v11q0 160 68.5 278.5t199 182.5t312.5 64q89 0 179 -12v-337q-57 6 -103 6q-112 0 -163 -41z
" />
    <glyph glyph-name="Ohorn" unicode="&#x1a0;" horiz-adv-x="1768" 
d="M1635.5 1061.5q55.5 -141.5 55.5 -321.5q0 -239 -97.5 -410t-279.5 -260.5t-430 -89.5q-249 0 -430.5 89t-279 259.5t-97.5 411.5t97.5 411.5t279 259.5t430.5 89q73 0 183 -11q17 -1 67 -5t85 -4q104 0 152 35t48 121q0 59 -13 140h283q12 -41 15.5 -77t3.5 -78
q0 -135 -61 -215.5t-173 -105.5q106 -97 161.5 -238.5zM1140.5 436q87.5 99 87.5 296q0 206 -88.5 308.5t-255.5 102.5t-255.5 -98t-88.5 -297q0 -210 87 -310.5t257 -100.5q169 0 256.5 99z" />
    <glyph glyph-name="ohorn" unicode="&#x1a1;" horiz-adv-x="1365" 
d="M1317 1046q-51 -77 -145 -109q133 -145 133 -388q0 -180 -76 -308.5t-216.5 -195.5t-330.5 -67t-330 67t-216 195.5t-76 307.5q0 182 73.5 310t216 194t347.5 66q50 0 139 -7q47 -5 76 -5q93 0 139 34.5t46 116.5q0 58 -13 139h267q17 -73 17 -154q0 -119 -51 -196z
M819 365q45 55 45 183q0 129 -45 183.5t-137 54.5t-136.5 -54t-44.5 -183t44.5 -184t136.5 -55t137 55z" />
    <glyph glyph-name="Uhorn" unicode="&#x1af;" horiz-adv-x="1654" 
d="M286.5 154q-172.5 174 -172.5 517v809h454v-848q0 -149 65.5 -218.5t196.5 -69.5t196 69.5t65 218.5v848h136q104 0 152 35t48 121q0 61 -14 140h284q19 -71 19 -155q0 -116 -46.5 -192.5t-131.5 -111.5v-646q0 -342 -171.5 -516.5t-536.5 -174.5q-371 0 -543.5 174z" />
    <glyph glyph-name="uhorn" unicode="&#x1b0;" horiz-adv-x="1401" 
d="M1391.5 1044q-47.5 -75 -136.5 -109v-935h-363l-28 100h-16q-64 -58 -144 -88.5t-168 -30.5q-202 0 -319 118.5t-117 365.5v635h444v-606q0 -76 28.5 -107.5t85.5 -31.5q43 0 84.5 16t68.5 42v687h172q94 0 139.5 34.5t45.5 116.5q0 65 -13 139h266q11 -42 14.5 -77.5
t3.5 -76.5q0 -117 -47.5 -192z" />
    <glyph glyph-name="uni01C4" unicode="&#x1c4;" horiz-adv-x="3018" 
d="M354.5 -8.5q-128.5 6.5 -234.5 19.5v1426q116 27 270 43t296 16q459 0 689.5 -185.5t230.5 -570.5q0 -268 -110.5 -434t-333.5 -243.5t-570 -77.5q-109 0 -237.5 6.5zM959 383q93 40 138.5 127.5t45.5 232.5q0 209 -105 302.5t-323 93.5q-31 0 -71 -4t-70 -9v-779
q47 -4 142 -4q150 0 243 40zM2286 362h661v-362h-1247v245l651 873h-641v362h1227v-245zM2470 1902h336l-297 -316h-368l-297 316h336l145 -161z" />
    <glyph glyph-name="uni01C5" unicode="&#x1c5;" horiz-adv-x="2857" 
d="M354.5 -8.5q-128.5 6.5 -234.5 19.5v1426q116 27 270 43t296 16q459 0 689.5 -185.5t230.5 -570.5q0 -268 -110.5 -434t-333.5 -243.5t-570 -77.5q-109 0 -237.5 6.5zM959 383q93 40 138.5 127.5t45.5 232.5q0 209 -105 302.5t-323 93.5q-31 0 -71 -4t-70 -9v-779
q47 -4 142 -4q150 0 243 40zM2336 345h464v-345h-1038v285l454 470h-444v345h1018v-285zM2427 1582h336l-297 -316h-368l-297 316h336l145 -161z" />
    <glyph glyph-name="uni01C6" unicode="&#x1c6;" horiz-adv-x="2567" 
d="M306.5 39q-112.5 58 -179.5 180.5t-67 306.5q0 187 76.5 320.5t222.5 203.5t352 70q54 0 132 -6v502h444v-1616h-371l-24 110h-19q-56 -61 -135.5 -95t-178.5 -34q-140 0 -252.5 58zM772.5 344.5q40.5 10.5 70.5 30.5v406q-62 10 -115 10q-116 0 -171.5 -56t-55.5 -178
q0 -120 48.5 -171.5t140.5 -51.5q42 0 82.5 10.5zM2046 345h464v-345h-1038v285l454 470h-444v345h1018v-285zM2114 1616h314l-262 -396h-348l-262 396h314l122 -195z" />
    <glyph glyph-name="uni01C7" unicode="&#x1c7;" horiz-adv-x="1974" 
d="M120 0v1480h454v-1118h696v-362h-1150zM1259 -167q81 102 112.5 207.5t31.5 262.5v1177h451v-1161q0 -195 -71.5 -356t-241.5 -319z" />
    <glyph glyph-name="uni01C8" unicode="&#x1c8;" horiz-adv-x="1938" 
d="M120 0v1480h454v-1118h696v-362h-1150zM1243 -290q81 102 112.5 207.5t31.5 262.5v920h444v-904q0 -194 -70.5 -353.5t-238.5 -318.5zM1337 1418q0 211 264 211t264 -211t-264 -211t-264 211z" />
    <glyph glyph-name="uni01C9" unicode="&#x1c9;" horiz-adv-x="1315" 
d="M107 0v1616h444v-1616h-444zM620 -290q81 102 112.5 207.5t31.5 262.5v920h444v-904q0 -194 -70.5 -353.5t-238.5 -318.5zM714 1418q0 211 264 211t264 -211t-264 -211t-264 211z" />
    <glyph glyph-name="uni01CA" unicode="&#x1ca;" horiz-adv-x="2392" 
d="M1151 1480h427v-1480h-454l-577 833v-833h-427v1480h454l577 -833v833zM1677 -167q81 102 112.5 207.5t31.5 262.5v1177h451v-1161q0 -195 -71.5 -356t-241.5 -319z" />
    <glyph glyph-name="uni01CB" unicode="&#x1cb;" horiz-adv-x="2356" 
d="M1151 1480h427v-1480h-454l-577 833v-833h-427v1480h454l577 -833v833zM1661 -290q81 102 112.5 207.5t31.5 262.5v920h444v-904q0 -194 -70.5 -353.5t-238.5 -318.5zM1755 1418q0 211 264 211t264 -211t-264 -211t-264 211z" />
    <glyph glyph-name="uni01CC" unicode="&#x1cc;" horiz-adv-x="2029" 
d="M107 1100h363l28 -100h19q60 57 145.5 87.5t184.5 30.5q195 0 309.5 -118.5t114.5 -366.5v-633h-444v606q0 77 -29.5 108t-90.5 31q-46 0 -87.5 -16t-68.5 -42v-687h-444v1100zM1334 -290q81 102 112.5 207.5t31.5 262.5v920h444v-904q0 -194 -70.5 -353.5t-238.5 -318.5
zM1428 1418q0 211 264 211t264 -211t-264 -211t-264 211z" />
    <glyph glyph-name="Gcaron" unicode="&#x1e6;" horiz-adv-x="1578" 
d="M1454 720v-702q-228 -38 -420 -38q-482 0 -719.5 189t-237.5 565q0 242 108.5 413.5t326 262t540.5 90.5q182 0 349 -33v-364q-152 30 -310 30q-197 -1 -316 -45t-172.5 -132.5t-53.5 -228.5q0 -190 111 -286.5t342 -96.5h30v376h422zM1037 1902h336l-297 -316h-368
l-297 316h336l145 -161z" />
    <glyph glyph-name="gcaron" unicode="&#x1e7;" horiz-adv-x="1393" 
d="M141 -414v337q107 -26 211 -39.5t189 -13.5q163 0 232.5 48.5t69.5 151.5v49h-20q-109 -117 -299 -117q-126 0 -232 61t-169 179.5t-63 284.5q0 185 78.5 317t237 203t392.5 71q132 0 272.5 -18.5t246.5 -51.5v-891q0 -214 -76 -350t-232.5 -201.5t-401.5 -65.5
q-236 0 -436 46zM843 386v393q-57 11 -114 11q-228 0 -228 -228q0 -112 49 -160t144 -48q85 0 149 32zM850 1616h314l-262 -396h-348l-262 396h314l122 -195z" />
    <glyph glyph-name="uni01EA" unicode="&#x1ea;" horiz-adv-x="1768" 
d="M1314 1410.5q182 -89.5 279.5 -260.5t97.5 -410q0 -208 -72.5 -359.5t-195.5 -242.5t-279 -128q-283 -72 -283 -211q0 -96 143 -96q59 0 131 24v-157q-93 -30 -198 -30q-160 0 -241 60t-81 165q0 138 135 222q-209 22 -360.5 116.5t-232 256t-80.5 380.5
q0 241 97.5 411.5t279 259.5t430.5 89q248 0 430 -89.5zM1140.5 436q87.5 99 87.5 296q0 206 -88.5 308.5t-255.5 102.5t-255.5 -98t-88.5 -297q0 -210 87 -310.5t257 -100.5q169 0 256.5 99z" />
    <glyph glyph-name="uni01EB" unicode="&#x1eb;" horiz-adv-x="1365" 
d="M1019.5 1051.5q139.5 -66.5 212.5 -194.5t73 -308q0 -200 -94 -336.5t-265 -195.5q-103 -36 -160 -71t-78.5 -69.5t-21.5 -74.5q0 -47 31 -73t92 -26q58 0 118 24v-157q-45 -15 -87 -22.5t-98 -7.5q-149 0 -225.5 60t-76.5 165q0 68 30.5 122.5t95.5 97.5
q-157 20 -270.5 91.5t-174.5 191.5t-61 280q0 182 73 310t212.5 194t336.5 66q198 0 337.5 -66.5zM819 365q45 55 45 183q0 129 -45 183.5t-137 54.5t-136.5 -54t-44.5 -183t44.5 -184t136.5 -55t137 55z" />
    <glyph glyph-name="uni01F1" unicode="&#x1f1;" horiz-adv-x="3018" 
d="M354.5 -8.5q-128.5 6.5 -234.5 19.5v1426q116 27 270 43t296 16q459 0 689.5 -185.5t230.5 -570.5q0 -268 -110.5 -434t-333.5 -243.5t-570 -77.5q-109 0 -237.5 6.5zM959 383q93 40 138.5 127.5t45.5 232.5q0 209 -105 302.5t-323 93.5q-31 0 -71 -4t-70 -9v-779
q47 -4 142 -4q150 0 243 40zM2286 362h661v-362h-1247v245l651 873h-641v362h1227v-245z" />
    <glyph glyph-name="uni01F2" unicode="&#x1f2;" horiz-adv-x="2857" 
d="M354.5 -8.5q-128.5 6.5 -234.5 19.5v1426q116 27 270 43t296 16q459 0 689.5 -185.5t230.5 -570.5q0 -268 -110.5 -434t-333.5 -243.5t-570 -77.5q-109 0 -237.5 6.5zM959 383q93 40 138.5 127.5t45.5 232.5q0 209 -105 302.5t-323 93.5q-31 0 -71 -4t-70 -9v-779
q47 -4 142 -4q150 0 243 40zM2336 345h464v-345h-1038v285l454 470h-444v345h1018v-285z" />
    <glyph glyph-name="uni01F3" unicode="&#x1f3;" horiz-adv-x="2567" 
d="M306.5 39q-112.5 58 -179.5 180.5t-67 306.5q0 187 76.5 320.5t222.5 203.5t352 70q54 0 132 -6v502h444v-1616h-371l-24 110h-19q-56 -61 -135.5 -95t-178.5 -34q-140 0 -252.5 58zM772.5 344.5q40.5 10.5 70.5 30.5v406q-62 10 -115 10q-116 0 -171.5 -56t-55.5 -178
q0 -120 48.5 -171.5t140.5 -51.5q42 0 82.5 10.5zM2046 345h464v-345h-1038v285l454 470h-444v345h1018v-285z" />
    <glyph glyph-name="uni01F4" unicode="&#x1f4;" horiz-adv-x="1578" 
d="M1454 720v-702q-228 -38 -420 -38q-482 0 -719.5 189t-237.5 565q0 242 108.5 413.5t326 262t540.5 90.5q182 0 349 -33v-364q-152 30 -310 30q-197 -1 -316 -45t-172.5 -132.5t-53.5 -228.5q0 -190 111 -286.5t342 -96.5h30v376h422zM689 1586l193 316h466l-259 -316
h-400z" />
    <glyph glyph-name="uni01F5" unicode="&#x1f5;" horiz-adv-x="1393" 
d="M141 -414v337q107 -26 211 -39.5t189 -13.5q163 0 232.5 48.5t69.5 151.5v49h-20q-109 -117 -299 -117q-126 0 -232 61t-169 179.5t-63 284.5q0 185 78.5 317t237 203t392.5 71q132 0 272.5 -18.5t246.5 -51.5v-891q0 -214 -76 -350t-232.5 -201.5t-401.5 -65.5
q-236 0 -436 46zM843 386v393q-57 11 -114 11q-228 0 -228 -228q0 -112 49 -160t144 -48q85 0 149 32zM521 1220l246 396h477l-309 -396h-414z" />
    <glyph glyph-name="Aringacute" unicode="&#x1fa;" horiz-adv-x="1645" 
d="M1191 0l-102 337h-537l-102 -337h-440l481 1480h662l482 -1480h-444zM655 681h330l-165 545zM1025 1893q24 -45 24 -103q0 -63 -29.5 -113t-81.5 -78.5t-117 -28.5t-117 28.5t-81.5 78.5t-29.5 113t29.5 113t81.5 78.5t117 28.5q14 0 21 -1l97 127h296zM877.5 1730.5
q21.5 22.5 21.5 59.5t-21.5 59.5t-56.5 22.5t-56.5 -22.5t-21.5 -59.5t21.5 -59.5t56.5 -22.5t56.5 22.5z" />
    <glyph glyph-name="aringacute" unicode="&#x1fb;" horiz-adv-x="1260" 
d="M908 1068q130 -50 191 -164t61 -312v-592h-365l-30 96h-19q-97 -118 -294 -118q-128 0 -218 42.5t-136.5 118t-46.5 171.5q0 165 127 255.5t397 104.5l148 7q-12 65 -67.5 92t-177.5 27q-71 0 -159 -11.5t-161 -32.5v317q92 24 200 36.5t202 12.5q218 0 348 -50zM727 296
v152l-105 -5q-71 -4 -102.5 -27.5t-31.5 -65.5q0 -38 29 -59.5t84 -21.5q76 0 126 27zM830 1537q24 -45 24 -103q0 -63 -29.5 -113t-81.5 -78.5t-117 -28.5t-117 28.5t-81.5 78.5t-29.5 113t29.5 113t81.5 78.5t117 28.5q14 0 21 -1l97 127h296zM682.5 1374.5
q21.5 22.5 21.5 59.5t-21.5 59.5t-56.5 22.5t-56.5 -22.5t-21.5 -59.5t21.5 -59.5t56.5 -22.5t56.5 22.5z" />
    <glyph glyph-name="AEacute" unicode="&#x1fc;" horiz-adv-x="2246" 
d="M1482 346h685v-346h-1108l-28 336h-478l-102 -336h-441l481 1480h1666v-346h-751l20 -206h626v-346h-593zM657 682h345l-37 452h-171zM962 1586l193 316h466l-259 -316h-400z" />
    <glyph glyph-name="aeacute" unicode="&#x1fd;" horiz-adv-x="1899" 
d="M1849 430h-686q7 -51 36.5 -79t96.5 -41t188 -13q133 0 295 27v-314q-179 -32 -362 -32q-185 0 -317 35.5t-215 108.5q-81 -73 -181.5 -108.5t-211.5 -35.5q-147 0 -246 42.5t-147 118t-48 174.5q0 167 129 260t396 93h150q-7 48 -33.5 76t-78.5 41t-137 13
q-70 0 -157.5 -11.5t-160.5 -32.5v317q189 49 381 49q151 0 256.5 -29t171.5 -92q69 59 160 90t199 31q166 0 283 -69.5t178 -200.5t61 -314v-104zM1196 809q-34 -43 -36 -143h281q-3 99 -36.5 142.5t-103.5 43.5q-71 0 -105 -43zM517 289.5q29 -20.5 87 -20.5q45 0 81.5 11
t75.5 37q-16 48 -26 119h-114q-71 0 -102 -23t-31 -66q0 -37 29 -57.5zM747 1220l246 396h477l-309 -396h-414z" />
    <glyph glyph-name="Oslashacute" unicode="&#x1fe;" horiz-adv-x="1768" 
d="M1641.5 1045q49.5 -136 49.5 -305q0 -239 -98 -410t-280 -260.5t-429 -89.5q-252 0 -434 91l-116 -133l-168 144l104 120q-94 97 -143.5 232.5t-49.5 305.5q0 241 97.5 411.5t279 259.5t430.5 89q251 0 433 -91l116 133l169 -144l-104 -120q94 -97 143.5 -233zM568 545
l487 562q-72 36 -171 36q-167 0 -255.5 -98t-88.5 -297q0 -120 28 -203zM1140.5 436q87.5 99 87.5 296q0 117 -29 202l-488 -562q70 -35 173 -35q169 0 256.5 99zM678 1586l193 316h466l-259 -316h-400z" />
    <glyph glyph-name="oslashacute" unicode="&#x1ff;" horiz-adv-x="1365" 
d="M1261.5 795q43.5 -108 43.5 -246q0 -180 -76 -308.5t-216.5 -195.5t-330.5 -67q-150 0 -273 43l-81 -104l-160 126l63 82q-83 74 -127 180.5t-44 242.5q0 182 73 310t212.5 194t336.5 66q153 0 273 -41l81 106l161 -126l-63 -81q84 -73 127.5 -181zM539.5 736
q-46.5 -55 -46.5 -187q0 -52 8 -97l251 331q-34 8 -70 8q-96 0 -142.5 -55zM825.5 361q46.5 56 46.5 187q0 57 -9 100l-253 -334q32 -9 72 -9q97 0 143.5 56zM472 1220l246 396h477l-309 -396h-414z" />
    <glyph glyph-name="uni0200" unicode="&#x200;" horiz-adv-x="1645" 
d="M1191 0l-102 337h-537l-102 -337h-440l481 1480h662l482 -1480h-444zM655 681h330l-165 545zM432 1586l-175 316h338l153 -316h-316zM894 1586l-175 316h338l153 -316h-316z" />
    <glyph glyph-name="uni0201" unicode="&#x201;" horiz-adv-x="1260" 
d="M908 1068q130 -50 191 -164t61 -312v-592h-365l-30 96h-19q-97 -118 -294 -118q-128 0 -218 42.5t-136.5 118t-46.5 171.5q0 165 127 255.5t397 104.5l148 7q-12 65 -67.5 92t-177.5 27q-71 0 -159 -11.5t-161 -32.5v317q92 24 200 36.5t202 12.5q218 0 348 -50zM727 296
v152l-105 -5q-71 -4 -102.5 -27.5t-31.5 -65.5q0 -38 29 -59.5t84 -21.5q76 0 126 27zM237 1220l-180 396h338l158 -396h-316zM699 1220l-180 396h338l158 -396h-316z" />
    <glyph glyph-name="uni0202" unicode="&#x202;" horiz-adv-x="1645" 
d="M1191 0l-102 337h-537l-102 -337h-440l481 1480h662l482 -1480h-444zM655 681h330l-165 545zM501.5 1816.5q113.5 85.5 319.5 85.5t319.5 -85.5t134.5 -230.5h-263q-29 114 -191 114t-191 -114h-263q21 145 134.5 230.5z" />
    <glyph glyph-name="uni0203" unicode="&#x203;" horiz-adv-x="1260" 
d="M908 1068q130 -50 191 -164t61 -312v-592h-365l-30 96h-19q-97 -118 -294 -118q-128 0 -218 42.5t-136.5 118t-46.5 171.5q0 165 127 255.5t397 104.5l148 7q-12 65 -67.5 92t-177.5 27q-71 0 -159 -11.5t-161 -32.5v317q92 24 200 36.5t202 12.5q218 0 348 -50zM727 296
v152l-105 -5q-71 -4 -102.5 -27.5t-31.5 -65.5q0 -38 29 -59.5t84 -21.5q76 0 126 27zM314.5 1522.5q110.5 95.5 311.5 95.5q199 0 310.5 -96t122.5 -274h-260q-8 80 -50 119.5t-123 39.5q-82 0 -123.5 -39t-49.5 -120h-260q11 179 121.5 274.5z" />
    <glyph glyph-name="uni0204" unicode="&#x204;" horiz-adv-x="1405" 
d="M568 346h758v-346h-1206v1480h1196v-346h-748v-206h643v-346h-643v-236zM351 1586l-175 316h338l153 -316h-316zM813 1586l-175 316h338l153 -316h-316z" />
    <glyph glyph-name="uni0205" unicode="&#x205;" horiz-adv-x="1244" 
d="M1194 430h-694q7 -51 37.5 -79t99 -41t192.5 -13q133 0 295 27v-314q-179 -32 -363 -32q-246 0 -400 60.5t-227.5 186t-73.5 323.5q0 175 67.5 303.5t199.5 197.5t321 69q179 0 301 -70t183.5 -200.5t61.5 -313.5v-104zM533.5 809q-34.5 -43 -36.5 -143h289
q-3 100 -37 143t-107 43q-74 0 -108.5 -43zM251 1220l-180 396h338l158 -396h-316zM713 1220l-180 396h338l158 -396h-316z" />
    <glyph glyph-name="uni0206" unicode="&#x206;" horiz-adv-x="1405" 
d="M568 346h758v-346h-1206v1480h1196v-346h-748v-206h643v-346h-643v-236zM420.5 1816.5q113.5 85.5 319.5 85.5t319.5 -85.5t134.5 -230.5h-263q-29 114 -191 114t-191 -114h-263q21 145 134.5 230.5z" />
    <glyph glyph-name="uni0207" unicode="&#x207;" horiz-adv-x="1244" 
d="M1194 430h-694q7 -51 37.5 -79t99 -41t192.5 -13q133 0 295 27v-314q-179 -32 -363 -32q-246 0 -400 60.5t-227.5 186t-73.5 323.5q0 175 67.5 303.5t199.5 197.5t321 69q179 0 301 -70t183.5 -200.5t61.5 -313.5v-104zM533.5 809q-34.5 -43 -36.5 -143h289
q-3 100 -37 143t-107 43q-74 0 -108.5 -43zM328.5 1522.5q110.5 95.5 311.5 95.5q199 0 310.5 -96t122.5 -274h-260q-8 80 -50 119.5t-123 39.5q-82 0 -123.5 -39t-49.5 -120h-260q11 179 121.5 274.5z" />
    <glyph glyph-name="uni0208" unicode="&#x208;" horiz-adv-x="694" 
d="M120 0v1480h454v-1480h-454zM-42 1586l-175 316h338l153 -316h-316zM420 1586l-175 316h338l153 -316h-316z" />
    <glyph glyph-name="uni0209" unicode="&#x209;" horiz-adv-x="658" 
d="M107 0v1100h444v-1100h-444zM-60 1220l-180 396h338l158 -396h-316zM402 1220l-180 396h338l158 -396h-316z" />
    <glyph glyph-name="uni020A" unicode="&#x20a;" horiz-adv-x="694" 
d="M120 0v1480h454v-1480h-454zM27.5 1816.5q113.5 85.5 319.5 85.5t319.5 -85.5t134.5 -230.5h-263q-29 114 -191 114t-191 -114h-263q21 145 134.5 230.5z" />
    <glyph glyph-name="uni020B" unicode="&#x20b;" horiz-adv-x="658" 
d="M107 0v1100h444v-1100h-444zM17.5 1522.5q110.5 95.5 311.5 95.5q199 0 310.5 -96t122.5 -274h-260q-8 80 -50 119.5t-123 39.5q-82 0 -123.5 -39t-49.5 -120h-260q11 179 121.5 274.5z" />
    <glyph glyph-name="uni020C" unicode="&#x20c;" horiz-adv-x="1768" 
d="M454.5 69q-181.5 89 -279.5 259.5t-98 411.5t97.5 411.5t279 259.5t430.5 89q248 0 430 -89.5t279.5 -260.5t97.5 -410t-98 -410t-280 -260.5t-429 -89.5q-248 0 -429.5 89zM1140.5 436q87.5 99 87.5 296q0 206 -88.5 308.5t-255.5 102.5t-255.5 -98t-88.5 -297
q0 -210 87 -310.5t257 -100.5q169 0 256.5 99zM495 1586l-175 316h338l153 -316h-316zM957 1586l-175 316h338l153 -316h-316z" />
    <glyph glyph-name="uni020D" unicode="&#x20d;" horiz-adv-x="1365" 
d="M352 45q-140 67 -216 195.5t-76 307.5q0 182 73 310t212.5 194t336.5 66q198 0 337.5 -66.5t212.5 -194.5t73 -308t-76 -308.5t-216.5 -195.5t-330.5 -67t-330 67zM819 365q45 55 45 183q0 129 -45 183.5t-137 54.5t-136.5 -54t-44.5 -183t44.5 -184t136.5 -55t137 55z
M293 1220l-180 396h338l158 -396h-316zM755 1220l-180 396h338l158 -396h-316z" />
    <glyph glyph-name="uni020E" unicode="&#x20e;" horiz-adv-x="1768" 
d="M454.5 69q-181.5 89 -279.5 259.5t-98 411.5t97.5 411.5t279 259.5t430.5 89q248 0 430 -89.5t279.5 -260.5t97.5 -410t-98 -410t-280 -260.5t-429 -89.5q-248 0 -429.5 89zM1140.5 436q87.5 99 87.5 296q0 206 -88.5 308.5t-255.5 102.5t-255.5 -98t-88.5 -297
q0 -210 87 -310.5t257 -100.5q169 0 256.5 99zM564.5 1816.5q113.5 85.5 319.5 85.5t319.5 -85.5t134.5 -230.5h-263q-29 114 -191 114t-191 -114h-263q21 145 134.5 230.5z" />
    <glyph glyph-name="uni020F" unicode="&#x20f;" horiz-adv-x="1365" 
d="M352 45q-140 67 -216 195.5t-76 307.5q0 182 73 310t212.5 194t336.5 66q198 0 337.5 -66.5t212.5 -194.5t73 -308t-76 -308.5t-216.5 -195.5t-330.5 -67t-330 67zM819 365q45 55 45 183q0 129 -45 183.5t-137 54.5t-136.5 -54t-44.5 -183t44.5 -184t136.5 -55t137 55z
M370.5 1522.5q110.5 95.5 311.5 95.5q199 0 310.5 -96t122.5 -274h-260q-8 80 -50 119.5t-123 39.5q-82 0 -123.5 -39t-49.5 -120h-260q11 179 121.5 274.5z" />
    <glyph glyph-name="uni0210" unicode="&#x210;" horiz-adv-x="1501" 
d="M1010 0l-343 495l-102 3v-498h-445v1437q117 28 264 45.5t273 17.5q352 0 530.5 -123t178.5 -378q0 -149 -68.5 -256t-196.5 -169l404 -574h-495zM565 826q71 -9 146 -9q118 0 175.5 42t57.5 140q0 93 -60 138t-180 45q-63 0 -139 -13v-343zM363 1586l-175 316h338
l153 -316h-316zM825 1586l-175 316h338l153 -316h-316z" />
    <glyph glyph-name="uni0211" unicode="&#x211;" horiz-adv-x="913" 
d="M107 1100h360l35 -132h19q42 76 114.5 113t170.5 37q45 0 95 -8v-394q-47 10 -123 10q-68 0 -131 -19t-96 -53v-654h-444v1100zM116 1220l-180 396h338l158 -396h-316zM578 1220l-180 396h338l158 -396h-316z" />
    <glyph glyph-name="uni0212" unicode="&#x212;" horiz-adv-x="1501" 
d="M1010 0l-343 495l-102 3v-498h-445v1437q117 28 264 45.5t273 17.5q352 0 530.5 -123t178.5 -378q0 -149 -68.5 -256t-196.5 -169l404 -574h-495zM565 826q71 -9 146 -9q118 0 175.5 42t57.5 140q0 93 -60 138t-180 45q-63 0 -139 -13v-343zM432.5 1816.5
q113.5 85.5 319.5 85.5t319.5 -85.5t134.5 -230.5h-263q-29 114 -191 114t-191 -114h-263q21 145 134.5 230.5z" />
    <glyph glyph-name="uni0213" unicode="&#x213;" horiz-adv-x="913" 
d="M107 1100h360l35 -132h19q42 76 114.5 113t170.5 37q45 0 95 -8v-394q-47 10 -123 10q-68 0 -131 -19t-96 -53v-654h-444v1100zM193.5 1522.5q110.5 95.5 311.5 95.5q199 0 310.5 -96t122.5 -274h-260q-8 80 -50 119.5t-123 39.5q-82 0 -123.5 -39t-49.5 -120h-260
q11 179 121.5 274.5z" />
    <glyph glyph-name="uni0214" unicode="&#x214;" horiz-adv-x="1651" 
d="M286.5 154q-172.5 174 -172.5 517v809h454v-848q0 -149 65.5 -218.5t196.5 -69.5t196 69.5t65 218.5v848h447v-809q0 -342 -171.5 -516.5t-536.5 -174.5q-371 0 -543.5 174zM441 1586l-175 316h338l153 -316h-316zM903 1586l-175 316h338l153 -316h-316z" />
    <glyph glyph-name="uni0215" unicode="&#x215;" horiz-adv-x="1361" 
d="M217 99.5q-117 118.5 -117 365.5v635h444v-606q0 -76 28.5 -107.5t85.5 -31.5q43 0 84.5 16t68.5 42v687h444v-1100h-363l-28 100h-16q-64 -58 -144 -88.5t-168 -30.5q-202 0 -319 118.5zM288 1220l-180 396h338l158 -396h-316zM750 1220l-180 396h338l158 -396h-316z
" />
    <glyph glyph-name="uni0216" unicode="&#x216;" horiz-adv-x="1651" 
d="M286.5 154q-172.5 174 -172.5 517v809h454v-848q0 -149 65.5 -218.5t196.5 -69.5t196 69.5t65 218.5v848h447v-809q0 -342 -171.5 -516.5t-536.5 -174.5q-371 0 -543.5 174zM510.5 1816.5q113.5 85.5 319.5 85.5t319.5 -85.5t134.5 -230.5h-263q-29 114 -191 114
t-191 -114h-263q21 145 134.5 230.5z" />
    <glyph glyph-name="uni0217" unicode="&#x217;" horiz-adv-x="1361" 
d="M217 99.5q-117 118.5 -117 365.5v635h444v-606q0 -76 28.5 -107.5t85.5 -31.5q43 0 84.5 16t68.5 42v687h444v-1100h-363l-28 100h-16q-64 -58 -144 -88.5t-168 -30.5q-202 0 -319 118.5zM365.5 1522.5q110.5 95.5 311.5 95.5q199 0 310.5 -96t122.5 -274h-260
q-8 80 -50 119.5t-123 39.5q-82 0 -123.5 -39t-49.5 -120h-260q11 179 121.5 274.5z" />
    <glyph glyph-name="Scommaaccent" unicode="&#x218;" horiz-adv-x="1296" 
d="M96 48v357q98 -32 232.5 -52t245.5 -20q124 0 172.5 26.5t48.5 76.5q0 28 -13 46.5t-48.5 33.5t-103.5 30l-138 31q-226 49 -332.5 157t-106.5 287q0 232 178.5 355.5t531.5 123.5q220 0 395 -45v-357q-72 22 -173.5 35.5t-200.5 13.5q-158 0 -220.5 -28t-62.5 -78
q0 -25 11 -41.5t39.5 -29.5t83.5 -26l138 -31q247 -53 358.5 -162.5t111.5 -287.5q0 -148 -80.5 -257t-231.5 -167.5t-358 -58.5q-260 0 -477 68zM900 -281q0 -60 -26.5 -126.5t-67.5 -111.5h-271q50 87 64 149q-92 8 -133.5 41.5t-41.5 89.5q0 135 238 135t238 -177z" />
    <glyph glyph-name="scommaaccent" unicode="&#x219;" horiz-adv-x="1119" 
d="M282 -8.5q-109 13.5 -197 38.5v305q88 -25 196.5 -39.5t215.5 -14.5q90 0 126.5 14.5t36.5 41.5q0 18 -11.5 27t-45.5 14l-216 32q-175 25 -254.5 106.5t-79.5 223.5q0 179 153 278.5t461 99.5q91 0 184.5 -11.5t160.5 -29.5v-304q-68 19 -159.5 30.5t-177.5 11.5
q-122 0 -165 -16.5t-43 -43.5q0 -15 12.5 -23.5t45.5 -13.5l217 -32q166 -24 249 -99.5t83 -232.5q0 -117 -67 -201.5t-195 -129.5t-307 -45q-114 0 -223 13.5zM806 -281q0 -60 -26.5 -126.5t-67.5 -111.5h-271q50 87 64 149q-92 8 -133.5 41.5t-41.5 89.5q0 135 238 135
t238 -177z" />
    <glyph glyph-name="uni021A" unicode="&#x21a;" horiz-adv-x="1445" 
d="M495 0v1118h-478v362h1411v-362h-478v-1118h-455zM961 -281q0 -60 -26.5 -126.5t-67.5 -111.5h-271q50 87 64 149q-92 8 -133.5 41.5t-41.5 89.5q0 135 238 135t238 -177z" />
    <glyph glyph-name="uni021B" unicode="&#x21b;" horiz-adv-x="965" 
d="M646 755v-254q0 -65 15 -101.5t48 -51.5t92 -15q40 0 109 11v-339q-50 -11 -115.5 -18.5t-123.5 -7.5q-469 0 -469 445v331h-171v345h171l82 380h362v-380h264v-345h-264zM794 -281q0 -60 -26.5 -126.5t-67.5 -111.5h-271q50 87 64 149q-92 8 -133.5 41.5t-41.5 89.5
q0 135 238 135t238 -177z" />
    <glyph glyph-name="uni022A" unicode="&#x22a;" horiz-adv-x="1768" 
d="M454.5 69q-181.5 89 -279.5 259.5t-98 411.5t97.5 411.5t279 259.5t430.5 89q248 0 430 -89.5t279.5 -260.5t97.5 -410t-98 -410t-280 -260.5t-429 -89.5q-248 0 -429.5 89zM1140.5 436q87.5 99 87.5 296q0 206 -88.5 308.5t-255.5 102.5t-255.5 -98t-88.5 -297
q0 -210 87 -310.5t257 -100.5q169 0 256.5 99zM432.5 1616.5q-55.5 46.5 -55.5 133.5t55.5 133.5t167.5 46.5t167 -46.5t55 -133.5t-55 -133.5t-167 -46.5t-167.5 46.5zM1001 1616.5q-55 46.5 -55 133.5t55 133.5t167 46.5t167.5 -46.5t55.5 -133.5t-55.5 -133.5
t-167.5 -46.5t-167 46.5zM457 2021v248h854v-248h-854z" />
    <glyph glyph-name="uni022B" unicode="&#x22b;" horiz-adv-x="1365" 
d="M352 45q-140 67 -216 195.5t-76 307.5q0 182 73 310t212.5 194t336.5 66q198 0 337.5 -66.5t212.5 -194.5t73 -308t-76 -308.5t-216.5 -195.5t-330.5 -67t-330 67zM819 365q45 55 45 183q0 129 -45 183.5t-137 54.5t-136.5 -54t-44.5 -183t44.5 -184t136.5 -55t137 55z
M238 1266.5q-57 53.5 -57 151.5t57 151.5t169 53.5t169 -53.5t57 -151.5t-57 -151.5t-169 -53.5t-169 53.5zM788 1266.5q-57 53.5 -57 151.5t57 151.5t169 53.5t169 -53.5t57 -151.5t-57 -151.5t-169 -53.5t-169 53.5zM281 1711v248h802v-248h-802z" />
    <glyph glyph-name="uni022C" unicode="&#x22c;" horiz-adv-x="1768" 
d="M454.5 69q-181.5 89 -279.5 259.5t-98 411.5t97.5 411.5t279 259.5t430.5 89q248 0 430 -89.5t279.5 -260.5t97.5 -410t-98 -410t-280 -260.5t-429 -89.5q-248 0 -429.5 89zM1140.5 436q87.5 99 87.5 296q0 206 -88.5 308.5t-255.5 102.5t-255.5 -98t-88.5 -297
q0 -210 87 -310.5t257 -100.5q169 0 256.5 99zM977 1595.5q-45 9.5 -110 29.5q-58 17 -99 26t-85 9q-67 0 -118.5 -16t-107.5 -51v232q48 40 103.5 58.5t132.5 18.5q53 0 99.5 -10t108.5 -30q61 -18 100.5 -27t83.5 -9q67 0 118.5 16t107.5 51v-232q-47 -40 -102.5 -57.5
t-133.5 -17.5q-53 0 -98 9.5zM457 2021v248h854v-248h-854z" />
    <glyph glyph-name="uni022D" unicode="&#x22d;" horiz-adv-x="1365" 
d="M352 45q-140 67 -216 195.5t-76 307.5q0 182 73 310t212.5 194t336.5 66q198 0 337.5 -66.5t212.5 -194.5t73 -308t-76 -308.5t-216.5 -195.5t-330.5 -67t-330 67zM819 365q45 55 45 183q0 129 -45 183.5t-137 54.5t-136.5 -54t-44.5 -183t44.5 -184t136.5 -55t137 55z
M766 1256.5q-42 13.5 -102 39.5q-54 24 -90.5 35.5t-74.5 11.5q-62 0 -112.5 -21t-105.5 -70v258q47 45 101.5 65t126.5 20q47 0 89 -13.5t102 -39.5q54 -24 90.5 -35.5t74.5 -11.5q62 0 112.5 21t105.5 70v-258q-47 -45 -101.5 -65t-126.5 -20q-47 0 -89 13.5zM281 1711
v248h802v-248h-802z" />
    <glyph glyph-name="uni0230" unicode="&#x230;" horiz-adv-x="1768" 
d="M454.5 69q-181.5 89 -279.5 259.5t-98 411.5t97.5 411.5t279 259.5t430.5 89q248 0 430 -89.5t279.5 -260.5t97.5 -410t-98 -410t-280 -260.5t-429 -89.5q-248 0 -429.5 89zM1140.5 436q87.5 99 87.5 296q0 206 -88.5 308.5t-255.5 102.5t-255.5 -98t-88.5 -297
q0 -210 87 -310.5t257 -100.5q169 0 256.5 99zM688.5 1617.5q-64.5 47.5 -64.5 132.5t64.5 132.5t195.5 47.5t195.5 -47.5t64.5 -132.5t-64.5 -132.5t-195.5 -47.5t-195.5 47.5zM457 2021v248h854v-248h-854z" />
    <glyph glyph-name="uni0231" unicode="&#x231;" horiz-adv-x="1365" 
d="M352 45q-140 67 -216 195.5t-76 307.5q0 182 73 310t212.5 194t336.5 66q198 0 337.5 -66.5t212.5 -194.5t73 -308t-76 -308.5t-216.5 -195.5t-330.5 -67t-330 67zM819 365q45 55 45 183q0 129 -45 183.5t-137 54.5t-136.5 -54t-44.5 -183t44.5 -184t136.5 -55t137 55z
M418 1418q0 211 264 211t264 -211t-264 -211t-264 211zM281 1715v248h802v-248h-802z" />
    <glyph glyph-name="uni0232" unicode="&#x232;" horiz-adv-x="1445" 
d="M1492 1480l-539 -871v-609h-454v602l-562 878h479l318 -509l313 509h445zM295 1621v248h854v-248h-854z" />
    <glyph glyph-name="uni0233" unicode="&#x233;" horiz-adv-x="1331" 
d="M910 1100h434l-572 -1540h-433l166 440h-112l-406 1100h465l230 -701zM264 1295v248h802v-248h-802z" />
    <glyph glyph-name="uni0237" unicode="&#x237;" horiz-adv-x="658" 
d="M-37 -290q81 102 112.5 207.5t31.5 262.5v920h444v-904q0 -194 -70.5 -353.5t-238.5 -318.5z" />
    <glyph glyph-name="uni0259" unicode="&#x259;" horiz-adv-x="1244" 
d="M883 1061.5q154 -60.5 227.5 -186t73.5 -323.5q0 -175 -67.5 -303.5t-199.5 -197.5t-321 -69q-179 0 -301 70t-183.5 200.5t-61.5 313.5v104h694q-7 51 -37.5 79t-99 41t-192.5 13q-133 0 -295 -27v314q179 32 363 32q246 0 400 -60.5zM710.5 291q34.5 43 36.5 143h-289
q3 -100 37 -143t107 -43q74 0 108.5 43z" />
    <glyph glyph-name="uni02BB" unicode="&#x2bb;" horiz-adv-x="1200" 
d="M796.5 1436.5q41.5 -33.5 41.5 -89.5q0 -135 -238 -135t-238 177q0 61 26 127t68 111h271q-49 -85 -64 -149q92 -8 133.5 -41.5z" />
    <glyph glyph-name="uni02BC" unicode="&#x2bc;" horiz-adv-x="1200" 
d="M1076 1450q0 -60 -26.5 -126.5t-67.5 -111.5h-271q49 88 63 149q-92 8 -133 41.5t-41 89.5q0 135 238 135t238 -177z" />
    <glyph glyph-name="uni02BE" unicode="&#x2be;" horiz-adv-x="1200" 
d="M600 1352q35 0 56.5 22.5t21.5 59.5t-21.5 59.5t-56.5 22.5v138q65 0 117 -28.5t81.5 -78.5t29.5 -113t-29.5 -113t-81.5 -78.5t-117 -28.5v138z" />
    <glyph glyph-name="uni02BF" unicode="&#x2bf;" horiz-adv-x="1200" 
d="M483 1242.5q-52 28.5 -81.5 78.5t-29.5 113t29.5 113t81.5 78.5t117 28.5v-138q-35 0 -56.5 -22.5t-21.5 -59.5t21.5 -59.5t56.5 -22.5v-138q-65 0 -117 28.5z" />
    <glyph glyph-name="circumflex" unicode="&#x2c6;" horiz-adv-x="1200" 
d="M1036 1220h-314l-122 195l-122 -195h-314l262 396h348z" />
    <glyph glyph-name="caron" unicode="&#x2c7;" horiz-adv-x="1200" 
d="M722 1616h314l-262 -396h-348l-262 396h314l122 -195z" />
    <glyph glyph-name="uni02C8" unicode="&#x2c8;" horiz-adv-x="1200" 
d="M510 1218v400h180v-400h-180z" />
    <glyph glyph-name="uni02C9" unicode="&#x2c9;" horiz-adv-x="1200" 
d="M199 1295v248h802v-248h-802z" />
    <glyph glyph-name="uni02CA" unicode="&#x2ca;" horiz-adv-x="1200" 
d="M383 1220l245 396h499l-310 -396h-434z" />
    <glyph glyph-name="uni02CB" unicode="&#x2cb;" horiz-adv-x="1200" 
d="M383 1220l-310 396h499l245 -396h-434z" />
    <glyph glyph-name="uni02CC" unicode="&#x2cc;" horiz-adv-x="1200" 
d="M510 -440v400h180v-400h-180z" />
    <glyph glyph-name="breve" unicode="&#x2d8;" horiz-adv-x="1200" 
d="M289 1322q-111 96 -122 274h260q8 -79 50 -118.5t123 -39.5t123 39.5t50 118.5h260q-11 -178 -122 -274t-311 -96t-311 96z" />
    <glyph glyph-name="dotaccent" unicode="&#x2d9;" horiz-adv-x="1200" 
d="M336 1418q0 211 264 211t264 -211t-264 -211t-264 211z" />
    <glyph glyph-name="ring" unicode="&#x2da;" horiz-adv-x="1200" 
d="M483 1242.5q-52 28.5 -81.5 78.5t-29.5 113t29.5 113t81.5 78.5t117 28.5t117 -28.5t81.5 -78.5t29.5 -113t-29.5 -113t-81.5 -78.5t-117 -28.5t-117 28.5zM656.5 1374.5q21.5 22.5 21.5 59.5t-21.5 59.5t-56.5 22.5t-56.5 -22.5t-21.5 -59.5t21.5 -59.5t56.5 -22.5
t56.5 22.5z" />
    <glyph glyph-name="ogonek" unicode="&#x2db;" horiz-adv-x="1200" 
d="M121 -400q-77 60 -77 165q0 106 81.5 185t278.5 130l112 -80q-126 -45 -176 -94t-50 -110q0 -43 31.5 -68t91.5 -25q58 0 118 24v-157q-45 -15 -87 -22.5t-98 -7.5q-148 0 -225 60z" />
    <glyph glyph-name="tilde" unicode="&#x2dc;" horiz-adv-x="1200" 
d="M684 1256.5q-42 13.5 -102 39.5q-54 24 -90.5 35.5t-74.5 11.5q-62 0 -112.5 -21t-105.5 -70v258q47 45 101.5 65t126.5 20q47 0 89 -13.5t102 -39.5q54 -24 90.5 -35.5t74.5 -11.5q62 0 112.5 21t105.5 70v-258q-47 -45 -101.5 -65t-126.5 -20q-47 0 -89 13.5z" />
    <glyph glyph-name="hungarumlaut" unicode="&#x2dd;" horiz-adv-x="1200" 
d="M211 1220l158 396h338l-180 -396h-316zM673 1220l158 396h338l-180 -396h-316z" />
    <glyph glyph-name="gravecomb" unicode="&#x300;" horiz-adv-x="0" 
d="M-807 1220l-309 396h477l246 -396h-414z" />
    <glyph glyph-name="acutecomb" unicode="&#x301;" horiz-adv-x="0" 
d="M-807 1220l246 396h477l-309 -396h-414z" />
    <glyph glyph-name="uni0302" unicode="&#x302;" horiz-adv-x="0" 
d="M-164 1220h-314l-122 195l-122 -195h-314l262 396h348z" />
    <glyph glyph-name="tildecomb" unicode="&#x303;" horiz-adv-x="0" 
d="M-516 1256.5q-42 13.5 -102 39.5q-54 24 -90.5 35.5t-74.5 11.5q-62 0 -112.5 -21t-105.5 -70v258q47 45 101.5 65t126.5 20q47 0 89 -13.5t102 -39.5q54 -24 90.5 -35.5t74.5 -11.5q62 0 112.5 21t105.5 70v-258q-47 -45 -101.5 -65t-126.5 -20q-47 0 -89 13.5z" />
    <glyph glyph-name="uni0304" unicode="&#x304;" horiz-adv-x="0" 
d="M-1001 1295v248h802v-248h-802z" />
    <glyph glyph-name="uni0306" unicode="&#x306;" horiz-adv-x="0" 
d="M-911 1322q-111 96 -122 274h260q8 -79 50 -118.5t123 -39.5t123 39.5t50 118.5h260q-11 -178 -122 -274t-311 -96t-311 96z" />
    <glyph glyph-name="uni0307" unicode="&#x307;" horiz-adv-x="0" 
d="M-864 1418q0 211 264 211t264 -211t-264 -211t-264 211z" />
    <glyph glyph-name="uni0308" unicode="&#x308;" horiz-adv-x="0" 
d="M-1044 1266.5q-57 53.5 -57 151.5t57 151.5t169 53.5t169 -53.5t57 -151.5t-57 -151.5t-169 -53.5t-169 53.5zM-494 1266.5q-57 53.5 -57 151.5t57 151.5t169 53.5t169 -53.5t57 -151.5t-57 -151.5t-169 -53.5t-169 53.5z" />
    <glyph glyph-name="hookabovecomb" unicode="&#x309;" horiz-adv-x="0" 
d="M-686 1292q16 30 36.5 48.5t50.5 39.5q27 19 38.5 31t11.5 27q0 19 -20.5 27.5t-70.5 8.5q-82 0 -178 -24v152q41 12 101.5 19t110.5 7q142 0 209 -39t67 -123q0 -37 -12.5 -63t-30 -43t-46.5 -39q-37 -27 -55 -47.5t-22 -53.5h-208q2 42 18 72z" />
    <glyph glyph-name="uni030A" unicode="&#x30a;" horiz-adv-x="0" 
d="M-717 1242.5q-52 28.5 -81.5 78.5t-29.5 113t29.5 113t81.5 78.5t117 28.5t117 -28.5t81.5 -78.5t29.5 -113t-29.5 -113t-81.5 -78.5t-117 -28.5t-117 28.5zM-543.5 1374.5q21.5 22.5 21.5 59.5t-21.5 59.5t-56.5 22.5t-56.5 -22.5t-21.5 -59.5t21.5 -59.5t56.5 -22.5
t56.5 22.5z" />
    <glyph glyph-name="uni030B" unicode="&#x30b;" horiz-adv-x="0" 
d="M-989 1220l158 396h338l-180 -396h-316zM-527 1220l158 396h338l-180 -396h-316z" />
    <glyph glyph-name="uni030C" unicode="&#x30c;" horiz-adv-x="0" 
d="M-478 1616h314l-262 -396h-348l-262 396h314l122 -195z" />
    <glyph glyph-name="uni030F" unicode="&#x30f;" horiz-adv-x="0" 
d="M-989 1220l-180 396h338l158 -396h-316zM-527 1220l-180 396h338l158 -396h-316z" />
    <glyph glyph-name="uni0311" unicode="&#x311;" horiz-adv-x="0" 
d="M-911.5 1522.5q110.5 95.5 311.5 95.5q199 0 310.5 -96t122.5 -274h-260q-8 80 -50 119.5t-123 39.5q-82 0 -123.5 -39t-49.5 -120h-260q11 179 121.5 274.5z" />
    <glyph glyph-name="uni0312" unicode="&#x312;" horiz-adv-x="0" 
d="M-403.5 1436.5q41.5 -33.5 41.5 -89.5q0 -135 -238 -135t-238 177q0 61 26 127t68 111h271q-49 -85 -64 -149q92 -8 133.5 -41.5z" />
    <glyph glyph-name="uni031B" unicode="&#x31b;" horiz-adv-x="0" 
d="M-800 1480h152q94 0 139.5 34.5t45.5 116.5q0 65 -13 139h265q19 -72 19 -154q0 -163 -93 -245.5t-256 -82.5h-259v192z" />
    <glyph glyph-name="dotbelowcomb" unicode="&#x323;" horiz-adv-x="0" 
d="M-769 -447.5q-57 52.5 -57 145.5t57 145.5t169 52.5q111 0 168.5 -52.5t57.5 -145.5t-57.5 -145.5t-168.5 -52.5q-112 0 -169 52.5z" />
    <glyph glyph-name="uni0324" unicode="&#x324;" horiz-adv-x="0" 
d="M-1044 -461.5q-57 53.5 -57 152.5q0 98 57 151.5t169 53.5t169 -53.5t57 -151.5q0 -99 -57 -152.5t-169 -53.5t-169 53.5zM-494 -461.5q-57 53.5 -57 152.5q0 98 57 151.5t169 53.5t169 -53.5t57 -151.5q0 -99 -57 -152.5t-169 -53.5t-169 53.5z" />
    <glyph glyph-name="uni0326" unicode="&#x326;" horiz-adv-x="0" 
d="M-362 -281q0 -60 -26.5 -126.5t-67.5 -111.5h-271q50 87 64 149q-92 8 -133.5 41.5t-41.5 89.5q0 135 238 135t238 -177z" />
    <glyph glyph-name="uni0327" unicode="&#x327;" horiz-adv-x="0" 
d="M-358.5 -141.5q43.5 -48.5 43.5 -123.5q0 -92 -74.5 -143.5t-217.5 -51.5q-106 0 -199 31v152q37 -14 87 -21.5t90 -7.5q48 0 71.5 14t23.5 47t-24 48t-71 15h-57v202h198v-96q86 -17 129.5 -65.5z" />
    <glyph glyph-name="uni0328" unicode="&#x328;" horiz-adv-x="0" 
d="M-1079 -400q-77 60 -77 165q0 106 81.5 185t278.5 130l112 -80q-126 -45 -176 -94t-50 -110q0 -43 31.5 -68t91.5 -25q58 0 118 24v-157q-45 -15 -87 -22.5t-98 -7.5q-148 0 -225 60z" />
    <glyph glyph-name="uni032E" unicode="&#x32e;" horiz-adv-x="0" 
d="M-829.5 -440.5q-95.5 40.5 -147.5 117.5t-56 184h260q7 -132 173 -132q165 0 173 132h260q-4 -107 -56 -184t-147.5 -117.5t-229.5 -40.5t-229.5 40.5z" />
    <glyph glyph-name="uni0331" unicode="&#x331;" horiz-adv-x="0" 
d="M-1001 -421v246h802v-246h-802z" />
    <glyph glyph-name="uni0394" unicode="&#x394;" horiz-adv-x="1645" 
d="M1153 1480l482 -1480h-1625l481 1480h662zM1086 345l-266 880l-265 -880h531z" />
    <glyph glyph-name="uni03A9" unicode="&#x3a9;" horiz-adv-x="1768" 
d="M1642 543q-49 -118 -142 -206h191v-337h-704v264q123 115 182 233.5t59 264.5q0 188 -88.5 284.5t-256.5 96.5q-167 0 -255 -96.5t-88 -284.5q0 -146 58.5 -265t181.5 -233v-264h-703v337h191q-93 88 -142 206t-49 263q0 210 98.5 366.5t280.5 242t427 85.5
q246 0 428.5 -85.5t281 -242.5t98.5 -366q0 -145 -49 -263z" />
    <glyph glyph-name="uni03BC" unicode="&#x3bc;" horiz-adv-x="1361" 
d="M1255 1100v-1100h-363l-28 100h-16q-45 -57 -102 -88t-119 -31q-42 0 -83 11v-432h-444v1538h444v-604q0 -76 28.5 -107.5t85.5 -31.5q43 0 84.5 16t68.5 42v687h444z" />
    <glyph glyph-name="pi" unicode="&#x3c0;" horiz-adv-x="1618" 
d="M1563 344v-339q-50 -11 -115.5 -18.5t-123.5 -7.5q-469 0 -469 445v331h-209v-755h-444v755h-171v345h1438v-345h-170v-254q0 -65 15 -101.5t48 -51.5t92 -15q40 0 109 11z" />
    <glyph glyph-name="uni1E08" unicode="&#x1e08;" horiz-adv-x="1391" 
d="M1288 1902l-259 -316h-400l193 316h466zM666 1036.5q-114 -96.5 -114 -296.5q0 -201 110.5 -297t352.5 -96q144 0 314 39v-364q-77 -19 -169.5 -30.5t-181.5 -11.5q-50 0 -74 1v-56q97 -15 145 -62.5t48 -122.5q0 -94 -78.5 -147t-233.5 -53q-115 0 -219 31v152
q44 -14 97 -21.5t100 -7.5q59 0 87 14t28 46q0 34 -28.5 49t-86.5 15h-57v183q-312 53 -470.5 237t-158.5 498q0 240 104.5 411.5t309 262t500.5 90.5q182 0 338 -32v-363q-153 28 -299 28q-250 0 -364 -96.5z" />
    <glyph glyph-name="uni1E09" unicode="&#x1e09;" horiz-adv-x="1106" 
d="M1116 1616l-309 -396h-414l246 396h477zM140.5 859q80.5 128 237 193.5t381.5 65.5q160 0 287 -27v-339q-133 19 -232 19q-158 0 -229 -55t-71 -168t70 -168t209 -55q57 0 113 7.5t140 24.5v-338q-62 -19 -142 -30t-166 -11v-54q86 -17 129.5 -65.5t43.5 -123.5
q0 -92 -74.5 -143.5t-217.5 -51.5q-106 0 -199 31v152q37 -14 87 -21.5t90 -7.5q48 0 71.5 14t23.5 47t-24 48t-71 15h-57v175q-235 41 -357.5 181.5t-122.5 371.5q0 185 80.5 313z" />
    <glyph glyph-name="uni1E0C" unicode="&#x1e0c;" horiz-adv-x="1683" 
d="M354.5 -8.5q-128.5 6.5 -234.5 19.5v1426q116 27 270 43t296 16q459 0 689.5 -185.5t230.5 -570.5q0 -268 -110.5 -434t-333.5 -243.5t-570 -77.5q-109 0 -237.5 6.5zM959 383q93 40 138.5 127.5t45.5 232.5q0 209 -105 302.5t-323 93.5q-31 0 -71 -4t-70 -9v-779
q47 -4 142 -4q150 0 243 40zM559.5 -416.5q-64.5 47.5 -64.5 132.5t64.5 132.5t195.5 47.5t195.5 -47.5t64.5 -132.5t-64.5 -132.5t-195.5 -47.5t-195.5 47.5z" />
    <glyph glyph-name="uni1E0D" unicode="&#x1e0d;" horiz-adv-x="1393" 
d="M306.5 39q-112.5 58 -179.5 180.5t-67 306.5q0 187 76.5 320.5t222.5 203.5t352 70q54 0 132 -6v502h444v-1616h-371l-24 110h-19q-56 -61 -135.5 -95t-178.5 -34q-140 0 -252.5 58zM772.5 344.5q40.5 10.5 70.5 30.5v406q-62 10 -115 10q-116 0 -171.5 -56t-55.5 -178
q0 -120 48.5 -171.5t140.5 -51.5q42 0 82.5 10.5zM541 -447.5q-57 52.5 -57 145.5t57 145.5t169 52.5q111 0 168.5 -52.5t57.5 -145.5t-57.5 -145.5t-168.5 -52.5q-112 0 -169 52.5z" />
    <glyph glyph-name="uni1E0E" unicode="&#x1e0e;" horiz-adv-x="1683" 
d="M354.5 -8.5q-128.5 6.5 -234.5 19.5v1426q116 27 270 43t296 16q459 0 689.5 -185.5t230.5 -570.5q0 -268 -110.5 -434t-333.5 -243.5t-570 -77.5q-109 0 -237.5 6.5zM959 383q93 40 138.5 127.5t45.5 232.5q0 209 -105 302.5t-323 93.5q-31 0 -71 -4t-70 -9v-779
q47 -4 142 -4q150 0 243 40zM328 -397v248h854v-248h-854z" />
    <glyph glyph-name="uni1E0F" unicode="&#x1e0f;" horiz-adv-x="1393" 
d="M306.5 39q-112.5 58 -179.5 180.5t-67 306.5q0 187 76.5 320.5t222.5 203.5t352 70q54 0 132 -6v502h444v-1616h-371l-24 110h-19q-56 -61 -135.5 -95t-178.5 -34q-140 0 -252.5 58zM772.5 344.5q40.5 10.5 70.5 30.5v406q-62 10 -115 10q-116 0 -171.5 -56t-55.5 -178
q0 -120 48.5 -171.5t140.5 -51.5q42 0 82.5 10.5zM309 -421v246h802v-246h-802z" />
    <glyph glyph-name="uni1E14" unicode="&#x1e14;" horiz-adv-x="1405" 
d="M568 346h758v-346h-1206v1480h1196v-346h-748v-206h643v-346h-643v-236zM513 1986l-259 232h520l193 -232h-454zM313 1621v248h854v-248h-854z" />
    <glyph glyph-name="uni1E15" unicode="&#x1e15;" horiz-adv-x="1244" 
d="M1194 430h-694q7 -51 37.5 -79t99 -41t192.5 -13q133 0 295 27v-314q-179 -32 -363 -32q-246 0 -400 60.5t-227.5 186t-73.5 323.5q0 175 67.5 303.5t199.5 197.5t321 69q179 0 301 -70t183.5 -200.5t61.5 -313.5v-104zM533.5 809q-34.5 -43 -36.5 -143h289
q-3 100 -37 143t-107 43q-74 0 -108.5 -43zM239 1295v248h802v-248h-802zM440 1682l-259 316h466l193 -316h-400z" />
    <glyph glyph-name="uni1E16" unicode="&#x1e16;" horiz-adv-x="1405" 
d="M568 346h758v-346h-1206v1480h1196v-346h-748v-206h643v-346h-643v-236zM513 1986l193 232h520l-259 -232h-454zM313 1621v248h854v-248h-854z" />
    <glyph glyph-name="uni1E17" unicode="&#x1e17;" horiz-adv-x="1244" 
d="M1194 430h-694q7 -51 37.5 -79t99 -41t192.5 -13q133 0 295 27v-314q-179 -32 -363 -32q-246 0 -400 60.5t-227.5 186t-73.5 323.5q0 175 67.5 303.5t199.5 197.5t321 69q179 0 301 -70t183.5 -200.5t61.5 -313.5v-104zM533.5 809q-34.5 -43 -36.5 -143h289
q-3 100 -37 143t-107 43q-74 0 -108.5 -43zM239 1295v248h802v-248h-802zM437 1682l193 316h466l-259 -316h-400z" />
    <glyph glyph-name="uni1E1C" unicode="&#x1e1c;" horiz-adv-x="1405" 
d="M420.5 1671.5q-113.5 85.5 -134.5 230.5h263q29 -114 191 -114t191 114h263q-21 -145 -134.5 -230.5t-319.5 -85.5t-319.5 85.5zM812 0v-75q97 -15 145 -62.5t48 -122.5q0 -94 -78.5 -147t-233.5 -53q-115 0 -219 31v152q44 -14 97.5 -21.5t99.5 -7.5q59 0 87 14t28 46
q0 34 -28.5 49t-86.5 15h-57v182h-494v1480h1196v-346h-748v-206h643v-346h-643v-236h758v-346h-514z" />
    <glyph glyph-name="uni1E1D" unicode="&#x1e1d;" horiz-adv-x="1244" 
d="M329 1322q-111 96 -122 274h260q8 -79 50 -118.5t123 -39.5t123 39.5t50 118.5h260q-11 -178 -122 -274t-311 -96t-311 96zM1194 430h-694q7 -51 37.5 -79t99 -41t192.5 -13q133 0 295 27v-314q-179 -32 -363 -32h-9v-54q86 -17 129.5 -65.5t43.5 -123.5
q0 -92 -74.5 -143.5t-217.5 -51.5q-106 0 -199 31v152q37 -14 87 -21.5t90 -7.5q48 0 71.5 14t23.5 47t-24 48t-71 15h-57v173q-256 35 -375 171t-119 386q0 175 67.5 303.5t199.5 197.5t321 69q179 0 301 -70t183.5 -200.5t61.5 -313.5v-104zM533.5 809
q-34.5 -43 -36.5 -143h289q-3 100 -37 143t-107 43q-74 0 -108.5 -43z" />
    <glyph glyph-name="uni1E20" unicode="&#x1e20;" horiz-adv-x="1578" 
d="M1454 720v-702q-228 -38 -420 -38q-482 0 -719.5 189t-237.5 565q0 242 108.5 413.5t326 262t540.5 90.5q182 0 349 -33v-364q-152 30 -310 30q-197 -1 -316 -45t-172.5 -132.5t-53.5 -228.5q0 -190 111 -286.5t342 -96.5h30v376h422zM465 1621v248h854v-248h-854z" />
    <glyph glyph-name="uni1E21" unicode="&#x1e21;" horiz-adv-x="1393" 
d="M141 -414v337q107 -26 211 -39.5t189 -13.5q163 0 232.5 48.5t69.5 151.5v49h-20q-109 -117 -299 -117q-126 0 -232 61t-169 179.5t-63 284.5q0 185 78.5 317t237 203t392.5 71q132 0 272.5 -18.5t246.5 -51.5v-891q0 -214 -76 -350t-232.5 -201.5t-401.5 -65.5
q-236 0 -436 46zM843 386v393q-57 11 -114 11q-228 0 -228 -228q0 -112 49 -160t144 -48q85 0 149 32zM327 1295v248h802v-248h-802z" />
    <glyph glyph-name="uni1E24" unicode="&#x1e24;" horiz-adv-x="1687" 
d="M120 0v1480h454v-530h539v530h454v-1480h-454v560h-539v-560h-454zM648.5 -416.5q-64.5 47.5 -64.5 132.5t64.5 132.5t195.5 47.5t195.5 -47.5t64.5 -132.5t-64.5 -132.5t-195.5 -47.5t-195.5 47.5z" />
    <glyph glyph-name="uni1E25" unicode="&#x1e25;" horiz-adv-x="1371" 
d="M107 1616h444v-615h19q56 57 132.5 87t166.5 30q117 0 207 -50.5t142.5 -159t52.5 -275.5v-633h-444v605q0 77 -29.5 108.5t-90.5 31.5q-45 0 -87 -16t-69 -42v-687h-444v1616zM521 -447.5q-57 52.5 -57 145.5t57 145.5t169 52.5q111 0 168.5 -52.5t57.5 -145.5
t-57.5 -145.5t-168.5 -52.5q-112 0 -169 52.5z" />
    <glyph glyph-name="uni1E2A" unicode="&#x1e2a;" horiz-adv-x="1687" 
d="M120 0v1480h454v-530h539v530h454v-1480h-454v560h-539v-560h-454zM524.5 -365.5q-113.5 85.5 -134.5 229.5h263q29 -113 191 -113t191 113h263q-21 -144 -134.5 -229.5t-319.5 -85.5t-319.5 85.5z" />
    <glyph glyph-name="uni1E2B" unicode="&#x1e2b;" horiz-adv-x="1371" 
d="M107 1616h444v-615h19q56 57 132.5 87t166.5 30q117 0 207 -50.5t142.5 -159t52.5 -275.5v-633h-444v605q0 77 -29.5 108.5t-90.5 31.5q-45 0 -87 -16t-69 -42v-687h-444v1616zM460.5 -440.5q-95.5 40.5 -147.5 117.5t-56 184h260q7 -132 173 -132q165 0 173 132h260
q-4 -107 -56 -184t-147.5 -117.5t-229.5 -40.5t-229.5 40.5z" />
    <glyph glyph-name="uni1E2E" unicode="&#x1e2e;" horiz-adv-x="694" 
d="M120 0v1480h454v-1480h-454zM120 1986l193 232h520l-259 -232h-454zM-104.5 1616.5q-55.5 46.5 -55.5 133.5t55.5 133.5t167.5 46.5t167 -46.5t55 -133.5t-55 -133.5t-167 -46.5t-167.5 46.5zM464 1616.5q-55 46.5 -55 133.5t55 133.5t167 46.5t167.5 -46.5t55.5 -133.5
t-55.5 -133.5t-167.5 -46.5t-167 46.5z" />
    <glyph glyph-name="uni1E2F" unicode="&#x1e2f;" horiz-adv-x="658" 
d="M107 0v1100h444v-1100h-444zM-115 1266.5q-57 53.5 -57 151.5t57 151.5t169 53.5t169 -53.5t57 -151.5t-57 -151.5t-169 -53.5t-169 53.5zM435 1266.5q-57 53.5 -57 151.5t57 151.5t169 53.5t169 -53.5t57 -151.5t-57 -151.5t-169 -53.5t-169 53.5zM126 1682l193 316h466
l-259 -316h-400z" />
    <glyph glyph-name="uni1E36" unicode="&#x1e36;" horiz-adv-x="1280" 
d="M120 0v1480h454v-1118h696v-362h-1150zM499.5 -416.5q-64.5 47.5 -64.5 132.5t64.5 132.5t195.5 47.5t195.5 -47.5t64.5 -132.5t-64.5 -132.5t-195.5 -47.5t-195.5 47.5z" />
    <glyph glyph-name="uni1E37" unicode="&#x1e37;" horiz-adv-x="657" 
d="M107 0v1616h444v-1616h-444zM158 -447.5q-57 52.5 -57 145.5t57 145.5t169 52.5q111 0 168.5 -52.5t57.5 -145.5t-57.5 -145.5t-168.5 -52.5q-112 0 -169 52.5z" />
    <glyph glyph-name="uni1E3A" unicode="&#x1e3a;" horiz-adv-x="1280" 
d="M120 0v1480h454v-1118h696v-362h-1150zM268 -397v248h854v-248h-854z" />
    <glyph glyph-name="uni1E3B" unicode="&#x1e3b;" horiz-adv-x="657" 
d="M107 0v1616h444v-1616h-444zM-74 -421v246h802v-246h-802z" />
    <glyph glyph-name="uni1E42" unicode="&#x1e42;" horiz-adv-x="2066" 
d="M1388 1480h554v-1480h-424v909l-300 -689h-370l-301 653v-873h-423v1480h553l363 -810zM867.5 -416.5q-64.5 47.5 -64.5 132.5t64.5 132.5t195.5 47.5t195.5 -47.5t64.5 -132.5t-64.5 -132.5t-195.5 -47.5t-195.5 47.5z" />
    <glyph glyph-name="uni1E43" unicode="&#x1e43;" horiz-adv-x="2001" 
d="M1790 999.5q112 -118.5 112 -367.5v-632h-443v607q0 75 -29 106.5t-82 31.5q-75 0 -122 -39q2 -40 2 -63v-643h-435v607q0 76 -25.5 107t-78.5 31q-43 0 -79.5 -16t-58.5 -42v-687h-444v1100h363l28 -100h19q58 57 138.5 87.5t180.5 30.5q95 0 171.5 -33.5t128.5 -101.5
q75 69 164 102t184 33q194 0 306 -118.5zM842 -447.5q-57 52.5 -57 145.5t57 145.5t169 52.5q111 0 168.5 -52.5t57.5 -145.5t-57.5 -145.5t-168.5 -52.5q-112 0 -169 52.5z" />
    <glyph glyph-name="uni1E44" unicode="&#x1e44;" horiz-adv-x="1698" 
d="M1151 1480h427v-1480h-454l-577 833v-833h-427v1480h454l577 -833v833zM653.5 1617.5q-64.5 47.5 -64.5 132.5t64.5 132.5t195.5 47.5t195.5 -47.5t64.5 -132.5t-64.5 -132.5t-195.5 -47.5t-195.5 47.5z" />
    <glyph glyph-name="uni1E45" unicode="&#x1e45;" horiz-adv-x="1371" 
d="M107 1100h363l28 -100h19q60 57 145.5 87.5t184.5 30.5q195 0 309.5 -118.5t114.5 -366.5v-633h-444v606q0 77 -29.5 108t-90.5 31q-46 0 -87.5 -16t-68.5 -42v-687h-444v1100zM426 1418q0 211 264 211t264 -211t-264 -211t-264 211z" />
    <glyph glyph-name="uni1E46" unicode="&#x1e46;" horiz-adv-x="1698" 
d="M1151 1480h427v-1480h-454l-577 833v-833h-427v1480h454l577 -833v833zM653.5 -416.5q-64.5 47.5 -64.5 132.5t64.5 132.5t195.5 47.5t195.5 -47.5t64.5 -132.5t-64.5 -132.5t-195.5 -47.5t-195.5 47.5z" />
    <glyph glyph-name="uni1E47" unicode="&#x1e47;" horiz-adv-x="1371" 
d="M107 1100h363l28 -100h19q60 57 145.5 87.5t184.5 30.5q195 0 309.5 -118.5t114.5 -366.5v-633h-444v606q0 77 -29.5 108t-90.5 31q-46 0 -87.5 -16t-68.5 -42v-687h-444v1100zM521 -447.5q-57 52.5 -57 145.5t57 145.5t169 52.5q111 0 168.5 -52.5t57.5 -145.5
t-57.5 -145.5t-168.5 -52.5q-112 0 -169 52.5z" />
    <glyph glyph-name="uni1E48" unicode="&#x1e48;" horiz-adv-x="1698" 
d="M1151 1480h427v-1480h-454l-577 833v-833h-427v1480h454l577 -833v833zM422 -397v248h854v-248h-854z" />
    <glyph glyph-name="uni1E49" unicode="&#x1e49;" horiz-adv-x="1371" 
d="M107 1100h363l28 -100h19q60 57 145.5 87.5t184.5 30.5q195 0 309.5 -118.5t114.5 -366.5v-633h-444v606q0 77 -29.5 108t-90.5 31q-46 0 -87.5 -16t-68.5 -42v-687h-444v1100zM289 -421v246h802v-246h-802z" />
    <glyph glyph-name="uni1E4C" unicode="&#x1e4c;" horiz-adv-x="1768" 
d="M454.5 69q-181.5 89 -279.5 259.5t-98 411.5t97.5 411.5t279 259.5t430.5 89q248 0 430 -89.5t279.5 -260.5t97.5 -410t-98 -410t-280 -260.5t-429 -89.5q-248 0 -429.5 89zM1140.5 436q87.5 99 87.5 296q0 206 -88.5 308.5t-255.5 102.5t-255.5 -98t-88.5 -297
q0 -210 87 -310.5t257 -100.5q169 0 256.5 99zM657 1986l193 232h520l-259 -232h-454zM977 1595.5q-45 9.5 -110 29.5q-58 17 -99 26t-85 9q-67 0 -118.5 -16t-107.5 -51v232q48 40 103.5 58.5t132.5 18.5q53 0 99.5 -10t108.5 -30q61 -18 100.5 -27t83.5 -9q67 0 118.5 16
t107.5 51v-232q-47 -40 -102.5 -57.5t-133.5 -17.5q-53 0 -98 9.5z" />
    <glyph glyph-name="uni1E4D" unicode="&#x1e4d;" horiz-adv-x="1365" 
d="M352 45q-140 67 -216 195.5t-76 307.5q0 182 73 310t212.5 194t336.5 66q198 0 337.5 -66.5t212.5 -194.5t73 -308t-76 -308.5t-216.5 -195.5t-330.5 -67t-330 67zM819 365q45 55 45 183q0 129 -45 183.5t-137 54.5t-136.5 -54t-44.5 -183t44.5 -184t136.5 -55t137 55z
M766 1256.5q-42 13.5 -102 39.5q-54 24 -90.5 35.5t-74.5 11.5q-62 0 -112.5 -21t-105.5 -70v258q47 45 101.5 65t126.5 20q47 0 89 -13.5t102 -39.5q54 -24 90.5 -35.5t74.5 -11.5q62 0 112.5 21t105.5 70v-258q-47 -45 -101.5 -65t-126.5 -20q-47 0 -89 13.5zM479 1682
l193 316h466l-259 -316h-400z" />
    <glyph glyph-name="uni1E4E" unicode="&#x1e4e;" horiz-adv-x="1768" 
d="M454.5 69q-181.5 89 -279.5 259.5t-98 411.5t97.5 411.5t279 259.5t430.5 89q248 0 430 -89.5t279.5 -260.5t97.5 -410t-98 -410t-280 -260.5t-429 -89.5q-248 0 -429.5 89zM1140.5 436q87.5 99 87.5 296q0 206 -88.5 308.5t-255.5 102.5t-255.5 -98t-88.5 -297
q0 -210 87 -310.5t257 -100.5q169 0 256.5 99zM977 1595.5q-45 9.5 -110 29.5q-58 17 -99 26t-85 9q-67 0 -118.5 -16t-107.5 -51v232q48 40 103.5 58.5t132.5 18.5q53 0 99.5 -10t108.5 -30q61 -18 100.5 -27t83.5 -9q67 0 118.5 16t107.5 51v-232q-47 -40 -102.5 -57.5
t-133.5 -17.5q-53 0 -98 9.5zM432.5 2016.5q-55.5 46.5 -55.5 133.5t55.5 133.5t167.5 46.5t167 -46.5t55 -133.5t-55 -133.5t-167 -46.5t-167.5 46.5zM1001 2016.5q-55 46.5 -55 133.5t55 133.5t167 46.5t167.5 -46.5t55.5 -133.5t-55.5 -133.5t-167.5 -46.5t-167 46.5z
" />
    <glyph glyph-name="uni1E4F" unicode="&#x1e4f;" horiz-adv-x="1365" 
d="M352 45q-140 67 -216 195.5t-76 307.5q0 182 73 310t212.5 194t336.5 66q198 0 337.5 -66.5t212.5 -194.5t73 -308t-76 -308.5t-216.5 -195.5t-330.5 -67t-330 67zM819 365q45 55 45 183q0 129 -45 183.5t-137 54.5t-136.5 -54t-44.5 -183t44.5 -184t136.5 -55t137 55z
M766 1256.5q-42 13.5 -102 39.5q-54 24 -90.5 35.5t-74.5 11.5q-62 0 -112.5 -21t-105.5 -70v258q47 45 101.5 65t126.5 20q47 0 89 -13.5t102 -39.5q54 -24 90.5 -35.5t74.5 -11.5q62 0 112.5 21t105.5 70v-258q-47 -45 -101.5 -65t-126.5 -20q-47 0 -89 13.5zM238 1682.5
q-57 53.5 -57 151.5t57 151.5t169 53.5t169 -53.5t57 -151.5t-57 -151.5t-169 -53.5t-169 53.5zM788 1682.5q-57 53.5 -57 151.5t57 151.5t169 53.5t169 -53.5t57 -151.5t-57 -151.5t-169 -53.5t-169 53.5z" />
    <glyph glyph-name="uni1E50" unicode="&#x1e50;" horiz-adv-x="1768" 
d="M454.5 69q-181.5 89 -279.5 259.5t-98 411.5t97.5 411.5t279 259.5t430.5 89q248 0 430 -89.5t279.5 -260.5t97.5 -410t-98 -410t-280 -260.5t-429 -89.5q-248 0 -429.5 89zM1140.5 436q87.5 99 87.5 296q0 206 -88.5 308.5t-255.5 102.5t-255.5 -98t-88.5 -297
q0 -210 87 -310.5t257 -100.5q169 0 256.5 99zM657 1986l-259 232h520l193 -232h-454zM457 1621v248h854v-248h-854z" />
    <glyph glyph-name="uni1E51" unicode="&#x1e51;" horiz-adv-x="1365" 
d="M352 45q-140 67 -216 195.5t-76 307.5q0 182 73 310t212.5 194t336.5 66q198 0 337.5 -66.5t212.5 -194.5t73 -308t-76 -308.5t-216.5 -195.5t-330.5 -67t-330 67zM819 365q45 55 45 183q0 129 -45 183.5t-137 54.5t-136.5 -54t-44.5 -183t44.5 -184t136.5 -55t137 55z
M281 1295v248h802v-248h-802zM482 1682l-259 316h466l193 -316h-400z" />
    <glyph glyph-name="uni1E52" unicode="&#x1e52;" horiz-adv-x="1768" 
d="M454.5 69q-181.5 89 -279.5 259.5t-98 411.5t97.5 411.5t279 259.5t430.5 89q248 0 430 -89.5t279.5 -260.5t97.5 -410t-98 -410t-280 -260.5t-429 -89.5q-248 0 -429.5 89zM1140.5 436q87.5 99 87.5 296q0 206 -88.5 308.5t-255.5 102.5t-255.5 -98t-88.5 -297
q0 -210 87 -310.5t257 -100.5q169 0 256.5 99zM657 1986l193 232h520l-259 -232h-454zM457 1621v248h854v-248h-854z" />
    <glyph glyph-name="uni1E53" unicode="&#x1e53;" horiz-adv-x="1365" 
d="M352 45q-140 67 -216 195.5t-76 307.5q0 182 73 310t212.5 194t336.5 66q198 0 337.5 -66.5t212.5 -194.5t73 -308t-76 -308.5t-216.5 -195.5t-330.5 -67t-330 67zM819 365q45 55 45 183q0 129 -45 183.5t-137 54.5t-136.5 -54t-44.5 -183t44.5 -184t136.5 -55t137 55z
M281 1295v248h802v-248h-802zM479 1682l193 316h466l-259 -316h-400z" />
    <glyph glyph-name="uni1E5A" unicode="&#x1e5a;" horiz-adv-x="1501" 
d="M1010 0l-343 495l-102 3v-498h-445v1437q117 28 264 45.5t273 17.5q352 0 530.5 -123t178.5 -378q0 -149 -68.5 -256t-196.5 -169l404 -574h-495zM565 826q71 -9 146 -9q118 0 175.5 42t57.5 140q0 93 -60 138t-180 45q-63 0 -139 -13v-343zM588.5 -416.5
q-64.5 47.5 -64.5 132.5t64.5 132.5t195.5 47.5t195.5 -47.5t64.5 -132.5t-64.5 -132.5t-195.5 -47.5t-195.5 47.5z" />
    <glyph glyph-name="uni1E5B" unicode="&#x1e5b;" horiz-adv-x="913" 
d="M107 1100h360l35 -132h19q42 76 114.5 113t170.5 37q45 0 95 -8v-394q-47 10 -123 10q-68 0 -131 -19t-96 -53v-654h-444v1100zM160 -447.5q-57 52.5 -57 145.5t57 145.5t169 52.5q111 0 168.5 -52.5t57.5 -145.5t-57.5 -145.5t-168.5 -52.5q-112 0 -169 52.5z" />
    <glyph glyph-name="uni1E5E" unicode="&#x1e5e;" horiz-adv-x="1501" 
d="M1010 0l-343 495l-102 3v-498h-445v1437q117 28 264 45.5t273 17.5q352 0 530.5 -123t178.5 -378q0 -149 -68.5 -256t-196.5 -169l404 -574h-495zM565 826q71 -9 146 -9q118 0 175.5 42t57.5 140q0 93 -60 138t-180 45q-63 0 -139 -13v-343zM357 -397v248h854v-248h-854z
" />
    <glyph glyph-name="uni1E5F" unicode="&#x1e5f;" horiz-adv-x="913" 
d="M107 1100h360l35 -132h19q42 76 114.5 113t170.5 37q45 0 95 -8v-394q-47 10 -123 10q-68 0 -131 -19t-96 -53v-654h-444v1100zM-72 -421v246h802v-246h-802z" />
    <glyph glyph-name="uni1E60" unicode="&#x1e60;" horiz-adv-x="1296" 
d="M96 48v357q98 -32 232.5 -52t245.5 -20q124 0 172.5 26.5t48.5 76.5q0 28 -13 46.5t-48.5 33.5t-103.5 30l-138 31q-226 49 -332.5 157t-106.5 287q0 232 178.5 355.5t531.5 123.5q220 0 395 -45v-357q-72 22 -173.5 35.5t-200.5 13.5q-158 0 -220.5 -28t-62.5 -78
q0 -25 11 -41.5t39.5 -29.5t83.5 -26l138 -31q247 -53 358.5 -162.5t111.5 -287.5q0 -148 -80.5 -257t-231.5 -167.5t-358 -58.5q-260 0 -477 68zM466.5 1617.5q-64.5 47.5 -64.5 132.5t64.5 132.5t195.5 47.5t195.5 -47.5t64.5 -132.5t-64.5 -132.5t-195.5 -47.5
t-195.5 47.5z" />
    <glyph glyph-name="uni1E61" unicode="&#x1e61;" horiz-adv-x="1119" 
d="M282 -8.5q-109 13.5 -197 38.5v305q88 -25 196.5 -39.5t215.5 -14.5q90 0 126.5 14.5t36.5 41.5q0 18 -11.5 27t-45.5 14l-216 32q-175 25 -254.5 106.5t-79.5 223.5q0 179 153 278.5t461 99.5q91 0 184.5 -11.5t160.5 -29.5v-304q-68 19 -159.5 30.5t-177.5 11.5
q-122 0 -165 -16.5t-43 -43.5q0 -15 12.5 -23.5t45.5 -13.5l217 -32q166 -24 249 -99.5t83 -232.5q0 -117 -67 -201.5t-195 -129.5t-307 -45q-114 0 -223 13.5zM304 1418q0 211 264 211t264 -211t-264 -211t-264 211z" />
    <glyph glyph-name="uni1E62" unicode="&#x1e62;" horiz-adv-x="1296" 
d="M96 48v357q98 -32 232.5 -52t245.5 -20q124 0 172.5 26.5t48.5 76.5q0 28 -13 46.5t-48.5 33.5t-103.5 30l-138 31q-226 49 -332.5 157t-106.5 287q0 232 178.5 355.5t531.5 123.5q220 0 395 -45v-357q-72 22 -173.5 35.5t-200.5 13.5q-158 0 -220.5 -28t-62.5 -78
q0 -25 11 -41.5t39.5 -29.5t83.5 -26l138 -31q247 -53 358.5 -162.5t111.5 -287.5q0 -148 -80.5 -257t-231.5 -167.5t-358 -58.5q-260 0 -477 68zM466.5 -416.5q-64.5 47.5 -64.5 132.5t64.5 132.5t195.5 47.5t195.5 -47.5t64.5 -132.5t-64.5 -132.5t-195.5 -47.5
t-195.5 47.5z" />
    <glyph glyph-name="uni1E63" unicode="&#x1e63;" horiz-adv-x="1119" 
d="M282 -8.5q-109 13.5 -197 38.5v305q88 -25 196.5 -39.5t215.5 -14.5q90 0 126.5 14.5t36.5 41.5q0 18 -11.5 27t-45.5 14l-216 32q-175 25 -254.5 106.5t-79.5 223.5q0 179 153 278.5t461 99.5q91 0 184.5 -11.5t160.5 -29.5v-304q-68 19 -159.5 30.5t-177.5 11.5
q-122 0 -165 -16.5t-43 -43.5q0 -15 12.5 -23.5t45.5 -13.5l217 -32q166 -24 249 -99.5t83 -232.5q0 -117 -67 -201.5t-195 -129.5t-307 -45q-114 0 -223 13.5zM399 -447.5q-57 52.5 -57 145.5t57 145.5t169 52.5q111 0 168.5 -52.5t57.5 -145.5t-57.5 -145.5t-168.5 -52.5
q-112 0 -169 52.5z" />
    <glyph glyph-name="uni1E64" unicode="&#x1e64;" horiz-adv-x="1296" 
d="M96 48v357q98 -32 232.5 -52t245.5 -20q124 0 172.5 26.5t48.5 76.5q0 28 -13 46.5t-48.5 33.5t-103.5 30l-138 31q-226 49 -332.5 157t-106.5 287q0 232 178.5 355.5t531.5 123.5q220 0 395 -45v-357q-72 22 -173.5 35.5t-200.5 13.5q-158 0 -220.5 -28t-62.5 -78
q0 -25 11 -41.5t39.5 -29.5t83.5 -26l138 -31q247 -53 358.5 -162.5t111.5 -287.5q0 -148 -80.5 -257t-231.5 -167.5t-358 -58.5q-260 0 -477 68zM206 1900q-51 38 -51 106t51 106t156 38t156.5 -38t51.5 -106t-51 -106t-157 -38q-105 0 -156 38zM459 1586l193 316h466
l-259 -316h-400z" />
    <glyph glyph-name="uni1E65" unicode="&#x1e65;" horiz-adv-x="1119" 
d="M282 -8.5q-109 13.5 -197 38.5v305q88 -25 196.5 -39.5t215.5 -14.5q90 0 126.5 14.5t36.5 41.5q0 18 -11.5 27t-45.5 14l-216 32q-175 25 -254.5 106.5t-79.5 223.5q0 179 153 278.5t461 99.5q91 0 184.5 -11.5t160.5 -29.5v-304q-68 19 -159.5 30.5t-177.5 11.5
q-122 0 -165 -16.5t-43 -43.5q0 -15 12.5 -23.5t45.5 -13.5l217 -32q166 -24 249 -99.5t83 -232.5q0 -117 -67 -201.5t-195 -129.5t-307 -45q-114 0 -223 13.5zM182 1614q-51 38 -51 106t51 106t156 38t156.5 -38t51.5 -106t-51 -106t-157 -38q-105 0 -156 38zM361 1220
l246 396h477l-309 -396h-414z" />
    <glyph glyph-name="uni1E66" unicode="&#x1e66;" horiz-adv-x="1296" 
d="M96 48v357q98 -32 232.5 -52t245.5 -20q124 0 172.5 26.5t48.5 76.5q0 28 -13 46.5t-48.5 33.5t-103.5 30l-138 31q-226 49 -332.5 157t-106.5 287q0 232 178.5 355.5t531.5 123.5q220 0 395 -45v-357q-72 22 -173.5 35.5t-200.5 13.5q-158 0 -220.5 -28t-62.5 -78
q0 -25 11 -41.5t39.5 -29.5t83.5 -26l138 -31q247 -53 358.5 -162.5t111.5 -287.5q0 -148 -80.5 -257t-231.5 -167.5t-358 -58.5q-260 0 -477 68zM506 1980q-51 38 -51 106t51 106t156 38t156 -38t51 -106t-51 -106t-156 -38t-156 38zM807 1902h336l-297 -316h-368l-297 316
h336l145 -161z" />
    <glyph glyph-name="uni1E67" unicode="&#x1e67;" horiz-adv-x="1119" 
d="M282 -8.5q-109 13.5 -197 38.5v305q88 -25 196.5 -39.5t215.5 -14.5q90 0 126.5 14.5t36.5 41.5q0 18 -11.5 27t-45.5 14l-216 32q-175 25 -254.5 106.5t-79.5 223.5q0 179 153 278.5t461 99.5q91 0 184.5 -11.5t160.5 -29.5v-304q-68 19 -159.5 30.5t-177.5 11.5
q-122 0 -165 -16.5t-43 -43.5q0 -15 12.5 -23.5t45.5 -13.5l217 -32q166 -24 249 -99.5t83 -232.5q0 -117 -67 -201.5t-195 -129.5t-307 -45q-114 0 -223 13.5zM412 1694q-51 38 -51 106t51 106t156 38t156 -38t51 -106t-51 -106t-156 -38t-156 38zM690 1616h314l-262 -396
h-348l-262 396h314l122 -195z" />
    <glyph glyph-name="uni1E68" unicode="&#x1e68;" horiz-adv-x="1296" 
d="M96 48v357q98 -32 232.5 -52t245.5 -20q124 0 172.5 26.5t48.5 76.5q0 28 -13 46.5t-48.5 33.5t-103.5 30l-138 31q-226 49 -332.5 157t-106.5 287q0 232 178.5 355.5t531.5 123.5q220 0 395 -45v-357q-72 22 -173.5 35.5t-200.5 13.5q-158 0 -220.5 -28t-62.5 -78
q0 -25 11 -41.5t39.5 -29.5t83.5 -26l138 -31q247 -53 358.5 -162.5t111.5 -287.5q0 -148 -80.5 -257t-231.5 -167.5t-358 -58.5q-260 0 -477 68zM466.5 -416.5q-64.5 47.5 -64.5 132.5t64.5 132.5t195.5 47.5t195.5 -47.5t64.5 -132.5t-64.5 -132.5t-195.5 -47.5
t-195.5 47.5zM466.5 1617.5q-64.5 47.5 -64.5 132.5t64.5 132.5t195.5 47.5t195.5 -47.5t64.5 -132.5t-64.5 -132.5t-195.5 -47.5t-195.5 47.5z" />
    <glyph glyph-name="uni1E69" unicode="&#x1e69;" horiz-adv-x="1119" 
d="M282 -8.5q-109 13.5 -197 38.5v305q88 -25 196.5 -39.5t215.5 -14.5q90 0 126.5 14.5t36.5 41.5q0 18 -11.5 27t-45.5 14l-216 32q-175 25 -254.5 106.5t-79.5 223.5q0 179 153 278.5t461 99.5q91 0 184.5 -11.5t160.5 -29.5v-304q-68 19 -159.5 30.5t-177.5 11.5
q-122 0 -165 -16.5t-43 -43.5q0 -15 12.5 -23.5t45.5 -13.5l217 -32q166 -24 249 -99.5t83 -232.5q0 -117 -67 -201.5t-195 -129.5t-307 -45q-114 0 -223 13.5zM399 -447.5q-57 52.5 -57 145.5t57 145.5t169 52.5q111 0 168.5 -52.5t57.5 -145.5t-57.5 -145.5t-168.5 -52.5
q-112 0 -169 52.5zM304 1418q0 211 264 211t264 -211t-264 -211t-264 211z" />
    <glyph glyph-name="uni1E6C" unicode="&#x1e6c;" horiz-adv-x="1445" 
d="M495 0v1118h-478v362h1411v-362h-478v-1118h-455zM527.5 -416.5q-64.5 47.5 -64.5 132.5t64.5 132.5t195.5 47.5t195.5 -47.5t64.5 -132.5t-64.5 -132.5t-195.5 -47.5t-195.5 47.5z" />
    <glyph glyph-name="uni1E6D" unicode="&#x1e6d;" horiz-adv-x="965" 
d="M646 755v-254q0 -65 15 -101.5t48 -51.5t92 -15q40 0 109 11v-339q-50 -11 -115.5 -18.5t-123.5 -7.5q-469 0 -469 445v331h-171v345h171l82 380h362v-380h264v-345h-264zM387 -447.5q-57 52.5 -57 145.5t57 145.5t169 52.5q111 0 168.5 -52.5t57.5 -145.5t-57.5 -145.5
t-168.5 -52.5q-112 0 -169 52.5z" />
    <glyph glyph-name="uni1E6E" unicode="&#x1e6e;" horiz-adv-x="1445" 
d="M495 0v1118h-478v362h1411v-362h-478v-1118h-455zM296 -397v248h854v-248h-854z" />
    <glyph glyph-name="uni1E6F" unicode="&#x1e6f;" horiz-adv-x="965" 
d="M646 755v-254q0 -65 15 -101.5t48 -51.5t92 -15q40 0 109 11v-339q-50 -11 -115.5 -18.5t-123.5 -7.5q-469 0 -469 445v331h-171v345h171l82 380h362v-380h264v-345h-264zM155 -421v246h802v-246h-802z" />
    <glyph glyph-name="uni1E78" unicode="&#x1e78;" horiz-adv-x="1651" 
d="M286.5 154q-172.5 174 -172.5 517v809h454v-848q0 -149 65.5 -218.5t196.5 -69.5t196 69.5t65 218.5v848h447v-809q0 -342 -171.5 -516.5t-536.5 -174.5q-371 0 -543.5 174zM603 1986l193 232h520l-259 -232h-454zM923 1595.5q-45 9.5 -110 29.5q-58 17 -99 26t-85 9
q-67 0 -118.5 -16t-107.5 -51v232q48 40 103.5 58.5t132.5 18.5q53 0 99.5 -10t108.5 -30q61 -18 100.5 -27t83.5 -9q67 0 118.5 16t107.5 51v-232q-47 -40 -102.5 -57.5t-133.5 -17.5q-53 0 -98 9.5z" />
    <glyph glyph-name="uni1E79" unicode="&#x1e79;" horiz-adv-x="1361" 
d="M217 99.5q-117 118.5 -117 365.5v635h444v-606q0 -76 28.5 -107.5t85.5 -31.5q43 0 84.5 16t68.5 42v687h444v-1100h-363l-28 100h-16q-64 -58 -144 -88.5t-168 -30.5q-202 0 -319 118.5zM761 1256.5q-42 13.5 -102 39.5q-54 24 -90.5 35.5t-74.5 11.5q-62 0 -112.5 -21
t-105.5 -70v258q47 45 101.5 65t126.5 20q47 0 89 -13.5t102 -39.5q54 -24 90.5 -35.5t74.5 -11.5q62 0 112.5 21t105.5 70v-258q-47 -45 -101.5 -65t-126.5 -20q-47 0 -89 13.5zM474 1682l193 316h466l-259 -316h-400z" />
    <glyph glyph-name="uni1E7A" unicode="&#x1e7a;" horiz-adv-x="1651" 
d="M286.5 154q-172.5 174 -172.5 517v809h454v-848q0 -149 65.5 -218.5t196.5 -69.5t196 69.5t65 218.5v848h447v-809q0 -342 -171.5 -516.5t-536.5 -174.5q-371 0 -543.5 174zM403 1621v248h854v-248h-854zM378.5 2016.5q-55.5 46.5 -55.5 133.5t55.5 133.5t167.5 46.5
t167 -46.5t55 -133.5t-55 -133.5t-167 -46.5t-167.5 46.5zM947 2016.5q-55 46.5 -55 133.5t55 133.5t167 46.5t167.5 -46.5t55.5 -133.5t-55.5 -133.5t-167.5 -46.5t-167 46.5z" />
    <glyph glyph-name="uni1E7B" unicode="&#x1e7b;" horiz-adv-x="1361" 
d="M217 99.5q-117 118.5 -117 365.5v635h444v-606q0 -76 28.5 -107.5t85.5 -31.5q43 0 84.5 16t68.5 42v687h444v-1100h-363l-28 100h-16q-64 -58 -144 -88.5t-168 -30.5q-202 0 -319 118.5zM276 1295v248h802v-248h-802zM233 1682.5q-57 53.5 -57 151.5t57 151.5t169 53.5
t169 -53.5t57 -151.5t-57 -151.5t-169 -53.5t-169 53.5zM783 1682.5q-57 53.5 -57 151.5t57 151.5t169 53.5t169 -53.5t57 -151.5t-57 -151.5t-169 -53.5t-169 53.5z" />
    <glyph glyph-name="Wgrave" unicode="&#x1e80;" horiz-adv-x="2567" 
d="M2118 1480h430l-407 -1480h-577l-274 1008l-287 -1008h-576l-408 1480h458l272 -1067l299 1067h496l289 -1087zM1084 1586l-259 316h466l193 -316h-400z" />
    <glyph glyph-name="wgrave" unicode="&#x1e81;" horiz-adv-x="2020" 
d="M1571 1100h403l-293 -1100h-488l-179 699l-186 -699h-487l-295 1100h421l145 -639l164 639h488l154 -622zM804 1220l-309 396h477l246 -396h-414z" />
    <glyph glyph-name="Wacute" unicode="&#x1e82;" horiz-adv-x="2567" 
d="M2118 1480h430l-407 -1480h-577l-274 1008l-287 -1008h-576l-408 1480h458l272 -1067l299 1067h496l289 -1087zM1081 1586l193 316h466l-259 -316h-400z" />
    <glyph glyph-name="wacute" unicode="&#x1e83;" horiz-adv-x="2020" 
d="M1571 1100h403l-293 -1100h-488l-179 699l-186 -699h-487l-295 1100h421l145 -639l164 639h488l154 -622zM804 1220l246 396h477l-309 -396h-414z" />
    <glyph glyph-name="Wdieresis" unicode="&#x1e84;" horiz-adv-x="2567" 
d="M2118 1480h430l-407 -1480h-577l-274 1008l-287 -1008h-576l-408 1480h458l272 -1067l299 1067h496l289 -1087zM832.5 1616.5q-55.5 46.5 -55.5 133.5t55.5 133.5t167.5 46.5t167 -46.5t55 -133.5t-55 -133.5t-167 -46.5t-167.5 46.5zM1401 1616.5q-55 46.5 -55 133.5
t55 133.5t167 46.5t167.5 -46.5t55.5 -133.5t-55.5 -133.5t-167.5 -46.5t-167 46.5z" />
    <glyph glyph-name="wdieresis" unicode="&#x1e85;" horiz-adv-x="2020" 
d="M1571 1100h403l-293 -1100h-488l-179 699l-186 -699h-487l-295 1100h421l145 -639l164 639h488l154 -622zM567 1266.5q-57 53.5 -57 151.5t57 151.5t169 53.5t169 -53.5t57 -151.5t-57 -151.5t-169 -53.5t-169 53.5zM1117 1266.5q-57 53.5 -57 151.5t57 151.5t169 53.5
t169 -53.5t57 -151.5t-57 -151.5t-169 -53.5t-169 53.5z" />
    <glyph glyph-name="uni1E8E" unicode="&#x1e8e;" horiz-adv-x="1445" 
d="M1492 1480l-539 -871v-609h-454v602l-562 878h479l318 -509l313 509h445zM526.5 1617.5q-64.5 47.5 -64.5 132.5t64.5 132.5t195.5 47.5t195.5 -47.5t64.5 -132.5t-64.5 -132.5t-195.5 -47.5t-195.5 47.5z" />
    <glyph glyph-name="uni1E8F" unicode="&#x1e8f;" horiz-adv-x="1331" 
d="M910 1100h434l-572 -1540h-433l166 440h-112l-406 1100h465l230 -701zM401 1418q0 211 264 211t264 -211t-264 -211t-264 211z" />
    <glyph glyph-name="uni1E92" unicode="&#x1e92;" horiz-adv-x="1389" 
d="M657 362h661v-362h-1247v245l651 873h-641v362h1227v-245zM498.5 -416.5q-64.5 47.5 -64.5 132.5t64.5 132.5t195.5 47.5t195.5 -47.5t64.5 -132.5t-64.5 -132.5t-195.5 -47.5t-195.5 47.5z" />
    <glyph glyph-name="uni1E93" unicode="&#x1e93;" horiz-adv-x="1174" 
d="M653 345h464v-345h-1038v285l454 470h-444v345h1018v-285zM430 -447.5q-57 52.5 -57 145.5t57 145.5t169 52.5q111 0 168.5 -52.5t57.5 -145.5t-57.5 -145.5t-168.5 -52.5q-112 0 -169 52.5z" />
    <glyph glyph-name="uni1E97" unicode="&#x1e97;" horiz-adv-x="965" 
d="M646 755v-254q0 -65 15 -101.5t48 -51.5t92 -15q40 0 109 11v-339q-50 -11 -115.5 -18.5t-123.5 -7.5q-469 0 -469 445v331h-171v345h171l82 380h362v-380h264v-345h-264zM-20 1586.5q-57 53.5 -57 151.5t57 151.5t169 53.5t169 -53.5t57 -151.5t-57 -151.5t-169 -53.5
t-169 53.5zM530 1586.5q-57 53.5 -57 151.5t57 151.5t169 53.5t169 -53.5t57 -151.5t-57 -151.5t-169 -53.5t-169 53.5z" />
    <glyph glyph-name="uni1E9E" unicode="&#x1e9e;" horiz-adv-x="2024" 
d="M1865 749.5q106 -108.5 106 -286.5q0 -148 -77.5 -257t-224 -167.5t-348.5 -58.5q-118 0 -232 16.5t-212 46.5v357q92 -30 219 -48.5t220 -18.5q120 0 167.5 26.5t47.5 76.5q0 28 -12 47t-43 34t-89 29l-131 31q-217 49 -318.5 157.5t-101.5 286.5q0 65 13 117
q-33 9 -71 9q-100 0 -152 -57t-52 -162v-928h-454v874q0 297 164.5 461.5t493.5 164.5q189 0 339 -65q160 65 409 65q100 0 194.5 -11t169.5 -29v-357q-68 20 -162 32t-176 12q-155 0 -215 -28t-60 -78q0 -38 24 -59.5t91 -37.5l131 -31q236 -55 342 -163.5z" />
    <glyph glyph-name="uni1EA0" unicode="&#x1ea0;" horiz-adv-x="1645" 
d="M1191 0l-102 337h-537l-102 -337h-440l481 1480h662l482 -1480h-444zM655 681h330l-165 545zM626.5 -416.5q-64.5 47.5 -64.5 132.5t64.5 132.5t195.5 47.5t195.5 -47.5t64.5 -132.5t-64.5 -132.5t-195.5 -47.5t-195.5 47.5z" />
    <glyph glyph-name="uni1EA1" unicode="&#x1ea1;" horiz-adv-x="1260" 
d="M908 1068q130 -50 191 -164t61 -312v-592h-365l-30 96h-19q-97 -118 -294 -118q-128 0 -218 42.5t-136.5 118t-46.5 171.5q0 165 127 255.5t397 104.5l148 7q-12 65 -67.5 92t-177.5 27q-71 0 -159 -11.5t-161 -32.5v317q92 24 200 36.5t202 12.5q218 0 348 -50zM727 296
v152l-105 -5q-71 -4 -102.5 -27.5t-31.5 -65.5q0 -38 29 -59.5t84 -21.5q76 0 126 27zM457 -447.5q-57 52.5 -57 145.5t57 145.5t169 52.5q111 0 168.5 -52.5t57.5 -145.5t-57.5 -145.5t-168.5 -52.5q-112 0 -169 52.5z" />
    <glyph glyph-name="uni1EA2" unicode="&#x1ea2;" horiz-adv-x="1645" 
d="M1191 0l-102 337h-537l-102 -337h-440l481 1480h662l482 -1480h-444zM655 681h330l-165 545zM750 1654.5q30 24.5 83 49.5q30 14 44.5 24t14.5 22q0 30 -111 30q-99 0 -198 -20v148q46 10 111 16t121 6q152 0 224 -37t72 -111q0 -46 -29.5 -74t-84.5 -58
q-36 -21 -52.5 -34t-19.5 -30h-208q3 44 33 68.5z" />
    <glyph glyph-name="uni1EA3" unicode="&#x1ea3;" horiz-adv-x="1260" 
d="M908 1068q130 -50 191 -164t61 -312v-592h-365l-30 96h-19q-97 -118 -294 -118q-128 0 -218 42.5t-136.5 118t-46.5 171.5q0 165 127 255.5t397 104.5l148 7q-12 65 -67.5 92t-177.5 27q-71 0 -159 -11.5t-161 -32.5v317q92 24 200 36.5t202 12.5q218 0 348 -50zM727 296
v152l-105 -5q-71 -4 -102.5 -27.5t-31.5 -65.5q0 -38 29 -59.5t84 -21.5q76 0 126 27zM540 1292q16 30 36.5 48.5t50.5 39.5q27 19 38.5 31t11.5 27q0 19 -20.5 27.5t-70.5 8.5q-82 0 -178 -24v152q41 12 101.5 19t110.5 7q142 0 209 -39t67 -123q0 -37 -12.5 -63t-30 -43
t-46.5 -39q-37 -27 -55 -47.5t-22 -53.5h-208q2 42 18 72z" />
    <glyph glyph-name="uni1EA4" unicode="&#x1ea4;" horiz-adv-x="1645" 
d="M1191 0l-102 337h-537l-102 -337h-440l481 1480h662l482 -1480h-444zM655 681h330l-165 545zM1199 2064h296l-157 -236h-240zM637 1858h368l297 -272h-336l-145 139l-145 -139h-336z" />
    <glyph glyph-name="uni1EA5" unicode="&#x1ea5;" horiz-adv-x="1260" 
d="M908 1068q130 -50 191 -164t61 -312v-592h-365l-30 96h-19q-97 -118 -294 -118q-128 0 -218 42.5t-136.5 118t-46.5 171.5q0 165 127 255.5t397 104.5l148 7q-12 65 -67.5 92t-177.5 27q-71 0 -159 -11.5t-161 -32.5v317q92 24 200 36.5t202 12.5q218 0 348 -50zM727 296
v152l-105 -5q-71 -4 -102.5 -27.5t-31.5 -65.5q0 -38 29 -59.5t84 -21.5q76 0 126 27zM1064 1868h370l-258 -270h-305zM452 1616h348l262 -396h-314l-122 195l-122 -195h-314z" />
    <glyph glyph-name="uni1EA6" unicode="&#x1ea6;" horiz-adv-x="1645" 
d="M1191 0l-102 337h-537l-102 -337h-440l481 1480h662l482 -1480h-444zM655 681h330l-165 545zM1378 1828h-240l-157 236h296zM637 1858h368l297 -272h-336l-145 139l-145 -139h-336z" />
    <glyph glyph-name="uni1EA7" unicode="&#x1ea7;" horiz-adv-x="1260" 
d="M908 1068q130 -50 191 -164t61 -312v-592h-365l-30 96h-19q-97 -118 -294 -118q-128 0 -218 42.5t-136.5 118t-46.5 171.5q0 165 127 255.5t397 104.5l148 7q-12 65 -67.5 92t-177.5 27q-71 0 -159 -11.5t-161 -32.5v317q92 24 200 36.5t202 12.5q218 0 348 -50zM727 296
v152l-105 -5q-71 -4 -102.5 -27.5t-31.5 -65.5q0 -38 29 -59.5t84 -21.5q76 0 126 27zM1216 1598h-305l-259 270h370zM452 1616h348l262 -396h-314l-122 195l-122 -195h-314z" />
    <glyph glyph-name="uni1EA8" unicode="&#x1ea8;" horiz-adv-x="1645" 
d="M1191 0l-102 337h-537l-102 -337h-440l481 1480h662l482 -1480h-444zM655 681h330l-165 545zM1419 2092q72 -32 72 -96q0 -27 -16 -48t-38.5 -34.5t-59.5 -31.5q-35 -17 -52 -28t-20 -26h-209q3 37 32.5 58.5t82.5 42.5q32 14 46 22t14 19q0 25 -110 25q-103 0 -199 -18
v127q47 9 113 14.5t120 5.5q152 0 224 -32zM637 1858h368l297 -272h-336l-145 139l-145 -139h-336z" />
    <glyph glyph-name="uni1EA9" unicode="&#x1ea9;" horiz-adv-x="1260" 
d="M908 1068q130 -50 191 -164t61 -312v-592h-365l-30 96h-19q-97 -118 -294 -118q-128 0 -218 42.5t-136.5 118t-46.5 171.5q0 165 127 255.5t397 104.5l148 7q-12 65 -67.5 92t-177.5 27q-71 0 -159 -11.5t-161 -32.5v317q92 24 200 36.5t202 12.5q218 0 348 -50zM727 296
v152l-105 -5q-71 -4 -102.5 -27.5t-31.5 -65.5q0 -38 29 -59.5t84 -21.5q76 0 126 27zM1160.5 1864.5q63.5 -29.5 63.5 -96.5q0 -31 -21.5 -50.5t-62.5 -41.5q-37 -20 -57 -36.5t-25 -41.5h-188q3 45 32 69t77 45q22 10 31 15.5t9 12.5q0 15 -23 21.5t-72 6.5
q-93 0 -176 -16v122q38 9 99.5 14.5t110.5 5.5q139 0 202.5 -29.5zM452 1616h348l262 -396h-314l-122 195l-122 -195h-314z" />
    <glyph glyph-name="uni1EAA" unicode="&#x1eaa;" horiz-adv-x="1645" 
d="M1191 0l-102 337h-537l-102 -337h-440l481 1480h662l482 -1480h-444zM655 681h330l-165 545zM1160 2080.5q59 14.5 142 51.5v-170q-70 -38 -130.5 -50t-142.5 -12q-58 0 -107 7.5t-127 22.5q-57 13 -100 19.5t-86 6.5q-68 0 -127 -14.5t-142 -51.5v170q70 38 131.5 51
t141.5 13q58 0 109.5 -8t124.5 -23q61 -14 102.5 -20.5t83.5 -6.5q68 0 127 14.5zM637 1858h368l297 -272h-336l-145 139l-145 -139h-336z" />
    <glyph glyph-name="uni1EAB" unicode="&#x1eab;" horiz-adv-x="1260" 
d="M908 1068q130 -50 191 -164t61 -312v-592h-365l-30 96h-19q-97 -118 -294 -118q-128 0 -218 42.5t-136.5 118t-46.5 171.5q0 165 127 255.5t397 104.5l148 7q-12 65 -67.5 92t-177.5 27q-71 0 -159 -11.5t-161 -32.5v317q92 24 200 36.5t202 12.5q218 0 348 -50zM727 296
v152l-105 -5q-71 -4 -102.5 -27.5t-31.5 -65.5q0 -38 29 -59.5t84 -21.5q76 0 126 27zM719 1604q-45 8 -110 25q-58 15 -99 23t-85 8q-66 0 -117.5 -14t-108.5 -44v200q48 34 103.5 50t132.5 16q53 0 98 -8.5t110 -26.5q58 -15 99 -23t85 -8q66 0 117.5 14t108.5 44v-200
q-47 -34 -102.5 -49t-133.5 -15q-53 0 -98 8zM1107 1222h-336l-145 161l-145 -161h-336l297 316h368z" />
    <glyph glyph-name="uni1EAC" unicode="&#x1eac;" horiz-adv-x="1645" 
d="M1191 0l-102 337h-537l-102 -337h-440l481 1480h662l482 -1480h-444zM655 681h330l-165 545zM626.5 -416.5q-64.5 47.5 -64.5 132.5t64.5 132.5t195.5 47.5t195.5 -47.5t64.5 -132.5t-64.5 -132.5t-195.5 -47.5t-195.5 47.5zM1302 1586h-336l-145 161l-145 -161h-336
l297 316h368z" />
    <glyph glyph-name="uni1EAD" unicode="&#x1ead;" horiz-adv-x="1260" 
d="M908 1068q130 -50 191 -164t61 -312v-592h-365l-30 96h-19q-97 -118 -294 -118q-128 0 -218 42.5t-136.5 118t-46.5 171.5q0 165 127 255.5t397 104.5l148 7q-12 65 -67.5 92t-177.5 27q-71 0 -159 -11.5t-161 -32.5v317q92 24 200 36.5t202 12.5q218 0 348 -50zM727 296
v152l-105 -5q-71 -4 -102.5 -27.5t-31.5 -65.5q0 -38 29 -59.5t84 -21.5q76 0 126 27zM457 -447.5q-57 52.5 -57 145.5t57 145.5t169 52.5q111 0 168.5 -52.5t57.5 -145.5t-57.5 -145.5t-168.5 -52.5q-112 0 -169 52.5zM1062 1220h-314l-122 195l-122 -195h-314l262 396h348
z" />
    <glyph glyph-name="uni1EAE" unicode="&#x1eae;" horiz-adv-x="1645" 
d="M1191 0l-102 337h-537l-102 -337h-440l481 1480h662l482 -1480h-444zM655 681h330l-165 545zM701 1828l101 236h296l-157 -236h-240zM532 1658.5q-102 72.5 -126 199.5h222q10 -35 29.5 -57.5t58.5 -35t105 -12.5q65 0 104.5 12t61 34.5t37.5 58.5h212
q-24 -127 -126 -199.5t-289 -72.5t-289 72.5z" />
    <glyph glyph-name="uni1EAF" unicode="&#x1eaf;" horiz-adv-x="1260" 
d="M908 1068q130 -50 191 -164t61 -312v-592h-365l-30 96h-19q-97 -118 -294 -118q-128 0 -218 42.5t-136.5 118t-46.5 171.5q0 165 127 255.5t397 104.5l148 7q-12 65 -67.5 92t-177.5 27q-71 0 -159 -11.5t-161 -32.5v317q92 24 200 36.5t202 12.5q218 0 348 -50zM727 296
v152l-105 -5q-71 -4 -102.5 -27.5t-31.5 -65.5q0 -38 29 -59.5t84 -21.5q76 0 126 27zM471 1598l193 270h370l-259 -270h-304zM306.5 1317.5q-113.5 85.5 -134.5 230.5h263q29 -114 191 -114t191 114h263q-21 -145 -134.5 -230.5t-319.5 -85.5t-319.5 85.5z" />
    <glyph glyph-name="uni1EB0" unicode="&#x1eb0;" horiz-adv-x="1645" 
d="M1191 0l-102 337h-537l-102 -337h-440l481 1480h662l482 -1480h-444zM655 681h330l-165 545zM701 1828l-157 236h296l101 -236h-240zM532 1658.5q-102 72.5 -126 199.5h212q16 -36 37.5 -58.5t61 -34.5t104.5 -12q66 0 105 12.5t58.5 35t29.5 57.5h222
q-24 -127 -126 -199.5t-289 -72.5t-289 72.5z" />
    <glyph glyph-name="uni1EB1" unicode="&#x1eb1;" horiz-adv-x="1260" 
d="M908 1068q130 -50 191 -164t61 -312v-592h-365l-30 96h-19q-97 -118 -294 -118q-128 0 -218 42.5t-136.5 118t-46.5 171.5q0 165 127 255.5t397 104.5l148 7q-12 65 -67.5 92t-177.5 27q-71 0 -159 -11.5t-161 -32.5v317q92 24 200 36.5t202 12.5q218 0 348 -50zM727 296
v152l-105 -5q-71 -4 -102.5 -27.5t-31.5 -65.5q0 -38 29 -59.5t84 -21.5q76 0 126 27zM477 1598l-259 270h370l193 -270h-304zM306.5 1317.5q-113.5 85.5 -134.5 230.5h263q29 -114 191 -114t191 114h263q-21 -145 -134.5 -230.5t-319.5 -85.5t-319.5 85.5z" />
    <glyph glyph-name="uni1EB2" unicode="&#x1eb2;" horiz-adv-x="1645" 
d="M1191 0l-102 337h-537l-102 -337h-440l481 1480h662l482 -1480h-444zM655 681h330l-165 545zM750 1887.5q30 21.5 83 42.5q31 12 45 20.5t14 19.5q0 25 -111 25q-101 0 -198 -17v126q47 9 112.5 14.5t119.5 5.5q152 0 224 -32t72 -95q0 -28 -16.5 -48.5t-38 -34
t-59.5 -32.5q-35 -17 -52 -28t-20 -26h-208q3 38 33 59.5zM532 1658.5q-102 72.5 -126 199.5h222q10 -35 29.5 -57.5t58.5 -35t105 -12.5q65 0 104.5 12t61 34.5t37.5 58.5h212q-24 -127 -126 -199.5t-289 -72.5t-289 72.5z" />
    <glyph glyph-name="uni1EB3" unicode="&#x1eb3;" horiz-adv-x="1260" 
d="M908 1068q130 -50 191 -164t61 -312v-592h-365l-30 96h-19q-97 -118 -294 -118q-128 0 -218 42.5t-136.5 118t-46.5 171.5q0 165 127 255.5t397 104.5l148 7q-12 65 -67.5 92t-177.5 27q-71 0 -159 -11.5t-161 -32.5v317q92 24 200 36.5t202 12.5q218 0 348 -50zM727 296
v152l-105 -5q-71 -4 -102.5 -27.5t-31.5 -65.5q0 -38 29 -59.5t84 -21.5q76 0 126 27zM554.5 1656.5q29.5 21.5 82.5 42.5q32 14 46 22t14 19q0 25 -111 25q-101 0 -198 -17v126q47 9 112.5 14.5t119.5 5.5q152 0 224 -32t72 -96q0 -27 -16 -48t-38.5 -34.5t-59.5 -31.5
q-35 -17 -52 -28t-20 -26h-208q3 37 32.5 58.5zM306.5 1317.5q-113.5 85.5 -134.5 230.5h263q29 -114 191 -114t191 114h263q-21 -145 -134.5 -230.5t-319.5 -85.5t-319.5 85.5z" />
    <glyph glyph-name="uni1EB4" unicode="&#x1eb4;" horiz-adv-x="1645" 
d="M1191 0l-102 337h-537l-102 -337h-440l481 1480h662l482 -1480h-444zM655 681h330l-165 545zM902.5 1907q-39.5 7 -103.5 23q-47 13 -81 19.5t-67 6.5q-58 0 -111 -14.5t-134 -51.5v170q69 38 124 51t125 13q46 0 89 -8t99 -24q54 -14 85 -20t63 -6q58 0 111 14.5
t134 51.5v-170q-68 -38 -123 -50t-126 -12q-45 0 -84.5 7zM532 1658.5q-102 72.5 -126 199.5h222q10 -35 29.5 -57.5t58.5 -35t105 -12.5t105 12.5t58.5 35t29.5 57.5h222q-24 -127 -126 -199.5t-289 -72.5t-289 72.5z" />
    <glyph glyph-name="uni1EB5" unicode="&#x1eb5;" horiz-adv-x="1260" 
d="M908 1068q130 -50 191 -164t61 -312v-592h-365l-30 96h-19q-97 -118 -294 -118q-128 0 -218 42.5t-136.5 118t-46.5 171.5q0 165 127 255.5t397 104.5l148 7q-12 65 -67.5 92t-177.5 27q-71 0 -159 -11.5t-161 -32.5v317q92 24 200 36.5t202 12.5q218 0 348 -50zM727 296
v152l-105 -5q-71 -4 -102.5 -27.5t-31.5 -65.5q0 -38 29 -59.5t84 -21.5q76 0 126 27zM725 1604q-48 8 -117 25q-60 15 -104 23t-91 8q-72 0 -127 -14t-114 -44v199q50 35 109 51t142 16q56 0 104 -8.5t117 -26.5q68 -16 108.5 -23.5t86.5 -7.5q72 0 127 14t114 44v-199
q-50 -35 -108.5 -50t-142.5 -15q-56 0 -104 8zM306.5 1317.5q-113.5 85.5 -134.5 230.5h263q29 -114 191 -114t191 114h263q-21 -145 -134.5 -230.5t-319.5 -85.5t-319.5 85.5z" />
    <glyph glyph-name="uni1EB6" unicode="&#x1eb6;" horiz-adv-x="1645" 
d="M1191 0l-102 337h-537l-102 -337h-440l481 1480h662l482 -1480h-444zM655 681h330l-165 545zM626.5 -416.5q-64.5 47.5 -64.5 132.5t64.5 132.5t195.5 47.5t195.5 -47.5t64.5 -132.5t-64.5 -132.5t-195.5 -47.5t-195.5 47.5zM501.5 1671.5q-113.5 85.5 -134.5 230.5h263
q29 -114 191 -114t191 114h263q-21 -145 -134.5 -230.5t-319.5 -85.5t-319.5 85.5z" />
    <glyph glyph-name="uni1EB7" unicode="&#x1eb7;" horiz-adv-x="1260" 
d="M908 1068q130 -50 191 -164t61 -312v-592h-365l-30 96h-19q-97 -118 -294 -118q-128 0 -218 42.5t-136.5 118t-46.5 171.5q0 165 127 255.5t397 104.5l148 7q-12 65 -67.5 92t-177.5 27q-71 0 -159 -11.5t-161 -32.5v317q92 24 200 36.5t202 12.5q218 0 348 -50zM727 296
v152l-105 -5q-71 -4 -102.5 -27.5t-31.5 -65.5q0 -38 29 -59.5t84 -21.5q76 0 126 27zM457 -447.5q-57 52.5 -57 145.5t57 145.5t169 52.5q111 0 168.5 -52.5t57.5 -145.5t-57.5 -145.5t-168.5 -52.5q-112 0 -169 52.5zM315 1322q-111 96 -122 274h260q8 -79 50 -118.5
t123 -39.5t123 39.5t50 118.5h260q-11 -178 -122 -274t-311 -96t-311 96z" />
    <glyph glyph-name="uni1EB8" unicode="&#x1eb8;" horiz-adv-x="1405" 
d="M568 346h758v-346h-1206v1480h1196v-346h-748v-206h643v-346h-643v-236zM544.5 -416.5q-64.5 47.5 -64.5 132.5t64.5 132.5t195.5 47.5t195.5 -47.5t64.5 -132.5t-64.5 -132.5t-195.5 -47.5t-195.5 47.5z" />
    <glyph glyph-name="uni1EB9" unicode="&#x1eb9;" horiz-adv-x="1244" 
d="M1194 430h-694q7 -51 37.5 -79t99 -41t192.5 -13q133 0 295 27v-314q-179 -32 -363 -32q-246 0 -400 60.5t-227.5 186t-73.5 323.5q0 175 67.5 303.5t199.5 197.5t321 69q179 0 301 -70t183.5 -200.5t61.5 -313.5v-104zM533.5 809q-34.5 -43 -36.5 -143h289
q-3 100 -37 143t-107 43q-74 0 -108.5 -43zM471 -447.5q-57 52.5 -57 145.5t57 145.5t169 52.5q111 0 168.5 -52.5t57.5 -145.5t-57.5 -145.5t-168.5 -52.5q-112 0 -169 52.5z" />
    <glyph glyph-name="uni1EBA" unicode="&#x1eba;" horiz-adv-x="1405" 
d="M568 346h758v-346h-1206v1480h1196v-346h-748v-206h643v-346h-643v-236zM669 1654.5q30 24.5 83 49.5q30 14 44.5 24t14.5 22q0 30 -111 30q-99 0 -198 -20v148q46 10 111 16t121 6q152 0 224 -37t72 -111q0 -46 -29.5 -74t-84.5 -58q-36 -21 -52.5 -34t-19.5 -30h-208
q3 44 33 68.5z" />
    <glyph glyph-name="uni1EBB" unicode="&#x1ebb;" horiz-adv-x="1244" 
d="M1194 430h-694q7 -51 37.5 -79t99 -41t192.5 -13q133 0 295 27v-314q-179 -32 -363 -32q-246 0 -400 60.5t-227.5 186t-73.5 323.5q0 175 67.5 303.5t199.5 197.5t321 69q179 0 301 -70t183.5 -200.5t61.5 -313.5v-104zM533.5 809q-34.5 -43 -36.5 -143h289
q-3 100 -37 143t-107 43q-74 0 -108.5 -43zM554 1292q16 30 36.5 48.5t50.5 39.5q27 19 38.5 31t11.5 27q0 19 -20.5 27.5t-70.5 8.5q-82 0 -178 -24v152q41 12 101.5 19t110.5 7q142 0 209 -39t67 -123q0 -37 -12.5 -63t-30 -43t-46.5 -39q-37 -27 -55 -47.5t-22 -53.5
h-208q2 42 18 72z" />
    <glyph glyph-name="uni1EBC" unicode="&#x1ebc;" horiz-adv-x="1405" 
d="M568 346h758v-346h-1206v1480h1196v-346h-748v-206h643v-346h-643v-236zM833 1595.5q-45 9.5 -110 29.5q-58 17 -99 26t-85 9q-67 0 -118.5 -16t-107.5 -51v232q48 40 103.5 58.5t132.5 18.5q53 0 99.5 -10t108.5 -30q61 -18 100.5 -27t83.5 -9q67 0 118.5 16t107.5 51
v-232q-47 -40 -102.5 -57.5t-133.5 -17.5q-53 0 -98 9.5z" />
    <glyph glyph-name="uni1EBD" unicode="&#x1ebd;" horiz-adv-x="1244" 
d="M1194 430h-694q7 -51 37.5 -79t99 -41t192.5 -13q133 0 295 27v-314q-179 -32 -363 -32q-246 0 -400 60.5t-227.5 186t-73.5 323.5q0 175 67.5 303.5t199.5 197.5t321 69q179 0 301 -70t183.5 -200.5t61.5 -313.5v-104zM533.5 809q-34.5 -43 -36.5 -143h289
q-3 100 -37 143t-107 43q-74 0 -108.5 -43zM724 1256.5q-42 13.5 -102 39.5q-54 24 -90.5 35.5t-74.5 11.5q-62 0 -112.5 -21t-105.5 -70v258q47 45 101.5 65t126.5 20q47 0 89 -13.5t102 -39.5q54 -24 90.5 -35.5t74.5 -11.5q62 0 112.5 21t105.5 70v-258
q-47 -45 -101.5 -65t-126.5 -20q-47 0 -89 13.5z" />
    <glyph glyph-name="uni1EBE" unicode="&#x1ebe;" horiz-adv-x="1405" 
d="M568 346h758v-346h-1206v1480h1196v-346h-748v-206h643v-346h-643v-236zM1118 2064h296l-157 -236h-240zM556 1858h368l297 -272h-336l-145 139l-145 -139h-336z" />
    <glyph glyph-name="uni1EBF" unicode="&#x1ebf;" horiz-adv-x="1244" 
d="M1194 430h-694q7 -51 37.5 -79t99 -41t192.5 -13q133 0 295 27v-314q-179 -32 -363 -32q-246 0 -400 60.5t-227.5 186t-73.5 323.5q0 175 67.5 303.5t199.5 197.5t321 69q179 0 301 -70t183.5 -200.5t61.5 -313.5v-104zM533.5 809q-34.5 -43 -36.5 -143h289
q-3 100 -37 143t-107 43q-74 0 -108.5 -43zM1078 1868h370l-258 -270h-305zM466 1616h348l262 -396h-314l-122 195l-122 -195h-314z" />
    <glyph glyph-name="uni1EC0" unicode="&#x1ec0;" horiz-adv-x="1405" 
d="M568 346h758v-346h-1206v1480h1196v-346h-748v-206h643v-346h-643v-236zM1297 1828h-240l-157 236h296zM556 1858h368l297 -272h-336l-145 139l-145 -139h-336z" />
    <glyph glyph-name="uni1EC1" unicode="&#x1ec1;" horiz-adv-x="1244" 
d="M1194 430h-694q7 -51 37.5 -79t99 -41t192.5 -13q133 0 295 27v-314q-179 -32 -363 -32q-246 0 -400 60.5t-227.5 186t-73.5 323.5q0 175 67.5 303.5t199.5 197.5t321 69q179 0 301 -70t183.5 -200.5t61.5 -313.5v-104zM533.5 809q-34.5 -43 -36.5 -143h289
q-3 100 -37 143t-107 43q-74 0 -108.5 -43zM1230 1598h-305l-259 270h370zM466 1616h348l262 -396h-314l-122 195l-122 -195h-314z" />
    <glyph glyph-name="uni1EC2" unicode="&#x1ec2;" horiz-adv-x="1405" 
d="M568 346h758v-346h-1206v1480h1196v-346h-748v-206h643v-346h-643v-236zM1338 2092q72 -32 72 -96q0 -27 -16 -48t-38.5 -34.5t-59.5 -31.5q-35 -17 -52 -28t-20 -26h-209q3 37 32.5 58.5t82.5 42.5q32 14 46 22t14 19q0 25 -110 25q-103 0 -199 -18v127q47 9 113 14.5
t120 5.5q152 0 224 -32zM556 1858h368l297 -272h-336l-145 139l-145 -139h-336z" />
    <glyph glyph-name="uni1EC3" unicode="&#x1ec3;" horiz-adv-x="1244" 
d="M1194 430h-694q7 -51 37.5 -79t99 -41t192.5 -13q133 0 295 27v-314q-179 -32 -363 -32q-246 0 -400 60.5t-227.5 186t-73.5 323.5q0 175 67.5 303.5t199.5 197.5t321 69q179 0 301 -70t183.5 -200.5t61.5 -313.5v-104zM533.5 809q-34.5 -43 -36.5 -143h289
q-3 100 -37 143t-107 43q-74 0 -108.5 -43zM1174.5 1864.5q63.5 -29.5 63.5 -96.5q0 -31 -21.5 -50.5t-62.5 -41.5q-37 -20 -57 -36.5t-25 -41.5h-188q3 45 32 69t77 45q22 10 31 15.5t9 12.5q0 15 -23 21.5t-72 6.5q-93 0 -176 -16v122q38 9 99.5 14.5t110.5 5.5
q139 0 202.5 -29.5zM466 1616h348l262 -396h-314l-122 195l-122 -195h-314z" />
    <glyph glyph-name="uni1EC4" unicode="&#x1ec4;" horiz-adv-x="1405" 
d="M568 346h758v-346h-1206v1480h1196v-346h-748v-206h643v-346h-643v-236zM1079 2080.5q59 14.5 142 51.5v-170q-70 -38 -130.5 -50t-142.5 -12q-58 0 -107 7.5t-127 22.5q-57 13 -100 19.5t-86 6.5q-68 0 -127 -14.5t-142 -51.5v170q70 38 131.5 51t141.5 13
q58 0 109.5 -8t124.5 -23q61 -14 102.5 -20.5t83.5 -6.5q68 0 127 14.5zM556 1858h368l297 -272h-336l-145 139l-145 -139h-336z" />
    <glyph glyph-name="uni1EC5" unicode="&#x1ec5;" horiz-adv-x="1244" 
d="M1194 430h-694q7 -51 37.5 -79t99 -41t192.5 -13q133 0 295 27v-314q-179 -32 -363 -32q-246 0 -400 60.5t-227.5 186t-73.5 323.5q0 175 67.5 303.5t199.5 197.5t321 69q179 0 301 -70t183.5 -200.5t61.5 -313.5v-104zM533.5 809q-34.5 -43 -36.5 -143h289
q-3 100 -37 143t-107 43q-74 0 -108.5 -43zM733 1604q-45 8 -110 25q-58 15 -99 23t-85 8q-66 0 -117.5 -14t-108.5 -44v200q48 34 103.5 50t132.5 16q53 0 98 -8.5t110 -26.5q58 -15 99 -23t85 -8q66 0 117.5 14t108.5 44v-200q-47 -34 -102.5 -49t-133.5 -15q-53 0 -98 8z
M1121 1222h-336l-145 161l-145 -161h-336l297 316h368z" />
    <glyph glyph-name="uni1EC6" unicode="&#x1ec6;" horiz-adv-x="1405" 
d="M568 346h758v-346h-1206v1480h1196v-346h-748v-206h643v-346h-643v-236zM544.5 -416.5q-64.5 47.5 -64.5 132.5t64.5 132.5t195.5 47.5t195.5 -47.5t64.5 -132.5t-64.5 -132.5t-195.5 -47.5t-195.5 47.5zM1221 1586h-336l-145 161l-145 -161h-336l297 316h368z" />
    <glyph glyph-name="uni1EC7" unicode="&#x1ec7;" horiz-adv-x="1244" 
d="M1194 430h-694q7 -51 37.5 -79t99 -41t192.5 -13q133 0 295 27v-314q-179 -32 -363 -32q-246 0 -400 60.5t-227.5 186t-73.5 323.5q0 175 67.5 303.5t199.5 197.5t321 69q179 0 301 -70t183.5 -200.5t61.5 -313.5v-104zM533.5 809q-34.5 -43 -36.5 -143h289
q-3 100 -37 143t-107 43q-74 0 -108.5 -43zM471 -447.5q-57 52.5 -57 145.5t57 145.5t169 52.5q111 0 168.5 -52.5t57.5 -145.5t-57.5 -145.5t-168.5 -52.5q-112 0 -169 52.5zM1076 1220h-314l-122 195l-122 -195h-314l262 396h348z" />
    <glyph glyph-name="uni1EC8" unicode="&#x1ec8;" horiz-adv-x="694" 
d="M120 0v1480h454v-1480h-454zM276 1654.5q30 24.5 83 49.5q30 14 44.5 24t14.5 22q0 30 -111 30q-99 0 -198 -20v148q46 10 111 16t121 6q152 0 224 -37t72 -111q0 -46 -29.5 -74t-84.5 -58q-36 -21 -52.5 -34t-19.5 -30h-208q3 44 33 68.5z" />
    <glyph glyph-name="uni1EC9" unicode="&#x1ec9;" horiz-adv-x="658" 
d="M107 0v1100h444v-1100h-444zM243 1292q16 30 36.5 48.5t50.5 39.5q27 19 38.5 31t11.5 27q0 19 -20.5 27.5t-70.5 8.5q-82 0 -178 -24v152q41 12 101.5 19t110.5 7q142 0 209 -39t67 -123q0 -37 -12.5 -63t-30 -43t-46.5 -39q-37 -27 -55 -47.5t-22 -53.5h-208
q2 42 18 72z" />
    <glyph glyph-name="uni1ECA" unicode="&#x1eca;" horiz-adv-x="694" 
d="M120 0v1480h454v-1480h-454zM149.5 -416.5q-64.5 47.5 -64.5 132.5t64.5 132.5t195.5 47.5t195.5 -47.5t64.5 -132.5t-64.5 -132.5t-195.5 -47.5t-195.5 47.5z" />
    <glyph glyph-name="uni1ECB" unicode="&#x1ecb;" horiz-adv-x="658" 
d="M107 0v1100h444v-1100h-444zM65 1418q0 211 264 211t264 -211t-264 -211t-264 211zM160 -447.5q-57 52.5 -57 145.5t57 145.5t169 52.5q111 0 168.5 -52.5t57.5 -145.5t-57.5 -145.5t-168.5 -52.5q-112 0 -169 52.5z" />
    <glyph glyph-name="uni1ECC" unicode="&#x1ecc;" horiz-adv-x="1768" 
d="M454.5 69q-181.5 89 -279.5 259.5t-98 411.5t97.5 411.5t279 259.5t430.5 89q248 0 430 -89.5t279.5 -260.5t97.5 -410t-98 -410t-280 -260.5t-429 -89.5q-248 0 -429.5 89zM1140.5 436q87.5 99 87.5 296q0 206 -88.5 308.5t-255.5 102.5t-255.5 -98t-88.5 -297
q0 -210 87 -310.5t257 -100.5q169 0 256.5 99zM688.5 -416.5q-64.5 47.5 -64.5 132.5t64.5 132.5t195.5 47.5t195.5 -47.5t64.5 -132.5t-64.5 -132.5t-195.5 -47.5t-195.5 47.5z" />
    <glyph glyph-name="uni1ECD" unicode="&#x1ecd;" horiz-adv-x="1365" 
d="M352 45q-140 67 -216 195.5t-76 307.5q0 182 73 310t212.5 194t336.5 66q198 0 337.5 -66.5t212.5 -194.5t73 -308t-76 -308.5t-216.5 -195.5t-330.5 -67t-330 67zM819 365q45 55 45 183q0 129 -45 183.5t-137 54.5t-136.5 -54t-44.5 -183t44.5 -184t136.5 -55t137 55z
M513 -447.5q-57 52.5 -57 145.5t57 145.5t169 52.5q111 0 168.5 -52.5t57.5 -145.5t-57.5 -145.5t-168.5 -52.5q-112 0 -169 52.5z" />
    <glyph glyph-name="uni1ECE" unicode="&#x1ece;" horiz-adv-x="1768" 
d="M454.5 69q-181.5 89 -279.5 259.5t-98 411.5t97.5 411.5t279 259.5t430.5 89q248 0 430 -89.5t279.5 -260.5t97.5 -410t-98 -410t-280 -260.5t-429 -89.5q-248 0 -429.5 89zM1140.5 436q87.5 99 87.5 296q0 206 -88.5 308.5t-255.5 102.5t-255.5 -98t-88.5 -297
q0 -210 87 -310.5t257 -100.5q169 0 256.5 99zM813 1654.5q30 24.5 83 49.5q30 14 44.5 24t14.5 22q0 30 -111 30q-99 0 -198 -20v148q46 10 111 16t121 6q152 0 224 -37t72 -111q0 -46 -29.5 -74t-84.5 -58q-36 -21 -52.5 -34t-19.5 -30h-208q3 44 33 68.5z" />
    <glyph glyph-name="uni1ECF" unicode="&#x1ecf;" horiz-adv-x="1365" 
d="M352 45q-140 67 -216 195.5t-76 307.5q0 182 73 310t212.5 194t336.5 66q198 0 337.5 -66.5t212.5 -194.5t73 -308t-76 -308.5t-216.5 -195.5t-330.5 -67t-330 67zM819 365q45 55 45 183q0 129 -45 183.5t-137 54.5t-136.5 -54t-44.5 -183t44.5 -184t136.5 -55t137 55z
M596 1292q16 30 36.5 48.5t50.5 39.5q27 19 38.5 31t11.5 27q0 19 -20.5 27.5t-70.5 8.5q-82 0 -178 -24v152q41 12 101.5 19t110.5 7q142 0 209 -39t67 -123q0 -37 -12.5 -63t-30 -43t-46.5 -39q-37 -27 -55 -47.5t-22 -53.5h-208q2 42 18 72z" />
    <glyph glyph-name="uni1ED0" unicode="&#x1ed0;" horiz-adv-x="1768" 
d="M454.5 69q-181.5 89 -279.5 259.5t-98 411.5t97.5 411.5t279 259.5t430.5 89q248 0 430 -89.5t279.5 -260.5t97.5 -410t-98 -410t-280 -260.5t-429 -89.5q-248 0 -429.5 89zM1140.5 436q87.5 99 87.5 296q0 206 -88.5 308.5t-255.5 102.5t-255.5 -98t-88.5 -297
q0 -210 87 -310.5t257 -100.5q169 0 256.5 99zM1262 2064h296l-157 -236h-240zM700 1858h368l297 -272h-336l-145 139l-145 -139h-336z" />
    <glyph glyph-name="uni1ED1" unicode="&#x1ed1;" horiz-adv-x="1365" 
d="M352 45q-140 67 -216 195.5t-76 307.5q0 182 73 310t212.5 194t336.5 66q198 0 337.5 -66.5t212.5 -194.5t73 -308t-76 -308.5t-216.5 -195.5t-330.5 -67t-330 67zM819 365q45 55 45 183q0 129 -45 183.5t-137 54.5t-136.5 -54t-44.5 -183t44.5 -184t136.5 -55t137 55z
M1120 1868h370l-258 -270h-305zM508 1616h348l262 -396h-314l-122 195l-122 -195h-314z" />
    <glyph glyph-name="uni1ED2" unicode="&#x1ed2;" horiz-adv-x="1768" 
d="M454.5 69q-181.5 89 -279.5 259.5t-98 411.5t97.5 411.5t279 259.5t430.5 89q248 0 430 -89.5t279.5 -260.5t97.5 -410t-98 -410t-280 -260.5t-429 -89.5q-248 0 -429.5 89zM1140.5 436q87.5 99 87.5 296q0 206 -88.5 308.5t-255.5 102.5t-255.5 -98t-88.5 -297
q0 -210 87 -310.5t257 -100.5q169 0 256.5 99zM1441 1828h-240l-157 236h296zM700 1858h368l297 -272h-336l-145 139l-145 -139h-336z" />
    <glyph glyph-name="uni1ED3" unicode="&#x1ed3;" horiz-adv-x="1365" 
d="M352 45q-140 67 -216 195.5t-76 307.5q0 182 73 310t212.5 194t336.5 66q198 0 337.5 -66.5t212.5 -194.5t73 -308t-76 -308.5t-216.5 -195.5t-330.5 -67t-330 67zM819 365q45 55 45 183q0 129 -45 183.5t-137 54.5t-136.5 -54t-44.5 -183t44.5 -184t136.5 -55t137 55z
M1272 1598h-305l-259 270h370zM508 1616h348l262 -396h-314l-122 195l-122 -195h-314z" />
    <glyph glyph-name="uni1ED4" unicode="&#x1ed4;" horiz-adv-x="1768" 
d="M454.5 69q-181.5 89 -279.5 259.5t-98 411.5t97.5 411.5t279 259.5t430.5 89q248 0 430 -89.5t279.5 -260.5t97.5 -410t-98 -410t-280 -260.5t-429 -89.5q-248 0 -429.5 89zM1140.5 436q87.5 99 87.5 296q0 206 -88.5 308.5t-255.5 102.5t-255.5 -98t-88.5 -297
q0 -210 87 -310.5t257 -100.5q169 0 256.5 99zM1482 2092q72 -32 72 -96q0 -27 -16 -48t-38.5 -34.5t-59.5 -31.5q-35 -17 -52 -28t-20 -26h-209q3 37 32.5 58.5t82.5 42.5q32 14 46 22t14 19q0 25 -110 25q-103 0 -199 -18v127q47 9 113 14.5t120 5.5q152 0 224 -32z
M700 1858h368l297 -272h-336l-145 139l-145 -139h-336z" />
    <glyph glyph-name="uni1ED5" unicode="&#x1ed5;" horiz-adv-x="1365" 
d="M352 45q-140 67 -216 195.5t-76 307.5q0 182 73 310t212.5 194t336.5 66q198 0 337.5 -66.5t212.5 -194.5t73 -308t-76 -308.5t-216.5 -195.5t-330.5 -67t-330 67zM819 365q45 55 45 183q0 129 -45 183.5t-137 54.5t-136.5 -54t-44.5 -183t44.5 -184t136.5 -55t137 55z
M1216.5 1864.5q63.5 -29.5 63.5 -96.5q0 -31 -21.5 -50.5t-62.5 -41.5q-37 -20 -57 -36.5t-25 -41.5h-188q3 45 32 69t77 45q22 10 31 15.5t9 12.5q0 15 -23 21.5t-72 6.5q-93 0 -176 -16v122q38 9 99.5 14.5t110.5 5.5q139 0 202.5 -29.5zM508 1616h348l262 -396h-314
l-122 195l-122 -195h-314z" />
    <glyph glyph-name="uni1ED6" unicode="&#x1ed6;" horiz-adv-x="1768" 
d="M454.5 69q-181.5 89 -279.5 259.5t-98 411.5t97.5 411.5t279 259.5t430.5 89q248 0 430 -89.5t279.5 -260.5t97.5 -410t-98 -410t-280 -260.5t-429 -89.5q-248 0 -429.5 89zM1140.5 436q87.5 99 87.5 296q0 206 -88.5 308.5t-255.5 102.5t-255.5 -98t-88.5 -297
q0 -210 87 -310.5t257 -100.5q169 0 256.5 99zM1223 2080.5q59 14.5 142 51.5v-170q-70 -38 -130.5 -50t-142.5 -12q-58 0 -107 7.5t-127 22.5q-57 13 -100 19.5t-86 6.5q-68 0 -127 -14.5t-142 -51.5v170q70 38 131.5 51t141.5 13q58 0 109.5 -8t124.5 -23
q61 -14 102.5 -20.5t83.5 -6.5q68 0 127 14.5zM700 1858h368l297 -272h-336l-145 139l-145 -139h-336z" />
    <glyph glyph-name="uni1ED7" unicode="&#x1ed7;" horiz-adv-x="1365" 
d="M352 45q-140 67 -216 195.5t-76 307.5q0 182 73 310t212.5 194t336.5 66q198 0 337.5 -66.5t212.5 -194.5t73 -308t-76 -308.5t-216.5 -195.5t-330.5 -67t-330 67zM819 365q45 55 45 183q0 129 -45 183.5t-137 54.5t-136.5 -54t-44.5 -183t44.5 -184t136.5 -55t137 55z
M775 1604q-45 8 -110 25q-58 15 -99 23t-85 8q-66 0 -117.5 -14t-108.5 -44v200q48 34 103.5 50t132.5 16q53 0 98 -8.5t110 -26.5q58 -15 99 -23t85 -8q66 0 117.5 14t108.5 44v-200q-47 -34 -102.5 -49t-133.5 -15q-53 0 -98 8zM1163 1222h-336l-145 161l-145 -161h-336
l297 316h368z" />
    <glyph glyph-name="uni1ED8" unicode="&#x1ed8;" horiz-adv-x="1768" 
d="M454.5 69q-181.5 89 -279.5 259.5t-98 411.5t97.5 411.5t279 259.5t430.5 89q248 0 430 -89.5t279.5 -260.5t97.5 -410t-98 -410t-280 -260.5t-429 -89.5q-248 0 -429.5 89zM1140.5 436q87.5 99 87.5 296q0 206 -88.5 308.5t-255.5 102.5t-255.5 -98t-88.5 -297
q0 -210 87 -310.5t257 -100.5q169 0 256.5 99zM688.5 -416.5q-64.5 47.5 -64.5 132.5t64.5 132.5t195.5 47.5t195.5 -47.5t64.5 -132.5t-64.5 -132.5t-195.5 -47.5t-195.5 47.5zM1365 1586h-336l-145 161l-145 -161h-336l297 316h368z" />
    <glyph glyph-name="uni1ED9" unicode="&#x1ed9;" horiz-adv-x="1365" 
d="M352 45q-140 67 -216 195.5t-76 307.5q0 182 73 310t212.5 194t336.5 66q198 0 337.5 -66.5t212.5 -194.5t73 -308t-76 -308.5t-216.5 -195.5t-330.5 -67t-330 67zM819 365q45 55 45 183q0 129 -45 183.5t-137 54.5t-136.5 -54t-44.5 -183t44.5 -184t136.5 -55t137 55z
M513 -447.5q-57 52.5 -57 145.5t57 145.5t169 52.5q111 0 168.5 -52.5t57.5 -145.5t-57.5 -145.5t-168.5 -52.5q-112 0 -169 52.5zM1118 1220h-314l-122 195l-122 -195h-314l262 396h348z" />
    <glyph glyph-name="uni1EDA" unicode="&#x1eda;" horiz-adv-x="1768" 
d="M1635.5 1061.5q55.5 -141.5 55.5 -321.5q0 -239 -97.5 -410t-279.5 -260.5t-430 -89.5q-249 0 -430.5 89t-279 259.5t-97.5 411.5t97.5 411.5t279 259.5t430.5 89q73 0 183 -11q17 -1 67 -5t85 -4q104 0 152 35t48 121q0 59 -13 140h283q12 -41 15.5 -77t3.5 -78
q0 -135 -61 -215.5t-173 -105.5q106 -97 161.5 -238.5zM1140.5 436q87.5 99 87.5 296q0 206 -88.5 308.5t-255.5 102.5t-255.5 -98t-88.5 -297q0 -210 87 -310.5t257 -100.5q169 0 256.5 99zM681 1586l193 316h466l-259 -316h-400z" />
    <glyph glyph-name="uni1EDB" unicode="&#x1edb;" horiz-adv-x="1365" 
d="M1173 1616l-297 -396h-399l237 396h459zM1317 1046q-51 -77 -145 -109q133 -145 133 -388q0 -180 -76 -308.5t-216.5 -195.5t-330.5 -67t-330 67t-216 195.5t-76 307.5q0 182 73.5 310t216 194t347.5 66q50 0 139 -7q47 -5 76 -5q93 0 139 34.5t46 116.5q0 58 -13 139
h267q17 -73 17 -154q0 -119 -51 -196zM819 365q45 55 45 183q0 129 -45 183.5t-137 54.5t-136.5 -54t-44.5 -183t44.5 -184t136.5 -55t137 55z" />
    <glyph glyph-name="uni1EDC" unicode="&#x1edc;" horiz-adv-x="1768" 
d="M1635.5 1061.5q55.5 -141.5 55.5 -321.5q0 -239 -97.5 -410t-279.5 -260.5t-430 -89.5q-249 0 -430.5 89t-279 259.5t-97.5 411.5t97.5 411.5t279 259.5t430.5 89q73 0 183 -11q17 -1 67 -5t85 -4q104 0 152 35t48 121q0 59 -13 140h283q12 -41 15.5 -77t3.5 -78
q0 -135 -61 -215.5t-173 -105.5q106 -97 161.5 -238.5zM1140.5 436q87.5 99 87.5 296q0 206 -88.5 308.5t-255.5 102.5t-255.5 -98t-88.5 -297q0 -210 87 -310.5t257 -100.5q169 0 256.5 99zM684 1586l-259 316h466l193 -316h-400z" />
    <glyph glyph-name="uni1EDD" unicode="&#x1edd;" horiz-adv-x="1365" 
d="M1317 1046q-51 -77 -145 -109q133 -145 133 -388q0 -180 -76 -308.5t-216.5 -195.5t-330.5 -67t-330 67t-216 195.5t-76 307.5q0 182 73.5 310t216 194t347.5 66q50 0 139 -7q47 -5 76 -5q93 0 139 34.5t46 116.5q0 58 -13 139h267q17 -73 17 -154q0 -119 -51 -196z
M819 365q45 55 45 183q0 129 -45 183.5t-137 54.5t-136.5 -54t-44.5 -183t44.5 -184t136.5 -55t137 55zM470 1220l-309 396h477l246 -396h-414z" />
    <glyph glyph-name="uni1EDE" unicode="&#x1ede;" horiz-adv-x="1768" 
d="M1635.5 1061.5q55.5 -141.5 55.5 -321.5q0 -239 -97.5 -410t-279.5 -260.5t-430 -89.5q-249 0 -430.5 89t-279 259.5t-97.5 411.5t97.5 411.5t279 259.5t430.5 89q73 0 183 -11q17 -1 67 -5t85 -4q104 0 152 35t48 121q0 59 -13 140h283q12 -41 15.5 -77t3.5 -78
q0 -135 -61 -215.5t-173 -105.5q106 -97 161.5 -238.5zM1140.5 436q87.5 99 87.5 296q0 206 -88.5 308.5t-255.5 102.5t-255.5 -98t-88.5 -297q0 -210 87 -310.5t257 -100.5q169 0 256.5 99zM813 1654.5q30 24.5 83 49.5q30 14 44.5 24t14.5 22q0 30 -111 30q-99 0 -198 -20
v148q46 10 111 16t121 6q152 0 224 -37t72 -111q0 -46 -29.5 -74t-84.5 -58q-36 -21 -52.5 -34t-19.5 -30h-208q3 44 33 68.5z" />
    <glyph glyph-name="uni1EDF" unicode="&#x1edf;" horiz-adv-x="1365" 
d="M1317 1046q-51 -77 -145 -109q133 -145 133 -388q0 -180 -76 -308.5t-216.5 -195.5t-330.5 -67t-330 67t-216 195.5t-76 307.5q0 182 73.5 310t216 194t347.5 66q50 0 139 -7q47 -5 76 -5q93 0 139 34.5t46 116.5q0 58 -13 139h267q17 -73 17 -154q0 -119 -51 -196z
M819 365q45 55 45 183q0 129 -45 183.5t-137 54.5t-136.5 -54t-44.5 -183t44.5 -184t136.5 -55t137 55zM591 1292q16 30 36.5 48.5t50.5 39.5q27 19 38.5 31t11.5 27q0 19 -20.5 27.5t-70.5 8.5q-82 0 -178 -24v152q41 12 101.5 19t110.5 7q142 0 209 -39t67 -123
q0 -37 -12.5 -63t-30 -43t-46.5 -39q-37 -27 -55 -47.5t-22 -53.5h-208q2 42 18 72z" />
    <glyph glyph-name="uni1EE0" unicode="&#x1ee0;" horiz-adv-x="1768" 
d="M975 1596q-44 10 -108 29q-58 18 -97.5 26.5t-82.5 8.5q-65 0 -115.5 -16t-105.5 -51v232q47 40 101 58.5t130 18.5q52 0 97.5 -10t106.5 -30q59 -18 97.5 -27t81.5 -9q66 0 116 15.5t105 51.5v-232q-46 -40 -100 -57.5t-130 -17.5q-52 0 -96 10zM1635.5 1061.5
q55.5 -141.5 55.5 -321.5q0 -239 -97.5 -410t-279.5 -260.5t-430 -89.5q-249 0 -430.5 89t-279 259.5t-97.5 411.5t97.5 411.5t279 259.5t430.5 89q73 0 183 -11q17 -1 67 -5t85 -4q104 0 152 35t48 121q0 59 -13 140h283q12 -41 15.5 -77t3.5 -78q0 -135 -61 -215.5
t-173 -105.5q106 -97 161.5 -238.5zM1140.5 436q87.5 99 87.5 296q0 206 -88.5 308.5t-255.5 102.5t-255.5 -98t-88.5 -297q0 -210 87 -310.5t257 -100.5q169 0 256.5 99z" />
    <glyph glyph-name="uni1EE1" unicode="&#x1ee1;" horiz-adv-x="1365" 
d="M745 1256.5q-39 13.5 -94 39.5q-51 24 -84 35.5t-70 11.5q-57 0 -105 -21t-101 -70v258q46 45 97.5 65t116.5 20q45 0 85 -13.5t94 -39.5q49 -23 83 -35t71 -12q57 0 105.5 21.5t99.5 69.5v-258q-45 -45 -96.5 -65t-117.5 -20q-45 0 -84 13.5zM1317 1046
q-51 -77 -145 -109q133 -145 133 -388q0 -180 -76 -308.5t-216.5 -195.5t-330.5 -67t-330 67t-216 195.5t-76 307.5q0 182 73.5 310t216 194t347.5 66q50 0 139 -7q47 -5 76 -5q93 0 139 34.5t46 116.5q0 58 -13 139h267q17 -73 17 -154q0 -119 -51 -196zM819 365
q45 55 45 183q0 129 -45 183.5t-137 54.5t-136.5 -54t-44.5 -183t44.5 -184t136.5 -55t137 55z" />
    <glyph glyph-name="uni1EE2" unicode="&#x1ee2;" horiz-adv-x="1768" 
d="M1635.5 1061.5q55.5 -141.5 55.5 -321.5q0 -239 -97.5 -410t-279.5 -260.5t-430 -89.5q-249 0 -430.5 89t-279 259.5t-97.5 411.5t97.5 411.5t279 259.5t430.5 89q73 0 183 -11q17 -1 67 -5t85 -4q104 0 152 35t48 121q0 59 -13 140h283q12 -41 15.5 -77t3.5 -78
q0 -135 -61 -215.5t-173 -105.5q106 -97 161.5 -238.5zM1140.5 436q87.5 99 87.5 296q0 206 -88.5 308.5t-255.5 102.5t-255.5 -98t-88.5 -297q0 -210 87 -310.5t257 -100.5q169 0 256.5 99zM688.5 -416.5q-64.5 47.5 -64.5 132.5t64.5 132.5t195.5 47.5t195.5 -47.5
t64.5 -132.5t-64.5 -132.5t-195.5 -47.5t-195.5 47.5z" />
    <glyph glyph-name="uni1EE3" unicode="&#x1ee3;" horiz-adv-x="1365" 
d="M1317 1046q-51 -77 -145 -109q133 -145 133 -388q0 -180 -76 -308.5t-216.5 -195.5t-330.5 -67t-330 67t-216 195.5t-76 307.5q0 182 73.5 310t216 194t347.5 66q50 0 139 -7q47 -5 76 -5q93 0 139 34.5t46 116.5q0 58 -13 139h267q17 -73 17 -154q0 -119 -51 -196z
M819 365q45 55 45 183q0 129 -45 183.5t-137 54.5t-136.5 -54t-44.5 -183t44.5 -184t136.5 -55t137 55zM513 -447.5q-57 52.5 -57 145.5t57 145.5t169 52.5q111 0 168.5 -52.5t57.5 -145.5t-57.5 -145.5t-168.5 -52.5q-112 0 -169 52.5z" />
    <glyph glyph-name="uni1EE4" unicode="&#x1ee4;" horiz-adv-x="1651" 
d="M286.5 154q-172.5 174 -172.5 517v809h454v-848q0 -149 65.5 -218.5t196.5 -69.5t196 69.5t65 218.5v848h447v-809q0 -342 -171.5 -516.5t-536.5 -174.5q-371 0 -543.5 174zM634.5 -416.5q-64.5 47.5 -64.5 132.5t64.5 132.5t195.5 47.5t195.5 -47.5t64.5 -132.5
t-64.5 -132.5t-195.5 -47.5t-195.5 47.5z" />
    <glyph glyph-name="uni1EE5" unicode="&#x1ee5;" horiz-adv-x="1361" 
d="M217 99.5q-117 118.5 -117 365.5v635h444v-606q0 -76 28.5 -107.5t85.5 -31.5q43 0 84.5 16t68.5 42v687h444v-1100h-363l-28 100h-16q-64 -58 -144 -88.5t-168 -30.5q-202 0 -319 118.5zM508 -447.5q-57 52.5 -57 145.5t57 145.5t169 52.5q111 0 168.5 -52.5
t57.5 -145.5t-57.5 -145.5t-168.5 -52.5q-112 0 -169 52.5z" />
    <glyph glyph-name="uni1EE6" unicode="&#x1ee6;" horiz-adv-x="1651" 
d="M286.5 154q-172.5 174 -172.5 517v809h454v-848q0 -149 65.5 -218.5t196.5 -69.5t196 69.5t65 218.5v848h447v-809q0 -342 -171.5 -516.5t-536.5 -174.5q-371 0 -543.5 174zM759 1654.5q30 24.5 83 49.5q30 14 44.5 24t14.5 22q0 30 -111 30q-99 0 -198 -20v148
q46 10 111 16t121 6q152 0 224 -37t72 -111q0 -46 -29.5 -74t-84.5 -58q-36 -21 -52.5 -34t-19.5 -30h-208q3 44 33 68.5z" />
    <glyph glyph-name="uni1EE7" unicode="&#x1ee7;" horiz-adv-x="1361" 
d="M217 99.5q-117 118.5 -117 365.5v635h444v-606q0 -76 28.5 -107.5t85.5 -31.5q43 0 84.5 16t68.5 42v687h444v-1100h-363l-28 100h-16q-64 -58 -144 -88.5t-168 -30.5q-202 0 -319 118.5zM591 1292q16 30 36.5 48.5t50.5 39.5q27 19 38.5 31t11.5 27q0 19 -20.5 27.5
t-70.5 8.5q-82 0 -178 -24v152q41 12 101.5 19t110.5 7q142 0 209 -39t67 -123q0 -37 -12.5 -63t-30 -43t-46.5 -39q-37 -27 -55 -47.5t-22 -53.5h-208q2 42 18 72z" />
    <glyph glyph-name="uni1EE8" unicode="&#x1ee8;" horiz-adv-x="1654" 
d="M286.5 154q-172.5 174 -172.5 517v809h454v-848q0 -149 65.5 -218.5t196.5 -69.5t196 69.5t65 218.5v848h136q104 0 152 35t48 121q0 61 -14 140h284q19 -71 19 -155q0 -116 -46.5 -192.5t-131.5 -111.5v-646q0 -342 -171.5 -516.5t-536.5 -174.5q-371 0 -543.5 174z
M623 1586l193 316h466l-259 -316h-400z" />
    <glyph glyph-name="uni1EE9" unicode="&#x1ee9;" horiz-adv-x="1401" 
d="M1391.5 1044q-47.5 -75 -136.5 -109v-935h-363l-28 100h-16q-64 -58 -144 -88.5t-168 -30.5q-202 0 -319 118.5t-117 365.5v635h444v-606q0 -76 28.5 -107.5t85.5 -31.5q43 0 84.5 16t68.5 42v687h172q94 0 139.5 34.5t45.5 116.5q0 65 -13 139h266q11 -42 14.5 -77.5
t3.5 -76.5q0 -117 -47.5 -192zM470 1220l246 396h477l-309 -396h-414z" />
    </font>
</defs>
</svg>
