<?xml version="1.0" standalone="no"?>
<!DOCTYPE svg PUBLIC "-//W3C//DTD SVG 1.1//EN" "http://www.w3.org/Graphics/SVG/1.1/DTD/svg11.dtd" >
<svg xmlns="http://www.w3.org/2000/svg" xmlns:xlink="http://www.w3.org/1999/xlink" version="1.1">
<metadata>
Created by FontForge 20170731 at Tue Jan 31 13:40:45 2017
 By Aleksey,,,
Copyright 2012 The Encode Project Authors (impallari@gmail.com), with Reserved Font Name "Encode Sans".
</metadata>
<defs>
<font id="EncodeSansSemiExpanded-ExtraLight" horiz-adv-x="1164" >
  <font-face 
    font-family="Encode Sans Semi Expanded ExLight"
    font-weight="275"
    font-stretch="semi-expanded"
    units-per-em="2000"
    panose-1="0 0 3 5 0 0 0 0 0 0"
    ascent="1600"
    descent="-400"
    x-height="1081"
    cap-height="1480"
    bbox="-927 -461 2612 2122"
    underline-thickness="50"
    underline-position="-150"
    unicode-range="U+000D-FB02"
  />
<missing-glyph horiz-adv-x="1028" 
d="M843 1616v-2056h-652v2056h652zM685 1478h-340v-68h134v-76h-136v-68h342v68h-136v76h136v68zM549 1213h-206v-214h342v70h-136v144zM479 1143v-74h-68v74h68zM685 944h-342v-68h136v-76h-136v-68h206v144h136v68zM685 820h-68v-135h-274v-70h342v205zM685 569h-206v-115
h70v48h68v-97h-206v164h-68v-232h342v232zM685 214h-342v-233h342v233zM617 146v-97h-206v97h206zM685 -66h-342v-68h144l-144 -96v-68h342v68h-210l144 96h66v68z" />
    <glyph glyph-name="fi" unicode="fi" horiz-adv-x="1178" 
d="M340 1541q94 95 283 95q73 0 151 -13v-84q-83 15 -151 15q-148 0 -218 -68t-70 -226v-179h400v-80h-400v-1001h-89v1001h-227v80h227v173q0 192 94 287zM1009 1475q20 -20 20 -53t-20 -52t-54 -19t-54 19t-20 52t20 53t54 20t54 -20zM909 0v1081h91v-1081h-91z" />
    <glyph glyph-name="fl" unicode="fl" horiz-adv-x="1178" 
d="M340 1541q94 95 283 95q73 0 151 -13v-84q-83 15 -151 15q-148 0 -218 -68t-70 -226v-179h400v-80h-400v-1001h-89v1001h-227v80h227v173q0 192 94 287zM909 1616h90v-1616h-90v1616z" />
    <glyph glyph-name="f_j" unicode="fj" horiz-adv-x="1178" 
d="M335 1001v-1001h-89v1001h-227v80h227v173q0 192 94 287t283 95q73 0 151 -13v-84q-83 15 -151 15q-148 0 -218 -68t-70 -226v-179h400v-80h-400zM1008 1484q20 -20 20 -53t-20 -52t-54 -19t-54 19t-20 52t20 53t54 20t54 -20zM909 1081h91v-908q0 -188 -54 -336.5
t-173 -297.5l-62 44q104 134 151 272t47 312v914z" />
    <glyph glyph-name=".notdef" horiz-adv-x="1028" 
d="M843 1616v-2056h-652v2056h652zM685 1478h-340v-68h134v-76h-136v-68h342v68h-136v76h136v68zM549 1213h-206v-214h342v70h-136v144zM479 1143v-74h-68v74h68zM685 944h-342v-68h136v-76h-136v-68h206v144h136v68zM685 820h-68v-135h-274v-70h342v205zM685 569h-206v-115
h70v48h68v-97h-206v164h-68v-232h342v232zM685 214h-342v-233h342v233zM617 146v-97h-206v97h206zM685 -66h-342v-68h144l-144 -96v-68h342v68h-210l144 96h66v68z" />
    <glyph glyph-name=".null" horiz-adv-x="0" 
 />
    <glyph glyph-name="nonmarkingreturn" unicode="&#xd;" horiz-adv-x="516" 
 />
    <glyph glyph-name="NULL" horiz-adv-x="0" 
 />
    <glyph glyph-name="NULL" horiz-adv-x="0" 
 />
    <glyph glyph-name="space" unicode=" " horiz-adv-x="516" 
 />
    <glyph glyph-name="exclam" unicode="!" horiz-adv-x="482" 
d="M211 329l-18 568v583h96v-583l-17 -568h-61zM187 9q-21 20 -21 53q0 34 21 54.5t54 20.5t54 -20.5t21 -54.5q0 -33 -21 -53t-54 -20t-54 20z" />
    <glyph glyph-name="quotedbl" unicode="&#x22;" horiz-adv-x="723" 
d="M181 946l-24 670h101l-24 -670h-53zM490 946l-24 670h101l-24 -670h-53z" />
    <glyph glyph-name="numbersign" unicode="#" 
d="M1059 913h-227l-39 -346h266v-82h-276l-55 -485h-82l55 485h-298l-55 -485h-81l55 485h-217v82h227l39 346h-266v82h276l55 485h81l-55 -485h298l55 485h82l-55 -485h217v-82zM711 567l39 346h-298l-39 -346h298z" />
    <glyph glyph-name="dollar" unicode="$" horiz-adv-x="1095" 
d="M897.5 112q-106.5 -102 -306.5 -124v-228h-85v222h-26q-90 0 -186.5 15.5t-183.5 45.5v85q188 -63 372 -63q214 0 321 80.5t107 237.5q0 88 -36 146t-112 96.5t-205 67.5l-71 16q-202 45 -298.5 140.5t-96.5 252.5q0 167 105.5 269.5t309.5 121.5v227h85v-222h12
q186 0 339 -49v-85q-165 51 -341 51q-207 0 -311.5 -79t-104.5 -228q0 -88 32 -146.5t103.5 -97.5t193.5 -67l71 -16q220 -49 319.5 -143t99.5 -251q0 -173 -106.5 -275z" />
    <glyph glyph-name="percent" unicode="%" horiz-adv-x="1811" 
d="M210.5 688.5q-87.5 111.5 -87.5 349.5q0 239 86.5 349.5t239.5 110.5t239.5 -110.5t86.5 -349.5q0 -238 -87.5 -349.5t-238.5 -111.5t-238.5 111.5zM509 0l704 1480h90l-705 -1480h-89zM627.5 742q63.5 89 63.5 294t-63.5 296t-178.5 91t-178.5 -90t-63.5 -293
q0 -387 242 -387q115 0 178.5 89zM1123.5 93q-87.5 111 -87.5 349q0 239 86.5 350t239.5 111t239.5 -111t86.5 -350q0 -238 -87 -349t-239 -111q-151 0 -238.5 111zM1541 147q64 89 64 294t-64 295.5t-179 90.5q-242 0 -242 -383q0 -386 242 -386q115 0 179 89z" />
    <glyph glyph-name="ampersand" unicode="&#x26;" horiz-adv-x="1542" 
d="M1494 -20l-281 210q-70 -102 -195.5 -155t-301.5 -53q-185 0 -309.5 53t-185 147t-60.5 219q0 138 70 243t202 167q-53 67 -75.5 132.5t-22.5 144.5q0 198 127 304t381 106q147 0 261 -32v-85q-121 34 -261 34q-214 0 -314 -83.5t-100 -244.5q0 -78 24.5 -139.5
t88.5 -129t187 -160.5l456 -341q27 75 27 174q0 66 -13 138.5t-36 139.5h86q45 -129 45 -279q0 -126 -41 -225l289 -216zM1147 239l-466 349q-118 87 -192 161q-234 -105 -234 -339q0 -161 113.5 -254.5t352.5 -93.5q310 0 426 177z" />
    <glyph glyph-name="quotesingle" unicode="'" horiz-adv-x="415" 
d="M181 946l-24 670h101l-24 -670h-53z" />
    <glyph glyph-name="parenleft" unicode="(" horiz-adv-x="674" 
d="M233.5 37.5q-88.5 259.5 -88.5 550.5t88.5 550.5t272.5 477.5h106q-194 -227 -283.5 -483t-89.5 -545t89.5 -545t283.5 -483h-106q-184 218 -272.5 477.5z" />
    <glyph glyph-name="parenright" unicode=")" horiz-adv-x="674" 
d="M345.5 43q89.5 256 89.5 545t-89.5 545t-283.5 483h106q184 -218 272.5 -477.5t88.5 -550.5t-88.5 -550.5t-272.5 -477.5h-106q194 227 283.5 483z" />
    <glyph glyph-name="asterisk" unicode="*" horiz-adv-x="900" 
d="M484 1199l133 -154l109 -148l-62 -46l-110 148l-104 175l-104 -175l-109 -148l-63 46l109 148l133 154l-197 46l-189 60l24 73l187 -61l188 -79l-17 203v175h77v-175l-18 -203l188 79l187 61l24 -73l-189 -60z" />
    <glyph glyph-name="plus" unicode="+" horiz-adv-x="1088" 
d="M502 373v347h-328v80h328v347h84v-347h328v-80h-328v-347h-84z" />
    <glyph glyph-name="comma" unicode="," horiz-adv-x="442" 
d="M275.5 114q20.5 -24 20.5 -74q0 -173 -76 -344h-56q29 88 44 157t18 136h-5q-33 0 -54 21t-21 55q0 32 20 52.5t53 20.5q36 0 56.5 -24z" />
    <glyph glyph-name="hyphen" unicode="-" horiz-adv-x="868" 
d="M174 520v81h520v-81h-520z" />
    <glyph glyph-name="period" unicode="." horiz-adv-x="442" 
d="M167 9.5q-21 20.5 -21 53.5q0 34 21 54.5t54 20.5t54 -20.5t21 -54.5q0 -33 -21 -53.5t-54 -20.5t-54 20.5z" />
    <glyph glyph-name="slash" unicode="/" horiz-adv-x="590" 
d="M0 -240l500 1856h90l-500 -1856h-90z" />
    <glyph glyph-name="zero" unicode="0" horiz-adv-x="1291" 
d="M268 161q-133 179 -133 579q0 401 131.5 579.5t379.5 178.5q247 0 378.5 -178.5t131.5 -579.5q0 -400 -132.5 -579t-377.5 -179t-378 179zM870.5 127.5q91.5 62.5 142 210.5t50.5 398q0 254 -50.5 403.5t-142 212.5t-224.5 63t-224.5 -62.5t-142 -210.5t-50.5 -398
q0 -254 50.5 -403.5t142 -212.5t224.5 -63t224.5 62.5z" />
    <glyph glyph-name="one" unicode="1" horiz-adv-x="747" 
d="M481 1484h58v-1484h-90v1360l-424 -303v99z" />
    <glyph glyph-name="two" unicode="2" horiz-adv-x="1014" 
d="M941 82v-82h-868v52l455 572q125 156 176 265.5t51 215.5q0 161 -88 235.5t-267 74.5q-184 0 -345 -60v85q71 28 160.5 43t187.5 15q216 0 330 -94.5t114 -290.5q0 -86 -23.5 -164t-77.5 -167t-150 -208l-394 -492h739z" />
    <glyph glyph-name="three" unicode="3" horiz-adv-x="1035" 
d="M871.5 644.5q85.5 -95.5 85.5 -244.5q0 -200 -134 -309t-399 -109q-92 0 -186.5 15.5t-178.5 45.5v83q186 -63 367 -63q221 0 331 87t110 253q0 153 -101.5 235t-303.5 82h-185v82h76q226 0 344.5 82t118.5 243q0 139 -95 214.5t-272 75.5t-344 -56v83q160 54 348 54
q144 0 246 -43.5t155 -126t53 -197.5q0 -132 -75 -224.5t-208 -134.5q162 -32 247.5 -127.5z" />
    <glyph glyph-name="four" unicode="4" horiz-adv-x="1208" 
d="M1161 457v-80h-228v-377h-87v377h-791v52l642 1051h97l-625 -1023h677l15 523h72v-523h228z" />
    <glyph glyph-name="five" unicode="5" horiz-adv-x="1049" 
d="M725 772q135 -50 197 -138.5t62 -221.5q0 -210 -135.5 -320t-396.5 -110q-93 0 -188 16t-178 45v83q89 -30 183.5 -46t184.5 -16q440 0 440 347q0 111 -53 181.5t-173 110t-323 50.5l-195 12l51 715h722v-80h-639l-40 -558l127 -7q219 -13 354 -63z" />
    <glyph glyph-name="six" unicode="6" horiz-adv-x="1177" 
d="M980 725q127 -108 127 -318q0 -138 -56.5 -233.5t-156.5 -143.5t-231 -48q-250 0 -385 169.5t-135 541.5q0 805 621 805q166 0 276 -45v-83q-58 23 -131 34.5t-143 11.5q-265 0 -397.5 -171t-133.5 -532q74 56 179.5 88t213.5 32q225 0 352 -108zM921.5 148
q96.5 85 96.5 256q0 176 -103.5 262.5t-295.5 86.5q-100 0 -205 -32t-178 -95q10 -300 118.5 -431.5t308.5 -131.5q162 0 258.5 85z" />
    <glyph glyph-name="seven" unicode="7" horiz-adv-x="957" 
d="M14 1480h883v-52l-611 -1428h-98l601 1398h-775v82z" />
    <glyph glyph-name="eight" unicode="8" horiz-adv-x="1291" 
d="M1096 596.5q78 -88.5 78 -221.5q0 -121 -60.5 -209.5t-177 -136t-280.5 -47.5q-261 0 -400 101.5t-139 291.5q0 141 77.5 243t219.5 156q-127 57 -185 142t-58 205q0 116 56.5 201t162.5 130.5t252 45.5q148 0 255.5 -45t164.5 -129t57 -199q0 -134 -70 -230.5
t-205 -154.5q174 -55 252 -143.5zM304 965.5q40 -64.5 132.5 -110t251.5 -76.5l54 -12q153 60 221.5 143.5t68.5 210.5q0 144 -102.5 220.5t-289.5 76.5q-183 0 -279.5 -77.5t-96.5 -216.5q0 -94 40 -158.5zM971.5 141q109.5 79 109.5 228q0 91 -41 152.5t-131 103.5
t-245 74q-92 19 -160 40q-143 -45 -219.5 -139t-76.5 -219q0 -156 114.5 -237.5t334.5 -81.5q205 0 314.5 79z" />
    <glyph glyph-name="nine" unicode="9" horiz-adv-x="1177" 
d="M899 1328.5q135 -169.5 135 -541.5q0 -805 -621 -805q-166 0 -276 45v83q58 -23 131 -34.5t143 -11.5q265 0 397.5 171t133.5 532q-74 -56 -179.5 -88t-213.5 -32q-225 0 -352 108t-127 318q0 138 56.5 233.5t156.5 143.5t231 48q250 0 385 -169.5zM262.5 813.5
q103.5 -86.5 295.5 -86.5q100 0 205 32t178 95q-10 300 -118.5 431.5t-308.5 131.5q-162 0 -258.5 -85t-96.5 -256q0 -176 103.5 -262.5z" />
    <glyph glyph-name="colon" unicode=":" horiz-adv-x="442" 
d="M167 9.5q-21 20.5 -21 53.5q0 34 21 54.5t54 20.5t54 -20.5t21 -54.5q0 -33 -21 -53.5t-54 -20.5t-54 20.5zM167 962.5q-21 20.5 -21 53.5q0 34 21 54.5t54 20.5t54 -20.5t21 -54.5q0 -33 -21 -53.5t-54 -20.5t-54 20.5z" />
    <glyph glyph-name="semicolon" unicode=";" horiz-adv-x="442" 
d="M275.5 114q20.5 -24 20.5 -74q0 -173 -76 -344h-56q29 88 44 157t18 136h-5q-33 0 -54 21t-21 55q0 32 20 52.5t53 20.5q36 0 56.5 -24zM167 962.5q-21 20.5 -21 53.5q0 34 21 54.5t54 20.5t54 -20.5t21 -54.5q0 -33 -21 -53.5t-54 -20.5t-54 20.5z" />
    <glyph glyph-name="less" unicode="&#x3c;" horiz-adv-x="1088" 
d="M914 1125v-87l-637 -278l637 -278v-87l-740 328v74z" />
    <glyph glyph-name="equal" unicode="=" horiz-adv-x="1088" 
d="M174 906v79h740v-79h-740zM174 535v79h740v-79h-740z" />
    <glyph glyph-name="greater" unicode="&#x3e;" horiz-adv-x="1088" 
d="M174 1125l740 -328v-74l-740 -328v87l637 278l-637 278v87z" />
    <glyph glyph-name="question" unicode="?" horiz-adv-x="911" 
d="M370 736q146 48 229.5 102.5t120 123.5t36.5 165q0 139 -95 214t-273 75t-343 -56v84q160 54 348 54q144 0 246 -43.5t155 -126t53 -198.5q0 -110 -37 -190t-121.5 -142.5t-230.5 -117.5l-11 -366h-61zM362 9.5q-21 20.5 -21 52.5q0 34 21 54.5t54 20.5t54 -20.5
t21 -54.5q0 -32 -20.5 -52.5t-54.5 -20.5q-33 0 -54 20.5z" />
    <glyph glyph-name="at" unicode="@" horiz-adv-x="1974" 
d="M1461 1393q191 -105 289.5 -312.5t98.5 -512.5q0 -201 -43.5 -331.5t-119 -191.5t-172.5 -61q-88 0 -142.5 38t-73.5 106h-10q-60 -66 -154 -105t-199 -39q-156 0 -244.5 75.5t-88.5 210.5q0 136 89 210.5t280 96.5l317 39v119q0 108 -35.5 169.5t-102 86t-170.5 24.5
q-69 0 -149 -13t-159 -41v83q67 25 150.5 38.5t161.5 13.5q130 0 216 -34t131.5 -113.5t45.5 -213.5v-492q0 -99 36 -141t111 -42q68 0 123 50.5t88 161.5t33 284q-1 864 -775 864q-781 0 -781 -896q0 -466 205 -686t621 -220q100 0 195.5 14t201.5 44v-80
q-91 -27 -193 -41.5t-204 -14.5q-451 1 -682 244t-231 736q0 488 223.5 733t644.5 245q277 0 468 -105zM1131 103.5q89 39.5 157 120.5v317l-315 -39q-144 -17 -209.5 -71.5t-65.5 -152.5q0 -104 61.5 -159t185.5 -55q97 0 186 39.5z" />
    <glyph glyph-name="A" unicode="A" horiz-adv-x="1379" 
d="M1241 0l-204 516h-698l-204 -516h-95l589 1480h120l589 -1480h-97zM372 599h632l-316 800z" />
    <glyph glyph-name="B" unicode="B" horiz-adv-x="1289" 
d="M1125.5 641q78.5 -95 78.5 -242q0 -137 -64.5 -227.5t-205 -136.5t-368.5 -46q-96 0 -180.5 5.5t-187.5 18.5v1443q99 20 192.5 29t211.5 9q291 0 425 -95.5t134 -292.5q0 -132 -67 -221t-210 -121q163 -28 241.5 -123zM288 1388v-587h365q216 0 317.5 73.5t101.5 229.5
q0 111 -47 178.5t-149 99t-270 31.5q-182 0 -318 -25zM896 107q118 36 168 108.5t50 187.5q0 163 -107.5 240t-332.5 77h-386v-631q64 -10 131 -14t156 -4q203 0 321 36z" />
    <glyph glyph-name="C" unicode="C" horiz-adv-x="1198" 
d="M125 738q0 390 177 575t502 185q94 0 178 -12t170 -37v-86q-169 51 -348 51q-287 0 -435 -158.5t-148 -513.5q0 -249 69 -398.5t194.5 -213.5t306.5 -64q94 0 178.5 14.5t182.5 48.5v-86q-167 -61 -365 -61q-662 0 -662 756z" />
    <glyph glyph-name="D" unicode="D" horiz-adv-x="1450" 
d="M382 -5q-81 5 -184 18v1443q90 19 189 28.5t192 9.5q370 0 558 -188t188 -566q0 -380 -192 -565t-575 -185q-95 0 -176 5zM1066 234.5q164 161.5 164 505.5q0 343 -162 507t-492 164q-128 0 -287 -25v-1295q119 -18 278 -18q335 0 499 161.5z" />
    <glyph glyph-name="E" unicode="E" horiz-adv-x="1212" 
d="M288 83h834v-83h-924v1480h914v-83h-824v-595h726v-83h-726v-636z" />
    <glyph glyph-name="F" unicode="F" horiz-adv-x="1168" 
d="M1103 1396h-814v-597h716v-83h-716v-716h-91v1480h905v-84z" />
    <glyph glyph-name="G" unicode="G" horiz-adv-x="1410" 
d="M1229 720v-702q-101 -16 -179.5 -22.5t-166.5 -6.5q-375 0 -566 184.5t-192 564.5q0 262 89.5 431.5t248.5 249t373 79.5q90 0 176 -12.5t182 -37.5v-85q-101 28 -185 39.5t-169 11.5q-290 0 -455 -160.5t-165 -510.5q0 -344 164.5 -507t496.5 -163q141 0 260 19v628h88z
" />
    <glyph glyph-name="H" unicode="H" horiz-adv-x="1498" 
d="M198 0v1480h91v-677h921v677h90v-1480h-90v718h-921v-718h-91z" />
    <glyph glyph-name="I" unicode="I" horiz-adv-x="487" 
d="M198 0v1480h91v-1480h-91z" />
    <glyph glyph-name="J" unicode="J" horiz-adv-x="487" 
d="M0 -296q104 133 151 271t47 312v1193h91v-1224q-9 -177 -60.5 -315t-166.5 -282z" />
    <glyph glyph-name="K" unicode="K" horiz-adv-x="1267" 
d="M1157 0l-591 718h-277v-718h-91v1480h91v-677h280l548 677h107l-583 -718l626 -762h-110z" />
    <glyph glyph-name="L" unicode="L" horiz-adv-x="1106" 
d="M198 0v1480h91v-1396h800v-84h-891z" />
    <glyph glyph-name="M" unicode="M" horiz-adv-x="1796" 
d="M1492 1480h102v-1480h-87v1323l-563 -1122h-92l-563 1117v-1318h-87v1480h103l595 -1191z" />
    <glyph glyph-name="N" unicode="N" horiz-adv-x="1527" 
d="M1242 1480h87v-1480h-97l-947 1343v-1343h-87v1480h97l947 -1345v1345z" />
    <glyph glyph-name="O" unicode="O" horiz-adv-x="1487" 
d="M416 61.5q-138 79.5 -214.5 248.5t-76.5 430q0 260 77 429.5t215.5 249t325.5 79.5q289 0 454 -185.5t165 -572.5q0 -260 -77 -429.5t-215.5 -249t-326.5 -79.5q-189 0 -327 79.5zM1129 226q138 159 138 510q0 677 -524 677q-247 0 -385 -159t-138 -510q0 -677 523 -677
q248 0 386 159z" />
    <glyph glyph-name="P" unicode="P" horiz-adv-x="1261" 
d="M198 1457q99 19 188 28t189 9q289 0 437 -119.5t148 -369.5q0 -244 -152.5 -369.5t-477.5 -125.5q-112 0 -241 12v-522h-91v1457zM839 637.5q118 45.5 173 136t55 228.5q0 212 -121 311.5t-369 99.5q-154 0 -288 -25v-781q116 -15 242 -15q190 0 308 45.5z" />
    <glyph glyph-name="Q" unicode="Q" horiz-adv-x="1487" 
d="M1206 176.5q-156 -190.5 -454 -188.5q119 -37 270.5 -61t310.5 -36l-13 -83q-464 45 -721.5 149t-365.5 289.5t-108 492.5q0 261 77 430.5t215.5 249t325.5 79.5q289 0 454 -183.5t165 -574.5q0 -373 -156 -563.5zM743 67q248 0 386 159t138 510q0 677 -524 677
q-247 0 -385 -159t-138 -510q0 -677 523 -677z" />
    <glyph glyph-name="R" unicode="R" horiz-adv-x="1348" 
d="M1161 0l-519 644q-47 -3 -98 -3q-70 0 -125.5 3t-130.5 9v-653h-90v1456q95 18 186 28t204 10q198 0 325 -44t189 -137t62 -241q1 -357 -423 -418l529 -654h-109zM419 724.5q50 -2.5 126 -2.5q187 0 304 38t171.5 114.5t54.5 194.5q0 126 -50 201t-156.5 109t-280.5 34
q-91 0 -157.5 -6.5t-142.5 -19.5v-653q81 -7 131 -9.5z" />
    <glyph glyph-name="S" unicode="S" horiz-adv-x="1095" 
d="M293.5 -2.5q-96.5 15.5 -183.5 45.5v85q188 -63 373 -63q213 0 320 80.5t107 237.5q0 88 -36 146t-112 96.5t-205 67.5l-71 16q-202 45 -298.5 140.5t-96.5 252.5q0 123 57.5 211.5t172 136.5t281.5 48q88 0 175.5 -12.5t164.5 -36.5v-86q-163 52 -342 52
q-206 0 -310.5 -79t-104.5 -228q0 -88 32 -146.5t103.5 -97.5t193.5 -67l71 -16q220 -49 319.5 -143t99.5 -251q0 -195 -136 -300t-387 -105q-91 0 -187.5 15.5z" />
    <glyph glyph-name="T" unicode="T" horiz-adv-x="1193" 
d="M551 0v1396h-534v84h1159v-84h-534v-1396h-91z" />
    <glyph glyph-name="U" unicode="U" horiz-adv-x="1470" 
d="M428 42q-120 60 -179 186.5t-59 326.5v925h91v-937q0 -167 48.5 -272t148.5 -155t258 -50t258 50t148.5 155t48.5 272v937h89v-925q0 -200 -58.5 -326.5t-178.5 -186.5t-307 -60q-188 0 -308 60z" />
    <glyph glyph-name="V" unicode="V" horiz-adv-x="1336" 
d="M1224 1480h93l-585 -1480h-128l-585 1480h99l553 -1407z" />
    <glyph glyph-name="W" unicode="W" horiz-adv-x="2168" 
d="M2004 1480h90l-455 -1480h-122l-433 1382l-433 -1382h-122l-457 1480h96l425 -1395l433 1395h117l434 -1397z" />
    <glyph glyph-name="X" unicode="X" horiz-adv-x="1309" 
d="M709 750l567 -750h-112l-511 676l-513 -676h-109l567 748l-555 732h112l499 -658l501 658h108z" />
    <glyph glyph-name="Y" unicode="Y" horiz-adv-x="1193" 
d="M1205 1480l-563 -807v-673h-91v674l-571 806h108l511 -723l503 723h103z" />
    <glyph glyph-name="Z" unicode="Z" horiz-adv-x="1191" 
d="M191 82h934v-82h-1059v52l922 1346h-909v82h1033v-52z" />
    <glyph glyph-name="bracketleft" unicode="[" horiz-adv-x="674" 
d="M218 -440v2056h495v-80h-405v-1896h405v-80h-495z" />
    <glyph glyph-name="backslash" unicode="\" horiz-adv-x="596" 
d="M503 -240l-503 1856h93l503 -1856h-93z" />
    <glyph glyph-name="bracketright" unicode="]" horiz-adv-x="674" 
d="M-39 -440v80h405v1896h-405v80h495v-2056h-495z" />
    <glyph glyph-name="asciicircum" unicode="^" 
d="M1054 740h-101l-371 668l-372 -668h-100l415 740h112z" />
    <glyph glyph-name="underscore" unicode="_" horiz-adv-x="1159" 
d="M97 -80v80h965v-80h-965z" />
    <glyph glyph-name="grave" unicode="`" horiz-adv-x="1114" 
d="M513 1261l-256 355h104l240 -355h-88z" />
    <glyph glyph-name="a" unicode="a" horiz-adv-x="1055" 
d="M714 1063q87 -34 132.5 -114t45.5 -215v-734h-78l-8 129h-8q-58 -67 -151 -106t-197 -39q-157 0 -245 75.5t-88 210.5q0 136 91 211t292 98l302 36v119q0 110 -35 171.5t-102.5 86t-173.5 24.5q-73 0 -153 -12.5t-158 -40.5v83q65 25 149.5 38t165.5 13q132 0 219 -34z
M645 103q89 40 157 120v316l-301 -36q-154 -18 -221.5 -72t-67.5 -154q0 -104 62 -159t186 -55q96 0 185 40z" />
    <glyph glyph-name="b" unicode="b" horiz-adv-x="1163" 
d="M178 29v1587h90v-656h7q59 64 145 100.5t191 36.5q198 0 318 -129t120 -407q0 -579 -546 -579q-169 0 -325 47zM844 181.5q111 118.5 111 369.5q0 249 -95.5 356t-262.5 107q-97 0 -183 -38.5t-146 -116.5v-763q109 -33 243 -33q222 0 333 118.5z" />
    <glyph glyph-name="c" unicode="c" horiz-adv-x="900" 
d="M115 540q0 286 129 421.5t381 135.5q129 0 232 -32v-84q-116 34 -227 34q-143 0 -235.5 -47.5t-139 -151.5t-46.5 -272q0 -254 95.5 -366.5t287.5 -112.5q122 0 265 51v-84q-134 -50 -275 -50q-467 0 -467 558z" />
    <glyph glyph-name="d" unicode="d" horiz-adv-x="1163" 
d="M236 113q-121 131 -121 406q0 291 139.5 434.5t415.5 143.5q113 0 225 -21v540h90v-1616h-78l-8 125h-8q-58 -67 -143.5 -105t-186.5 -38q-204 0 -325 131zM752 105q84 40 143 125v759q-46 13 -107 20t-121 7q-232 0 -345.5 -118t-113.5 -370q0 -247 95.5 -355
t269.5 -108q95 0 179 40z" />
    <glyph glyph-name="e" unicode="e" horiz-adv-x="1063" 
d="M967 505h-759q6 -231 111.5 -336.5t306.5 -105.5q126 0 290 52v-84q-153 -49 -297 -49q-247 0 -375.5 136t-128.5 423q0 277 114.5 416.5t318.5 139.5q203 0 311 -138.5t108 -418.5v-35zM300 914q-87 -105 -92 -332h669q-5 228 -88 332.5t-242 104.5q-160 0 -247 -105z
" />
    <glyph glyph-name="f" unicode="f" horiz-adv-x="731" 
d="M405.5 1486q-70.5 -68 -70.5 -227v-178h400v-80h-400v-1001h-89v1001h-227v80h227v172q0 193 94.5 288t284.5 95q74 0 152 -13v-84q-83 15 -151 15q-150 0 -220.5 -68z" />
    <glyph glyph-name="g" unicode="g" horiz-adv-x="1163" 
d="M342.5 -445.5q-88.5 14.5 -159.5 39.5v84q169 -56 323 -56q135 0 220 37.5t127 123t42 227.5v110h-7q-60 -63 -146 -100t-190 -37q-128 0 -225.5 54t-154.5 174t-57 308q0 290 138 434t408 144q169 0 324 -46v-1031q0 -253 -118 -366.5t-360 -113.5q-76 0 -164.5 14.5z
M748.5 104.5q86.5 38.5 146.5 116.5v766q-112 29 -242 29q-222 0 -333.5 -118.5t-111.5 -369.5q0 -248 96 -355t263 -107q95 0 181.5 38.5z" />
    <glyph glyph-name="h" unicode="h" horiz-adv-x="1177" 
d="M178 1616h90v-662h7q75 71 171.5 107t205.5 36q171 0 266.5 -90t95.5 -288v-719h-90v716q0 158 -73.5 226.5t-210.5 68.5q-102 0 -201 -41t-171 -126v-844h-90v1616z" />
    <glyph glyph-name="i" unicode="i" horiz-adv-x="447" 
d="M178 0v1081h91v-1081h-91zM170 1370q-20 19 -20 52t20 53t54 20t54 -20t20 -53t-20 -52t-54 -19t-54 19z" />
    <glyph glyph-name="j" unicode="j" horiz-adv-x="447" 
d="M-20 -417q104 134 151 272t47 312v914h91v-908q0 -188 -54 -336.5t-173 -297.5zM169 1379q-20 19 -20 52t20 53t54 20t54 -20t20 -53t-20 -52t-54 -19t-54 19z" />
    <glyph glyph-name="k" unicode="k" horiz-adv-x="1039" 
d="M942 0l-448 513h-226v-513h-90v1616h90v-1023h225l418 488h108l-448 -527l480 -554h-109z" />
    <glyph glyph-name="l" unicode="l" horiz-adv-x="447" 
d="M178 0v1616h90v-1616h-90z" />
    <glyph glyph-name="m" unicode="m" horiz-adv-x="1738" 
d="M1487.5 1006.5q87.5 -90.5 87.5 -288.5v-718h-90v716q0 297 -250 297q-86 0 -172 -40t-149 -127q11 -58 11 -127v-719h-89v716q0 158 -64 227.5t-181 69.5q-88 0 -174 -43t-149 -130v-840h-90v1081h78l8 -130h8q66 72 152.5 109t181.5 37q208 0 281 -164q78 86 171.5 125
t187.5 39q154 0 241.5 -90.5z" />
    <glyph glyph-name="n" unicode="n" horiz-adv-x="1177" 
d="M178 1081h78l8 -130h8q76 71 173.5 108.5t204.5 37.5q364 0 364 -383v-714h-90v713q0 159 -73 229.5t-211 70.5q-99 0 -199 -40.5t-173 -127.5v-845h-90v1081z" />
    <glyph glyph-name="o" unicode="o" horiz-adv-x="1144" 
d="M235.5 118q-120.5 136 -120.5 422q0 283 121.5 420t335.5 137q216 0 336.5 -135.5t120.5 -421.5q0 -282 -122 -420t-335 -138q-216 0 -336.5 136zM841 175q94 112 94 363q0 254 -94 366t-269 112t-269.5 -111t-94.5 -362q0 -254 94.5 -367t269.5 -113t269 112z" />
    <glyph glyph-name="p" unicode="p" horiz-adv-x="1163" 
d="M178 1081h79l8 -127h8q57 67 142.5 105t186.5 38q203 0 325 -128.5t122 -407.5q0 -292 -139.5 -435.5t-416.5 -143.5q-109 0 -225 20v-442h-90v1521zM842 181q113 118 113 370q0 250 -96.5 356.5t-267.5 106.5q-95 0 -179.5 -40.5t-143.5 -124.5v-759q47 -13 107.5 -20
t121.5 -7q232 0 345 118z" />
    <glyph glyph-name="q" unicode="q" horiz-adv-x="1163" 
d="M895 119h-7q-59 -64 -145 -100.5t-191 -36.5q-198 0 -317.5 129t-119.5 407q0 579 546 579q169 0 324 -46v-1491h-90v559zM748.5 103.5q86.5 38.5 146.5 116.5v767q-112 29 -242 29q-222 0 -333.5 -118.5t-111.5 -369.5q0 -249 96 -356t263 -107q95 0 181.5 38.5z" />
    <glyph glyph-name="r" unicode="r" horiz-adv-x="739" 
d="M178 1081h78l8 -147h8q63 73 158.5 114.5t194.5 41.5q55 0 99 -9v-87q-45 7 -101 7q-94 0 -193 -43.5t-162 -127.5v-830h-90v1081z" />
    <glyph glyph-name="s" unicode="s" horiz-adv-x="933" 
d="M273.5 -8q-73.5 10 -143.5 33v83q83 -25 155 -35t151 -10q166 0 243 55t77 160q0 59 -20 98t-65.5 64.5t-124.5 41.5l-152 29q-148 30 -214 100.5t-66 186.5q0 88 44.5 155t137 105.5t231.5 38.5q135 0 261 -34v-83q-72 20 -132.5 28.5t-127.5 8.5q-168 0 -245 -58.5
t-77 -157.5q0 -80 45.5 -131t155.5 -72l152 -30q153 -30 220.5 -98t67.5 -184q0 -143 -104.5 -223.5t-310.5 -80.5q-85 0 -158.5 10z" />
    <glyph glyph-name="t" unicode="t" horiz-adv-x="758" 
d="M749 85v-84q-83 -19 -164 -19q-169 0 -258 86t-89 265v668h-227v80h227l12 399h78v-399h399v-80h-399v-652q0 -150 67 -217t201 -67q64 0 153 20z" />
    <glyph glyph-name="u" unicode="u" horiz-adv-x="1167" 
d="M258.5 72.5q-95.5 90.5 -95.5 288.5v720h90v-718q0 -158 73.5 -227.5t205.5 -69.5q99 0 197.5 42t169.5 127v846h90v-1081h-78l-7 125h-9q-75 -70 -171 -106.5t-202 -36.5q-168 0 -263.5 90.5z" />
    <glyph glyph-name="v" unicode="v" horiz-adv-x="1078" 
d="M956 1081h93l-450 -1081h-120l-450 1081h99l414 -1006z" />
    <glyph glyph-name="w" unicode="w" horiz-adv-x="1730" 
d="M1563 1081h90l-346 -1081h-117l-324 988l-325 -988h-116l-348 1081h93l316 -992l322 992h117l323 -991z" />
    <glyph glyph-name="x" unicode="x" horiz-adv-x="1035" 
d="M574 547l432 -547h-112l-377 478l-374 -478h-111l430 545l-421 536h112l366 -467l368 467h108z" />
    <glyph glyph-name="y" unicode="y" horiz-adv-x="1078" 
d="M956 1081h93l-633 -1521h-93l183 440h-27l-450 1081h99l412 -1010z" />
    <glyph glyph-name="z" unicode="z" horiz-adv-x="939" 
d="M187 80h692v-80h-814v54l679 947h-666v80h788v-54z" />
    <glyph glyph-name="braceleft" unicode="{" horiz-adv-x="714" 
d="M315.5 703.5q-32.5 -57.5 -103.5 -80.5q71 -23 103.5 -81t32.5 -161v-494q0 -139 68.5 -201.5t212.5 -62.5h124v-73q-53 -10 -125 -10q-370 0 -370 353v503q0 98 -45 142t-139 44h-24v81h24q94 0 139 44t45 142v434q0 353 370 353q72 0 125 -10v-73h-124
q-144 0 -212.5 -62.5t-68.5 -201.5v-425q0 -103 -32.5 -160.5z" />
    <glyph glyph-name="bar" unicode="|" horiz-adv-x="483" 
d="M198 -440v2056h87v-2056h-87z" />
    <glyph glyph-name="braceright" unicode="}" horiz-adv-x="714" 
d="M664 663v-81h-24q-94 0 -139 -44t-45 -142v-503q0 -353 -370 -353q-73 0 -125 10v73h123q144 0 213 62.5t69 201.5v494q0 103 32.5 161t102.5 81q-70 23 -102.5 80.5t-32.5 160.5v425q0 139 -69 201.5t-213 62.5h-123v73q52 10 125 10q370 0 370 -353v-434q0 -98 45 -142
t139 -44h24z" />
    <glyph glyph-name="asciitilde" unicode="~" horiz-adv-x="1088" 
d="M628 673q-43 16 -104 47q-53 27 -86 40t-66 13q-114 0 -198 -108v96q34 44 85 67.5t111 23.5q47 0 90 -16t104 -47q53 -27 86 -40t66 -13q114 0 198 108v-97q-34 -44 -85 -67t-111 -23q-47 0 -90 16z" />
    <glyph glyph-name="uni00A0" unicode="&#xa0;" horiz-adv-x="516" 
 />
    <glyph glyph-name="exclamdown" unicode="&#xa1;" horiz-adv-x="482" 
d="M295 1071.5q21 -20.5 21 -53.5q0 -34 -21 -54.5t-54 -20.5t-54 20.5t-21 54.5q0 33 21 53.5t54 20.5t54 -20.5zM211 750h61l17 -566v-564h-96v564z" />
    <glyph glyph-name="cent" unicode="&#xa2;" horiz-adv-x="910" 
d="M391.5 967.5q-91.5 -47.5 -137 -151t-45.5 -272.5q0 -254 95.5 -366.5t287.5 -112.5q122 0 265 51v-84q-115 -43 -237 -49v-223h-82v223q-208 12 -315.5 148.5t-107.5 408.5q0 261 106.5 396t316.5 157v228h82v-224h5q120 0 232 -32v-84q-121 34 -230 34
q-144 0 -235.5 -47.5z" />
    <glyph glyph-name="sterling" unicode="&#xa3;" horiz-adv-x="1320" 
d="M1226 81v-81h-1147v81h244v629h-244v80h244v255q0 231 131 342t390 111q187 0 340 -49v-85q-166 51 -341 51q-217 0 -323.5 -85.5t-106.5 -283.5v-256h584v-80h-584v-629h813z" />
    <glyph glyph-name="currency" unicode="&#xa4;" 
d="M934 448l101 -97l-64 -65l-98 101l-75 97q-42 -38 -96.5 -58t-119.5 -20q-131 0 -217 78l-75 -97l-97 -101l-65 65l101 97l100 76q-65 87 -65 216q0 127 65 214l-100 78l-103 97l65 65l97 -101l78 -99q41 38 96 58t120 20t119.5 -20t96.5 -58l77 99l97 101l65 -65
l-103 -97l-100 -79q65 -85 65 -213q0 -129 -65 -216zM710 509q55 31 85.5 90t30.5 141q0 77 -28.5 136.5t-83 92.5t-130.5 33q-73 0 -129 -31.5t-86.5 -90.5t-30.5 -140t30.5 -140t85.5 -90.5t128 -31.5t128 31z" />
    <glyph glyph-name="yen" unicode="&#xa5;" horiz-adv-x="1240" 
d="M1232 1480l-525 -747h288v-75h-330v-268h330v-75h-330v-315h-90v315h-330v75h330v268h-330v75h288l-526 747h108l507 -723l507 723h103z" />
    <glyph glyph-name="brokenbar" unicode="&#xa6;" horiz-adv-x="483" 
d="M198 836v780h87v-780h-87zM198 -440v780h87v-780h-87z" />
    <glyph glyph-name="section" unicode="&#xa7;" horiz-adv-x="1045" 
d="M878 285q0 -143 -104.5 -223t-311.5 -80q-166 0 -300 42v82q84 -25 155 -35t149 -10q167 0 244.5 55.5t77.5 160.5q0 59 -20 98t-66 64.5t-124 41.5l-155 30q-146 30 -212.5 100.5t-66.5 185.5q0 61 25.5 114.5t72.5 93.5q-76 69 -76 192q0 88 44.5 155.5t137 105.5
t232.5 38q133 0 259 -34v-81q-72 19 -131 27t-126 8q-171 0 -248 -58t-77 -158q0 -80 45 -130.5t156 -72.5l156 -30q152 -30 219.5 -98t67.5 -184q0 -129 -98 -211q75 -68 75 -189zM591 563q88 -18 147 -46q78 56 78 160q0 88 -49.5 136.5t-166.5 71.5l-154 30
q-83 17 -138 45q-79 -60 -79 -159q0 -81 47.5 -133.5t159.5 -74.5z" />
    <glyph glyph-name="dieresis" unicode="&#xa8;" horiz-adv-x="1114" 
d="M280.5 1370q-19.5 19 -19.5 52q0 32 20 52t52 20t51.5 -20t19.5 -52q0 -33 -19.5 -52t-51.5 -19q-33 0 -52.5 19zM728.5 1370q-19.5 19 -19.5 52q0 32 20 52t52 20t52 -20t20 -52q0 -33 -19.5 -52t-52.5 -19t-52.5 19z" />
    <glyph glyph-name="copyright" unicode="&#xa9;" horiz-adv-x="1739" 
d="M479.5 73q-168.5 95 -261.5 267.5t-93 399.5t93 399.5t261.5 267.5t389.5 95t390 -95t262 -267.5t93 -399.5t-93 -399.5t-262 -267.5t-390 -95t-389.5 95zM1219 140q151 85 234 240.5t83 359.5t-83 359.5t-234 240.5t-350 85t-349.5 -85t-233.5 -240.5t-83 -359.5
t83 -359.5t233.5 -240.5t349.5 -85t350 85zM701 370.5q-87 46.5 -135 138.5t-48 225q0 197 107 303.5t306 106.5q102 0 192 -28v-77q-98 27 -189 27q-161 0 -245.5 -81.5t-84.5 -246.5q0 -168 81 -252t228 -84q102 0 210 41v-78q-95 -41 -217 -41q-118 0 -205 46.5z" />
    <glyph glyph-name="ordfeminine" unicode="&#xaa;" horiz-adv-x="893" 
d="M604 1464.5q75 -28.5 114 -94.5t39 -178v-582h-73l-7 103h-7q-51 -54 -129.5 -85.5t-166.5 -31.5q-131 0 -206 62.5t-75 170.5q0 111 77 172t247 78l256 28v89q0 85 -30 133.5t-87.5 68t-148.5 19.5q-127 0 -260 -44v77q57 21 128 32t139 11q115 0 190 -28.5zM541.5 701
q73.5 31 131.5 92v248l-251 -28q-129 -14 -185.5 -56.5t-56.5 -119.5q0 -81 52 -124t157 -43q79 0 152.5 31z" />
    <glyph glyph-name="guillemotleft" unicode="&#xab;" horiz-adv-x="999" 
d="M423 139l-290 422l290 421h99l-290 -421l290 -422h-99zM807 139l-290 422l290 421h99l-290 -421l290 -422h-99z" />
    <glyph glyph-name="logicalnot" unicode="&#xac;" horiz-adv-x="1381" 
d="M1133 192v528h-959v80h1044v-608h-85z" />
    <glyph glyph-name="uni00AD" unicode="&#xad;" horiz-adv-x="868" 
d="M174 520v81h520v-81h-520z" />
    <glyph glyph-name="registered" unicode="&#xae;" horiz-adv-x="1557" 
d="M1095.5 1420q138.5 -78 215.5 -218t77 -320t-77 -319.5t-215.5 -217t-317.5 -77.5t-317.5 77.5t-215.5 217t-77 319.5t77 320t215.5 218t317.5 78t317.5 -78zM1060.5 407q121.5 67 187.5 189.5t66 285.5t-66 286t-187.5 190.5t-282.5 67.5q-160 0 -281.5 -67.5
t-187.5 -190.5t-66 -286t66 -285.5t187 -189.5t282 -67t282.5 67zM874 837l161 -237h-83l-153 225q-11 -1 -34 -1h-123v-224h-72v592h195q120 0 182.5 -48t62.5 -137q0 -134 -136 -170zM778 890q82 0 121 28.5t39 88.5t-39.5 89.5t-120.5 29.5h-136v-236h136z" />
    <glyph glyph-name="macron" unicode="&#xaf;" horiz-adv-x="1114" 
d="M251 1388v71h612v-71h-612z" />
    <glyph glyph-name="degree" unicode="&#xb0;" horiz-adv-x="1019" 
d="M333 859q-78 44 -121.5 122t-43.5 175t43.5 174.5t121.5 121.5t176 44q99 0 176.5 -44t121 -121.5t43.5 -174.5t-43.5 -175t-121 -122t-176.5 -44q-98 0 -176 44zM645.5 922.5q59.5 32.5 93 93t33.5 140.5t-33.5 140.5t-93 93t-136.5 32.5q-76 0 -135.5 -32.5t-93 -93
t-33.5 -140.5t33.5 -140.5t93 -93t135.5 -32.5q77 0 136.5 32.5z" />
    <glyph glyph-name="plusminus" unicode="&#xb1;" horiz-adv-x="1088" 
d="M502 321v346h-328v79h328v346h84v-346h328v-79h-328v-346h-84zM174 0v80h740v-80h-740z" />
    <glyph glyph-name="uni00B2" unicode="&#xb2;" horiz-adv-x="793" 
d="M712 -61v-75h-618v47l317 382q87 104 123.5 174t36.5 137q0 102 -61 150t-184 48q-132 0 -244 -41v76q99 39 249 39q157 0 239.5 -64.5t82.5 -198.5q0 -85 -39.5 -164t-138.5 -196l-264 -314h501z" />
    <glyph glyph-name="uni00B3" unicode="&#xb3;" horiz-adv-x="793" 
d="M653 300q59 -64 59 -164q0 -136 -96 -210t-286 -74q-66 0 -133 10t-126 30v75q126 -44 259 -44q152 0 227 55.5t75 161.5q0 98 -69 150t-208 52h-135v72h63q154 0 234 52t80 154q0 89 -65.5 137t-188.5 48q-130 0 -242 -40v75q52 18 116.5 27t131.5 9q157 0 242.5 -66
t85.5 -185q0 -87 -51.5 -148.5t-143.5 -90.5q112 -22 171 -86z" />
    <glyph glyph-name="acute" unicode="&#xb4;" horiz-adv-x="1114" 
d="M513 1261l240 355h103l-255 -355h-88z" />
    <glyph glyph-name="uni00B5" unicode="&#xb5;" horiz-adv-x="1167" 
d="M989 1081v-1081h-78l-7 125h-9q-73 -70 -168 -106.5t-199 -36.5q-196 0 -275 126v-548h-90v1521h90v-718q0 -158 73.5 -227.5t205.5 -69.5q99 0 197.5 42t169.5 127v846h90z" />
    <glyph glyph-name="paragraph" unicode="&#xb6;" horiz-adv-x="1261" 
d="M769 522q-77 -12 -176 -12q-254 0 -373.5 125.5t-119.5 369.5q0 250 116 369.5t342 119.5q142 0 293 -14v-1480h-82v522zM981 0v1480h82v-1480h-82z" />
    <glyph glyph-name="periodcentered" unicode="&#xb7;" horiz-adv-x="442" 
d="M167 505q-21 20 -21 53q0 34 21 55t54 21t54 -21t21 -55q0 -33 -21 -53t-54 -20t-54 20z" />
    <glyph glyph-name="cedilla" unicode="&#xb8;" horiz-adv-x="1114" 
d="M712 -153.5q42 -37.5 42 -103.5q0 -70 -49.5 -108.5t-138.5 -38.5q-46 0 -94 10t-81 28v62q82 -41 175 -41q61 0 91.5 22t30.5 67q0 47 -31 69t-93 22h-37v185h65v-131q78 -5 120 -42.5z" />
    <glyph glyph-name="uni00B9" unicode="&#xb9;" horiz-adv-x="793" 
d="M480 -61h242v-75h-577v75h255v823l-256 -185v86l283 205h53v-929z" />
    <glyph glyph-name="ordmasculine" unicode="&#xba;" horiz-adv-x="983" 
d="M205 708q-105 112 -105 338t104.5 336.5t287.5 110.5q182 0 286.5 -110.5t104.5 -336.5q0 -225 -105 -337.5t-286 -112.5q-182 0 -287 112zM716 761.5q79 88.5 79 284.5t-79 283t-224 87q-146 0 -225 -87t-79 -283t79 -284.5t225 -88.5q145 0 224 88.5z" />
    <glyph glyph-name="guillemotright" unicode="&#xbb;" horiz-adv-x="999" 
d="M93 139l290 422l-290 421h99l290 -421l-290 -422h-99zM477 139l290 422l-290 421h99l290 -421l-290 -422h-99z" />
    <glyph glyph-name="onequarter" unicode="&#xbc;" horiz-adv-x="1841" 
d="M480 691h242v-75h-577v75h255v823l-256 -185v86l283 205h53v-929zM467 -136l823 1752h84l-823 -1752h-84zM1816 183v-72h-151v-247h-76v247h-509v49l403 704h83l-389 -681h412l15 343h61v-343h151z" />
    <glyph glyph-name="onehalf" unicode="&#xbd;" horiz-adv-x="1841" 
d="M480 691h242v-75h-577v75h255v823l-256 -185v86l283 205h53v-929zM467 -136l823 1752h84l-823 -1752h-84zM1760 -61v-75h-618v47l317 382q87 104 123.5 174t36.5 137q0 102 -61 150t-184 48q-132 0 -244 -41v76q99 39 249 39q157 0 239.5 -64.5t82.5 -198.5
q0 -85 -39.5 -164t-138.5 -196l-264 -314h501z" />
    <glyph glyph-name="threequarters" unicode="&#xbe;" horiz-adv-x="1841" 
d="M653 1052q59 -64 59 -164q0 -136 -96 -210t-286 -74q-66 0 -133 10t-126 30v75q126 -44 259 -44q152 0 227 55.5t75 161.5q0 98 -69 150t-208 52h-135v72h63q154 0 234 52t80 154q0 89 -65.5 137t-188.5 48q-130 0 -242 -40v75q52 18 116.5 27t131.5 9q157 0 242.5 -66
t85.5 -185q0 -87 -51.5 -148.5t-143.5 -90.5q112 -22 171 -86zM467 -136l823 1752h84l-823 -1752h-84zM1816 183v-72h-151v-247h-76v247h-509v49l403 704h83l-389 -681h412l15 343h61v-343h151z" />
    <glyph glyph-name="questiondown" unicode="&#xbf;" horiz-adv-x="911" 
d="M549 1071.5q21 -20.5 21 -52.5q0 -34 -21 -54.5t-54 -20.5t-53.5 21t-20.5 54t20.5 53t53.5 20t54 -20.5zM542 345q-145 -48 -229 -102t-120.5 -121.5t-36.5 -159.5q0 -133 95 -206.5t272 -73.5t344 56v-84q-162 -54 -348 -54q-144 0 -246 43t-155 123.5t-53 191.5
q0 107 37 185.5t121.5 141t230.5 116.5l11 366h61z" />
    <glyph glyph-name="Agrave" unicode="&#xc0;" horiz-adv-x="1379" 
d="M1241 0l-204 516h-698l-204 -516h-95l589 1480h120l589 -1480h-97zM372 599h632l-316 800zM646 1614l-216 275h105l199 -275h-88z" />
    <glyph glyph-name="Aacute" unicode="&#xc1;" horiz-adv-x="1379" 
d="M1241 0l-204 516h-698l-204 -516h-95l589 1480h120l589 -1480h-97zM372 599h632l-316 800zM646 1614l199 275h105l-216 -275h-88z" />
    <glyph glyph-name="Acircumflex" unicode="&#xc2;" horiz-adv-x="1379" 
d="M1241 0l-204 516h-698l-204 -516h-95l589 1480h120l589 -1480h-97zM372 599h632l-316 800zM1000 1614h-101l-209 223l-209 -223h-101l263 275h93z" />
    <glyph glyph-name="Atilde" unicode="&#xc3;" horiz-adv-x="1379" 
d="M1241 0l-204 516h-698l-204 -516h-95l589 1480h120l589 -1480h-97zM372 599h632l-316 800zM765.5 1701q-36.5 10 -91.5 30q-46 18 -77 26.5t-62 8.5q-54 0 -93.5 -17t-76.5 -54v78q61 61 170 61q42 0 79 -10t92 -30q46 -18 77 -26.5t62 -8.5q53 0 93 17t76 54v-78
q-59 -61 -170 -61q-42 0 -78.5 10z" />
    <glyph glyph-name="Adieresis" unicode="&#xc4;" horiz-adv-x="1379" 
d="M1241 0l-204 516h-698l-204 -516h-95l589 1480h120l589 -1480h-97zM372 599h632l-316 800zM394.5 1701.5q-19.5 18.5 -19.5 50.5t19.5 51.5t51.5 19.5t52 -19.5t20 -51.5t-19.5 -50.5t-52.5 -18.5q-32 0 -51.5 18.5zM881.5 1701.5q-19.5 18.5 -19.5 50.5t19.5 51.5
t51.5 19.5t52 -19.5t20 -51.5t-19.5 -50.5t-52.5 -18.5q-32 0 -51.5 18.5z" />
    <glyph glyph-name="Aring" unicode="&#xc5;" horiz-adv-x="1379" 
d="M1037 516h-698l-204 -516h-95l579 1454q-52 20 -82.5 66.5t-30.5 105.5q0 53 24 95.5t67 66.5t96 24t96 -24t67 -66.5t24 -95.5q0 -62 -32.5 -108.5t-87.5 -66.5l578 -1451h-97zM601.5 1532q35.5 -35 91.5 -35t91.5 35t35.5 94t-35.5 94t-91.5 35t-91.5 -35t-35.5 -94
t35.5 -94zM372 599h632l-316 800z" />
    <glyph glyph-name="AE" unicode="&#xc6;" horiz-adv-x="1881" 
d="M1058 83h734v-83h-819l-38 516h-591l-208 -516h-96l599 1480h1143v-83h-825l46 -595h680v-83h-674zM377 599h551l-59 798h-171z" />
    <glyph glyph-name="Ccedilla" unicode="&#xc7;" horiz-adv-x="1198" 
d="M369 1255.5q-148 -158.5 -148 -513.5q0 -249 69 -398.5t194.5 -213.5t306.5 -64q94 0 178.5 14.5t182.5 48.5v-86q-167 -61 -365 -61h-16v-91q85 -4 134 -41.5t49 -105.5q0 -73 -54.5 -110.5t-151.5 -37.5q-49 0 -101.5 10t-94.5 29v62q55 -23 101.5 -32.5t93.5 -9.5
q141 0 141 90t-143 90h-39v150q-581 44 -581 753q0 390 177 575t502 185q94 0 178 -12t170 -37v-86q-169 51 -348 51q-287 0 -435 -158.5z" />
    <glyph glyph-name="Egrave" unicode="&#xc8;" horiz-adv-x="1212" 
d="M288 83h834v-83h-924v1480h914v-83h-824v-595h726v-83h-726v-636zM632 1614l-216 275h105l199 -275h-88z" />
    <glyph glyph-name="Eacute" unicode="&#xc9;" horiz-adv-x="1212" 
d="M288 83h834v-83h-924v1480h914v-83h-824v-595h726v-83h-726v-636zM632 1614l199 275h105l-216 -275h-88z" />
    <glyph glyph-name="Ecircumflex" unicode="&#xca;" horiz-adv-x="1212" 
d="M288 83h834v-83h-924v1480h914v-83h-824v-595h726v-83h-726v-636zM986 1614h-101l-209 223l-209 -223h-101l263 275h93z" />
    <glyph glyph-name="Edieresis" unicode="&#xcb;" horiz-adv-x="1212" 
d="M288 83h834v-83h-924v1480h914v-83h-824v-595h726v-83h-726v-636zM380.5 1701.5q-19.5 18.5 -19.5 50.5t19.5 51.5t51.5 19.5t52 -19.5t20 -51.5t-19.5 -50.5t-52.5 -18.5q-32 0 -51.5 18.5zM867.5 1701.5q-19.5 18.5 -19.5 50.5t19.5 51.5t51.5 19.5t52 -19.5t20 -51.5
t-19.5 -50.5t-52.5 -18.5q-32 0 -51.5 18.5z" />
    <glyph glyph-name="Igrave" unicode="&#xcc;" horiz-adv-x="487" 
d="M198 0v1480h91v-1480h-91zM199 1614l-216 275h105l199 -275h-88z" />
    <glyph glyph-name="Iacute" unicode="&#xcd;" horiz-adv-x="487" 
d="M198 0v1480h91v-1480h-91zM199 1614l199 275h105l-216 -275h-88z" />
    <glyph glyph-name="Icircumflex" unicode="&#xce;" horiz-adv-x="487" 
d="M198 0v1480h91v-1480h-91zM553 1614h-101l-209 223l-209 -223h-101l263 275h93z" />
    <glyph glyph-name="Idieresis" unicode="&#xcf;" horiz-adv-x="487" 
d="M198 0v1480h91v-1480h-91zM-52.5 1701.5q-19.5 18.5 -19.5 50.5t19.5 51.5t51.5 19.5t52 -19.5t20 -51.5t-19.5 -50.5t-52.5 -18.5q-32 0 -51.5 18.5zM434.5 1701.5q-19.5 18.5 -19.5 50.5t19.5 51.5t51.5 19.5t52 -19.5t20 -51.5t-19.5 -50.5t-52.5 -18.5
q-32 0 -51.5 18.5z" />
    <glyph glyph-name="Eth" unicode="&#xd0;" horiz-adv-x="1450" 
d="M1137 1306q188 -188 188 -566q0 -380 -192 -565t-575 -185q-95 0 -176 5t-184 18v713h-193v73h193v657q90 19 189 28.5t192 9.5q370 0 558 -188zM1066 234.5q164 161.5 164 505.5q0 343 -162 507t-492 164q-128 0 -287 -25v-587h387v-73h-387v-635q119 -18 278 -18
q335 0 499 161.5z" />
    <glyph glyph-name="Ntilde" unicode="&#xd1;" horiz-adv-x="1527" 
d="M1242 1480h87v-1480h-97l-947 1343v-1343h-87v1480h97l947 -1345v1345zM839.5 1701q-36.5 10 -91.5 30q-46 18 -77 26.5t-62 8.5q-54 0 -93.5 -17t-76.5 -54v78q61 61 170 61q42 0 79 -10t92 -30q46 -18 77 -26.5t62 -8.5q53 0 93 17t76 54v-78q-59 -61 -170 -61
q-42 0 -78.5 10z" />
    <glyph glyph-name="Ograve" unicode="&#xd2;" horiz-adv-x="1487" 
d="M416 61.5q-138 79.5 -214.5 248.5t-76.5 430q0 260 77 429.5t215.5 249t325.5 79.5q289 0 454 -185.5t165 -572.5q0 -260 -77 -429.5t-215.5 -249t-326.5 -79.5q-189 0 -327 79.5zM1129 226q138 159 138 510q0 677 -524 677q-247 0 -385 -159t-138 -510q0 -677 523 -677
q248 0 386 159zM699 1614l-216 275h105l199 -275h-88z" />
    <glyph glyph-name="Oacute" unicode="&#xd3;" horiz-adv-x="1487" 
d="M416 61.5q-138 79.5 -214.5 248.5t-76.5 430q0 260 77 429.5t215.5 249t325.5 79.5q289 0 454 -185.5t165 -572.5q0 -260 -77 -429.5t-215.5 -249t-326.5 -79.5q-189 0 -327 79.5zM1129 226q138 159 138 510q0 677 -524 677q-247 0 -385 -159t-138 -510q0 -677 523 -677
q248 0 386 159zM699 1614l199 275h105l-216 -275h-88z" />
    <glyph glyph-name="Ocircumflex" unicode="&#xd4;" horiz-adv-x="1487" 
d="M416 61.5q-138 79.5 -214.5 248.5t-76.5 430q0 260 77 429.5t215.5 249t325.5 79.5q289 0 454 -185.5t165 -572.5q0 -260 -77 -429.5t-215.5 -249t-326.5 -79.5q-189 0 -327 79.5zM1129 226q138 159 138 510q0 677 -524 677q-247 0 -385 -159t-138 -510q0 -677 523 -677
q248 0 386 159zM1053 1614h-101l-209 223l-209 -223h-101l263 275h93z" />
    <glyph glyph-name="Otilde" unicode="&#xd5;" horiz-adv-x="1487" 
d="M416 61.5q-138 79.5 -214.5 248.5t-76.5 430q0 260 77 429.5t215.5 249t325.5 79.5q289 0 454 -185.5t165 -572.5q0 -260 -77 -429.5t-215.5 -249t-326.5 -79.5q-189 0 -327 79.5zM1129 226q138 159 138 510q0 677 -524 677q-247 0 -385 -159t-138 -510q0 -677 523 -677
q248 0 386 159zM818.5 1701q-36.5 10 -91.5 30q-46 18 -77 26.5t-62 8.5q-54 0 -93.5 -17t-76.5 -54v78q61 61 170 61q42 0 79 -10t92 -30q46 -18 77 -26.5t62 -8.5q53 0 93 17t76 54v-78q-59 -61 -170 -61q-42 0 -78.5 10z" />
    <glyph glyph-name="Odieresis" unicode="&#xd6;" horiz-adv-x="1487" 
d="M416 61.5q-138 79.5 -214.5 248.5t-76.5 430q0 260 77 429.5t215.5 249t325.5 79.5q289 0 454 -185.5t165 -572.5q0 -260 -77 -429.5t-215.5 -249t-326.5 -79.5q-189 0 -327 79.5zM1129 226q138 159 138 510q0 677 -524 677q-247 0 -385 -159t-138 -510q0 -677 523 -677
q248 0 386 159zM447.5 1701.5q-19.5 18.5 -19.5 50.5t19.5 51.5t51.5 19.5t52 -19.5t20 -51.5t-19.5 -50.5t-52.5 -18.5q-32 0 -51.5 18.5zM934.5 1701.5q-19.5 18.5 -19.5 50.5t19.5 51.5t51.5 19.5t52 -19.5t20 -51.5t-19.5 -50.5t-52.5 -18.5q-32 0 -51.5 18.5z" />
    <glyph glyph-name="multiply" unicode="&#xd7;" horiz-adv-x="996" 
d="M194 401l-55 55l304 304l-304 304l55 55l304 -304l304 304l55 -55l-304 -304l304 -304l-55 -55l-304 304z" />
    <glyph glyph-name="Oslash" unicode="&#xd8;" horiz-adv-x="1487" 
d="M1362 740q0 -260 -77 -429.5t-215.5 -249t-326.5 -79.5q-271 0 -427 157l-125 -158l-57 44l134 170q-143 193 -143 545q0 260 77 429.5t215.5 249t325.5 79.5q271 0 427 -156l124 157l57 -44l-133 -169q144 -191 144 -546zM327 270l787 1000q-130 143 -371 143
q-247 0 -385 -159t-138 -510q0 -304 107 -474zM1129 226q138 159 138 510q0 308 -108 475l-787 -1000q130 -144 371 -144q248 0 386 159z" />
    <glyph glyph-name="Ugrave" unicode="&#xd9;" horiz-adv-x="1470" 
d="M428 42q-120 60 -179 186.5t-59 326.5v925h91v-937q0 -167 48.5 -272t148.5 -155t258 -50t258 50t148.5 155t48.5 272v937h89v-925q0 -200 -58.5 -326.5t-178.5 -186.5t-307 -60q-188 0 -308 60zM692 1614l-216 275h105l199 -275h-88z" />
    <glyph glyph-name="Uacute" unicode="&#xda;" horiz-adv-x="1470" 
d="M428 42q-120 60 -179 186.5t-59 326.5v925h91v-937q0 -167 48.5 -272t148.5 -155t258 -50t258 50t148.5 155t48.5 272v937h89v-925q0 -200 -58.5 -326.5t-178.5 -186.5t-307 -60q-188 0 -308 60zM692 1614l199 275h105l-216 -275h-88z" />
    <glyph glyph-name="Ucircumflex" unicode="&#xdb;" horiz-adv-x="1470" 
d="M428 42q-120 60 -179 186.5t-59 326.5v925h91v-937q0 -167 48.5 -272t148.5 -155t258 -50t258 50t148.5 155t48.5 272v937h89v-925q0 -200 -58.5 -326.5t-178.5 -186.5t-307 -60q-188 0 -308 60zM1046 1614h-101l-209 223l-209 -223h-101l263 275h93z" />
    <glyph glyph-name="Udieresis" unicode="&#xdc;" horiz-adv-x="1470" 
d="M428 42q-120 60 -179 186.5t-59 326.5v925h91v-937q0 -167 48.5 -272t148.5 -155t258 -50t258 50t148.5 155t48.5 272v937h89v-925q0 -200 -58.5 -326.5t-178.5 -186.5t-307 -60q-188 0 -308 60zM440.5 1701.5q-19.5 18.5 -19.5 50.5t19.5 51.5t51.5 19.5t52 -19.5
t20 -51.5t-19.5 -50.5t-52.5 -18.5q-32 0 -51.5 18.5zM927.5 1701.5q-19.5 18.5 -19.5 50.5t19.5 51.5t51.5 19.5t52 -19.5t20 -51.5t-19.5 -50.5t-52.5 -18.5q-32 0 -51.5 18.5z" />
    <glyph glyph-name="Yacute" unicode="&#xdd;" horiz-adv-x="1193" 
d="M1205 1480l-563 -807v-673h-91v674l-571 806h108l511 -723l503 723h103zM553 1614l199 275h105l-216 -275h-88z" />
    <glyph glyph-name="Thorn" unicode="&#xde;" horiz-adv-x="1271" 
d="M198 1481h91v-253q130 24 286 24q289 0 437 -119.5t148 -370.5q0 -244 -152.5 -369t-477.5 -125q-126 0 -241 12v-280h-91v1481zM839 395.5q118 45.5 173 136t55 228.5q0 212 -121 311t-369 99q-159 0 -288 -24v-781q116 -15 242 -15q190 0 308 45.5z" />
    <glyph glyph-name="germandbls" unicode="&#xdf;" horiz-adv-x="1392" 
d="M1240.5 469.5q66.5 -67.5 66.5 -183.5q0 -143 -104.5 -223.5t-311.5 -80.5q-167 0 -301 42v83q83 -24 154 -34t150 -10q167 0 244.5 55t77.5 160q0 59 -20 98t-66 64.5t-124 41.5l-152 29q-148 30 -214 100t-66 184q0 89 44.5 156.5t136.5 105.5t231 38q40 0 93 -5
q10 54 10 112q0 187 -97.5 270.5t-264.5 83.5q-193 0 -292 -102t-99 -327v-1127h-90v999h-227v82h227v51q0 252 124 378t356 126q130 0 229.5 -46t156.5 -143.5t57 -246.5q0 -44 -7.5 -100t-18.5 -97q-43 7 -74.5 10.5t-79.5 3.5q-169 0 -246.5 -58.5t-77.5 -157.5
q0 -80 46.5 -131t155.5 -72l152 -30q155 -31 221.5 -98.5z" />
    <glyph glyph-name="agrave" unicode="&#xe0;" horiz-adv-x="1055" 
d="M714 1063q87 -34 132.5 -114t45.5 -215v-734h-78l-8 129h-8q-58 -67 -151 -106t-197 -39q-157 0 -245 75.5t-88 210.5q0 136 91 211t292 98l302 36v119q0 110 -35 171.5t-102.5 86t-173.5 24.5q-73 0 -153 -12.5t-158 -40.5v83q65 25 149.5 38t165.5 13q132 0 219 -34z
M645 103q89 40 157 120v316l-301 -36q-154 -18 -221.5 -72t-67.5 -154q0 -104 62 -159t186 -55q96 0 185 40zM480 1261l-256 355h104l240 -355h-88z" />
    <glyph glyph-name="aacute" unicode="&#xe1;" horiz-adv-x="1055" 
d="M714 1063q87 -34 132.5 -114t45.5 -215v-734h-78l-8 129h-8q-58 -67 -151 -106t-197 -39q-157 0 -245 75.5t-88 210.5q0 136 91 211t292 98l302 36v119q0 110 -35 171.5t-102.5 86t-173.5 24.5q-73 0 -153 -12.5t-158 -40.5v83q65 25 149.5 38t165.5 13q132 0 219 -34z
M645 103q89 40 157 120v316l-301 -36q-154 -18 -221.5 -72t-67.5 -154q0 -104 62 -159t186 -55q96 0 185 40zM480 1261l240 355h103l-255 -355h-88z" />
    <glyph glyph-name="acircumflex" unicode="&#xe2;" horiz-adv-x="1055" 
d="M714 1063q87 -34 132.5 -114t45.5 -215v-734h-78l-8 129h-8q-58 -67 -151 -106t-197 -39q-157 0 -245 75.5t-88 210.5q0 136 91 211t292 98l302 36v119q0 110 -35 171.5t-102.5 86t-173.5 24.5q-73 0 -153 -12.5t-158 -40.5v83q65 25 149.5 38t165.5 13q132 0 219 -34z
M645 103q89 40 157 120v316l-301 -36q-154 -18 -221.5 -72t-67.5 -154q0 -104 62 -159t186 -55q96 0 185 40zM810 1261h-88l-198 298l-198 -298h-89l241 355h92z" />
    <glyph glyph-name="atilde" unicode="&#xe3;" horiz-adv-x="1055" 
d="M714 1063q87 -34 132.5 -114t45.5 -215v-734h-78l-8 129h-8q-58 -67 -151 -106t-197 -39q-157 0 -245 75.5t-88 210.5q0 136 91 211t292 98l302 36v119q0 110 -35 171.5t-102.5 86t-173.5 24.5q-73 0 -153 -12.5t-158 -40.5v83q65 25 149.5 38t165.5 13q132 0 219 -34z
M645 103q89 40 157 120v316l-301 -36q-154 -18 -221.5 -72t-67.5 -154q0 -104 62 -159t186 -55q96 0 185 40zM594 1382.5q-35 10.5 -86 30.5q-42 17 -71.5 26t-57.5 9q-48 0 -87 -17.5t-74 -54.5v80q59 61 162 61q39 0 74 -10.5t86 -30.5q42 -17 71.5 -26t57.5 -9
q48 0 87 17.5t74 54.5v-79q-59 -62 -162 -62q-39 0 -74 10.5z" />
    <glyph glyph-name="adieresis" unicode="&#xe4;" horiz-adv-x="1055" 
d="M714 1063q87 -34 132.5 -114t45.5 -215v-734h-78l-8 129h-8q-58 -67 -151 -106t-197 -39q-157 0 -245 75.5t-88 210.5q0 136 91 211t292 98l302 36v119q0 110 -35 171.5t-102.5 86t-173.5 24.5q-73 0 -153 -12.5t-158 -40.5v83q65 25 149.5 38t165.5 13q132 0 219 -34z
M645 103q89 40 157 120v316l-301 -36q-154 -18 -221.5 -72t-67.5 -154q0 -104 62 -159t186 -55q96 0 185 40zM247.5 1370q-19.5 19 -19.5 52q0 32 20 52t52 20t51.5 -20t19.5 -52q0 -33 -19.5 -52t-51.5 -19q-33 0 -52.5 19zM695.5 1370q-19.5 19 -19.5 52q0 32 20 52t52 20
t52 -20t20 -52q0 -33 -19.5 -52t-52.5 -19t-52.5 19z" />
    <glyph glyph-name="aring" unicode="&#xe5;" horiz-adv-x="1055" 
d="M714 1063q87 -34 132.5 -114t45.5 -215v-734h-78l-8 129h-8q-58 -67 -151 -106t-197 -39q-157 0 -245 75.5t-88 210.5q0 136 91 211t292 98l302 36v119q0 110 -35 171.5t-102.5 86t-173.5 24.5q-73 0 -153 -12.5t-158 -40.5v83q65 25 149.5 38t165.5 13q132 0 219 -34z
M645 103q89 40 157 120v316l-301 -36q-154 -18 -221.5 -72t-67.5 -154q0 -104 62 -159t186 -55q96 0 185 40zM428 1281q-43 24 -67 66.5t-24 95.5t24 96t67 67t96 24t96 -24t67 -67t24 -96t-24 -95.5t-67 -66.5t-96 -24t-96 24zM615.5 1349q35.5 35 35.5 94t-35.5 94
t-91.5 35t-91.5 -35t-35.5 -94t35.5 -94t91.5 -35t91.5 35z" />
    <glyph glyph-name="ae" unicode="&#xe6;" horiz-adv-x="1738" 
d="M1643 505h-751q6 -231 110.5 -336.5t302.5 -105.5q127 0 286 52v-84q-148 -49 -293 -49q-306 0 -423 211q-97 -115 -201 -162t-220 -47q-103 0 -179 34t-117 98.5t-41 154.5q0 144 100 227.5t314 83.5h271v154q0 109 -35.5 170t-103 85.5t-173.5 24.5q-72 0 -152 -12.5
t-158 -40.5v83q66 25 149.5 38t163.5 13q158 0 251 -52.5t123 -173.5q50 114 141 170.5t219 56.5q200 0 308 -138.5t108 -416.5v-38zM982.5 914.5q-85.5 -105.5 -90.5 -332.5h660q-5 229 -87.5 333.5t-238.5 104.5q-158 0 -243.5 -105.5zM666 112.5q98 48.5 175 158.5
q-35 101 -38 235h-275q-167 0 -241.5 -61t-74.5 -167q0 -104 63.5 -159t186.5 -55q106 0 204 48.5z" />
    <glyph glyph-name="ccedilla" unicode="&#xe7;" horiz-adv-x="900" 
d="M394.5 967.5q-92.5 -47.5 -139 -151.5t-46.5 -272q0 -254 95.5 -366.5t287.5 -112.5q122 0 265 51v-84q-134 -50 -275 -50h-10v-93q78 -5 120 -42.5t42 -103.5q0 -70 -49.5 -108.5t-138.5 -38.5q-46 0 -94 10t-81 28v62q82 -41 175 -41q61 0 91.5 22t30.5 67q0 47 -31 69
t-93 22h-37v151q-392 42 -392 554q0 286 129 421.5t381 135.5q129 0 232 -32v-84q-116 34 -227 34q-143 0 -235.5 -47.5z" />
    <glyph glyph-name="egrave" unicode="&#xe8;" horiz-adv-x="1063" 
d="M967 505h-759q6 -231 111.5 -336.5t306.5 -105.5q126 0 290 52v-84q-153 -49 -297 -49q-247 0 -375.5 136t-128.5 423q0 277 114.5 416.5t318.5 139.5q203 0 311 -138.5t108 -418.5v-35zM300 914q-87 -105 -92 -332h669q-5 228 -88 332.5t-242 104.5q-160 0 -247 -105z
M507 1261l-256 355h104l240 -355h-88z" />
    <glyph glyph-name="eacute" unicode="&#xe9;" horiz-adv-x="1063" 
d="M967 505h-759q6 -231 111.5 -336.5t306.5 -105.5q126 0 290 52v-84q-153 -49 -297 -49q-247 0 -375.5 136t-128.5 423q0 277 114.5 416.5t318.5 139.5q203 0 311 -138.5t108 -418.5v-35zM300 914q-87 -105 -92 -332h669q-5 228 -88 332.5t-242 104.5q-160 0 -247 -105z
M507 1261l240 355h103l-255 -355h-88z" />
    <glyph glyph-name="ecircumflex" unicode="&#xea;" horiz-adv-x="1063" 
d="M967 505h-759q6 -231 111.5 -336.5t306.5 -105.5q126 0 290 52v-84q-153 -49 -297 -49q-247 0 -375.5 136t-128.5 423q0 277 114.5 416.5t318.5 139.5q203 0 311 -138.5t108 -418.5v-35zM300 914q-87 -105 -92 -332h669q-5 228 -88 332.5t-242 104.5q-160 0 -247 -105z
M837 1261h-88l-198 298l-198 -298h-89l241 355h92z" />
    <glyph glyph-name="edieresis" unicode="&#xeb;" horiz-adv-x="1063" 
d="M967 505h-759q6 -231 111.5 -336.5t306.5 -105.5q126 0 290 52v-84q-153 -49 -297 -49q-247 0 -375.5 136t-128.5 423q0 277 114.5 416.5t318.5 139.5q203 0 311 -138.5t108 -418.5v-35zM300 914q-87 -105 -92 -332h669q-5 228 -88 332.5t-242 104.5q-160 0 -247 -105z
M274.5 1370q-19.5 19 -19.5 52q0 32 20 52t52 20t51.5 -20t19.5 -52q0 -33 -19.5 -52t-51.5 -19q-33 0 -52.5 19zM722.5 1370q-19.5 19 -19.5 52q0 32 20 52t52 20t52 -20t20 -52q0 -33 -19.5 -52t-52.5 -19t-52.5 19z" />
    <glyph glyph-name="igrave" unicode="&#xec;" horiz-adv-x="447" 
d="M178 0v1081h91v-1081h-91zM180 1261l-256 355h104l240 -355h-88z" />
    <glyph glyph-name="iacute" unicode="&#xed;" horiz-adv-x="447" 
d="M178 0v1081h91v-1081h-91zM180 1261l240 355h103l-255 -355h-88z" />
    <glyph glyph-name="icircumflex" unicode="&#xee;" horiz-adv-x="447" 
d="M178 0v1081h91v-1081h-91zM510 1261h-88l-198 298l-198 -298h-89l241 355h92z" />
    <glyph glyph-name="idieresis" unicode="&#xef;" horiz-adv-x="447" 
d="M178 0v1081h91v-1081h-91zM-52.5 1370q-19.5 19 -19.5 52q0 32 20 52t52 20t51.5 -20t19.5 -52q0 -33 -19.5 -52t-51.5 -19q-33 0 -52.5 19zM395.5 1370q-19.5 19 -19.5 52q0 32 20 52t52 20t52 -20t20 -52q0 -33 -19.5 -52t-52.5 -19t-52.5 19z" />
    <glyph glyph-name="eth" unicode="&#xf0;" horiz-adv-x="1144" 
d="M959.5 961.5q67.5 -195.5 67.5 -388.5q0 -298 -120.5 -444.5t-332.5 -146.5q-217 0 -338 136t-121 422q0 283 121 420t333 137q186 0 293 -114q-67 180 -178 326l-457 -73l-11 68l419 67q-113 131 -272 245h123q133 -92 242 -230l266 43l11 -68l-230 -37
q117 -167 184.5 -362.5zM840 178.5q95 115.5 95 359.5q0 254 -94 366t-269 112t-269.5 -111t-94.5 -362q0 -254 94.5 -367t271.5 -113q171 0 266 115.5z" />
    <glyph glyph-name="ntilde" unicode="&#xf1;" horiz-adv-x="1177" 
d="M178 1081h78l8 -130h8q76 71 173.5 108.5t204.5 37.5q364 0 364 -383v-714h-90v713q0 159 -73 229.5t-211 70.5q-99 0 -199 -40.5t-173 -127.5v-845h-90v1081zM667 1382.5q-35 10.5 -86 30.5q-42 17 -71.5 26t-57.5 9q-48 0 -87 -17.5t-74 -54.5v80q59 61 162 61
q39 0 74 -10.5t86 -30.5q42 -17 71.5 -26t57.5 -9q48 0 87 17.5t74 54.5v-79q-59 -62 -162 -62q-39 0 -74 10.5z" />
    <glyph glyph-name="ograve" unicode="&#xf2;" horiz-adv-x="1144" 
d="M235.5 118q-120.5 136 -120.5 422q0 283 121.5 420t335.5 137q216 0 336.5 -135.5t120.5 -421.5q0 -282 -122 -420t-335 -138q-216 0 -336.5 136zM841 175q94 112 94 363q0 254 -94 366t-269 112t-269.5 -111t-94.5 -362q0 -254 94.5 -367t269.5 -113t269 112zM528 1261
l-256 355h104l240 -355h-88z" />
    <glyph glyph-name="oacute" unicode="&#xf3;" horiz-adv-x="1144" 
d="M235.5 118q-120.5 136 -120.5 422q0 283 121.5 420t335.5 137q216 0 336.5 -135.5t120.5 -421.5q0 -282 -122 -420t-335 -138q-216 0 -336.5 136zM841 175q94 112 94 363q0 254 -94 366t-269 112t-269.5 -111t-94.5 -362q0 -254 94.5 -367t269.5 -113t269 112zM528 1261
l240 355h103l-255 -355h-88z" />
    <glyph glyph-name="ocircumflex" unicode="&#xf4;" horiz-adv-x="1144" 
d="M235.5 118q-120.5 136 -120.5 422q0 283 121.5 420t335.5 137q216 0 336.5 -135.5t120.5 -421.5q0 -282 -122 -420t-335 -138q-216 0 -336.5 136zM841 175q94 112 94 363q0 254 -94 366t-269 112t-269.5 -111t-94.5 -362q0 -254 94.5 -367t269.5 -113t269 112zM858 1261
h-88l-198 298l-198 -298h-89l241 355h92z" />
    <glyph glyph-name="otilde" unicode="&#xf5;" horiz-adv-x="1144" 
d="M235.5 118q-120.5 136 -120.5 422q0 283 121.5 420t335.5 137q216 0 336.5 -135.5t120.5 -421.5q0 -282 -122 -420t-335 -138q-216 0 -336.5 136zM841 175q94 112 94 363q0 254 -94 366t-269 112t-269.5 -111t-94.5 -362q0 -254 94.5 -367t269.5 -113t269 112z
M642 1382.5q-35 10.5 -86 30.5q-42 17 -71.5 26t-57.5 9q-48 0 -87 -17.5t-74 -54.5v80q59 61 162 61q39 0 74 -10.5t86 -30.5q42 -17 71.5 -26t57.5 -9q48 0 87 17.5t74 54.5v-79q-59 -62 -162 -62q-39 0 -74 10.5z" />
    <glyph glyph-name="odieresis" unicode="&#xf6;" horiz-adv-x="1144" 
d="M235.5 118q-120.5 136 -120.5 422q0 283 121.5 420t335.5 137q216 0 336.5 -135.5t120.5 -421.5q0 -282 -122 -420t-335 -138q-216 0 -336.5 136zM841 175q94 112 94 363q0 254 -94 366t-269 112t-269.5 -111t-94.5 -362q0 -254 94.5 -367t269.5 -113t269 112z
M295.5 1370q-19.5 19 -19.5 52q0 32 20 52t52 20t51.5 -20t19.5 -52q0 -33 -19.5 -52t-51.5 -19q-33 0 -52.5 19zM743.5 1370q-19.5 19 -19.5 52q0 32 20 52t52 20t52 -20t20 -52q0 -33 -19.5 -52t-52.5 -19t-52.5 19z" />
    <glyph glyph-name="divide" unicode="&#xf7;" horiz-adv-x="1088" 
d="M491 1042q-20 20 -20 53t20.5 53t52.5 20t52.5 -20t20.5 -53t-20.5 -53t-52.5 -20q-33 0 -53 20zM174 720v80h740v-80h-740zM491 371.5q-20 19.5 -20 52.5t20.5 53.5t52.5 20.5t52.5 -20.5t20.5 -53.5t-20 -52.5t-53 -19.5t-53 19.5z" />
    <glyph glyph-name="oslash" unicode="&#xf8;" horiz-adv-x="1144" 
d="M1029 540q0 -282 -122 -420t-335 -138q-187 0 -299 99l-75 -101l-57 44l82 110q-108 142 -108 406q0 283 121.5 420t335.5 137q187 0 298 -97l75 101l57 -43l-82 -111q109 -140 109 -407zM302 905q-94 -111 -94 -362q0 -216 72 -335l539 721q-88 87 -247 87
q-176 0 -270 -111zM841.5 175q94.5 112 94.5 363q0 219 -73 335l-539 -721q88 -89 248 -89q175 0 269.5 112z" />
    <glyph glyph-name="ugrave" unicode="&#xf9;" horiz-adv-x="1167" 
d="M258.5 72.5q-95.5 90.5 -95.5 288.5v720h90v-718q0 -158 73.5 -227.5t205.5 -69.5q99 0 197.5 42t169.5 127v846h90v-1081h-78l-7 125h-9q-75 -70 -171 -106.5t-202 -36.5q-168 0 -263.5 90.5zM532 1261l-256 355h104l240 -355h-88z" />
    <glyph glyph-name="uacute" unicode="&#xfa;" horiz-adv-x="1167" 
d="M258.5 72.5q-95.5 90.5 -95.5 288.5v720h90v-718q0 -158 73.5 -227.5t205.5 -69.5q99 0 197.5 42t169.5 127v846h90v-1081h-78l-7 125h-9q-75 -70 -171 -106.5t-202 -36.5q-168 0 -263.5 90.5zM532 1261l240 355h103l-255 -355h-88z" />
    <glyph glyph-name="ucircumflex" unicode="&#xfb;" horiz-adv-x="1167" 
d="M258.5 72.5q-95.5 90.5 -95.5 288.5v720h90v-718q0 -158 73.5 -227.5t205.5 -69.5q99 0 197.5 42t169.5 127v846h90v-1081h-78l-7 125h-9q-75 -70 -171 -106.5t-202 -36.5q-168 0 -263.5 90.5zM862 1261h-88l-198 298l-198 -298h-89l241 355h92z" />
    <glyph glyph-name="udieresis" unicode="&#xfc;" horiz-adv-x="1167" 
d="M258.5 72.5q-95.5 90.5 -95.5 288.5v720h90v-718q0 -158 73.5 -227.5t205.5 -69.5q99 0 197.5 42t169.5 127v846h90v-1081h-78l-7 125h-9q-75 -70 -171 -106.5t-202 -36.5q-168 0 -263.5 90.5zM299.5 1370q-19.5 19 -19.5 52q0 32 20 52t52 20t51.5 -20t19.5 -52
q0 -33 -19.5 -52t-51.5 -19q-33 0 -52.5 19zM747.5 1370q-19.5 19 -19.5 52q0 32 20 52t52 20t52 -20t20 -52q0 -33 -19.5 -52t-52.5 -19t-52.5 19z" />
    <glyph glyph-name="yacute" unicode="&#xfd;" horiz-adv-x="1078" 
d="M956 1081h93l-633 -1521h-93l183 440h-27l-450 1081h99l412 -1010zM497 1261l240 355h103l-255 -355h-88z" />
    <glyph glyph-name="thorn" unicode="&#xfe;" horiz-adv-x="1163" 
d="M178 1616h90v-659h7q60 66 145 103t189 37q199 0 319.5 -129t120.5 -407q0 -292 -139.5 -435.5t-416.5 -143.5q-109 0 -225 20v-442h-90v2056zM842 181q113 118 113 370q0 249 -96 356t-264 107q-95 0 -181.5 -40t-145.5 -122v-762q47 -13 107.5 -20t121.5 -7
q232 0 345 118z" />
    <glyph glyph-name="ydieresis" unicode="&#xff;" horiz-adv-x="1078" 
d="M956 1081h93l-633 -1521h-93l183 440h-27l-450 1081h99l412 -1010zM264.5 1370q-19.5 19 -19.5 52q0 32 20 52t52 20t51.5 -20t19.5 -52q0 -33 -19.5 -52t-51.5 -19q-33 0 -52.5 19zM712.5 1370q-19.5 19 -19.5 52q0 32 20 52t52 20t52 -20t20 -52q0 -33 -19.5 -52
t-52.5 -19t-52.5 19z" />
    <glyph glyph-name="Amacron" unicode="&#x100;" horiz-adv-x="1379" 
d="M1241 0l-204 516h-698l-204 -516h-95l589 1480h120l589 -1480h-97zM372 599h632l-316 800zM396 1716v71h588v-71h-588z" />
    <glyph glyph-name="amacron" unicode="&#x101;" horiz-adv-x="1055" 
d="M714 1063q87 -34 132.5 -114t45.5 -215v-734h-78l-8 129h-8q-58 -67 -151 -106t-197 -39q-157 0 -245 75.5t-88 210.5q0 136 91 211t292 98l302 36v119q0 110 -35 171.5t-102.5 86t-173.5 24.5q-73 0 -153 -12.5t-158 -40.5v83q65 25 149.5 38t165.5 13q132 0 219 -34z
M645 103q89 40 157 120v316l-301 -36q-154 -18 -221.5 -72t-67.5 -154q0 -104 62 -159t186 -55q96 0 185 40zM218 1388v71h612v-71h-612z" />
    <glyph glyph-name="Abreve" unicode="&#x102;" horiz-adv-x="1379" 
d="M1241 0l-204 516h-698l-204 -516h-95l589 1480h120l589 -1480h-97zM372 599h632l-316 800zM468.5 1689.5q-78.5 64.5 -89.5 173.5h71q13 -84 68.5 -127t173.5 -43q117 0 171.5 43t66.5 127h71q-11 -110 -88 -174t-221 -64q-145 0 -223.5 64.5z" />
    <glyph glyph-name="abreve" unicode="&#x103;" horiz-adv-x="1055" 
d="M714 1063q87 -34 132.5 -114t45.5 -215v-734h-78l-8 129h-8q-58 -67 -151 -106t-197 -39q-157 0 -245 75.5t-88 210.5q0 136 91 211t292 98l302 36v119q0 110 -35 171.5t-102.5 86t-173.5 24.5q-73 0 -153 -12.5t-158 -40.5v83q65 25 149.5 38t165.5 13q132 0 219 -34z
M645 103q89 40 157 120v316l-301 -36q-154 -18 -221.5 -72t-67.5 -154q0 -104 62 -159t186 -55q96 0 185 40zM315 1358q-76 85 -82 230h71q16 -248 222 -248q106 0 158.5 64t59.5 184h71q-6 -147 -81 -231t-208 -84q-135 0 -211 85z" />
    <glyph glyph-name="Aogonek" unicode="&#x104;" horiz-adv-x="1379" 
d="M1365 -335.5q41 9.5 98 30.5v-60q-92 -39 -179 -39q-107 0 -164 45.5t-57 127.5q0 70 40 129t133 114l-199 504h-698l-204 -516h-95l589 1480h120l589 -1480q-117 -56 -162.5 -109.5t-45.5 -117.5q0 -57 39.5 -87.5t114.5 -30.5q40 0 81 9.5zM372 599h632l-316 800z" />
    <glyph glyph-name="aogonek" unicode="&#x105;" horiz-adv-x="1055" 
d="M999 -301v-62q-35 -19 -78.5 -30t-82.5 -11q-94 0 -147.5 46.5t-53.5 126.5q0 73 42.5 135t133.5 118l-7 107h-8q-58 -67 -151 -106t-197 -39q-157 0 -245 75.5t-88 210.5q0 136 91 211t292 98l302 36v119q0 110 -35 171.5t-102.5 86t-173.5 24.5q-73 0 -153 -12.5
t-158 -40.5v83q65 25 149.5 38t165.5 13q132 0 219 -34t132.5 -114t45.5 -215v-734q-101 -56 -144.5 -109t-43.5 -118q0 -55 36 -86.5t98 -31.5q80 0 161 44zM645 103q89 40 157 120v316l-301 -36q-154 -18 -221.5 -72t-67.5 -154q0 -104 62 -159t186 -55q96 0 185 40z" />
    <glyph glyph-name="Cacute" unicode="&#x106;" horiz-adv-x="1198" 
d="M125 738q0 390 177 575t502 185q94 0 178 -12t170 -37v-86q-169 51 -348 51q-287 0 -435 -158.5t-148 -513.5q0 -249 69 -398.5t194.5 -213.5t306.5 -64q94 0 178.5 14.5t182.5 48.5v-86q-167 -61 -365 -61q-662 0 -662 756zM680 1614l199 275h105l-216 -275h-88z" />
    <glyph glyph-name="cacute" unicode="&#x107;" horiz-adv-x="900" 
d="M115 540q0 286 129 421.5t381 135.5q129 0 232 -32v-84q-116 34 -227 34q-143 0 -235.5 -47.5t-139 -151.5t-46.5 -272q0 -254 95.5 -366.5t287.5 -112.5q122 0 265 51v-84q-134 -50 -275 -50q-467 0 -467 558zM496 1261l240 355h103l-255 -355h-88z" />
    <glyph glyph-name="Ccircumflex" unicode="&#x108;" horiz-adv-x="1198" 
d="M125 738q0 390 177 575t502 185q94 0 178 -12t170 -37v-86q-169 51 -348 51q-287 0 -435 -158.5t-148 -513.5q0 -249 69 -398.5t194.5 -213.5t306.5 -64q94 0 178.5 14.5t182.5 48.5v-86q-167 -61 -365 -61q-662 0 -662 756zM1034 1614h-101l-209 223l-209 -223h-101
l263 275h93z" />
    <glyph glyph-name="ccircumflex" unicode="&#x109;" horiz-adv-x="900" 
d="M115 540q0 286 129 421.5t381 135.5q129 0 232 -32v-84q-116 34 -227 34q-143 0 -235.5 -47.5t-139 -151.5t-46.5 -272q0 -254 95.5 -366.5t287.5 -112.5q122 0 265 51v-84q-134 -50 -275 -50q-467 0 -467 558zM826 1261h-88l-198 298l-198 -298h-89l241 355h92z" />
    <glyph glyph-name="Cdotaccent" unicode="&#x10a;" horiz-adv-x="1198" 
d="M125 738q0 390 177 575t502 185q94 0 178 -12t170 -37v-86q-169 51 -348 51q-287 0 -435 -158.5t-148 -513.5q0 -249 69 -398.5t194.5 -213.5t306.5 -64q94 0 178.5 14.5t182.5 48.5v-86q-167 -61 -365 -61q-662 0 -662 756zM670.5 1701.5q-20.5 18.5 -20.5 50.5
t20.5 51.5t53.5 19.5t53.5 -19.5t20.5 -51.5t-20.5 -50.5t-53.5 -18.5t-53.5 18.5z" />
    <glyph glyph-name="cdotaccent" unicode="&#x10b;" horiz-adv-x="900" 
d="M115 540q0 286 129 421.5t381 135.5q129 0 232 -32v-84q-116 34 -227 34q-143 0 -235.5 -47.5t-139 -151.5t-46.5 -272q0 -254 95.5 -366.5t287.5 -112.5q122 0 265 51v-84q-134 -50 -275 -50q-467 0 -467 558zM486 1370q-20 19 -20 52t20 53t54 20t54 -20t20 -53
t-20 -52t-54 -19t-54 19z" />
    <glyph glyph-name="Ccaron" unicode="&#x10c;" horiz-adv-x="1198" 
d="M125 738q0 390 177 575t502 185q94 0 178 -12t170 -37v-86q-169 51 -348 51q-287 0 -435 -158.5t-148 -513.5q0 -249 69 -398.5t194.5 -213.5t306.5 -64q94 0 178.5 14.5t182.5 48.5v-86q-167 -61 -365 -61q-662 0 -662 756zM933 1889h101l-264 -275h-93l-263 275h101
l209 -223z" />
    <glyph glyph-name="ccaron" unicode="&#x10d;" horiz-adv-x="900" 
d="M115 540q0 286 129 421.5t381 135.5q129 0 232 -32v-84q-116 34 -227 34q-143 0 -235.5 -47.5t-139 -151.5t-46.5 -272q0 -254 95.5 -366.5t287.5 -112.5q122 0 265 51v-84q-134 -50 -275 -50q-467 0 -467 558zM744 1616h88l-246 -355h-92l-246 355h88l204 -301z" />
    <glyph glyph-name="Dcaron" unicode="&#x10e;" horiz-adv-x="1450" 
d="M382 -5q-81 5 -184 18v1443q90 19 189 28.5t192 9.5q370 0 558 -188t188 -566q0 -380 -192 -565t-575 -185q-95 0 -176 5zM1066 234.5q164 161.5 164 505.5q0 343 -162 507t-492 164q-128 0 -287 -25v-1295q119 -18 278 -18q335 0 499 161.5zM873 1889h101l-264 -275h-93
l-263 275h101l209 -223z" />
    <glyph glyph-name="dcaron" unicode="&#x10f;" horiz-adv-x="1163" 
d="M236 113q-121 131 -121 406q0 291 139.5 434.5t415.5 143.5q113 0 225 -21v540h90v-1616h-78l-8 125h-8q-58 -67 -143.5 -105t-186.5 -38q-204 0 -325 131zM752 105q84 40 143 125v759q-46 13 -107 20t-121 7q-232 0 -345.5 -118t-113.5 -370q0 -247 95.5 -355
t269.5 -108q95 0 179 40zM1113 1616h77q0 -109 -9.5 -223.5t-29.5 -212.5h-57q19 167 19 436z" />
    <glyph glyph-name="Dcroat" unicode="&#x110;" horiz-adv-x="1450" 
d="M1137 1306q188 -188 188 -566q0 -380 -192 -565t-575 -185q-95 0 -176 5t-184 18v713h-193v73h193v657q90 19 189 28.5t192 9.5q370 0 558 -188zM1066 234.5q164 161.5 164 505.5q0 343 -162 507t-492 164q-128 0 -287 -25v-587h387v-73h-387v-635q119 -18 278 -18
q335 0 499 161.5z" />
    <glyph glyph-name="dcroat" unicode="&#x111;" horiz-adv-x="1163" 
d="M1151 1320h-166v-1320h-78l-8 125h-8q-58 -67 -143.5 -105t-186.5 -38q-204 0 -325 131t-121 406q0 291 139.5 434.5t415.5 143.5q113 0 225 -21v244h-393v72h393v224h90v-224h166v-72zM895 989q-46 13 -107 20t-121 7q-232 0 -345.5 -118t-113.5 -370q0 -247 95.5 -355
t269.5 -108q95 0 179 40t143 125v759z" />
    <glyph glyph-name="Emacron" unicode="&#x112;" horiz-adv-x="1212" 
d="M288 83h834v-83h-924v1480h914v-83h-824v-595h726v-83h-726v-636zM382 1716v71h588v-71h-588z" />
    <glyph glyph-name="emacron" unicode="&#x113;" horiz-adv-x="1063" 
d="M967 505h-759q6 -231 111.5 -336.5t306.5 -105.5q126 0 290 52v-84q-153 -49 -297 -49q-247 0 -375.5 136t-128.5 423q0 277 114.5 416.5t318.5 139.5q203 0 311 -138.5t108 -418.5v-35zM300 914q-87 -105 -92 -332h669q-5 228 -88 332.5t-242 104.5q-160 0 -247 -105z
M245 1388v71h612v-71h-612z" />
    <glyph glyph-name="Ebreve" unicode="&#x114;" horiz-adv-x="1212" 
d="M288 83h834v-83h-924v1480h914v-83h-824v-595h726v-83h-726v-636zM454.5 1689.5q-78.5 64.5 -89.5 173.5h71q13 -84 68.5 -127t173.5 -43q117 0 171.5 43t66.5 127h71q-11 -110 -88 -174t-221 -64q-145 0 -223.5 64.5z" />
    <glyph glyph-name="ebreve" unicode="&#x115;" horiz-adv-x="1063" 
d="M967 505h-759q6 -231 111.5 -336.5t306.5 -105.5q126 0 290 52v-84q-153 -49 -297 -49q-247 0 -375.5 136t-128.5 423q0 277 114.5 416.5t318.5 139.5q203 0 311 -138.5t108 -418.5v-35zM300 914q-87 -105 -92 -332h669q-5 228 -88 332.5t-242 104.5q-160 0 -247 -105z
M342 1358q-76 85 -82 230h71q16 -248 222 -248q106 0 158.5 64t59.5 184h71q-6 -147 -81 -231t-208 -84q-135 0 -211 85z" />
    <glyph glyph-name="Edotaccent" unicode="&#x116;" horiz-adv-x="1212" 
d="M288 83h834v-83h-924v1480h914v-83h-824v-595h726v-83h-726v-636zM622.5 1701.5q-20.5 18.5 -20.5 50.5t20.5 51.5t53.5 19.5t53.5 -19.5t20.5 -51.5t-20.5 -50.5t-53.5 -18.5t-53.5 18.5z" />
    <glyph glyph-name="edotaccent" unicode="&#x117;" horiz-adv-x="1063" 
d="M967 505h-759q6 -231 111.5 -336.5t306.5 -105.5q126 0 290 52v-84q-153 -49 -297 -49q-247 0 -375.5 136t-128.5 423q0 277 114.5 416.5t318.5 139.5q203 0 311 -138.5t108 -418.5v-35zM300 914q-87 -105 -92 -332h669q-5 228 -88 332.5t-242 104.5q-160 0 -247 -105z
M497 1370q-20 19 -20 52t20 53t54 20t54 -20t20 -53t-20 -52t-54 -19t-54 19z" />
    <glyph glyph-name="Eogonek" unicode="&#x118;" horiz-adv-x="1212" 
d="M1068 -335.5q41 9.5 98 30.5v-60q-92 -39 -179 -39q-107 0 -164 45.5t-57 127.5q0 66 35.5 122.5t117.5 108.5h-721v1480h914v-83h-824v-595h726v-83h-726v-636h834v-83h-81q-117 -56 -162.5 -109.5t-45.5 -117.5q0 -57 39.5 -87.5t114.5 -30.5q40 0 81 9.5z" />
    <glyph glyph-name="eogonek" unicode="&#x119;" horiz-adv-x="1063" 
d="M967 505h-759q6 -231 111.5 -336.5t306.5 -105.5q126 0 290 52v-84q-295 -90 -295 -256q0 -57 35.5 -88.5t98.5 -31.5q80 0 161 44v-62q-35 -19 -78.5 -30t-82.5 -11q-94 0 -147.5 46.5t-53.5 126.5q0 64 33 119.5t95 96.5q-31 -3 -63 -3q-247 0 -375.5 136t-128.5 423
q0 277 114.5 416.5t318.5 139.5q203 0 311 -138.5t108 -418.5v-35zM300 914q-87 -105 -92 -333h669q-5 228 -88 333t-242 105q-160 0 -247 -105z" />
    <glyph glyph-name="Ecaron" unicode="&#x11a;" horiz-adv-x="1212" 
d="M288 83h834v-83h-924v1480h914v-83h-824v-595h726v-83h-726v-636zM885 1889h101l-264 -275h-93l-263 275h101l209 -223z" />
    <glyph glyph-name="ecaron" unicode="&#x11b;" horiz-adv-x="1063" 
d="M967 505h-759q6 -231 111.5 -336.5t306.5 -105.5q126 0 290 52v-84q-153 -49 -297 -49q-247 0 -375.5 136t-128.5 423q0 277 114.5 416.5t318.5 139.5q203 0 311 -138.5t108 -418.5v-35zM300 914q-87 -105 -92 -332h669q-5 228 -88 332.5t-242 104.5q-160 0 -247 -105z
M755 1616h88l-246 -355h-92l-246 355h88l204 -301z" />
    <glyph glyph-name="Gcircumflex" unicode="&#x11c;" horiz-adv-x="1410" 
d="M1229 720v-702q-101 -16 -179.5 -22.5t-166.5 -6.5q-375 0 -566 184.5t-192 564.5q0 262 89.5 431.5t248.5 249t373 79.5q90 0 176 -12.5t182 -37.5v-85q-101 28 -185 39.5t-169 11.5q-290 0 -455 -160.5t-165 -510.5q0 -344 164.5 -507t496.5 -163q141 0 260 19v628h88z
M1073 1614h-101l-209 223l-209 -223h-101l263 275h93z" />
    <glyph glyph-name="gcircumflex" unicode="&#x11d;" horiz-adv-x="1163" 
d="M342.5 -445.5q-88.5 14.5 -159.5 39.5v84q169 -56 323 -56q135 0 220 37.5t127 123t42 227.5v110h-7q-60 -63 -146 -100t-190 -37q-128 0 -225.5 54t-154.5 174t-57 308q0 290 138 434t408 144q169 0 324 -46v-1031q0 -253 -118 -366.5t-360 -113.5q-76 0 -164.5 14.5z
M748.5 104.5q86.5 38.5 146.5 116.5v766q-112 29 -242 29q-222 0 -333.5 -118.5t-111.5 -369.5q0 -248 96 -355t263 -107q95 0 181.5 38.5zM885 1261h-88l-198 298l-198 -298h-89l241 355h92z" />
    <glyph glyph-name="Gbreve" unicode="&#x11e;" horiz-adv-x="1410" 
d="M1229 720v-702q-101 -16 -179.5 -22.5t-166.5 -6.5q-375 0 -566 184.5t-192 564.5q0 262 89.5 431.5t248.5 249t373 79.5q90 0 176 -12.5t182 -37.5v-85q-101 28 -185 39.5t-169 11.5q-290 0 -455 -160.5t-165 -510.5q0 -344 164.5 -507t496.5 -163q141 0 260 19v628h88z
M541.5 1689.5q-78.5 64.5 -89.5 173.5h71q13 -84 68.5 -127t173.5 -43q117 0 171.5 43t66.5 127h71q-11 -110 -88 -174t-221 -64q-145 0 -223.5 64.5z" />
    <glyph glyph-name="gbreve" unicode="&#x11f;" horiz-adv-x="1163" 
d="M342.5 -445.5q-88.5 14.5 -159.5 39.5v84q169 -56 323 -56q135 0 220 37.5t127 123t42 227.5v110h-7q-60 -63 -146 -100t-190 -37q-128 0 -225.5 54t-154.5 174t-57 308q0 290 138 434t408 144q169 0 324 -46v-1031q0 -253 -118 -366.5t-360 -113.5q-76 0 -164.5 14.5z
M748.5 104.5q86.5 38.5 146.5 116.5v766q-112 29 -242 29q-222 0 -333.5 -118.5t-111.5 -369.5q0 -248 96 -355t263 -107q95 0 181.5 38.5zM390 1358q-76 85 -82 230h71q16 -248 222 -248q106 0 158.5 64t59.5 184h71q-6 -147 -81 -231t-208 -84q-135 0 -211 85z" />
    <glyph glyph-name="Gdotaccent" unicode="&#x120;" horiz-adv-x="1410" 
d="M1229 720v-702q-101 -16 -179.5 -22.5t-166.5 -6.5q-375 0 -566 184.5t-192 564.5q0 262 89.5 431.5t248.5 249t373 79.5q90 0 176 -12.5t182 -37.5v-85q-101 28 -185 39.5t-169 11.5q-290 0 -455 -160.5t-165 -510.5q0 -344 164.5 -507t496.5 -163q141 0 260 19v628h88z
M709.5 1701.5q-20.5 18.5 -20.5 50.5t20.5 51.5t53.5 19.5t53.5 -19.5t20.5 -51.5t-20.5 -50.5t-53.5 -18.5t-53.5 18.5z" />
    <glyph glyph-name="gdotaccent" unicode="&#x121;" horiz-adv-x="1163" 
d="M342.5 -445.5q-88.5 14.5 -159.5 39.5v84q169 -56 323 -56q135 0 220 37.5t127 123t42 227.5v110h-7q-60 -63 -146 -100t-190 -37q-128 0 -225.5 54t-154.5 174t-57 308q0 290 138 434t408 144q169 0 324 -46v-1031q0 -253 -118 -366.5t-360 -113.5q-76 0 -164.5 14.5z
M748.5 104.5q86.5 38.5 146.5 116.5v766q-112 29 -242 29q-222 0 -333.5 -118.5t-111.5 -369.5q0 -248 96 -355t263 -107q95 0 181.5 38.5zM545 1370q-20 19 -20 52t20 53t54 20t54 -20t20 -53t-20 -52t-54 -19t-54 19z" />
    <glyph glyph-name="Gcommaaccent" unicode="&#x122;" horiz-adv-x="1410" 
d="M1229 720v-702q-101 -16 -179.5 -22.5t-166.5 -6.5q-375 0 -566 184.5t-192 564.5q0 262 89.5 431.5t248.5 249t373 79.5q90 0 176 -12.5t182 -37.5v-85q-101 28 -185 39.5t-169 11.5q-290 0 -455 -160.5t-165 -510.5q0 -344 164.5 -507t496.5 -163q141 0 260 19v628h88z
M815.5 -202q19.5 -23 19.5 -69q0 -40 -12 -88t-35 -93h-57q30 77 35 138h-3q-33 0 -52.5 19t-19.5 50q0 29 18.5 47.5t49.5 18.5q37 0 56.5 -23z" />
    <glyph glyph-name="gcommaaccent" unicode="&#x123;" horiz-adv-x="1163" 
d="M342.5 -445.5q-88.5 14.5 -159.5 39.5v84q169 -56 323 -56q135 0 220 37.5t127 123t42 227.5v110h-7q-60 -63 -146 -100t-190 -37q-128 0 -225.5 54t-154.5 174t-57 308q0 290 138 434t408 144q169 0 324 -46v-1031q0 -253 -118 -366.5t-360 -113.5q-76 0 -164.5 14.5z
M748.5 104.5q86.5 38.5 146.5 116.5v766q-112 29 -242 29q-222 0 -333.5 -118.5t-111.5 -369.5q0 -248 96 -355t263 -107q95 0 181.5 38.5zM651.5 1467q19.5 -19 19.5 -50q0 -29 -18.5 -47.5t-49.5 -18.5q-37 0 -56.5 23t-19.5 68q0 40 12 89t35 93h57q-30 -77 -35 -138h3
q33 0 52.5 -19z" />
    <glyph glyph-name="Hcircumflex" unicode="&#x124;" horiz-adv-x="1498" 
d="M198 0v1480h91v-677h921v677h90v-1480h-90v718h-921v-718h-91zM1059 1614h-101l-209 223l-209 -223h-101l263 275h93z" />
    <glyph glyph-name="hcircumflex" unicode="&#x125;" horiz-adv-x="1177" 
d="M178 1616h90v-662h7q75 71 171.5 107t205.5 36q171 0 266.5 -90t95.5 -288v-719h-90v716q0 158 -73.5 226.5t-210.5 68.5q-102 0 -201 -41t-171 -126v-844h-90v1616zM907 1710h-101l-209 223l-209 -223h-101l263 275h93z" />
    <glyph glyph-name="Hbar" unicode="&#x126;" horiz-adv-x="1498" 
d="M1493 1180v-72h-193v-1108h-90v718h-921v-718h-91v1108h-193v72h193v300h91v-300h921v300h90v-300h193zM1210 803v305h-921v-305h921z" />
    <glyph glyph-name="hbar" unicode="&#x127;" horiz-adv-x="1177" 
d="M918.5 1007q95.5 -90 95.5 -288v-719h-90v716q0 158 -73.5 226.5t-210.5 68.5q-102 0 -201 -41t-171 -126v-844h-90v1320h-166v72h166v224h90v-224h393v-72h-393v-366h7q75 71 171.5 107t205.5 36q171 0 266.5 -90z" />
    <glyph glyph-name="Itilde" unicode="&#x128;" horiz-adv-x="487" 
d="M198 0v1480h91v-1480h-91zM318.5 1701q-36.5 10 -91.5 30q-46 18 -77 26.5t-62 8.5q-54 0 -93.5 -17t-76.5 -54v78q61 61 170 61q42 0 79 -10t92 -30q46 -18 77 -26.5t62 -8.5q53 0 93 17t76 54v-78q-59 -61 -170 -61q-42 0 -78.5 10z" />
    <glyph glyph-name="itilde" unicode="&#x129;" horiz-adv-x="447" 
d="M178 0v1081h91v-1081h-91zM294 1382.5q-35 10.5 -86 30.5q-42 17 -71.5 26t-57.5 9q-48 0 -87 -17.5t-74 -54.5v80q59 61 162 61q39 0 74 -10.5t86 -30.5q42 -17 71.5 -26t57.5 -9q48 0 87 17.5t74 54.5v-79q-59 -62 -162 -62q-39 0 -74 10.5z" />
    <glyph glyph-name="Imacron" unicode="&#x12a;" horiz-adv-x="487" 
d="M198 0v1480h91v-1480h-91zM-51 1716v71h588v-71h-588z" />
    <glyph glyph-name="imacron" unicode="&#x12b;" horiz-adv-x="447" 
d="M178 0v1081h91v-1081h-91zM-82 1388v71h612v-71h-612z" />
    <glyph glyph-name="Ibreve" unicode="&#x12c;" horiz-adv-x="487" 
d="M198 0v1480h91v-1480h-91zM21.5 1689.5q-78.5 64.5 -89.5 173.5h71q13 -84 68.5 -127t173.5 -43q117 0 171.5 43t66.5 127h71q-11 -110 -88 -174t-221 -64q-145 0 -223.5 64.5z" />
    <glyph glyph-name="ibreve" unicode="&#x12d;" horiz-adv-x="447" 
d="M178 0v1081h91v-1081h-91zM15 1358q-76 85 -82 230h71q16 -248 222 -248q106 0 158.5 64t59.5 184h71q-6 -147 -81 -231t-208 -84q-135 0 -211 85z" />
    <glyph glyph-name="Iogonek" unicode="&#x12e;" horiz-adv-x="487" 
d="M316 -335.5q41 9.5 98 30.5v-60q-92 -39 -179 -39q-107 0 -164 45.5t-57 127.5q0 72 42.5 133t141.5 117v1461h91v-1480q-117 -56 -162.5 -109.5t-45.5 -117.5q0 -57 39.5 -87.5t114.5 -30.5q40 0 81 9.5z" />
    <glyph glyph-name="iogonek" unicode="&#x12f;" horiz-adv-x="447" 
d="M170 1370q-20 19 -20 52t20 53t54 20t54 -20t20 -53t-20 -52t-54 -19t-54 19zM376 -301v-62q-35 -19 -78.5 -30t-82.5 -11q-94 0 -147.5 46.5t-53.5 126.5q0 71 39.5 131t124.5 115v1066h91v-1081q-101 -56 -144.5 -109t-43.5 -118q0 -55 36 -86.5t98 -31.5q80 0 161 44z
" />
    <glyph glyph-name="Idotaccent" unicode="&#x130;" horiz-adv-x="487" 
d="M198 0v1480h91v-1480h-91zM189.5 1701.5q-20.5 18.5 -20.5 50.5t20.5 51.5t53.5 19.5t53.5 -19.5t20.5 -51.5t-20.5 -50.5t-53.5 -18.5t-53.5 18.5z" />
    <glyph glyph-name="dotlessi" unicode="&#x131;" horiz-adv-x="447" 
d="M178 0v1081h91v-1081h-91z" />
    <glyph glyph-name="Jcircumflex" unicode="&#x134;" horiz-adv-x="487" 
d="M0 -296q104 133 151 271t47 312v1193h91v-1224q-9 -177 -60.5 -315t-166.5 -282zM553 1614h-101l-209 223l-209 -223h-101l263 275h93z" />
    <glyph glyph-name="jcircumflex" unicode="&#x135;" horiz-adv-x="447" 
d="M-20 -417q104 134 151 272t47 312v914h91v-908q0 -188 -54 -336.5t-173 -297.5zM509 1270h-88l-198 298l-198 -298h-89l241 355h92z" />
    <glyph glyph-name="Kcommaaccent" unicode="&#x136;" horiz-adv-x="1267" 
d="M1157 0l-591 718h-277v-718h-91v1480h91v-677h280l548 677h107l-583 -718l626 -762h-110zM705.5 -202q19.5 -23 19.5 -69q0 -40 -12 -88t-35 -93h-57q30 77 35 138h-3q-33 0 -52.5 19t-19.5 50q0 29 18.5 47.5t49.5 18.5q37 0 56.5 -23z" />
    <glyph glyph-name="kcommaaccent" unicode="&#x137;" horiz-adv-x="1039" 
d="M942 0l-448 513h-226v-513h-90v1616h90v-1023h225l418 488h108l-448 -527l480 -554h-109zM609.5 -202q19.5 -23 19.5 -69q0 -40 -12 -88t-35 -93h-57q30 77 35 138h-3q-33 0 -52.5 19t-19.5 50q0 29 18.5 47.5t49.5 18.5q37 0 56.5 -23z" />
    <glyph glyph-name="kgreenlandic" unicode="&#x138;" horiz-adv-x="1039" 
d="M942 0l-448 513h-226v-513h-90v1081h90v-488h225l418 488h108l-448 -527l480 -554h-109z" />
    <glyph glyph-name="Lacute" unicode="&#x139;" horiz-adv-x="1106" 
d="M198 0v1480h91v-1396h800v-84h-891zM200 1614l199 275h105l-216 -275h-88z" />
    <glyph glyph-name="lacute" unicode="&#x13a;" horiz-adv-x="447" 
d="M178 0v1616h90v-1616h-90zM180 1710l199 275h105l-216 -275h-88z" />
    <glyph glyph-name="Lcommaaccent" unicode="&#x13b;" horiz-adv-x="1106" 
d="M198 0v1480h91v-1396h800v-84h-891zM696.5 -202q19.5 -23 19.5 -69q0 -40 -12 -88t-35 -93h-57q30 77 35 138h-3q-33 0 -52.5 19t-19.5 50q0 29 18.5 47.5t49.5 18.5q37 0 56.5 -23z" />
    <glyph glyph-name="lcommaaccent" unicode="&#x13c;" horiz-adv-x="447" 
d="M178 0v1616h90v-1616h-90zM275.5 -202q19.5 -23 19.5 -69q0 -40 -12 -88t-35 -93h-57q30 77 35 138h-3q-33 0 -52.5 19t-19.5 50q0 29 18.5 47.5t49.5 18.5q37 0 56.5 -23z" />
    <glyph glyph-name="Lcaron" unicode="&#x13d;" horiz-adv-x="1106" 
d="M198 0v1480h91v-1396h800v-84h-891zM714.5 1350.5q3.5 114.5 3.5 265.5h77q0 -288 -39 -476h-57q12 96 15.5 210.5z" />
    <glyph glyph-name="lcaron" unicode="&#x13e;" horiz-adv-x="447" 
d="M178 0v1616h90v-1616h-90zM397 1616h77q0 -109 -9.5 -223.5t-29.5 -212.5h-57q19 167 19 436z" />
    <glyph glyph-name="Ldot" unicode="&#x13f;" horiz-adv-x="1106" 
d="M198 0v1480h91v-1396h800v-84h-891zM728 728q-20 19 -20 52t20 53t54 20t54 -20t20 -53t-20 -52t-54 -19t-54 19z" />
    <glyph glyph-name="ldot" unicode="&#x140;" horiz-adv-x="474" 
d="M178 0v1616h90v-1616h-90zM394 740q-20 19 -20 52t20 53t54 20q33 0 53 -20t20 -53t-20 -52t-53 -19q-34 0 -54 19z" />
    <glyph glyph-name="Lslash" unicode="&#x141;" horiz-adv-x="1106" 
d="M289 84h800v-84h-891v690l-155 -122l-44 59l199 157v696h91v-624l295 233l44 -59l-339 -268v-678z" />
    <glyph glyph-name="lslash" unicode="&#x142;" horiz-adv-x="447" 
d="M442 838l-174 -136v-702h-90v632l-126 -99l-43 57l169 132v894h90v-823l131 102z" />
    <glyph glyph-name="Nacute" unicode="&#x143;" horiz-adv-x="1527" 
d="M1242 1480h87v-1480h-97l-947 1343v-1343h-87v1480h97l947 -1345v1345zM720 1614l199 275h105l-216 -275h-88z" />
    <glyph glyph-name="nacute" unicode="&#x144;" horiz-adv-x="1177" 
d="M178 1081h78l8 -130h8q76 71 173.5 108.5t204.5 37.5q364 0 364 -383v-714h-90v713q0 159 -73 229.5t-211 70.5q-99 0 -199 -40.5t-173 -127.5v-845h-90v1081zM553 1261l240 355h103l-255 -355h-88z" />
    <glyph glyph-name="Ncommaaccent" unicode="&#x145;" horiz-adv-x="1527" 
d="M1242 1480h87v-1480h-97l-947 1343v-1343h-87v1480h97l947 -1345v1345zM816.5 -202q19.5 -23 19.5 -69q0 -40 -12 -88t-35 -93h-57q30 77 35 138h-3q-33 0 -52.5 19t-19.5 50q0 29 18.5 47.5t49.5 18.5q37 0 56.5 -23z" />
    <glyph glyph-name="ncommaaccent" unicode="&#x146;" horiz-adv-x="1177" 
d="M178 1081h78l8 -130h8q76 71 173.5 108.5t204.5 37.5q364 0 364 -383v-714h-90v713q0 159 -73 229.5t-211 70.5q-99 0 -199 -40.5t-173 -127.5v-845h-90v1081zM649.5 -202q19.5 -23 19.5 -69q0 -40 -12 -88t-35 -93h-57q30 77 35 138h-3q-33 0 -52.5 19t-19.5 50
q0 29 18.5 47.5t49.5 18.5q37 0 56.5 -23z" />
    <glyph glyph-name="Ncaron" unicode="&#x147;" horiz-adv-x="1527" 
d="M1242 1480h87v-1480h-97l-947 1343v-1343h-87v1480h97l947 -1345v1345zM973 1889h101l-264 -275h-93l-263 275h101l209 -223z" />
    <glyph glyph-name="ncaron" unicode="&#x148;" horiz-adv-x="1177" 
d="M178 1081h78l8 -130h8q76 71 173.5 108.5t204.5 37.5q364 0 364 -383v-714h-90v713q0 159 -73 229.5t-211 70.5q-99 0 -199 -40.5t-173 -127.5v-845h-90v1081zM801 1616h88l-246 -355h-92l-246 355h88l204 -301z" />
    <glyph glyph-name="napostrophe" unicode="&#x149;" horiz-adv-x="1177" 
d="M178 1081h78l8 -130h8q76 71 173.5 108.5t204.5 37.5q364 0 364 -383v-714h-90v713q0 159 -73 229.5t-211 70.5q-99 0 -199 -40.5t-173 -127.5v-845h-90v1081zM138.5 1601q19.5 -23 19.5 -68q0 -40 -12 -88.5t-35 -93.5h-57q30 77 35 138h-3q-33 0 -52.5 19t-19.5 50
q0 29 18.5 47.5t49.5 18.5q37 0 56.5 -23z" />
    <glyph glyph-name="Eng" unicode="&#x14a;" horiz-adv-x="1527" 
d="M1329 1480v-1305q0 -190 -54 -338.5t-173 -297.5l-62 44q78 101 125 202.5t65 216.5l-945 1340v-1342h-87v1480h97l947 -1342v29v1313h87z" />
    <glyph glyph-name="eng" unicode="&#x14b;" horiz-adv-x="1177" 
d="M726 -417q104 134 151 272t47 312v549q0 158 -74 227.5t-210 69.5q-102 0 -201 -42t-171 -127v-844h-90v1081h78l8 -130h8q75 73 172 109.5t207 36.5q172 0 267.5 -90t95.5 -288v-584q-8 -176 -59.5 -314t-166.5 -282z" />
    <glyph glyph-name="Omacron" unicode="&#x14c;" horiz-adv-x="1487" 
d="M416 61.5q-138 79.5 -214.5 248.5t-76.5 430q0 260 77 429.5t215.5 249t325.5 79.5q289 0 454 -185.5t165 -572.5q0 -260 -77 -429.5t-215.5 -249t-326.5 -79.5q-189 0 -327 79.5zM1129 226q138 159 138 510q0 677 -524 677q-247 0 -385 -159t-138 -510q0 -677 523 -677
q248 0 386 159zM449 1716v71h588v-71h-588z" />
    <glyph glyph-name="omacron" unicode="&#x14d;" horiz-adv-x="1144" 
d="M235.5 118q-120.5 136 -120.5 422q0 283 121.5 420t335.5 137q216 0 336.5 -135.5t120.5 -421.5q0 -282 -122 -420t-335 -138q-216 0 -336.5 136zM841 175q94 112 94 363q0 254 -94 366t-269 112t-269.5 -111t-94.5 -362q0 -254 94.5 -367t269.5 -113t269 112zM266 1388
v71h612v-71h-612z" />
    <glyph glyph-name="Obreve" unicode="&#x14e;" horiz-adv-x="1487" 
d="M416 61.5q-138 79.5 -214.5 248.5t-76.5 430q0 260 77 429.5t215.5 249t325.5 79.5q289 0 454 -185.5t165 -572.5q0 -260 -77 -429.5t-215.5 -249t-326.5 -79.5q-189 0 -327 79.5zM1129 226q138 159 138 510q0 677 -524 677q-247 0 -385 -159t-138 -510q0 -677 523 -677
q248 0 386 159zM521.5 1689.5q-78.5 64.5 -89.5 173.5h71q13 -84 68.5 -127t173.5 -43q117 0 171.5 43t66.5 127h71q-11 -110 -88 -174t-221 -64q-145 0 -223.5 64.5z" />
    <glyph glyph-name="obreve" unicode="&#x14f;" horiz-adv-x="1144" 
d="M235.5 118q-120.5 136 -120.5 422q0 283 121.5 420t335.5 137q216 0 336.5 -135.5t120.5 -421.5q0 -282 -122 -420t-335 -138q-216 0 -336.5 136zM841 175q94 112 94 363q0 254 -94 366t-269 112t-269.5 -111t-94.5 -362q0 -254 94.5 -367t269.5 -113t269 112zM363 1358
q-76 85 -82 230h71q16 -248 222 -248q106 0 158.5 64t59.5 184h71q-6 -147 -81 -231t-208 -84q-135 0 -211 85z" />
    <glyph glyph-name="Ohungarumlaut" unicode="&#x150;" horiz-adv-x="1487" 
d="M416 61.5q-138 79.5 -214.5 248.5t-76.5 430q0 260 77 429.5t215.5 249t325.5 79.5q289 0 454 -185.5t165 -572.5q0 -260 -77 -429.5t-215.5 -249t-326.5 -79.5q-189 0 -327 79.5zM1129 226q138 159 138 510q0 677 -524 677q-247 0 -385 -159t-138 -510q0 -677 523 -677
q248 0 386 159zM540 1614l143 275h86l-149 -275h-80zM866 1614l142 275h87l-149 -275h-80z" />
    <glyph glyph-name="ohungarumlaut" unicode="&#x151;" horiz-adv-x="1144" 
d="M235.5 118q-120.5 136 -120.5 422q0 283 121.5 420t335.5 137q216 0 336.5 -135.5t120.5 -421.5q0 -282 -122 -420t-335 -138q-216 0 -336.5 136zM841 175q94 112 94 363q0 254 -94 366t-269 112t-269.5 -111t-94.5 -362q0 -254 94.5 -367t269.5 -113t269 112zM373 1261
l159 355h84l-167 -355h-76zM695 1261l159 355h84l-167 -355h-76z" />
    <glyph glyph-name="OE" unicode="&#x152;" horiz-adv-x="2105" 
d="M2015 83v-83h-803q-58 0 -153 -5q-155 -5 -187 -5q-747 0 -747 750q0 377 187 565.5t549 188.5q47 0 103.5 -3t73.5 -4q98 -7 159 -7h808v-83h-788v-595h690v-83h-690v-636h798zM1127 1396q-137 14 -267 14q-320 0 -480 -164t-160 -506q0 -343 161 -505t484 -162
q163 0 262 11v1312z" />
    <glyph glyph-name="oe" unicode="&#x153;" horiz-adv-x="1868" 
d="M1773 505h-752q6 -231 111 -336.5t303 -105.5q127 0 286 52v-84q-148 -49 -293 -49q-357 0 -455 290q-48 -146 -152 -218t-254 -72q-212 0 -332 136.5t-120 421.5q0 282 121 419.5t331 137.5q153 0 257 -71t150 -219q43 146 140.5 218.5t242.5 72.5q200 0 308 -138.5
t108 -416.5v-38zM1112 914.5q-86 -105.5 -91 -332.5h661q-5 229 -87.5 333.5t-238.5 104.5q-158 0 -244 -105.5zM834 175q94 112 94 363q0 254 -93.5 366t-266.5 112q-172 0 -266 -111.5t-94 -361.5q0 -254 94 -367t266 -113t266 112z" />
    <glyph glyph-name="Racute" unicode="&#x154;" horiz-adv-x="1348" 
d="M1161 0l-519 644q-47 -3 -98 -3q-70 0 -125.5 3t-130.5 9v-653h-90v1456q95 18 186 28t204 10q198 0 325 -44t189 -137t62 -241q1 -357 -423 -418l529 -654h-109zM419 724.5q50 -2.5 126 -2.5q187 0 304 38t171.5 114.5t54.5 194.5q0 126 -50 201t-156.5 109t-280.5 34
q-91 0 -157.5 -6.5t-142.5 -19.5v-653q81 -7 131 -9.5zM603 1614l199 275h105l-216 -275h-88z" />
    <glyph glyph-name="racute" unicode="&#x155;" horiz-adv-x="739" 
d="M178 1081h78l8 -147h8q63 73 158.5 114.5t194.5 41.5q55 0 99 -9v-87q-45 7 -101 7q-94 0 -193 -43.5t-162 -127.5v-830h-90v1081zM402 1261l240 355h103l-255 -355h-88z" />
    <glyph glyph-name="Rcommaaccent" unicode="&#x156;" horiz-adv-x="1348" 
d="M1161 0l-519 644q-47 -3 -98 -3q-70 0 -125.5 3t-130.5 9v-653h-90v1456q95 18 186 28t204 10q198 0 325 -44t189 -137t62 -241q1 -357 -423 -418l529 -654h-109zM419 724.5q50 -2.5 126 -2.5q187 0 304 38t171.5 114.5t54.5 194.5q0 126 -50 201t-156.5 109t-280.5 34
q-91 0 -157.5 -6.5t-142.5 -19.5v-653q81 -7 131 -9.5zM750.5 -202q19.5 -23 19.5 -69q0 -40 -12 -88t-35 -93h-57q30 77 35 138h-3q-33 0 -52.5 19t-19.5 50q0 29 18.5 47.5t49.5 18.5q37 0 56.5 -23z" />
    <glyph glyph-name="rcommaaccent" unicode="&#x157;" horiz-adv-x="739" 
d="M178 1081h78l8 -147h8q63 73 158.5 114.5t194.5 41.5q55 0 99 -9v-87q-45 7 -101 7q-94 0 -193 -43.5t-162 -127.5v-830h-90v1081zM276.5 -202q19.5 -23 19.5 -69q0 -40 -12 -88t-35 -93h-57q30 77 35 138h-3q-33 0 -52.5 19t-19.5 50q0 29 18.5 47.5t49.5 18.5
q37 0 56.5 -23z" />
    <glyph glyph-name="Rcaron" unicode="&#x158;" horiz-adv-x="1348" 
d="M1161 0l-519 644q-47 -3 -98 -3q-70 0 -125.5 3t-130.5 9v-653h-90v1456q95 18 186 28t204 10q198 0 325 -44t189 -137t62 -241q1 -357 -423 -418l529 -654h-109zM419 724.5q50 -2.5 126 -2.5q187 0 304 38t171.5 114.5t54.5 194.5q0 126 -50 201t-156.5 109t-280.5 34
q-91 0 -157.5 -6.5t-142.5 -19.5v-653q81 -7 131 -9.5zM856 1889h101l-264 -275h-93l-263 275h101l209 -223z" />
    <glyph glyph-name="rcaron" unicode="&#x159;" horiz-adv-x="739" 
d="M178 1081h78l8 -147h8q63 73 158.5 114.5t194.5 41.5q55 0 99 -9v-87q-45 7 -101 7q-94 0 -193 -43.5t-162 -127.5v-830h-90v1081zM650 1616h88l-246 -355h-92l-246 355h88l204 -301z" />
    <glyph glyph-name="Sacute" unicode="&#x15a;" horiz-adv-x="1095" 
d="M293.5 -2.5q-96.5 15.5 -183.5 45.5v85q188 -63 373 -63q213 0 320 80.5t107 237.5q0 88 -36 146t-112 96.5t-205 67.5l-71 16q-202 45 -298.5 140.5t-96.5 252.5q0 123 57.5 211.5t172 136.5t281.5 48q88 0 175.5 -12.5t164.5 -36.5v-86q-163 52 -342 52
q-206 0 -310.5 -79t-104.5 -228q0 -88 32 -146.5t103.5 -97.5t193.5 -67l71 -16q220 -49 319.5 -143t99.5 -251q0 -195 -136 -300t-387 -105q-91 0 -187.5 15.5zM511 1614l199 275h105l-216 -275h-88z" />
    <glyph glyph-name="sacute" unicode="&#x15b;" horiz-adv-x="933" 
d="M273.5 -8q-73.5 10 -143.5 33v83q83 -25 155 -35t151 -10q166 0 243 55t77 160q0 59 -20 98t-65.5 64.5t-124.5 41.5l-152 29q-148 30 -214 100.5t-66 186.5q0 88 44.5 155t137 105.5t231.5 38.5q135 0 261 -34v-83q-72 20 -132.5 28.5t-127.5 8.5q-168 0 -245 -58.5
t-77 -157.5q0 -80 45.5 -131t155.5 -72l152 -30q153 -30 220.5 -98t67.5 -184q0 -143 -104.5 -223.5t-310.5 -80.5q-85 0 -158.5 10zM427 1261l240 355h103l-255 -355h-88z" />
    <glyph glyph-name="Scircumflex" unicode="&#x15c;" horiz-adv-x="1095" 
d="M293.5 -2.5q-96.5 15.5 -183.5 45.5v85q188 -63 373 -63q213 0 320 80.5t107 237.5q0 88 -36 146t-112 96.5t-205 67.5l-71 16q-202 45 -298.5 140.5t-96.5 252.5q0 123 57.5 211.5t172 136.5t281.5 48q88 0 175.5 -12.5t164.5 -36.5v-86q-163 52 -342 52
q-206 0 -310.5 -79t-104.5 -228q0 -88 32 -146.5t103.5 -97.5t193.5 -67l71 -16q220 -49 319.5 -143t99.5 -251q0 -195 -136 -300t-387 -105q-91 0 -187.5 15.5zM865 1614h-101l-209 223l-209 -223h-101l263 275h93z" />
    <glyph glyph-name="scircumflex" unicode="&#x15d;" horiz-adv-x="933" 
d="M273.5 -8q-73.5 10 -143.5 33v83q83 -25 155 -35t151 -10q166 0 243 55t77 160q0 59 -20 98t-65.5 64.5t-124.5 41.5l-152 29q-148 30 -214 100.5t-66 186.5q0 88 44.5 155t137 105.5t231.5 38.5q135 0 261 -34v-83q-72 20 -132.5 28.5t-127.5 8.5q-168 0 -245 -58.5
t-77 -157.5q0 -80 45.5 -131t155.5 -72l152 -30q153 -30 220.5 -98t67.5 -184q0 -143 -104.5 -223.5t-310.5 -80.5q-85 0 -158.5 10zM757 1261h-88l-198 298l-198 -298h-89l241 355h92z" />
    <glyph glyph-name="Scedilla" unicode="&#x15e;" horiz-adv-x="1095" 
d="M896 111q-108 -103 -310 -124v-96q85 -4 134 -41.5t49 -105.5q0 -73 -54.5 -110.5t-151.5 -37.5q-49 0 -101.5 10t-94.5 29v62q55 -23 101.5 -32.5t93.5 -9.5q141 0 141 90t-143 90h-39v148q-13 -1 -40 -1q-91 0 -187.5 15.5t-183.5 45.5v85q188 -63 373 -63
q213 0 320 80.5t107 237.5q0 88 -36 146t-112 96.5t-205 67.5l-71 16q-202 45 -298.5 140.5t-96.5 252.5q0 123 57.5 211.5t172 136.5t281.5 48q88 0 175.5 -12.5t164.5 -36.5v-86q-163 52 -342 52q-206 0 -310.5 -79t-104.5 -228q0 -88 32 -146.5t103.5 -97.5t193.5 -67
l71 -16q220 -49 319.5 -143t99.5 -251q0 -173 -108 -276z" />
    <glyph glyph-name="scedilla" unicode="&#x15f;" horiz-adv-x="933" 
d="M761.5 77.5q-85.5 -78.5 -255.5 -92.5v-96q78 -5 120 -42.5t42 -103.5q0 -70 -49.5 -108.5t-138.5 -38.5q-46 0 -94 10t-81 28v62q82 -41 175 -41q61 0 91.5 22t30.5 67q0 47 -31 69t-93 22h-37v147h-9q-85 0 -158.5 10t-143.5 33v83q83 -25 155 -35t151 -10
q166 0 243 55t77 160q0 59 -20 98t-65.5 64.5t-124.5 41.5l-152 29q-148 30 -214 100.5t-66 186.5q0 88 44.5 155t137 105.5t231.5 38.5q135 0 261 -34v-83q-72 20 -132.5 28.5t-127.5 8.5q-168 0 -245 -58.5t-77 -157.5q0 -80 45.5 -131t155.5 -72l152 -30
q153 -30 220.5 -98t67.5 -184q0 -130 -85.5 -208.5z" />
    <glyph glyph-name="Scaron" unicode="&#x160;" horiz-adv-x="1095" 
d="M293.5 -2.5q-96.5 15.5 -183.5 45.5v85q188 -63 373 -63q213 0 320 80.5t107 237.5q0 88 -36 146t-112 96.5t-205 67.5l-71 16q-202 45 -298.5 140.5t-96.5 252.5q0 123 57.5 211.5t172 136.5t281.5 48q88 0 175.5 -12.5t164.5 -36.5v-86q-163 52 -342 52
q-206 0 -310.5 -79t-104.5 -228q0 -88 32 -146.5t103.5 -97.5t193.5 -67l71 -16q220 -49 319.5 -143t99.5 -251q0 -195 -136 -300t-387 -105q-91 0 -187.5 15.5zM764 1889h101l-264 -275h-93l-263 275h101l209 -223z" />
    <glyph glyph-name="scaron" unicode="&#x161;" horiz-adv-x="933" 
d="M273.5 -8q-73.5 10 -143.5 33v83q83 -25 155 -35t151 -10q166 0 243 55t77 160q0 59 -20 98t-65.5 64.5t-124.5 41.5l-152 29q-148 30 -214 100.5t-66 186.5q0 88 44.5 155t137 105.5t231.5 38.5q135 0 261 -34v-83q-72 20 -132.5 28.5t-127.5 8.5q-168 0 -245 -58.5
t-77 -157.5q0 -80 45.5 -131t155.5 -72l152 -30q153 -30 220.5 -98t67.5 -184q0 -143 -104.5 -223.5t-310.5 -80.5q-85 0 -158.5 10zM675 1616h88l-246 -355h-92l-246 355h88l204 -301z" />
    <glyph glyph-name="uni0162" unicode="&#x162;" horiz-adv-x="1193" 
d="M628 0v-109q85 -4 134 -41.5t49 -105.5q0 -73 -54.5 -110.5t-151.5 -37.5q-49 0 -101.5 10t-94.5 29v62q55 -23 101.5 -32.5t93.5 -9.5q141 0 141 90t-143 90h-39v165h-12v1396h-534v84h1159v-84h-534v-1396h-14z" />
    <glyph glyph-name="uni0163" unicode="&#x163;" horiz-adv-x="758" 
d="M529 -15v-96q78 -5 120 -42.5t42 -103.5q0 -70 -49.5 -108.5t-138.5 -38.5q-46 0 -94 10t-81 28v62q82 -41 175 -41q61 0 91.5 22t30.5 67q0 47 -31 69t-93 22h-37v160q-226 57 -226 338v668h-227v80h227l12 399h78v-399h399v-80h-399v-652q0 -150 67 -217t201 -67
q64 0 153 20v-84q-83 -19 -164 -19q-29 0 -56 3z" />
    <glyph glyph-name="Tcaron" unicode="&#x164;" horiz-adv-x="1193" 
d="M551 0v1396h-534v84h1159v-84h-534v-1396h-91zM806 1889h101l-264 -275h-93l-263 275h101l209 -223z" />
    <glyph glyph-name="tcaron" unicode="&#x165;" horiz-adv-x="758" 
d="M749 85v-84q-83 -19 -164 -19q-169 0 -258 86t-89 265v668h-227v80h227l12 399h78v-399h399v-80h-399v-652q0 -150 67 -217t201 -67q64 0 153 20zM523 1616h77q0 -109 -9.5 -223.5t-29.5 -212.5h-57q19 167 19 436z" />
    <glyph glyph-name="Tbar" unicode="&#x166;" horiz-adv-x="1193" 
d="M1176 1396h-534v-565h354v-74h-354v-757h-91v757h-354v74h354v565h-534v84h1159v-84z" />
    <glyph glyph-name="tbar" unicode="&#x167;" horiz-adv-x="758" 
d="M749 85v-84q-83 -19 -164 -19q-169 0 -258 86t-89 265v285h-167v72h167v311h-227v80h227l12 399h78v-399h399v-80h-399v-311h348v-72h-348v-269q0 -150 67 -217t201 -67q64 0 153 20z" />
    <glyph glyph-name="Utilde" unicode="&#x168;" horiz-adv-x="1470" 
d="M428 42q-120 60 -179 186.5t-59 326.5v925h91v-937q0 -167 48.5 -272t148.5 -155t258 -50t258 50t148.5 155t48.5 272v937h89v-925q0 -200 -58.5 -326.5t-178.5 -186.5t-307 -60q-188 0 -308 60zM811.5 1701q-36.5 10 -91.5 30q-46 18 -77 26.5t-62 8.5q-54 0 -93.5 -17
t-76.5 -54v78q61 61 170 61q42 0 79 -10t92 -30q46 -18 77 -26.5t62 -8.5q53 0 93 17t76 54v-78q-59 -61 -170 -61q-42 0 -78.5 10z" />
    <glyph glyph-name="utilde" unicode="&#x169;" horiz-adv-x="1167" 
d="M258.5 72.5q-95.5 90.5 -95.5 288.5v720h90v-718q0 -158 73.5 -227.5t205.5 -69.5q99 0 197.5 42t169.5 127v846h90v-1081h-78l-7 125h-9q-75 -70 -171 -106.5t-202 -36.5q-168 0 -263.5 90.5zM646 1382.5q-35 10.5 -86 30.5q-42 17 -71.5 26t-57.5 9q-48 0 -87 -17.5
t-74 -54.5v80q59 61 162 61q39 0 74 -10.5t86 -30.5q42 -17 71.5 -26t57.5 -9q48 0 87 17.5t74 54.5v-79q-59 -62 -162 -62q-39 0 -74 10.5z" />
    <glyph glyph-name="Umacron" unicode="&#x16a;" horiz-adv-x="1470" 
d="M428 42q-120 60 -179 186.5t-59 326.5v925h91v-937q0 -167 48.5 -272t148.5 -155t258 -50t258 50t148.5 155t48.5 272v937h89v-925q0 -200 -58.5 -326.5t-178.5 -186.5t-307 -60q-188 0 -308 60zM442 1716v71h588v-71h-588z" />
    <glyph glyph-name="umacron" unicode="&#x16b;" horiz-adv-x="1167" 
d="M258.5 72.5q-95.5 90.5 -95.5 288.5v720h90v-718q0 -158 73.5 -227.5t205.5 -69.5q99 0 197.5 42t169.5 127v846h90v-1081h-78l-7 125h-9q-75 -70 -171 -106.5t-202 -36.5q-168 0 -263.5 90.5zM270 1388v71h612v-71h-612z" />
    <glyph glyph-name="Ubreve" unicode="&#x16c;" horiz-adv-x="1470" 
d="M428 42q-120 60 -179 186.5t-59 326.5v925h91v-937q0 -167 48.5 -272t148.5 -155t258 -50t258 50t148.5 155t48.5 272v937h89v-925q0 -200 -58.5 -326.5t-178.5 -186.5t-307 -60q-188 0 -308 60zM514.5 1689.5q-78.5 64.5 -89.5 173.5h71q13 -84 68.5 -127t173.5 -43
q117 0 171.5 43t66.5 127h71q-11 -110 -88 -174t-221 -64q-145 0 -223.5 64.5z" />
    <glyph glyph-name="ubreve" unicode="&#x16d;" horiz-adv-x="1167" 
d="M258.5 72.5q-95.5 90.5 -95.5 288.5v720h90v-718q0 -158 73.5 -227.5t205.5 -69.5q99 0 197.5 42t169.5 127v846h90v-1081h-78l-7 125h-9q-75 -70 -171 -106.5t-202 -36.5q-168 0 -263.5 90.5zM367 1358q-76 85 -82 230h71q16 -248 222 -248q106 0 158.5 64t59.5 184h71
q-6 -147 -81 -231t-208 -84q-135 0 -211 85z" />
    <glyph glyph-name="Uring" unicode="&#x16e;" horiz-adv-x="1470" 
d="M428 42q-120 60 -179 186.5t-59 326.5v925h91v-937q0 -167 48.5 -272t148.5 -155t258 -50t258 50t148.5 155t48.5 272v937h89v-925q0 -200 -58.5 -326.5t-178.5 -186.5t-307 -60q-188 0 -308 60zM640 1633q-43 24 -67 66.5t-24 95.5t24 95.5t67 66.5t96 24t96 -24
t67 -66.5t24 -95.5t-24 -95.5t-67 -66.5t-96 -24t-96 24zM827.5 1701q35.5 35 35.5 94t-35.5 94t-91.5 35t-91.5 -35t-35.5 -94t35.5 -94t91.5 -35t91.5 35z" />
    <glyph glyph-name="uring" unicode="&#x16f;" horiz-adv-x="1167" 
d="M258.5 72.5q-95.5 90.5 -95.5 288.5v720h90v-718q0 -158 73.5 -227.5t205.5 -69.5q99 0 197.5 42t169.5 127v846h90v-1081h-78l-7 125h-9q-75 -70 -171 -106.5t-202 -36.5q-168 0 -263.5 90.5zM480 1281q-43 24 -67 66.5t-24 95.5t24 96t67 67t96 24t96 -24t67 -67
t24 -96t-24 -95.5t-67 -66.5t-96 -24t-96 24zM667.5 1349q35.5 35 35.5 94t-35.5 94t-91.5 35t-91.5 -35t-35.5 -94t35.5 -94t91.5 -35t91.5 35z" />
    <glyph glyph-name="Uhungarumlaut" unicode="&#x170;" horiz-adv-x="1470" 
d="M428 42q-120 60 -179 186.5t-59 326.5v925h91v-937q0 -167 48.5 -272t148.5 -155t258 -50t258 50t148.5 155t48.5 272v937h89v-925q0 -200 -58.5 -326.5t-178.5 -186.5t-307 -60q-188 0 -308 60zM533 1614l143 275h86l-149 -275h-80zM859 1614l142 275h87l-149 -275h-80z
" />
    <glyph glyph-name="uhungarumlaut" unicode="&#x171;" horiz-adv-x="1167" 
d="M258.5 72.5q-95.5 90.5 -95.5 288.5v720h90v-718q0 -158 73.5 -227.5t205.5 -69.5q99 0 197.5 42t169.5 127v846h90v-1081h-78l-7 125h-9q-75 -70 -171 -106.5t-202 -36.5q-168 0 -263.5 90.5zM377 1261l159 355h84l-167 -355h-76zM699 1261l159 355h84l-167 -355h-76z
" />
    <glyph glyph-name="Uogonek" unicode="&#x172;" horiz-adv-x="1470" 
d="M1280 1480v-925q0 -234 -81 -368.5t-254 -181.5q-266 -72 -266 -226q0 -59 39.5 -90t115.5 -31q40 0 80 9.5t98 30.5v-60q-92 -39 -179 -39q-109 0 -165 46t-56 133q0 59 32 112t102 92h-10q-188 0 -308 60t-179 186.5t-59 326.5v925h91v-937q0 -167 48.5 -272
t148.5 -155t258 -50t258 50t148.5 155t48.5 272v937h89z" />
    <glyph glyph-name="uogonek" unicode="&#x173;" horiz-adv-x="1167" 
d="M1096 -301v-62q-35 -19 -78.5 -30t-82.5 -11q-94 0 -147.5 46.5t-53.5 126.5q0 74 42.5 135.5t133.5 117.5l-6 103h-9q-75 -70 -171 -106.5t-202 -36.5q-168 0 -263.5 90.5t-95.5 288.5v720h90v-718q0 -158 73.5 -227.5t205.5 -69.5q99 0 197.5 42t169.5 127v846h90
v-1081q-101 -56 -144.5 -109t-43.5 -118q0 -55 36 -86.5t98 -31.5q80 0 161 44z" />
    <glyph glyph-name="Wcircumflex" unicode="&#x174;" horiz-adv-x="2168" 
d="M2004 1480h90l-455 -1480h-122l-433 1382l-433 -1382h-122l-457 1480h96l425 -1395l433 1395h117l434 -1397zM1395 1614h-101l-209 223l-209 -223h-101l263 275h93z" />
    <glyph glyph-name="wcircumflex" unicode="&#x175;" horiz-adv-x="1730" 
d="M1563 1081h90l-346 -1081h-117l-324 988l-325 -988h-116l-348 1081h93l316 -992l322 992h117l323 -991zM1153 1261h-88l-198 298l-198 -298h-89l241 355h92z" />
    <glyph glyph-name="Ycircumflex" unicode="&#x176;" horiz-adv-x="1193" 
d="M1205 1480l-563 -807v-673h-91v674l-571 806h108l511 -723l503 723h103zM907 1614h-101l-209 223l-209 -223h-101l263 275h93z" />
    <glyph glyph-name="ycircumflex" unicode="&#x177;" horiz-adv-x="1078" 
d="M956 1081h93l-633 -1521h-93l183 440h-27l-450 1081h99l412 -1010zM827 1261h-88l-198 298l-198 -298h-89l241 355h92z" />
    <glyph glyph-name="Ydieresis" unicode="&#x178;" horiz-adv-x="1193" 
d="M1205 1480l-563 -807v-673h-91v674l-571 806h108l511 -723l503 723h103zM301.5 1701.5q-19.5 18.5 -19.5 50.5t19.5 51.5t51.5 19.5t52 -19.5t20 -51.5t-19.5 -50.5t-52.5 -18.5q-32 0 -51.5 18.5zM788.5 1701.5q-19.5 18.5 -19.5 50.5t19.5 51.5t51.5 19.5t52 -19.5
t20 -51.5t-19.5 -50.5t-52.5 -18.5q-32 0 -51.5 18.5z" />
    <glyph glyph-name="Zacute" unicode="&#x179;" horiz-adv-x="1191" 
d="M191 82h934v-82h-1059v52l922 1346h-909v82h1033v-52zM552 1614l199 275h105l-216 -275h-88z" />
    <glyph glyph-name="zacute" unicode="&#x17a;" horiz-adv-x="939" 
d="M187 80h692v-80h-814v54l679 947h-666v80h788v-54zM428 1261l240 355h103l-255 -355h-88z" />
    <glyph glyph-name="Zdotaccent" unicode="&#x17b;" horiz-adv-x="1191" 
d="M191 82h934v-82h-1059v52l922 1346h-909v82h1033v-52zM542.5 1701.5q-20.5 18.5 -20.5 50.5t20.5 51.5t53.5 19.5t53.5 -19.5t20.5 -51.5t-20.5 -50.5t-53.5 -18.5t-53.5 18.5z" />
    <glyph glyph-name="zdotaccent" unicode="&#x17c;" horiz-adv-x="939" 
d="M187 80h692v-80h-814v54l679 947h-666v80h788v-54zM418 1370q-20 19 -20 52t20 53t54 20t54 -20t20 -53t-20 -52t-54 -19t-54 19z" />
    <glyph glyph-name="Zcaron" unicode="&#x17d;" horiz-adv-x="1191" 
d="M191 82h934v-82h-1059v52l922 1346h-909v82h1033v-52zM805 1889h101l-264 -275h-93l-263 275h101l209 -223z" />
    <glyph glyph-name="zcaron" unicode="&#x17e;" horiz-adv-x="939" 
d="M187 80h692v-80h-814v54l679 947h-666v80h788v-54zM676 1616h88l-246 -355h-92l-246 355h88l204 -301z" />
    <glyph glyph-name="uni018F" unicode="&#x18f;" horiz-adv-x="1487" 
d="M1362 737q0 -389 -163.5 -572t-450.5 -183q-298 0 -465.5 180.5t-167.5 562.5v60h1152q-8 227 -87.5 366t-223.5 201.5t-355 62.5q-98 0 -205 -13t-203 -39v85q185 50 410 50q759 0 759 -761zM1268 704h-1058q6 -337 145 -487.5t393 -150.5q508 0 520 638z" />
    <glyph glyph-name="florin" unicode="&#x192;" horiz-adv-x="731" 
d="M405.5 1490.5q-70.5 -63.5 -70.5 -206.5v-203h400v-82h-400v-1100q0 -359 -376 -359q-77 0 -155 13v84q53 -8 86.5 -11.5t67.5 -3.5q146 0 217 63.5t71 206.5v1107h-227v82h227v196q0 359 376 359q77 0 155 -13v-84q-53 8 -86.5 11.5t-67.5 3.5q-147 0 -217.5 -63.5z" />
    <glyph glyph-name="Ohorn" unicode="&#x1a0;" horiz-adv-x="1487" 
d="M1294.5 1150q67.5 -164 67.5 -410q0 -392 -164.5 -575t-454.5 -183q-189 0 -327 79.5t-214.5 248.5t-76.5 430q0 260 77 429.5t215.5 249t325.5 79.5q37 0 77 -3.5t77 -8.5q40 -5 86 -9t92 -4q101 0 155 40.5t54 120.5q0 38 -6 70t-19 72h79q13 -37 19 -69.5t6 -75.5
q0 -104 -67.5 -164.5t-192.5 -67.5q124 -85 191.5 -249zM1129 226q138 159 138 510q0 677 -524 677q-247 0 -385 -159t-138 -510q0 -677 523 -677q248 0 386 159z" />
    <glyph glyph-name="ohorn" unicode="&#x1a1;" horiz-adv-x="1144" 
d="M984 831.5q45 -118.5 45 -291.5q0 -282 -122 -420t-335 -138q-216 0 -336.5 136t-120.5 422q0 283 121.5 420t335.5 137q49 0 119 -6q54 -4 73 -4q101 0 154.5 41t53.5 126q0 38 -6 70t-19 72h78q14 -36 19.5 -68.5t5.5 -76.5q0 -96 -52.5 -156t-150.5 -77
q92 -68 137 -186.5zM841 175q94 112 94 363q0 254 -94 366t-269 112t-269.5 -111t-94.5 -362q0 -254 94.5 -367t269.5 -113t269 112z" />
    <glyph glyph-name="Uhorn" unicode="&#x1af;" horiz-adv-x="1470" 
d="M428 42q-120 60 -179 186.5t-59 326.5v925h91v-937q0 -167 48.5 -272t148.5 -155t258 -50t258 50t148.5 155t48.5 272v937h40q209 0 209 154q0 38 -6 70t-19 72h79q13 -37 19 -69.5t6 -75.5q0 -99 -62.5 -156.5t-176.5 -63.5v-856q0 -200 -58.5 -326.5t-178.5 -186.5
t-307 -60q-188 0 -308 60z" />
    <glyph glyph-name="uhorn" unicode="&#x1b0;" horiz-adv-x="1189" 
d="M1164.5 1079.5q-61.5 -61.5 -175.5 -71.5v-1008h-78l-7 125h-9q-75 -70 -171 -106.5t-202 -36.5q-168 0 -263.5 90.5t-95.5 288.5v720h90v-718q0 -158 73.5 -227.5t205.5 -69.5q99 0 197.5 42t169.5 127v846h41q101 0 154.5 41.5t53.5 126.5q0 39 -6 71.5t-19 70.5h78
q14 -36 19.5 -68.5t5.5 -76.5q0 -105 -61.5 -166.5z" />
    <glyph glyph-name="uni01C4" unicode="&#x1c4;" horiz-adv-x="2587" 
d="M382 -5q-81 5 -184 18v1443q90 19 189 28.5t192 9.5q370 0 558 -188t188 -566q0 -380 -192 -565t-575 -185q-95 0 -176 5zM1066 234.5q164 161.5 164 505.5q0 343 -162 507t-492 164q-128 0 -287 -25v-1295q119 -18 278 -18q335 0 499 161.5zM1587 82h934v-82h-1059v52
l922 1346h-909v82h1033v-52zM2201 1889h101l-264 -275h-93l-263 275h101l209 -223z" />
    <glyph glyph-name="uni01C5" unicode="&#x1c5;" horiz-adv-x="2389" 
d="M382 -5q-81 5 -184 18v1443q90 19 189 28.5t192 9.5q370 0 558 -188t188 -566q0 -380 -192 -565t-575 -185q-95 0 -176 5zM1066 234.5q164 161.5 164 505.5q0 343 -162 507t-492 164q-128 0 -287 -25v-1295q119 -18 278 -18q335 0 499 161.5zM1637 80h692v-80h-814v54
l679 947h-666v80h788v-54zM2131 1569h101l-264 -275h-93l-263 275h101l209 -223z" />
    <glyph glyph-name="uni01C6" unicode="&#x1c6;" horiz-adv-x="2102" 
d="M236 113q-121 131 -121 406q0 291 139.5 434.5t415.5 143.5q113 0 225 -21v540h90v-1616h-78l-8 125h-8q-58 -67 -143.5 -105t-186.5 -38q-204 0 -325 131zM752 105q84 40 143 125v759q-46 13 -107 20t-121 7q-232 0 -345.5 -118t-113.5 -370q0 -247 95.5 -355
t269.5 -108q95 0 179 40zM1350 80h692v-80h-814v54l679 947h-666v80h788v-54zM1839 1616h88l-246 -355h-92l-246 355h88l204 -301z" />
    <glyph glyph-name="uni01C7" unicode="&#x1c7;" horiz-adv-x="1593" 
d="M198 0v1480h91v-1396h800v-84h-891zM1106 -296q104 133 151 271t47 312v1193h91v-1224q-9 -177 -60.5 -315t-166.5 -282z" />
    <glyph glyph-name="uni01C8" unicode="&#x1c8;" horiz-adv-x="1553" 
d="M198 0v1480h91v-1396h800v-84h-891zM1086 -417q104 134 151 272t47 312v914h91v-908q0 -188 -54 -336.5t-173 -297.5zM1275 1379q-20 19 -20 52t20 53t54 20t54 -20t20 -53t-20 -52t-54 -19t-54 19z" />
    <glyph glyph-name="uni01C9" unicode="&#x1c9;" horiz-adv-x="894" 
d="M178 0v1616h90v-1616h-90zM427 -417q104 134 151 272t47 312v914h91v-908q0 -188 -54 -336.5t-173 -297.5zM616 1379q-20 19 -20 52t20 53t54 20t54 -20t20 -53t-20 -52t-54 -19t-54 19z" />
    <glyph glyph-name="uni01CA" unicode="&#x1ca;" horiz-adv-x="2014" 
d="M1242 1480h87v-1480h-97l-947 1343v-1343h-87v1480h97l947 -1345v1345zM1527 -296q104 133 151 271t47 312v1193h91v-1224q-9 -177 -60.5 -315t-166.5 -282z" />
    <glyph glyph-name="uni01CB" unicode="&#x1cb;" horiz-adv-x="1974" 
d="M1242 1480h87v-1480h-97l-947 1343v-1343h-87v1480h97l947 -1345v1345zM1507 -417q104 134 151 272t47 312v914h91v-908q0 -188 -54 -336.5t-173 -297.5zM1696 1379q-20 19 -20 52t20 53t54 20t54 -20t20 -53t-20 -52t-54 -19t-54 19z" />
    <glyph glyph-name="uni01CC" unicode="&#x1cc;" horiz-adv-x="1624" 
d="M178 1081h78l8 -130h8q76 71 173.5 108.5t204.5 37.5q364 0 364 -383v-714h-90v713q0 159 -73 229.5t-211 70.5q-99 0 -199 -40.5t-173 -127.5v-845h-90v1081zM1157 -417q104 134 151 272t47 312v914h91v-908q0 -188 -54 -336.5t-173 -297.5zM1346 1379q-20 19 -20 52
t20 53t54 20t54 -20t20 -53t-20 -52t-54 -19t-54 19z" />
    <glyph glyph-name="Gcaron" unicode="&#x1e6;" horiz-adv-x="1410" 
d="M1229 720v-702q-101 -16 -179.5 -22.5t-166.5 -6.5q-375 0 -566 184.5t-192 564.5q0 262 89.5 431.5t248.5 249t373 79.5q90 0 176 -12.5t182 -37.5v-85q-101 28 -185 39.5t-169 11.5q-290 0 -455 -160.5t-165 -510.5q0 -344 164.5 -507t496.5 -163q141 0 260 19v628h88z
M972 1889h101l-264 -275h-93l-263 275h101l209 -223z" />
    <glyph glyph-name="gcaron" unicode="&#x1e7;" horiz-adv-x="1163" 
d="M342.5 -445.5q-88.5 14.5 -159.5 39.5v84q169 -56 323 -56q135 0 220 37.5t127 123t42 227.5v110h-7q-60 -63 -146 -100t-190 -37q-128 0 -225.5 54t-154.5 174t-57 308q0 290 138 434t408 144q169 0 324 -46v-1031q0 -253 -118 -366.5t-360 -113.5q-76 0 -164.5 14.5z
M748.5 104.5q86.5 38.5 146.5 116.5v766q-112 29 -242 29q-222 0 -333.5 -118.5t-111.5 -369.5q0 -248 96 -355t263 -107q95 0 181.5 38.5zM803 1616h88l-246 -355h-92l-246 355h88l204 -301z" />
    <glyph glyph-name="uni01EA" unicode="&#x1ea;" horiz-adv-x="1487" 
d="M769.5 -95q-59.5 -60 -59.5 -132q0 -57 39.5 -87.5t114.5 -30.5q40 0 81 9.5t98 30.5v-60q-92 -39 -179 -39q-107 0 -165 45.5t-58 127.5q0 64 32 116.5t105 96.5h-30q-293 0 -458 185.5t-165 572.5q0 260 77 429.5t215.5 249t325.5 79.5q289 0 454 -183.5t165 -574.5
q0 -309 -103 -484.5t-281 -238.5q-149 -52 -208.5 -112zM1129 226q138 159 138 510q0 677 -524 677q-247 0 -385 -159t-138 -510q0 -677 523 -677q248 0 386 159z" />
    <glyph glyph-name="uni01EB" unicode="&#x1eb;" horiz-adv-x="1144" 
d="M536.5 -96.5q-53.5 -60.5 -53.5 -129.5q0 -57 36 -88t98 -31q73 0 142 34l19 -54q-37 -19 -79 -29t-82 -10q-92 0 -146.5 46t-54.5 127q0 132 130 214q-204 8 -317.5 144t-113.5 413q0 283 121.5 420t335.5 137q216 0 336.5 -135.5t120.5 -421.5q0 -230 -81 -363
t-230 -176q-128 -37 -181.5 -97.5zM302.5 176q94.5 -113 269.5 -113t269 112t94 363q0 254 -94 366t-269 112t-269.5 -111t-94.5 -362q0 -254 94.5 -367z" />
    <glyph glyph-name="uni01F1" unicode="&#x1f1;" horiz-adv-x="2587" 
d="M382 -5q-81 5 -184 18v1443q90 19 189 28.5t192 9.5q370 0 558 -188t188 -566q0 -380 -192 -565t-575 -185q-95 0 -176 5zM1066 234.5q164 161.5 164 505.5q0 343 -162 507t-492 164q-128 0 -287 -25v-1295q119 -18 278 -18q335 0 499 161.5zM1587 82h934v-82h-1059v52
l922 1346h-909v82h1033v-52z" />
    <glyph glyph-name="uni01F2" unicode="&#x1f2;" horiz-adv-x="2389" 
d="M382 -5q-81 5 -184 18v1443q90 19 189 28.5t192 9.5q370 0 558 -188t188 -566q0 -380 -192 -565t-575 -185q-95 0 -176 5zM1066 234.5q164 161.5 164 505.5q0 343 -162 507t-492 164q-128 0 -287 -25v-1295q119 -18 278 -18q335 0 499 161.5zM1637 80h692v-80h-814v54
l679 947h-666v80h788v-54z" />
    <glyph glyph-name="uni01F3" unicode="&#x1f3;" horiz-adv-x="2102" 
d="M236 113q-121 131 -121 406q0 291 139.5 434.5t415.5 143.5q113 0 225 -21v540h90v-1616h-78l-8 125h-8q-58 -67 -143.5 -105t-186.5 -38q-204 0 -325 131zM752 105q84 40 143 125v759q-46 13 -107 20t-121 7q-232 0 -345.5 -118t-113.5 -370q0 -247 95.5 -355
t269.5 -108q95 0 179 40zM1350 80h692v-80h-814v54l679 947h-666v80h788v-54z" />
    <glyph glyph-name="uni01F4" unicode="&#x1f4;" horiz-adv-x="1410" 
d="M1229 720v-702q-101 -16 -179.5 -22.5t-166.5 -6.5q-375 0 -566 184.5t-192 564.5q0 262 89.5 431.5t248.5 249t373 79.5q90 0 176 -12.5t182 -37.5v-85q-101 28 -185 39.5t-169 11.5q-290 0 -455 -160.5t-165 -510.5q0 -344 164.5 -507t496.5 -163q141 0 260 19v628h88z
M719 1614l199 275h105l-216 -275h-88z" />
    <glyph glyph-name="uni01F5" unicode="&#x1f5;" horiz-adv-x="1163" 
d="M342.5 -445.5q-88.5 14.5 -159.5 39.5v84q169 -56 323 -56q135 0 220 37.5t127 123t42 227.5v110h-7q-60 -63 -146 -100t-190 -37q-128 0 -225.5 54t-154.5 174t-57 308q0 290 138 434t408 144q169 0 324 -46v-1031q0 -253 -118 -366.5t-360 -113.5q-76 0 -164.5 14.5z
M748.5 104.5q86.5 38.5 146.5 116.5v766q-112 29 -242 29q-222 0 -333.5 -118.5t-111.5 -369.5q0 -248 96 -355t263 -107q95 0 181.5 38.5zM555 1261l240 355h103l-255 -355h-88z" />
    <glyph glyph-name="Aringacute" unicode="&#x1fa;" horiz-adv-x="1379" 
d="M1037 516h-698l-204 -516h-95l579 1454q-52 20 -82.5 66.5t-30.5 106.5q0 53 24 95.5t67 66.5t96 24q56 0 100 -26l134 135h94l-180 -177q39 -50 39 -118q0 -62 -32.5 -109t-87.5 -67l578 -1451h-97zM601.5 1533q35.5 -35 91.5 -35t91.5 35t35.5 94t-35.5 94t-91.5 35
t-91.5 -35t-35.5 -94t35.5 -94zM372 599h632l-316 800z" />
    <glyph glyph-name="aringacute" unicode="&#x1fb;" horiz-adv-x="1055" 
d="M714 1063q87 -34 132.5 -114t45.5 -215v-734h-78l-8 129h-8q-58 -67 -151 -106t-197 -39q-157 0 -245 75.5t-88 210.5q0 136 91 211t292 98l302 36v119q0 110 -35 171.5t-102.5 86t-173.5 24.5q-73 0 -153 -12.5t-158 -40.5v83q65 25 149.5 38t165.5 13q132 0 219 -34z
M645 103q89 40 157 120v316l-301 -36q-154 -18 -221.5 -72t-67.5 -154q0 -104 62 -159t186 -55q96 0 185 40zM669 1565q42 -50 42 -122q0 -53 -24 -95.5t-67 -66.5t-96 -24t-96 24t-67 66.5t-24 95.5t24 96t67 67t96 24t96 -24l150 174h92zM615.5 1349q35.5 35 35.5 94
t-35.5 94t-91.5 35t-91.5 -35t-35.5 -94t35.5 -94t91.5 -35t91.5 35z" />
    <glyph glyph-name="AEacute" unicode="&#x1fc;" horiz-adv-x="1881" 
d="M1058 83h734v-83h-819l-38 516h-591l-208 -516h-96l599 1480h1143v-83h-825l46 -595h680v-83h-674zM377 599h551l-59 798h-171zM865 1614l199 275h105l-216 -275h-88z" />
    <glyph glyph-name="aeacute" unicode="&#x1fd;" horiz-adv-x="1738" 
d="M1643 505h-751q6 -231 110.5 -336.5t302.5 -105.5q127 0 286 52v-84q-148 -49 -293 -49q-306 0 -423 211q-97 -115 -201 -162t-220 -47q-103 0 -179 34t-117 98.5t-41 154.5q0 144 100 227.5t314 83.5h271v154q0 109 -35.5 170t-103 85.5t-173.5 24.5q-72 0 -152 -12.5
t-158 -40.5v83q66 25 149.5 38t163.5 13q158 0 251 -52.5t123 -173.5q50 114 141 170.5t219 56.5q200 0 308 -138.5t108 -416.5v-38zM982.5 914.5q-85.5 -105.5 -90.5 -332.5h660q-5 229 -87.5 333.5t-238.5 104.5q-158 0 -243.5 -105.5zM666 112.5q98 48.5 175 158.5
q-35 101 -38 235h-275q-167 0 -241.5 -61t-74.5 -167q0 -104 63.5 -159t186.5 -55q106 0 204 48.5zM803 1261l240 355h103l-255 -355h-88z" />
    <glyph glyph-name="Oslashacute" unicode="&#x1fe;" horiz-adv-x="1487" 
d="M1362 740q0 -260 -77 -429.5t-215.5 -249t-326.5 -79.5q-271 0 -427 157l-125 -158l-57 44l134 170q-143 193 -143 545q0 260 77 429.5t215.5 249t325.5 79.5q271 0 427 -156l124 157l57 -44l-133 -169q144 -191 144 -546zM327 270l787 1000q-130 143 -371 143
q-247 0 -385 -159t-138 -510q0 -304 107 -474zM1129 226q138 159 138 510q0 308 -108 475l-787 -1000q130 -144 371 -144q248 0 386 159zM693 1614l199 275h105l-216 -275h-88z" />
    <glyph glyph-name="oslashacute" unicode="&#x1ff;" horiz-adv-x="1144" 
d="M1029 540q0 -282 -122 -420t-335 -138q-187 0 -299 99l-75 -101l-57 44l82 110q-108 142 -108 406q0 283 121.5 420t335.5 137q187 0 298 -97l75 101l57 -43l-82 -111q109 -140 109 -407zM302 905q-94 -111 -94 -362q0 -216 72 -335l539 721q-88 87 -247 87
q-176 0 -270 -111zM841.5 175q94.5 112 94.5 363q0 219 -73 335l-539 -721q88 -89 248 -89q175 0 269.5 112zM519 1261l240 355h103l-255 -355h-88z" />
    <glyph glyph-name="uni0200" unicode="&#x200;" horiz-adv-x="1379" 
d="M1241 0l-204 516h-698l-204 -516h-95l589 1480h120l589 -1480h-97zM372 599h632l-316 800zM487 1614l-149 275h86l143 -275h-80zM813 1614l-149 275h86l143 -275h-80z" />
    <glyph glyph-name="uni0201" unicode="&#x201;" horiz-adv-x="1055" 
d="M714 1063q87 -34 132.5 -114t45.5 -215v-734h-78l-8 129h-8q-58 -67 -151 -106t-197 -39q-157 0 -245 75.5t-88 210.5q0 136 91 211t292 98l302 36v119q0 110 -35 171.5t-102.5 86t-173.5 24.5q-73 0 -153 -12.5t-158 -40.5v83q65 25 149.5 38t165.5 13q132 0 219 -34z
M645 103q89 40 157 120v316l-301 -36q-154 -18 -221.5 -72t-67.5 -154q0 -104 62 -159t186 -55q96 0 185 40zM321 1261l-167 355h88l159 -355h-80zM647 1261l-167 355h88l159 -355h-80z" />
    <glyph glyph-name="uni0202" unicode="&#x202;" horiz-adv-x="1379" 
d="M1241 0l-204 516h-698l-204 -516h-95l589 1480h120l589 -1480h-97zM372 599h632l-316 800zM466.5 1814q76.5 64 221.5 64t223.5 -64.5t89.5 -173.5h-71q-13 84 -68.5 127t-173.5 43q-117 0 -171.5 -43t-66.5 -127h-71q11 110 87.5 174z" />
    <glyph glyph-name="uni0203" unicode="&#x203;" horiz-adv-x="1055" 
d="M714 1063q87 -34 132.5 -114t45.5 -215v-734h-78l-8 129h-8q-58 -67 -151 -106t-197 -39q-157 0 -245 75.5t-88 210.5q0 136 91 211t292 98l302 36v119q0 110 -35 171.5t-102.5 86t-173.5 24.5q-73 0 -153 -12.5t-158 -40.5v83q65 25 149.5 38t165.5 13q132 0 219 -34z
M645 103q89 40 157 120v316l-301 -36q-154 -18 -221.5 -72t-67.5 -154q0 -104 62 -159t186 -55q96 0 185 40zM313 1521q74 84 209 84t211 -84.5t82 -231.5h-71q-8 119 -62.5 183t-159.5 64q-204 0 -218 -247h-71q6 148 80 232z" />
    <glyph glyph-name="uni0204" unicode="&#x204;" horiz-adv-x="1212" 
d="M288 83h834v-83h-924v1480h914v-83h-824v-595h726v-83h-726v-636zM473 1614l-149 275h86l143 -275h-80zM799 1614l-149 275h86l143 -275h-80z" />
    <glyph glyph-name="uni0205" unicode="&#x205;" horiz-adv-x="1063" 
d="M967 505h-759q6 -231 111.5 -336.5t306.5 -105.5q126 0 290 52v-84q-153 -49 -297 -49q-247 0 -375.5 136t-128.5 423q0 277 114.5 416.5t318.5 139.5q203 0 311 -138.5t108 -418.5v-35zM300 914q-87 -105 -92 -332h669q-5 228 -88 332.5t-242 104.5q-160 0 -247 -105z
M348 1261l-167 355h88l159 -355h-80zM674 1261l-167 355h88l159 -355h-80z" />
    <glyph glyph-name="uni0206" unicode="&#x206;" horiz-adv-x="1212" 
d="M288 83h834v-83h-924v1480h914v-83h-824v-595h726v-83h-726v-636zM452.5 1814q76.5 64 221.5 64t223.5 -64.5t89.5 -173.5h-71q-13 84 -68.5 127t-173.5 43q-117 0 -171.5 -43t-66.5 -127h-71q11 110 87.5 174z" />
    <glyph glyph-name="uni0207" unicode="&#x207;" horiz-adv-x="1063" 
d="M967 505h-759q6 -231 111.5 -336.5t306.5 -105.5q126 0 290 52v-84q-153 -49 -297 -49q-247 0 -375.5 136t-128.5 423q0 277 114.5 416.5t318.5 139.5q203 0 311 -138.5t108 -418.5v-35zM300 914q-87 -105 -92 -332h669q-5 228 -88 332.5t-242 104.5q-160 0 -247 -105z
M340 1521q74 84 209 84t211 -84.5t82 -231.5h-71q-8 119 -62.5 183t-159.5 64q-204 0 -218 -247h-71q6 148 80 232z" />
    <glyph glyph-name="uni0208" unicode="&#x208;" horiz-adv-x="487" 
d="M198 0v1480h91v-1480h-91zM40 1614l-149 275h86l143 -275h-80zM366 1614l-149 275h86l143 -275h-80z" />
    <glyph glyph-name="uni0209" unicode="&#x209;" horiz-adv-x="447" 
d="M178 0v1081h91v-1081h-91zM21 1261l-167 355h88l159 -355h-80zM347 1261l-167 355h88l159 -355h-80z" />
    <glyph glyph-name="uni020A" unicode="&#x20a;" horiz-adv-x="487" 
d="M198 0v1480h91v-1480h-91zM19.5 1814q76.5 64 221.5 64t223.5 -64.5t89.5 -173.5h-71q-13 84 -68.5 127t-173.5 43q-117 0 -171.5 -43t-66.5 -127h-71q11 110 87.5 174z" />
    <glyph glyph-name="uni020B" unicode="&#x20b;" horiz-adv-x="447" 
d="M178 0v1081h91v-1081h-91zM13 1521q74 84 209 84t211 -84.5t82 -231.5h-71q-8 119 -62.5 183t-159.5 64q-204 0 -218 -247h-71q6 148 80 232z" />
    <glyph glyph-name="uni020C" unicode="&#x20c;" horiz-adv-x="1487" 
d="M416 61.5q-138 79.5 -214.5 248.5t-76.5 430q0 260 77 429.5t215.5 249t325.5 79.5q289 0 454 -185.5t165 -572.5q0 -260 -77 -429.5t-215.5 -249t-326.5 -79.5q-189 0 -327 79.5zM1129 226q138 159 138 510q0 677 -524 677q-247 0 -385 -159t-138 -510q0 -677 523 -677
q248 0 386 159zM540 1614l-149 275h86l143 -275h-80zM866 1614l-149 275h86l143 -275h-80z" />
    <glyph glyph-name="uni020D" unicode="&#x20d;" horiz-adv-x="1144" 
d="M235.5 118q-120.5 136 -120.5 422q0 283 121.5 420t335.5 137q216 0 336.5 -135.5t120.5 -421.5q0 -282 -122 -420t-335 -138q-216 0 -336.5 136zM841 175q94 112 94 363q0 254 -94 366t-269 112t-269.5 -111t-94.5 -362q0 -254 94.5 -367t269.5 -113t269 112zM369 1261
l-167 355h88l159 -355h-80zM695 1261l-167 355h88l159 -355h-80z" />
    <glyph glyph-name="uni020E" unicode="&#x20e;" horiz-adv-x="1487" 
d="M416 61.5q-138 79.5 -214.5 248.5t-76.5 430q0 260 77 429.5t215.5 249t325.5 79.5q289 0 454 -185.5t165 -572.5q0 -260 -77 -429.5t-215.5 -249t-326.5 -79.5q-189 0 -327 79.5zM1129 226q138 159 138 510q0 677 -524 677q-247 0 -385 -159t-138 -510q0 -677 523 -677
q248 0 386 159zM519.5 1814q76.5 64 221.5 64t223.5 -64.5t89.5 -173.5h-71q-13 84 -68.5 127t-173.5 43q-117 0 -171.5 -43t-66.5 -127h-71q11 110 87.5 174z" />
    <glyph glyph-name="uni020F" unicode="&#x20f;" horiz-adv-x="1144" 
d="M235.5 118q-120.5 136 -120.5 422q0 283 121.5 420t335.5 137q216 0 336.5 -135.5t120.5 -421.5q0 -282 -122 -420t-335 -138q-216 0 -336.5 136zM841 175q94 112 94 363q0 254 -94 366t-269 112t-269.5 -111t-94.5 -362q0 -254 94.5 -367t269.5 -113t269 112zM361 1521
q74 84 209 84t211 -84.5t82 -231.5h-71q-8 119 -62.5 183t-159.5 64q-204 0 -218 -247h-71q6 148 80 232z" />
    <glyph glyph-name="uni0210" unicode="&#x210;" horiz-adv-x="1348" 
d="M1161 0l-519 644q-47 -3 -98 -3q-70 0 -125.5 3t-130.5 9v-653h-90v1456q95 18 186 28t204 10q198 0 325 -44t189 -137t62 -241q1 -357 -423 -418l529 -654h-109zM419 724.5q50 -2.5 126 -2.5q187 0 304 38t171.5 114.5t54.5 194.5q0 126 -50 201t-156.5 109t-280.5 34
q-91 0 -157.5 -6.5t-142.5 -19.5v-653q81 -7 131 -9.5zM444 1614l-149 275h86l143 -275h-80zM770 1614l-149 275h86l143 -275h-80z" />
    <glyph glyph-name="uni0211" unicode="&#x211;" horiz-adv-x="739" 
d="M178 1081h78l8 -147h8q63 73 158.5 114.5t194.5 41.5q55 0 99 -9v-87q-45 7 -101 7q-94 0 -193 -43.5t-162 -127.5v-830h-90v1081zM243 1261l-167 355h88l159 -355h-80zM569 1261l-167 355h88l159 -355h-80z" />
    <glyph glyph-name="uni0212" unicode="&#x212;" horiz-adv-x="1348" 
d="M1161 0l-519 644q-47 -3 -98 -3q-70 0 -125.5 3t-130.5 9v-653h-90v1456q95 18 186 28t204 10q198 0 325 -44t189 -137t62 -241q1 -357 -423 -418l529 -654h-109zM419 724.5q50 -2.5 126 -2.5q187 0 304 38t171.5 114.5t54.5 194.5q0 126 -50 201t-156.5 109t-280.5 34
q-91 0 -157.5 -6.5t-142.5 -19.5v-653q81 -7 131 -9.5zM423.5 1814q76.5 64 221.5 64t223.5 -64.5t89.5 -173.5h-71q-13 84 -68.5 127t-173.5 43q-117 0 -171.5 -43t-66.5 -127h-71q11 110 87.5 174z" />
    <glyph glyph-name="uni0213" unicode="&#x213;" horiz-adv-x="739" 
d="M178 1081h78l8 -147h8q63 73 158.5 114.5t194.5 41.5q55 0 99 -9v-87q-45 7 -101 7q-94 0 -193 -43.5t-162 -127.5v-830h-90v1081zM235 1521q74 84 209 84t211 -84.5t82 -231.5h-71q-8 119 -62.5 183t-159.5 64q-204 0 -218 -247h-71q6 148 80 232z" />
    <glyph glyph-name="uni0214" unicode="&#x214;" horiz-adv-x="1470" 
d="M428 42q-120 60 -179 186.5t-59 326.5v925h91v-937q0 -167 48.5 -272t148.5 -155t258 -50t258 50t148.5 155t48.5 272v937h89v-925q0 -200 -58.5 -326.5t-178.5 -186.5t-307 -60q-188 0 -308 60zM533 1614l-149 275h86l143 -275h-80zM859 1614l-149 275h86l143 -275h-80z
" />
    <glyph glyph-name="uni0215" unicode="&#x215;" horiz-adv-x="1167" 
d="M258.5 72.5q-95.5 90.5 -95.5 288.5v720h90v-718q0 -158 73.5 -227.5t205.5 -69.5q99 0 197.5 42t169.5 127v846h90v-1081h-78l-7 125h-9q-75 -70 -171 -106.5t-202 -36.5q-168 0 -263.5 90.5zM373 1261l-167 355h88l159 -355h-80zM699 1261l-167 355h88l159 -355h-80z
" />
    <glyph glyph-name="uni0216" unicode="&#x216;" horiz-adv-x="1470" 
d="M428 42q-120 60 -179 186.5t-59 326.5v925h91v-937q0 -167 48.5 -272t148.5 -155t258 -50t258 50t148.5 155t48.5 272v937h89v-925q0 -200 -58.5 -326.5t-178.5 -186.5t-307 -60q-188 0 -308 60zM512.5 1814q76.5 64 221.5 64t223.5 -64.5t89.5 -173.5h-71
q-13 84 -68.5 127t-173.5 43q-117 0 -171.5 -43t-66.5 -127h-71q11 110 87.5 174z" />
    <glyph glyph-name="uni0217" unicode="&#x217;" horiz-adv-x="1167" 
d="M258.5 72.5q-95.5 90.5 -95.5 288.5v720h90v-718q0 -158 73.5 -227.5t205.5 -69.5q99 0 197.5 42t169.5 127v846h90v-1081h-78l-7 125h-9q-75 -70 -171 -106.5t-202 -36.5q-168 0 -263.5 90.5zM365 1521q74 84 209 84t211 -84.5t82 -231.5h-71q-8 119 -62.5 183
t-159.5 64q-204 0 -218 -247h-71q6 148 80 232z" />
    <glyph glyph-name="Scommaaccent" unicode="&#x218;" horiz-adv-x="1095" 
d="M293.5 -2.5q-96.5 15.5 -183.5 45.5v85q188 -63 373 -63q213 0 320 80.5t107 237.5q0 88 -36 146t-112 96.5t-205 67.5l-71 16q-202 45 -298.5 140.5t-96.5 252.5q0 123 57.5 211.5t172 136.5t281.5 48q88 0 175.5 -12.5t164.5 -36.5v-86q-163 52 -342 52
q-206 0 -310.5 -79t-104.5 -228q0 -88 32 -146.5t103.5 -97.5t193.5 -67l71 -16q220 -49 319.5 -143t99.5 -251q0 -195 -136 -300t-387 -105q-91 0 -187.5 15.5zM607.5 -202q19.5 -23 19.5 -69q0 -40 -12 -88t-35 -93h-57q30 77 35 138h-3q-33 0 -52.5 19t-19.5 50
q0 29 18.5 47.5t49.5 18.5q37 0 56.5 -23z" />
    <glyph glyph-name="scommaaccent" unicode="&#x219;" horiz-adv-x="933" 
d="M273.5 -8q-73.5 10 -143.5 33v83q83 -25 155 -35t151 -10q166 0 243 55t77 160q0 59 -20 98t-65.5 64.5t-124.5 41.5l-152 29q-148 30 -214 100.5t-66 186.5q0 88 44.5 155t137 105.5t231.5 38.5q135 0 261 -34v-83q-72 20 -132.5 28.5t-127.5 8.5q-168 0 -245 -58.5
t-77 -157.5q0 -80 45.5 -131t155.5 -72l152 -30q153 -30 220.5 -98t67.5 -184q0 -143 -104.5 -223.5t-310.5 -80.5q-85 0 -158.5 10zM523.5 -202q19.5 -23 19.5 -69q0 -40 -12 -88t-35 -93h-57q30 77 35 138h-3q-33 0 -52.5 19t-19.5 50q0 29 18.5 47.5t49.5 18.5
q37 0 56.5 -23z" />
    <glyph glyph-name="uni021A" unicode="&#x21a;" horiz-adv-x="1193" 
d="M551 0v1396h-534v84h1159v-84h-534v-1396h-91zM649.5 -202q19.5 -23 19.5 -69q0 -40 -12 -88t-35 -93h-57q30 77 35 138h-3q-33 0 -52.5 19t-19.5 50q0 29 18.5 47.5t49.5 18.5q37 0 56.5 -23z" />
    <glyph glyph-name="uni021B" unicode="&#x21b;" horiz-adv-x="758" 
d="M749 85v-84q-83 -19 -164 -19q-169 0 -258 86t-89 265v668h-227v80h227l12 399h78v-399h399v-80h-399v-652q0 -150 67 -217t201 -67q64 0 153 20zM546.5 -202q19.5 -23 19.5 -69q0 -40 -12 -88t-35 -93h-57q30 77 35 138h-3q-33 0 -52.5 19t-19.5 50q0 29 18.5 47.5
t49.5 18.5q37 0 56.5 -23z" />
    <glyph glyph-name="uni022A" unicode="&#x22a;" horiz-adv-x="1487" 
d="M416 61.5q-138 79.5 -214.5 248.5t-76.5 430q0 260 77 429.5t215.5 249t325.5 79.5q289 0 454 -185.5t165 -572.5q0 -260 -77 -429.5t-215.5 -249t-326.5 -79.5q-189 0 -327 79.5zM1129 226q138 159 138 510q0 677 -524 677q-247 0 -385 -159t-138 -510q0 -677 523 -677
q248 0 386 159zM447.5 1701.5q-19.5 18.5 -19.5 50.5t19.5 51.5t51.5 19.5t52 -19.5t20 -51.5t-19.5 -50.5t-52.5 -18.5q-32 0 -51.5 18.5zM934.5 1701.5q-19.5 18.5 -19.5 50.5t19.5 51.5t51.5 19.5t52 -19.5t20 -51.5t-19.5 -50.5t-52.5 -18.5q-32 0 -51.5 18.5zM449 1955
v71h588v-71h-588z" />
    <glyph glyph-name="uni022B" unicode="&#x22b;" horiz-adv-x="1144" 
d="M235.5 118q-120.5 136 -120.5 422q0 283 121.5 420t335.5 137q216 0 336.5 -135.5t120.5 -421.5q0 -282 -122 -420t-335 -138q-216 0 -336.5 136zM841 175q94 112 94 363q0 254 -94 366t-269 112t-269.5 -111t-94.5 -362q0 -254 94.5 -367t269.5 -113t269 112z
M295.5 1370q-19.5 19 -19.5 52q0 32 20 52t52 20t51.5 -20t19.5 -52q0 -33 -19.5 -52t-51.5 -19q-33 0 -52.5 19zM743.5 1370q-19.5 19 -19.5 52q0 32 20 52t52 20t52 -20t20 -52q0 -33 -19.5 -52t-52.5 -19t-52.5 19zM266 1661v71h612v-71h-612z" />
    <glyph glyph-name="uni022C" unicode="&#x22c;" horiz-adv-x="1487" 
d="M416 61.5q-138 79.5 -214.5 248.5t-76.5 430q0 260 77 429.5t215.5 249t325.5 79.5q289 0 454 -185.5t165 -572.5q0 -260 -77 -429.5t-215.5 -249t-326.5 -79.5q-189 0 -327 79.5zM1129 226q138 159 138 510q0 677 -524 677q-247 0 -385 -159t-138 -510q0 -677 523 -677
q248 0 386 159zM818.5 1701q-36.5 10 -91.5 30q-46 18 -77 26.5t-62 8.5q-54 0 -93.5 -17t-76.5 -54v78q61 61 170 61q42 0 79 -10t92 -30q46 -18 77 -26.5t62 -8.5q53 0 93 17t76 54v-78q-59 -61 -170 -61q-42 0 -78.5 10zM449 1955v71h588v-71h-588z" />
    <glyph glyph-name="uni022D" unicode="&#x22d;" horiz-adv-x="1144" 
d="M235.5 118q-120.5 136 -120.5 422q0 283 121.5 420t335.5 137q216 0 336.5 -135.5t120.5 -421.5q0 -282 -122 -420t-335 -138q-216 0 -336.5 136zM841 175q94 112 94 363q0 254 -94 366t-269 112t-269.5 -111t-94.5 -362q0 -254 94.5 -367t269.5 -113t269 112z
M642 1382.5q-35 10.5 -86 30.5q-42 17 -71.5 26t-57.5 9q-48 0 -87 -17.5t-74 -54.5v80q59 61 162 61q39 0 74 -10.5t86 -30.5q42 -17 71.5 -26t57.5 -9q48 0 87 17.5t74 54.5v-79q-59 -62 -162 -62q-39 0 -74 10.5zM266 1661v71h612v-71h-612z" />
    <glyph glyph-name="uni0230" unicode="&#x230;" horiz-adv-x="1487" 
d="M416 61.5q-138 79.5 -214.5 248.5t-76.5 430q0 260 77 429.5t215.5 249t325.5 79.5q289 0 454 -185.5t165 -572.5q0 -260 -77 -429.5t-215.5 -249t-326.5 -79.5q-189 0 -327 79.5zM1129 226q138 159 138 510q0 677 -524 677q-247 0 -385 -159t-138 -510q0 -677 523 -677
q248 0 386 159zM689.5 1701.5q-20.5 18.5 -20.5 50.5t20.5 51.5t53.5 19.5t53.5 -19.5t20.5 -51.5t-20.5 -50.5t-53.5 -18.5t-53.5 18.5zM449 1955v71h588v-71h-588z" />
    <glyph glyph-name="uni0231" unicode="&#x231;" horiz-adv-x="1144" 
d="M235.5 118q-120.5 136 -120.5 422q0 283 121.5 420t335.5 137q216 0 336.5 -135.5t120.5 -421.5q0 -282 -122 -420t-335 -138q-216 0 -336.5 136zM841 175q94 112 94 363q0 254 -94 366t-269 112t-269.5 -111t-94.5 -362q0 -254 94.5 -367t269.5 -113t269 112zM518 1370
q-20 19 -20 52t20 53t54 20t54 -20t20 -53t-20 -52t-54 -19t-54 19zM266 1662v71h612v-71h-612z" />
    <glyph glyph-name="uni0232" unicode="&#x232;" horiz-adv-x="1193" 
d="M1205 1480l-563 -807v-673h-91v674l-571 806h108l511 -723l503 723h103zM303 1716v71h588v-71h-588z" />
    <glyph glyph-name="uni0233" unicode="&#x233;" horiz-adv-x="1078" 
d="M956 1081h93l-633 -1521h-93l183 440h-27l-450 1081h99l412 -1010zM235 1388v71h612v-71h-612z" />
    <glyph glyph-name="uni0237" unicode="&#x237;" horiz-adv-x="447" 
d="M-20 -417q104 134 151 272t47 312v914h91v-908q0 -188 -54 -336.5t-173 -297.5z" />
    <glyph glyph-name="uni0259" unicode="&#x259;" horiz-adv-x="1063" 
d="M819.5 963q128.5 -136 128.5 -423q0 -277 -114.5 -416.5t-318.5 -139.5q-203 0 -311 138.5t-108 418.5v35h759q-6 231 -111.5 336.5t-306.5 105.5q-126 0 -290 -52v84q153 49 297 49q247 0 375.5 -136zM763 167q87 105 92 332h-669q5 -228 88 -332.5t242 -104.5
q160 0 247 105z" />
    <glyph glyph-name="uni02BB" unicode="&#x2bb;" horiz-adv-x="1114" 
d="M609.5 1467q19.5 -19 19.5 -50q0 -29 -18.5 -47.5t-49.5 -18.5q-37 0 -56.5 23t-19.5 68q0 40 12 89t35 93h57q-30 -77 -35 -138h3q33 0 52.5 -19z" />
    <glyph glyph-name="uni02BC" unicode="&#x2bc;" horiz-adv-x="1114" 
d="M681.5 1601q19.5 -23 19.5 -68q0 -40 -12 -88.5t-35 -93.5h-57q30 77 35 138h-3q-33 0 -52.5 19t-19.5 50q0 29 18.5 47.5t49.5 18.5q37 0 56.5 -23z" />
    <glyph glyph-name="uni02BE" unicode="&#x2be;" horiz-adv-x="1114" 
d="M557 1314q56 0 91.5 35t35.5 94t-35.5 94t-91.5 35v58q53 0 96 -24t67 -67t24 -96t-24 -95.5t-67 -66.5t-96 -24v57z" />
    <glyph glyph-name="uni02BF" unicode="&#x2bf;" horiz-adv-x="1114" 
d="M461 1281q-43 24 -67 66.5t-24 95.5t24 96t67 67t96 24v-58q-56 0 -91.5 -35t-35.5 -94t35.5 -94t91.5 -35v-57q-53 0 -96 24z" />
    <glyph glyph-name="circumflex" unicode="&#x2c6;" horiz-adv-x="1114" 
d="M843 1261h-88l-198 298l-198 -298h-89l241 355h92z" />
    <glyph glyph-name="caron" unicode="&#x2c7;" horiz-adv-x="1114" 
d="M761 1616h88l-246 -355h-92l-246 355h88l204 -301z" />
    <glyph glyph-name="uni02C8" unicode="&#x2c8;" horiz-adv-x="1114" 
d="M523 1218v400h68v-400h-68z" />
    <glyph glyph-name="uni02C9" unicode="&#x2c9;" horiz-adv-x="1114" 
d="M251 1388v71h612v-71h-612z" />
    <glyph glyph-name="uni02CA" unicode="&#x2ca;" horiz-adv-x="1114" 
d="M512 1261l240 355h105l-255 -355h-90z" />
    <glyph glyph-name="uni02CB" unicode="&#x2cb;" horiz-adv-x="1114" 
d="M512 1261l-255 355h105l240 -355h-90z" />
    <glyph glyph-name="uni02CC" unicode="&#x2cc;" horiz-adv-x="1114" 
d="M523 -440v400h68v-400h-68z" />
    <glyph glyph-name="breve" unicode="&#x2d8;" horiz-adv-x="1114" 
d="M348 1358q-76 85 -82 230h71q16 -248 222 -248q106 0 158.5 64t59.5 184h71q-6 -147 -81 -231t-208 -84q-135 0 -211 85z" />
    <glyph glyph-name="dotaccent" unicode="&#x2d9;" horiz-adv-x="1114" 
d="M503 1370q-20 19 -20 52t20 53t54 20t54 -20t20 -53t-20 -52t-54 -19t-54 19z" />
    <glyph glyph-name="ring" unicode="&#x2da;" horiz-adv-x="1114" 
d="M461 1281q-43 24 -67 66.5t-24 95.5t24 96t67 67t96 24t96 -24t67 -67t24 -96t-24 -95.5t-67 -66.5t-96 -24t-96 24zM648.5 1349q35.5 35 35.5 94t-35.5 94t-91.5 35t-91.5 -35t-35.5 -94t35.5 -94t91.5 -35t91.5 35z" />
    <glyph glyph-name="ogonek" unicode="&#x2db;" horiz-adv-x="1114" 
d="M350.5 -357.5q-53.5 46.5 -53.5 126.5q0 83 53.5 151t170.5 130l31 -50q-101 -56 -144.5 -109t-43.5 -118q0 -55 36 -86.5t98 -31.5q80 0 161 44v-62q-35 -19 -78.5 -30t-82.5 -11q-94 0 -147.5 46.5z" />
    <glyph glyph-name="tilde" unicode="&#x2dc;" horiz-adv-x="1114" 
d="M627 1382.5q-35 10.5 -86 30.5q-42 17 -71.5 26t-57.5 9q-48 0 -87 -17.5t-74 -54.5v80q59 61 162 61q39 0 74 -10.5t86 -30.5q42 -17 71.5 -26t57.5 -9q48 0 87 17.5t74 54.5v-79q-59 -62 -162 -62q-39 0 -74 10.5z" />
    <glyph glyph-name="hungarumlaut" unicode="&#x2dd;" horiz-adv-x="1114" 
d="M358 1261l159 355h84l-167 -355h-76zM680 1261l159 355h84l-167 -355h-76z" />
    <glyph glyph-name="gravecomb" unicode="&#x300;" horiz-adv-x="0" 
d="M-601 1261l-256 355h104l240 -355h-88z" />
    <glyph glyph-name="acutecomb" unicode="&#x301;" horiz-adv-x="0" 
d="M-601 1261l240 355h103l-255 -355h-88z" />
    <glyph glyph-name="uni0302" unicode="&#x302;" horiz-adv-x="0" 
d="M-271 1261h-88l-198 298l-198 -298h-89l241 355h92z" />
    <glyph glyph-name="tildecomb" unicode="&#x303;" horiz-adv-x="0" 
d="M-487 1382.5q-35 10.5 -86 30.5q-42 17 -71.5 26t-57.5 9q-48 0 -87 -17.5t-74 -54.5v80q59 61 162 61q39 0 74 -10.5t86 -30.5q42 -17 71.5 -26t57.5 -9q48 0 87 17.5t74 54.5v-79q-59 -62 -162 -62q-39 0 -74 10.5z" />
    <glyph glyph-name="uni0304" unicode="&#x304;" horiz-adv-x="0" 
d="M-863 1388v71h612v-71h-612z" />
    <glyph glyph-name="uni0306" unicode="&#x306;" horiz-adv-x="0" 
d="M-766 1358q-76 85 -82 230h71q16 -248 222 -248q106 0 158.5 64t59.5 184h71q-6 -147 -81 -231t-208 -84q-135 0 -211 85z" />
    <glyph glyph-name="uni0307" unicode="&#x307;" horiz-adv-x="0" 
d="M-611 1370q-20 19 -20 52t20 53t54 20t54 -20t20 -53t-20 -52t-54 -19t-54 19z" />
    <glyph glyph-name="uni0308" unicode="&#x308;" horiz-adv-x="0" 
d="M-833.5 1370q-19.5 19 -19.5 52q0 32 20 52t52 20t51.5 -20t19.5 -52q0 -33 -19.5 -52t-51.5 -19q-33 0 -52.5 19zM-385.5 1370q-19.5 19 -19.5 52q0 32 20 52t52 20t52 -20t20 -52q0 -33 -19.5 -52t-52.5 -19t-52.5 19z" />
    <glyph glyph-name="hookabovecomb" unicode="&#x309;" horiz-adv-x="0" 
d="M-576 1326q15 27 35 44.5t51 37.5q36 24 51.5 40.5t15.5 42.5q0 38 -33 56.5t-101 18.5q-40 0 -83.5 -6t-77.5 -18v62q31 11 74.5 17.5t84.5 6.5q103 0 153.5 -35t50.5 -100q0 -31 -11.5 -53.5t-28 -36.5t-45.5 -33q-39 -26 -59.5 -48.5t-21.5 -60.5h-71q1 38 16 65z" />
    <glyph glyph-name="uni030A" unicode="&#x30a;" horiz-adv-x="0" 
d="M-653 1281q-43 24 -67 66.5t-24 95.5t24 96t67 67t96 24t96 -24t67 -67t24 -96t-24 -95.5t-67 -66.5t-96 -24t-96 24zM-465.5 1349q35.5 35 35.5 94t-35.5 94t-91.5 35t-91.5 -35t-35.5 -94t35.5 -94t91.5 -35t91.5 35z" />
    <glyph glyph-name="uni030B" unicode="&#x30b;" horiz-adv-x="0" 
d="M-756 1261l159 355h84l-167 -355h-76zM-434 1261l159 355h84l-167 -355h-76z" />
    <glyph glyph-name="uni030C" unicode="&#x30c;" horiz-adv-x="0" 
d="M-353 1616h88l-246 -355h-92l-246 355h88l204 -301z" />
    <glyph glyph-name="uni030F" unicode="&#x30f;" horiz-adv-x="0" 
d="M-760 1261l-167 355h88l159 -355h-80zM-434 1261l-167 355h88l159 -355h-80z" />
    <glyph glyph-name="uni0311" unicode="&#x311;" horiz-adv-x="0" 
d="M-768 1521q74 84 209 84t211 -84.5t82 -231.5h-71q-8 119 -62.5 183t-159.5 64q-204 0 -218 -247h-71q6 148 80 232z" />
    <glyph glyph-name="uni0312" unicode="&#x312;" horiz-adv-x="0" 
d="M-504.5 1467q19.5 -19 19.5 -50q0 -29 -18.5 -47.5t-49.5 -18.5q-37 0 -56.5 23t-19.5 68q0 40 12 89t35 93h57q-30 -77 -35 -138h3q33 0 52.5 -19z" />
    <glyph glyph-name="uni031B" unicode="&#x31b;" horiz-adv-x="0" 
d="M-570 1480h40q101 0 154 41.5t53 126.5q0 38 -6 71t-18 70h78q13 -36 19 -68.5t6 -76.5q0 -113 -73.5 -176t-206.5 -63h-46v75z" />
    <glyph glyph-name="dotbelowcomb" unicode="&#x323;" horiz-adv-x="0" 
d="M-609.5 -303q-19.5 19 -19.5 52q0 32 20 52t52 20t52 -20t20 -52q0 -33 -20 -52t-52 -19q-33 0 -52.5 19z" />
    <glyph glyph-name="uni0324" unicode="&#x324;" horiz-adv-x="0" 
d="M-833 -303q-20 19 -20 51q0 33 20 53t52 20t51.5 -20t19.5 -53q0 -32 -19.5 -51t-51.5 -19t-52 19zM-385 -303q-20 19 -20 51q0 33 20 53t52 20t52 -20t20 -53q0 -32 -20 -51t-52 -19t-52 19z" />
    <glyph glyph-name="uni0326" unicode="&#x326;" horiz-adv-x="0" 
d="M-504.5 -202q19.5 -23 19.5 -69q0 -40 -12 -88t-35 -93h-57q30 77 35 138h-3q-33 0 -52.5 19t-19.5 50q0 29 18.5 47.5t49.5 18.5q37 0 56.5 -23z" />
    <glyph glyph-name="uni0327" unicode="&#x327;" horiz-adv-x="0" 
d="M-402 -153.5q42 -37.5 42 -103.5q0 -70 -49.5 -108.5t-138.5 -38.5q-46 0 -94 10t-81 28v62q82 -41 175 -41q61 0 91.5 22t30.5 67q0 47 -31 69t-93 22h-37v185h65v-131q78 -5 120 -42.5z" />
    <glyph glyph-name="uni0328" unicode="&#x328;" horiz-adv-x="0" 
d="M-763.5 -357.5q-53.5 46.5 -53.5 126.5q0 83 53.5 151t170.5 130l31 -50q-101 -56 -144.5 -109t-43.5 -118q0 -55 36 -86.5t98 -31.5q80 0 161 44v-62q-35 -19 -78.5 -30t-82.5 -11q-94 0 -147.5 46.5z" />
    <glyph glyph-name="uni032E" unicode="&#x32e;" horiz-adv-x="0" 
d="M-713.5 -373.5q-65.5 31.5 -99.5 87t-35 127.5h71q5 -85 59 -131.5t163 -46.5q210 0 218 178h71q-2 -112 -76.5 -179t-212.5 -67q-93 0 -158.5 31.5z" />
    <glyph glyph-name="uni0331" unicode="&#x331;" horiz-adv-x="0" 
d="M-831 -288v71h547v-71h-547z" />
    <glyph glyph-name="uni0394" unicode="&#x394;" horiz-adv-x="1379" 
d="M749 1480l589 -1480h-1298l589 1480h120zM688 1400l-521 -1317h1042z" />
    <glyph glyph-name="uni03A9" unicode="&#x3a9;" horiz-adv-x="1487" 
d="M1269.5 382.5q-92.5 -178.5 -271.5 -299.5h364v-83h-500v76q206 129 305.5 302t99.5 414q0 305 -134.5 463t-389.5 158t-389 -158t-134 -463q0 -241 99.5 -414t305.5 -302v-76h-500v83h364q-179 121 -271.5 299.5t-92.5 414.5q0 223 72.5 380.5t211 239t334.5 81.5
t335 -81.5t211.5 -239t72.5 -380.5q0 -236 -92.5 -414.5z" />
    <glyph glyph-name="uni03BC" unicode="&#x3bc;" horiz-adv-x="1167" 
d="M989 1081v-1081h-78l-7 125h-9q-73 -70 -168 -106.5t-199 -36.5q-196 0 -275 126v-548h-90v1521h90v-718q0 -158 73.5 -227.5t205.5 -69.5q99 0 197.5 42t169.5 127v846h90z" />
    <glyph glyph-name="pi" unicode="&#x3c0;" horiz-adv-x="1331" 
d="M1322 81v-84q-63 -15 -127 -15q-135 0 -206.5 72.5t-72.5 232.5l-3 714h-585v-1003h-90v1003h-227v80h1222v-80h-227v-699q0 -130 48.5 -183.5t152.5 -53.5q51 0 115 16z" />
    <glyph glyph-name="uni1E08" unicode="&#x1e08;" horiz-adv-x="1198" 
d="M984 1889l-216 -275h-88l199 275h105zM369 1255.5q-148 -158.5 -148 -513.5q0 -249 69 -398.5t194.5 -213.5t306.5 -64q94 0 178.5 14.5t182.5 48.5v-86q-167 -61 -365 -61h-16v-91q85 -4 134 -41.5t49 -105.5q0 -73 -54.5 -110.5t-151.5 -37.5q-49 0 -101.5 10t-94.5 29
v62q55 -23 101.5 -32.5t93.5 -9.5q141 0 141 90t-143 90h-39v150q-581 44 -581 753q0 390 177 575t502 185q94 0 178 -12t170 -37v-86q-169 51 -348 51q-287 0 -435 -158.5z" />
    <glyph glyph-name="uni1E09" unicode="&#x1e09;" horiz-adv-x="900" 
d="M839 1616l-255 -355h-88l240 355h103zM394.5 967.5q-92.5 -47.5 -139 -151.5t-46.5 -272q0 -254 95.5 -366.5t287.5 -112.5q122 0 265 51v-84q-134 -50 -275 -50h-10v-93q78 -5 120 -42.5t42 -103.5q0 -70 -49.5 -108.5t-138.5 -38.5q-46 0 -94 10t-81 28v62
q82 -41 175 -41q61 0 91.5 22t30.5 67q0 47 -31 69t-93 22h-37v151q-392 42 -392 554q0 286 129 421.5t381 135.5q129 0 232 -32v-84q-116 34 -227 34q-143 0 -235.5 -47.5z" />
    <glyph glyph-name="uni1E0C" unicode="&#x1e0c;" horiz-adv-x="1450" 
d="M382 -5q-81 5 -184 18v1443q90 19 189 28.5t192 9.5q370 0 558 -188t188 -566q0 -380 -192 -565t-575 -185q-95 0 -176 5zM1066 234.5q164 161.5 164 505.5q0 343 -162 507t-492 164q-128 0 -287 -25v-1295q119 -18 278 -18q335 0 499 161.5zM611.5 -301
q-20.5 19 -20.5 51t20.5 51.5t53.5 19.5t53.5 -19.5t20.5 -51.5t-20.5 -51t-53.5 -19t-53.5 19z" />
    <glyph glyph-name="uni1E0D" unicode="&#x1e0d;" horiz-adv-x="1163" 
d="M236 113q-121 131 -121 406q0 291 139.5 434.5t415.5 143.5q113 0 225 -21v540h90v-1616h-78l-8 125h-8q-58 -67 -143.5 -105t-186.5 -38q-204 0 -325 131zM752 105q84 40 143 125v759q-46 13 -107 20t-121 7q-232 0 -345.5 -118t-113.5 -370q0 -247 95.5 -355
t269.5 -108q95 0 179 40zM527.5 -303q-19.5 19 -19.5 52q0 32 20 52t52 20t52 -20t20 -52q0 -33 -20 -52t-52 -19q-33 0 -52.5 19z" />
    <glyph glyph-name="uni1E0E" unicode="&#x1e0e;" horiz-adv-x="1450" 
d="M382 -5q-81 5 -184 18v1443q90 19 189 28.5t192 9.5q370 0 558 -188t188 -566q0 -380 -192 -565t-575 -185q-95 0 -176 5zM1066 234.5q164 161.5 164 505.5q0 343 -162 507t-492 164q-128 0 -287 -25v-1295q119 -18 278 -18q335 0 499 161.5zM371 -286v71h588v-71h-588z
" />
    <glyph glyph-name="uni1E0F" unicode="&#x1e0f;" horiz-adv-x="1163" 
d="M236 113q-121 131 -121 406q0 291 139.5 434.5t415.5 143.5q113 0 225 -21v540h90v-1616h-78l-8 125h-8q-58 -67 -143.5 -105t-186.5 -38q-204 0 -325 131zM752 105q84 40 143 125v759q-46 13 -107 20t-121 7q-232 0 -345.5 -118t-113.5 -370q0 -247 95.5 -355
t269.5 -108q95 0 179 40zM306 -288v71h547v-71h-547z" />
    <glyph glyph-name="uni1E14" unicode="&#x1e14;" horiz-adv-x="1212" 
d="M288 83h834v-83h-924v1480h914v-83h-824v-595h726v-83h-726v-636zM631 1890l-217 232h108l199 -232h-90zM382 1716v71h588v-71h-588z" />
    <glyph glyph-name="uni1E15" unicode="&#x1e15;" horiz-adv-x="1063" 
d="M967 505h-759q6 -231 111.5 -336.5t306.5 -105.5q126 0 290 52v-84q-153 -49 -297 -49q-247 0 -375.5 136t-128.5 423q0 277 114.5 416.5t318.5 139.5q203 0 311 -138.5t108 -418.5v-35zM300 914q-87 -105 -92 -332h669q-5 228 -88 332.5t-242 104.5q-160 0 -247 -105z
M245 1388v71h612v-71h-612zM507 1601l-216 275h105l199 -275h-88z" />
    <glyph glyph-name="uni1E16" unicode="&#x1e16;" horiz-adv-x="1212" 
d="M288 83h834v-83h-924v1480h914v-83h-824v-595h726v-83h-726v-636zM631 1890l197 232h110l-215 -232h-92zM382 1716v71h588v-71h-588z" />
    <glyph glyph-name="uni1E17" unicode="&#x1e17;" horiz-adv-x="1063" 
d="M967 505h-759q6 -231 111.5 -336.5t306.5 -105.5q126 0 290 52v-84q-153 -49 -297 -49q-247 0 -375.5 136t-128.5 423q0 277 114.5 416.5t318.5 139.5q203 0 311 -138.5t108 -418.5v-35zM300 914q-87 -105 -92 -332h669q-5 228 -88 332.5t-242 104.5q-160 0 -247 -105z
M245 1388v71h612v-71h-612zM507 1601l199 275h105l-216 -275h-88z" />
    <glyph glyph-name="uni1E1C" unicode="&#x1e1c;" horiz-adv-x="1212" 
d="M454.5 1689.5q-78.5 64.5 -89.5 173.5h71q13 -84 68.5 -127t173.5 -43q117 0 171.5 43t66.5 127h71q-11 -110 -88 -174t-221 -64q-145 0 -223.5 64.5zM710 0v-109q85 -4 134 -41.5t49 -105.5q0 -73 -54.5 -110.5t-151.5 -37.5q-49 0 -101.5 10t-94.5 29v62
q55 -23 101.5 -32.5t93.5 -9.5q141 0 141 90t-143 90h-39v165h-447v1480h914v-83h-824v-595h726v-83h-726v-636h834v-83h-412z" />
    <glyph glyph-name="uni1E1D" unicode="&#x1e1d;" horiz-adv-x="1063" 
d="M342 1358q-76 85 -82 230h71q16 -248 222 -248q106 0 158.5 64t59.5 184h71q-6 -147 -81 -231t-208 -84q-135 0 -211 85zM967 505h-759q6 -231 111.5 -336.5t306.5 -105.5q126 0 290 52v-84q-153 -49 -297 -49q-22 0 -33 1v-94q78 -5 120 -42.5t42 -103.5
q0 -70 -49.5 -108.5t-138.5 -38.5q-46 0 -94 10t-81 28v62q82 -41 175 -41q61 0 91.5 22t30.5 67q0 47 -31 69t-93 22h-37v153q-199 25 -302.5 160.5t-103.5 392.5q0 277 114.5 416.5t318.5 139.5q203 0 311 -138.5t108 -418.5v-35zM300 914q-87 -105 -92 -332h669
q-5 228 -88 332.5t-242 104.5q-160 0 -247 -105z" />
    <glyph glyph-name="uni1E20" unicode="&#x1e20;" horiz-adv-x="1410" 
d="M1229 720v-702q-101 -16 -179.5 -22.5t-166.5 -6.5q-375 0 -566 184.5t-192 564.5q0 262 89.5 431.5t248.5 249t373 79.5q90 0 176 -12.5t182 -37.5v-85q-101 28 -185 39.5t-169 11.5q-290 0 -455 -160.5t-165 -510.5q0 -344 164.5 -507t496.5 -163q141 0 260 19v628h88z
M469 1716v71h588v-71h-588z" />
    <glyph glyph-name="uni1E21" unicode="&#x1e21;" horiz-adv-x="1163" 
d="M342.5 -445.5q-88.5 14.5 -159.5 39.5v84q169 -56 323 -56q135 0 220 37.5t127 123t42 227.5v110h-7q-60 -63 -146 -100t-190 -37q-128 0 -225.5 54t-154.5 174t-57 308q0 290 138 434t408 144q169 0 324 -46v-1031q0 -253 -118 -366.5t-360 -113.5q-76 0 -164.5 14.5z
M748.5 104.5q86.5 38.5 146.5 116.5v766q-112 29 -242 29q-222 0 -333.5 -118.5t-111.5 -369.5q0 -248 96 -355t263 -107q95 0 181.5 38.5zM293 1388v71h612v-71h-612z" />
    <glyph glyph-name="uni1E24" unicode="&#x1e24;" horiz-adv-x="1498" 
d="M198 0v1480h91v-677h921v677h90v-1480h-90v718h-921v-718h-91zM695.5 -301q-20.5 19 -20.5 51t20.5 51.5t53.5 19.5t53.5 -19.5t20.5 -51.5t-20.5 -51t-53.5 -19t-53.5 19z" />
    <glyph glyph-name="uni1E25" unicode="&#x1e25;" horiz-adv-x="1177" 
d="M178 1616h90v-662h7q75 71 171.5 107t205.5 36q171 0 266.5 -90t95.5 -288v-719h-90v716q0 158 -73.5 226.5t-210.5 68.5q-102 0 -201 -41t-171 -126v-844h-90v1616zM544.5 -303q-19.5 19 -19.5 52q0 32 20 52t52 20t52 -20t20 -52q0 -33 -20 -52t-52 -19q-33 0 -52.5 19
z" />
    <glyph glyph-name="uni1E2A" unicode="&#x1e2a;" horiz-adv-x="1498" 
d="M198 0v1480h91v-677h921v677h90v-1480h-90v718h-921v-718h-91zM520.5 -336q-79.5 67 -82.5 178h71q6 -86 63 -131.5t179 -45.5t177.5 45.5t60.5 131.5h71q-3 -112 -80.5 -178.5t-228.5 -66.5t-230.5 67z" />
    <glyph glyph-name="uni1E2B" unicode="&#x1e2b;" horiz-adv-x="1177" 
d="M178 1616h90v-662h7q75 71 171.5 107t205.5 36q171 0 266.5 -90t95.5 -288v-719h-90v716q0 158 -73.5 226.5t-210.5 68.5q-102 0 -201 -41t-171 -126v-844h-90v1616zM440.5 -373.5q-65.5 31.5 -99.5 87t-35 127.5h71q5 -85 59 -131.5t163 -46.5q210 0 218 178h71
q-2 -112 -76.5 -179t-212.5 -67q-93 0 -158.5 31.5z" />
    <glyph glyph-name="uni1E2E" unicode="&#x1e2e;" horiz-adv-x="487" 
d="M198 0v1480h91v-1480h-91zM198 1890l197 232h110l-215 -232h-92zM-52.5 1701.5q-19.5 18.5 -19.5 50.5t19.5 51.5t51.5 19.5t52 -19.5t20 -51.5t-19.5 -50.5t-52.5 -18.5q-32 0 -51.5 18.5zM434.5 1701.5q-19.5 18.5 -19.5 50.5t19.5 51.5t51.5 19.5t52 -19.5t20 -51.5
t-19.5 -50.5t-52.5 -18.5q-32 0 -51.5 18.5z" />
    <glyph glyph-name="uni1E2F" unicode="&#x1e2f;" horiz-adv-x="447" 
d="M178 0v1081h91v-1081h-91zM-52.5 1370q-19.5 19 -19.5 52q0 32 20 52t52 20t51.5 -20t19.5 -52q0 -33 -19.5 -52t-51.5 -19q-33 0 -52.5 19zM395.5 1370q-19.5 19 -19.5 52q0 32 20 52t52 20t52 -20t20 -52q0 -33 -19.5 -52t-52.5 -19t-52.5 19zM188 1622l199 275h105
l-216 -275h-88z" />
    <glyph glyph-name="uni1E36" unicode="&#x1e36;" horiz-adv-x="1106" 
d="M198 0v1480h91v-1396h800v-84h-891zM590.5 -301q-20.5 19 -20.5 51t20.5 51.5t53.5 19.5t53.5 -19.5t20.5 -51.5t-20.5 -51t-53.5 -19t-53.5 19z" />
    <glyph glyph-name="uni1E37" unicode="&#x1e37;" horiz-adv-x="447" 
d="M178 0v1616h90v-1616h-90zM170.5 -303q-19.5 19 -19.5 52q0 32 20 52t52 20t52 -20t20 -52q0 -33 -20 -52t-52 -19q-33 0 -52.5 19z" />
    <glyph glyph-name="uni1E3A" unicode="&#x1e3a;" horiz-adv-x="1106" 
d="M198 0v1480h91v-1396h800v-84h-891zM350 -286v71h588v-71h-588z" />
    <glyph glyph-name="uni1E3B" unicode="&#x1e3b;" horiz-adv-x="447" 
d="M178 0v1616h90v-1616h-90zM-51 -288v71h547v-71h-547z" />
    <glyph glyph-name="uni1E42" unicode="&#x1e42;" horiz-adv-x="1796" 
d="M1492 1480h102v-1480h-87v1323l-563 -1122h-92l-563 1117v-1318h-87v1480h103l595 -1191zM846.5 -301q-20.5 19 -20.5 51t20.5 51.5t53.5 19.5t53.5 -19.5t20.5 -51.5t-20.5 -51t-53.5 -19t-53.5 19z" />
    <glyph glyph-name="uni1E43" unicode="&#x1e43;" horiz-adv-x="1738" 
d="M1487.5 1006.5q87.5 -90.5 87.5 -288.5v-718h-90v716q0 297 -250 297q-86 0 -172 -40t-149 -127q11 -58 11 -127v-719h-89v716q0 158 -64 227.5t-181 69.5q-88 0 -174 -43t-149 -130v-840h-90v1081h78l8 -130h8q66 72 152.5 109t181.5 37q208 0 281 -164q78 86 171.5 125
t187.5 39q154 0 241.5 -90.5zM827.5 -303q-19.5 19 -19.5 52q0 32 20 52t52 20t52 -20t20 -52q0 -33 -20 -52t-52 -19q-33 0 -52.5 19z" />
    <glyph glyph-name="uni1E44" unicode="&#x1e44;" horiz-adv-x="1527" 
d="M1242 1480h87v-1480h-97l-947 1343v-1343h-87v1480h97l947 -1345v1345zM710.5 1701.5q-20.5 18.5 -20.5 50.5t20.5 51.5t53.5 19.5t53.5 -19.5t20.5 -51.5t-20.5 -50.5t-53.5 -18.5t-53.5 18.5z" />
    <glyph glyph-name="uni1E45" unicode="&#x1e45;" horiz-adv-x="1177" 
d="M178 1081h78l8 -130h8q76 71 173.5 108.5t204.5 37.5q364 0 364 -383v-714h-90v713q0 159 -73 229.5t-211 70.5q-99 0 -199 -40.5t-173 -127.5v-845h-90v1081zM543 1370q-20 19 -20 52t20 53t54 20t54 -20t20 -53t-20 -52t-54 -19t-54 19z" />
    <glyph glyph-name="uni1E46" unicode="&#x1e46;" horiz-adv-x="1527" 
d="M1242 1480h87v-1480h-97l-947 1343v-1343h-87v1480h97l947 -1345v1345zM710.5 -301q-20.5 19 -20.5 51t20.5 51.5t53.5 19.5t53.5 -19.5t20.5 -51.5t-20.5 -51t-53.5 -19t-53.5 19z" />
    <glyph glyph-name="uni1E47" unicode="&#x1e47;" horiz-adv-x="1177" 
d="M178 1081h78l8 -130h8q76 71 173.5 108.5t204.5 37.5q364 0 364 -383v-714h-90v713q0 159 -73 229.5t-211 70.5q-99 0 -199 -40.5t-173 -127.5v-845h-90v1081zM544.5 -303q-19.5 19 -19.5 52q0 32 20 52t52 20t52 -20t20 -52q0 -33 -20 -52t-52 -19q-33 0 -52.5 19z" />
    <glyph glyph-name="uni1E48" unicode="&#x1e48;" horiz-adv-x="1527" 
d="M1242 1480h87v-1480h-97l-947 1343v-1343h-87v1480h97l947 -1345v1345zM470 -286v71h588v-71h-588z" />
    <glyph glyph-name="uni1E49" unicode="&#x1e49;" horiz-adv-x="1177" 
d="M178 1081h78l8 -130h8q76 71 173.5 108.5t204.5 37.5q364 0 364 -383v-714h-90v713q0 159 -73 229.5t-211 70.5q-99 0 -199 -40.5t-173 -127.5v-845h-90v1081zM323 -288v71h547v-71h-547z" />
    <glyph glyph-name="uni1E4C" unicode="&#x1e4c;" horiz-adv-x="1487" 
d="M416 61.5q-138 79.5 -214.5 248.5t-76.5 430q0 260 77 429.5t215.5 249t325.5 79.5q289 0 454 -185.5t165 -572.5q0 -260 -77 -429.5t-215.5 -249t-326.5 -79.5q-189 0 -327 79.5zM1129 226q138 159 138 510q0 677 -524 677q-247 0 -385 -159t-138 -510q0 -677 523 -677
q248 0 386 159zM698 1890l197 232h110l-215 -232h-92zM818.5 1701q-36.5 10 -91.5 30q-46 18 -77 26.5t-62 8.5q-54 0 -93.5 -17t-76.5 -54v78q61 61 170 61q42 0 79 -10t92 -30q46 -18 77 -26.5t62 -8.5q53 0 93 17t76 54v-78q-59 -61 -170 -61q-42 0 -78.5 10z" />
    <glyph glyph-name="uni1E4D" unicode="&#x1e4d;" horiz-adv-x="1144" 
d="M235.5 118q-120.5 136 -120.5 422q0 283 121.5 420t335.5 137q216 0 336.5 -135.5t120.5 -421.5q0 -282 -122 -420t-335 -138q-216 0 -336.5 136zM841 175q94 112 94 363q0 254 -94 366t-269 112t-269.5 -111t-94.5 -362q0 -254 94.5 -367t269.5 -113t269 112z
M642 1382.5q-35 10.5 -86 30.5q-42 17 -71.5 26t-57.5 9q-48 0 -87 -17.5t-74 -54.5v80q59 61 162 61q39 0 74 -10.5t86 -30.5q42 -17 71.5 -26t57.5 -9q48 0 87 17.5t74 54.5v-79q-59 -62 -162 -62q-39 0 -74 10.5zM536 1622l199 275h105l-216 -275h-88z" />
    <glyph glyph-name="uni1E4E" unicode="&#x1e4e;" horiz-adv-x="1487" 
d="M416 61.5q-138 79.5 -214.5 248.5t-76.5 430q0 260 77 429.5t215.5 249t325.5 79.5q289 0 454 -185.5t165 -572.5q0 -260 -77 -429.5t-215.5 -249t-326.5 -79.5q-189 0 -327 79.5zM1129 226q138 159 138 510q0 677 -524 677q-247 0 -385 -159t-138 -510q0 -677 523 -677
q248 0 386 159zM818.5 1701q-36.5 10 -91.5 30q-46 18 -77 26.5t-62 8.5q-54 0 -93.5 -17t-76.5 -54v78q61 61 170 61q42 0 79 -10t92 -30q46 -18 77 -26.5t62 -8.5q53 0 93 17t76 54v-78q-59 -61 -170 -61q-42 0 -78.5 10zM447.5 1940.5q-19.5 18.5 -19.5 50.5t19.5 51.5
t51.5 19.5t52 -19.5t20 -51.5t-19.5 -50.5t-52.5 -18.5q-32 0 -51.5 18.5zM934.5 1940.5q-19.5 18.5 -19.5 50.5t19.5 51.5t51.5 19.5t52 -19.5t20 -51.5t-19.5 -50.5t-52.5 -18.5q-32 0 -51.5 18.5z" />
    <glyph glyph-name="uni1E4F" unicode="&#x1e4f;" horiz-adv-x="1144" 
d="M235.5 118q-120.5 136 -120.5 422q0 283 121.5 420t335.5 137q216 0 336.5 -135.5t120.5 -421.5q0 -282 -122 -420t-335 -138q-216 0 -336.5 136zM841 175q94 112 94 363q0 254 -94 366t-269 112t-269.5 -111t-94.5 -362q0 -254 94.5 -367t269.5 -113t269 112z
M642 1382.5q-35 10.5 -86 30.5q-42 17 -71.5 26t-57.5 9q-48 0 -87 -17.5t-74 -54.5v80q59 61 162 61q39 0 74 -10.5t86 -30.5q42 -17 71.5 -26t57.5 -9q48 0 87 17.5t74 54.5v-79q-59 -62 -162 -62q-39 0 -74 10.5zM295.5 1643q-19.5 19 -19.5 52q0 32 20 52t52 20
t51.5 -20t19.5 -52q0 -33 -19.5 -52t-51.5 -19q-33 0 -52.5 19zM743.5 1643q-19.5 19 -19.5 52q0 32 20 52t52 20t52 -20t20 -52q0 -33 -19.5 -52t-52.5 -19t-52.5 19z" />
    <glyph glyph-name="uni1E50" unicode="&#x1e50;" horiz-adv-x="1487" 
d="M416 61.5q-138 79.5 -214.5 248.5t-76.5 430q0 260 77 429.5t215.5 249t325.5 79.5q289 0 454 -185.5t165 -572.5q0 -260 -77 -429.5t-215.5 -249t-326.5 -79.5q-189 0 -327 79.5zM1129 226q138 159 138 510q0 677 -524 677q-247 0 -385 -159t-138 -510q0 -677 523 -677
q248 0 386 159zM698 1890l-217 232h108l199 -232h-90zM449 1716v71h588v-71h-588z" />
    <glyph glyph-name="uni1E51" unicode="&#x1e51;" horiz-adv-x="1144" 
d="M235.5 118q-120.5 136 -120.5 422q0 283 121.5 420t335.5 137q216 0 336.5 -135.5t120.5 -421.5q0 -282 -122 -420t-335 -138q-216 0 -336.5 136zM841 175q94 112 94 363q0 254 -94 366t-269 112t-269.5 -111t-94.5 -362q0 -254 94.5 -367t269.5 -113t269 112zM266 1388
v71h612v-71h-612zM528 1601l-216 275h105l199 -275h-88z" />
    <glyph glyph-name="uni1E52" unicode="&#x1e52;" horiz-adv-x="1487" 
d="M416 61.5q-138 79.5 -214.5 248.5t-76.5 430q0 260 77 429.5t215.5 249t325.5 79.5q289 0 454 -185.5t165 -572.5q0 -260 -77 -429.5t-215.5 -249t-326.5 -79.5q-189 0 -327 79.5zM1129 226q138 159 138 510q0 677 -524 677q-247 0 -385 -159t-138 -510q0 -677 523 -677
q248 0 386 159zM698 1890l197 232h110l-215 -232h-92zM449 1716v71h588v-71h-588z" />
    <glyph glyph-name="uni1E53" unicode="&#x1e53;" horiz-adv-x="1144" 
d="M235.5 118q-120.5 136 -120.5 422q0 283 121.5 420t335.5 137q216 0 336.5 -135.5t120.5 -421.5q0 -282 -122 -420t-335 -138q-216 0 -336.5 136zM841 175q94 112 94 363q0 254 -94 366t-269 112t-269.5 -111t-94.5 -362q0 -254 94.5 -367t269.5 -113t269 112zM266 1388
v71h612v-71h-612zM528 1601l199 275h105l-216 -275h-88z" />
    <glyph glyph-name="uni1E5A" unicode="&#x1e5a;" horiz-adv-x="1348" 
d="M1161 0l-519 644q-47 -3 -98 -3q-70 0 -125.5 3t-130.5 9v-653h-90v1456q95 18 186 28t204 10q198 0 325 -44t189 -137t62 -241q1 -357 -423 -418l529 -654h-109zM419 724.5q50 -2.5 126 -2.5q187 0 304 38t171.5 114.5t54.5 194.5q0 126 -50 201t-156.5 109t-280.5 34
q-91 0 -157.5 -6.5t-142.5 -19.5v-653q81 -7 131 -9.5zM644.5 -301q-20.5 19 -20.5 51t20.5 51.5t53.5 19.5t53.5 -19.5t20.5 -51.5t-20.5 -51t-53.5 -19t-53.5 19z" />
    <glyph glyph-name="uni1E5B" unicode="&#x1e5b;" horiz-adv-x="739" 
d="M178 1081h78l8 -147h8q63 73 158.5 114.5t194.5 41.5q55 0 99 -9v-87q-45 7 -101 7q-94 0 -193 -43.5t-162 -127.5v-830h-90v1081zM171.5 -303q-19.5 19 -19.5 52q0 32 20 52t52 20t52 -20t20 -52q0 -33 -20 -52t-52 -19q-33 0 -52.5 19z" />
    <glyph glyph-name="uni1E5E" unicode="&#x1e5e;" horiz-adv-x="1348" 
d="M1161 0l-519 644q-47 -3 -98 -3q-70 0 -125.5 3t-130.5 9v-653h-90v1456q95 18 186 28t204 10q198 0 325 -44t189 -137t62 -241q1 -357 -423 -418l529 -654h-109zM419 724.5q50 -2.5 126 -2.5q187 0 304 38t171.5 114.5t54.5 194.5q0 126 -50 201t-156.5 109t-280.5 34
q-91 0 -157.5 -6.5t-142.5 -19.5v-653q81 -7 131 -9.5zM404 -286v71h588v-71h-588z" />
    <glyph glyph-name="uni1E5F" unicode="&#x1e5f;" horiz-adv-x="739" 
d="M178 1081h78l8 -147h8q63 73 158.5 114.5t194.5 41.5q55 0 99 -9v-87q-45 7 -101 7q-94 0 -193 -43.5t-162 -127.5v-830h-90v1081zM-50 -288v71h547v-71h-547z" />
    <glyph glyph-name="uni1E60" unicode="&#x1e60;" horiz-adv-x="1095" 
d="M293.5 -2.5q-96.5 15.5 -183.5 45.5v85q188 -63 373 -63q213 0 320 80.5t107 237.5q0 88 -36 146t-112 96.5t-205 67.5l-71 16q-202 45 -298.5 140.5t-96.5 252.5q0 123 57.5 211.5t172 136.5t281.5 48q88 0 175.5 -12.5t164.5 -36.5v-86q-163 52 -342 52
q-206 0 -310.5 -79t-104.5 -228q0 -88 32 -146.5t103.5 -97.5t193.5 -67l71 -16q220 -49 319.5 -143t99.5 -251q0 -195 -136 -300t-387 -105q-91 0 -187.5 15.5zM501.5 1701.5q-20.5 18.5 -20.5 50.5t20.5 51.5t53.5 19.5t53.5 -19.5t20.5 -51.5t-20.5 -50.5t-53.5 -18.5
t-53.5 18.5z" />
    <glyph glyph-name="uni1E61" unicode="&#x1e61;" horiz-adv-x="933" 
d="M273.5 -8q-73.5 10 -143.5 33v83q83 -25 155 -35t151 -10q166 0 243 55t77 160q0 59 -20 98t-65.5 64.5t-124.5 41.5l-152 29q-148 30 -214 100.5t-66 186.5q0 88 44.5 155t137 105.5t231.5 38.5q135 0 261 -34v-83q-72 20 -132.5 28.5t-127.5 8.5q-168 0 -245 -58.5
t-77 -157.5q0 -80 45.5 -131t155.5 -72l152 -30q153 -30 220.5 -98t67.5 -184q0 -143 -104.5 -223.5t-310.5 -80.5q-85 0 -158.5 10zM417 1370q-20 19 -20 52t20 53t54 20t54 -20t20 -53t-20 -52t-54 -19t-54 19z" />
    <glyph glyph-name="uni1E62" unicode="&#x1e62;" horiz-adv-x="1095" 
d="M293.5 -2.5q-96.5 15.5 -183.5 45.5v85q188 -63 373 -63q213 0 320 80.5t107 237.5q0 88 -36 146t-112 96.5t-205 67.5l-71 16q-202 45 -298.5 140.5t-96.5 252.5q0 123 57.5 211.5t172 136.5t281.5 48q88 0 175.5 -12.5t164.5 -36.5v-86q-163 52 -342 52
q-206 0 -310.5 -79t-104.5 -228q0 -88 32 -146.5t103.5 -97.5t193.5 -67l71 -16q220 -49 319.5 -143t99.5 -251q0 -195 -136 -300t-387 -105q-91 0 -187.5 15.5zM501.5 -301q-20.5 19 -20.5 51t20.5 51.5t53.5 19.5t53.5 -19.5t20.5 -51.5t-20.5 -51t-53.5 -19t-53.5 19z
" />
    <glyph glyph-name="uni1E63" unicode="&#x1e63;" horiz-adv-x="933" 
d="M273.5 -8q-73.5 10 -143.5 33v83q83 -25 155 -35t151 -10q166 0 243 55t77 160q0 59 -20 98t-65.5 64.5t-124.5 41.5l-152 29q-148 30 -214 100.5t-66 186.5q0 88 44.5 155t137 105.5t231.5 38.5q135 0 261 -34v-83q-72 20 -132.5 28.5t-127.5 8.5q-168 0 -245 -58.5
t-77 -157.5q0 -80 45.5 -131t155.5 -72l152 -30q153 -30 220.5 -98t67.5 -184q0 -143 -104.5 -223.5t-310.5 -80.5q-85 0 -158.5 10zM418.5 -303q-19.5 19 -19.5 52q0 32 20 52t52 20t52 -20t20 -52q0 -33 -20 -52t-52 -19q-33 0 -52.5 19z" />
    <glyph glyph-name="uni1E64" unicode="&#x1e64;" horiz-adv-x="1095" 
d="M293.5 -2.5q-96.5 15.5 -183.5 45.5v85q188 -63 373 -63q213 0 320 80.5t107 237.5q0 88 -36 146t-112 96.5t-205 67.5l-71 16q-202 45 -298.5 140.5t-96.5 252.5q0 123 57.5 211.5t172 136.5t281.5 48q88 0 175.5 -12.5t164.5 -36.5v-86q-163 52 -342 52
q-206 0 -310.5 -79t-104.5 -228q0 -88 32 -146.5t103.5 -97.5t193.5 -67l71 -16q220 -49 319.5 -143t99.5 -251q0 -195 -136 -300t-387 -105q-91 0 -187.5 15.5zM447.5 1867q-19.5 18 -19.5 49t19.5 50t51.5 19q31 0 50.5 -19t19.5 -50t-19 -49t-51 -18t-51.5 18zM511 1614
l199 275h105l-216 -275h-88z" />
    <glyph glyph-name="uni1E65" unicode="&#x1e65;" horiz-adv-x="933" 
d="M273.5 -8q-73.5 10 -143.5 33v83q83 -25 155 -35t151 -10q166 0 243 55t77 160q0 59 -20 98t-65.5 64.5t-124.5 41.5l-152 29q-148 30 -214 100.5t-66 186.5q0 88 44.5 155t137 105.5t231.5 38.5q135 0 261 -34v-83q-72 20 -132.5 28.5t-127.5 8.5q-168 0 -245 -58.5
t-77 -157.5q0 -80 45.5 -131t155.5 -72l152 -30q153 -30 220.5 -98t67.5 -184q0 -143 -104.5 -223.5t-310.5 -80.5q-85 0 -158.5 10zM368.5 1594q-19.5 18 -19.5 49t19.5 50t51.5 19q31 0 50.5 -19t19.5 -50t-19 -49t-51 -18t-51.5 18zM427 1261l240 355h103l-255 -355h-88z
" />
    <glyph glyph-name="uni1E66" unicode="&#x1e66;" horiz-adv-x="1095" 
d="M293.5 -2.5q-96.5 15.5 -183.5 45.5v85q188 -63 373 -63q213 0 320 80.5t107 237.5q0 88 -36 146t-112 96.5t-205 67.5l-71 16q-202 45 -298.5 140.5t-96.5 252.5q0 123 57.5 211.5t172 136.5t281.5 48q88 0 175.5 -12.5t164.5 -36.5v-86q-163 52 -342 52
q-206 0 -310.5 -79t-104.5 -228q0 -88 32 -146.5t103.5 -97.5t193.5 -67l71 -16q220 -49 319.5 -143t99.5 -251q0 -195 -136 -300t-387 -105q-91 0 -187.5 15.5zM503.5 1909q-19.5 18 -19.5 49t19.5 50t51.5 19t51 -19t19 -50t-19 -49t-51 -18t-51.5 18zM764 1889h101
l-264 -275h-93l-263 275h101l209 -223z" />
    <glyph glyph-name="uni1E67" unicode="&#x1e67;" horiz-adv-x="933" 
d="M273.5 -8q-73.5 10 -143.5 33v83q83 -25 155 -35t151 -10q166 0 243 55t77 160q0 59 -20 98t-65.5 64.5t-124.5 41.5l-152 29q-148 30 -214 100.5t-66 186.5q0 88 44.5 155t137 105.5t231.5 38.5q135 0 261 -34v-83q-72 20 -132.5 28.5t-127.5 8.5q-168 0 -245 -58.5
t-77 -157.5q0 -80 45.5 -131t155.5 -72l152 -30q153 -30 220.5 -98t67.5 -184q0 -143 -104.5 -223.5t-310.5 -80.5q-85 0 -158.5 10zM419.5 1635q-19.5 18 -19.5 49t19.5 50t51.5 19q31 0 50.5 -19t19.5 -50t-19 -49t-51 -18t-51.5 18zM675 1616h88l-246 -355h-92l-246 355
h88l204 -301z" />
    <glyph glyph-name="uni1E68" unicode="&#x1e68;" horiz-adv-x="1095" 
d="M293.5 -2.5q-96.5 15.5 -183.5 45.5v85q188 -63 373 -63q213 0 320 80.5t107 237.5q0 88 -36 146t-112 96.5t-205 67.5l-71 16q-202 45 -298.5 140.5t-96.5 252.5q0 123 57.5 211.5t172 136.5t281.5 48q88 0 175.5 -12.5t164.5 -36.5v-86q-163 52 -342 52
q-206 0 -310.5 -79t-104.5 -228q0 -88 32 -146.5t103.5 -97.5t193.5 -67l71 -16q220 -49 319.5 -143t99.5 -251q0 -195 -136 -300t-387 -105q-91 0 -187.5 15.5zM501.5 -301q-20.5 19 -20.5 51t20.5 51.5t53.5 19.5t53.5 -19.5t20.5 -51.5t-20.5 -51t-53.5 -19t-53.5 19z
M501.5 1701.5q-20.5 18.5 -20.5 50.5t20.5 51.5t53.5 19.5t53.5 -19.5t20.5 -51.5t-20.5 -50.5t-53.5 -18.5t-53.5 18.5z" />
    <glyph glyph-name="uni1E69" unicode="&#x1e69;" horiz-adv-x="933" 
d="M273.5 -8q-73.5 10 -143.5 33v83q83 -25 155 -35t151 -10q166 0 243 55t77 160q0 59 -20 98t-65.5 64.5t-124.5 41.5l-152 29q-148 30 -214 100.5t-66 186.5q0 88 44.5 155t137 105.5t231.5 38.5q135 0 261 -34v-83q-72 20 -132.5 28.5t-127.5 8.5q-168 0 -245 -58.5
t-77 -157.5q0 -80 45.5 -131t155.5 -72l152 -30q153 -30 220.5 -98t67.5 -184q0 -143 -104.5 -223.5t-310.5 -80.5q-85 0 -158.5 10zM418.5 -303q-19.5 19 -19.5 52q0 32 20 52t52 20t52 -20t20 -52q0 -33 -20 -52t-52 -19q-33 0 -52.5 19zM417 1370q-20 19 -20 52t20 53
t54 20t54 -20t20 -53t-20 -52t-54 -19t-54 19z" />
    <glyph glyph-name="uni1E6C" unicode="&#x1e6c;" horiz-adv-x="1193" 
d="M551 0v1396h-534v84h1159v-84h-534v-1396h-91zM543.5 -301q-20.5 19 -20.5 51t20.5 51.5t53.5 19.5t53.5 -19.5t20.5 -51.5t-20.5 -51t-53.5 -19t-53.5 19z" />
    <glyph glyph-name="uni1E6D" unicode="&#x1e6d;" horiz-adv-x="758" 
d="M749 85v-84q-83 -19 -164 -19q-169 0 -258 86t-89 265v668h-227v80h227l12 399h78v-399h399v-80h-399v-652q0 -150 67 -217t201 -67q64 0 153 20zM441.5 -303q-19.5 19 -19.5 52q0 32 20 52t52 20t52 -20t20 -52q0 -33 -20 -52t-52 -19q-33 0 -52.5 19z" />
    <glyph glyph-name="uni1E6E" unicode="&#x1e6e;" horiz-adv-x="1193" 
d="M551 0v1396h-534v84h1159v-84h-534v-1396h-91zM303 -286v71h588v-71h-588z" />
    <glyph glyph-name="uni1E6F" unicode="&#x1e6f;" horiz-adv-x="758" 
d="M749 85v-84q-83 -19 -164 -19q-169 0 -258 86t-89 265v668h-227v80h227l12 399h78v-399h399v-80h-399v-652q0 -150 67 -217t201 -67q64 0 153 20zM220 -288v71h547v-71h-547z" />
    <glyph glyph-name="uni1E78" unicode="&#x1e78;" horiz-adv-x="1470" 
d="M428 42q-120 60 -179 186.5t-59 326.5v925h91v-937q0 -167 48.5 -272t148.5 -155t258 -50t258 50t148.5 155t48.5 272v937h89v-925q0 -200 -58.5 -326.5t-178.5 -186.5t-307 -60q-188 0 -308 60zM691 1890l197 232h110l-215 -232h-92zM811.5 1701q-36.5 10 -91.5 30
q-46 18 -77 26.5t-62 8.5q-54 0 -93.5 -17t-76.5 -54v78q61 61 170 61q42 0 79 -10t92 -30q46 -18 77 -26.5t62 -8.5q53 0 93 17t76 54v-78q-59 -61 -170 -61q-42 0 -78.5 10z" />
    <glyph glyph-name="uni1E79" unicode="&#x1e79;" horiz-adv-x="1167" 
d="M258.5 72.5q-95.5 90.5 -95.5 288.5v720h90v-718q0 -158 73.5 -227.5t205.5 -69.5q99 0 197.5 42t169.5 127v846h90v-1081h-78l-7 125h-9q-75 -70 -171 -106.5t-202 -36.5q-168 0 -263.5 90.5zM646 1382.5q-35 10.5 -86 30.5q-42 17 -71.5 26t-57.5 9q-48 0 -87 -17.5
t-74 -54.5v80q59 61 162 61q39 0 74 -10.5t86 -30.5q42 -17 71.5 -26t57.5 -9q48 0 87 17.5t74 54.5v-79q-59 -62 -162 -62q-39 0 -74 10.5zM540 1622l199 275h105l-216 -275h-88z" />
    <glyph glyph-name="uni1E7A" unicode="&#x1e7a;" horiz-adv-x="1470" 
d="M428 42q-120 60 -179 186.5t-59 326.5v925h91v-937q0 -167 48.5 -272t148.5 -155t258 -50t258 50t148.5 155t48.5 272v937h89v-925q0 -200 -58.5 -326.5t-178.5 -186.5t-307 -60q-188 0 -308 60zM442 1716v71h588v-71h-588zM440.5 1940.5q-19.5 18.5 -19.5 50.5
t19.5 51.5t51.5 19.5t52 -19.5t20 -51.5t-19.5 -50.5t-52.5 -18.5q-32 0 -51.5 18.5zM927.5 1940.5q-19.5 18.5 -19.5 50.5t19.5 51.5t51.5 19.5t52 -19.5t20 -51.5t-19.5 -50.5t-52.5 -18.5q-32 0 -51.5 18.5z" />
    <glyph glyph-name="uni1E7B" unicode="&#x1e7b;" horiz-adv-x="1167" 
d="M258.5 72.5q-95.5 90.5 -95.5 288.5v720h90v-718q0 -158 73.5 -227.5t205.5 -69.5q99 0 197.5 42t169.5 127v846h90v-1081h-78l-7 125h-9q-75 -70 -171 -106.5t-202 -36.5q-168 0 -263.5 90.5zM270 1388v71h612v-71h-612zM299.5 1643q-19.5 19 -19.5 52q0 32 20 52t52 20
t51.5 -20t19.5 -52q0 -33 -19.5 -52t-51.5 -19q-33 0 -52.5 19zM747.5 1643q-19.5 19 -19.5 52q0 32 20 52t52 20t52 -20t20 -52q0 -33 -19.5 -52t-52.5 -19t-52.5 19z" />
    <glyph glyph-name="Wgrave" unicode="&#x1e80;" horiz-adv-x="2168" 
d="M2004 1480h90l-455 -1480h-122l-433 1382l-433 -1382h-122l-457 1480h96l425 -1395l433 1395h117l434 -1397zM1041 1614l-216 275h105l199 -275h-88z" />
    <glyph glyph-name="wgrave" unicode="&#x1e81;" horiz-adv-x="1730" 
d="M1563 1081h90l-346 -1081h-117l-324 988l-325 -988h-116l-348 1081h93l316 -992l322 992h117l323 -991zM823 1261l-256 355h104l240 -355h-88z" />
    <glyph glyph-name="Wacute" unicode="&#x1e82;" horiz-adv-x="2168" 
d="M2004 1480h90l-455 -1480h-122l-433 1382l-433 -1382h-122l-457 1480h96l425 -1395l433 1395h117l434 -1397zM1041 1614l199 275h105l-216 -275h-88z" />
    <glyph glyph-name="wacute" unicode="&#x1e83;" horiz-adv-x="1730" 
d="M1563 1081h90l-346 -1081h-117l-324 988l-325 -988h-116l-348 1081h93l316 -992l322 992h117l323 -991zM823 1261l240 355h103l-255 -355h-88z" />
    <glyph glyph-name="Wdieresis" unicode="&#x1e84;" horiz-adv-x="2168" 
d="M2004 1480h90l-455 -1480h-122l-433 1382l-433 -1382h-122l-457 1480h96l425 -1395l433 1395h117l434 -1397zM789.5 1701.5q-19.5 18.5 -19.5 50.5t19.5 51.5t51.5 19.5t52 -19.5t20 -51.5t-19.5 -50.5t-52.5 -18.5q-32 0 -51.5 18.5zM1276.5 1701.5
q-19.5 18.5 -19.5 50.5t19.5 51.5t51.5 19.5t52 -19.5t20 -51.5t-19.5 -50.5t-52.5 -18.5q-32 0 -51.5 18.5z" />
    <glyph glyph-name="wdieresis" unicode="&#x1e85;" horiz-adv-x="1730" 
d="M1563 1081h90l-346 -1081h-117l-324 988l-325 -988h-116l-348 1081h93l316 -992l322 992h117l323 -991zM590.5 1370q-19.5 19 -19.5 52q0 32 20 52t52 20t51.5 -20t19.5 -52q0 -33 -19.5 -52t-51.5 -19q-33 0 -52.5 19zM1038.5 1370q-19.5 19 -19.5 52q0 32 20 52t52 20
t52 -20t20 -52q0 -33 -19.5 -52t-52.5 -19t-52.5 19z" />
    <glyph glyph-name="uni1E8E" unicode="&#x1e8e;" horiz-adv-x="1193" 
d="M1205 1480l-563 -807v-673h-91v674l-571 806h108l511 -723l503 723h103zM543.5 1701.5q-20.5 18.5 -20.5 50.5t20.5 51.5t53.5 19.5t53.5 -19.5t20.5 -51.5t-20.5 -50.5t-53.5 -18.5t-53.5 18.5z" />
    <glyph glyph-name="uni1E8F" unicode="&#x1e8f;" horiz-adv-x="1078" 
d="M956 1081h93l-633 -1521h-93l183 440h-27l-450 1081h99l412 -1010zM487 1370q-20 19 -20 52t20 53t54 20t54 -20t20 -53t-20 -52t-54 -19t-54 19z" />
    <glyph glyph-name="uni1E92" unicode="&#x1e92;" horiz-adv-x="1191" 
d="M191 82h934v-82h-1059v52l922 1346h-909v82h1033v-52zM542.5 -301q-20.5 19 -20.5 51t20.5 51.5t53.5 19.5t53.5 -19.5t20.5 -51.5t-20.5 -51t-53.5 -19t-53.5 19z" />
    <glyph glyph-name="uni1E93" unicode="&#x1e93;" horiz-adv-x="939" 
d="M187 80h692v-80h-814v54l679 947h-666v80h788v-54zM419.5 -303q-19.5 19 -19.5 52q0 32 20 52t52 20t52 -20t20 -52q0 -33 -20 -52t-52 -19q-33 0 -52.5 19z" />
    <glyph glyph-name="uni1E97" unicode="&#x1e97;" horiz-adv-x="758" 
d="M749 85v-84q-83 -19 -164 -19q-169 0 -258 86t-89 265v668h-227v80h227l12 399h78v-399h399v-80h-399v-652q0 -150 67 -217t201 -67q64 0 153 20zM6.5 1652q-19.5 19 -19.5 52q0 32 20 52t52 20t51.5 -20t19.5 -52q0 -33 -19.5 -52t-51.5 -19q-33 0 -52.5 19zM454.5 1652
q-19.5 19 -19.5 52q0 32 20 52t52 20t52 -20t20 -52q0 -33 -19.5 -52t-52.5 -19t-52.5 19z" />
    <glyph glyph-name="uni1E9E" unicode="&#x1e9e;" horiz-adv-x="1751" 
d="M1561.5 638q99.5 -94 99.5 -251q0 -195 -135.5 -300t-386.5 -105q-90 0 -186.5 15.5t-183.5 45.5v85q188 -63 372 -63q213 0 319.5 80.5t106.5 237.5q0 88 -35.5 146t-112 96.5t-204.5 67.5l-71 16q-201 45 -297 140.5t-96 252.5q0 96 35.5 172t105.5 127q-70 14 -151 14
q-157 0 -256.5 -49.5t-147.5 -154t-48 -269.5v-942h-91v930q0 197 59 322.5t178.5 185.5t305.5 60q153 0 256 -41q111 41 264 41q89 0 176 -12.5t162 -36.5v-85q-165 51 -340 51q-206 0 -310.5 -79t-104.5 -228q0 -88 32 -146.5t103 -97.5t193 -67l71 -16
q219 -49 318.5 -143z" />
    <glyph glyph-name="uni1EA0" unicode="&#x1ea0;" horiz-adv-x="1379" 
d="M1241 0l-204 516h-698l-204 -516h-95l589 1480h120l589 -1480h-97zM372 599h632l-316 800zM636.5 -301q-20.5 19 -20.5 51t20.5 51.5t53.5 19.5t53.5 -19.5t20.5 -51.5t-20.5 -51t-53.5 -19t-53.5 19z" />
    <glyph glyph-name="uni1EA1" unicode="&#x1ea1;" horiz-adv-x="1055" 
d="M714 1063q87 -34 132.5 -114t45.5 -215v-734h-78l-8 129h-8q-58 -67 -151 -106t-197 -39q-157 0 -245 75.5t-88 210.5q0 136 91 211t292 98l302 36v119q0 110 -35 171.5t-102.5 86t-173.5 24.5q-73 0 -153 -12.5t-158 -40.5v83q65 25 149.5 38t165.5 13q132 0 219 -34z
M645 103q89 40 157 120v316l-301 -36q-154 -18 -221.5 -72t-67.5 -154q0 -104 62 -159t186 -55q96 0 185 40zM489.5 -303q-19.5 19 -19.5 52q0 32 20 52t52 20t52 -20t20 -52q0 -33 -20 -52t-52 -19q-33 0 -52.5 19z" />
    <glyph glyph-name="uni1EA2" unicode="&#x1ea2;" horiz-adv-x="1379" 
d="M1241 0l-204 516h-698l-204 -516h-95l589 1480h120l589 -1480h-97zM372 599h632l-316 800zM669 1662.5q15 19.5 35 30.5t53 25q37 14 54.5 27t17.5 34q0 25 -28 38.5t-97 13.5q-57 0 -104 -8t-102 -28v60q88 36 208 36q96 0 143.5 -29.5t47.5 -80.5q0 -39 -24 -59
t-69 -39q-37 -16 -56 -30t-22 -39h-73q1 29 16 48.5z" />
    <glyph glyph-name="uni1EA3" unicode="&#x1ea3;" horiz-adv-x="1055" 
d="M714 1063q87 -34 132.5 -114t45.5 -215v-734h-78l-8 129h-8q-58 -67 -151 -106t-197 -39q-157 0 -245 75.5t-88 210.5q0 136 91 211t292 98l302 36v119q0 110 -35 171.5t-102.5 86t-173.5 24.5q-73 0 -153 -12.5t-158 -40.5v83q65 25 149.5 38t165.5 13q132 0 219 -34z
M645 103q89 40 157 120v316l-301 -36q-154 -18 -221.5 -72t-67.5 -154q0 -104 62 -159t186 -55q96 0 185 40zM505 1326q15 27 35 44.5t51 37.5q36 24 51.5 40.5t15.5 42.5q0 38 -33 56.5t-101 18.5q-40 0 -83.5 -6t-77.5 -18v62q31 11 74.5 17.5t84.5 6.5q103 0 153.5 -35
t50.5 -100q0 -31 -11.5 -53.5t-28 -36.5t-45.5 -33q-39 -26 -59.5 -48.5t-21.5 -60.5h-71q1 38 16 65z" />
    <glyph glyph-name="uni1EA4" unicode="&#x1ea4;" horiz-adv-x="1379" 
d="M1241 0l-204 516h-698l-204 -516h-95l589 1480h120l589 -1480h-97zM372 599h632l-316 800zM1119 2064h95l-211 -270h-78zM643 1886h93l264 -272h-101l-209 222l-209 -222h-101z" />
    <glyph glyph-name="uni1EA5" unicode="&#x1ea5;" horiz-adv-x="1055" 
d="M714 1063q87 -34 132.5 -114t45.5 -215v-734h-78l-8 129h-8q-58 -67 -151 -106t-197 -39q-157 0 -245 75.5t-88 210.5q0 136 91 211t292 98l302 36v119q0 110 -35 171.5t-102.5 86t-173.5 24.5q-73 0 -153 -12.5t-158 -40.5v83q65 25 149.5 38t165.5 13q132 0 219 -34z
M645 103q89 40 157 120v316l-301 -36q-154 -18 -221.5 -72t-67.5 -154q0 -104 62 -159t186 -55q96 0 185 40zM938 1868h99l-216 -272h-82zM478 1616h92l240 -355h-88l-198 298l-198 -298h-89z" />
    <glyph glyph-name="uni1EA6" unicode="&#x1ea6;" horiz-adv-x="1379" 
d="M1241 0l-204 516h-698l-204 -516h-95l589 1480h120l589 -1480h-97zM372 599h632l-316 800zM1024 1794h-77l-211 270h94zM643 1886h93l264 -272h-101l-209 222l-209 -222h-101z" />
    <glyph glyph-name="uni1EA7" unicode="&#x1ea7;" horiz-adv-x="1055" 
d="M714 1063q87 -34 132.5 -114t45.5 -215v-734h-78l-8 129h-8q-58 -67 -151 -106t-197 -39q-157 0 -245 75.5t-88 210.5q0 136 91 211t292 98l302 36v119q0 110 -35 171.5t-102.5 86t-173.5 24.5q-73 0 -153 -12.5t-158 -40.5v83q65 25 149.5 38t165.5 13q132 0 219 -34z
M645 103q89 40 157 120v316l-301 -36q-154 -18 -221.5 -72t-67.5 -154q0 -104 62 -159t186 -55q96 0 185 40zM842 1596h-82l-216 272h99zM478 1616h92l240 -355h-88l-198 298l-198 -298h-89z" />
    <glyph glyph-name="uni1EA8" unicode="&#x1ea8;" horiz-adv-x="1379" 
d="M1241 0l-204 516h-698l-204 -516h-95l589 1480h120l589 -1480h-97zM372 599h632l-316 800zM1123 2038.5q47 -29.5 47 -79.5q0 -39 -23.5 -58.5t-69.5 -38.5q-38 -16 -56.5 -29.5t-21.5 -38.5h-73q1 29 16 48t34.5 30t53.5 25q37 14 54.5 26.5t17.5 33.5q0 25 -27.5 38.5
t-96.5 13.5q-57 0 -104.5 -8t-102.5 -27v59q90 35 209 35q96 0 143 -29.5zM643 1886h93l264 -272h-101l-209 222l-209 -222h-101z" />
    <glyph glyph-name="uni1EA9" unicode="&#x1ea9;" horiz-adv-x="1055" 
d="M714 1063q87 -34 132.5 -114t45.5 -215v-734h-78l-8 129h-8q-58 -67 -151 -106t-197 -39q-157 0 -245 75.5t-88 210.5q0 136 91 211t292 98l302 36v119q0 110 -35 171.5t-102.5 86t-173.5 24.5q-73 0 -153 -12.5t-158 -40.5v83q65 25 149.5 38t165.5 13q132 0 219 -34z
M645 103q89 40 157 120v316l-301 -36q-154 -18 -221.5 -72t-67.5 -154q0 -104 62 -159t186 -55q96 0 185 40zM935.5 1840.5q46.5 -29.5 46.5 -79.5q0 -39 -23.5 -58.5t-68.5 -37.5q-37 -16 -56 -30t-22 -39h-73q3 41 29.5 62.5t74.5 40.5q36 14 53.5 26.5t17.5 33.5
q0 25 -27.5 38.5t-96.5 13.5q-57 0 -104 -8t-101 -27v59q90 35 208 35q96 0 142.5 -29.5zM478 1616h92l240 -355h-88l-198 298l-198 -298h-89z" />
    <glyph glyph-name="uni1EAA" unicode="&#x1eaa;" horiz-adv-x="1379" 
d="M1241 0l-204 516h-698l-204 -516h-95l589 1480h120l589 -1480h-97zM372 599h632l-316 800zM923.5 2013q39.5 17 76.5 53v-74q-62 -60 -165 -60q-39 0 -74 10t-88 30q-40 17 -70 25.5t-58 8.5q-49 0 -88.5 -17t-76.5 -54v74q61 61 165 61q39 0 74 -10t88 -30
q40 -17 70 -25.5t58 -8.5q49 0 88.5 17zM643 1886h93l264 -272h-101l-209 222l-209 -222h-101z" />
    <glyph glyph-name="uni1EAB" unicode="&#x1eab;" horiz-adv-x="1055" 
d="M714 1063q87 -34 132.5 -114t45.5 -215v-734h-78l-8 129h-8q-58 -67 -151 -106t-197 -39q-157 0 -245 75.5t-88 210.5q0 136 91 211t292 98l302 36v119q0 110 -35 171.5t-102.5 86t-173.5 24.5q-73 0 -153 -12.5t-158 -40.5v83q65 25 149.5 38t165.5 13q132 0 219 -34z
M645 103q89 40 157 120v316l-301 -36q-154 -18 -221.5 -72t-67.5 -154q0 -104 62 -159t186 -55q96 0 185 40zM757 1755q39 17 74 53v-76q-59 -61 -162 -61q-39 0 -76 10.5t-85 29.5q-48 18 -75 26t-55 8q-48 0 -87 -17t-74 -53v76q59 61 162 61q39 0 76 -10.5t85 -29.5
q48 -18 75 -26t55 -8q48 0 87 17zM477 1611h93l242 -350h-89l-199 295l-199 -295h-89z" />
    <glyph glyph-name="uni1EAC" unicode="&#x1eac;" horiz-adv-x="1379" 
d="M1241 0l-204 516h-698l-204 -516h-95l589 1480h120l589 -1480h-97zM372 599h632l-316 800zM636.5 -301q-20.5 19 -20.5 51t20.5 51.5t53.5 19.5t53.5 -19.5t20.5 -51.5t-20.5 -51t-53.5 -19t-53.5 19zM1000 1614h-101l-209 223l-209 -223h-101l263 275h93z" />
    <glyph glyph-name="uni1EAD" unicode="&#x1ead;" horiz-adv-x="1055" 
d="M714 1063q87 -34 132.5 -114t45.5 -215v-734h-78l-8 129h-8q-58 -67 -151 -106t-197 -39q-157 0 -245 75.5t-88 210.5q0 136 91 211t292 98l302 36v119q0 110 -35 171.5t-102.5 86t-173.5 24.5q-73 0 -153 -12.5t-158 -40.5v83q65 25 149.5 38t165.5 13q132 0 219 -34z
M645 103q89 40 157 120v316l-301 -36q-154 -18 -221.5 -72t-67.5 -154q0 -104 62 -159t186 -55q96 0 185 40zM489.5 -303q-19.5 19 -19.5 52q0 32 20 52t52 20t52 -20t20 -52q0 -33 -20 -52t-52 -19q-33 0 -52.5 19zM810 1261h-88l-198 298l-198 -298h-89l241 355h92z" />
    <glyph glyph-name="uni1EAE" unicode="&#x1eae;" horiz-adv-x="1379" 
d="M1241 0l-204 516h-698l-204 -516h-95l589 1480h120l589 -1480h-97zM372 599h632l-316 800zM651 1844l194 251h95l-211 -251h-78zM469 1689q-78 64 -89 171h69q12 -83 68 -126t174 -43q119 0 173 42.5t67 126.5h68q-11 -108 -87.5 -171.5t-220.5 -63.5t-222 64z" />
    <glyph glyph-name="uni1EAF" unicode="&#x1eaf;" horiz-adv-x="1055" 
d="M714 1063q87 -34 132.5 -114t45.5 -215v-734h-78l-8 129h-8q-58 -67 -151 -106t-197 -39q-157 0 -245 75.5t-88 210.5q0 136 91 211t292 98l302 36v119q0 110 -35 171.5t-102.5 86t-173.5 24.5q-73 0 -153 -12.5t-158 -40.5v83q65 25 149.5 38t165.5 13q132 0 219 -34z
M645 103q89 40 157 120v316l-301 -36q-154 -18 -221.5 -72t-67.5 -154q0 -104 62 -159t186 -55q96 0 185 40zM483 1596l199 272h99l-216 -272h-82zM314.5 1357.5q-76.5 84.5 -82.5 228.5h71q16 -247 223 -247q106 0 158.5 64t60.5 183h71q-7 -146 -81.5 -229.5t-208.5 -83.5
q-135 0 -211.5 84.5z" />
    <glyph glyph-name="uni1EB0" unicode="&#x1eb0;" horiz-adv-x="1379" 
d="M1241 0l-204 516h-698l-204 -516h-95l589 1480h120l589 -1480h-97zM372 599h632l-316 800zM651 1844l-211 251h95l194 -251h-78zM467.5 1688q-76.5 63 -87.5 172h69q12 -84 66.5 -126.5t172.5 -42.5q119 0 174.5 42.5t67.5 126.5h69q-11 -107 -89 -171t-222 -64
t-220.5 63z" />
    <glyph glyph-name="uni1EB1" unicode="&#x1eb1;" horiz-adv-x="1055" 
d="M714 1063q87 -34 132.5 -114t45.5 -215v-734h-78l-8 129h-8q-58 -67 -151 -106t-197 -39q-157 0 -245 75.5t-88 210.5q0 136 91 211t292 98l302 36v119q0 110 -35 171.5t-102.5 86t-173.5 24.5q-73 0 -153 -12.5t-158 -40.5v83q65 25 149.5 38t165.5 13q132 0 219 -34z
M645 103q89 40 157 120v316l-301 -36q-154 -18 -221.5 -72t-67.5 -154q0 -104 62 -159t186 -55q96 0 185 40zM483 1596l-217 272h100l199 -272h-82zM314.5 1357.5q-76.5 84.5 -82.5 228.5h71q16 -247 223 -247q106 0 158.5 64t60.5 183h71q-7 -146 -81.5 -229.5
t-208.5 -83.5q-135 0 -211.5 84.5z" />
    <glyph glyph-name="uni1EB2" unicode="&#x1eb2;" horiz-adv-x="1379" 
d="M1241 0l-204 516h-698l-204 -516h-95l589 1480h120l589 -1480h-97zM372 599h632l-316 800zM669 1892q15 19 34.5 30t53.5 25q37 14 54.5 26.5t17.5 33.5q0 25 -28 38.5t-97 13.5q-57 0 -104 -8t-102 -27v58q86 35 208 35q97 0 144 -29t47 -79q0 -39 -23.5 -58.5
t-69.5 -38.5q-38 -16 -56.5 -29.5t-21.5 -38.5h-73q1 29 16 48zM467.5 1688q-76.5 63 -87.5 172h69q12 -84 66.5 -126.5t172.5 -42.5t174 43t69 126h68q-11 -107 -89 -171t-222 -64t-220.5 63z" />
    <glyph glyph-name="uni1EB3" unicode="&#x1eb3;" horiz-adv-x="1055" 
d="M714 1063q87 -34 132.5 -114t45.5 -215v-734h-78l-8 129h-8q-58 -67 -151 -106t-197 -39q-157 0 -245 75.5t-88 210.5q0 136 91 211t292 98l302 36v119q0 110 -35 171.5t-102.5 86t-173.5 24.5q-73 0 -153 -12.5t-158 -40.5v83q65 25 149.5 38t165.5 13q132 0 219 -34z
M645 103q89 40 157 120v316l-301 -36q-154 -18 -221.5 -72t-67.5 -154q0 -104 62 -159t186 -55q96 0 185 40zM503 1644q15 19 34.5 30t53.5 25q37 14 54.5 26.5t17.5 33.5q0 25 -28 38.5t-97 13.5q-57 0 -104 -8t-102 -27v59q90 35 208 35q96 0 143.5 -29.5t47.5 -79.5
q0 -39 -23.5 -58.5t-69.5 -38.5q-38 -16 -56.5 -29.5t-21.5 -38.5h-73q1 29 16 48zM314.5 1357.5q-76.5 84.5 -82.5 228.5h71q16 -247 223 -247q106 0 158.5 64t60.5 183h71q-7 -146 -81.5 -229.5t-208.5 -83.5q-135 0 -211.5 84.5z" />
    <glyph glyph-name="uni1EB4" unicode="&#x1eb4;" horiz-adv-x="1379" 
d="M1241 0l-204 516h-698l-204 -516h-95l589 1480h120l589 -1480h-97zM372 599h632l-316 800zM761 1942q-35 10 -88 30q-41 17 -70.5 25.5t-57.5 8.5q-49 0 -88.5 -17t-76.5 -54v74q61 61 166 61q38 0 73 -10t88 -30q41 -17 70 -25.5t57 -8.5q49 0 89 17t76 53v-74
q-62 -60 -165 -60q-38 0 -73 10zM467.5 1688q-76.5 63 -87.5 172h69q12 -84 66.5 -126.5t172.5 -42.5t174 43t68 126h69q-11 -107 -89 -171t-222 -64t-220.5 63z" />
    <glyph glyph-name="uni1EB5" unicode="&#x1eb5;" horiz-adv-x="1055" 
d="M714 1063q87 -34 132.5 -114t45.5 -215v-734h-78l-8 129h-8q-58 -67 -151 -106t-197 -39q-157 0 -245 75.5t-88 210.5q0 136 91 211t292 98l302 36v119q0 110 -35 171.5t-102.5 86t-173.5 24.5q-73 0 -153 -12.5t-158 -40.5v83q65 25 149.5 38t165.5 13q132 0 219 -34z
M645 103q89 40 157 120v316l-301 -36q-154 -18 -221.5 -72t-67.5 -154q0 -104 62 -159t186 -55q96 0 185 40zM593 1681.5q-37 10.5 -85 29.5q-48 18 -75 26t-55 8q-49 0 -88 -17t-74 -53v76q59 61 162 61q39 0 74 -10t88 -30q48 -18 75 -26t55 -8q49 0 88 17t74 53v-76
q-59 -61 -163 -61q-39 0 -76 10.5zM314.5 1357.5q-76.5 84.5 -82.5 228.5h71q16 -247 223 -247q106 0 158.5 64t60.5 183h71q-7 -146 -81.5 -229.5t-208.5 -83.5q-135 0 -211.5 84.5z" />
    <glyph glyph-name="uni1EB6" unicode="&#x1eb6;" horiz-adv-x="1379" 
d="M1241 0l-204 516h-698l-204 -516h-95l589 1480h120l589 -1480h-97zM372 599h632l-316 800zM636.5 -301q-20.5 19 -20.5 51t20.5 51.5t53.5 19.5t53.5 -19.5t20.5 -51.5t-20.5 -51t-53.5 -19t-53.5 19zM468.5 1689.5q-78.5 64.5 -89.5 173.5h71q13 -84 68.5 -127
t173.5 -43q117 0 171.5 43t66.5 127h71q-11 -110 -88 -174t-221 -64q-145 0 -223.5 64.5z" />
    <glyph glyph-name="uni1EB7" unicode="&#x1eb7;" horiz-adv-x="1055" 
d="M714 1063q87 -34 132.5 -114t45.5 -215v-734h-78l-8 129h-8q-58 -67 -151 -106t-197 -39q-157 0 -245 75.5t-88 210.5q0 136 91 211t292 98l302 36v119q0 110 -35 171.5t-102.5 86t-173.5 24.5q-73 0 -153 -12.5t-158 -40.5v83q65 25 149.5 38t165.5 13q132 0 219 -34z
M645 103q89 40 157 120v316l-301 -36q-154 -18 -221.5 -72t-67.5 -154q0 -104 62 -159t186 -55q96 0 185 40zM489.5 -303q-19.5 19 -19.5 52q0 32 20 52t52 20t52 -20t20 -52q0 -33 -20 -52t-52 -19q-33 0 -52.5 19zM315 1358q-76 85 -82 230h71q16 -248 222 -248
q106 0 158.5 64t59.5 184h71q-6 -147 -81 -231t-208 -84q-135 0 -211 85z" />
    <glyph glyph-name="uni1EB8" unicode="&#x1eb8;" horiz-adv-x="1212" 
d="M288 83h834v-83h-924v1480h914v-83h-824v-595h726v-83h-726v-636zM625.5 -301q-20.5 19 -20.5 51t20.5 51.5t53.5 19.5t53.5 -19.5t20.5 -51.5t-20.5 -51t-53.5 -19t-53.5 19z" />
    <glyph glyph-name="uni1EB9" unicode="&#x1eb9;" horiz-adv-x="1063" 
d="M967 505h-759q6 -231 111.5 -336.5t306.5 -105.5q126 0 290 52v-84q-153 -49 -297 -49q-247 0 -375.5 136t-128.5 423q0 277 114.5 416.5t318.5 139.5q203 0 311 -138.5t108 -418.5v-35zM300 914q-87 -105 -92 -332h669q-5 228 -88 332.5t-242 104.5q-160 0 -247 -105z
M498.5 -303q-19.5 19 -19.5 52q0 32 20 52t52 20t52 -20t20 -52q0 -33 -20 -52t-52 -19q-33 0 -52.5 19z" />
    <glyph glyph-name="uni1EBA" unicode="&#x1eba;" horiz-adv-x="1212" 
d="M288 83h834v-83h-924v1480h914v-83h-824v-595h726v-83h-726v-636zM655 1662.5q15 19.5 35 30.5t53 25q37 14 54.5 27t17.5 34q0 25 -28 38.5t-97 13.5q-57 0 -104 -8t-102 -28v60q88 36 208 36q96 0 143.5 -29.5t47.5 -80.5q0 -39 -24 -59t-69 -39q-37 -16 -56 -30
t-22 -39h-73q1 29 16 48.5z" />
    <glyph glyph-name="uni1EBB" unicode="&#x1ebb;" horiz-adv-x="1063" 
d="M967 505h-759q6 -231 111.5 -336.5t306.5 -105.5q126 0 290 52v-84q-153 -49 -297 -49q-247 0 -375.5 136t-128.5 423q0 277 114.5 416.5t318.5 139.5q203 0 311 -138.5t108 -418.5v-35zM300 914q-87 -105 -92 -332h669q-5 228 -88 332.5t-242 104.5q-160 0 -247 -105z
M532 1326q15 27 35 44.5t51 37.5q36 24 51.5 40.5t15.5 42.5q0 38 -33 56.5t-101 18.5q-40 0 -83.5 -6t-77.5 -18v62q31 11 74.5 17.5t84.5 6.5q103 0 153.5 -35t50.5 -100q0 -31 -11.5 -53.5t-28 -36.5t-45.5 -33q-39 -26 -59.5 -48.5t-21.5 -60.5h-71q1 38 16 65z" />
    <glyph glyph-name="uni1EBC" unicode="&#x1ebc;" horiz-adv-x="1212" 
d="M288 83h834v-83h-924v1480h914v-83h-824v-595h726v-83h-726v-636zM751.5 1701q-36.5 10 -91.5 30q-46 18 -77 26.5t-62 8.5q-54 0 -93.5 -17t-76.5 -54v78q61 61 170 61q42 0 79 -10t92 -30q46 -18 77 -26.5t62 -8.5q53 0 93 17t76 54v-78q-59 -61 -170 -61
q-42 0 -78.5 10z" />
    <glyph glyph-name="uni1EBD" unicode="&#x1ebd;" horiz-adv-x="1063" 
d="M967 505h-759q6 -231 111.5 -336.5t306.5 -105.5q126 0 290 52v-84q-153 -49 -297 -49q-247 0 -375.5 136t-128.5 423q0 277 114.5 416.5t318.5 139.5q203 0 311 -138.5t108 -418.5v-35zM300 914q-87 -105 -92 -332h669q-5 228 -88 332.5t-242 104.5q-160 0 -247 -105z
M621 1382.5q-35 10.5 -86 30.5q-42 17 -71.5 26t-57.5 9q-48 0 -87 -17.5t-74 -54.5v80q59 61 162 61q39 0 74 -10.5t86 -30.5q42 -17 71.5 -26t57.5 -9q48 0 87 17.5t74 54.5v-79q-59 -62 -162 -62q-39 0 -74 10.5z" />
    <glyph glyph-name="uni1EBE" unicode="&#x1ebe;" horiz-adv-x="1212" 
d="M288 83h834v-83h-924v1480h914v-83h-824v-595h726v-83h-726v-636zM1105 2064h95l-211 -270h-78zM629 1886h93l264 -272h-101l-209 222l-209 -222h-101z" />
    <glyph glyph-name="uni1EBF" unicode="&#x1ebf;" horiz-adv-x="1063" 
d="M967 505h-759q6 -231 111.5 -336.5t306.5 -105.5q126 0 290 52v-84q-153 -49 -297 -49q-247 0 -375.5 136t-128.5 423q0 277 114.5 416.5t318.5 139.5q203 0 311 -138.5t108 -418.5v-35zM300 914q-87 -105 -92 -332h669q-5 228 -88 332.5t-242 104.5q-160 0 -247 -105z
M965 1868h99l-216 -272h-82zM505 1616h92l240 -355h-88l-198 298l-198 -298h-89z" />
    <glyph glyph-name="uni1EC0" unicode="&#x1ec0;" horiz-adv-x="1212" 
d="M288 83h834v-83h-924v1480h914v-83h-824v-595h726v-83h-726v-636zM1010 1794h-77l-211 270h94zM629 1886h93l264 -272h-101l-209 222l-209 -222h-101z" />
    <glyph glyph-name="uni1EC1" unicode="&#x1ec1;" horiz-adv-x="1063" 
d="M967 505h-759q6 -231 111.5 -336.5t306.5 -105.5q126 0 290 52v-84q-153 -49 -297 -49q-247 0 -375.5 136t-128.5 423q0 277 114.5 416.5t318.5 139.5q203 0 311 -138.5t108 -418.5v-35zM300 914q-87 -105 -92 -332h669q-5 228 -88 332.5t-242 104.5q-160 0 -247 -105z
M869 1596h-82l-216 272h99zM505 1616h92l240 -355h-88l-198 298l-198 -298h-89z" />
    <glyph glyph-name="uni1EC2" unicode="&#x1ec2;" horiz-adv-x="1212" 
d="M288 83h834v-83h-924v1480h914v-83h-824v-595h726v-83h-726v-636zM1109 2038.5q47 -29.5 47 -79.5q0 -39 -23.5 -58.5t-69.5 -38.5q-38 -16 -56.5 -29.5t-21.5 -38.5h-73q1 29 16 48t34.5 30t53.5 25q37 14 54.5 26.5t17.5 33.5q0 25 -27.5 38.5t-96.5 13.5
q-57 0 -104.5 -8t-102.5 -27v59q90 35 209 35q96 0 143 -29.5zM629 1886h93l264 -272h-101l-209 222l-209 -222h-101z" />
    <glyph glyph-name="uni1EC3" unicode="&#x1ec3;" horiz-adv-x="1063" 
d="M967 505h-759q6 -231 111.5 -336.5t306.5 -105.5q126 0 290 52v-84q-153 -49 -297 -49q-247 0 -375.5 136t-128.5 423q0 277 114.5 416.5t318.5 139.5q203 0 311 -138.5t108 -418.5v-35zM300 914q-87 -105 -92 -332h669q-5 228 -88 332.5t-242 104.5q-160 0 -247 -105z
M962.5 1840.5q46.5 -29.5 46.5 -79.5q0 -39 -23.5 -58.5t-68.5 -37.5q-37 -16 -56 -30t-22 -39h-73q3 41 29.5 62.5t74.5 40.5q36 14 53.5 26.5t17.5 33.5q0 25 -27.5 38.5t-96.5 13.5q-57 0 -104 -8t-101 -27v59q90 35 208 35q96 0 142.5 -29.5zM505 1616h92l240 -355h-88
l-198 298l-198 -298h-89z" />
    <glyph glyph-name="uni1EC4" unicode="&#x1ec4;" horiz-adv-x="1212" 
d="M288 83h834v-83h-924v1480h914v-83h-824v-595h726v-83h-726v-636zM909.5 2013q39.5 17 76.5 53v-74q-62 -60 -165 -60q-39 0 -74 10t-88 30q-40 17 -70 25.5t-58 8.5q-49 0 -88.5 -17t-76.5 -54v74q61 61 165 61q39 0 74 -10t88 -30q40 -17 70 -25.5t58 -8.5
q49 0 88.5 17zM629 1886h93l264 -272h-101l-209 222l-209 -222h-101z" />
    <glyph glyph-name="uni1EC5" unicode="&#x1ec5;" horiz-adv-x="1063" 
d="M967 505h-759q6 -231 111.5 -336.5t306.5 -105.5q126 0 290 52v-84q-153 -49 -297 -49q-247 0 -375.5 136t-128.5 423q0 277 114.5 416.5t318.5 139.5q203 0 311 -138.5t108 -418.5v-35zM300 914q-87 -105 -92 -332h669q-5 228 -88 332.5t-242 104.5q-160 0 -247 -105z
M784 1755q39 17 74 53v-76q-59 -61 -162 -61q-39 0 -76 10.5t-85 29.5q-48 18 -75 26t-55 8q-48 0 -87 -17t-74 -53v76q59 61 162 61q39 0 76 -10.5t85 -29.5q48 -18 75 -26t55 -8q48 0 87 17zM504 1611h93l242 -350h-89l-199 295l-199 -295h-89z" />
    <glyph glyph-name="uni1EC6" unicode="&#x1ec6;" horiz-adv-x="1212" 
d="M288 83h834v-83h-924v1480h914v-83h-824v-595h726v-83h-726v-636zM625.5 -301q-20.5 19 -20.5 51t20.5 51.5t53.5 19.5t53.5 -19.5t20.5 -51.5t-20.5 -51t-53.5 -19t-53.5 19zM986 1614h-101l-209 223l-209 -223h-101l263 275h93z" />
    <glyph glyph-name="uni1EC7" unicode="&#x1ec7;" horiz-adv-x="1063" 
d="M967 505h-759q6 -231 111.5 -336.5t306.5 -105.5q126 0 290 52v-84q-153 -49 -297 -49q-247 0 -375.5 136t-128.5 423q0 277 114.5 416.5t318.5 139.5q203 0 311 -138.5t108 -418.5v-35zM300 914q-87 -105 -92 -332h669q-5 228 -88 332.5t-242 104.5q-160 0 -247 -105z
M498.5 -303q-19.5 19 -19.5 52q0 32 20 52t52 20t52 -20t20 -52q0 -33 -20 -52t-52 -19q-33 0 -52.5 19zM837 1261h-88l-198 298l-198 -298h-89l241 355h92z" />
    <glyph glyph-name="uni1EC8" unicode="&#x1ec8;" horiz-adv-x="487" 
d="M198 0v1480h91v-1480h-91zM222 1662.5q15 19.5 35 30.5t53 25q37 14 54.5 27t17.5 34q0 25 -28 38.5t-97 13.5q-57 0 -104 -8t-102 -28v60q88 36 208 36q96 0 143.5 -29.5t47.5 -80.5q0 -39 -24 -59t-69 -39q-37 -16 -56 -30t-22 -39h-73q1 29 16 48.5z" />
    <glyph glyph-name="uni1EC9" unicode="&#x1ec9;" horiz-adv-x="447" 
d="M178 0v1081h91v-1081h-91zM205 1326q15 27 35 44.5t51 37.5q36 24 51.5 40.5t15.5 42.5q0 38 -33 56.5t-101 18.5q-40 0 -83.5 -6t-77.5 -18v62q31 11 74.5 17.5t84.5 6.5q103 0 153.5 -35t50.5 -100q0 -31 -11.5 -53.5t-28 -36.5t-45.5 -33q-39 -26 -59.5 -48.5
t-21.5 -60.5h-71q1 38 16 65z" />
    <glyph glyph-name="uni1ECA" unicode="&#x1eca;" horiz-adv-x="487" 
d="M198 0v1480h91v-1480h-91zM189.5 -301q-20.5 19 -20.5 51t20.5 51.5t53.5 19.5t53.5 -19.5t20.5 -51.5t-20.5 -51t-53.5 -19t-53.5 19z" />
    <glyph glyph-name="uni1ECB" unicode="&#x1ecb;" horiz-adv-x="447" 
d="M178 0v1081h91v-1081h-91zM170 1370q-20 19 -20 52t20 53t54 20t54 -20t20 -53t-20 -52t-54 -19t-54 19zM171.5 -303q-19.5 19 -19.5 52q0 32 20 52t52 20t52 -20t20 -52q0 -33 -20 -52t-52 -19q-33 0 -52.5 19z" />
    <glyph glyph-name="uni1ECC" unicode="&#x1ecc;" horiz-adv-x="1487" 
d="M416 61.5q-138 79.5 -214.5 248.5t-76.5 430q0 260 77 429.5t215.5 249t325.5 79.5q289 0 454 -185.5t165 -572.5q0 -260 -77 -429.5t-215.5 -249t-326.5 -79.5q-189 0 -327 79.5zM1129 226q138 159 138 510q0 677 -524 677q-247 0 -385 -159t-138 -510q0 -677 523 -677
q248 0 386 159zM689.5 -301q-20.5 19 -20.5 51t20.5 51.5t53.5 19.5t53.5 -19.5t20.5 -51.5t-20.5 -51t-53.5 -19t-53.5 19z" />
    <glyph glyph-name="uni1ECD" unicode="&#x1ecd;" horiz-adv-x="1144" 
d="M235.5 118q-120.5 136 -120.5 422q0 283 121.5 420t335.5 137q216 0 336.5 -135.5t120.5 -421.5q0 -282 -122 -420t-335 -138q-216 0 -336.5 136zM841 175q94 112 94 363q0 254 -94 366t-269 112t-269.5 -111t-94.5 -362q0 -254 94.5 -367t269.5 -113t269 112z
M519.5 -303q-19.5 19 -19.5 52q0 32 20 52t52 20t52 -20t20 -52q0 -33 -20 -52t-52 -19q-33 0 -52.5 19z" />
    <glyph glyph-name="uni1ECE" unicode="&#x1ece;" horiz-adv-x="1487" 
d="M416 61.5q-138 79.5 -214.5 248.5t-76.5 430q0 260 77 429.5t215.5 249t325.5 79.5q289 0 454 -185.5t165 -572.5q0 -260 -77 -429.5t-215.5 -249t-326.5 -79.5q-189 0 -327 79.5zM1129 226q138 159 138 510q0 677 -524 677q-247 0 -385 -159t-138 -510q0 -677 523 -677
q248 0 386 159zM722 1662.5q15 19.5 35 30.5t53 25q37 14 54.5 27t17.5 34q0 25 -28 38.5t-97 13.5q-57 0 -104 -8t-102 -28v60q88 36 208 36q96 0 143.5 -29.5t47.5 -80.5q0 -39 -24 -59t-69 -39q-37 -16 -56 -30t-22 -39h-73q1 29 16 48.5z" />
    <glyph glyph-name="uni1ECF" unicode="&#x1ecf;" horiz-adv-x="1144" 
d="M235.5 118q-120.5 136 -120.5 422q0 283 121.5 420t335.5 137q216 0 336.5 -135.5t120.5 -421.5q0 -282 -122 -420t-335 -138q-216 0 -336.5 136zM841 175q94 112 94 363q0 254 -94 366t-269 112t-269.5 -111t-94.5 -362q0 -254 94.5 -367t269.5 -113t269 112zM553 1326
q15 27 35 44.5t51 37.5q36 24 51.5 40.5t15.5 42.5q0 38 -33 56.5t-101 18.5q-40 0 -83.5 -6t-77.5 -18v62q31 11 74.5 17.5t84.5 6.5q103 0 153.5 -35t50.5 -100q0 -31 -11.5 -53.5t-28 -36.5t-45.5 -33q-39 -26 -59.5 -48.5t-21.5 -60.5h-71q1 38 16 65z" />
    <glyph glyph-name="uni1ED0" unicode="&#x1ed0;" horiz-adv-x="1487" 
d="M416 61.5q-138 79.5 -214.5 248.5t-76.5 430q0 260 77 429.5t215.5 249t325.5 79.5q289 0 454 -185.5t165 -572.5q0 -260 -77 -429.5t-215.5 -249t-326.5 -79.5q-189 0 -327 79.5zM1129 226q138 159 138 510q0 677 -524 677q-247 0 -385 -159t-138 -510q0 -677 523 -677
q248 0 386 159zM1172 2064h95l-211 -270h-78zM696 1886h93l264 -272h-101l-209 222l-209 -222h-101z" />
    <glyph glyph-name="uni1ED1" unicode="&#x1ed1;" horiz-adv-x="1144" 
d="M235.5 118q-120.5 136 -120.5 422q0 283 121.5 420t335.5 137q216 0 336.5 -135.5t120.5 -421.5q0 -282 -122 -420t-335 -138q-216 0 -336.5 136zM841 175q94 112 94 363q0 254 -94 366t-269 112t-269.5 -111t-94.5 -362q0 -254 94.5 -367t269.5 -113t269 112zM986 1868
h99l-216 -272h-82zM526 1616h92l240 -355h-88l-198 298l-198 -298h-89z" />
    <glyph glyph-name="uni1ED2" unicode="&#x1ed2;" horiz-adv-x="1487" 
d="M416 61.5q-138 79.5 -214.5 248.5t-76.5 430q0 260 77 429.5t215.5 249t325.5 79.5q289 0 454 -185.5t165 -572.5q0 -260 -77 -429.5t-215.5 -249t-326.5 -79.5q-189 0 -327 79.5zM1129 226q138 159 138 510q0 677 -524 677q-247 0 -385 -159t-138 -510q0 -677 523 -677
q248 0 386 159zM1077 1794h-77l-211 270h94zM696 1886h93l264 -272h-101l-209 222l-209 -222h-101z" />
    <glyph glyph-name="uni1ED3" unicode="&#x1ed3;" horiz-adv-x="1144" 
d="M235.5 118q-120.5 136 -120.5 422q0 283 121.5 420t335.5 137q216 0 336.5 -135.5t120.5 -421.5q0 -282 -122 -420t-335 -138q-216 0 -336.5 136zM841 175q94 112 94 363q0 254 -94 366t-269 112t-269.5 -111t-94.5 -362q0 -254 94.5 -367t269.5 -113t269 112zM890 1596
h-82l-216 272h99zM526 1616h92l240 -355h-88l-198 298l-198 -298h-89z" />
    <glyph glyph-name="uni1ED4" unicode="&#x1ed4;" horiz-adv-x="1487" 
d="M416 61.5q-138 79.5 -214.5 248.5t-76.5 430q0 260 77 429.5t215.5 249t325.5 79.5q289 0 454 -185.5t165 -572.5q0 -260 -77 -429.5t-215.5 -249t-326.5 -79.5q-189 0 -327 79.5zM1129 226q138 159 138 510q0 677 -524 677q-247 0 -385 -159t-138 -510q0 -677 523 -677
q248 0 386 159zM1176 2038.5q47 -29.5 47 -79.5q0 -39 -23.5 -58.5t-69.5 -38.5q-38 -16 -56.5 -29.5t-21.5 -38.5h-73q1 29 16 48t34.5 30t53.5 25q37 14 54.5 26.5t17.5 33.5q0 25 -27.5 38.5t-96.5 13.5q-57 0 -104.5 -8t-102.5 -27v59q90 35 209 35q96 0 143 -29.5z
M696 1886h93l264 -272h-101l-209 222l-209 -222h-101z" />
    <glyph glyph-name="uni1ED5" unicode="&#x1ed5;" horiz-adv-x="1144" 
d="M235.5 118q-120.5 136 -120.5 422q0 283 121.5 420t335.5 137q216 0 336.5 -135.5t120.5 -421.5q0 -282 -122 -420t-335 -138q-216 0 -336.5 136zM841 175q94 112 94 363q0 254 -94 366t-269 112t-269.5 -111t-94.5 -362q0 -254 94.5 -367t269.5 -113t269 112z
M983.5 1840.5q46.5 -29.5 46.5 -79.5q0 -39 -23.5 -58.5t-68.5 -37.5q-37 -16 -56 -30t-22 -39h-73q3 41 29.5 62.5t74.5 40.5q36 14 53.5 26.5t17.5 33.5q0 25 -27.5 38.5t-96.5 13.5q-57 0 -104 -8t-101 -27v59q90 35 208 35q96 0 142.5 -29.5zM526 1616h92l240 -355h-88
l-198 298l-198 -298h-89z" />
    <glyph glyph-name="uni1ED6" unicode="&#x1ed6;" horiz-adv-x="1487" 
d="M416 61.5q-138 79.5 -214.5 248.5t-76.5 430q0 260 77 429.5t215.5 249t325.5 79.5q289 0 454 -185.5t165 -572.5q0 -260 -77 -429.5t-215.5 -249t-326.5 -79.5q-189 0 -327 79.5zM1129 226q138 159 138 510q0 677 -524 677q-247 0 -385 -159t-138 -510q0 -677 523 -677
q248 0 386 159zM976.5 2013q39.5 17 76.5 53v-74q-62 -60 -165 -60q-39 0 -74 10t-88 30q-40 17 -70 25.5t-58 8.5q-49 0 -88.5 -17t-76.5 -54v74q61 61 165 61q39 0 74 -10t88 -30q40 -17 70 -25.5t58 -8.5q49 0 88.5 17zM696 1886h93l264 -272h-101l-209 222l-209 -222
h-101z" />
    <glyph glyph-name="uni1ED7" unicode="&#x1ed7;" horiz-adv-x="1144" 
d="M235.5 118q-120.5 136 -120.5 422q0 283 121.5 420t335.5 137q216 0 336.5 -135.5t120.5 -421.5q0 -282 -122 -420t-335 -138q-216 0 -336.5 136zM841 175q94 112 94 363q0 254 -94 366t-269 112t-269.5 -111t-94.5 -362q0 -254 94.5 -367t269.5 -113t269 112zM805 1755
q39 17 74 53v-76q-59 -61 -162 -61q-39 0 -76 10.5t-85 29.5q-48 18 -75 26t-55 8q-48 0 -87 -17t-74 -53v76q59 61 162 61q39 0 76 -10.5t85 -29.5q48 -18 75 -26t55 -8q48 0 87 17zM525 1611h93l242 -350h-89l-199 295l-199 -295h-89z" />
    <glyph glyph-name="uni1ED8" unicode="&#x1ed8;" horiz-adv-x="1487" 
d="M416 61.5q-138 79.5 -214.5 248.5t-76.5 430q0 260 77 429.5t215.5 249t325.5 79.5q289 0 454 -185.5t165 -572.5q0 -260 -77 -429.5t-215.5 -249t-326.5 -79.5q-189 0 -327 79.5zM1129 226q138 159 138 510q0 677 -524 677q-247 0 -385 -159t-138 -510q0 -677 523 -677
q248 0 386 159zM689.5 -301q-20.5 19 -20.5 51t20.5 51.5t53.5 19.5t53.5 -19.5t20.5 -51.5t-20.5 -51t-53.5 -19t-53.5 19zM1053 1614h-101l-209 223l-209 -223h-101l263 275h93z" />
    <glyph glyph-name="uni1ED9" unicode="&#x1ed9;" horiz-adv-x="1144" 
d="M235.5 118q-120.5 136 -120.5 422q0 283 121.5 420t335.5 137q216 0 336.5 -135.5t120.5 -421.5q0 -282 -122 -420t-335 -138q-216 0 -336.5 136zM841 175q94 112 94 363q0 254 -94 366t-269 112t-269.5 -111t-94.5 -362q0 -254 94.5 -367t269.5 -113t269 112z
M519.5 -303q-19.5 19 -19.5 52q0 32 20 52t52 20t52 -20t20 -52q0 -33 -20 -52t-52 -19q-33 0 -52.5 19zM858 1261h-88l-198 298l-198 -298h-89l241 355h92z" />
    <glyph glyph-name="uni1EDA" unicode="&#x1eda;" horiz-adv-x="1487" 
d="M1294.5 1150q67.5 -164 67.5 -410q0 -392 -164.5 -575t-454.5 -183q-189 0 -327 79.5t-214.5 248.5t-76.5 430q0 260 77 429.5t215.5 249t325.5 79.5q37 0 77 -3.5t77 -8.5q40 -5 86 -9t92 -4q101 0 155 40.5t54 120.5q0 38 -6 70t-19 72h79q13 -37 19 -69.5t6 -75.5
q0 -104 -67.5 -164.5t-192.5 -67.5q124 -85 191.5 -249zM1129 226q138 159 138 510q0 677 -524 677q-247 0 -385 -159t-138 -510q0 -677 523 -677q248 0 386 159zM699 1614l199 275h105l-216 -275h-88z" />
    <glyph glyph-name="uni1EDB" unicode="&#x1edb;" horiz-adv-x="1144" 
d="M865 1616l-254 -355h-88l239 355h103zM984 831.5q45 -118.5 45 -291.5q0 -282 -122 -420t-335 -138q-216 0 -336.5 136t-120.5 422q0 283 121.5 420t335.5 137q49 0 119 -6q54 -4 73 -4q101 0 154.5 41t53.5 126q0 38 -6 70t-19 72h78q14 -36 19.5 -68.5t5.5 -76.5
q0 -96 -52.5 -156t-150.5 -77q92 -68 137 -186.5zM841 175q94 112 94 363q0 254 -94 366t-269 112t-269.5 -111t-94.5 -362q0 -254 94.5 -367t269.5 -113t269 112z" />
    <glyph glyph-name="uni1EDC" unicode="&#x1edc;" horiz-adv-x="1487" 
d="M1294.5 1150q67.5 -164 67.5 -410q0 -392 -164.5 -575t-454.5 -183q-189 0 -327 79.5t-214.5 248.5t-76.5 430q0 260 77 429.5t215.5 249t325.5 79.5q37 0 77 -3.5t77 -8.5q40 -5 86 -9t92 -4q101 0 155 40.5t54 120.5q0 38 -6 70t-19 72h79q13 -37 19 -69.5t6 -75.5
q0 -104 -67.5 -164.5t-192.5 -67.5q124 -85 191.5 -249zM1129 226q138 159 138 510q0 677 -524 677q-247 0 -385 -159t-138 -510q0 -677 523 -677q248 0 386 159zM699 1614l-216 275h105l199 -275h-88z" />
    <glyph glyph-name="uni1EDD" unicode="&#x1edd;" horiz-adv-x="1144" 
d="M984 831.5q45 -118.5 45 -291.5q0 -282 -122 -420t-335 -138q-216 0 -336.5 136t-120.5 422q0 283 121.5 420t335.5 137q49 0 119 -6q54 -4 73 -4q101 0 154.5 41t53.5 126q0 38 -6 70t-19 72h78q14 -36 19.5 -68.5t5.5 -76.5q0 -96 -52.5 -156t-150.5 -77
q92 -68 137 -186.5zM841 175q94 112 94 363q0 254 -94 366t-269 112t-269.5 -111t-94.5 -362q0 -254 94.5 -367t269.5 -113t269 112zM523 1261l-256 355h104l240 -355h-88z" />
    <glyph glyph-name="uni1EDE" unicode="&#x1ede;" horiz-adv-x="1487" 
d="M1294.5 1150q67.5 -164 67.5 -410q0 -392 -164.5 -575t-454.5 -183q-189 0 -327 79.5t-214.5 248.5t-76.5 430q0 260 77 429.5t215.5 249t325.5 79.5q37 0 77 -3.5t77 -8.5q40 -5 86 -9t92 -4q101 0 155 40.5t54 120.5q0 38 -6 70t-19 72h79q13 -37 19 -69.5t6 -75.5
q0 -104 -67.5 -164.5t-192.5 -67.5q124 -85 191.5 -249zM1129 226q138 159 138 510q0 677 -524 677q-247 0 -385 -159t-138 -510q0 -677 523 -677q248 0 386 159zM722 1662.5q15 19.5 35 30.5t53 25q37 14 54.5 27t17.5 34q0 25 -28 38.5t-97 13.5q-57 0 -104 -8t-102 -28
v60q88 36 208 36q96 0 143.5 -29.5t47.5 -80.5q0 -39 -24 -59t-69 -39q-37 -16 -56 -30t-22 -39h-73q1 29 16 48.5z" />
    <glyph glyph-name="uni1EDF" unicode="&#x1edf;" horiz-adv-x="1144" 
d="M984 831.5q45 -118.5 45 -291.5q0 -282 -122 -420t-335 -138q-216 0 -336.5 136t-120.5 422q0 283 121.5 420t335.5 137q49 0 119 -6q54 -4 73 -4q101 0 154.5 41t53.5 126q0 38 -6 70t-19 72h78q14 -36 19.5 -68.5t5.5 -76.5q0 -96 -52.5 -156t-150.5 -77
q92 -68 137 -186.5zM841 175q94 112 94 363q0 254 -94 366t-269 112t-269.5 -111t-94.5 -362q0 -254 94.5 -367t269.5 -113t269 112zM548 1326q15 27 35 44.5t51 37.5q36 24 51.5 40.5t15.5 42.5q0 38 -33 56.5t-101 18.5q-40 0 -83.5 -6t-77.5 -18v62q31 11 74.5 17.5
t84.5 6.5q103 0 153.5 -35t50.5 -100q0 -31 -11.5 -53.5t-28 -36.5t-45.5 -33q-39 -26 -59.5 -48.5t-21.5 -60.5h-71q1 38 16 65z" />
    <glyph glyph-name="uni1EE0" unicode="&#x1ee0;" horiz-adv-x="1487" 
d="M496 1749q-40 -17 -76 -54v78q59 61 170 61q41 0 78 -10t90 -30q48 -18 78.5 -26.5t61.5 -8.5q53 0 93 17t76 54v-78q-59 -61 -170 -61q-41 0 -78 10t-90 30q-48 18 -78.5 26.5t-61.5 8.5q-53 0 -93 -17zM1294.5 1150q67.5 -164 67.5 -410q0 -392 -164.5 -575
t-454.5 -183q-189 0 -327 79.5t-214.5 248.5t-76.5 430q0 260 77 429.5t215.5 249t325.5 79.5q37 0 77 -3.5t77 -8.5q40 -5 86 -9t92 -4q101 0 155 40.5t54 120.5q0 38 -6 70t-19 72h79q13 -37 19 -69.5t6 -75.5q0 -104 -67.5 -164.5t-192.5 -67.5q124 -85 191.5 -249z
M1129 226q138 159 138 510q0 677 -524 677q-247 0 -385 -159t-138 -510q0 -677 523 -677q248 0 386 159z" />
    <glyph glyph-name="uni1EE1" unicode="&#x1ee1;" horiz-adv-x="1144" 
d="M335 1430.5q-39 -17.5 -74 -54.5v80q59 61 161 61q39 0 74.5 -10.5t84.5 -30.5q43 -18 71.5 -26.5t56.5 -8.5q48 0 86 17.5t74 54.5v-79q-59 -62 -160 -62q-39 0 -74 10.5t-86 30.5q-44 18 -71.5 26.5t-55.5 8.5q-48 0 -87 -17.5zM984 831.5q45 -118.5 45 -291.5
q0 -282 -122 -420t-335 -138q-216 0 -336.5 136t-120.5 422q0 283 121.5 420t335.5 137q49 0 119 -6q54 -4 73 -4q101 0 154.5 41t53.5 126q0 38 -6 70t-19 72h78q14 -36 19.5 -68.5t5.5 -76.5q0 -96 -52.5 -156t-150.5 -77q92 -68 137 -186.5zM841 175q94 112 94 363
q0 254 -94 366t-269 112t-269.5 -111t-94.5 -362q0 -254 94.5 -367t269.5 -113t269 112z" />
    <glyph glyph-name="uni1EE2" unicode="&#x1ee2;" horiz-adv-x="1487" 
d="M1294.5 1150q67.5 -164 67.5 -410q0 -392 -164.5 -575t-454.5 -183q-189 0 -327 79.5t-214.5 248.5t-76.5 430q0 260 77 429.5t215.5 249t325.5 79.5q37 0 77 -3.5t77 -8.5q40 -5 86 -9t92 -4q101 0 155 40.5t54 120.5q0 38 -6 70t-19 72h79q13 -37 19 -69.5t6 -75.5
q0 -104 -67.5 -164.5t-192.5 -67.5q124 -85 191.5 -249zM1129 226q138 159 138 510q0 677 -524 677q-247 0 -385 -159t-138 -510q0 -677 523 -677q248 0 386 159zM689.5 -301q-20.5 19 -20.5 51t20.5 51.5t53.5 19.5t53.5 -19.5t20.5 -51.5t-20.5 -51t-53.5 -19t-53.5 19z
" />
    <glyph glyph-name="uni1EE3" unicode="&#x1ee3;" horiz-adv-x="1144" 
d="M984 831.5q45 -118.5 45 -291.5q0 -282 -122 -420t-335 -138q-216 0 -336.5 136t-120.5 422q0 283 121.5 420t335.5 137q49 0 119 -6q54 -4 73 -4q101 0 154.5 41t53.5 126q0 38 -6 70t-19 72h78q14 -36 19.5 -68.5t5.5 -76.5q0 -96 -52.5 -156t-150.5 -77
q92 -68 137 -186.5zM841 175q94 112 94 363q0 254 -94 366t-269 112t-269.5 -111t-94.5 -362q0 -254 94.5 -367t269.5 -113t269 112zM514.5 -303q-19.5 19 -19.5 52q0 32 20 52t52 20t52 -20t20 -52q0 -33 -20 -52t-52 -19q-33 0 -52.5 19z" />
    <glyph glyph-name="uni1EE4" unicode="&#x1ee4;" horiz-adv-x="1470" 
d="M428 42q-120 60 -179 186.5t-59 326.5v925h91v-937q0 -167 48.5 -272t148.5 -155t258 -50t258 50t148.5 155t48.5 272v937h89v-925q0 -200 -58.5 -326.5t-178.5 -186.5t-307 -60q-188 0 -308 60zM682.5 -301q-20.5 19 -20.5 51t20.5 51.5t53.5 19.5t53.5 -19.5
t20.5 -51.5t-20.5 -51t-53.5 -19t-53.5 19z" />
    <glyph glyph-name="uni1EE5" unicode="&#x1ee5;" horiz-adv-x="1167" 
d="M258.5 72.5q-95.5 90.5 -95.5 288.5v720h90v-718q0 -158 73.5 -227.5t205.5 -69.5q99 0 197.5 42t169.5 127v846h90v-1081h-78l-7 125h-9q-75 -70 -171 -106.5t-202 -36.5q-168 0 -263.5 90.5zM523.5 -303q-19.5 19 -19.5 52q0 32 20 52t52 20t52 -20t20 -52
q0 -33 -20 -52t-52 -19q-33 0 -52.5 19z" />
    <glyph glyph-name="uni1EE6" unicode="&#x1ee6;" horiz-adv-x="1470" 
d="M428 42q-120 60 -179 186.5t-59 326.5v925h91v-937q0 -167 48.5 -272t148.5 -155t258 -50t258 50t148.5 155t48.5 272v937h89v-925q0 -200 -58.5 -326.5t-178.5 -186.5t-307 -60q-188 0 -308 60zM715 1662.5q15 19.5 35 30.5t53 25q37 14 54.5 27t17.5 34q0 25 -28 38.5
t-97 13.5q-57 0 -104 -8t-102 -28v60q88 36 208 36q96 0 143.5 -29.5t47.5 -80.5q0 -39 -24 -59t-69 -39q-37 -16 -56 -30t-22 -39h-73q1 29 16 48.5z" />
    <glyph glyph-name="uni1EE7" unicode="&#x1ee7;" horiz-adv-x="1167" 
d="M258.5 72.5q-95.5 90.5 -95.5 288.5v720h90v-718q0 -158 73.5 -227.5t205.5 -69.5q99 0 197.5 42t169.5 127v846h90v-1081h-78l-7 125h-9q-75 -70 -171 -106.5t-202 -36.5q-168 0 -263.5 90.5zM557 1326q15 27 35 44.5t51 37.5q36 24 51.5 40.5t15.5 42.5q0 38 -33 56.5
t-101 18.5q-40 0 -83.5 -6t-77.5 -18v62q31 11 74.5 17.5t84.5 6.5q103 0 153.5 -35t50.5 -100q0 -31 -11.5 -53.5t-28 -36.5t-45.5 -33q-39 -26 -59.5 -48.5t-21.5 -60.5h-71q1 38 16 65z" />
    <glyph glyph-name="uni1EE8" unicode="&#x1ee8;" horiz-adv-x="1470" 
d="M428 42q-120 60 -179 186.5t-59 326.5v925h91v-937q0 -167 48.5 -272t148.5 -155t258 -50t258 50t148.5 155t48.5 272v937h40q209 0 209 154q0 38 -6 70t-19 72h79q13 -37 19 -69.5t6 -75.5q0 -99 -62.5 -156.5t-176.5 -63.5v-856q0 -200 -58.5 -326.5t-178.5 -186.5
t-307 -60q-188 0 -308 60zM692 1614l199 275h105l-216 -275h-88z" />
    <glyph glyph-name="uni1EE9" unicode="&#x1ee9;" horiz-adv-x="1189" 
d="M1164.5 1079.5q-61.5 -61.5 -175.5 -71.5v-1008h-78l-7 125h-9q-75 -70 -171 -106.5t-202 -36.5q-168 0 -263.5 90.5t-95.5 288.5v720h90v-718q0 -158 73.5 -227.5t205.5 -69.5q99 0 197.5 42t169.5 127v846h41q101 0 154.5 41.5t53.5 126.5q0 39 -6 71.5t-19 70.5h78
q14 -36 19.5 -68.5t5.5 -76.5q0 -105 -61.5 -166.5zM532 1261l240 355h103l-255 -355h-88z" />
    <glyph glyph-name="uni1EEA" unicode="&#x1eea;" horiz-adv-x="1470" 
d="M428 42q-120 60 -179 186.5t-59 326.5v925h91v-937q0 -167 48.5 -272t148.5 -155t258 -50t258 50t148.5 155t48.5 272v937h40q209 0 209 154q0 38 -6 70t-19 72h79q13 -37 19 -69.5t6 -75.5q0 -99 -62.5 -156.5t-176.5 -63.5v-856q0 -200 -58.5 -326.5t-178.5 -186.5
t-307 -60q-188 0 -308 60zM692 1614l-216 275h105l199 -275h-88z" />
    <glyph glyph-name="uni1EEB" unicode="&#x1eeb;" horiz-adv-x="1189" 
d="M1164.5 1079.5q-61.5 -61.5 -175.5 -71.5v-1008h-78l-7 125h-9q-75 -70 -171 -106.5t-202 -36.5q-168 0 -263.5 90.5t-95.5 288.5v720h90v-718q0 -158 73.5 -227.5t205.5 -69.5q99 0 197.5 42t169.5 127v846h41q101 0 154.5 41.5t53.5 126.5q0 39 -6 71.5t-19 70.5h78
q14 -36 19.5 -68.5t5.5 -76.5q0 -105 -61.5 -166.5zM532 1261l-256 355h104l240 -355h-88z" />
    <glyph glyph-name="uni1EEC" unicode="&#x1eec;" horiz-adv-x="1470" 
d="M428 42q-120 60 -179 186.5t-59 326.5v925h91v-937q0 -167 48.5 -272t148.5 -155t258 -50t258 50t148.5 155t48.5 272v937h40q209 0 209 154q0 38 -6 70t-19 72h79q13 -37 19 -69.5t6 -75.5q0 -99 -62.5 -156.5t-176.5 -63.5v-856q0 -200 -58.5 -326.5t-178.5 -186.5
t-307 -60q-188 0 -308 60zM715 1662.5q15 19.5 35 30.5t53 25q37 14 54.5 27t17.5 34q0 25 -28 38.5t-97 13.5q-57 0 -104 -8t-102 -28v60q88 36 208 36q96 0 143.5 -29.5t47.5 -80.5q0 -39 -24 -59t-69 -39q-37 -16 -56 -30t-22 -39h-73q1 29 16 48.5z" />
    <glyph glyph-name="uni1EED" unicode="&#x1eed;" horiz-adv-x="1189" 
d="M1164.5 1079.5q-61.5 -61.5 -175.5 -71.5v-1008h-78l-7 125h-9q-75 -70 -171 -106.5t-202 -36.5q-168 0 -263.5 90.5t-95.5 288.5v720h90v-718q0 -158 73.5 -227.5t205.5 -69.5q99 0 197.5 42t169.5 127v846h41q101 0 154.5 41.5t53.5 126.5q0 39 -6 71.5t-19 70.5h78
q14 -36 19.5 -68.5t5.5 -76.5q0 -105 -61.5 -166.5zM557 1326q15 27 35 44.5t51 37.5q36 24 51.5 40.5t15.5 42.5q0 38 -33 56.5t-101 18.5q-40 0 -83.5 -6t-77.5 -18v62q31 11 74.5 17.5t84.5 6.5q103 0 153.5 -35t50.5 -100q0 -31 -11.5 -53.5t-28 -36.5t-45.5 -33
q-39 -26 -59.5 -48.5t-21.5 -60.5h-71q1 38 16 65z" />
    <glyph glyph-name="uni1EEE" unicode="&#x1eee;" horiz-adv-x="1470" 
d="M428 42q-120 60 -179 186.5t-59 326.5v925h91v-937q0 -167 48.5 -272t148.5 -155t258 -50t258 50t148.5 155t48.5 272v937h40q209 0 209 154q0 38 -6 70t-19 72h79q13 -37 19 -69.5t6 -75.5q0 -99 -62.5 -156.5t-176.5 -63.5v-856q0 -200 -58.5 -326.5t-178.5 -186.5
t-307 -60q-188 0 -308 60zM811.5 1701q-36.5 10 -91.5 30q-46 18 -77 26.5t-62 8.5q-54 0 -93.5 -17t-76.5 -54v78q61 61 170 61q42 0 79 -10t92 -30q46 -18 77 -26.5t62 -8.5q53 0 93 17t76 54v-78q-59 -61 -170 -61q-42 0 -78.5 10z" />
    <glyph glyph-name="uni1EEF" unicode="&#x1eef;" horiz-adv-x="1189" 
d="M345.5 1430.5q-38.5 -17.5 -73.5 -54.5v80q58 61 161 61q38 0 74 -10.5t85 -30.5q43 -18 71.5 -26.5t56.5 -8.5q48 0 87 17.5t74 54.5v-79q-59 -62 -161 -62q-39 0 -74.5 10.5t-84.5 30.5q-45 18 -73 26.5t-56 8.5q-48 0 -86.5 -17.5zM1164.5 1079.5
q-61.5 -61.5 -175.5 -71.5v-1008h-78l-7 125h-9q-75 -70 -171 -106.5t-202 -36.5q-168 0 -263.5 90.5t-95.5 288.5v720h90v-718q0 -158 73.5 -227.5t205.5 -69.5q99 0 197.5 42t169.5 127v846h41q101 0 154.5 41.5t53.5 126.5q0 39 -6 71.5t-19 70.5h78q14 -36 19.5 -68.5
t5.5 -76.5q0 -105 -61.5 -166.5z" />
    <glyph glyph-name="uni1EF0" unicode="&#x1ef0;" horiz-adv-x="1470" 
d="M428 42q-120 60 -179 186.5t-59 326.5v925h91v-937q0 -167 48.5 -272t148.5 -155t258 -50t258 50t148.5 155t48.5 272v937h40q209 0 209 154q0 38 -6 70t-19 72h79q13 -37 19 -69.5t6 -75.5q0 -99 -62.5 -156.5t-176.5 -63.5v-856q0 -200 -58.5 -326.5t-178.5 -186.5
t-307 -60q-188 0 -308 60zM682.5 -301q-20.5 19 -20.5 51t20.5 51.5t53.5 19.5t53.5 -19.5t20.5 -51.5t-20.5 -51t-53.5 -19t-53.5 19z" />
    <glyph glyph-name="uni1EF1" unicode="&#x1ef1;" horiz-adv-x="1189" 
d="M1164.5 1079.5q-61.5 -61.5 -175.5 -71.5v-1008h-78l-7 125h-9q-75 -70 -171 -106.5t-202 -36.5q-168 0 -263.5 90.5t-95.5 288.5v720h90v-718q0 -158 73.5 -227.5t205.5 -69.5q99 0 197.5 42t169.5 127v846h41q101 0 154.5 41.5t53.5 126.5q0 39 -6 71.5t-19 70.5h78
q14 -36 19.5 -68.5t5.5 -76.5q0 -105 -61.5 -166.5zM523.5 -303q-19.5 19 -19.5 52q0 32 20 52t52 20t52 -20t20 -52q0 -33 -20 -52t-52 -19q-33 0 -52.5 19z" />
    <glyph glyph-name="Ygrave" unicode="&#x1ef2;" horiz-adv-x="1193" 
d="M1205 1480l-563 -807v-673h-91v674l-571 806h108l511 -723l503 723h103zM553 1614l-216 275h105l199 -275h-88z" />
    <glyph glyph-name="ygrave" unicode="&#x1ef3;" horiz-adv-x="1078" 
d="M956 1081h93l-633 -1521h-93l183 440h-27l-450 1081h99l412 -1010zM497 1261l-256 355h104l240 -355h-88z" />
    </font>
</defs>
</svg>
